  0
SECTION
  2
HEADER
  9
$ACADVER
  1
AC1024
  9
$ACADMAINTVER
 70
     6
  9
$DWGCODEPAGE
  3
ANSI_1252
  9
$LASTSAVEDBY
  1
Kevin Ma
  9
$INSBASE
 10
0.0
 20
0.0
 30
0.0
  9
$EXTMIN
 10
-4.0
 20
-4.000000000000028
 30
0.0
  9
$EXTMAX
 10
73.99999999999997
 20
73.99999999999997
 30
0.0
  9
$LIMMIN
 10
0.0
 20
0.0
  9
$LIMMAX
 10
12.0
 20
9.0
  9
$ORTHOMODE
 70
     0
  9
$REGENMODE
 70
     1
  9
$FILLMODE
 70
     1
  9
$QTEXTMODE
 70
     0
  9
$MIRRTEXT
 70
     0
  9
$LTSCALE
 40
1.0
  9
$ATTMODE
 70
     1
  9
$TEXTSIZE
 40
0.2
  9
$TRACEWID
 40
0.05
  9
$TEXTSTYLE
  7
STANDARD
  9
$CLAYER
  8
3
  9
$CELTYPE
  6
BYLAYER
  9
$CECOLOR
 62
   256
  9
$CELTSCALE
 40
1.0
  9
$DISPSILH
 70
     0
  9
$DIMSCALE
 40
1.0
  9
$DIMASZ
 40
0.18
  9
$DIMEXO
 40
0.0625
  9
$DIMDLI
 40
0.38
  9
$DIMRND
 40
0.0
  9
$DIMDLE
 40
0.0
  9
$DIMEXE
 40
0.18
  9
$DIMTP
 40
0.0
  9
$DIMTM
 40
0.0
  9
$DIMTXT
 40
0.18
  9
$DIMCEN
 40
0.09
  9
$DIMTSZ
 40
0.0
  9
$DIMTOL
 70
     0
  9
$DIMLIM
 70
     0
  9
$DIMTIH
 70
     1
  9
$DIMTOH
 70
     1
  9
$DIMSE1
 70
     0
  9
$DIMSE2
 70
     0
  9
$DIMTAD
 70
     0
  9
$DIMZIN
 70
     0
  9
$DIMBLK
  1

  9
$DIMASO
 70
     1
  9
$DIMSHO
 70
     1
  9
$DIMPOST
  1

  9
$DIMAPOST
  1

  9
$DIMALT
 70
     0
  9
$DIMALTD
 70
     2
  9
$DIMALTF
 40
25.4
  9
$DIMLFAC
 40
1.0
  9
$DIMTOFL
 70
     0
  9
$DIMTVP
 40
0.0
  9
$DIMTIX
 70
     0
  9
$DIMSOXD
 70
     0
  9
$DIMSAH
 70
     0
  9
$DIMBLK1
  1

  9
$DIMBLK2
  1

  9
$DIMSTYLE
  2
STANDARD
  9
$DIMCLRD
 70
    18
  9
$DIMCLRE
 70
    18
  9
$DIMCLRT
 70
    18
  9
$DIMTFAC
 40
1.0
  9
$DIMGAP
 40
0.09
  9
$DIMJUST
 70
     0
  9
$DIMSD1
 70
     0
  9
$DIMSD2
 70
     0
  9
$DIMTOLJ
 70
     1
  9
$DIMTZIN
 70
     0
  9
$DIMALTZ
 70
     0
  9
$DIMALTTZ
 70
     0
  9
$DIMUPT
 70
     0
  9
$DIMDEC
 70
     4
  9
$DIMTDEC
 70
     4
  9
$DIMALTU
 70
     2
  9
$DIMALTTD
 70
     2
  9
$DIMTXSTY
  7
STANDARD
  9
$DIMAUNIT
 70
     0
  9
$DIMADEC
 70
     0
  9
$DIMALTRND
 40
0.0
  9
$DIMAZIN
 70
     0
  9
$DIMDSEP
 70
    46
  9
$DIMATFIT
 70
     3
  9
$DIMFRAC
 70
     0
  9
$DIMLDRBLK
  1

  9
$DIMLUNIT
 70
     2
  9
$DIMLWD
 70
    -2
  9
$DIMLWE
 70
    -2
  9
$DIMTMOVE
 70
     2
  9
$DIMFXL
 40
1.0
  9
$DIMFXLON
 70
     0
  9
$DIMJOGANG
 40
0.7853981633974483
  9
$DIMTFILL
 70
     0
  9
$DIMTFILLCLR
 70
     0
  9
$DIMARCSYM
 70
     0
  9
$DIMLTYPE
  6

  9
$DIMLTEX1
  6

  9
$DIMLTEX2
  6

  9
$DIMTXTDIRECTION
 70
     0
  9
$LUNITS
 70
     2
  9
$LUPREC
 70
     4
  9
$SKETCHINC
 40
0.1
  9
$FILLETRAD
 40
1.5
  9
$AUNITS
 70
     0
  9
$AUPREC
 70
     0
  9
$MENU
  1
.
  9
$ELEVATION
 40
0.0
  9
$PELEVATION
 40
0.0
  9
$THICKNESS
 40
0.0
  9
$LIMCHECK
 70
     0
  9
$CHAMFERA
 40
0.0
  9
$CHAMFERB
 40
0.0
  9
$CHAMFERC
 40
0.0
  9
$CHAMFERD
 40
0.0
  9
$SKPOLY
 70
     0
  9
$TDCREATE
 40
2457457.618445787
  9
$TDUCREATE
 40
2457457.826779121
  9
$TDUPDATE
 40
2457457.906256111
  9
$TDUUPDATE
 40
2457458.114589444
  9
$TDINDWG
 40
0.004669456
  9
$TDUSRTIMER
 40
2457458.114446458
  9
$USRTIMER
 70
     1
  9
$ANGBASE
 50
0.0
  9
$ANGDIR
 70
     0
  9
$PDMODE
 70
     0
  9
$PDSIZE
 40
0.0
  9
$PLINEWID
 40
0.0
  9
$SPLFRAME
 70
     0
  9
$SPLINETYPE
 70
     6
  9
$SPLINESEGS
 70
     8
  9
$HANDSEED
  5
F99
  9
$SURFTAB1
 70
     6
  9
$SURFTAB2
 70
     6
  9
$SURFTYPE
 70
     6
  9
$SURFU
 70
     6
  9
$SURFV
 70
     6
  9
$UCSBASE
  2

  9
$UCSNAME
  2

  9
$UCSORG
 10
0.0
 20
0.0
 30
0.0
  9
$UCSXDIR
 10
1.0
 20
0.0
 30
0.0
  9
$UCSYDIR
 10
0.0
 20
1.0
 30
0.0
  9
$UCSORTHOREF
  2

  9
$UCSORTHOVIEW
 70
     0
  9
$UCSORGTOP
 10
0.0
 20
0.0
 30
0.0
  9
$UCSORGBOTTOM
 10
0.0
 20
0.0
 30
0.0
  9
$UCSORGLEFT
 10
0.0
 20
0.0
 30
0.0
  9
$UCSORGRIGHT
 10
0.0
 20
0.0
 30
0.0
  9
$UCSORGFRONT
 10
0.0
 20
0.0
 30
0.0
  9
$UCSORGBACK
 10
0.0
 20
0.0
 30
0.0
  9
$PUCSBASE
  2

  9
$PUCSNAME
  2

  9
$PUCSORG
 10
0.0
 20
0.0
 30
0.0
  9
$PUCSXDIR
 10
1.0
 20
0.0
 30
0.0
  9
$PUCSYDIR
 10
0.0
 20
1.0
 30
0.0
  9
$PUCSORTHOREF
  2

  9
$PUCSORTHOVIEW
 70
     0
  9
$PUCSORGTOP
 10
0.0
 20
0.0
 30
0.0
  9
$PUCSORGBOTTOM
 10
0.0
 20
0.0
 30
0.0
  9
$PUCSORGLEFT
 10
0.0
 20
0.0
 30
0.0
  9
$PUCSORGRIGHT
 10
0.0
 20
0.0
 30
0.0
  9
$PUCSORGFRONT
 10
0.0
 20
0.0
 30
0.0
  9
$PUCSORGBACK
 10
0.0
 20
0.0
 30
0.0
  9
$USERI1
 70
     0
  9
$USERI2
 70
     0
  9
$USERI3
 70
     0
  9
$USERI4
 70
     0
  9
$USERI5
 70
     0
  9
$USERR1
 40
0.0
  9
$USERR2
 40
0.0
  9
$USERR3
 40
0.0
  9
$USERR4
 40
0.0
  9
$USERR5
 40
0.0
  9
$WORLDVIEW
 70
     1
  9
$SHADEDGE
 70
     3
  9
$SHADEDIF
 70
    70
  9
$TILEMODE
 70
     1
  9
$MAXACTVP
 70
    64
  9
$PINSBASE
 10
0.0
 20
0.0
 30
0.0
  9
$PLIMCHECK
 70
     0
  9
$PEXTMIN
 10
0.0
 20
0.0
 30
0.0
  9
$PEXTMAX
 10
0.0
 20
0.0
 30
0.0
  9
$PLIMMIN
 10
0.0
 20
0.0
  9
$PLIMMAX
 10
0.0
 20
0.0
  9
$UNITMODE
 70
     0
  9
$VISRETAIN
 70
     1
  9
$PLINEGEN
 70
     0
  9
$PSLTSCALE
 70
     1
  9
$TREEDEPTH
 70
  3020
  9
$CMLSTYLE
  2
STANDARD
  9
$CMLJUST
 70
     0
  9
$CMLSCALE
 40
1.0
  9
$PROXYGRAPHICS
 70
     1
  9
$MEASUREMENT
 70
     1
  9
$CELWEIGHT
370
    -1
  9
$ENDCAPS
280
     0
  9
$JOINSTYLE
280
     0
  9
$LWDISPLAY
290
     0
  9
$INSUNITS
 70
     0
  9
$HYPERLINKBASE
  1

  9
$STYLESHEET
  1

  9
$XEDIT
290
     1
  9
$CEPSNTYPE
380
     0
  9
$PSTYLEMODE
290
     1
  9
$FINGERPRINTGUID
  2
{94C7031F-D8FD-418E-967B-E99078EA0E49}
  9
$VERSIONGUID
  2
{FAEB1C32-E019-11D5-929B-00C0DF256EC4}
  9
$EXTNAMES
290
     1
  9
$PSVPSCALE
 40
0.0
  9
$OLESTARTUP
290
     0
  9
$SORTENTS
280
   127
  9
$INDEXCTL
280
     0
  9
$HIDETEXT
280
     1
  9
$XCLIPFRAME
280
     2
  9
$HALOGAP
280
     0
  9
$OBSCOLOR
 70
   257
  9
$OBSLTYPE
280
     0
  9
$INTERSECTIONDISPLAY
280
     0
  9
$INTERSECTIONCOLOR
 70
   257
  9
$DIMASSOC
280
     2
  9
$PROJECTNAME
  1

  9
$CAMERADISPLAY
290
     0
  9
$LENSLENGTH
 40
50.0
  9
$CAMERAHEIGHT
 40
0.0
  9
$STEPSPERSEC
 40
2.0
  9
$STEPSIZE
 40
6.0
  9
$3DDWFPREC
 40
2.0
  9
$PSOLWIDTH
 40
0.25
  9
$PSOLHEIGHT
 40
4.0
  9
$LOFTANG1
 40
1.570796326794897
  9
$LOFTANG2
 40
1.570796326794897
  9
$LOFTMAG1
 40
0.0
  9
$LOFTMAG2
 40
0.0
  9
$LOFTPARAM
 70
     7
  9
$LOFTNORMALS
280
     1
  9
$LATITUDE
 40
37.795
  9
$LONGITUDE
 40
-122.394
  9
$NORTHDIRECTION
 40
0.0
  9
$TIMEZONE
 70
 -8000
  9
$LIGHTGLYPHDISPLAY
280
     1
  9
$TILEMODELIGHTSYNCH
280
     1
  9
$SOLIDHIST
280
     0
  9
$SHOWHIST
280
     1
  9
$DWFFRAME
280
     2
  9
$DGNFRAME
280
     2
  9
$REALWORLDSCALE
290
     1
  9
$INTERFERECOLOR
 62
   256
  9
$CSHADOW
280
     0
  9
$SHADOWPLANELOCATION
 40
0.0
  0
ENDSEC
  0
SECTION
  2
CLASSES
  0
CLASS
  1
ACDBDICTIONARYWDFLT
  2
AcDbDictionaryWithDefault
  3
ObjectDBX Classes
 90
        0
 91
        5
280
     0
281
     0
  0
CLASS
  1
VISUALSTYLE
  2
AcDbVisualStyle
  3
ObjectDBX Classes
 90
     4095
 91
        5
280
     0
281
     0
  0
CLASS
  1
MATERIAL
  2
AcDbMaterial
  3
ObjectDBX Classes
 90
     1153
 91
        5
280
     0
281
     0
  0
CLASS
  1
SCALE
  2
AcDbScale
  3
ObjectDBX Classes
 90
     1153
 91
        5
280
     0
281
     0
  0
CLASS
  1
SUN
  2
AcDbSun
  3
SCENEOE
 90
     1153
 91
        5
280
     0
281
     0
  0
CLASS
  1
DICTIONARYVAR
  2
AcDbDictionaryVar
  3
ObjectDBX Classes
 90
        0
 91
        5
280
     0
281
     0
  0
CLASS
  1
TABLESTYLE
  2
AcDbTableStyle
  3
ObjectDBX Classes
 90
     4095
 91
        5
280
     0
281
     0
  0
CLASS
  1
MLEADERSTYLE
  2
AcDbMLeaderStyle
  3
ACDB_MLEADERSTYLE_CLASS
 90
     4095
 91
        5
280
     0
281
     0
  0
CLASS
  1
RASTERVARIABLES
  2
AcDbRasterVariables
  3
ISM
 90
        0
 91
        5
280
     0
281
     0
  0
CLASS
  1
XRECORD
  2
AcDbXrecord
  3
ObjectDBX Classes
 90
        0
 91
        1
280
     0
281
     0
  0
CLASS
  1
LWPOLYLINE
  2
AcDbPolyline
  3
ObjectDBX Classes
 90
        0
 91
        1
280
     0
281
     1
  0
CLASS
  1
HATCH
  2
AcDbHatch
  3
ObjectDBX Classes
 90
        0
 91
        1
280
     0
281
     1
  0
CLASS
  1
CELLSTYLEMAP
  2
AcDbCellStyleMap
  3
ObjectDBX Classes
 90
     1152
 91
        5
280
     0
281
     0
  0
ENDSEC
  0
SECTION
  2
TABLES
  0
TABLE
  2
VPORT
  5
D96
330
0
100
AcDbSymbolTable
 70
     1
  0
VPORT
  5
DB6
330
D96
100
AcDbSymbolTableRecord
100
AcDbViewportTableRecord
  2
*ACTIVE
 70
     0
 10
0.0
 20
0.0
 11
1.0
 21
1.0
 12
81.07976518624
 22
34.06235120307201
 13
0.0
 23
0.0
 14
0.5
 24
0.5
 15
0.5
 25
0.5
 16
0.0
 26
0.0
 36
1.0
 17
0.0
 27
0.0
 37
0.0
 40
111.5625000000001
 41
2.451428571428572
 42
50.0
 43
0.0
 44
0.0
 50
0.0
 51
0.0
 71
    16
 72
   100
 73
     1
 74
     3
 75
     0
 76
     0
 77
     0
 78
     0
281
     0
 65
     1
110
0.0
120
0.0
130
0.0
111
1.0
121
0.0
131
0.0
112
0.0
122
1.0
132
0.0
 79
     0
146
0.0
348
F5D
 60
     3
 61
     5
292
     1
282
     1
141
0.0
142
0.0
 63
   256
361
F79
  0
ENDTAB
  0
TABLE
  2
LTYPE
  5
D93
330
0
100
AcDbSymbolTable
 70
    19
  0
LTYPE
  5
DA1
330
D93
100
AcDbSymbolTableRecord
100
AcDbLinetypeTableRecord
  2
BYBLOCK
 70
     0
  3

 72
    65
 73
     0
 40
0.0
  0
LTYPE
  5
DA2
330
D93
100
AcDbSymbolTableRecord
100
AcDbLinetypeTableRecord
  2
BYLAYER
 70
     0
  3

 72
    65
 73
     0
 40
0.0
  0
LTYPE
  5
DA3
330
D93
100
AcDbSymbolTableRecord
100
AcDbLinetypeTableRecord
  2
CONTINUOUS
 70
     0
  3
Solid line
 72
    65
 73
     0
 40
0.0
  0
LTYPE
  5
E25
330
D93
100
AcDbSymbolTableRecord
100
AcDbLinetypeTableRecord
  2
BORDER
 70
     0
  3

 72
    65
 73
     6
 40
42.00000000000001
 49
12.0
 74
     0
 49
-6.0
 74
     0
 49
12.0
 74
     0
 49
-5.95
 74
     0
 49
0.1
 74
     0
 49
-5.95
 74
     0
  0
LTYPE
  5
E26
330
D93
100
AcDbSymbolTableRecord
100
AcDbLinetypeTableRecord
  2
BORDER2
 70
     0
  3

 72
    65
 73
     6
 40
21.0
 49
6.0
 74
     0
 49
-3.0
 74
     0
 49
6.0
 74
     0
 49
-2.95
 74
     0
 49
0.1
 74
     0
 49
-2.95
 74
     0
  0
LTYPE
  5
E27
330
D93
100
AcDbSymbolTableRecord
100
AcDbLinetypeTableRecord
  2
BORDERX2
 70
     0
  3

 72
    65
 73
     6
 40
84.0
 49
24.0
 74
     0
 49
-12.0
 74
     0
 49
24.0
 74
     0
 49
-11.95
 74
     0
 49
0.1
 74
     0
 49
-11.95
 74
     0
  0
LTYPE
  5
E28
330
D93
100
AcDbSymbolTableRecord
100
AcDbLinetypeTableRecord
  2
CENTER
 70
     0
  3

 72
    65
 73
     4
 40
50.0
 49
32.0
 74
     0
 49
-6.0
 74
     0
 49
6.0
 74
     0
 49
-6.0
 74
     0
  0
LTYPE
  5
E29
330
D93
100
AcDbSymbolTableRecord
100
AcDbLinetypeTableRecord
  2
CENTER2
 70
     0
  3

 72
    65
 73
     4
 40
25.0
 49
16.0
 74
     0
 49
-3.0
 74
     0
 49
3.0
 74
     0
 49
-3.0
 74
     0
  0
LTYPE
  5
E2A
330
D93
100
AcDbSymbolTableRecord
100
AcDbLinetypeTableRecord
  2
CENTERX2
 70
     0
  3

 72
    65
 73
     4
 40
100.0
 49
64.0
 74
     0
 49
-12.0
 74
     0
 49
12.0
 74
     0
 49
-12.0
 74
     0
  0
LTYPE
  5
E2B
330
D93
100
AcDbSymbolTableRecord
100
AcDbLinetypeTableRecord
  2
DASHDOT
 70
     0
  3

 72
    65
 73
     4
 40
24.0
 49
12.0
 74
     0
 49
-5.95
 74
     0
 49
0.1
 74
     0
 49
-5.95
 74
     0
  0
LTYPE
  5
E2C
330
D93
100
AcDbSymbolTableRecord
100
AcDbLinetypeTableRecord
  2
DASHDOT2
 70
     0
  3

 72
    65
 73
     4
 40
12.0
 49
6.0
 74
     0
 49
-2.95
 74
     0
 49
0.1
 74
     0
 49
-2.95
 74
     0
  0
LTYPE
  5
E2D
330
D93
100
AcDbSymbolTableRecord
100
AcDbLinetypeTableRecord
  2
DASHDOTX2
 70
     0
  3

 72
    65
 73
     4
 40
48.0
 49
24.0
 74
     0
 49
-11.95
 74
     0
 49
0.1
 74
     0
 49
-11.95
 74
     0
  0
LTYPE
  5
E2E
330
D93
100
AcDbSymbolTableRecord
100
AcDbLinetypeTableRecord
  2
DASHED
 70
     0
  3

 72
    65
 73
     2
 40
18.0
 49
12.0
 74
     0
 49
-6.0
 74
     0
  0
LTYPE
  5
E2F
330
D93
100
AcDbSymbolTableRecord
100
AcDbLinetypeTableRecord
  2
DASHED2
 70
     0
  3

 72
    65
 73
     2
 40
9.0
 49
6.0
 74
     0
 49
-3.0
 74
     0
  0
LTYPE
  5
E30
330
D93
100
AcDbSymbolTableRecord
100
AcDbLinetypeTableRecord
  2
DASHEDX2
 70
     0
  3

 72
    65
 73
     2
 40
36.0
 49
24.0
 74
     0
 49
-12.0
 74
     0
  0
LTYPE
  5
E31
330
D93
100
AcDbSymbolTableRecord
100
AcDbLinetypeTableRecord
  2
DIVIDE
 70
     0
  3

 72
    65
 73
     6
 40
29.99999999999999
 49
12.0
 74
     0
 49
-5.9
 74
     0
 49
0.15
 74
     0
 49
-5.9
 74
     0
 49
0.15
 74
     0
 49
-5.9
 74
     0
  0
LTYPE
  5
E32
330
D93
100
AcDbSymbolTableRecord
100
AcDbLinetypeTableRecord
  2
DIVIDE2
 70
     0
  3

 72
    65
 73
     6
 40
15.0
 49
6.0
 74
     0
 49
-2.9
 74
     0
 49
0.15
 74
     0
 49
-2.9
 74
     0
 49
0.15
 74
     0
 49
-2.9
 74
     0
  0
LTYPE
  5
E33
330
D93
100
AcDbSymbolTableRecord
100
AcDbLinetypeTableRecord
  2
DIVIDEX2
 70
     0
  3

 72
    65
 73
     6
 40
59.99999999999999
 49
24.0
 74
     0
 49
-11.9
 74
     0
 49
0.15
 74
     0
 49
-11.9
 74
     0
 49
0.15
 74
     0
 49
-11.9
 74
     0
  0
LTYPE
  5
E34
330
D93
100
AcDbSymbolTableRecord
100
AcDbLinetypeTableRecord
  2
DOT
 70
     0
  3

 72
    65
 73
     2
 40
6.3
 49
0.1
 74
     0
 49
-6.2
 74
     0
  0
LTYPE
  5
E35
330
D93
100
AcDbSymbolTableRecord
100
AcDbLinetypeTableRecord
  2
DOT2
 70
     0
  3

 72
    65
 73
     2
 40
3.2
 49
0.1
 74
     0
 49
-3.1
 74
     0
  0
LTYPE
  5
E36
330
D93
100
AcDbSymbolTableRecord
100
AcDbLinetypeTableRecord
  2
DOTX2
 70
     0
  3

 72
    65
 73
     2
 40
12.5
 49
0.1
 74
     0
 49
-12.4
 74
     0
  0
ENDTAB
  0
TABLE
  2
LAYER
  5
D90
102
{ACAD_XDICTIONARY
360
E79
102
}
330
0
100
AcDbSymbolTable
 70
    12
  0
LAYER
  5
D9E
330
D90
100
AcDbSymbolTableRecord
100
AcDbLayerTableRecord
  2
0
 70
     0
 62
     7
  6
CONTINUOUS
370
    -3
390
0
347
F74
  0
LAYER
  5
E37
330
D90
100
AcDbSymbolTableRecord
100
AcDbLayerTableRecord
  2
LAYER1
 70
     0
 62
     4
  6
CONTINUOUS
370
    -3
390
0
347
F74
  0
LAYER
  5
E38
330
D90
100
AcDbSymbolTableRecord
100
AcDbLayerTableRecord
  2
LAYER2
 70
     0
 62
     3
  6
CONTINUOUS
370
    -3
390
0
347
F74
  0
LAYER
  5
E39
330
D90
100
AcDbSymbolTableRecord
100
AcDbLayerTableRecord
  2
LAYER3
 70
     0
 62
     6
  6
CONTINUOUS
370
    -3
390
0
347
F74
  0
LAYER
  5
E3A
330
D90
100
AcDbSymbolTableRecord
100
AcDbLayerTableRecord
  2
LAYER4
 70
     0
 62
     2
  6
CONTINUOUS
370
    -3
390
0
347
F74
  0
LAYER
  5
E3B
330
D90
100
AcDbSymbolTableRecord
100
AcDbLayerTableRecord
  2
1
 70
     0
 62
     4
  6
CONTINUOUS
370
    -3
390
0
347
F74
  0
LAYER
  5
E3C
330
D90
100
AcDbSymbolTableRecord
100
AcDbLayerTableRecord
  2
2
 70
     0
 62
     3
  6
CONTINUOUS
370
    -3
390
0
347
F74
  0
LAYER
  5
E3D
330
D90
100
AcDbSymbolTableRecord
100
AcDbLayerTableRecord
  2
3
 70
     0
 62
     6
  6
CONTINUOUS
370
    -3
390
0
347
F74
  0
LAYER
  5
E3E
330
D90
100
AcDbSymbolTableRecord
100
AcDbLayerTableRecord
  2
4
 70
     0
 62
     2
  6
CONTINUOUS
370
    -3
390
0
347
F74
  0
LAYER
  5
E8A
330
D90
100
AcDbSymbolTableRecord
100
AcDbLayerTableRecord
  2
A
 70
     0
 62
     1
  6
CONTINUOUS
370
    -3
390
0
347
F74
1001
ACAECLAYERSTANDARD
1000

1000

  0
LAYER
  5
E8C
330
D90
100
AcDbSymbolTableRecord
100
AcDbLayerTableRecord
  2
B
 70
     0
 62
     7
  6
CONTINUOUS
370
    -3
390
0
347
F74
1001
ACAECLAYERSTANDARD
1000

1000

  0
LAYER
  5
E8D
330
D90
100
AcDbSymbolTableRecord
100
AcDbLayerTableRecord
  2
C
 70
     0
 62
     5
  6
CONTINUOUS
370
    -3
390
0
347
F74
1001
ACAECLAYERSTANDARD
1000

1000

  0
ENDTAB
  0
TABLE
  2
STYLE
  5
D91
330
0
100
AcDbSymbolTable
 70
     1
  0
STYLE
  5
D9F
330
D91
100
AcDbSymbolTableRecord
100
AcDbTextStyleTableRecord
  2
STANDARD
 70
     0
 40
0.0
 41
1.0
 50
0.0
 71
     0
 42
0.2
  3
txt
  4

  0
ENDTAB
  0
TABLE
  2
VIEW
  5
D94
330
0
100
AcDbSymbolTable
 70
     0
  0
ENDTAB
  0
TABLE
  2
UCS
  5
D95
330
0
100
AcDbSymbolTable
 70
     0
  0
ENDTAB
  0
TABLE
  2
APPID
  5
D97
330
0
100
AcDbSymbolTable
 70
     4
  0
APPID
  5
DA0
330
D97
100
AcDbSymbolTableRecord
100
AcDbRegAppTableRecord
  2
ACAD
 70
     0
  0
APPID
  5
DF7
330
D97
100
AcDbSymbolTableRecord
100
AcDbRegAppTableRecord
  2
QCAD
 70
     0
  0
APPID
  5
E8B
330
D97
100
AcDbSymbolTableRecord
100
AcDbRegAppTableRecord
  2
ACAECLAYERSTANDARD
 70
     0
  0
APPID
  5
F20
330
D97
100
AcDbSymbolTableRecord
100
AcDbRegAppTableRecord
  2
ACLAYERTOOLS
 70
     0
  0
ENDTAB
  0
TABLE
  2
DIMSTYLE
  5
D98
330
0
100
AcDbSymbolTable
 70
     2
100
AcDbDimStyleTable
  0
DIMSTYLE
105
DB4
330
D98
100
AcDbSymbolTableRecord
100
AcDbDimStyleTableRecord
  2
STANDARD
 70
     0
178
     0
340
D9F
  0
DIMSTYLE
105
E24
330
D98
100
AcDbSymbolTableRecord
100
AcDbDimStyleTableRecord
  2
QCADDIMSTYLE
 70
     0
 73
     0
 77
     1
178
     0
340
D9F
  0
ENDTAB
  0
TABLE
  2
BLOCK_RECORD
  5
D8F
330
0
100
AcDbSymbolTable
 70
     1
  0
BLOCK_RECORD
  5
DAC
330
D8F
100
AcDbSymbolTableRecord
100
AcDbBlockTableRecord
  2
*MODEL_SPACE
340
F56
 70
     0
280
     1
281
     0
  0
BLOCK_RECORD
  5
DA8
330
D8F
100
AcDbSymbolTableRecord
100
AcDbBlockTableRecord
  2
*PAPER_SPACE
340
F57
 70
     0
280
     1
281
     0
  0
BLOCK_RECORD
  5
DB0
330
D8F
100
AcDbSymbolTableRecord
100
AcDbBlockTableRecord
  2
*PAPER_SPACE0
340
0
 70
     0
280
     1
281
     0
  0
ENDTAB
  0
ENDSEC
  0
SECTION
  2
BLOCKS
  0
BLOCK
  5
DAD
330
DAC
100
AcDbEntity
  8
0
100
AcDbBlockBegin
  2
*MODEL_SPACE
 70
     0
 10
0.0
 20
0.0
 30
0.0
  3
*MODEL_SPACE
  1
*MODEL_SPACE
  0
ENDBLK
  5
DAE
330
DAC
100
AcDbEntity
  8
0
100
AcDbBlockEnd
  0
BLOCK
  5
DA9
330
DA8
100
AcDbEntity
 67
     1
  8
0
100
AcDbBlockBegin
  2
*PAPER_SPACE
 70
     0
 10
0.0
 20
0.0
 30
0.0
  3
*PAPER_SPACE
  1
*PAPER_SPACE
  0
ENDBLK
  5
DAA
330
DA8
100
AcDbEntity
 67
     1
  8
0
100
AcDbBlockEnd
  0
BLOCK
  5
DB1
330
DB0
100
AcDbEntity
  8
0
100
AcDbBlockBegin
  2
*PAPER_SPACE0
 70
     0
 10
0.0
 20
0.0
 30
0.0
  3
*PAPER_SPACE0
  1
*Paper_Space0
  0
ENDBLK
  5
DB2
330
DB0
100
AcDbEntity
  8
0
100
AcDbBlockEnd
  0
ENDSEC
  0
SECTION
  2
ENTITIES
  0
LWPOLYLINE
  5
129
330
DAC
100
AcDbEntity
  8
0
100
AcDbPolyline
 90
        4
 70
     1
 43
0.0
 10
0.0
 20
0.0
 10
0.0
 20
69.99999999999999
 10
70.00000000000001
 20
69.99999999999999
 10
70.00000000000001
 20
0.0
  0
LWPOLYLINE
  5
13F
330
DAC
100
AcDbEntity
  8
LAYER1
100
AcDbPolyline
 90
        4
 70
     1
 43
0.0
 10
0.0
 20
69.99999999999999
 10
0.0
 20
-0.0000000000000284
 10
69.99999999999997
 20
-0.0000000000000284
 10
69.99999999999997
 20
69.99999999999999
  0
LWPOLYLINE
  5
140
330
DAC
100
AcDbEntity
  8
LAYER1
100
AcDbPolyline
 90
        4
 70
     1
 43
0.0
 10
29.99999999999999
 20
-0.0000000000000284
 10
29.99999999999999
 20
69.99999999999999
 10
39.99999999999999
 20
69.99999999999999
 10
39.99999999999999
 20
-0.0000000000000284
  0
LWPOLYLINE
  5
16B
330
DAC
100
AcDbEntity
  8
LAYER2
100
AcDbPolyline
 90
        4
 70
     1
 43
0.0
 10
0.0
 20
69.99999999999999
 10
0.0
 20
-0.0000000000000284
 10
69.99999999999997
 20
-0.0000000000000284
 10
69.99999999999997
 20
69.99999999999999
  0
LWPOLYLINE
  5
196
330
DAC
100
AcDbEntity
  8
LAYER3
100
AcDbPolyline
 90
        4
 70
     1
 43
0.0
 10
0.0
 20
69.99999999999999
 10
0.0
 20
-0.0000000000000284
 10
69.99999999999997
 20
-0.0000000000000284
 10
69.99999999999997
 20
69.99999999999999
  0
LWPOLYLINE
  5
1C0
330
DAC
100
AcDbEntity
  8
LAYER4
100
AcDbPolyline
 90
        4
 70
     1
 43
0.0
 10
0.0
 20
69.99999999999999
 10
0.0
 20
-0.0000000000000284
 10
69.99999999999997
 20
-0.0000000000000284
 10
69.99999999999997
 20
69.99999999999999
  0
LWPOLYLINE
  5
1C2
330
DAC
100
AcDbEntity
  8
LAYER4
100
AcDbPolyline
 90
        2
 70
     0
 43
0.0
 10
70.00000000000001
 20
39.99999999999999
 10
70.00000000000001
 20
29.99999999999999
  0
LWPOLYLINE
  5
27B
330
DAC
100
AcDbEntity
  8
LAYER4
100
AcDbPolyline
 90
        4
 70
     1
 43
0.0
 10
60.99999999999999
 20
29.99999999999979
 10
60.99999999999999
 20
39.99999999999979
 10
66.99999999999999
 20
39.99999999999979
 10
66.99999999999999
 20
29.99999999999979
  0
LINE
  5
27D
330
DAC
100
AcDbEntity
  8
LAYER4
100
AcDbLine
 10
67.00000000000001
 20
39.99999999999979
 30
0.0
 11
66.99999999999996
 21
29.9999999999998
 31
0.0
  0
LINE
  5
2AF
330
DAC
100
AcDbEntity
  8
LAYER3
100
AcDbLine
 10
66.99999999999996
 20
19.99999999999997
 30
0.0
 11
3.000000000000014
 21
19.99999999999996
 31
0.0
  0
LWPOLYLINE
  5
5AF
330
DAC
100
AcDbEntity
  8
LAYER3
100
AcDbPolyline
 90
      142
 70
     0
 43
0.0
 10
-0.0000000000000071
 20
42.50000000000001
 10
0.2499999999999858
 20
42.75
 10
0.7499999999999858
 20
42.25
 10
1.249999999999986
 20
42.75
 10
1.749999999999986
 20
42.25
 10
2.249999999999986
 20
42.75
 10
2.749999999999986
 20
42.25
 10
3.249999999999986
 20
42.75
 10
3.749999999999986
 20
42.25
 10
4.249999999999986
 20
42.75
 10
4.749999999999986
 20
42.25
 10
5.249999999999986
 20
42.75
 10
5.749999999999986
 20
42.25
 10
6.249999999999986
 20
42.75
 10
6.749999999999986
 20
42.25
 10
7.249999999999986
 20
42.75
 10
7.749999999999986
 20
42.25
 10
8.249999999999986
 20
42.75
 10
8.749999999999986
 20
42.25
 10
9.249999999999986
 20
42.75
 10
9.749999999999986
 20
42.25
 10
10.24999999999999
 20
42.75
 10
10.74999999999999
 20
42.25
 10
11.24999999999999
 20
42.75
 10
11.74999999999999
 20
42.25
 10
12.24999999999999
 20
42.75
 10
12.74999999999999
 20
42.25
 10
13.24999999999999
 20
42.75
 10
13.74999999999999
 20
42.25
 10
14.24999999999999
 20
42.75
 10
14.74999999999999
 20
42.25
 10
15.24999999999999
 20
42.75
 10
15.74999999999999
 20
42.25
 10
16.24999999999999
 20
42.75
 10
16.74999999999999
 20
42.25
 10
17.24999999999999
 20
42.75
 10
17.74999999999999
 20
42.25
 10
18.24999999999999
 20
42.75
 10
18.74999999999999
 20
42.25
 10
19.24999999999999
 20
42.75
 10
19.74999999999999
 20
42.25
 10
20.24999999999999
 20
42.75
 10
20.74999999999999
 20
42.25
 10
21.24999999999999
 20
42.75
 10
21.74999999999999
 20
42.25
 10
22.24999999999999
 20
42.75
 10
22.74999999999999
 20
42.25
 10
23.24999999999999
 20
42.75
 10
23.74999999999999
 20
42.25
 10
24.24999999999999
 20
42.75
 10
24.74999999999999
 20
42.25
 10
25.24999999999999
 20
42.75
 10
25.74999999999999
 20
42.25
 10
26.24999999999999
 20
42.75
 10
26.74999999999999
 20
42.25
 10
27.24999999999999
 20
42.75
 10
27.74999999999999
 20
42.25
 10
28.24999999999998
 20
42.75
 10
28.74999999999998
 20
42.25
 10
29.24999999999998
 20
42.75
 10
29.74999999999998
 20
42.25
 10
30.24999999999998
 20
42.75
 10
30.74999999999998
 20
42.25
 10
31.24999999999998
 20
42.75
 10
31.74999999999998
 20
42.25
 10
32.24999999999998
 20
42.75
 10
32.74999999999998
 20
42.25
 10
33.24999999999998
 20
42.75
 10
33.74999999999998
 20
42.25
 10
34.24999999999998
 20
42.75
 10
34.74999999999998
 20
42.25
 10
35.24999999999998
 20
42.75
 10
35.74999999999998
 20
42.25
 10
36.24999999999998
 20
42.75
 10
36.74999999999998
 20
42.25
 10
37.24999999999998
 20
42.75
 10
37.74999999999998
 20
42.25
 10
38.24999999999998
 20
42.75
 10
38.74999999999998
 20
42.25
 10
39.24999999999998
 20
42.75
 10
39.74999999999998
 20
42.25
 10
40.24999999999998
 20
42.75
 10
40.74999999999998
 20
42.25
 10
41.24999999999998
 20
42.75
 10
41.74999999999998
 20
42.25
 10
42.24999999999998
 20
42.75
 10
42.74999999999998
 20
42.25
 10
43.24999999999998
 20
42.75
 10
43.74999999999998
 20
42.25
 10
44.24999999999998
 20
42.75
 10
44.74999999999998
 20
42.25
 10
45.24999999999998
 20
42.75
 10
45.74999999999998
 20
42.25
 10
46.24999999999998
 20
42.75
 10
46.74999999999998
 20
42.25
 10
47.24999999999998
 20
42.75
 10
47.74999999999998
 20
42.25
 10
48.24999999999998
 20
42.75
 10
48.74999999999998
 20
42.25
 10
49.24999999999998
 20
42.75
 10
49.74999999999998
 20
42.25
 10
50.24999999999998
 20
42.75
 10
50.74999999999998
 20
42.25
 10
51.24999999999998
 20
42.75
 10
51.74999999999998
 20
42.25
 10
52.24999999999998
 20
42.75
 10
52.74999999999998
 20
42.25
 10
53.24999999999998
 20
42.75
 10
53.74999999999998
 20
42.25
 10
54.24999999999998
 20
42.75
 10
54.74999999999998
 20
42.25
 10
55.24999999999998
 20
42.75
 10
55.74999999999998
 20
42.25
 10
56.24999999999998
 20
42.75
 10
56.74999999999998
 20
42.25
 10
57.24999999999998
 20
42.75
 10
57.74999999999998
 20
42.25
 10
58.24999999999998
 20
42.75
 10
58.74999999999998
 20
42.25
 10
59.24999999999998
 20
42.75
 10
59.74999999999998
 20
42.25
 10
60.24999999999998
 20
42.75
 10
60.74999999999998
 20
42.25
 10
61.24999999999998
 20
42.75
 10
61.74999999999998
 20
42.25
 10
62.24999999999998
 20
42.75
 10
62.74999999999998
 20
42.25
 10
63.24999999999998
 20
42.75
 10
63.74999999999998
 20
42.25
 10
64.24999999999997
 20
42.75
 10
64.74999999999997
 20
42.25
 10
65.24999999999997
 20
42.75
 10
65.74999999999997
 20
42.25
 10
66.24999999999997
 20
42.75
 10
66.74999999999997
 20
42.25
 10
67.24999999999997
 20
42.75
 10
67.74999999999997
 20
42.25
 10
68.24999999999997
 20
42.75
 10
68.74999999999997
 20
42.25
 10
69.24999999999997
 20
42.75
 10
69.74999999999997
 20
42.25
 10
69.99999999999997
 20
42.5
  0
LINE
  5
88A
330
DAC
100
AcDbEntity
  8
LAYER2
100
AcDbLine
 10
2.999999999999998
 20
13.77345107883029
 30
0.0
 11
66.99999999999996
 21
13.77345107883029
 31
0.0
  0
LWPOLYLINE
  5
8B6
330
DAC
100
AcDbEntity
  8
LAYER2
100
AcDbPolyline
 90
      130
 70
     0
 43
0.0
 10
3.0
 20
39.00000000000002
 10
3.249999999999986
 20
39.25000000000001
 10
3.749999999999986
 20
38.75000000000001
 10
4.249999999999986
 20
39.25000000000001
 10
4.749999999999986
 20
38.75000000000001
 10
5.249999999999986
 20
39.25000000000001
 10
5.749999999999986
 20
38.75000000000001
 10
6.249999999999986
 20
39.25000000000001
 10
6.749999999999986
 20
38.75000000000001
 10
7.249999999999986
 20
39.25000000000001
 10
7.749999999999986
 20
38.75000000000001
 10
8.249999999999986
 20
39.25000000000001
 10
8.749999999999986
 20
38.75000000000001
 10
9.249999999999986
 20
39.25000000000001
 10
9.749999999999986
 20
38.75000000000001
 10
10.24999999999999
 20
39.25000000000001
 10
10.74999999999999
 20
38.75000000000001
 10
11.24999999999999
 20
39.25000000000001
 10
11.74999999999999
 20
38.75000000000001
 10
12.24999999999999
 20
39.25000000000001
 10
12.74999999999999
 20
38.75000000000001
 10
13.24999999999999
 20
39.25000000000001
 10
13.74999999999999
 20
38.75000000000001
 10
14.24999999999999
 20
39.25000000000001
 10
14.74999999999999
 20
38.75000000000001
 10
15.24999999999999
 20
39.25000000000001
 10
15.74999999999999
 20
38.75000000000001
 10
16.24999999999999
 20
39.25000000000001
 10
16.74999999999999
 20
38.75000000000001
 10
17.24999999999999
 20
39.25000000000001
 10
17.74999999999999
 20
38.75000000000001
 10
18.24999999999999
 20
39.25000000000001
 10
18.74999999999999
 20
38.75000000000001
 10
19.24999999999999
 20
39.25000000000001
 10
19.74999999999999
 20
38.75000000000001
 10
20.24999999999999
 20
39.25000000000001
 10
20.74999999999999
 20
38.75000000000001
 10
21.24999999999999
 20
39.25000000000001
 10
21.74999999999999
 20
38.75000000000001
 10
22.24999999999999
 20
39.25000000000001
 10
22.74999999999999
 20
38.75000000000001
 10
23.24999999999999
 20
39.25000000000001
 10
23.74999999999999
 20
38.75000000000001
 10
24.24999999999999
 20
39.25000000000001
 10
24.74999999999999
 20
38.75000000000001
 10
25.24999999999999
 20
39.25000000000001
 10
25.74999999999999
 20
38.75000000000001
 10
26.24999999999999
 20
39.25000000000001
 10
26.74999999999999
 20
38.75000000000001
 10
27.24999999999999
 20
39.25000000000001
 10
27.74999999999999
 20
38.75000000000001
 10
28.24999999999998
 20
39.25000000000001
 10
28.74999999999998
 20
38.75000000000001
 10
29.24999999999998
 20
39.25000000000001
 10
29.74999999999998
 20
38.75000000000001
 10
30.24999999999998
 20
39.25000000000001
 10
30.74999999999998
 20
38.75000000000001
 10
31.24999999999998
 20
39.25000000000001
 10
31.74999999999998
 20
38.75000000000001
 10
32.24999999999998
 20
39.25000000000001
 10
32.74999999999998
 20
38.75000000000001
 10
33.24999999999998
 20
39.25000000000001
 10
33.74999999999998
 20
38.75000000000001
 10
34.24999999999998
 20
39.25000000000001
 10
34.74999999999998
 20
38.75000000000001
 10
35.24999999999998
 20
39.25000000000001
 10
35.74999999999998
 20
38.75000000000001
 10
36.24999999999998
 20
39.25000000000001
 10
36.74999999999998
 20
38.75000000000001
 10
37.24999999999998
 20
39.25000000000001
 10
37.74999999999998
 20
38.75000000000001
 10
38.24999999999998
 20
39.25000000000001
 10
38.74999999999998
 20
38.75000000000001
 10
39.24999999999998
 20
39.25000000000001
 10
39.74999999999998
 20
38.75000000000001
 10
40.24999999999998
 20
39.25000000000001
 10
40.74999999999998
 20
38.75000000000001
 10
41.24999999999998
 20
39.25000000000001
 10
41.74999999999998
 20
38.75000000000001
 10
42.24999999999998
 20
39.25000000000001
 10
42.74999999999998
 20
38.75000000000001
 10
43.24999999999998
 20
39.25000000000001
 10
43.74999999999998
 20
38.75000000000001
 10
44.24999999999998
 20
39.25000000000001
 10
44.74999999999998
 20
38.75000000000001
 10
45.24999999999998
 20
39.25000000000001
 10
45.74999999999998
 20
38.75000000000001
 10
46.24999999999998
 20
39.25000000000001
 10
46.74999999999998
 20
38.75000000000001
 10
47.24999999999998
 20
39.25000000000001
 10
47.74999999999998
 20
38.75000000000001
 10
48.24999999999998
 20
39.25000000000001
 10
48.74999999999998
 20
38.75000000000001
 10
49.24999999999998
 20
39.25000000000001
 10
49.74999999999998
 20
38.75000000000001
 10
50.24999999999998
 20
39.25000000000001
 10
50.74999999999998
 20
38.75000000000001
 10
51.24999999999998
 20
39.25000000000001
 10
51.74999999999998
 20
38.75000000000001
 10
52.24999999999998
 20
39.25000000000001
 10
52.74999999999998
 20
38.75000000000001
 10
53.24999999999998
 20
39.25000000000001
 10
53.74999999999998
 20
38.75000000000001
 10
54.24999999999998
 20
39.25000000000001
 10
54.74999999999998
 20
38.75000000000001
 10
55.24999999999998
 20
39.25000000000001
 10
55.74999999999998
 20
38.75000000000001
 10
56.24999999999998
 20
39.25000000000001
 10
56.74999999999998
 20
38.75000000000001
 10
57.24999999999998
 20
39.25000000000001
 10
57.74999999999998
 20
38.75000000000001
 10
58.24999999999998
 20
39.25000000000001
 10
58.74999999999998
 20
38.75000000000001
 10
59.24999999999998
 20
39.25000000000001
 10
59.74999999999998
 20
38.75000000000001
 10
60.24999999999998
 20
39.25000000000001
 10
60.74999999999998
 20
38.75000000000001
 10
61.24999999999998
 20
39.25000000000001
 10
61.74999999999998
 20
38.75000000000001
 10
62.24999999999998
 20
39.25000000000001
 10
62.74999999999998
 20
38.75000000000001
 10
63.24999999999998
 20
39.25000000000001
 10
63.74999999999998
 20
38.75000000000001
 10
64.24999999999997
 20
39.25000000000001
 10
64.74999999999997
 20
38.75000000000001
 10
65.24999999999997
 20
39.25000000000001
 10
65.74999999999997
 20
38.75000000000001
 10
66.24999999999997
 20
39.25000000000001
 10
66.74999999999997
 20
38.75000000000001
 10
66.99999999999996
 20
38.99999999999999
  0
LWPOLYLINE
  5
8E3
330
DAC
100
AcDbEntity
  8
LAYER2
100
AcDbPolyline
 90
       78
 70
     0
 43
0.0
 10
28.99999999999998
 20
37.99999999999998
 10
29.24999999999998
 20
38.24999999999998
 10
29.74999999999998
 20
37.74999999999998
 10
30.24999999999998
 20
38.24999999999998
 10
30.74999999999998
 20
37.74999999999998
 10
31.24999999999998
 20
38.24999999999998
 10
31.74999999999998
 20
37.74999999999998
 10
32.24999999999998
 20
38.24999999999998
 10
32.74999999999998
 20
37.74999999999998
 10
33.24999999999998
 20
38.24999999999998
 10
33.74999999999998
 20
37.74999999999998
 10
34.24999999999998
 20
38.24999999999998
 10
34.74999999999998
 20
37.74999999999998
 10
35.24999999999998
 20
38.24999999999998
 10
35.74999999999998
 20
37.74999999999998
 10
36.24999999999998
 20
38.24999999999998
 10
36.74999999999998
 20
37.74999999999998
 10
37.24999999999998
 20
38.24999999999998
 10
37.74999999999998
 20
37.74999999999998
 10
38.24999999999998
 20
38.24999999999998
 10
38.74999999999998
 20
37.74999999999998
 10
39.24999999999998
 20
38.24999999999998
 10
39.74999999999998
 20
37.74999999999998
 10
40.24999999999998
 20
38.24999999999998
 10
40.74999999999998
 20
37.74999999999998
 10
41.24999999999998
 20
38.24999999999998
 10
41.74999999999998
 20
37.74999999999998
 10
42.24999999999998
 20
38.24999999999998
 10
42.74999999999998
 20
37.74999999999998
 10
43.24999999999998
 20
38.24999999999998
 10
43.74999999999998
 20
37.74999999999998
 10
44.24999999999998
 20
38.24999999999998
 10
44.74999999999998
 20
37.74999999999998
 10
45.24999999999998
 20
38.24999999999998
 10
45.74999999999998
 20
37.74999999999998
 10
46.24999999999998
 20
38.24999999999998
 10
46.74999999999998
 20
37.74999999999998
 10
47.24999999999998
 20
38.24999999999998
 10
47.74999999999998
 20
37.74999999999998
 10
48.24999999999998
 20
38.24999999999998
 10
48.74999999999998
 20
37.74999999999998
 10
49.24999999999998
 20
38.24999999999998
 10
49.74999999999998
 20
37.74999999999998
 10
50.24999999999998
 20
38.24999999999998
 10
50.74999999999998
 20
37.74999999999998
 10
51.24999999999998
 20
38.24999999999998
 10
51.74999999999998
 20
37.74999999999998
 10
52.24999999999998
 20
38.24999999999998
 10
52.74999999999998
 20
37.74999999999998
 10
53.24999999999998
 20
38.24999999999998
 10
53.74999999999998
 20
37.74999999999998
 10
54.24999999999998
 20
38.24999999999998
 10
54.74999999999998
 20
37.74999999999998
 10
55.24999999999998
 20
38.24999999999998
 10
55.74999999999998
 20
37.74999999999998
 10
56.24999999999998
 20
38.24999999999998
 10
56.74999999999998
 20
37.74999999999998
 10
57.24999999999998
 20
38.24999999999998
 10
57.74999999999998
 20
37.74999999999998
 10
58.24999999999998
 20
38.24999999999998
 10
58.74999999999998
 20
37.74999999999998
 10
59.24999999999998
 20
38.24999999999998
 10
59.74999999999998
 20
37.74999999999998
 10
60.24999999999998
 20
38.24999999999998
 10
60.74999999999998
 20
37.74999999999998
 10
61.24999999999998
 20
38.24999999999998
 10
61.74999999999998
 20
37.74999999999998
 10
62.24999999999998
 20
38.24999999999998
 10
62.74999999999998
 20
37.74999999999998
 10
63.24999999999998
 20
38.24999999999998
 10
63.74999999999998
 20
37.74999999999998
 10
64.24999999999997
 20
38.24999999999998
 10
64.74999999999997
 20
37.74999999999998
 10
65.24999999999997
 20
38.24999999999998
 10
65.74999999999997
 20
37.74999999999998
 10
66.24999999999997
 20
38.24999999999998
 10
66.74999999999997
 20
37.74999999999998
 10
66.99999999999994
 20
37.99999999999995
  0
LINE
  5
8EC
330
DAC
100
AcDbEntity
  8
LAYER2
100
AcDbLine
 10
28.99999999999998
 20
37.99999999999999
 30
0.0
 11
28.99999999999998
 21
15.77345107883029
 31
0.0
  0
LINE
  5
8ED
330
DAC
100
AcDbEntity
  8
LAYER2
100
AcDbLine
 10
28.99999999999998
 20
15.77345107883029
 30
0.0
 11
66.99999999999994
 21
15.77345107883029
 31
0.0
  0
LINE
  5
8EE
330
DAC
100
AcDbEntity
  8
LAYER2
100
AcDbLine
 10
66.99999999999994
 20
15.77345107883029
 30
0.0
 11
66.99999999999994
 21
37.99999999999999
 31
0.0
  0
LINE
  5
8F0
330
DAC
100
AcDbEntity
  8
LAYER2
100
AcDbLine
 10
2.999999999999999
 20
13.77345107883029
 30
0.0
 11
3.000000000000001
 21
56.49999999999997
 31
0.0
  0
LINE
  5
8F1
330
DAC
100
AcDbEntity
  8
LAYER2
100
AcDbLine
 10
3.000000000000001
 20
56.49999999999997
 30
0.0
 11
66.99999999999996
 21
56.49999999999997
 31
0.0
  0
LINE
  5
8F2
330
DAC
100
AcDbEntity
  8
LAYER2
100
AcDbLine
 10
66.99999999999996
 20
56.49999999999997
 30
0.0
 11
66.99999999999996
 21
13.77345107883029
 31
0.0
  0
LINE
  5
8F7
330
DAC
100
AcDbEntity
  8
LAYER3
100
AcDbLine
 10
-0.0000000000000071
 20
42.49999999999997
 30
0.0
 11
-0.0000000000000071
 21
52.49999999999997
 31
0.0
  0
LINE
  5
8F8
330
DAC
100
AcDbEntity
  8
LAYER3
100
AcDbLine
 10
-0.0000000000000071
 20
52.49999999999997
 30
0.0
 11
70.00000000000003
 21
52.49999999999999
 31
0.0
  0
LINE
  5
8F9
330
DAC
100
AcDbEntity
  8
LAYER3
100
AcDbLine
 10
70.00000000000003
 20
52.49999999999999
 30
0.0
 11
70.00000000000003
 21
42.49999999999999
 31
0.0
  0
LINE
  5
8FB
330
DAC
100
AcDbEntity
  8
LAYER3
100
AcDbLine
 10
28.99999999999998
 20
42.5
 30
0.0
 11
28.99999999999998
 21
27.49999999999999
 31
0.0
  0
LINE
  5
8FD
330
DAC
100
AcDbEntity
  8
LAYER3
100
AcDbLine
 10
66.99999999999996
 20
27.49999999999998
 30
0.0
 11
66.99999999999996
 21
42.49999999999999
 31
0.0
  0
LINE
  5
8FF
330
DAC
100
AcDbEntity
  8
LAYER3
100
AcDbLine
 10
66.99999999999996
 20
42.49999999999999
 30
0.0
 11
66.99999999999996
 21
19.99999999999997
 31
0.0
  0
LINE
  5
900
330
DAC
100
AcDbEntity
  8
LAYER3
100
AcDbLine
 10
3.000000000000014
 20
42.49999999999999
 30
0.0
 11
3.000000000000014
 21
19.99999999999997
 31
0.0
  0
LINE
  5
901
330
DAC
100
AcDbEntity
  8
LAYER3
100
AcDbLine
 10
70.00000000000001
 20
42.25
 30
0.0
 11
66.99999999999996
 21
42.25
 31
0.0
  0
LINE
  5
902
330
DAC
100
AcDbEntity
  8
LAYER3
100
AcDbLine
 10
-0.0000000000000426
 20
42.25
 30
0.0
 11
3.000000000000014
 21
42.25
 31
0.0
  0
LWPOLYLINE
  5
929
330
DAC
100
AcDbEntity
  8
LAYER4
100
AcDbPolyline
 90
        2
 70
     0
 43
0.0
 10
0.0
 20
29.99999999999998
 10
0.0
 20
39.99999999999998
  0
LINE
  5
958
330
DAC
100
AcDbEntity
  8
LAYER4
100
AcDbLine
 10
34.99999999999999
 20
39.99999999999998
 30
0.0
 11
67.00000000000001
 21
39.99999999999979
 31
0.0
  0
LINE
  5
95A
330
DAC
100
AcDbEntity
  8
LAYER4
100
AcDbLine
 10
34.99999999999999
 20
29.99999999999998
 30
0.0
 11
66.99999999999999
 21
29.99999999999979
 31
0.0
  0
LINE
  5
95B
330
DAC
100
AcDbEntity
  8
LAYER4
100
AcDbLine
 10
34.99999999999999
 20
39.99999999999998
 30
0.0
 11
34.99999999999999
 21
29.99999999999998
 31
0.0
  0
LWPOLYLINE
  5
96A
330
DAC
100
AcDbEntity
  8
LAYER3
100
AcDbPolyline
 90
       10
 70
     0
 43
0.0
 10
57.99999999999996
 20
22.49999999999998
 10
57.99999999999996
 20
25.49999999999999
 10
65.99999999999997
 20
25.49999999999999
 10
65.99999999999994
 20
25.99999999999993
 42
0.4142135623731062
 10
64.49999999999994
 20
27.49999999999998
 10
31.49999999999998
 20
27.49999999999999
 42
0.414213562373095
 10
29.99999999999998
 20
25.99999999999999
 10
29.99999999999998
 20
25.49999999999999
 10
37.99999999999998
 20
25.49999999999999
 10
37.99999999999998
 20
22.49999999999998
  0
LWPOLYLINE
  5
96B
330
DAC
100
AcDbEntity
  8
LAYER3
100
AcDbPolyline
 90
       16
 70
     0
 43
0.0
 10
66.99999999999997
 20
27.49999999999999
 10
66.99999999999997
 20
24.49999999999999
 10
58.99999999999996
 20
24.49999999999999
 10
58.99999999999996
 20
24.00000000000002
 42
0.4142135623731207
 10
60.5000000000001
 20
22.50000000000002
 10
66.99999999999996
 20
22.49999999999997
 10
66.99999999999996
 20
21.49999999999997
 42
-0.414213562373095
 10
65.49999999999996
 20
19.99999999999997
 10
30.49999999999998
 20
19.99999999999998
 42
-0.414213562373095
 10
28.99999999999998
 20
21.49999999999998
 10
28.99999999999998
 20
22.49999999999998
 10
35.4999999999999
 20
22.49999999999996
 42
0.4142135623731082
 10
36.99999999999998
 20
23.99999999999996
 10
36.99999999999998
 20
24.49999999999999
 10
28.99999999999998
 20
24.49999999999999
 10
28.99999999999998
 20
27.49999999999999
  0
LWPOLYLINE
  5
96D
330
DAC
100
AcDbEntity
  8
LAYER3
100
AcDbPolyline
 90
        2
 70
     0
 43
0.0
 10
57.99999999999997
 20
22.49999999999997
 10
37.99999999999997
 20
22.49999999999998
  0
LWPOLYLINE
  5
97A
330
DAC
100
AcDbEntity
  8
1
100
AcDbPolyline
 90
        4
 70
     1
 43
0.0
 10
29.99999999999999
 20
-0.0000000000000284
 10
29.99999999999999
 20
69.99999999999999
 10
0.0
 20
69.99999999999997
 10
0.0
 20
-0.0000000000000284
  0
LWPOLYLINE
  5
97B
330
DAC
100
AcDbEntity
  8
1
100
AcDbPolyline
 90
        4
 70
     1
 43
0.0
 10
39.99999999999999
 20
-4.000000000000028
 10
39.99999999999999
 20
73.99999999999997
 10
29.99999999999999
 20
73.99999999999997
 10
29.99999999999999
 20
-4.000000000000028
  0
LWPOLYLINE
  5
97C
330
DAC
100
AcDbEntity
  8
1
100
AcDbPolyline
 90
        4
 70
     1
 43
0.0
 10
69.99999999999997
 20
-0.0000000000000284
 10
69.99999999999997
 20
69.99999999999997
 10
39.99999999999999
 20
69.99999999999999
 10
39.99999999999999
 20
-0.0000000000000284
  0
LWPOLYLINE
  5
985
330
DAC
100
AcDbEntity
  8
2
100
AcDbPolyline
 90
        4
 70
     1
 43
0.0
 10
69.99999999999997
 20
-0.0000000000000284
 10
69.99999999999997
 20
69.99999999999997
 10
0.0
 20
69.99999999999997
 10
0.0
 20
-0.0000000000000284
  0
LWPOLYLINE
  5
986
330
DAC
100
AcDbEntity
  8
2
100
AcDbPolyline
 90
        4
 70
     1
 43
0.0
 10
2.999999999999999
 20
13.77345107883029
 10
3.000000000000001
 20
56.49999999999997
 10
66.99999999999996
 20
56.49999999999997
 10
66.99999999999996
 20
13.77345107883029
  0
LWPOLYLINE
  5
987
330
DAC
100
AcDbEntity
  8
2
100
AcDbPolyline
 90
       80
 70
     1
 43
0.0
 10
66.99999999999994
 20
15.77345107883029
 10
66.99999999999994
 20
37.99999999999996
 10
66.74999999999997
 20
37.74999999999998
 10
66.24999999999997
 20
38.24999999999998
 10
65.74999999999997
 20
37.74999999999998
 10
65.24999999999997
 20
38.24999999999998
 10
64.74999999999997
 20
37.74999999999998
 10
64.24999999999997
 20
38.24999999999998
 10
63.74999999999998
 20
37.74999999999998
 10
63.24999999999998
 20
38.24999999999998
 10
62.74999999999998
 20
37.74999999999998
 10
62.24999999999998
 20
38.24999999999998
 10
61.74999999999998
 20
37.74999999999998
 10
61.24999999999998
 20
38.24999999999998
 10
60.74999999999998
 20
37.74999999999998
 10
60.24999999999998
 20
38.24999999999998
 10
59.74999999999998
 20
37.74999999999998
 10
59.24999999999998
 20
38.24999999999998
 10
58.74999999999998
 20
37.74999999999998
 10
58.24999999999998
 20
38.24999999999998
 10
57.74999999999998
 20
37.74999999999998
 10
57.24999999999998
 20
38.24999999999998
 10
56.74999999999998
 20
37.74999999999998
 10
56.24999999999998
 20
38.24999999999998
 10
55.74999999999998
 20
37.74999999999998
 10
55.24999999999998
 20
38.24999999999998
 10
54.74999999999998
 20
37.74999999999998
 10
54.24999999999998
 20
38.24999999999998
 10
53.74999999999998
 20
37.74999999999998
 10
53.24999999999998
 20
38.24999999999998
 10
52.74999999999998
 20
37.74999999999998
 10
52.24999999999998
 20
38.24999999999998
 10
51.74999999999998
 20
37.74999999999998
 10
51.24999999999998
 20
38.24999999999998
 10
50.74999999999998
 20
37.74999999999998
 10
50.24999999999998
 20
38.24999999999998
 10
49.74999999999998
 20
37.74999999999998
 10
49.24999999999998
 20
38.24999999999998
 10
48.74999999999998
 20
37.74999999999998
 10
48.24999999999998
 20
38.24999999999998
 10
47.74999999999998
 20
37.74999999999998
 10
47.24999999999998
 20
38.24999999999998
 10
46.74999999999998
 20
37.74999999999998
 10
46.24999999999998
 20
38.24999999999998
 10
45.74999999999998
 20
37.74999999999998
 10
45.24999999999998
 20
38.24999999999998
 10
44.74999999999998
 20
37.74999999999998
 10
44.24999999999998
 20
38.24999999999998
 10
43.74999999999998
 20
37.74999999999998
 10
43.24999999999998
 20
38.24999999999998
 10
42.74999999999998
 20
37.74999999999998
 10
42.24999999999998
 20
38.24999999999998
 10
41.74999999999998
 20
37.74999999999998
 10
41.24999999999998
 20
38.24999999999998
 10
40.74999999999998
 20
37.74999999999998
 10
40.24999999999998
 20
38.24999999999998
 10
39.74999999999998
 20
37.74999999999998
 10
39.24999999999998
 20
38.24999999999998
 10
38.74999999999998
 20
37.74999999999998
 10
38.24999999999998
 20
38.24999999999998
 10
37.74999999999998
 20
37.74999999999998
 10
37.24999999999998
 20
38.24999999999998
 10
36.74999999999998
 20
37.74999999999998
 10
36.24999999999998
 20
38.24999999999998
 10
35.74999999999998
 20
37.74999999999998
 10
35.24999999999998
 20
38.24999999999998
 10
34.74999999999998
 20
37.74999999999998
 10
34.24999999999998
 20
38.24999999999998
 10
33.74999999999998
 20
37.74999999999998
 10
33.24999999999998
 20
38.24999999999998
 10
32.74999999999998
 20
37.74999999999998
 10
32.24999999999998
 20
38.24999999999998
 10
31.74999999999998
 20
37.74999999999998
 10
31.24999999999998
 20
38.24999999999998
 10
30.74999999999998
 20
37.74999999999998
 10
30.24999999999998
 20
38.24999999999998
 10
29.74999999999998
 20
37.74999999999998
 10
29.24999999999998
 20
38.24999999999998
 10
28.99999999999998
 20
37.99999999999999
 10
28.99999999999998
 20
15.77345107883029
  0
LWPOLYLINE
  5
988
330
DAC
100
AcDbEntity
  8
2
100
AcDbPolyline
 90
      132
 70
     1
 43
0.0
 10
66.99999999999996
 20
38.99999999999999
 10
66.99999999999996
 20
56.49999999999997
 10
3.000000000000001
 20
56.49999999999997
 10
3.0
 20
39.00000000000001
 10
3.249999999999986
 20
39.25000000000001
 10
3.749999999999986
 20
38.75000000000001
 10
4.249999999999986
 20
39.25000000000001
 10
4.749999999999986
 20
38.75000000000001
 10
5.249999999999986
 20
39.25000000000001
 10
5.749999999999986
 20
38.75000000000001
 10
6.249999999999986
 20
39.25000000000001
 10
6.749999999999986
 20
38.75000000000001
 10
7.249999999999986
 20
39.25000000000001
 10
7.749999999999986
 20
38.75000000000001
 10
8.249999999999986
 20
39.25000000000001
 10
8.749999999999986
 20
38.75000000000001
 10
9.249999999999986
 20
39.25000000000001
 10
9.749999999999986
 20
38.75000000000001
 10
10.24999999999999
 20
39.25000000000001
 10
10.74999999999999
 20
38.75000000000001
 10
11.24999999999999
 20
39.25000000000001
 10
11.74999999999999
 20
38.75000000000001
 10
12.24999999999999
 20
39.25000000000001
 10
12.74999999999999
 20
38.75000000000001
 10
13.24999999999999
 20
39.25000000000001
 10
13.74999999999999
 20
38.75000000000001
 10
14.24999999999999
 20
39.25000000000001
 10
14.74999999999999
 20
38.75000000000001
 10
15.24999999999999
 20
39.25000000000001
 10
15.74999999999999
 20
38.75000000000001
 10
16.24999999999999
 20
39.25000000000001
 10
16.74999999999999
 20
38.75000000000001
 10
17.24999999999999
 20
39.25000000000001
 10
17.74999999999999
 20
38.75000000000001
 10
18.24999999999999
 20
39.25000000000001
 10
18.74999999999999
 20
38.75000000000001
 10
19.24999999999999
 20
39.25000000000001
 10
19.74999999999999
 20
38.75000000000001
 10
20.24999999999999
 20
39.25000000000001
 10
20.74999999999999
 20
38.75000000000001
 10
21.24999999999999
 20
39.25000000000001
 10
21.74999999999999
 20
38.75000000000001
 10
22.24999999999999
 20
39.25000000000001
 10
22.74999999999999
 20
38.75000000000001
 10
23.24999999999999
 20
39.25000000000001
 10
23.74999999999999
 20
38.75000000000001
 10
24.24999999999999
 20
39.25000000000001
 10
24.74999999999999
 20
38.75000000000001
 10
25.24999999999999
 20
39.25000000000001
 10
25.74999999999999
 20
38.75000000000001
 10
26.24999999999999
 20
39.25000000000001
 10
26.74999999999999
 20
38.75000000000001
 10
27.24999999999999
 20
39.25000000000001
 10
27.74999999999999
 20
38.75000000000001
 10
28.24999999999998
 20
39.25000000000001
 10
28.74999999999998
 20
38.75000000000001
 10
29.24999999999998
 20
39.25000000000001
 10
29.74999999999998
 20
38.75000000000001
 10
30.24999999999998
 20
39.25000000000001
 10
30.74999999999998
 20
38.75000000000001
 10
31.24999999999998
 20
39.25000000000001
 10
31.74999999999998
 20
38.75000000000001
 10
32.24999999999998
 20
39.25000000000001
 10
32.74999999999998
 20
38.75000000000001
 10
33.24999999999998
 20
39.25000000000001
 10
33.74999999999998
 20
38.75000000000001
 10
34.24999999999998
 20
39.25000000000001
 10
34.74999999999998
 20
38.75000000000001
 10
35.24999999999998
 20
39.25000000000001
 10
35.74999999999998
 20
38.75000000000001
 10
36.24999999999998
 20
39.25000000000001
 10
36.74999999999998
 20
38.75000000000001
 10
37.24999999999998
 20
39.25000000000001
 10
37.74999999999998
 20
38.75000000000001
 10
38.24999999999998
 20
39.25000000000001
 10
38.74999999999998
 20
38.75000000000001
 10
39.24999999999998
 20
39.25000000000001
 10
39.74999999999998
 20
38.75000000000001
 10
40.24999999999998
 20
39.25000000000001
 10
40.74999999999998
 20
38.75000000000001
 10
41.24999999999998
 20
39.25000000000001
 10
41.74999999999998
 20
38.75000000000001
 10
42.24999999999998
 20
39.25000000000001
 10
42.74999999999998
 20
38.75000000000001
 10
43.24999999999998
 20
39.25000000000001
 10
43.74999999999998
 20
38.75000000000001
 10
44.24999999999998
 20
39.25000000000001
 10
44.74999999999998
 20
38.75000000000001
 10
45.24999999999998
 20
39.25000000000001
 10
45.74999999999998
 20
38.75000000000001
 10
46.24999999999998
 20
39.25000000000001
 10
46.74999999999998
 20
38.75000000000001
 10
47.24999999999998
 20
39.25000000000001
 10
47.74999999999998
 20
38.75000000000001
 10
48.24999999999998
 20
39.25000000000001
 10
48.74999999999998
 20
38.75000000000001
 10
49.24999999999998
 20
39.25000000000001
 10
49.74999999999998
 20
38.75000000000001
 10
50.24999999999998
 20
39.25000000000001
 10
50.74999999999998
 20
38.75000000000001
 10
51.24999999999998
 20
39.25000000000001
 10
51.74999999999998
 20
38.75000000000001
 10
52.24999999999998
 20
39.25000000000001
 10
52.74999999999998
 20
38.75000000000001
 10
53.24999999999998
 20
39.25000000000001
 10
53.74999999999998
 20
38.75000000000001
 10
54.24999999999998
 20
39.25000000000001
 10
54.74999999999998
 20
38.75000000000001
 10
55.24999999999998
 20
39.25000000000001
 10
55.74999999999998
 20
38.75000000000001
 10
56.24999999999998
 20
39.25000000000001
 10
56.74999999999998
 20
38.75000000000001
 10
57.24999999999998
 20
39.25000000000001
 10
57.74999999999998
 20
38.75000000000001
 10
58.24999999999998
 20
39.25000000000001
 10
58.74999999999998
 20
38.75000000000001
 10
59.24999999999998
 20
39.25000000000001
 10
59.74999999999998
 20
38.75000000000001
 10
60.24999999999998
 20
39.25000000000001
 10
60.74999999999998
 20
38.75000000000001
 10
61.24999999999998
 20
39.25000000000001
 10
61.74999999999998
 20
38.75000000000001
 10
62.24999999999998
 20
39.25000000000001
 10
62.74999999999998
 20
38.75000000000001
 10
63.24999999999998
 20
39.25000000000001
 10
63.74999999999998
 20
38.75000000000001
 10
64.24999999999997
 20
39.25000000000001
 10
64.74999999999997
 20
38.75000000000001
 10
65.24999999999997
 20
39.25000000000001
 10
65.74999999999997
 20
38.75000000000001
 10
66.24999999999997
 20
39.25000000000001
 10
66.74999999999997
 20
38.75000000000001
  0
LWPOLYLINE
  5
991
330
DAC
100
AcDbEntity
  8
3
100
AcDbPolyline
 90
        4
 70
     1
 43
0.0
 10
69.99999999999999
 20
52.49999999999999
 10
69.99999999999997
 20
69.99999999999997
 10
0.0
 20
69.99999999999997
 10
-0.0000000000000024
 20
52.49999999999997
  0
LWPOLYLINE
  5
992
330
DAC
100
AcDbEntity
  8
3
100
AcDbPolyline
 90
      142
 70
     0
 43
0.0
 10
-0.0000000000000071
 20
42.49999999999999
 10
0.2499999999999858
 20
42.75
 10
0.7499999999999858
 20
42.25
 10
1.249999999999986
 20
42.75
 10
1.749999999999986
 20
42.25
 10
2.249999999999986
 20
42.75
 10
2.749999999999986
 20
42.25
 10
3.249999999999986
 20
42.75
 10
3.749999999999986
 20
42.25
 10
4.249999999999986
 20
42.75
 10
4.749999999999986
 20
42.25
 10
5.249999999999986
 20
42.75
 10
5.749999999999986
 20
42.25
 10
6.249999999999986
 20
42.75
 10
6.749999999999986
 20
42.25
 10
7.249999999999986
 20
42.75
 10
7.749999999999986
 20
42.25
 10
8.249999999999986
 20
42.75
 10
8.749999999999986
 20
42.25
 10
9.249999999999986
 20
42.75
 10
9.749999999999986
 20
42.25
 10
10.24999999999999
 20
42.75
 10
10.74999999999999
 20
42.25
 10
11.24999999999999
 20
42.75
 10
11.74999999999999
 20
42.25
 10
12.24999999999999
 20
42.75
 10
12.74999999999999
 20
42.25
 10
13.24999999999999
 20
42.75
 10
13.74999999999999
 20
42.25
 10
14.24999999999999
 20
42.75
 10
14.74999999999999
 20
42.25
 10
15.24999999999999
 20
42.75
 10
15.74999999999999
 20
42.25
 10
16.24999999999999
 20
42.75
 10
16.74999999999999
 20
42.25
 10
17.24999999999999
 20
42.75
 10
17.74999999999999
 20
42.25
 10
18.24999999999999
 20
42.75
 10
18.74999999999999
 20
42.25
 10
19.24999999999999
 20
42.75
 10
19.74999999999999
 20
42.25
 10
20.24999999999999
 20
42.75
 10
20.74999999999999
 20
42.25
 10
21.24999999999999
 20
42.75
 10
21.74999999999999
 20
42.25
 10
22.24999999999999
 20
42.75
 10
22.74999999999999
 20
42.25
 10
23.24999999999999
 20
42.75
 10
23.74999999999999
 20
42.25
 10
24.24999999999999
 20
42.75
 10
24.74999999999999
 20
42.25
 10
25.24999999999999
 20
42.75
 10
25.74999999999999
 20
42.25
 10
26.24999999999999
 20
42.75
 10
26.74999999999999
 20
42.25
 10
27.24999999999999
 20
42.75
 10
27.74999999999999
 20
42.25
 10
28.24999999999998
 20
42.75
 10
28.74999999999998
 20
42.25
 10
29.24999999999998
 20
42.75
 10
29.74999999999998
 20
42.25
 10
30.24999999999998
 20
42.75
 10
30.74999999999998
 20
42.25
 10
31.24999999999998
 20
42.75
 10
31.74999999999998
 20
42.25
 10
32.24999999999998
 20
42.75
 10
32.74999999999998
 20
42.25
 10
33.24999999999998
 20
42.75
 10
33.74999999999998
 20
42.25
 10
34.24999999999998
 20
42.75
 10
34.74999999999998
 20
42.25
 10
35.24999999999998
 20
42.75
 10
35.74999999999998
 20
42.25
 10
36.24999999999998
 20
42.75
 10
36.74999999999998
 20
42.25
 10
37.24999999999998
 20
42.75
 10
37.74999999999998
 20
42.25
 10
38.24999999999998
 20
42.75
 10
38.74999999999998
 20
42.25
 10
39.24999999999998
 20
42.75
 10
39.74999999999998
 20
42.25
 10
40.24999999999998
 20
42.75
 10
40.74999999999998
 20
42.25
 10
41.24999999999998
 20
42.75
 10
41.74999999999998
 20
42.25
 10
42.24999999999998
 20
42.75
 10
42.74999999999998
 20
42.25
 10
43.24999999999998
 20
42.75
 10
43.74999999999998
 20
42.25
 10
44.24999999999998
 20
42.75
 10
44.74999999999998
 20
42.25
 10
45.24999999999998
 20
42.75
 10
45.74999999999998
 20
42.25
 10
46.24999999999998
 20
42.75
 10
46.74999999999998
 20
42.25
 10
47.24999999999998
 20
42.75
 10
47.74999999999998
 20
42.25
 10
48.24999999999998
 20
42.75
 10
48.74999999999998
 20
42.25
 10
49.24999999999998
 20
42.75
 10
49.74999999999998
 20
42.25
 10
50.24999999999998
 20
42.75
 10
50.74999999999998
 20
42.25
 10
51.24999999999998
 20
42.75
 10
51.74999999999998
 20
42.25
 10
52.24999999999998
 20
42.75
 10
52.74999999999998
 20
42.25
 10
53.24999999999998
 20
42.75
 10
53.74999999999998
 20
42.25
 10
54.24999999999998
 20
42.75
 10
54.74999999999998
 20
42.25
 10
55.24999999999998
 20
42.75
 10
55.74999999999998
 20
42.25
 10
56.24999999999998
 20
42.75
 10
56.74999999999998
 20
42.25
 10
57.24999999999998
 20
42.75
 10
57.74999999999998
 20
42.25
 10
58.24999999999998
 20
42.75
 10
58.74999999999998
 20
42.25
 10
59.24999999999998
 20
42.75
 10
59.74999999999998
 20
42.25
 10
60.24999999999998
 20
42.75
 10
60.74999999999998
 20
42.25
 10
61.24999999999998
 20
42.75
 10
61.74999999999998
 20
42.25
 10
62.24999999999998
 20
42.75
 10
62.74999999999998
 20
42.25
 10
63.24999999999998
 20
42.75
 10
63.74999999999998
 20
42.25
 10
64.24999999999997
 20
42.75
 10
64.74999999999997
 20
42.25
 10
65.24999999999997
 20
42.75
 10
65.74999999999997
 20
42.25
 10
66.24999999999997
 20
42.75
 10
66.74999999999997
 20
42.25
 10
67.24999999999997
 20
42.75
 10
67.74999999999997
 20
42.25
 10
68.24999999999997
 20
42.75
 10
68.74999999999997
 20
42.25
 10
69.24999999999997
 20
42.75
 10
69.74999999999997
 20
42.25
 10
70.00000000000001
 20
42.50000000000003
  0
LWPOLYLINE
  5
993
330
DAC
100
AcDbEntity
  8
3
100
AcDbPolyline
 90
       14
 70
     1
 43
0.0
 10
69.99999999999997
 20
-0.0000000000000284
 10
69.99999999999997
 20
42.24999999999999
 10
66.99999999999996
 20
42.25
 10
66.99999999999996
 20
27.49999999999999
 10
66.99999999999996
 20
24.49999999999999
 10
66.99999999999994
 20
22.49999999999997
 10
66.99999999999994
 20
21.49999999999997
 10
66.99999999999996
 20
19.99999999999997
 10
65.49999999999994
 20
19.99999999999997
 10
30.49999999999998
 20
19.99999999999998
 10
3.000000000000014
 20
19.99999999999996
 10
3.000000000000014
 20
42.25
 10
-0.0000000000000142
 20
42.25
 10
0.0
 20
-0.0000000000000284
  0
LWPOLYLINE
  5
994
330
DAC
100
AcDbEntity
  8
3
100
AcDbPolyline
 90
       94
 70
     1
 43
0.0
 10
66.99999999999996
 20
27.49999999999999
 10
66.99999999999996
 20
42.49999999999999
 10
66.74999999999997
 20
42.25
 10
66.24999999999997
 20
42.75
 10
65.74999999999997
 20
42.25
 10
65.24999999999997
 20
42.75
 10
64.74999999999997
 20
42.25
 10
64.24999999999997
 20
42.75
 10
63.74999999999998
 20
42.25
 10
63.24999999999998
 20
42.75
 10
62.74999999999998
 20
42.25
 10
62.24999999999998
 20
42.75
 10
61.74999999999998
 20
42.25
 10
61.24999999999998
 20
42.75
 10
60.74999999999998
 20
42.25
 10
60.24999999999998
 20
42.75
 10
59.74999999999998
 20
42.25
 10
59.24999999999998
 20
42.75
 10
58.74999999999998
 20
42.25
 10
58.24999999999998
 20
42.75
 10
57.74999999999998
 20
42.25
 10
57.24999999999998
 20
42.75
 10
56.74999999999998
 20
42.25
 10
56.24999999999998
 20
42.75
 10
55.74999999999998
 20
42.25
 10
55.24999999999998
 20
42.75
 10
54.74999999999998
 20
42.25
 10
54.24999999999998
 20
42.75
 10
53.74999999999998
 20
42.25
 10
53.24999999999998
 20
42.75
 10
52.74999999999998
 20
42.25
 10
52.24999999999998
 20
42.75
 10
51.74999999999998
 20
42.25
 10
51.24999999999998
 20
42.75
 10
50.74999999999998
 20
42.25
 10
50.24999999999998
 20
42.75
 10
49.74999999999998
 20
42.25
 10
49.24999999999998
 20
42.75
 10
48.74999999999998
 20
42.25
 10
48.24999999999998
 20
42.75
 10
47.74999999999998
 20
42.25
 10
47.24999999999998
 20
42.75
 10
46.74999999999998
 20
42.25
 10
46.24999999999998
 20
42.75
 10
45.74999999999998
 20
42.25
 10
45.24999999999998
 20
42.75
 10
44.74999999999998
 20
42.25
 10
44.24999999999998
 20
42.75
 10
43.74999999999998
 20
42.25
 10
43.24999999999998
 20
42.75
 10
42.74999999999998
 20
42.25
 10
42.24999999999998
 20
42.75
 10
41.74999999999998
 20
42.25
 10
41.24999999999998
 20
42.75
 10
40.74999999999998
 20
42.25
 10
40.24999999999998
 20
42.75
 10
39.74999999999998
 20
42.25
 10
39.24999999999998
 20
42.75
 10
38.74999999999998
 20
42.25
 10
38.24999999999998
 20
42.75
 10
37.74999999999998
 20
42.25
 10
37.24999999999998
 20
42.75
 10
36.74999999999998
 20
42.25
 10
36.24999999999998
 20
42.75
 10
35.74999999999998
 20
42.25
 10
35.24999999999998
 20
42.75
 10
34.74999999999998
 20
42.25
 10
34.24999999999998
 20
42.75
 10
33.74999999999998
 20
42.25
 10
33.24999999999998
 20
42.75
 10
32.74999999999998
 20
42.25
 10
32.24999999999998
 20
42.75
 10
31.74999999999998
 20
42.25
 10
31.24999999999998
 20
42.75
 10
30.74999999999998
 20
42.25
 10
30.24999999999998
 20
42.75
 10
29.74999999999998
 20
42.25
 10
29.24999999999998
 20
42.75
 10
28.99999999999998
 20
42.5
 10
28.99999999999998
 20
27.49999999999999
 10
28.99999999999998
 20
24.49999999999999
 10
36.99999999999998
 20
24.49999999999999
 10
36.99999999999998
 20
23.99999999999997
 42
-0.4142135623731072
 10
35.4999999999999
 20
22.49999999999996
 10
28.99999999999998
 20
22.49999999999998
 10
28.99999999999998
 20
21.49999999999998
 42
0.414213562373097
 10
30.49999999999998
 20
19.99999999999998
 10
65.49999999999996
 20
19.99999999999997
 42
0.4142135623730989
 10
66.99999999999994
 20
21.49999999999997
 10
66.99999999999996
 20
22.49999999999997
 10
60.5000000000001
 20
22.50000000000002
 42
-0.4142135623731177
 10
58.99999999999996
 20
24.00000000000002
 10
58.99999999999996
 20
24.49999999999999
 10
66.99999999999997
 20
24.49999999999999
  0
LWPOLYLINE
  5
995
330
DAC
100
AcDbEntity
  8
3
100
AcDbPolyline
 90
       10
 70
     1
 43
0.0
 10
29.99999999999998
 20
25.99999999999999
 42
-0.414213562373097
 10
31.49999999999998
 20
27.49999999999999
 10
64.49999999999994
 20
27.49999999999998
 42
-0.4142135623731075
 10
65.99999999999994
 20
25.99999999999993
 10
65.99999999999997
 20
25.49999999999999
 10
57.99999999999996
 20
25.49999999999999
 10
57.99999999999996
 20
22.49999999999997
 10
37.99999999999998
 20
22.49999999999998
 10
37.99999999999998
 20
25.49999999999999
 10
29.99999999999998
 20
25.49999999999999
  0
LWPOLYLINE
  5
99A
330
DAC
100
AcDbEntity
  8
4
100
AcDbPolyline
 90
        8
 70
     1
 43
0.0
 10
69.99999999999997
 20
40.0
 10
69.99999999999997
 20
69.99999999999997
 10
0.0
 20
69.99999999999997
 10
0.0
 20
39.99999999999997
 10
0.0
 20
29.99999999999997
 10
0.0
 20
-0.0000000000000284
 10
69.99999999999997
 20
-0.0000000000000284
 10
69.99999999999997
 20
29.99999999999999
  0
LWPOLYLINE
  5
99B
330
DAC
100
AcDbEntity
  8
4
100
AcDbPolyline
 90
        4
 70
     1
 43
0.0
 10
34.99999999999999
 20
29.99999999999998
 10
34.99999999999999
 20
39.99999999999998
 10
67.00000000000001
 20
39.99999999999979
 10
66.99999999999997
 20
29.99999999999979
  0
LWPOLYLINE
  5
99C
330
DAC
100
AcDbEntity
  8
4
100
AcDbPolyline
 90
        5
 70
     1
 43
0.0
 10
66.99999999999999
 20
34.99999999999979
 10
66.99999999999999
 20
39.49999999999978
 10
60.99999999999999
 20
39.4999999999998
 10
60.99999999999999
 20
31.9999999999998
 10
67.0
 20
31.99999999999979
  0
LWPOLYLINE
  5
E9C
330
DAC
100
AcDbEntity
  8
A
100
AcDbPolyline
 90
        4
 70
     1
 43
0.0
 10
0.0
 20
69.99999999999997
 10
0.0
 20
56.49999999999996
 10
29.99999999999998
 20
56.49999999999996
 10
29.99999999999998
 20
69.99999999999997
  0
LWPOLYLINE
  5
E9D
330
DAC
100
AcDbEntity
  8
A
100
AcDbPolyline
 90
        4
 70
     1
 43
0.0
 10
40.00000000000001
 20
56.49999999999997
 10
40.00000000000001
 20
69.99999999999996
 10
69.99999999999997
 20
69.99999999999996
 10
69.99999999999997
 20
56.49999999999997
  0
LWPOLYLINE
  5
E9E
330
DAC
100
AcDbEntity
  8
A
100
AcDbPolyline
 90
        4
 70
     1
 43
0.0
 10
29.99999999999997
 20
13.77345107883029
 10
29.99999999999997
 20
-0.0000000000000266
 10
0.0
 20
-0.0000000000000266
 10
0.0
 20
13.77345107883029
  0
LWPOLYLINE
  5
E9F
330
DAC
100
AcDbEntity
  8
A
100
AcDbPolyline
 90
        4
 70
     1
 43
0.0
 10
39.99999999999999
 20
13.77345107883029
 10
39.99999999999999
 20
-0.0000000000000355
 10
69.99999999999997
 20
-0.0000000000000355
 10
69.99999999999997
 20
13.77345107883029
  0
LWPOLYLINE
  5
EA0
330
DAC
100
AcDbEntity
  8
A
100
AcDbPolyline
 90
        4
 70
     1
 43
0.0
 10
3.0
 20
13.77345107883029
 10
3.0
 20
56.49999999999996
 10
-0.0000000000000044
 20
56.49999999999996
 10
-0.0000000000000044
 20
13.77345107883029
  0
LWPOLYLINE
  5
EA1
330
DAC
100
AcDbEntity
  8
A
100
AcDbPolyline
 90
        4
 70
     1
 43
0.0
 10
66.99999999999996
 20
56.49999999999997
 10
66.99999999999996
 20
13.77345107883029
 10
69.99999999999996
 20
13.77345107883029
 10
69.99999999999996
 20
56.49999999999997
  0
LWPOLYLINE
  5
EA2
330
DAC
100
AcDbEntity
  8
A
100
AcDbPolyline
 90
        4
 70
     1
 43
0.0
 10
29.99999999999998
 20
56.49999999999996
 10
29.99999999999998
 20
39.25000000000001
 10
40.00000000000001
 20
39.25000000000001
 10
40.00000000000001
 20
56.49999999999997
  0
LINE
  5
EA9
330
DAC
100
AcDbEntity
  8
B
100
AcDbLine
 10
0.0
 20
-0.0000000000000284
 30
0.0
 11
69.99999999999997
 21
-0.0000000000000284
 31
0.0
  0
LINE
  5
EAA
330
DAC
100
AcDbEntity
  8
B
100
AcDbLine
 10
69.99999999999997
 20
-0.0000000000000284
 30
0.0
 11
69.99999999999997
 21
42.24999999999999
 31
0.0
  0
LINE
  5
EAB
330
DAC
100
AcDbEntity
  8
B
100
AcDbLine
 10
69.99999999999997
 20
42.24999999999999
 30
0.0
 11
66.99999999999996
 21
42.25
 31
0.0
  0
LINE
  5
EAC
330
DAC
100
AcDbEntity
  8
B
100
AcDbLine
 10
66.99999999999996
 20
42.25
 30
0.0
 11
66.99999999999996
 21
13.77345107883029
 31
0.0
  0
LINE
  5
EAD
330
DAC
100
AcDbEntity
  8
B
100
AcDbLine
 10
66.99999999999996
 20
13.77345107883029
 30
0.0
 11
2.999999999999999
 21
13.77345107883029
 31
0.0
  0
LINE
  5
EAE
330
DAC
100
AcDbEntity
  8
B
100
AcDbLine
 10
2.999999999999999
 20
13.77345107883029
 30
0.0
 11
3.000000000000014
 21
42.25
 31
0.0
  0
LINE
  5
EAF
330
DAC
100
AcDbEntity
  8
B
100
AcDbLine
 10
3.000000000000014
 20
42.25
 30
0.0
 11
-0.0000000000000142
 21
42.25
 31
0.0
  0
LINE
  5
EB0
330
DAC
100
AcDbEntity
  8
B
100
AcDbLine
 10
-0.0000000000000142
 20
42.25
 30
0.0
 11
0.0
 21
-0.0000000000000284
 31
0.0
  0
LINE
  5
EB3
330
DAC
100
AcDbEntity
  8
B
100
AcDbLine
 10
0.0
 20
69.99999999999997
 30
0.0
 11
-0.0000000000000071
 21
52.49999999999997
 31
0.0
  0
LINE
  5
EB4
330
DAC
100
AcDbEntity
  8
B
100
AcDbLine
 10
-0.0000000000000071
 20
52.49999999999997
 30
0.0
 11
3.000000000000001
 21
52.49999999999997
 31
0.0
  0
LINE
  5
EB5
330
DAC
100
AcDbEntity
  8
B
100
AcDbLine
 10
3.000000000000001
 20
52.49999999999997
 30
0.0
 11
3.0
 21
56.49999999999997
 31
0.0
  0
LINE
  5
EB6
330
DAC
100
AcDbEntity
  8
B
100
AcDbLine
 10
3.0
 20
56.49999999999997
 30
0.0
 11
66.99999999999996
 21
56.49999999999997
 31
0.0
  0
LINE
  5
EB7
330
DAC
100
AcDbEntity
  8
B
100
AcDbLine
 10
66.99999999999996
 20
56.49999999999997
 30
0.0
 11
66.99999999999996
 21
52.49999999999999
 31
0.0
  0
LINE
  5
EB8
330
DAC
100
AcDbEntity
  8
B
100
AcDbLine
 10
66.99999999999996
 20
52.49999999999999
 30
0.0
 11
70.00000000000003
 21
52.49999999999999
 31
0.0
  0
LINE
  5
EB9
330
DAC
100
AcDbEntity
  8
B
100
AcDbLine
 10
70.00000000000003
 20
52.49999999999999
 30
0.0
 11
69.99999999999997
 21
69.99999999999997
 31
0.0
  0
LINE
  5
EBA
330
DAC
100
AcDbEntity
  8
B
100
AcDbLine
 10
69.99999999999997
 20
69.99999999999997
 30
0.0
 11
0.0
 21
69.99999999999997
 31
0.0
  0
LWPOLYLINE
  5
EBB
330
DAC
100
AcDbEntity
  8
B
100
AcDbPolyline
 90
        4
 70
     1
 43
0.0
 10
28.99999999999998
 20
27.49999999999999
 10
28.99999999999996
 20
37.24999999999998
 10
66.99999999999994
 20
37.24999999999998
 10
66.99999999999996
 20
27.49999999999999
  0
LWPOLYLINE
  5
EEC
330
DAC
100
AcDbEntity
  8
C
100
AcDbPolyline
 90
       14
 70
     1
 43
0.0
 10
69.99999999999999
 20
-0.0000000000000284
 10
69.99999999999999
 20
42.24999999999999
 10
66.99999999999996
 20
42.25
 10
66.99999999999996
 20
27.49999999999999
 10
66.99999999999996
 20
24.49999999999999
 10
66.99999999999993
 20
22.49999999999997
 10
66.99999999999993
 20
21.49999999999997
 10
66.99999999999996
 20
19.99999999999997
 10
65.49999999999993
 20
19.99999999999997
 10
30.49999999999999
 20
19.99999999999998
 10
3.000000000000014
 20
19.99999999999996
 10
3.000000000000014
 20
42.25
 10
-0.0000000000000142
 20
42.25
 10
0.0
 20
-0.0000000000000284
  0
LWPOLYLINE
  5
F16
330
DAC
100
AcDbEntity
  8
C
100
AcDbPolyline
 90
        4
 70
     1
 43
0.0
 10
69.99999999999999
 20
52.49999999999999
 10
69.99999999999999
 20
69.99999999999997
 10
0.0
 20
69.99999999999997
 10
0.0
 20
52.49999999999997
  0
LWPOLYLINE
  5
F17
330
DAC
100
AcDbEntity
  8
C
100
AcDbPolyline
 90
        4
 70
     1
 43
0.0
 10
60.99999999999999
 20
39.4999999999998
 10
60.99999999999999
 20
31.99999999999979
 10
67.0
 20
31.99999999999979
 10
67.0
 20
39.4999999999998
  0
LINE
  5
F22
330
DAC
100
AcDbEntity
  8
3
100
AcDbLine
 10
0.0
 20
52.49999999999997
 30
0.0
 11
-4.0
 21
52.49999999999997
 31
0.0
  0
LINE
  5
F23
330
DAC
100
AcDbEntity
  8
3
100
AcDbLine
 10
-4.0
 20
52.49999999999997
 30
0.0
 11
-4.000000000000002
 21
42.49999999999999
 31
0.0
  0
LINE
  5
F24
330
DAC
100
AcDbEntity
  8
3
100
AcDbLine
 10
-0.0000000000000071
 20
42.49999999999999
 30
0.0
 11
-4.000000000000002
 21
42.49999999999999
 31
0.0
  0
LINE
  5
F25
330
DAC
100
AcDbEntity
  8
3
100
AcDbLine
 10
69.99999999999997
 20
52.49999999999997
 30
0.0
 11
73.99999999999997
 21
52.49999999999997
 31
0.0
  0
LINE
  5
F26
330
DAC
100
AcDbEntity
  8
3
100
AcDbLine
 10
73.99999999999997
 20
52.49999999999997
 30
0.0
 11
73.99999999999997
 21
42.49999999999999
 31
0.0
  0
LINE
  5
F27
330
DAC
100
AcDbEntity
  8
3
100
AcDbLine
 10
69.99999999999997
 20
42.49999999999999
 30
0.0
 11
73.99999999999997
 21
42.49999999999999
 31
0.0
  0
LWPOLYLINE
  5
F28
330
DAC
100
AcDbEntity
  8
3
100
AcDbPolyline
 90
        2
 70
     0
 43
0.0
 10
70.00000000000003
 20
52.49999999999999
 10
0.0
 20
52.49999999999997
  0
ENDSEC
  0
SECTION
  2
OBJECTS
  0
DICTIONARY
  5
D9A
330
0
100
AcDbDictionary
281
     1
  3
ACAD_DETAILVIEWSTYLE
350
E73
  3
ACAD_GROUP
350
D9B
  3
ACAD_IMAGE_VARS
350
E78
  3
ACAD_LAYOUT
350
F55
  3
ACAD_MATERIAL
350
F71
  3
ACAD_MLEADERSTYLE
350
F77
  3
ACAD_MLINESTYLE
350
DA4
  3
ACAD_SCALELIST
350
F33
  3
ACAD_SECTIONVIEWSTYLE
350
E74
  3
ACAD_TABLESTYLE
350
F75
  3
ACAD_VISUALSTYLE
350
F58
  3
ACDB_RECOMPOSE_DATA
350
F98
  3
ACDBVARIABLEDICTIONARY
350
E3F
  3
APPDATA
350
E77
  3
QCAD_OBJECTS
350
DF8
  0
SUN
  5
F79
330
DB6
100
AcDbSun
 90
        1
290
     0
 63
     7
421
 16777215
 40
1.0
291
     1
 91
  2455826
 92
 54000000
292
     0
 70
     2
 71
   256
280
     1
  0
DICTIONARY
  5
E79
330
D90
100
AcDbDictionary
280
     1
281
     1
  3
ACAD_LAYERSTATES
360
E7A
  3
ACLYDICTIONARY
360
E8E
  0
DICTIONARY
  5
E73
102
{ACAD_REACTORS
330
D9A
102
}
330
D9A
100
AcDbDictionary
281
     1
  0
DICTIONARY
  5
D9B
102
{ACAD_REACTORS
330
D9A
102
}
330
D9A
100
AcDbDictionary
281
     1
  0
RASTERVARIABLES
  5
E78
102
{ACAD_REACTORS
330
D9A
102
}
330
D9A
100
AcDbRasterVariables
 90
        0
 70
     1
 71
     1
 72
     0
  0
DICTIONARY
  5
F55
102
{ACAD_REACTORS
330
D9A
102
}
330
D9A
100
AcDbDictionary
281
     1
  3
Model
350
F56
  3
Sheet 1
350
F57
  0
DICTIONARY
  5
F71
102
{ACAD_REACTORS
330
D9A
102
}
330
D9A
100
AcDbDictionary
281
     1
  3
ByBlock
350
F73
  3
ByLayer
350
F72
  3
Global
350
F74
  0
DICTIONARY
  5
F77
102
{ACAD_REACTORS
330
D9A
102
}
330
D9A
100
AcDbDictionary
281
     1
  3
Standard
350
F78
  0
DICTIONARY
  5
DA4
102
{ACAD_REACTORS
330
D9A
102
}
330
D9A
100
AcDbDictionary
281
     1
  3
STANDARD
350
DA5
  0
DICTIONARY
  5
F33
102
{ACAD_REACTORS
330
D9A
102
}
330
D9A
100
AcDbDictionary
281
     1
  3
A0
350
F34
  3
A1
350
F35
  3
A2
350
F36
  3
A3
350
F37
  3
A4
350
F38
  3
A5
350
F39
  3
A6
350
F3A
  3
A7
350
F3B
  3
A8
350
F3C
  3
A9
350
F3D
  3
B0
350
F3E
  3
B1
350
F3F
  3
B2
350
F40
  3
B3
350
F41
  3
B4
350
F42
  3
B5
350
F43
  3
B6
350
F44
  3
B7
350
F45
  3
B8
350
F46
  3
B9
350
F47
  3
C0
350
F48
  3
C1
350
F49
  3
C2
350
F4A
  3
C3
350
F4B
  3
C4
350
F4C
  3
C5
350
F4D
  3
C6
350
F4E
  3
C7
350
F4F
  3
C8
350
F50
  3
C9
350
F51
  3
D0
350
F52
  3
D1
350
F53
  3
D2
350
F54
  0
DICTIONARY
  5
E74
102
{ACAD_REACTORS
330
D9A
102
}
330
D9A
100
AcDbDictionary
281
     1
  0
DICTIONARY
  5
F75
102
{ACAD_REACTORS
330
D9A
102
}
330
D9A
100
AcDbDictionary
281
     1
  3
Standard
350
F76
  0
DICTIONARY
  5
F58
102
{ACAD_REACTORS
330
D9A
102
}
330
D9A
100
AcDbDictionary
281
     1
  3
2dWireframe
350
F5D
  3
Basic
350
F60
  3
Brighten
350
F64
  3
ColorChange
350
F68
  3
Conceptual
350
F62
  3
Dim
350
F63
  3
EdgeColorOff
350
F6B
  3
Facepattern
350
F67
  3
Flat
350
F59
  3
FlatWithEdges
350
F5A
  3
Gouraud
350
F5B
  3
GouraudWithEdges
350
F5C
  3
Hidden
350
F5F
  3
JitterOff
350
F69
  3
Linepattern
350
F66
  3
OverhangOff
350
F6A
  3
Realistic
350
F61
  3
Shaded
350
F70
  3
Shaded with edges
350
F6F
  3
Shades of Gray
350
F6C
  3
Sketchy
350
F6D
  3
Thicken
350
F65
  3
Wireframe
350
F5E
  3
X-Ray
350
F6E
  0
XRECORD
  5
F98
102
{ACAD_REACTORS
330
D9A
102
}
330
D9A
100
AcDbXrecord
280
     1
 90
        1
330
F76
  0
DICTIONARY
  5
E3F
102
{ACAD_REACTORS
330
D9A
102
}
330
D9A
100
AcDbDictionary
281
     1
  3
CANNOSCALE
350
F89
  3
CMLEADERSTYLE
350
F8E
  3
CTABLESTYLE
350
F8D
  3
MSLTSCALE
350
F8F
  0
DICTIONARY
  5
E77
102
{ACAD_REACTORS
330
D9A
102
}
330
D9A
100
AcDbDictionary
281
     1
  0
DICTIONARY
  5
DF8
102
{ACAD_REACTORS
330
D9A
102
}
330
D9A
100
AcDbDictionary
281
     1
  3
GRID/GRIDSPACINGX00
350
DFD
  3
GRID/GRIDSPACINGX01
350
DFE
  3
GRID/GRIDSPACINGX02
350
DFF
  3
GRID/GRIDSPACINGX03
350
E00
  3
GRID/GRIDSPACINGY00
350
E01
  3
GRID/GRIDSPACINGY01
350
E02
  3
GRID/GRIDSPACINGY02
350
E03
  3
GRID/GRIDSPACINGY03
350
E04
  3
GRID/ISOMETRICPROJECTION00
350
E09
  3
GRID/ISOMETRICPROJECTION01
350
E0A
  3
GRID/ISOMETRICPROJECTION02
350
E0B
  3
GRID/ISOMETRICPROJECTION03
350
E0C
  3
GRID/METAGRIDSPACINGX00
350
E0D
  3
GRID/METAGRIDSPACINGX01
350
E0E
  3
GRID/METAGRIDSPACINGX02
350
E0F
  3
GRID/METAGRIDSPACINGX03
350
E10
  3
GRID/METAGRIDSPACINGY00
350
E11
  3
GRID/METAGRIDSPACINGY01
350
E12
  3
GRID/METAGRIDSPACINGY02
350
E13
  3
GRID/METAGRIDSPACINGY03
350
E14
  3
MULTIPAGESETTINGS/COLUMNS
350
E15
  3
MULTIPAGESETTINGS/GLUEMAR0
350
E17
  3
MULTIPAGESETTINGS/GLUEMAR1
350
E18
  3
MULTIPAGESETTINGS/GLUEMAR2
350
E19
  3
MULTIPAGESETTINGS/GLUEMARG
350
E16
  3
MULTIPAGESETTINGS/ROWS
350
E1B
  3
PAGESETTINGS/OFFSETX
350
E1C
  3
PAGESETTINGS/OFFSETY
350
E1D
  3
PAGESETTINGS/PAGEORIENTATION
350
E1E
  3
PAGESETTINGS/PAPERHEIGHT
350
E1F
  3
PAGESETTINGS/PAPERWIDTH
350
E20
  3
PAGESETTINGS/SCALE
350
E21
  3
UNITSETTINGS/PAPERUNIT
350
E23
  0
DICTIONARY
  5
E7A
102
{ACAD_REACTORS
330
E79
102
}
330
E79
100
AcDbDictionary
281
     1
1001
ACLAYERTOOLS
1000
DAF
1000
DB6
  0
DICTIONARY
  5
E8E
102
{ACAD_REACTORS
330
E79
102
}
330
E79
100
AcDbDictionary
281
     1
1001
ACAD
1000
<All
  0
LAYOUT
  5
F56
102
{ACAD_REACTORS
330
F55
102
}
330
F55
100
AcDbPlotSettings
  1

  2
none_device
  4
Letter_(8.50_x_11.00_Inches)
  6

 40
6.35
 41
6.35
 42
6.35
 43
6.35
 44
215.9
 45
279.4
 46
0.0
 47
0.0
 48
0.0
 49
0.0
140
0.0
141
0.0
142
1.0
143
34.18593750000004
 70
  1712
 72
     0
 73
     0
 74
     0
  7

 75
     0
 76
     0
 77
     2
 78
   300
147
0.0292517939576763
148
1413.865214269508
149
551.6600294419721
100
AcDbLayout
  1
Model
 70
     1
 71
     0
 10
0.0
 20
0.0
 11
12.0
 21
9.0
 12
0.0
 22
0.0
 32
0.0
 14
-4.0
 24
-4.000000000000028
 34
0.0
 15
73.99999999999997
 25
73.99999999999997
 35
0.0
146
0.0
 13
0.0
 23
0.0
 33
0.0
 16
1.0
 26
0.0
 36
0.0
 17
0.0
 27
1.0
 37
0.0
 76
     0
330
DAC
331
DB6
  0
LAYOUT
  5
F57
102
{ACAD_REACTORS
330
F55
102
}
330
F55
100
AcDbPlotSettings
  1

  2
none_device
  4

  6

 40
0.0
 41
0.0
 42
0.0
 43
0.0
 44
0.0
 45
0.0
 46
0.0
 47
0.0
 48
0.0
 49
0.0
140
0.0
141
0.0
142
1.0
143
1.0
 70
   688
 72
     1
 73
     0
 74
     5
  7

 75
    16
 76
     0
 77
     2
 78
   300
147
1.0
148
0.0
149
0.0
100
AcDbLayout
  1
Sheet 1
 70
     1
 71
     1
 10
0.0
 20
0.0
 11
0.0
 21
0.0
 12
0.0
 22
0.0
 32
0.0
 14
0.0
 24
0.0
 34
0.0
 15
0.0
 25
0.0
 35
0.0
146
0.0
 13
0.0
 23
0.0
 33
0.0
 16
1.0
 26
0.0
 36
0.0
 17
0.0
 27
1.0
 37
0.0
 76
     0
330
DA8
  0
MATERIAL
  5
F73
102
{ACAD_REACTORS
330
F71
102
}
330
F71
100
AcDbMaterial
  1
ByBlock
 72
     1
 94
      127
  0
MATERIAL
  5
F72
102
{ACAD_REACTORS
330
F71
102
}
330
F71
100
AcDbMaterial
  1
ByLayer
 72
     1
 94
      127
  0
MATERIAL
  5
F74
102
{ACAD_REACTORS
330
F71
102
}
330
F71
100
AcDbMaterial
  1
Global
 72
     1
 94
      127
  0
MLEADERSTYLE
  5
F78
102
{ACAD_REACTORS
330
F77
102
}
330
F77
100
AcDbMLeaderStyle
179
     2
170
     2
171
     1
172
     0
 90
        2
 40
0.0
 41
0.0
173
     1
 91
-1056964608
340
DA1
 92
       -2
290
     1
 42
2.0
291
     1
 43
8.0
  3
Standard
341
0
 44
4.0
300

342
D9F
174
     1
178
     6
175
     1
176
     0
 93
-1056964608
 45
4.0
292
     0
297
     0
 46
4.0
343
0
 94
-1056964608
 47
1.0
 49
1.0
140
1.0
293
     1
141
0.0
294
     1
177
     0
142
1.0
295
     0
296
     0
143
3.75
271
     0
272
     9
273
     9
  0
MLINESTYLE
  5
DA5
102
{ACAD_REACTORS
330
DA4
102
}
330
DA4
100
AcDbMlineStyle
  2
Standard
 70
     0
  3

 62
   256
 51
90.0
 52
90.0
 71
     2
 49
0.5
 62
   256
  6
BYLAYER
 49
-0.5
 62
   256
  6
BYLAYER
  0
SCALE
  5
F34
102
{ACAD_REACTORS
330
F33
102
}
330
F33
100
AcDbScale
 70
     0
300
1:1
140
1.0
141
1.0
290
     1
  0
SCALE
  5
F35
102
{ACAD_REACTORS
330
F33
102
}
330
F33
100
AcDbScale
 70
     0
300
1:2
140
1.0
141
2.0
290
     0
  0
SCALE
  5
F36
102
{ACAD_REACTORS
330
F33
102
}
330
F33
100
AcDbScale
 70
     0
300
1:4
140
1.0
141
4.0
290
     0
  0
SCALE
  5
F37
102
{ACAD_REACTORS
330
F33
102
}
330
F33
100
AcDbScale
 70
     0
300
1:5
140
1.0
141
5.0
290
     0
  0
SCALE
  5
F38
102
{ACAD_REACTORS
330
F33
102
}
330
F33
100
AcDbScale
 70
     0
300
1:8
140
1.0
141
8.0
290
     0
  0
SCALE
  5
F39
102
{ACAD_REACTORS
330
F33
102
}
330
F33
100
AcDbScale
 70
     0
300
1:10
140
1.0
141
10.0
290
     0
  0
SCALE
  5
F3A
102
{ACAD_REACTORS
330
F33
102
}
330
F33
100
AcDbScale
 70
     0
300
1:16
140
1.0
141
16.0
290
     0
  0
SCALE
  5
F3B
102
{ACAD_REACTORS
330
F33
102
}
330
F33
100
AcDbScale
 70
     0
300
1:20
140
1.0
141
20.0
290
     0
  0
SCALE
  5
F3C
102
{ACAD_REACTORS
330
F33
102
}
330
F33
100
AcDbScale
 70
     0
300
1:30
140
1.0
141
30.0
290
     0
  0
SCALE
  5
F3D
102
{ACAD_REACTORS
330
F33
102
}
330
F33
100
AcDbScale
 70
     0
300
1:40
140
1.0
141
40.0
290
     0
  0
SCALE
  5
F3E
102
{ACAD_REACTORS
330
F33
102
}
330
F33
100
AcDbScale
 70
     0
300
1:50
140
1.0
141
50.0
290
     0
  0
SCALE
  5
F3F
102
{ACAD_REACTORS
330
F33
102
}
330
F33
100
AcDbScale
 70
     0
300
1:100
140
1.0
141
100.0
290
     0
  0
SCALE
  5
F40
102
{ACAD_REACTORS
330
F33
102
}
330
F33
100
AcDbScale
 70
     0
300
2:1
140
2.0
141
1.0
290
     0
  0
SCALE
  5
F41
102
{ACAD_REACTORS
330
F33
102
}
330
F33
100
AcDbScale
 70
     0
300
4:1
140
4.0
141
1.0
290
     0
  0
SCALE
  5
F42
102
{ACAD_REACTORS
330
F33
102
}
330
F33
100
AcDbScale
 70
     0
300
8:1
140
8.0
141
1.0
290
     0
  0
SCALE
  5
F43
102
{ACAD_REACTORS
330
F33
102
}
330
F33
100
AcDbScale
 70
     0
300
10:1
140
10.0
141
1.0
290
     0
  0
SCALE
  5
F44
102
{ACAD_REACTORS
330
F33
102
}
330
F33
100
AcDbScale
 70
     0
300
100:1
140
100.0
141
1.0
290
     0
  0
SCALE
  5
F45
102
{ACAD_REACTORS
330
F33
102
}
330
F33
100
AcDbScale
 70
     0
300
1/128" = 1'-0"
140
0.0078125
141
12.0
290
     0
  0
SCALE
  5
F46
102
{ACAD_REACTORS
330
F33
102
}
330
F33
100
AcDbScale
 70
     0
300
1/64" = 1'-0"
140
0.015625
141
12.0
290
     0
  0
SCALE
  5
F47
102
{ACAD_REACTORS
330
F33
102
}
330
F33
100
AcDbScale
 70
     0
300
1/32" = 1'-0"
140
0.03125
141
12.0
290
     0
  0
SCALE
  5
F48
102
{ACAD_REACTORS
330
F33
102
}
330
F33
100
AcDbScale
 70
     0
300
1/16" = 1'-0"
140
0.0625
141
12.0
290
     0
  0
SCALE
  5
F49
102
{ACAD_REACTORS
330
F33
102
}
330
F33
100
AcDbScale
 70
     0
300
3/32" = 1'-0"
140
0.09375
141
12.0
290
     0
  0
SCALE
  5
F4A
102
{ACAD_REACTORS
330
F33
102
}
330
F33
100
AcDbScale
 70
     0
300
1/8" = 1'-0"
140
0.125
141
12.0
290
     0
  0
SCALE
  5
F4B
102
{ACAD_REACTORS
330
F33
102
}
330
F33
100
AcDbScale
 70
     0
300
3/16" = 1'-0"
140
0.1875
141
12.0
290
     0
  0
SCALE
  5
F4C
102
{ACAD_REACTORS
330
F33
102
}
330
F33
100
AcDbScale
 70
     0
300
1/4" = 1'-0"
140
0.25
141
12.0
290
     0
  0
SCALE
  5
F4D
102
{ACAD_REACTORS
330
F33
102
}
330
F33
100
AcDbScale
 70
     0
300
3/8" = 1'-0"
140
0.375
141
12.0
290
     0
  0
SCALE
  5
F4E
102
{ACAD_REACTORS
330
F33
102
}
330
F33
100
AcDbScale
 70
     0
300
1/2" = 1'-0"
140
0.5
141
12.0
290
     0
  0
SCALE
  5
F4F
102
{ACAD_REACTORS
330
F33
102
}
330
F33
100
AcDbScale
 70
     0
300
3/4" = 1'-0"
140
0.75
141
12.0
290
     0
  0
SCALE
  5
F50
102
{ACAD_REACTORS
330
F33
102
}
330
F33
100
AcDbScale
 70
     0
300
1" = 1'-0"
140
1.0
141
12.0
290
     0
  0
SCALE
  5
F51
102
{ACAD_REACTORS
330
F33
102
}
330
F33
100
AcDbScale
 70
     0
300
1-1/2" = 1'-0"
140
1.5
141
12.0
290
     0
  0
SCALE
  5
F52
102
{ACAD_REACTORS
330
F33
102
}
330
F33
100
AcDbScale
 70
     0
300
3" = 1'-0"
140
3.0
141
12.0
290
     0
  0
SCALE
  5
F53
102
{ACAD_REACTORS
330
F33
102
}
330
F33
100
AcDbScale
 70
     0
300
6" = 1'-0"
140
6.0
141
12.0
290
     0
  0
SCALE
  5
F54
102
{ACAD_REACTORS
330
F33
102
}
330
F33
100
AcDbScale
 70
     0
300
1'-0" = 1'-0"
140
12.0
141
12.0
290
     0
  0
TABLESTYLE
  5
F76
102
{ACAD_REACTORS
330
F75
102
}
102
{ACAD_XDICTIONARY
360
F96
102
}
330
F75
100
AcDbTableStyle
  3
Standard
 70
     0
 71
     0
 40
0.06
 41
0.06
280
     0
281
     0
  7
STANDARD
140
4.5
170
     2
 62
     0
 63
   257
283
     0
 90
        4
 91
        0
  1

274
    -2
284
     1
 64
     0
275
    -2
285
     1
 65
     0
276
    -2
286
     1
 66
     0
277
    -2
287
     1
 67
     0
278
    -2
288
     1
 68
     0
279
    -2
289
     1
 69
     0
  7
STANDARD
140
6.0
170
     5
 62
     0
 63
   257
283
     0
 90
        4
 91
        0
  1

274
    -2
284
     1
 64
     0
275
    -2
285
     1
 65
     0
276
    -2
286
     1
 66
     0
277
    -2
287
     1
 67
     0
278
    -2
288
     1
 68
     0
279
    -2
289
     1
 69
     0
  7
STANDARD
140
4.5
170
     5
 62
     0
 63
   257
283
     0
 90
        4
 91
        0
  1

274
    -2
284
     1
 64
     0
275
    -2
285
     1
 65
     0
276
    -2
286
     1
 66
     0
277
    -2
287
     1
 67
     0
278
    -2
288
     1
 68
     0
279
    -2
289
     1
 69
     0
  0
VISUALSTYLE
  5
F5D
102
{ACAD_REACTORS
330
F58
102
}
330
F58
100
AcDbVisualStyle
  2
2dWireframe
 70
     4
177
     2
291
     0
 71
     0
176
     1
 72
     2
176
     1
 73
     0
176
     1
 90
        0
176
     1
 40
0.6
176
     1
 41
30.0
176
     1
 62
     5
 63
     7
421
 16777215
176
     1
 74
     1
176
     1
 91
        4
176
     1
 64
     7
176
     1
 65
   257
176
     1
 75
     1
176
     1
175
     1
176
     1
 42
1.0
176
     1
 92
        0
176
     1
 66
   257
176
     1
 43
1.0
176
     1
 76
     1
176
     1
 77
     6
176
     1
 78
     2
176
     1
 67
     7
176
     1
 79
     5
176
     1
170
     0
176
     1
171
     0
176
     1
290
     0
176
     1
 93
        1
176
     1
 44
0.0
176
     1
173
     0
176
     1
  0
VISUALSTYLE
  5
F60
102
{ACAD_REACTORS
330
F58
102
}
330
F58
100
AcDbVisualStyle
  2
Basic
 70
     7
177
     2
291
     1
 71
     1
176
     1
 72
     0
176
     1
 73
     1
176
     1
 90
        0
176
     1
 40
0.6
176
     1
 41
30.0
176
     1
 62
     5
 63
     7
421
 16777215
176
     1
 74
     0
176
     1
 91
        4
176
     1
 64
     7
176
     1
 65
   257
176
     1
 75
     1
176
     1
175
     1
176
     1
 42
1.0
176
     1
 92
        8
176
     1
 66
     7
176
     1
 43
1.0
176
     1
 76
     1
176
     1
 77
     6
176
     1
 78
     2
176
     1
 67
     7
176
     1
 79
     5
176
     1
170
     0
176
     1
171
     0
176
     1
290
     0
176
     1
 93
        1
176
     1
 44
0.0
176
     1
173
     0
176
     1
  0
VISUALSTYLE
  5
F64
102
{ACAD_REACTORS
330
F58
102
}
330
F58
100
AcDbVisualStyle
  2
Brighten
 70
    12
177
     2
291
     1
 71
     2
176
     1
 72
     2
176
     1
 73
     0
176
     1
 90
        0
176
     1
 40
0.6
176
     1
 41
30.0
176
     1
 62
     5
 63
     7
421
 16777215
176
     1
 74
     1
176
     1
 91
        4
176
     1
 64
     7
176
     1
 65
   257
176
     1
 75
     1
176
     1
175
     1
176
     1
 42
1.0
176
     1
 92
        8
176
     1
 66
     7
176
     1
 43
1.0
176
     1
 76
     1
176
     1
 77
     6
176
     1
 78
     2
176
     1
 67
     7
176
     1
 79
     5
176
     1
170
     0
176
     1
171
     0
176
     1
290
     0
176
     1
 93
        1
176
     1
 44
50.0
176
     1
173
     0
176
     1
  0
VISUALSTYLE
  5
F68
102
{ACAD_REACTORS
330
F58
102
}
330
F58
100
AcDbVisualStyle
  2
ColorChange
 70
    16
177
     2
291
     1
 71
     2
176
     1
 72
     2
176
     1
 73
     3
176
     1
 90
        0
176
     1
 40
0.6
176
     1
 41
30.0
176
     1
 62
     5
 63
     8
421
  8421504
176
     1
 74
     1
176
     1
 91
        4
176
     1
 64
     7
176
     1
 65
   257
176
     1
 75
     1
176
     1
175
     1
176
     1
 42
1.0
176
     1
 92
        8
176
     1
 66
     8
424
  8421504
176
     1
 43
1.0
176
     1
 76
     1
176
     1
 77
     6
176
     1
 78
     2
176
     1
 67
     7
176
     1
 79
     5
176
     1
170
     0
176
     1
171
     0
176
     1
290
     0
176
     1
 93
        1
176
     1
 44
0.0
176
     1
173
     0
176
     1
  0
VISUALSTYLE
  5
F62
102
{ACAD_REACTORS
330
F58
102
}
330
F58
100
AcDbVisualStyle
  2
Conceptual
 70
     9
177
     2
291
     0
 71
     3
176
     1
 72
     2
176
     1
 73
     0
176
     1
 90
        0
176
     1
 40
0.6
176
     1
 41
30.0
176
     1
 62
     5
 63
     7
421
 16777215
176
     1
 74
     2
176
     1
 91
        2
176
     1
 64
     7
176
     1
 65
   257
176
     1
 75
     1
176
     1
175
     1
176
     1
 42
179.0
176
     1
 92
        8
176
     1
 66
     7
176
     1
 43
1.0
176
     1
 76
     1
176
     1
 77
     6
176
     1
 78
     2
176
     1
 67
     7
176
     1
 79
     3
176
     1
170
     0
176
     1
171
     0
176
     1
290
     0
176
     1
 93
        1
176
     1
 44
0.0
176
     1
173
     0
176
     1
  0
VISUALSTYLE
  5
F63
102
{ACAD_REACTORS
330
F58
102
}
330
F58
100
AcDbVisualStyle
  2
Dim
 70
    11
177
     2
291
     1
 71
     2
176
     1
 72
     2
176
     1
 73
     0
176
     1
 90
        0
176
     1
 40
0.6
176
     1
 41
30.0
176
     1
 62
     5
 63
     7
421
 16777215
176
     1
 74
     1
176
     1
 91
        4
176
     1
 64
     7
176
     1
 65
   257
176
     1
 75
     1
176
     1
175
     1
176
     1
 42
1.0
176
     1
 92
        8
176
     1
 66
     7
176
     1
 43
1.0
176
     1
 76
     1
176
     1
 77
     6
176
     1
 78
     2
176
     1
 67
     7
176
     1
 79
     5
176
     1
170
     0
176
     1
171
     0
176
     1
290
     0
176
     1
 93
        1
176
     1
 44
-50.0
176
     1
173
     0
176
     1
  0
VISUALSTYLE
  5
F6B
102
{ACAD_REACTORS
330
F58
102
}
330
F58
100
AcDbVisualStyle
  2
EdgeColorOff
 70
    22
177
     2
291
     1
 71
     2
176
     0
 72
     2
176
     0
 73
     0
176
     0
 90
        0
176
     0
 40
0.6
176
     0
 41
30.0
176
     0
 62
     5
 63
     7
421
 16777215
176
     0
 74
     1
176
     0
 91
        4
176
     0
 64
     7
176
     0
 65
   257
176
     0
 75
     1
176
     0
175
     1
176
     0
 42
1.0
176
     0
 92
        8
176
     2
 66
     7
176
     0
 43
1.0
176
     0
 76
     1
176
     0
 77
     6
176
     0
 78
     2
176
     0
 67
     7
176
     0
 79
     5
176
     0
170
     0
176
     0
171
     0
176
     0
290
     0
176
     0
 93
        1
176
     0
 44
0.0
176
     0
173
     0
176
     0
  0
VISUALSTYLE
  5
F67
102
{ACAD_REACTORS
330
F58
102
}
330
F58
100
AcDbVisualStyle
  2
Facepattern
 70
    15
177
     2
291
     1
 71
     2
176
     1
 72
     2
176
     1
 73
     0
176
     1
 90
        0
176
     1
 40
0.6
176
     1
 41
30.0
176
     1
 62
     5
 63
     7
421
 16777215
176
     1
 74
     1
176
     1
 91
        4
176
     1
 64
     7
176
     1
 65
   257
176
     1
 75
     1
176
     1
175
     1
176
     1
 42
1.0
176
     1
 92
        8
176
     1
 66
     7
176
     1
 43
1.0
176
     1
 76
     1
176
     1
 77
     6
176
     1
 78
     2
176
     1
 67
     7
176
     1
 79
     5
176
     1
170
     0
176
     1
171
     0
176
     1
290
     0
176
     1
 93
        1
176
     1
 44
0.0
176
     1
173
     0
176
     1
  0
VISUALSTYLE
  5
F59
102
{ACAD_REACTORS
330
F58
102
}
330
F58
100
AcDbVisualStyle
  2
Flat
 70
     0
177
     2
291
     1
 71
     2
176
     1
 72
     1
176
     1
 73
     1
176
     1
 90
        2
176
     1
 40
0.6
176
     1
 41
30.0
176
     1
 62
     5
 63
     7
421
 16777215
176
     1
 74
     0
176
     1
 91
        0
176
     1
 64
     7
176
     1
 65
   257
176
     1
 75
     1
176
     1
175
     1
176
     1
 42
1.0
176
     1
 92
        8
176
     1
 66
     7
176
     1
 43
1.0
176
     1
 76
     1
176
     1
 77
     6
176
     1
 78
     2
176
     1
 67
     7
176
     1
 79
     5
176
     1
170
     0
176
     1
171
     0
176
     1
290
     0
176
     1
 93
       13
176
     1
 44
0.0
176
     1
173
     0
176
     1
  0
VISUALSTYLE
  5
F5A
102
{ACAD_REACTORS
330
F58
102
}
330
F58
100
AcDbVisualStyle
  2
FlatWithEdges
 70
     1
177
     2
291
     1
 71
     2
176
     1
 72
     1
176
     1
 73
     1
176
     1
 90
        2
176
     1
 40
0.6
176
     1
 41
30.0
176
     1
 62
     5
 63
     7
421
 16777215
176
     1
 74
     1
176
     1
 91
        0
176
     1
 64
     7
176
     1
 65
   257
176
     1
 75
     1
176
     1
175
     1
176
     1
 42
1.0
176
     1
 92
        0
176
     1
 66
   257
176
     1
 43
1.0
176
     1
 76
     1
176
     1
 77
     6
176
     1
 78
     2
176
     1
 67
     7
176
     1
 79
     5
176
     1
170
     0
176
     1
171
     0
176
     1
290
     0
176
     1
 93
       13
176
     1
 44
0.0
176
     1
173
     0
176
     1
  0
VISUALSTYLE
  5
F5B
102
{ACAD_REACTORS
330
F58
102
}
330
F58
100
AcDbVisualStyle
  2
Gouraud
 70
     2
177
     2
291
     1
 71
     2
176
     1
 72
     2
176
     1
 73
     1
176
     1
 90
        2
176
     1
 40
0.6
176
     1
 41
30.0
176
     1
 62
     5
 63
     7
421
 16777215
176
     1
 74
     0
176
     1
 91
        0
176
     1
 64
     7
176
     1
 65
   257
176
     1
 75
     1
176
     1
175
     1
176
     1
 42
1.0
176
     1
 92
        0
176
     1
 66
     7
176
     1
 43
1.0
176
     1
 76
     1
176
     1
 77
     6
176
     1
 78
     2
176
     1
 67
     7
176
     1
 79
     5
176
     1
170
     0
176
     1
171
     0
176
     1
290
     0
176
     1
 93
       13
176
     1
 44
0.0
176
     1
173
     0
176
     1
  0
VISUALSTYLE
  5
F5C
102
{ACAD_REACTORS
330
F58
102
}
330
F58
100
AcDbVisualStyle
  2
GouraudWithEdges
 70
     3
177
     2
291
     1
 71
     2
176
     1
 72
     2
176
     1
 73
     1
176
     1
 90
        2
176
     1
 40
0.6
176
     1
 41
30.0
176
     1
 62
     5
 63
     7
421
 16777215
176
     1
 74
     1
176
     1
 91
        0
176
     1
 64
     7
176
     1
 65
   257
176
     1
 75
     1
176
     1
175
     1
176
     1
 42
1.0
176
     1
 92
        0
176
     1
 66
   257
176
     1
 43
1.0
176
     1
 76
     1
176
     1
 77
     6
176
     1
 78
     2
176
     1
 67
     7
176
     1
 79
     5
176
     1
170
     0
176
     1
171
     0
176
     1
290
     0
176
     1
 93
       13
176
     1
 44
0.0
176
     1
173
     0
176
     1
  0
VISUALSTYLE
  5
F5F
102
{ACAD_REACTORS
330
F58
102
}
330
F58
100
AcDbVisualStyle
  2
Hidden
 70
     6
177
     2
291
     0
 71
     1
176
     1
 72
     2
176
     1
 73
     2
176
     1
 90
        0
176
     1
 40
0.6
176
     1
 41
30.0
176
     1
 62
     5
 63
     7
421
 16777215
176
     1
 74
     2
176
     1
 91
        2
176
     1
 64
     7
176
     1
 65
   257
176
     1
 75
     2
176
     1
175
     1
176
     1
 42
40.0
176
     1
 92
        0
176
     1
 66
   257
176
     1
 43
1.0
176
     1
 76
     1
176
     1
 77
     6
176
     1
 78
     2
176
     1
 67
     7
176
     1
 79
     3
176
     1
170
     0
176
     1
171
     0
176
     1
290
     0
176
     1
 93
        1
176
     1
 44
0.0
176
     1
173
     0
176
     1
  0
VISUALSTYLE
  5
F69
102
{ACAD_REACTORS
330
F58
102
}
330
F58
100
AcDbVisualStyle
  2
JitterOff
 70
    20
177
     2
291
     1
 71
     2
176
     0
 72
     2
176
     0
 73
     0
176
     0
 90
        0
176
     0
 40
0.6
176
     0
 41
30.0
176
     0
 62
     5
 63
     7
421
 16777215
176
     0
 74
     1
176
     0
 91
        4
176
     0
 64
     7
176
     0
 65
   257
176
     0
 75
     1
176
     0
175
     1
176
     0
 42
1.0
176
     0
 92
       10
176
     2
 66
     7
176
     0
 43
1.0
176
     0
 76
     1
176
     0
 77
     6
176
     0
 78
     2
176
     0
 67
     7
176
     0
 79
     5
176
     0
170
     0
176
     0
171
     0
176
     0
290
     0
176
     0
 93
        1
176
     0
 44
0.0
176
     0
173
     0
176
     0
  0
VISUALSTYLE
  5
F66
102
{ACAD_REACTORS
330
F58
102
}
330
F58
100
AcDbVisualStyle
  2
Linepattern
 70
    14
177
     2
291
     1
 71
     2
176
     1
 72
     2
176
     1
 73
     0
176
     1
 90
        0
176
     1
 40
0.6
176
     1
 41
30.0
176
     1
 62
     5
 63
     7
421
 16777215
176
     1
 74
     1
176
     1
 91
        4
176
     1
 64
     7
176
     1
 65
   257
176
     1
 75
     7
176
     1
175
     7
176
     1
 42
1.0
176
     1
 92
        8
176
     1
 66
     7
176
     1
 43
1.0
176
     1
 76
     1
176
     1
 77
     6
176
     1
 78
     2
176
     1
 67
     7
176
     1
 79
     5
176
     1
170
     0
176
     1
171
     0
176
     1
290
     0
176
     1
 93
        1
176
     1
 44
0.0
176
     1
173
     0
176
     1
  0
VISUALSTYLE
  5
F6A
102
{ACAD_REACTORS
330
F58
102
}
330
F58
100
AcDbVisualStyle
  2
OverhangOff
 70
    21
177
     2
291
     1
 71
     2
176
     0
 72
     2
176
     0
 73
     0
176
     0
 90
        0
176
     0
 40
0.6
176
     0
 41
30.0
176
     0
 62
     5
 63
     7
421
 16777215
176
     0
 74
     1
176
     0
 91
        4
176
     0
 64
     7
176
     0
 65
   257
176
     0
 75
     1
176
     0
175
     1
176
     0
 42
1.0
176
     0
 92
        9
176
     2
 66
     7
176
     0
 43
1.0
176
     0
 76
     1
176
     0
 77
     6
176
     0
 78
     2
176
     0
 67
     7
176
     0
 79
     5
176
     0
170
     0
176
     0
171
     0
176
     0
290
     0
176
     0
 93
        1
176
     0
 44
0.0
176
     0
173
     0
176
     0
  0
VISUALSTYLE
  5
F61
102
{ACAD_REACTORS
330
F58
102
}
330
F58
100
AcDbVisualStyle
  2
Realistic
 70
     8
177
     2
291
     0
 71
     2
176
     1
 72
     3
176
     1
 73
     0
176
     1
 90
        2
176
     1
 40
0.6
176
     1
 41
30.0
176
     1
 62
     5
 63
     7
421
 16777215
176
     1
 74
     0
176
     1
 91
        0
176
     1
 64
     7
176
     1
 65
   257
176
     1
 75
     1
176
     1
175
     1
176
     1
 42
1.0
176
     1
 92
        8
176
     1
 66
   257
176
     1
 43
1.0
176
     1
 76
     1
176
     1
 77
     6
176
     1
 78
     2
176
     1
 67
     7
176
     1
 79
     3
176
     1
170
     0
176
     1
171
     0
176
     1
290
     0
176
     1
 93
       13
176
     1
 44
0.0
176
     1
173
     0
176
     1
  0
VISUALSTYLE
  5
F70
102
{ACAD_REACTORS
330
F58
102
}
330
F58
100
AcDbVisualStyle
  2
Shaded
 70
    27
177
     2
291
     0
 71
     2
176
     1
 72
     2
176
     1
 73
     1
176
     1
 90
        2
176
     1
 40
0.6
176
     1
 41
30.0
176
     1
 62
     5
 63
     7
421
 16777215
176
     1
 74
     0
176
     1
 91
        4
176
     1
 64
     7
176
     1
 65
   257
176
     1
 75
     1
176
     1
175
     1
176
     1
 42
1.0
176
     1
 92
        8
176
     1
 66
   257
176
     1
 43
1.0
176
     1
 76
     1
176
     1
 77
     6
176
     1
 78
     2
176
     1
 67
     8
425
  7895160
176
     1
 79
     3
176
     1
170
     0
176
     1
171
     0
176
     1
290
     0
176
     1
 93
        5
176
     1
 44
0.0
176
     1
173
     0
176
     1
  0
VISUALSTYLE
  5
F6F
102
{ACAD_REACTORS
330
F58
102
}
330
F58
100
AcDbVisualStyle
  2
Shaded with edges
 70
    26
177
     2
291
     0
 71
     2
176
     1
 72
     2
176
     1
 73
     1
176
     1
 90
        2
176
     1
 40
0.6
176
     1
 41
30.0
176
     1
 62
     5
 63
     7
421
 16777215
176
     1
 74
     1
176
     1
 91
       10
176
     1
 64
     7
176
     1
 65
   257
176
     1
 75
     2
176
     1
175
     1
176
     1
 42
1.0
176
     1
 92
        8
176
     1
 66
   257
176
     1
 43
1.0
176
     1
 76
     1
176
     1
 77
     6
176
     1
 78
     2
176
     1
 67
     7
176
     1
 79
     3
176
     1
170
     0
176
     1
171
     0
176
     1
290
     0
176
     1
 93
        5
176
     1
 44
0.0
176
     1
173
     0
176
     1
  0
VISUALSTYLE
  5
F6C
102
{ACAD_REACTORS
330
F58
102
}
330
F58
100
AcDbVisualStyle
  2
Shades of Gray
 70
    23
177
     2
291
     0
 71
     2
176
     1
 72
     2
176
     1
 73
     3
176
     1
 90
        0
176
     1
 40
0.6
176
     1
 41
30.0
176
     1
 62
     5
 63
     7
421
 16777215
176
     1
 74
     2
176
     1
 91
        2
176
     1
 64
     7
176
     1
 65
     7
176
     1
 75
     1
176
     1
175
     1
176
     1
 42
40.0
176
     1
 92
        8
176
     1
 66
     7
176
     1
 43
1.0
176
     1
 76
     1
176
     1
 77
     6
176
     1
 78
     2
176
     1
 67
     7
176
     1
 79
     3
176
     1
170
     0
176
     1
171
     0
176
     1
290
     0
176
     1
 93
        1
176
     1
 44
0.0
176
     1
173
     0
176
     1
  0
VISUALSTYLE
  5
F6D
102
{ACAD_REACTORS
330
F58
102
}
330
F58
100
AcDbVisualStyle
  2
Sketchy
 70
    24
177
     2
291
     0
 71
     1
176
     1
 72
     2
176
     1
 73
     2
176
     1
 90
        0
176
     1
 40
0.6
176
     1
 41
30.0
176
     1
 62
     5
 63
     7
421
 16777215
176
     1
 74
     2
176
     1
 91
        2
176
     1
 64
     7
176
     1
 65
     7
176
     1
 75
     1
176
     1
175
     1
176
     1
 42
40.0
176
     1
 92
       11
176
     1
 66
     7
176
     1
 43
1.0
176
     1
 76
     1
176
     1
 77
     6
176
     1
 78
     2
176
     1
 67
     7
176
     1
 79
     6
176
     1
170
     0
176
     1
171
     0
176
     1
290
     0
176
     1
 93
        1
176
     1
 44
0.0
176
     1
173
     0
176
     1
  0
VISUALSTYLE
  5
F65
102
{ACAD_REACTORS
330
F58
102
}
330
F58
100
AcDbVisualStyle
  2
Thicken
 70
    13
177
     2
291
     1
 71
     2
176
     1
 72
     2
176
     1
 73
     0
176
     1
 90
        0
176
     1
 40
0.6
176
     1
 41
30.0
176
     1
 62
     5
 63
     7
421
 16777215
176
     1
 74
     1
176
     1
 91
        4
176
     1
 64
     7
176
     1
 65
   257
176
     1
 75
     1
176
     1
175
     1
176
     1
 42
1.0
176
     1
 92
       12
176
     1
 66
     7
176
     1
 43
1.0
176
     1
 76
     1
176
     1
 77
     6
176
     1
 78
     2
176
     1
 67
     7
176
     1
 79
     5
176
     1
170
     0
176
     1
171
     0
176
     1
290
     0
176
     1
 93
        1
176
     1
 44
0.0
176
     1
173
     0
176
     1
  0
VISUALSTYLE
  5
F5E
102
{ACAD_REACTORS
330
F58
102
}
330
F58
100
AcDbVisualStyle
  2
Wireframe
 70
     5
177
     2
291
     0
 71
     0
176
     1
 72
     2
176
     1
 73
     0
176
     1
 90
        0
176
     1
 40
0.6
176
     1
 41
30.0
176
     1
 62
     5
 63
     7
421
 16777215
176
     1
 74
     1
176
     1
 91
        4
176
     1
 64
     7
176
     1
 65
   257
176
     1
 75
     1
176
     1
175
     1
176
     1
 42
1.0
176
     1
 92
        0
176
     1
 66
   257
176
     1
 43
1.0
176
     1
 76
     1
176
     1
 77
     6
176
     1
 78
     2
176
     1
 67
     7
176
     1
 79
     3
176
     1
170
     0
176
     1
171
     0
176
     1
290
     0
176
     1
 93
        1
176
     1
 44
0.0
176
     1
173
     0
176
     1
  0
VISUALSTYLE
  5
F6E
102
{ACAD_REACTORS
330
F58
102
}
330
F58
100
AcDbVisualStyle
  2
X-Ray
 70
    25
177
     2
291
     0
 71
     2
176
     1
 72
     2
176
     1
 73
     1
176
     1
 90
        1
176
     1
 40
0.5
176
     1
 41
30.0
176
     1
 62
     5
 63
     7
421
 16777215
176
     1
 74
     1
176
     1
 91
        0
176
     1
 64
     7
176
     1
 65
   257
176
     1
 75
     1
176
     1
175
     1
176
     1
 42
1.0
176
     1
 92
        8
176
     1
 66
     7
176
     1
 43
1.0
176
     1
 76
     1
176
     1
 77
     6
176
     1
 78
     2
176
     1
 67
     7
176
     1
 79
     3
176
     1
170
     0
176
     1
171
     0
176
     1
290
     0
176
     1
 93
       13
176
     1
 44
0.0
176
     1
173
     0
176
     1
  0
DICTIONARYVAR
  5
F89
102
{ACAD_REACTORS
330
E3F
102
}
330
E3F
100
DictionaryVariables
280
     0
  1
1:1
  0
DICTIONARYVAR
  5
F8E
102
{ACAD_REACTORS
330
E3F
102
}
330
E3F
100
DictionaryVariables
280
     0
  1
Standard
  0
DICTIONARYVAR
  5
F8D
102
{ACAD_REACTORS
330
E3F
102
}
330
E3F
100
DictionaryVariables
280
     0
  1
Standard
  0
DICTIONARYVAR
  5
F8F
102
{ACAD_REACTORS
330
E3F
102
}
330
E3F
100
DictionaryVariables
280
     0
  1
0
  0
XRECORD
  5
DFD
102
{ACAD_REACTORS
330
DF8
102
}
330
DF8
100
AcDbXrecord
280
     1
1000
auto
  0
XRECORD
  5
DFE
102
{ACAD_REACTORS
330
DF8
102
}
330
DF8
100
AcDbXrecord
280
     1
1000
auto
  0
XRECORD
  5
DFF
102
{ACAD_REACTORS
330
DF8
102
}
330
DF8
100
AcDbXrecord
280
     1
1000
auto
  0
XRECORD
  5
E00
102
{ACAD_REACTORS
330
DF8
102
}
330
DF8
100
AcDbXrecord
280
     1
1000
auto
  0
XRECORD
  5
E01
102
{ACAD_REACTORS
330
DF8
102
}
330
DF8
100
AcDbXrecord
280
     1
1000
auto
  0
XRECORD
  5
E02
102
{ACAD_REACTORS
330
DF8
102
}
330
DF8
100
AcDbXrecord
280
     1
1000
auto
  0
XRECORD
  5
E03
102
{ACAD_REACTORS
330
DF8
102
}
330
DF8
100
AcDbXrecord
280
     1
1000
auto
  0
XRECORD
  5
E04
102
{ACAD_REACTORS
330
DF8
102
}
330
DF8
100
AcDbXrecord
280
     1
1000
auto
  0
XRECORD
  5
E09
102
{ACAD_REACTORS
330
DF8
102
}
330
DF8
100
AcDbXrecord
280
     1
 90
        0
  0
XRECORD
  5
E0A
102
{ACAD_REACTORS
330
DF8
102
}
330
DF8
100
AcDbXrecord
280
     1
 90
        0
  0
XRECORD
  5
E0B
102
{ACAD_REACTORS
330
DF8
102
}
330
DF8
100
AcDbXrecord
280
     1
 90
        0
  0
XRECORD
  5
E0C
102
{ACAD_REACTORS
330
DF8
102
}
330
DF8
100
AcDbXrecord
280
     1
 90
        0
  0
XRECORD
  5
E0D
102
{ACAD_REACTORS
330
DF8
102
}
330
DF8
100
AcDbXrecord
280
     1
1000
auto
  0
XRECORD
  5
E0E
102
{ACAD_REACTORS
330
DF8
102
}
330
DF8
100
AcDbXrecord
280
     1
1000
auto
  0
XRECORD
  5
E0F
102
{ACAD_REACTORS
330
DF8
102
}
330
DF8
100
AcDbXrecord
280
     1
1000
auto
  0
XRECORD
  5
E10
102
{ACAD_REACTORS
330
DF8
102
}
330
DF8
100
AcDbXrecord
280
     1
1000
auto
  0
XRECORD
  5
E11
102
{ACAD_REACTORS
330
DF8
102
}
330
DF8
100
AcDbXrecord
280
     1
1000
auto
  0
XRECORD
  5
E12
102
{ACAD_REACTORS
330
DF8
102
}
330
DF8
100
AcDbXrecord
280
     1
1000
auto
  0
XRECORD
  5
E13
102
{ACAD_REACTORS
330
DF8
102
}
330
DF8
100
AcDbXrecord
280
     1
1000
auto
  0
XRECORD
  5
E14
102
{ACAD_REACTORS
330
DF8
102
}
330
DF8
100
AcDbXrecord
280
     1
1000
auto
  0
XRECORD
  5
E15
102
{ACAD_REACTORS
330
DF8
102
}
330
DF8
100
AcDbXrecord
280
     1
 90
        1
  0
XRECORD
  5
E17
102
{ACAD_REACTORS
330
DF8
102
}
330
DF8
100
AcDbXrecord
280
     1
 40
10.0
  0
XRECORD
  5
E18
102
{ACAD_REACTORS
330
DF8
102
}
330
DF8
100
AcDbXrecord
280
     1
 40
10.0
  0
XRECORD
  5
E19
102
{ACAD_REACTORS
330
DF8
102
}
330
DF8
100
AcDbXrecord
280
     1
 40
10.0
  0
XRECORD
  5
E16
102
{ACAD_REACTORS
330
DF8
102
}
330
DF8
100
AcDbXrecord
280
     1
 40
10.0
  0
XRECORD
  5
E1B
102
{ACAD_REACTORS
330
DF8
102
}
330
DF8
100
AcDbXrecord
280
     1
 90
        1
  0
XRECORD
  5
E1C
102
{ACAD_REACTORS
330
DF8
102
}
330
DF8
100
AcDbXrecord
280
     1
 40
0.0
  0
XRECORD
  5
E1D
102
{ACAD_REACTORS
330
DF8
102
}
330
DF8
100
AcDbXrecord
280
     1
 40
0.0
  0
XRECORD
  5
E1E
102
{ACAD_REACTORS
330
DF8
102
}
330
DF8
100
AcDbXrecord
280
     1
1000
Portrait
  0
XRECORD
  5
E1F
102
{ACAD_REACTORS
330
DF8
102
}
330
DF8
100
AcDbXrecord
280
     1
 40
279.4
  0
XRECORD
  5
E20
102
{ACAD_REACTORS
330
DF8
102
}
330
DF8
100
AcDbXrecord
280
     1
 40
215.9
  0
XRECORD
  5
E21
102
{ACAD_REACTORS
330
DF8
102
}
330
DF8
100
AcDbXrecord
280
     1
1000
1:1
  0
XRECORD
  5
E23
102
{ACAD_REACTORS
330
DF8
102
}
330
DF8
100
AcDbXrecord
280
     1
 90
        4
  0
DICTIONARY
  5
F96
330
F76
100
AcDbDictionary
280
     1
281
     1
  3
ACAD_ROUNDTRIP_2008_TABLESTYLE_CELLSTYLEMAP
360
F97
  0
CELLSTYLEMAP
  5
F97
102
{ACAD_REACTORS
330
F96
102
}
330
F96
100
AcDbCellStyleMap
 90
        3
300
CELLSTYLE
  1
TABLEFORMAT_BEGIN
 90
        5
170
     1
 91
        0
 92
    32768
 62
   257
 93
        1
300
CONTENTFORMAT
  1
CONTENTFORMAT_BEGIN
 90
        0
 91
        0
 92
        4
 93
        0
300

 40
0.0
140
1.0
 94
        5
 62
     0
340
D9F
144
6.0
309
CONTENTFORMAT_END
171
     1
301
MARGIN
  1
CELLMARGIN_BEGIN
 40
1.5
 40
1.5
 40
1.5
 40
1.5
 40
1.5
 40
1.5
309
CELLMARGIN_END
 94
        6
 95
        1
302
GRIDFORMAT
  1
GRIDFORMAT_BEGIN
 90
        0
 91
        1
 62
     0
 92
       -2
340
DA1
 93
        0
 40
0.045
309
GRIDFORMAT_END
 95
        2
302
GRIDFORMAT
  1
GRIDFORMAT_BEGIN
 90
        0
 91
        1
 62
     0
 92
       -2
340
DA1
 93
        0
 40
0.045
309
GRIDFORMAT_END
 95
        4
302
GRIDFORMAT
  1
GRIDFORMAT_BEGIN
 90
        0
 91
        1
 62
     0
 92
       -2
340
DA1
 93
        0
 40
0.045
309
GRIDFORMAT_END
 95
        8
302
GRIDFORMAT
  1
GRIDFORMAT_BEGIN
 90
        0
 91
        1
 62
     0
 92
       -2
340
DA1
 93
        0
 40
0.045
309
GRIDFORMAT_END
 95
       16
302
GRIDFORMAT
  1
GRIDFORMAT_BEGIN
 90
        0
 91
        1
 62
     0
 92
       -2
340
DA1
 93
        0
 40
0.045
309
GRIDFORMAT_END
 95
       32
302
GRIDFORMAT
  1
GRIDFORMAT_BEGIN
 90
        0
 91
        1
 62
     0
 92
       -2
340
DA1
 93
        0
 40
0.045
309
GRIDFORMAT_END
309
TABLEFORMAT_END
  1
CELLSTYLE_BEGIN
 90
        1
 91
        1
300
_TITLE
309
CELLSTYLE_END
300
CELLSTYLE
  1
TABLEFORMAT_BEGIN
 90
        5
170
     1
 91
        0
 92
        0
 62
   257
 93
        1
300
CONTENTFORMAT
  1
CONTENTFORMAT_BEGIN
 90
        0
 91
        0
 92
        4
 93
        0
300

 40
0.0
140
1.0
 94
        5
 62
     0
340
D9F
144
4.5
309
CONTENTFORMAT_END
171
     1
301
MARGIN
  1
CELLMARGIN_BEGIN
 40
1.5
 40
1.5
 40
1.5
 40
1.5
 40
1.5
 40
1.5
309
CELLMARGIN_END
 94
        6
 95
        1
302
GRIDFORMAT
  1
GRIDFORMAT_BEGIN
 90
        0
 91
        1
 62
     0
 92
       -2
340
DA1
 93
        0
 40
0.045
309
GRIDFORMAT_END
 95
        2
302
GRIDFORMAT
  1
GRIDFORMAT_BEGIN
 90
        0
 91
        1
 62
     0
 92
       -2
340
DA1
 93
        0
 40
0.045
309
GRIDFORMAT_END
 95
        4
302
GRIDFORMAT
  1
GRIDFORMAT_BEGIN
 90
        0
 91
        1
 62
     0
 92
       -2
340
DA1
 93
        0
 40
0.045
309
GRIDFORMAT_END
 95
        8
302
GRIDFORMAT
  1
GRIDFORMAT_BEGIN
 90
        0
 91
        1
 62
     0
 92
       -2
340
DA1
 93
        0
 40
0.045
309
GRIDFORMAT_END
 95
       16
302
GRIDFORMAT
  1
GRIDFORMAT_BEGIN
 90
        0
 91
        1
 62
     0
 92
       -2
340
DA1
 93
        0
 40
0.045
309
GRIDFORMAT_END
 95
       32
302
GRIDFORMAT
  1
GRIDFORMAT_BEGIN
 90
        0
 91
        1
 62
     0
 92
       -2
340
DA1
 93
        0
 40
0.045
309
GRIDFORMAT_END
309
TABLEFORMAT_END
  1
CELLSTYLE_BEGIN
 90
        2
 91
        1
300
_HEADER
309
CELLSTYLE_END
300
CELLSTYLE
  1
TABLEFORMAT_BEGIN
 90
        5
170
     1
 91
        0
 92
        0
 62
   257
 93
        1
300
CONTENTFORMAT
  1
CONTENTFORMAT_BEGIN
 90
        0
 91
        0
 92
        4
 93
        0
300

 40
0.0
140
1.0
 94
        2
 62
     0
340
D9F
144
4.5
309
CONTENTFORMAT_END
171
     1
301
MARGIN
  1
CELLMARGIN_BEGIN
 40
1.5
 40
1.5
 40
1.5
 40
1.5
 40
1.5
 40
1.5
309
CELLMARGIN_END
 94
        6
 95
        1
302
GRIDFORMAT
  1
GRIDFORMAT_BEGIN
 90
        0
 91
        1
 62
     0
 92
       -2
340
DA1
 93
        0
 40
0.045
309
GRIDFORMAT_END
 95
        2
302
GRIDFORMAT
  1
GRIDFORMAT_BEGIN
 90
        0
 91
        1
 62
     0
 92
       -2
340
DA1
 93
        0
 40
0.045
309
GRIDFORMAT_END
 95
        4
302
GRIDFORMAT
  1
GRIDFORMAT_BEGIN
 90
        0
 91
        1
 62
     0
 92
       -2
340
DA1
 93
        0
 40
0.045
309
GRIDFORMAT_END
 95
        8
302
GRIDFORMAT
  1
GRIDFORMAT_BEGIN
 90
        0
 91
        1
 62
     0
 92
       -2
340
DA1
 93
        0
 40
0.045
309
GRIDFORMAT_END
 95
       16
302
GRIDFORMAT
  1
GRIDFORMAT_BEGIN
 90
        0
 91
        1
 62
     0
 92
       -2
340
DA1
 93
        0
 40
0.045
309
GRIDFORMAT_END
 95
       32
302
GRIDFORMAT
  1
GRIDFORMAT_BEGIN
 90
        0
 91
        1
 62
     0
 92
       -2
340
DA1
 93
        0
 40
0.045
309
GRIDFORMAT_END
309
TABLEFORMAT_END
  1
CELLSTYLE_BEGIN
 90
        3
 91
        2
300
_DATA
309
CELLSTYLE_END
  0
ENDSEC
  0
EOF
