  0
SECTION
  2
HEADER
  9
$ACADVER
  1
AC1027
  9
$ACADMAINTVER
 70
   105
  9
$DWGCODEPAGE
  3
ANSI_1252
  9
$LASTSAVEDBY
  1
manfred
  9
$REQUIREDVERSIONS
160
                 0
  9
$INSBASE
 10
0.0
 20
0.0
 30
0.0
  9
$EXTMIN
 10
-15.494417555139
 20
29.167718249205
 30
0.0
  9
$EXTMAX
 10
100.181789848915
 20
87.525080349821
 30
0.0
  9
$LIMMIN
 10
0.0
 20
0.0
  9
$LIMMAX
 10
420.0
 20
297.0
  9
$ORTHOMODE
 70
     0
  9
$REGENMODE
 70
     1
  9
$FILLMODE
 70
     1
  9
$QTEXTMODE
 70
     0
  9
$MIRRTEXT
 70
     1
  9
$LTSCALE
 40
1.0
  9
$ATTMODE
 70
     1
  9
$TEXTSIZE
 40
2.5
  9
$TRACEWID
 40
1.0
  9
$TEXTSTYLE
  7
Standard
  9
$CLAYER
  8
0
  9
$CELTYPE
  6
ByLayer
  9
$CECOLOR
 62
   256
  9
$CELTSCALE
 40
1.0
  9
$DISPSILH
 70
     0
  9
$DIMSCALE
 40
1.0
  9
$DIMASZ
 40
2.5
  9
$DIMEXO
 40
0.625
  9
$DIMDLI
 40
3.75
  9
$DIMRND
 40
0.0
  9
$DIMDLE
 40
0.0
  9
$DIMEXE
 40
1.25
  9
$DIMTP
 40
0.0
  9
$DIMTM
 40
0.0
  9
$DIMTXT
 40
2.5
  9
$DIMCEN
 40
2.5
  9
$DIMTSZ
 40
0.0
  9
$DIMTOL
 70
     0
  9
$DIMLIM
 70
     0
  9
$DIMTIH
 70
     0
  9
$DIMTOH
 70
     0
  9
$DIMSE1
 70
     0
  9
$DIMSE2
 70
     0
  9
$DIMTAD
 70
     1
  9
$DIMZIN
 70
     8
  9
$DIMBLK
  1

  9
$DIMASO
 70
     1
  9
$DIMSHO
 70
     1
  9
$DIMPOST
  1

  9
$DIMAPOST
  1

  9
$DIMALT
 70
     0
  9
$DIMALTD
 70
     3
  9
$DIMALTF
 40
0.03937007874
  9
$DIMLFAC
 40
1.0
  9
$DIMTOFL
 70
     1
  9
$DIMTVP
 40
0.0
  9
$DIMTIX
 70
     0
  9
$DIMSOXD
 70
     0
  9
$DIMSAH
 70
     0
  9
$DIMBLK1
  1

  9
$DIMBLK2
  1

  9
$DIMSTYLE
  2
Standard
  9
$DIMCLRD
 70
     0
  9
$DIMCLRE
 70
     0
  9
$DIMCLRT
 70
     0
  9
$DIMTFAC
 40
1.0
  9
$DIMGAP
 40
0.625
  9
$DIMJUST
 70
     0
  9
$DIMSD1
 70
     0
  9
$DIMSD2
 70
     0
  9
$DIMTOLJ
 70
     0
  9
$DIMTZIN
 70
     8
  9
$DIMALTZ
 70
     0
  9
$DIMALTTZ
 70
     0
  9
$DIMUPT
 70
     0
  9
$DIMDEC
 70
     2
  9
$DIMTDEC
 70
     2
  9
$DIMALTU
 70
     2
  9
$DIMALTTD
 70
     3
  9
$DIMTXSTY
  7
Standard
  9
$DIMAUNIT
 70
     0
  9
$DIMADEC
 70
     0
  9
$DIMALTRND
 40
0.0
  9
$DIMAZIN
 70
     0
  9
$DIMDSEP
 70
    44
  9
$DIMATFIT
 70
     3
  9
$DIMFRAC
 70
     0
  9
$DIMLDRBLK
  1

  9
$DIMLUNIT
 70
     2
  9
$DIMLWD
 70
    -2
  9
$DIMLWE
 70
    -2
  9
$DIMTMOVE
 70
     0
  9
$DIMFXL
 40
1.0
  9
$DIMFXLON
 70
     0
  9
$DIMJOGANG
 40
0.785398163397
  9
$DIMTFILL
 70
     0
  9
$DIMTFILLCLR
 70
     0
  9
$DIMARCSYM
 70
     0
  9
$DIMLTYPE
  6

  9
$DIMLTEX1
  6

  9
$DIMLTEX2
  6

  9
$DIMTXTDIRECTION
 70
     0
  9
$LUNITS
 70
     2
  9
$LUPREC
 70
     4
  9
$SKETCHINC
 40
1.0
  9
$FILLETRAD
 40
10.0
  9
$AUNITS
 70
     0
  9
$AUPREC
 70
     2
  9
$MENU
  1
.
  9
$ELEVATION
 40
0.0
  9
$PELEVATION
 40
0.0
  9
$THICKNESS
 40
0.0
  9
$LIMCHECK
 70
     0
  9
$CHAMFERA
 40
0.0
  9
$CHAMFERB
 40
0.0
  9
$CHAMFERC
 40
0.0
  9
$CHAMFERD
 40
0.0
  9
$SKPOLY
 70
     0
  9
$TDCREATE
 40
2458532.195663553
  9
$TDUCREATE
 40
2458532.153996887
  9
$TDUPDATE
 40
2459264.219693553
  9
$TDUUPDATE
 40
2459264.178026887
  9
$TDINDWG
 40
0.0
  9
$TDUSRTIMER
 40
0.0
  9
$USRTIMER
 70
     1
  9
$ANGBASE
 50
0.0
  9
$ANGDIR
 70
     0
  9
$PDMODE
 70
     0
  9
$PDSIZE
 40
0.0
  9
$PLINEWID
 40
0.0
  9
$SPLFRAME
 70
     0
  9
$SPLINETYPE
 70
     6
  9
$SPLINESEGS
 70
     8
  9
$HANDSEED
  5
1057
  9
$SURFTAB1
 70
     6
  9
$SURFTAB2
 70
     6
  9
$SURFTYPE
 70
     6
  9
$SURFU
 70
     6
  9
$SURFV
 70
     6
  9
$UCSBASE
  2

  9
$UCSNAME
  2

  9
$UCSORG
 10
0.0
 20
0.0
 30
0.0
  9
$UCSXDIR
 10
1.0
 20
0.0
 30
0.0
  9
$UCSYDIR
 10
0.0
 20
1.0
 30
0.0
  9
$UCSORTHOREF
  2

  9
$UCSORTHOVIEW
 70
     0
  9
$UCSORGTOP
 10
0.0
 20
0.0
 30
0.0
  9
$UCSORGBOTTOM
 10
0.0
 20
0.0
 30
0.0
  9
$UCSORGLEFT
 10
0.0
 20
0.0
 30
0.0
  9
$UCSORGRIGHT
 10
0.0
 20
0.0
 30
0.0
  9
$UCSORGFRONT
 10
0.0
 20
0.0
 30
0.0
  9
$UCSORGBACK
 10
0.0
 20
0.0
 30
0.0
  9
$PUCSBASE
  2

  9
$PUCSNAME
  2

  9
$PUCSORG
 10
0.0
 20
0.0
 30
0.0
  9
$PUCSXDIR
 10
1.0
 20
0.0
 30
0.0
  9
$PUCSYDIR
 10
0.0
 20
1.0
 30
0.0
  9
$PUCSORTHOREF
  2

  9
$PUCSORTHOVIEW
 70
     0
  9
$PUCSORGTOP
 10
0.0
 20
0.0
 30
0.0
  9
$PUCSORGBOTTOM
 10
0.0
 20
0.0
 30
0.0
  9
$PUCSORGLEFT
 10
0.0
 20
0.0
 30
0.0
  9
$PUCSORGRIGHT
 10
0.0
 20
0.0
 30
0.0
  9
$PUCSORGFRONT
 10
0.0
 20
0.0
 30
0.0
  9
$PUCSORGBACK
 10
0.0
 20
0.0
 30
0.0
  9
$USERI1
 70
     0
  9
$USERI2
 70
     0
  9
$USERI3
 70
     0
  9
$USERI4
 70
     0
  9
$USERI5
 70
     0
  9
$USERR1
 40
0.0
  9
$USERR2
 40
0.0
  9
$USERR3
 40
0.0
  9
$USERR4
 40
0.0
  9
$USERR5
 40
0.0
  9
$WORLDVIEW
 70
     1
  9
$SHADEDGE
 70
     3
  9
$SHADEDIF
 70
    70
  9
$TILEMODE
 70
     1
  9
$MAXACTVP
 70
    64
  9
$PINSBASE
 10
0.0
 20
0.0
 30
0.0
  9
$PLIMCHECK
 70
     0
  9
$PEXTMIN
 10
1.000000000000E+20
 20
1.000000000000E+20
 30
1.000000000000E+20
  9
$PEXTMAX
 10
-1.000000000000E+20
 20
-1.000000000000E+20
 30
-1.000000000000E+20
  9
$PLIMMIN
 10
0.0
 20
0.0
  9
$PLIMMAX
 10
420.0
 20
297.0
  9
$UNITMODE
 70
     0
  9
$VISRETAIN
 70
     1
  9
$PLINEGEN
 70
     0
  9
$PSLTSCALE
 70
     1
  9
$TREEDEPTH
 70
  3020
  9
$CMLSTYLE
  2
Standard
  9
$CMLJUST
 70
     0
  9
$CMLSCALE
 40
20.0
  9
$PROXYGRAPHICS
 70
     1
  9
$MEASUREMENT
 70
     1
  9
$CELWEIGHT
370
    -1
  9
$ENDCAPS
280
     0
  9
$JOINSTYLE
280
     0
  9
$LWDISPLAY
290
     0
  9
$INSUNITS
 70
     6
  9
$HYPERLINKBASE
  1

  9
$STYLESHEET
  1

  9
$XEDIT
290
     1
  9
$CEPSNTYPE
380
     0
  9
$PSTYLEMODE
290
     1
  9
$FINGERPRINTGUID
  2
1EDDA5D9-6206-11EB-A960-1803733EFA49
  9
$VERSIONGUID
  2
1F3ED8E5-6206-11EB-AD03-1803733EFA49
  9
$EXTNAMES
290
     1
  9
$PSVPSCALE
 40
0.0
  9
$OLESTARTUP
290
     0
  9
$SORTENTS
280
   127
  9
$INDEXCTL
280
     0
  9
$HIDETEXT
280
     1
  9
$XCLIPFRAME
280
     1
  9
$HALOGAP
280
     0
  9
$OBSCOLOR
 70
   257
  9
$OBSLTYPE
280
     0
  9
$INTERSECTIONDISPLAY
280
     0
  9
$INTERSECTIONCOLOR
 70
   257
  9
$DIMASSOC
280
     2
  9
$PROJECTNAME
  1

  9
$CAMERADISPLAY
290
     0
  9
$LENSLENGTH
 40
50.0
  9
$CAMERAHEIGHT
 40
0.0
  9
$STEPSPERSEC
 40
24.0
  9
$STEPSIZE
 40
2.0
  9
$3DDWFPREC
 40
2.0
  9
$PSOLWIDTH
 40
0.25
  9
$PSOLHEIGHT
 40
4.0
  9
$LOFTANG1
 40
1.570796326795
  9
$LOFTANG2
 40
1.570796326795
  9
$LOFTMAG1
 40
0.0
  9
$LOFTMAG2
 40
0.0
  9
$LOFTPARAM
 70
     7
  9
$LOFTNORMALS
280
     1
  9
$LATITUDE
 40
37.795
  9
$LONGITUDE
 40
-122.394
  9
$NORTHDIRECTION
 40
0.0
  9
$TIMEZONE
 70
 -8000
  9
$LIGHTGLYPHDISPLAY
280
     1
  9
$TILEMODELIGHTSYNCH
280
     1
  9
$CMATERIAL
347
20
  9
$SOLIDHIST
280
     0
  9
$SHOWHIST
280
     1
  9
$DWFFRAME
280
     2
  9
$DGNFRAME
280
     2
  9
$REALWORLDSCALE
290
     1
  9
$INTERFERECOLOR
 62
   256
  9
$CSHADOW
280
     0
  9
$SHADOWPLANELOCATION
 40
0.0
  0
ENDSEC
  0
SECTION
  2
CLASSES
  0
CLASS
  1
ACDBDICTIONARYWDFLT
  2
AcDbDictionaryWithDefault
  3
ObjectDBX Classes
 90
        0
 91
        3
280
     0
281
     0
  0
CLASS
  1
SUN
  2
AcDbSun
  3
SCENEOE
 90
     1153
 91
        3
280
     0
281
     0
  0
CLASS
  1
VISUALSTYLE
  2
AcDbVisualStyle
  3
ObjectDBX Classes
 90
     4095
 91
        3
280
     0
281
     0
  0
CLASS
  1
MATERIAL
  2
AcDbMaterial
  3
ObjectDBX Classes
 90
     1153
 91
        3
280
     0
281
     0
  0
CLASS
  1
SCALE
  2
AcDbScale
  3
ObjectDBX Classes
 90
     1153
 91
        3
280
     0
281
     0
  0
CLASS
  1
TABLESTYLE
  2
AcDbTableStyle
  3
ObjectDBX Classes
 90
     4095
 91
        3
280
     0
281
     0
  0
CLASS
  1
MLEADERSTYLE
  2
AcDbMLeaderStyle
  3
ACDB_MLEADERSTYLE_CLASS
 90
     4095
 91
        3
280
     0
281
     0
  0
CLASS
  1
DICTIONARYVAR
  2
AcDbDictionaryVar
  3
ObjectDBX Classes
 90
        0
 91
        3
280
     0
281
     0
  0
CLASS
  1
CELLSTYLEMAP
  2
AcDbCellStyleMap
  3
ObjectDBX Classes
 90
     1152
 91
        3
280
     0
281
     0
  0
CLASS
  1
MENTALRAYRENDERSETTINGS
  2
AcDbMentalRayRenderSettings
  3
SCENEOE
 90
     1024
 91
        3
280
     0
281
     0
  0
CLASS
  1
ACDBDETAILVIEWSTYLE
  2
AcDbDetailViewStyle
  3
ObjectDBX Classes
 90
     1025
 91
        3
280
     0
281
     0
  0
CLASS
  1
ACDBSECTIONVIEWSTYLE
  2
AcDbSectionViewStyle
  3
ObjectDBX Classes
 90
     1025
 91
        3
280
     0
281
     0
  0
CLASS
  1
RASTERVARIABLES
  2
AcDbRasterVariables
  3
ISM
 90
        0
 91
        3
280
     0
281
     0
  0
CLASS
  1
LAYOUT
  2
AcDbLayout
  3
ObjectDBX Classes
 90
        0
 91
        1
280
     0
281
     0
  0
CLASS
  1
ACDBPLACEHOLDER
  2
AcDbPlaceHolder
  3
ObjectDBX Classes
 90
        0
 91
        1
280
     0
281
     0
  0
ENDSEC
  0
SECTION
  2
TABLES
  0
TABLE
  2
VPORT
  5
8
330
0
100
AcDbSymbolTable
 70
     1
  0
VPORT
  5
CE
330
8
100
AcDbSymbolTableRecord
100
AcDbViewportTableRecord
  2
*Active
 70
     0
 10
0.0
 20
0.0
 11
1.0
 21
1.0
 12
59.915037465025
 22
23.765048430388
 13
0.0
 23
0.0
 14
0.5
 24
0.5
 15
0.5
 25
0.5
 16
0.0
 26
0.0
 36
1.0
 17
0.0
 27
0.0
 37
23.007715858358
 40
145.260492328258
 41
1.932230102443
 42
50.0
 43
0.0
 44
0.0
 50
0.0
 51
0.0
 71
     0
 72
  1000
 73
     1
 74
     3
 75
     0
 76
     0
 77
     0
 78
     0
281
     0
 65
     0
110
0.0
120
0.0
130
0.0
111
1.0
121
0.0
131
0.0
112
0.0
122
1.0
132
0.0
 79
     0
146
0.0
348
E6
 60
     3
 61
     5
292
     0
282
     1
141
0.0
142
0.0
 63
   250
421
  3355443
361
FC
  0
ENDTAB
  0
TABLE
  2
LTYPE
  5
2
330
0
100
AcDbSymbolTable
 70
     1
  0
LTYPE
  5
24
330
2
100
AcDbSymbolTableRecord
100
AcDbLinetypeTableRecord
  2
ByBlock
 70
     0
  3

 72
    65
 73
     0
 40
0.0
  0
LTYPE
  5
25
330
2
100
AcDbSymbolTableRecord
100
AcDbLinetypeTableRecord
  2
ByLayer
 70
     0
  3

 72
    65
 73
     0
 40
0.0
  0
LTYPE
  5
26
330
2
100
AcDbSymbolTableRecord
100
AcDbLinetypeTableRecord
  2
Continuous
 70
     0
  3

 72
    65
 73
     0
 40
0.0
  0
ENDTAB
  0
TABLE
  2
LAYER
  5
1
330
0
100
AcDbSymbolTable
 70
     2
  0
LAYER
  5
27
330
1
100
AcDbSymbolTableRecord
100
AcDbLayerTableRecord
  2
0
 70
     0
 62
     7
  6
Continuous
370
    -3
390
13
347
21
348
0
  0
LAYER
  5
45
330
1
100
AcDbSymbolTableRecord
100
AcDbLayerTableRecord
  2
INSERT_POINTS
 70
     0
 62
     7
  6
Continuous
370
    -3
390
13
347
21
348
0
  0
ENDTAB
  0
TABLE
  2
STYLE
  5
5
330
0
100
AcDbSymbolTable
 70
     2
  0
STYLE
  5
29
330
5
100
AcDbSymbolTableRecord
100
AcDbTextStyleTableRecord
  2
Standard
 70
     0
 40
0.0
 41
1.0
 50
0.0
 71
     0
 42
2.5
  3
txt
  4

  0
STYLE
  5
C08
330
5
100
AcDbSymbolTableRecord
100
AcDbTextStyleTableRecord
  2
Stacked
 70
     4
 40
0.0
 41
1.0
 50
0.0
 71
     0
 42
2.5
  3
arial.ttf
  4

1001
AcadAnnotative
1000
AnnotativeData
1002
{
1070
     1
1070
     0
1002
}
1001
ACAD
1000
Arial
1071
       34
  0
ENDTAB
  0
TABLE
  2
VIEW
  5
7
330
0
100
AcDbSymbolTable
 70
     0
  0
ENDTAB
  0
TABLE
  2
UCS
  5
6
330
0
100
AcDbSymbolTable
 70
     0
  0
ENDTAB
  0
TABLE
  2
APPID
  5
3
330
0
100
AcDbSymbolTable
 70
     3
  0
APPID
  5
2A
330
3
100
AcDbSymbolTableRecord
100
AcDbRegAppTableRecord
  2
ACAD
 70
     0
  0
APPID
  5
CF
330
3
100
AcDbSymbolTableRecord
100
AcDbRegAppTableRecord
  2
HATCHBACKGROUNDCOLOR
 70
     0
  0
APPID
  5
2AD
330
3
100
AcDbSymbolTableRecord
100
AcDbRegAppTableRecord
  2
AcadAnnotative
 70
     0
  0
ENDTAB
  0
TABLE
  2
DIMSTYLE
  5
4
330
0
100
AcDbSymbolTable
 70
     1
100
AcDbDimStyleTable
  0
DIMSTYLE
105
2B
330
4
100
AcDbSymbolTableRecord
100
AcDbDimStyleTableRecord
  2
Standard
 70
     0
 41
2.5
 42
0.625
 43
3.75
 44
1.25
 73
     0
 74
     0
 77
     1
 78
     8
140
2.5
141
2.5
143
0.03937007874
147
0.625
171
     3
172
     1
178
     0
271
     0
272
     2
274
     3
278
    44
283
     0
284
     8
340
29
  0
ENDTAB
  0
TABLE
  2
BLOCK_RECORD
  5
9
330
0
100
AcDbSymbolTable
 70
     0
  0
BLOCK_RECORD
  5
17
330
9
100
AcDbSymbolTableRecord
100
AcDbBlockTableRecord
  2
*Model_Space
340
1A
 70
     0
280
     1
281
     0
  0
BLOCK_RECORD
  5
1B
330
9
100
AcDbSymbolTableRecord
100
AcDbBlockTableRecord
  2
*Paper_Space
340
1E
 70
     0
280
     1
281
     0
  0
ENDTAB
  0
ENDSEC
  0
SECTION
  2
BLOCKS
  0
BLOCK
  5
18
330
17
100
AcDbEntity
  8
0
100
AcDbBlockBegin
  2
*Model_Space
 70
     0
 10
0.0
 20
0.0
 30
0.0
  3
*Model_Space
  1

  0
ENDBLK
  5
19
330
17
100
AcDbEntity
  8
0
100
AcDbBlockEnd
  0
BLOCK
  5
1C
330
1B
100
AcDbEntity
 67
     1
  8
0
100
AcDbBlockBegin
  2
*Paper_Space
 70
     0
 10
0.0
 20
0.0
 30
0.0
  3
*Paper_Space
  1

  0
ENDBLK
  5
1D
330
1B
100
AcDbEntity
 67
     1
  8
0
100
AcDbBlockEnd
  0
ENDSEC
  0
SECTION
  2
ENTITIES
  0
TEXT
  5
C09
330
17
100
AcDbEntity
  8
0
 62
     3
100
AcDbText
 10
0.118849688059
 20
43.40279602162
 30
0.0
 40
3.985987650442
  1
Aligned alignment
 50
104.036243467926
  7
Stacked
 72
     3
 11
5.118849688059
 21
44.65279602162
 31
0.0
100
AcDbText
  0
LINE
  5
C0A
330
17
100
AcDbEntity
  8
0
 62
     5
100
AcDbLine
 10
0.118849688059
 20
43.40279602162
 30
0.0
 11
5.118849688059
 21
44.65279602162
 31
0.0
  0
TEXT
  5
C0B
330
17
100
AcDbEntity
  8
0
 62
     3
100
AcDbText
 10
5.118849688059
 20
44.65279602162
 30
0.0
 40
0.625
  1
Fit alignment
  7
Stacked
 72
     5
 11
5.118849688059
 21
44.65279602162
 31
0.0
100
AcDbText
  0
LINE
  5
C0C
330
17
100
AcDbEntity
  8
0
 62
     5
100
AcDbLine
 10
0.118849688059
 20
45.90279602162
 30
0.0
 11
5.118849688059
 21
44.65279602162
 31
0.0
  0
LINE
  5
C0D
330
17
100
AcDbEntity
  8
0
 62
     5
100
AcDbLine
 10
0.0
 20
52.00972533249
 30
0.0
 11
0.0
 21
58.472390317414
 31
0.0
  0
LINE
  5
C0E
330
17
100
AcDbEntity
  8
0
 62
     5
100
AcDbLine
 10
5.0
 20
52.00972533249
 30
0.0
 11
5.0
 21
58.472390317414
 31
0.0
  0
LINE
  5
C0F
330
17
100
AcDbEntity
  8
0
 62
     5
100
AcDbLine
 10
10.0
 20
52.00972533249
 30
0.0
 11
10.0
 21
58.472390317414
 31
0.0
  0
LINE
  5
C10
330
17
100
AcDbEntity
  8
0
 62
     5
100
AcDbLine
 10
0.0
 20
49.184665112929
 30
0.0
 11
10.0
 21
49.184665112929
 31
0.0
  0
TEXT
  5
C11
330
17
100
AcDbEntity
  8
0
 62
     3
100
AcDbText
 10
0.0
 20
47.707476144289
 30
0.0
 40
0.2
  1
Baseline...
  7
Stacked
100
AcDbText
  0
TEXT
  5
C12
330
17
100
AcDbEntity
  8
0
 62
     3
100
AcDbText
 10
0.0
 20
49.184665112929
 30
0.0
 40
0.2
  1
Left...
  7
Stacked
100
AcDbText
  0
TEXT
  5
C13
330
17
100
AcDbEntity
  8
0
 62
     3
100
AcDbText
 10
5.0
 20
49.084665112929
 30
0.0
 40
0.2
  1
Center...
  7
Stacked
 72
     1
 11
5.0
 21
49.184665112929
 31
0.0
100
AcDbText
  0
TEXT
  5
C14
330
17
100
AcDbEntity
  8
0
 62
     3
100
AcDbText
 10
10.0
 20
49.043265112929
 30
0.0
 40
0.2
  1
Right...
  7
Stacked
 72
     2
 11
10.0
 21
49.184665112929
 31
0.0
100
AcDbText
  0
LINE
  5
C15
330
17
100
AcDbEntity
  8
0
 62
     5
100
AcDbLine
 10
0.0
 20
52.00972533249
 30
0.0
 11
10.0
 21
52.00972533249
 31
0.0
  0
LINE
  5
C19
330
17
100
AcDbEntity
  8
0
 62
     5
100
AcDbLine
 10
0.0
 20
55.241057824952
 30
0.0
 11
10.0
 21
55.241057824952
 31
0.0
  0
LINE
  5
C1D
330
17
100
AcDbEntity
  8
0
 62
     5
100
AcDbLine
 10
0.0
 20
58.472390317414
 30
0.0
 11
10.0
 21
58.472390317414
 31
0.0
  0
CIRCLE
  5
C21
330
17
100
AcDbEntity
  8
INSERT_POINTS
 62
     1
100
AcDbCircle
 10
0.118849688059
 20
43.40279602162
 30
0.0
 40
0.025
  0
CIRCLE
  5
C22
330
17
100
AcDbEntity
  8
INSERT_POINTS
 62
     2
100
AcDbCircle
 10
5.118849688059
 20
44.65279602162
 30
0.0
 40
0.01875
  0
CIRCLE
  5
C23
330
17
100
AcDbEntity
  8
INSERT_POINTS
 62
     1
100
AcDbCircle
 10
0.118849688059
 20
45.90279602162
 30
0.0
 40
0.025
  0
CIRCLE
  5
C24
330
17
100
AcDbEntity
  8
INSERT_POINTS
 62
     2
100
AcDbCircle
 10
5.118849688059
 20
44.65279602162
 30
0.0
 40
0.01875
  0
CIRCLE
  5
C25
330
17
100
AcDbEntity
  8
INSERT_POINTS
 62
     1
100
AcDbCircle
 10
0.0
 20
47.707476144289
 30
0.0
 40
0.1
  0
CIRCLE
  5
C26
330
17
100
AcDbEntity
  8
INSERT_POINTS
 62
     2
100
AcDbCircle
 10
0.0
 20
47.707476144289
 30
0.0
 40
0.075
  0
CIRCLE
  5
C27
330
17
100
AcDbEntity
  8
INSERT_POINTS
 62
     1
100
AcDbCircle
 10
0.0
 20
49.184665112929
 30
0.0
 40
0.1
  0
CIRCLE
  5
C28
330
17
100
AcDbEntity
  8
INSERT_POINTS
 62
     2
100
AcDbCircle
 10
0.0
 20
49.184665112929
 30
0.0
 40
0.075
  0
CIRCLE
  5
C29
330
17
100
AcDbEntity
  8
INSERT_POINTS
 62
     1
100
AcDbCircle
 10
5.0
 20
49.184665112929
 30
0.0
 40
0.1
  0
CIRCLE
  5
C2A
330
17
100
AcDbEntity
  8
INSERT_POINTS
 62
     2
100
AcDbCircle
 10
5.0
 20
49.184665112929
 30
0.0
 40
0.075
  0
CIRCLE
  5
C2B
330
17
100
AcDbEntity
  8
INSERT_POINTS
 62
     1
100
AcDbCircle
 10
10.0
 20
49.184665112929
 30
0.0
 40
0.1
  0
CIRCLE
  5
C2C
330
17
100
AcDbEntity
  8
INSERT_POINTS
 62
     2
100
AcDbCircle
 10
10.0
 20
49.184665112929
 30
0.0
 40
0.075
  0
CIRCLE
  5
C2D
330
17
100
AcDbEntity
  8
INSERT_POINTS
 62
     1
100
AcDbCircle
 10
0.0
 20
52.00972533249
 30
0.0
 40
0.1
  0
CIRCLE
  5
C2E
330
17
100
AcDbEntity
  8
INSERT_POINTS
 62
     2
100
AcDbCircle
 10
0.0
 20
52.00972533249
 30
0.0
 40
0.075
  0
CIRCLE
  5
C2F
330
17
100
AcDbEntity
  8
INSERT_POINTS
 62
     1
100
AcDbCircle
 10
5.0
 20
52.00972533249
 30
0.0
 40
0.1
  0
CIRCLE
  5
C30
330
17
100
AcDbEntity
  8
INSERT_POINTS
 62
     2
100
AcDbCircle
 10
5.0
 20
52.00972533249
 30
0.0
 40
0.075
  0
CIRCLE
  5
C31
330
17
100
AcDbEntity
  8
INSERT_POINTS
 62
     1
100
AcDbCircle
 10
10.0
 20
52.00972533249
 30
0.0
 40
0.1
  0
CIRCLE
  5
C32
330
17
100
AcDbEntity
  8
INSERT_POINTS
 62
     2
100
AcDbCircle
 10
10.0
 20
52.00972533249
 30
0.0
 40
0.075
  0
CIRCLE
  5
C33
330
17
100
AcDbEntity
  8
INSERT_POINTS
 62
     1
100
AcDbCircle
 10
0.0
 20
55.241057824952
 30
0.0
 40
0.1
  0
CIRCLE
  5
C34
330
17
100
AcDbEntity
  8
INSERT_POINTS
 62
     2
100
AcDbCircle
 10
0.0
 20
55.241057824952
 30
0.0
 40
0.075
  0
CIRCLE
  5
C35
330
17
100
AcDbEntity
  8
INSERT_POINTS
 62
     1
100
AcDbCircle
 10
5.0
 20
55.241057824952
 30
0.0
 40
0.1
  0
CIRCLE
  5
C36
330
17
100
AcDbEntity
  8
INSERT_POINTS
 62
     2
100
AcDbCircle
 10
5.0
 20
55.241057824952
 30
0.0
 40
0.075
  0
CIRCLE
  5
C37
330
17
100
AcDbEntity
  8
INSERT_POINTS
 62
     1
100
AcDbCircle
 10
10.0
 20
55.241057824952
 30
0.0
 40
0.1
  0
CIRCLE
  5
C38
330
17
100
AcDbEntity
  8
INSERT_POINTS
 62
     2
100
AcDbCircle
 10
10.0
 20
55.241057824952
 30
0.0
 40
0.075
  0
CIRCLE
  5
C39
330
17
100
AcDbEntity
  8
INSERT_POINTS
 62
     1
100
AcDbCircle
 10
0.0
 20
58.472390317414
 30
0.0
 40
0.1
  0
CIRCLE
  5
C3A
330
17
100
AcDbEntity
  8
INSERT_POINTS
 62
     2
100
AcDbCircle
 10
0.0
 20
58.472390317414
 30
0.0
 40
0.075
  0
CIRCLE
  5
C3B
330
17
100
AcDbEntity
  8
INSERT_POINTS
 62
     1
100
AcDbCircle
 10
5.0
 20
58.472390317414
 30
0.0
 40
0.1
  0
CIRCLE
  5
C3C
330
17
100
AcDbEntity
  8
INSERT_POINTS
 62
     2
100
AcDbCircle
 10
5.0
 20
58.472390317414
 30
0.0
 40
0.075
  0
CIRCLE
  5
C3D
330
17
100
AcDbEntity
  8
INSERT_POINTS
 62
     1
100
AcDbCircle
 10
10.0
 20
58.472390317414
 30
0.0
 40
0.1
  0
CIRCLE
  5
C3E
330
17
100
AcDbEntity
  8
INSERT_POINTS
 62
     2
100
AcDbCircle
 10
10.0
 20
58.472390317414
 30
0.0
 40
0.075
  0
LINE
  5
C3F
330
17
100
AcDbEntity
  8
0
 62
     5
100
AcDbLine
 10
8.00585299164
 20
43.958448868075
 30
0.0
 11
8.00585299164
 21
45.981936153217
 31
0.0
  0
LINE
  5
C40
330
17
100
AcDbEntity
  8
0
 62
     5
100
AcDbLine
 10
6.591884354312
 20
44.970192510646
 30
0.0
 11
9.419821628969
 21
44.970192510646
 31
0.0
  0
TEXT
  5
C41
330
17
100
AcDbEntity
  8
0
 62
     3
100
AcDbText
 10
8.00585299164
 20
44.899492510646
 30
0.0
 40
0.2
  1
Middle alignment
  7
Stacked
 72
     4
 11
8.00585299164
 21
44.970192510646
 31
0.0
100
AcDbText
  0
CIRCLE
  5
C42
330
17
100
AcDbEntity
  8
INSERT_POINTS
 62
     1
100
AcDbCircle
 10
8.00585299164
 20
44.970192510646
 30
0.0
 40
0.1
  0
CIRCLE
  5
C43
330
17
100
AcDbEntity
  8
INSERT_POINTS
 62
     2
100
AcDbCircle
 10
8.00585299164
 20
44.970192510646
 30
0.0
 40
0.075
  0
LINE
  5
C44
330
17
100
AcDbEntity
  8
0
 62
     5
100
AcDbLine
 10
0.0
 20
47.707476144289
 30
0.0
 11
10.0
 21
47.707476144289
 31
0.0
  0
TEXT
  5
C45
330
17
100
AcDbEntity
  8
0
 62
     3
100
AcDbText
 10
0.0
 20
60.936925482203
 30
0.0
 40
0.5
  1
STACKED
 41
0.75
100
AcDbText
  0
TEXT
  5
EA9
330
17
100
AcDbEntity
  8
0
 62
     2
100
AcDbText
 10
0.0
 20
58.472390317414
 30
0.0
 40
0.2
  1
Top-Left
  7
Stacked
 71
     6
 11
0.0
 21
58.472390317414
 31
0.0
100
AcDbText
 73
     3
  0
TEXT
  5
EAA
330
17
100
AcDbEntity
  8
0
 62
     2
100
AcDbText
 10
5.0
 20
58.546390317414
 30
0.0
 40
0.2
  1
Top-Center...
  7
Stacked
 71
     6
 72
     1
 11
5.0
 21
58.472390317414
 31
0.0
100
AcDbText
 73
     3
  0
TEXT
  5
EAB
330
17
100
AcDbEntity
  8
0
 62
     2
100
AcDbText
 10
10.0
 20
58.613790317414
 30
0.0
 40
0.2
  1
Top-Right
  7
Stacked
 71
     6
 72
     2
 11
10.0
 21
58.472390317414
 31
0.0
100
AcDbText
 73
     3
  0
TEXT
  5
EAF
330
17
100
AcDbEntity
  8
0
 62
     2
100
AcDbText
 10
0.0
 20
55.241057824952
 30
0.0
 40
0.2
  1
Middle-Left
  7
Stacked
 71
     6
 11
0.0
 21
55.241057824952
 31
0.0
100
AcDbText
 73
     2
  0
TEXT
  5
EB0
330
17
100
AcDbEntity
  8
0
 62
     2
100
AcDbText
 10
5.0
 20
55.341057824952
 30
0.0
 40
0.2
  1
Middle-Center...
  7
Stacked
 71
     6
 72
     1
 11
5.0
 21
55.241057824952
 31
0.0
100
AcDbText
 73
     2
  0
TEXT
  5
EB1
330
17
100
AcDbEntity
  8
0
 62
     2
100
AcDbText
 10
10.0
 20
55.382457824952
 30
0.0
 40
0.2
  1
Middle-Right
  7
Stacked
 71
     6
 72
     2
 11
10.0
 21
55.241057824952
 31
0.0
100
AcDbText
 73
     2
  0
TEXT
  5
EB2
330
17
100
AcDbEntity
  8
0
 62
     2
100
AcDbText
 10
0.0
 20
52.00972533249
 30
0.0
 40
0.2
  1
Bottom-Left...
  7
Stacked
 71
     6
 11
0.0
 21
52.00972533249
 31
0.0
100
AcDbText
 73
     1
  0
TEXT
  5
EB3
330
17
100
AcDbEntity
  8
0
 62
     2
100
AcDbText
 10
5.0
 20
52.10972533249
 30
0.0
 40
0.2
  1
Bottom-Center...
  7
Stacked
 71
     6
 72
     1
 11
5.0
 21
52.00972533249
 31
0.0
100
AcDbText
 73
     1
  0
TEXT
  5
EB4
330
17
100
AcDbEntity
  8
0
 62
     2
100
AcDbText
 10
10.0
 20
52.15112533249
 30
0.0
 40
0.2
  1
Bottom-Right...
  7
Stacked
 71
     6
 72
     2
 11
10.0
 21
52.00972533249
 31
0.0
100
AcDbText
 73
     1
  0
TEXT
  5
EB5
330
17
100
AcDbEntity
  8
0
 62
     1
100
AcDbText
 10
0.0
 20
35.266872232825
 30
0.0
 40
0.5
  1
FIT alignment is broken
 41
0.75
100
AcDbText
  0
TEXT
  5
EBC
330
17
100
AcDbEntity
  8
0
 62
     1
100
AcDbText
 10
0.0
 20
34.192067442008
 30
0.0
 40
0.5
  1
in AutoCAD and BricsCAD!
 41
0.75
100
AcDbText
  0
TEXT
  5
EBD
330
17
100
AcDbEntity
  8
0
 62
     3
100
AcDbText
 10
29.885594131537
 20
43.40279602162
 30
0.0
 40
3.985987650442
  1
Aligned alignment
 50
104.036243467926
  7
Stacked
 72
     3
 11
34.885594131537
 21
44.65279602162
 31
0.0
100
AcDbText
  0
LINE
  5
EBE
330
17
100
AcDbEntity
  8
0
 62
     5
100
AcDbLine
 10
29.885594131537
 20
43.40279602162
 30
0.0
 11
34.885594131537
 21
44.65279602162
 31
0.0
  0
TEXT
  5
EBF
330
17
100
AcDbEntity
  8
0
 62
     3
100
AcDbText
 10
34.885594131537
 20
44.65279602162
 30
0.0
 40
0.625
  1
Fit alignment
  7
Stacked
 72
     5
 11
34.885594131537
 21
44.65279602162
 31
0.0
100
AcDbText
  0
LINE
  5
EC0
330
17
100
AcDbEntity
  8
0
 62
     5
100
AcDbLine
 10
29.885594131537
 20
45.90279602162
 30
0.0
 11
34.885594131537
 21
44.65279602162
 31
0.0
  0
LINE
  5
EC1
330
17
100
AcDbEntity
  8
0
 62
     5
100
AcDbLine
 10
29.766744443478
 20
52.00972533249
 30
0.0
 11
29.766744443478
 21
58.472390317414
 31
0.0
  0
LINE
  5
EC2
330
17
100
AcDbEntity
  8
0
 62
     5
100
AcDbLine
 10
34.766744443478
 20
52.00972533249
 30
0.0
 11
34.766744443478
 21
58.472390317414
 31
0.0
  0
LINE
  5
EC3
330
17
100
AcDbEntity
  8
0
 62
     5
100
AcDbLine
 10
39.766744443478
 20
52.00972533249
 30
0.0
 11
39.766744443478
 21
58.472390317414
 31
0.0
  0
LINE
  5
EC4
330
17
100
AcDbEntity
  8
0
 62
     5
100
AcDbLine
 10
29.766744443478
 20
49.184665112929
 30
0.0
 11
39.766744443478
 21
49.184665112929
 31
0.0
  0
TEXT
  5
EC5
330
17
100
AcDbEntity
  8
0
 62
     3
100
AcDbText
 10
29.766744443478
 20
47.707476144289
 30
0.0
 40
0.2
  1
Baseline...
 50
45.0
  7
Stacked
100
AcDbText
  0
TEXT
  5
EC6
330
17
100
AcDbEntity
  8
0
 62
     3
100
AcDbText
 10
29.766744443478
 20
49.184665112929
 30
0.0
 40
0.2
  1
Left...
 50
45.0
  7
Stacked
100
AcDbText
  0
TEXT
  5
EC7
330
17
100
AcDbEntity
  8
0
 62
     3
100
AcDbText
 10
34.837455121596
 20
49.11395443481
 30
0.0
 40
0.2
  1
Center...
 50
45.0
  7
Stacked
 72
     1
 11
34.766744443478
 21
49.184665112929
 31
0.0
100
AcDbText
  0
TEXT
  5
EC8
330
17
100
AcDbEntity
  8
0
 62
     3
100
AcDbText
 10
39.866729342337
 20
49.084680214069
 30
0.0
 40
0.2
  1
Right...
 50
45.0
  7
Stacked
 72
     2
 11
39.766744443478
 21
49.184665112929
 31
0.0
100
AcDbText
  0
LINE
  5
EC9
330
17
100
AcDbEntity
  8
0
 62
     5
100
AcDbLine
 10
29.766744443478
 20
52.00972533249
 30
0.0
 11
39.766744443478
 21
52.00972533249
 31
0.0
  0
LINE
  5
ECA
330
17
100
AcDbEntity
  8
0
 62
     5
100
AcDbLine
 10
29.766744443478
 20
55.241057824952
 30
0.0
 11
39.766744443478
 21
55.241057824952
 31
0.0
  0
LINE
  5
ECB
330
17
100
AcDbEntity
  8
0
 62
     5
100
AcDbLine
 10
29.766744443478
 20
58.472390317414
 30
0.0
 11
39.766744443478
 21
58.472390317414
 31
0.0
  0
CIRCLE
  5
ECC
330
17
100
AcDbEntity
  8
INSERT_POINTS
 62
     1
100
AcDbCircle
 10
29.885594131537
 20
43.40279602162
 30
0.0
 40
0.025
  0
CIRCLE
  5
ECD
330
17
100
AcDbEntity
  8
INSERT_POINTS
 62
     2
100
AcDbCircle
 10
34.885594131537
 20
44.65279602162
 30
0.0
 40
0.01875
  0
CIRCLE
  5
ECE
330
17
100
AcDbEntity
  8
INSERT_POINTS
 62
     1
100
AcDbCircle
 10
29.885594131537
 20
45.90279602162
 30
0.0
 40
0.025
  0
CIRCLE
  5
ECF
330
17
100
AcDbEntity
  8
INSERT_POINTS
 62
     2
100
AcDbCircle
 10
34.885594131537
 20
44.65279602162
 30
0.0
 40
0.01875
  0
CIRCLE
  5
ED0
330
17
100
AcDbEntity
  8
INSERT_POINTS
 62
     1
100
AcDbCircle
 10
29.766744443478
 20
47.707476144289
 30
0.0
 40
0.1
  0
CIRCLE
  5
ED1
330
17
100
AcDbEntity
  8
INSERT_POINTS
 62
     2
100
AcDbCircle
 10
29.766744443478
 20
47.707476144289
 30
0.0
 40
0.075
  0
CIRCLE
  5
ED2
330
17
100
AcDbEntity
  8
INSERT_POINTS
 62
     1
100
AcDbCircle
 10
29.766744443478
 20
49.184665112929
 30
0.0
 40
0.1
  0
CIRCLE
  5
ED3
330
17
100
AcDbEntity
  8
INSERT_POINTS
 62
     2
100
AcDbCircle
 10
29.766744443478
 20
49.184665112929
 30
0.0
 40
0.075
  0
CIRCLE
  5
ED4
330
17
100
AcDbEntity
  8
INSERT_POINTS
 62
     1
100
AcDbCircle
 10
34.766744443478
 20
49.184665112929
 30
0.0
 40
0.1
  0
CIRCLE
  5
ED5
330
17
100
AcDbEntity
  8
INSERT_POINTS
 62
     2
100
AcDbCircle
 10
34.766744443478
 20
49.184665112929
 30
0.0
 40
0.075
  0
CIRCLE
  5
ED6
330
17
100
AcDbEntity
  8
INSERT_POINTS
 62
     1
100
AcDbCircle
 10
39.766744443478
 20
49.184665112929
 30
0.0
 40
0.1
  0
CIRCLE
  5
ED7
330
17
100
AcDbEntity
  8
INSERT_POINTS
 62
     2
100
AcDbCircle
 10
39.766744443478
 20
49.184665112929
 30
0.0
 40
0.075
  0
CIRCLE
  5
ED8
330
17
100
AcDbEntity
  8
INSERT_POINTS
 62
     1
100
AcDbCircle
 10
29.766744443478
 20
52.00972533249
 30
0.0
 40
0.1
  0
CIRCLE
  5
ED9
330
17
100
AcDbEntity
  8
INSERT_POINTS
 62
     2
100
AcDbCircle
 10
29.766744443478
 20
52.00972533249
 30
0.0
 40
0.075
  0
CIRCLE
  5
EDA
330
17
100
AcDbEntity
  8
INSERT_POINTS
 62
     1
100
AcDbCircle
 10
34.766744443478
 20
52.00972533249
 30
0.0
 40
0.1
  0
CIRCLE
  5
EDB
330
17
100
AcDbEntity
  8
INSERT_POINTS
 62
     2
100
AcDbCircle
 10
34.766744443478
 20
52.00972533249
 30
0.0
 40
0.075
  0
CIRCLE
  5
EDC
330
17
100
AcDbEntity
  8
INSERT_POINTS
 62
     1
100
AcDbCircle
 10
39.766744443478
 20
52.00972533249
 30
0.0
 40
0.1
  0
CIRCLE
  5
EDD
330
17
100
AcDbEntity
  8
INSERT_POINTS
 62
     2
100
AcDbCircle
 10
39.766744443478
 20
52.00972533249
 30
0.0
 40
0.075
  0
CIRCLE
  5
EDE
330
17
100
AcDbEntity
  8
INSERT_POINTS
 62
     1
100
AcDbCircle
 10
29.766744443478
 20
55.241057824952
 30
0.0
 40
0.1
  0
CIRCLE
  5
EDF
330
17
100
AcDbEntity
  8
INSERT_POINTS
 62
     2
100
AcDbCircle
 10
29.766744443478
 20
55.241057824952
 30
0.0
 40
0.075
  0
CIRCLE
  5
EE0
330
17
100
AcDbEntity
  8
INSERT_POINTS
 62
     1
100
AcDbCircle
 10
34.766744443478
 20
55.241057824952
 30
0.0
 40
0.1
  0
CIRCLE
  5
EE1
330
17
100
AcDbEntity
  8
INSERT_POINTS
 62
     2
100
AcDbCircle
 10
34.766744443478
 20
55.241057824952
 30
0.0
 40
0.075
  0
CIRCLE
  5
EE2
330
17
100
AcDbEntity
  8
INSERT_POINTS
 62
     1
100
AcDbCircle
 10
39.766744443478
 20
55.241057824952
 30
0.0
 40
0.1
  0
CIRCLE
  5
EE3
330
17
100
AcDbEntity
  8
INSERT_POINTS
 62
     2
100
AcDbCircle
 10
39.766744443478
 20
55.241057824952
 30
0.0
 40
0.075
  0
CIRCLE
  5
EE4
330
17
100
AcDbEntity
  8
INSERT_POINTS
 62
     1
100
AcDbCircle
 10
29.766744443478
 20
58.472390317414
 30
0.0
 40
0.1
  0
CIRCLE
  5
EE5
330
17
100
AcDbEntity
  8
INSERT_POINTS
 62
     2
100
AcDbCircle
 10
29.766744443478
 20
58.472390317414
 30
0.0
 40
0.075
  0
CIRCLE
  5
EE6
330
17
100
AcDbEntity
  8
INSERT_POINTS
 62
     1
100
AcDbCircle
 10
34.766744443478
 20
58.472390317414
 30
0.0
 40
0.1
  0
CIRCLE
  5
EE7
330
17
100
AcDbEntity
  8
INSERT_POINTS
 62
     2
100
AcDbCircle
 10
34.766744443478
 20
58.472390317414
 30
0.0
 40
0.075
  0
CIRCLE
  5
EE8
330
17
100
AcDbEntity
  8
INSERT_POINTS
 62
     1
100
AcDbCircle
 10
39.766744443478
 20
58.472390317414
 30
0.0
 40
0.1
  0
CIRCLE
  5
EE9
330
17
100
AcDbEntity
  8
INSERT_POINTS
 62
     2
100
AcDbCircle
 10
39.766744443478
 20
58.472390317414
 30
0.0
 40
0.075
  0
LINE
  5
EEA
330
17
100
AcDbEntity
  8
0
 62
     5
100
AcDbLine
 10
37.772597435118
 20
43.958448868075
 30
0.0
 11
37.772597435118
 21
45.981936153217
 31
0.0
  0
LINE
  5
EEB
330
17
100
AcDbEntity
  8
0
 62
     5
100
AcDbLine
 10
36.35862879779
 20
44.970192510646
 30
0.0
 11
39.186566072447
 21
44.970192510646
 31
0.0
  0
TEXT
  5
EEC
330
17
100
AcDbEntity
  8
0
 62
     3
100
AcDbText
 10
37.822589884547
 20
44.920200061216
 30
0.0
 40
0.2
  1
Middle alignment
 50
45.0
  7
Stacked
 72
     4
 11
37.772597435118
 21
44.970192510646
 31
0.0
100
AcDbText
  0
CIRCLE
  5
EED
330
17
100
AcDbEntity
  8
INSERT_POINTS
 62
     1
100
AcDbCircle
 10
37.772597435118
 20
44.970192510646
 30
0.0
 40
0.1
  0
CIRCLE
  5
EEE
330
17
100
AcDbEntity
  8
INSERT_POINTS
 62
     2
100
AcDbCircle
 10
37.772597435118
 20
44.970192510646
 30
0.0
 40
0.075
  0
LINE
  5
EEF
330
17
100
AcDbEntity
  8
0
 62
     5
100
AcDbLine
 10
29.766744443478
 20
47.707476144289
 30
0.0
 11
39.766744443478
 21
47.707476144289
 31
0.0
  0
TEXT
  5
EF0
330
17
100
AcDbEntity
  8
0
 62
     3
100
AcDbText
 10
29.766744443478
 20
60.936925482203
 30
0.0
 40
0.5
  1
Rotated 45 deg
 41
0.75
100
AcDbText
  0
TEXT
  5
EF2
330
17
100
AcDbEntity
  8
0
 62
     2
100
AcDbText
 10
29.766744443478
 20
58.472390317414
 30
0.0
 40
0.2
  1
Top-Left
 50
45.0
  7
Stacked
 71
     6
 11
29.766744443478
 21
58.472390317414
 31
0.0
100
AcDbText
 73
     3
  0
TEXT
  5
EF3
330
17
100
AcDbEntity
  8
0
 62
     2
100
AcDbText
 10
34.71441854167
 20
58.524716219222
 30
0.0
 40
0.2
  1
Top-Center...
 50
45.0
  7
Stacked
 71
     6
 72
     1
 11
34.766744443478
 21
58.472390317414
 31
0.0
100
AcDbText
 73
     3
  0
TEXT
  5
EF4
330
17
100
AcDbEntity
  8
0
 62
     2
100
AcDbText
 10
39.666759544618
 20
58.572375216274
 30
0.0
 40
0.2
  1
Top-Right
 50
45.0
  7
Stacked
 71
     6
 72
     2
 11
39.766744443478
 21
58.472390317414
 31
0.0
100
AcDbText
 73
     3
  0
TEXT
  5
EF5
330
17
100
AcDbEntity
  8
0
 62
     2
100
AcDbText
 10
29.766744443478
 20
55.241057824952
 30
0.0
 40
0.2
  1
Middle-Left
 50
45.0
  7
Stacked
 71
     6
 11
29.766744443478
 21
55.241057824952
 31
0.0
100
AcDbText
 73
     2
  0
TEXT
  5
EF6
330
17
100
AcDbEntity
  8
0
 62
     2
100
AcDbText
 10
34.696033765359
 20
55.311768503071
 30
0.0
 40
0.2
  1
Middle-Center...
 50
45.0
  7
Stacked
 71
     6
 72
     1
 11
34.766744443478
 21
55.241057824952
 31
0.0
100
AcDbText
 73
     2
  0
TEXT
  5
EF7
330
17
100
AcDbEntity
  8
0
 62
     2
100
AcDbText
 10
39.666759544618
 20
55.341042723812
 30
0.0
 40
0.2
  1
Middle-Right
 50
45.0
  7
Stacked
 71
     6
 72
     2
 11
39.766744443478
 21
55.241057824952
 31
0.0
100
AcDbText
 73
     2
  0
TEXT
  5
EF8
330
17
100
AcDbEntity
  8
0
 62
     2
100
AcDbText
 10
29.766744443478
 20
52.00972533249
 30
0.0
 40
0.2
  1
Bottom-Left...
 50
45.0
  7
Stacked
 71
     6
 11
29.766744443478
 21
52.00972533249
 31
0.0
100
AcDbText
 73
     1
  0
TEXT
  5
EF9
330
17
100
AcDbEntity
  8
0
 62
     2
100
AcDbText
 10
34.696033765359
 20
52.080436010609
 30
0.0
 40
0.2
  1
Bottom-Center...
 50
45.0
  7
Stacked
 71
     6
 72
     1
 11
34.766744443478
 21
52.00972533249
 31
0.0
100
AcDbText
 73
     1
  0
TEXT
  5
EFA
330
17
100
AcDbEntity
  8
0
 62
     2
100
AcDbText
 10
39.666759544618
 20
52.10971023135
 30
0.0
 40
0.2
  1
Bottom-Right...
 50
45.0
  7
Stacked
 71
     6
 72
     2
 11
39.766744443478
 21
52.00972533249
 31
0.0
100
AcDbText
 73
     1
  0
TEXT
  5
EFB
330
17
100
AcDbEntity
  8
0
 62
     3
100
AcDbText
 10
29.766744443478
 20
35.266872232825
 30
0.0
 40
0.5
  1
Rotation not applicable
 41
0.75
100
AcDbText
  0
TEXT
  5
EFC
330
17
100
AcDbEntity
  8
0
 62
     3
100
AcDbText
 10
29.766744443478
 20
34.192067442008
 30
0.0
 40
0.5
  1
to FIT and ALIGNED
 41
0.75
100
AcDbText
  0
TEXT
  5
EFD
330
17
100
AcDbEntity
  8
0
 62
     3
100
AcDbText
 10
43.436283782209
 20
43.40279602162
 30
0.0
 40
3.985987650442
  1
Aligned alignment
 50
104.036243467926
 51
5.0
  7
Stacked
 72
     3
 11
48.436283782209
 21
44.65279602162
 31
0.0
100
AcDbText
  0
LINE
  5
EFE
330
17
100
AcDbEntity
  8
0
 62
     5
100
AcDbLine
 10
43.436283782209
 20
43.40279602162
 30
0.0
 11
48.436283782209
 21
44.65279602162
 31
0.0
  0
TEXT
  5
EFF
330
17
100
AcDbEntity
  8
0
 62
     3
100
AcDbText
 10
48.436283782209
 20
44.65279602162
 30
0.0
 40
0.625
  1
Fit alignment
 51
5.0
  7
Stacked
 72
     5
 11
48.436283782209
 21
44.65279602162
 31
0.0
100
AcDbText
  0
LINE
  5
F00
330
17
100
AcDbEntity
  8
0
 62
     5
100
AcDbLine
 10
43.436283782209
 20
45.90279602162
 30
0.0
 11
48.436283782209
 21
44.65279602162
 31
0.0
  0
LINE
  5
F01
330
17
100
AcDbEntity
  8
0
 62
     5
100
AcDbLine
 10
43.31743409415
 20
52.00972533249
 30
0.0
 11
43.31743409415
 21
58.472390317414
 31
0.0
  0
LINE
  5
F02
330
17
100
AcDbEntity
  8
0
 62
     5
100
AcDbLine
 10
48.31743409415
 20
52.00972533249
 30
0.0
 11
48.31743409415
 21
58.472390317414
 31
0.0
  0
LINE
  5
F03
330
17
100
AcDbEntity
  8
0
 62
     5
100
AcDbLine
 10
53.31743409415
 20
52.00972533249
 30
0.0
 11
53.31743409415
 21
58.472390317414
 31
0.0
  0
LINE
  5
F04
330
17
100
AcDbEntity
  8
0
 62
     5
100
AcDbLine
 10
43.31743409415
 20
49.184665112929
 30
0.0
 11
53.31743409415
 21
49.184665112929
 31
0.0
  0
TEXT
  5
F05
330
17
100
AcDbEntity
  8
0
 62
     3
100
AcDbText
 10
43.31743409415
 20
47.707476144289
 30
0.0
 40
0.2
  1
Baseline...
 51
5.0
  7
Stacked
100
AcDbText
  0
TEXT
  5
F06
330
17
100
AcDbEntity
  8
0
 62
     3
100
AcDbText
 10
43.31743409415
 20
49.184665112929
 30
0.0
 40
0.2
  1
Left...
 51
5.0
  7
Stacked
100
AcDbText
  0
TEXT
  5
F07
330
17
100
AcDbEntity
  8
0
 62
     3
100
AcDbText
 10
48.31743409415
 20
49.084665112929
 30
0.0
 40
0.2
  1
Center...
 51
5.0
  7
Stacked
 72
     1
 11
48.31743409415
 21
49.184665112929
 31
0.0
100
AcDbText
  0
TEXT
  5
F08
330
17
100
AcDbEntity
  8
0
 62
     3
100
AcDbText
 10
53.31743409415
 20
49.043265112929
 30
0.0
 40
0.2
  1
Right...
 51
5.0
  7
Stacked
 72
     2
 11
53.31743409415
 21
49.184665112929
 31
0.0
100
AcDbText
  0
LINE
  5
F09
330
17
100
AcDbEntity
  8
0
 62
     5
100
AcDbLine
 10
43.31743409415
 20
52.00972533249
 30
0.0
 11
53.31743409415
 21
52.00972533249
 31
0.0
  0
LINE
  5
F0A
330
17
100
AcDbEntity
  8
0
 62
     5
100
AcDbLine
 10
43.31743409415
 20
55.241057824952
 30
0.0
 11
53.31743409415
 21
55.241057824952
 31
0.0
  0
LINE
  5
F0B
330
17
100
AcDbEntity
  8
0
 62
     5
100
AcDbLine
 10
43.31743409415
 20
58.472390317414
 30
0.0
 11
53.31743409415
 21
58.472390317414
 31
0.0
  0
CIRCLE
  5
F0C
330
17
100
AcDbEntity
  8
INSERT_POINTS
 62
     1
100
AcDbCircle
 10
43.436283782209
 20
43.40279602162
 30
0.0
 40
0.025
  0
CIRCLE
  5
F0D
330
17
100
AcDbEntity
  8
INSERT_POINTS
 62
     2
100
AcDbCircle
 10
48.436283782209
 20
44.65279602162
 30
0.0
 40
0.01875
  0
CIRCLE
  5
F0E
330
17
100
AcDbEntity
  8
INSERT_POINTS
 62
     1
100
AcDbCircle
 10
43.436283782209
 20
45.90279602162
 30
0.0
 40
0.025
  0
CIRCLE
  5
F0F
330
17
100
AcDbEntity
  8
INSERT_POINTS
 62
     2
100
AcDbCircle
 10
48.436283782209
 20
44.65279602162
 30
0.0
 40
0.01875
  0
CIRCLE
  5
F10
330
17
100
AcDbEntity
  8
INSERT_POINTS
 62
     1
100
AcDbCircle
 10
43.31743409415
 20
47.707476144289
 30
0.0
 40
0.1
  0
CIRCLE
  5
F11
330
17
100
AcDbEntity
  8
INSERT_POINTS
 62
     2
100
AcDbCircle
 10
43.31743409415
 20
47.707476144289
 30
0.0
 40
0.075
  0
CIRCLE
  5
F12
330
17
100
AcDbEntity
  8
INSERT_POINTS
 62
     1
100
AcDbCircle
 10
43.31743409415
 20
49.184665112929
 30
0.0
 40
0.1
  0
CIRCLE
  5
F13
330
17
100
AcDbEntity
  8
INSERT_POINTS
 62
     2
100
AcDbCircle
 10
43.31743409415
 20
49.184665112929
 30
0.0
 40
0.075
  0
CIRCLE
  5
F14
330
17
100
AcDbEntity
  8
INSERT_POINTS
 62
     1
100
AcDbCircle
 10
48.31743409415
 20
49.184665112929
 30
0.0
 40
0.1
  0
CIRCLE
  5
F15
330
17
100
AcDbEntity
  8
INSERT_POINTS
 62
     2
100
AcDbCircle
 10
48.31743409415
 20
49.184665112929
 30
0.0
 40
0.075
  0
CIRCLE
  5
F16
330
17
100
AcDbEntity
  8
INSERT_POINTS
 62
     1
100
AcDbCircle
 10
53.31743409415
 20
49.184665112929
 30
0.0
 40
0.1
  0
CIRCLE
  5
F17
330
17
100
AcDbEntity
  8
INSERT_POINTS
 62
     2
100
AcDbCircle
 10
53.31743409415
 20
49.184665112929
 30
0.0
 40
0.075
  0
CIRCLE
  5
F18
330
17
100
AcDbEntity
  8
INSERT_POINTS
 62
     1
100
AcDbCircle
 10
43.31743409415
 20
52.00972533249
 30
0.0
 40
0.1
  0
CIRCLE
  5
F19
330
17
100
AcDbEntity
  8
INSERT_POINTS
 62
     2
100
AcDbCircle
 10
43.31743409415
 20
52.00972533249
 30
0.0
 40
0.075
  0
CIRCLE
  5
F1A
330
17
100
AcDbEntity
  8
INSERT_POINTS
 62
     1
100
AcDbCircle
 10
48.31743409415
 20
52.00972533249
 30
0.0
 40
0.1
  0
CIRCLE
  5
F1B
330
17
100
AcDbEntity
  8
INSERT_POINTS
 62
     2
100
AcDbCircle
 10
48.31743409415
 20
52.00972533249
 30
0.0
 40
0.075
  0
CIRCLE
  5
F1C
330
17
100
AcDbEntity
  8
INSERT_POINTS
 62
     1
100
AcDbCircle
 10
53.31743409415
 20
52.00972533249
 30
0.0
 40
0.1
  0
CIRCLE
  5
F1D
330
17
100
AcDbEntity
  8
INSERT_POINTS
 62
     2
100
AcDbCircle
 10
53.31743409415
 20
52.00972533249
 30
0.0
 40
0.075
  0
CIRCLE
  5
F1E
330
17
100
AcDbEntity
  8
INSERT_POINTS
 62
     1
100
AcDbCircle
 10
43.31743409415
 20
55.241057824952
 30
0.0
 40
0.1
  0
CIRCLE
  5
F1F
330
17
100
AcDbEntity
  8
INSERT_POINTS
 62
     2
100
AcDbCircle
 10
43.31743409415
 20
55.241057824952
 30
0.0
 40
0.075
  0
CIRCLE
  5
F20
330
17
100
AcDbEntity
  8
INSERT_POINTS
 62
     1
100
AcDbCircle
 10
48.31743409415
 20
55.241057824952
 30
0.0
 40
0.1
  0
CIRCLE
  5
F21
330
17
100
AcDbEntity
  8
INSERT_POINTS
 62
     2
100
AcDbCircle
 10
48.31743409415
 20
55.241057824952
 30
0.0
 40
0.075
  0
CIRCLE
  5
F22
330
17
100
AcDbEntity
  8
INSERT_POINTS
 62
     1
100
AcDbCircle
 10
53.31743409415
 20
55.241057824952
 30
0.0
 40
0.1
  0
CIRCLE
  5
F23
330
17
100
AcDbEntity
  8
INSERT_POINTS
 62
     2
100
AcDbCircle
 10
53.31743409415
 20
55.241057824952
 30
0.0
 40
0.075
  0
CIRCLE
  5
F24
330
17
100
AcDbEntity
  8
INSERT_POINTS
 62
     1
100
AcDbCircle
 10
43.31743409415
 20
58.472390317414
 30
0.0
 40
0.1
  0
CIRCLE
  5
F25
330
17
100
AcDbEntity
  8
INSERT_POINTS
 62
     2
100
AcDbCircle
 10
43.31743409415
 20
58.472390317414
 30
0.0
 40
0.075
  0
CIRCLE
  5
F26
330
17
100
AcDbEntity
  8
INSERT_POINTS
 62
     1
100
AcDbCircle
 10
48.31743409415
 20
58.472390317414
 30
0.0
 40
0.1
  0
CIRCLE
  5
F27
330
17
100
AcDbEntity
  8
INSERT_POINTS
 62
     2
100
AcDbCircle
 10
48.31743409415
 20
58.472390317414
 30
0.0
 40
0.075
  0
CIRCLE
  5
F28
330
17
100
AcDbEntity
  8
INSERT_POINTS
 62
     1
100
AcDbCircle
 10
53.31743409415
 20
58.472390317414
 30
0.0
 40
0.1
  0
CIRCLE
  5
F29
330
17
100
AcDbEntity
  8
INSERT_POINTS
 62
     2
100
AcDbCircle
 10
53.31743409415
 20
58.472390317414
 30
0.0
 40
0.075
  0
LINE
  5
F2A
330
17
100
AcDbEntity
  8
0
 62
     5
100
AcDbLine
 10
51.32328708579
 20
43.958448868075
 30
0.0
 11
51.32328708579
 21
45.981936153217
 31
0.0
  0
LINE
  5
F2B
330
17
100
AcDbEntity
  8
0
 62
     5
100
AcDbLine
 10
49.909318448462
 20
44.970192510646
 30
0.0
 11
52.737255723119
 21
44.970192510646
 31
0.0
  0
TEXT
  5
F2C
330
17
100
AcDbEntity
  8
0
 62
     3
100
AcDbText
 10
51.32328708579
 20
44.899492510646
 30
0.0
 40
0.2
  1
Middle alignment
 51
5.0
  7
Stacked
 72
     4
 11
51.32328708579
 21
44.970192510646
 31
0.0
100
AcDbText
  0
CIRCLE
  5
F2D
330
17
100
AcDbEntity
  8
INSERT_POINTS
 62
     1
100
AcDbCircle
 10
51.32328708579
 20
44.970192510646
 30
0.0
 40
0.1
  0
CIRCLE
  5
F2E
330
17
100
AcDbEntity
  8
INSERT_POINTS
 62
     2
100
AcDbCircle
 10
51.32328708579
 20
44.970192510646
 30
0.0
 40
0.075
  0
LINE
  5
F2F
330
17
100
AcDbEntity
  8
0
 62
     5
100
AcDbLine
 10
43.31743409415
 20
47.707476144289
 30
0.0
 11
53.31743409415
 21
47.707476144289
 31
0.0
  0
TEXT
  5
F30
330
17
100
AcDbEntity
  8
0
 62
     3
100
AcDbText
 10
43.31743409415
 20
60.936925482203
 30
0.0
 40
0.5
  1
Oblique 5 deg
 41
0.75
 51
5.0
100
AcDbText
  0
TEXT
  5
F32
330
17
100
AcDbEntity
  8
0
 62
     2
100
AcDbText
 10
43.31743409415
 20
58.472390317414
 30
0.0
 40
0.2
  1
Top-Left
 51
5.0
  7
Stacked
 71
     6
 11
43.31743409415
 21
58.472390317414
 31
0.0
100
AcDbText
 73
     3
  0
TEXT
  5
F33
330
17
100
AcDbEntity
  8
0
 62
     2
100
AcDbText
 10
48.31743409415
 20
58.546390317414
 30
0.0
 40
0.2
  1
Top-Center...
 51
5.0
  7
Stacked
 71
     6
 72
     1
 11
48.31743409415
 21
58.472390317414
 31
0.0
100
AcDbText
 73
     3
  0
TEXT
  5
F34
330
17
100
AcDbEntity
  8
0
 62
     2
100
AcDbText
 10
53.31743409415
 20
58.613790317414
 30
0.0
 40
0.2
  1
Top-Right
 51
5.0
  7
Stacked
 71
     6
 72
     2
 11
53.31743409415
 21
58.472390317414
 31
0.0
100
AcDbText
 73
     3
  0
TEXT
  5
F35
330
17
100
AcDbEntity
  8
0
 62
     2
100
AcDbText
 10
43.31743409415
 20
55.241057824952
 30
0.0
 40
0.2
  1
Middle-Left
 51
5.0
  7
Stacked
 71
     6
 11
43.31743409415
 21
55.241057824952
 31
0.0
100
AcDbText
 73
     2
  0
TEXT
  5
F36
330
17
100
AcDbEntity
  8
0
 62
     2
100
AcDbText
 10
48.31743409415
 20
55.341057824952
 30
0.0
 40
0.2
  1
Middle-Center...
 51
5.0
  7
Stacked
 71
     6
 72
     1
 11
48.31743409415
 21
55.241057824952
 31
0.0
100
AcDbText
 73
     2
  0
TEXT
  5
F37
330
17
100
AcDbEntity
  8
0
 62
     2
100
AcDbText
 10
53.31743409415
 20
55.382457824952
 30
0.0
 40
0.2
  1
Middle-Right
 51
5.0
  7
Stacked
 71
     6
 72
     2
 11
53.31743409415
 21
55.241057824952
 31
0.0
100
AcDbText
 73
     2
  0
TEXT
  5
F38
330
17
100
AcDbEntity
  8
0
 62
     2
100
AcDbText
 10
43.31743409415
 20
52.00972533249
 30
0.0
 40
0.2
  1
Bottom-Left...
 51
5.0
  7
Stacked
 71
     6
 11
43.31743409415
 21
52.00972533249
 31
0.0
100
AcDbText
 73
     1
  0
TEXT
  5
F39
330
17
100
AcDbEntity
  8
0
 62
     2
100
AcDbText
 10
48.31743409415
 20
52.10972533249
 30
0.0
 40
0.2
  1
Bottom-Center...
 51
5.0
  7
Stacked
 71
     6
 72
     1
 11
48.31743409415
 21
52.00972533249
 31
0.0
100
AcDbText
 73
     1
  0
TEXT
  5
F3A
330
17
100
AcDbEntity
  8
0
 62
     2
100
AcDbText
 10
53.31743409415
 20
52.15112533249
 30
0.0
 40
0.2
  1
Bottom-Right...
 51
5.0
  7
Stacked
 71
     6
 72
     2
 11
53.31743409415
 21
52.00972533249
 31
0.0
100
AcDbText
 73
     1
  0
TEXT
  5
F3D
330
17
100
AcDbEntity
  8
0
 62
     1
100
AcDbText
 10
42.839672066335
 20
35.266872232825
 30
0.0
 40
0.5
  1
Strange interpretation of "oblique"
 41
0.75
100
AcDbText
  0
TEXT
  5
F41
330
17
100
AcDbEntity
  8
0
 62
     1
100
AcDbText
 10
42.839672066335
 20
34.192067442008
 30
0.0
 40
0.5
  1
in AutoCAD and BricsCAD!
 41
0.75
100
AcDbText
  0
TEXT
  5
F45
330
17
100
AcDbEntity
  8
0
 62
     3
100
AcDbText
 10
0.0
 20
30.390315583642
 30
0.0
 40
0.5
  1
Horizontal alignment is always
 41
0.75
100
AcDbText
  0
TEXT
  5
F46
330
17
100
AcDbEntity
  8
0
 62
     3
100
AcDbText
 10
0.0
 20
29.334384915872
 30
0.0
 40
0.5
  1
applied as "Center".
 41
0.75
100
AcDbText
  0
TEXT
  5
F4A
330
17
100
AcDbEntity
  8
0
 62
     3
100
AcDbText
 10
58.580382500334
 20
43.40279602162
 30
0.0
 40
3.985987650442
  1
Aligned alignment
 50
284.036243467927
  7
Stacked
 71
     2
 72
     3
 11
63.580382500334
 21
44.65279602162
 31
0.0
100
AcDbText
  0
LINE
  5
F4B
330
17
100
AcDbEntity
  8
0
 62
     5
100
AcDbLine
 10
58.580382500334
 20
43.40279602162
 30
0.0
 11
63.580382500334
 21
44.65279602162
 31
0.0
  0
TEXT
  5
F4C
330
17
100
AcDbEntity
  8
0
 62
     3
100
AcDbText
 10
63.580382500334
 20
44.65279602162
 30
0.0
 40
0.625
  1
Fit alignment
  7
Stacked
 71
     2
 72
     5
 11
63.580382500334
 21
44.65279602162
 31
0.0
100
AcDbText
  0
LINE
  5
F4D
330
17
100
AcDbEntity
  8
0
 62
     5
100
AcDbLine
 10
58.580382500334
 20
45.90279602162
 30
0.0
 11
63.580382500334
 21
44.65279602162
 31
0.0
  0
LINE
  5
F4E
330
17
100
AcDbEntity
  8
0
 62
     5
100
AcDbLine
 10
58.461532812275
 20
52.00972533249
 30
0.0
 11
58.461532812275
 21
58.472390317414
 31
0.0
  0
LINE
  5
F4F
330
17
100
AcDbEntity
  8
0
 62
     5
100
AcDbLine
 10
63.461532812275
 20
52.00972533249
 30
0.0
 11
63.461532812275
 21
58.472390317414
 31
0.0
  0
LINE
  5
F50
330
17
100
AcDbEntity
  8
0
 62
     5
100
AcDbLine
 10
68.461532812275
 20
52.00972533249
 30
0.0
 11
68.461532812275
 21
58.472390317414
 31
0.0
  0
LINE
  5
F51
330
17
100
AcDbEntity
  8
0
 62
     5
100
AcDbLine
 10
58.461532812275
 20
49.184665112929
 30
0.0
 11
68.461532812275
 21
49.184665112929
 31
0.0
  0
TEXT
  5
F52
330
17
100
AcDbEntity
  8
0
 62
     3
100
AcDbText
 10
58.461532812275
 20
47.707476144289
 30
0.0
 40
0.2
  1
Baseline...
  7
Stacked
 71
     2
100
AcDbText
  0
TEXT
  5
F53
330
17
100
AcDbEntity
  8
0
 62
     3
100
AcDbText
 10
58.461532812275
 20
49.184665112929
 30
0.0
 40
0.2
  1
Left...
  7
Stacked
 71
     2
100
AcDbText
  0
TEXT
  5
F54
330
17
100
AcDbEntity
  8
0
 62
     3
100
AcDbText
 10
63.461532812275
 20
49.084665112929
 30
0.0
 40
0.2
  1
Center...
  7
Stacked
 71
     2
 72
     1
 11
63.461532812275
 21
49.184665112929
 31
0.0
100
AcDbText
  0
TEXT
  5
F55
330
17
100
AcDbEntity
  8
0
 62
     3
100
AcDbText
 10
68.461532812275
 20
49.043265112929
 30
0.0
 40
0.2
  1
Right...
  7
Stacked
 71
     2
 72
     2
 11
68.461532812275
 21
49.184665112929
 31
0.0
100
AcDbText
  0
LINE
  5
F56
330
17
100
AcDbEntity
  8
0
 62
     5
100
AcDbLine
 10
58.461532812275
 20
52.00972533249
 30
0.0
 11
68.461532812275
 21
52.00972533249
 31
0.0
  0
LINE
  5
F57
330
17
100
AcDbEntity
  8
0
 62
     5
100
AcDbLine
 10
58.461532812275
 20
55.241057824952
 30
0.0
 11
68.461532812275
 21
55.241057824952
 31
0.0
  0
LINE
  5
F58
330
17
100
AcDbEntity
  8
0
 62
     5
100
AcDbLine
 10
58.461532812275
 20
58.472390317414
 30
0.0
 11
68.461532812275
 21
58.472390317414
 31
0.0
  0
CIRCLE
  5
F59
330
17
100
AcDbEntity
  8
INSERT_POINTS
 62
     1
100
AcDbCircle
 10
58.580382500334
 20
43.40279602162
 30
0.0
 40
0.025
  0
CIRCLE
  5
F5A
330
17
100
AcDbEntity
  8
INSERT_POINTS
 62
     2
100
AcDbCircle
 10
63.580382500334
 20
44.65279602162
 30
0.0
 40
0.01875
  0
CIRCLE
  5
F5B
330
17
100
AcDbEntity
  8
INSERT_POINTS
 62
     1
100
AcDbCircle
 10
58.580382500334
 20
45.90279602162
 30
0.0
 40
0.025
  0
CIRCLE
  5
F5C
330
17
100
AcDbEntity
  8
INSERT_POINTS
 62
     2
100
AcDbCircle
 10
63.580382500334
 20
44.65279602162
 30
0.0
 40
0.01875
  0
CIRCLE
  5
F5D
330
17
100
AcDbEntity
  8
INSERT_POINTS
 62
     1
100
AcDbCircle
 10
58.461532812275
 20
47.707476144289
 30
0.0
 40
0.1
  0
CIRCLE
  5
F5E
330
17
100
AcDbEntity
  8
INSERT_POINTS
 62
     2
100
AcDbCircle
 10
58.461532812275
 20
47.707476144289
 30
0.0
 40
0.075
  0
CIRCLE
  5
F5F
330
17
100
AcDbEntity
  8
INSERT_POINTS
 62
     1
100
AcDbCircle
 10
58.461532812275
 20
49.184665112929
 30
0.0
 40
0.1
  0
CIRCLE
  5
F60
330
17
100
AcDbEntity
  8
INSERT_POINTS
 62
     2
100
AcDbCircle
 10
58.461532812275
 20
49.184665112929
 30
0.0
 40
0.075
  0
CIRCLE
  5
F61
330
17
100
AcDbEntity
  8
INSERT_POINTS
 62
     1
100
AcDbCircle
 10
63.461532812275
 20
49.184665112929
 30
0.0
 40
0.1
  0
CIRCLE
  5
F62
330
17
100
AcDbEntity
  8
INSERT_POINTS
 62
     2
100
AcDbCircle
 10
63.461532812275
 20
49.184665112929
 30
0.0
 40
0.075
  0
CIRCLE
  5
F63
330
17
100
AcDbEntity
  8
INSERT_POINTS
 62
     1
100
AcDbCircle
 10
68.461532812275
 20
49.184665112929
 30
0.0
 40
0.1
  0
CIRCLE
  5
F64
330
17
100
AcDbEntity
  8
INSERT_POINTS
 62
     2
100
AcDbCircle
 10
68.461532812275
 20
49.184665112929
 30
0.0
 40
0.075
  0
CIRCLE
  5
F65
330
17
100
AcDbEntity
  8
INSERT_POINTS
 62
     1
100
AcDbCircle
 10
58.461532812275
 20
52.00972533249
 30
0.0
 40
0.1
  0
CIRCLE
  5
F66
330
17
100
AcDbEntity
  8
INSERT_POINTS
 62
     2
100
AcDbCircle
 10
58.461532812275
 20
52.00972533249
 30
0.0
 40
0.075
  0
CIRCLE
  5
F67
330
17
100
AcDbEntity
  8
INSERT_POINTS
 62
     1
100
AcDbCircle
 10
63.461532812275
 20
52.00972533249
 30
0.0
 40
0.1
  0
CIRCLE
  5
F68
330
17
100
AcDbEntity
  8
INSERT_POINTS
 62
     2
100
AcDbCircle
 10
63.461532812275
 20
52.00972533249
 30
0.0
 40
0.075
  0
CIRCLE
  5
F69
330
17
100
AcDbEntity
  8
INSERT_POINTS
 62
     1
100
AcDbCircle
 10
68.461532812275
 20
52.00972533249
 30
0.0
 40
0.1
  0
CIRCLE
  5
F6A
330
17
100
AcDbEntity
  8
INSERT_POINTS
 62
     2
100
AcDbCircle
 10
68.461532812275
 20
52.00972533249
 30
0.0
 40
0.075
  0
CIRCLE
  5
F6B
330
17
100
AcDbEntity
  8
INSERT_POINTS
 62
     1
100
AcDbCircle
 10
58.461532812275
 20
55.241057824952
 30
0.0
 40
0.1
  0
CIRCLE
  5
F6C
330
17
100
AcDbEntity
  8
INSERT_POINTS
 62
     2
100
AcDbCircle
 10
58.461532812275
 20
55.241057824952
 30
0.0
 40
0.075
  0
CIRCLE
  5
F6D
330
17
100
AcDbEntity
  8
INSERT_POINTS
 62
     1
100
AcDbCircle
 10
63.461532812275
 20
55.241057824952
 30
0.0
 40
0.1
  0
CIRCLE
  5
F6E
330
17
100
AcDbEntity
  8
INSERT_POINTS
 62
     2
100
AcDbCircle
 10
63.461532812275
 20
55.241057824952
 30
0.0
 40
0.075
  0
CIRCLE
  5
F6F
330
17
100
AcDbEntity
  8
INSERT_POINTS
 62
     1
100
AcDbCircle
 10
68.461532812275
 20
55.241057824952
 30
0.0
 40
0.1
  0
CIRCLE
  5
F70
330
17
100
AcDbEntity
  8
INSERT_POINTS
 62
     2
100
AcDbCircle
 10
68.461532812275
 20
55.241057824952
 30
0.0
 40
0.075
  0
CIRCLE
  5
F71
330
17
100
AcDbEntity
  8
INSERT_POINTS
 62
     1
100
AcDbCircle
 10
58.461532812275
 20
58.472390317414
 30
0.0
 40
0.1
  0
CIRCLE
  5
F72
330
17
100
AcDbEntity
  8
INSERT_POINTS
 62
     2
100
AcDbCircle
 10
58.461532812275
 20
58.472390317414
 30
0.0
 40
0.075
  0
CIRCLE
  5
F73
330
17
100
AcDbEntity
  8
INSERT_POINTS
 62
     1
100
AcDbCircle
 10
63.461532812275
 20
58.472390317414
 30
0.0
 40
0.1
  0
CIRCLE
  5
F74
330
17
100
AcDbEntity
  8
INSERT_POINTS
 62
     2
100
AcDbCircle
 10
63.461532812275
 20
58.472390317414
 30
0.0
 40
0.075
  0
CIRCLE
  5
F75
330
17
100
AcDbEntity
  8
INSERT_POINTS
 62
     1
100
AcDbCircle
 10
68.461532812275
 20
58.472390317414
 30
0.0
 40
0.1
  0
CIRCLE
  5
F76
330
17
100
AcDbEntity
  8
INSERT_POINTS
 62
     2
100
AcDbCircle
 10
68.461532812275
 20
58.472390317414
 30
0.0
 40
0.075
  0
LINE
  5
F77
330
17
100
AcDbEntity
  8
0
 62
     5
100
AcDbLine
 10
66.467385803915
 20
43.958448868075
 30
0.0
 11
66.467385803915
 21
45.981936153217
 31
0.0
  0
LINE
  5
F78
330
17
100
AcDbEntity
  8
0
 62
     5
100
AcDbLine
 10
65.053417166587
 20
44.970192510646
 30
0.0
 11
67.881354441244
 21
44.970192510646
 31
0.0
  0
TEXT
  5
F79
330
17
100
AcDbEntity
  8
0
 62
     3
100
AcDbText
 10
66.467385803915
 20
44.899492510646
 30
0.0
 40
0.2
  1
Middle alignment
  7
Stacked
 71
     2
 72
     4
 11
66.467385803915
 21
44.970192510646
 31
0.0
100
AcDbText
  0
CIRCLE
  5
F7A
330
17
100
AcDbEntity
  8
INSERT_POINTS
 62
     1
100
AcDbCircle
 10
66.467385803915
 20
44.970192510646
 30
0.0
 40
0.1
  0
CIRCLE
  5
F7B
330
17
100
AcDbEntity
  8
INSERT_POINTS
 62
     2
100
AcDbCircle
 10
66.467385803915
 20
44.970192510646
 30
0.0
 40
0.075
  0
LINE
  5
F7C
330
17
100
AcDbEntity
  8
0
 62
     5
100
AcDbLine
 10
58.461532812275
 20
47.707476144289
 30
0.0
 11
68.461532812275
 21
47.707476144289
 31
0.0
  0
TEXT
  5
F7D
330
17
100
AcDbEntity
  8
0
 62
     3
100
AcDbText
 10
58.461532812275
 20
60.936925482203
 30
0.0
 40
0.5
  1
MIRROR-X (BACKWARD)
 41
0.75
100
AcDbText
  0
TEXT
  5
F7F
330
17
100
AcDbEntity
  8
0
 62
     2
100
AcDbText
 10
58.461532812275
 20
58.472390317414
 30
0.0
 40
0.2
  1
Top-Left
  7
Stacked
 71
     6
 11
58.461532812275
 21
58.472390317414
 31
0.0
100
AcDbText
 73
     3
  0
TEXT
  5
F80
330
17
100
AcDbEntity
  8
0
 62
     2
100
AcDbText
 10
63.461532812275
 20
58.546390317414
 30
0.0
 40
0.2
  1
Top-Center...
  7
Stacked
 71
     6
 72
     1
 11
63.461532812275
 21
58.472390317414
 31
0.0
100
AcDbText
 73
     3
  0
TEXT
  5
F81
330
17
100
AcDbEntity
  8
0
 62
     2
100
AcDbText
 10
68.461532812275
 20
58.613790317414
 30
0.0
 40
0.2
  1
Top-Right
  7
Stacked
 71
     6
 72
     2
 11
68.461532812275
 21
58.472390317414
 31
0.0
100
AcDbText
 73
     3
  0
TEXT
  5
F82
330
17
100
AcDbEntity
  8
0
 62
     2
100
AcDbText
 10
58.461532812275
 20
55.241057824952
 30
0.0
 40
0.2
  1
Middle-Left
  7
Stacked
 71
     6
 11
58.461532812275
 21
55.241057824952
 31
0.0
100
AcDbText
 73
     2
  0
TEXT
  5
F83
330
17
100
AcDbEntity
  8
0
 62
     2
100
AcDbText
 10
63.461532812275
 20
55.341057824952
 30
0.0
 40
0.2
  1
Middle-Center...
  7
Stacked
 71
     6
 72
     1
 11
63.461532812275
 21
55.241057824952
 31
0.0
100
AcDbText
 73
     2
  0
TEXT
  5
F84
330
17
100
AcDbEntity
  8
0
 62
     2
100
AcDbText
 10
68.461532812275
 20
55.382457824952
 30
0.0
 40
0.2
  1
Middle-Right
  7
Stacked
 71
     6
 72
     2
 11
68.461532812275
 21
55.241057824952
 31
0.0
100
AcDbText
 73
     2
  0
TEXT
  5
F85
330
17
100
AcDbEntity
  8
0
 62
     2
100
AcDbText
 10
58.461532812275
 20
52.00972533249
 30
0.0
 40
0.2
  1
Bottom-Left...
  7
Stacked
 71
     6
 11
58.461532812275
 21
52.00972533249
 31
0.0
100
AcDbText
 73
     1
  0
TEXT
  5
F86
330
17
100
AcDbEntity
  8
0
 62
     2
100
AcDbText
 10
63.461532812275
 20
52.10972533249
 30
0.0
 40
0.2
  1
Bottom-Center...
  7
Stacked
 71
     6
 72
     1
 11
63.461532812275
 21
52.00972533249
 31
0.0
100
AcDbText
 73
     1
  0
TEXT
  5
F87
330
17
100
AcDbEntity
  8
0
 62
     2
100
AcDbText
 10
68.461532812275
 20
52.15112533249
 30
0.0
 40
0.2
  1
Bottom-Right...
  7
Stacked
 71
     6
 72
     2
 11
68.461532812275
 21
52.00972533249
 31
0.0
100
AcDbText
 73
     1
  0
TEXT
  5
F8C
330
17
100
AcDbEntity
  8
0
 62
     1
100
AcDbText
 10
52.509682261017
 20
40.657634476691
 30
0.0
 40
0.5
  1
That is unexpected!
 41
0.75
100
AcDbText
  0
TEXT
  5
F8D
330
17
100
AcDbEntity
  8
0
 62
     1
100
AcDbText
 10
0.0
 20
33.11726265119
 30
0.0
 40
0.5
  1
But in different ways :-)
 41
0.75
100
AcDbText
  0
TEXT
  5
F91
330
17
100
AcDbEntity
  8
0
 62
     3
100
AcDbText
 10
74.32752245882
 20
43.40279602162
 30
0.0
 40
3.985987650442
  1
Aligned alignment
 50
104.036243467926
  7
Stacked
 71
     4
 72
     3
 11
79.32752245882
 21
44.65279602162
 31
0.0
100
AcDbText
  0
LINE
  5
F92
330
17
100
AcDbEntity
  8
0
 62
     5
100
AcDbLine
 10
74.32752245882
 20
43.40279602162
 30
0.0
 11
79.32752245882
 21
44.65279602162
 31
0.0
  0
TEXT
  5
F93
330
17
100
AcDbEntity
  8
0
 62
     3
100
AcDbText
 10
79.32752245882
 20
44.65279602162
 30
0.0
 40
0.625
  1
Fit alignment
  7
Stacked
 71
     4
 72
     5
 11
79.32752245882
 21
44.65279602162
 31
0.0
100
AcDbText
  0
LINE
  5
F94
330
17
100
AcDbEntity
  8
0
 62
     5
100
AcDbLine
 10
74.32752245882
 20
45.90279602162
 30
0.0
 11
79.32752245882
 21
44.65279602162
 31
0.0
  0
LINE
  5
F95
330
17
100
AcDbEntity
  8
0
 62
     5
100
AcDbLine
 10
74.208672770761
 20
52.00972533249
 30
0.0
 11
74.208672770761
 21
58.472390317414
 31
0.0
  0
LINE
  5
F96
330
17
100
AcDbEntity
  8
0
 62
     5
100
AcDbLine
 10
79.208672770761
 20
52.00972533249
 30
0.0
 11
79.208672770761
 21
58.472390317414
 31
0.0
  0
LINE
  5
F97
330
17
100
AcDbEntity
  8
0
 62
     5
100
AcDbLine
 10
84.208672770761
 20
52.00972533249
 30
0.0
 11
84.208672770761
 21
58.472390317414
 31
0.0
  0
LINE
  5
F98
330
17
100
AcDbEntity
  8
0
 62
     5
100
AcDbLine
 10
74.208672770761
 20
49.184665112929
 30
0.0
 11
84.208672770761
 21
49.184665112929
 31
0.0
  0
TEXT
  5
F99
330
17
100
AcDbEntity
  8
0
 62
     3
100
AcDbText
 10
74.208672770761
 20
47.707476144289
 30
0.0
 40
0.2
  1
Baseline...
  7
Stacked
 71
     4
100
AcDbText
  0
TEXT
  5
F9A
330
17
100
AcDbEntity
  8
0
 62
     3
100
AcDbText
 10
74.208672770761
 20
49.184665112929
 30
0.0
 40
0.2
  1
Left...
  7
Stacked
 71
     4
100
AcDbText
  0
TEXT
  5
F9B
330
17
100
AcDbEntity
  8
0
 62
     3
100
AcDbText
 10
79.208672770761
 20
49.284665112929
 30
0.0
 40
0.2
  1
Center...
  7
Stacked
 71
     4
 72
     1
 11
79.208672770761
 21
49.184665112929
 31
0.0
100
AcDbText
  0
TEXT
  5
F9C
330
17
100
AcDbEntity
  8
0
 62
     3
100
AcDbText
 10
84.208672770761
 20
49.326065112929
 30
0.0
 40
0.2
  1
Right...
  7
Stacked
 71
     4
 72
     2
 11
84.208672770761
 21
49.184665112929
 31
0.0
100
AcDbText
  0
LINE
  5
F9D
330
17
100
AcDbEntity
  8
0
 62
     5
100
AcDbLine
 10
74.208672770761
 20
52.00972533249
 30
0.0
 11
84.208672770761
 21
52.00972533249
 31
0.0
  0
LINE
  5
F9E
330
17
100
AcDbEntity
  8
0
 62
     5
100
AcDbLine
 10
74.208672770761
 20
55.241057824952
 30
0.0
 11
84.208672770761
 21
55.241057824952
 31
0.0
  0
LINE
  5
F9F
330
17
100
AcDbEntity
  8
0
 62
     5
100
AcDbLine
 10
74.208672770761
 20
58.472390317414
 30
0.0
 11
84.208672770761
 21
58.472390317414
 31
0.0
  0
CIRCLE
  5
FA0
330
17
100
AcDbEntity
  8
INSERT_POINTS
 62
     1
100
AcDbCircle
 10
74.32752245882
 20
43.40279602162
 30
0.0
 40
0.025
  0
CIRCLE
  5
FA1
330
17
100
AcDbEntity
  8
INSERT_POINTS
 62
     2
100
AcDbCircle
 10
79.32752245882
 20
44.65279602162
 30
0.0
 40
0.01875
  0
CIRCLE
  5
FA2
330
17
100
AcDbEntity
  8
INSERT_POINTS
 62
     1
100
AcDbCircle
 10
74.32752245882
 20
45.90279602162
 30
0.0
 40
0.025
  0
CIRCLE
  5
FA3
330
17
100
AcDbEntity
  8
INSERT_POINTS
 62
     2
100
AcDbCircle
 10
79.32752245882
 20
44.65279602162
 30
0.0
 40
0.01875
  0
CIRCLE
  5
FA4
330
17
100
AcDbEntity
  8
INSERT_POINTS
 62
     1
100
AcDbCircle
 10
74.208672770761
 20
47.707476144289
 30
0.0
 40
0.1
  0
CIRCLE
  5
FA5
330
17
100
AcDbEntity
  8
INSERT_POINTS
 62
     2
100
AcDbCircle
 10
74.208672770761
 20
47.707476144289
 30
0.0
 40
0.075
  0
CIRCLE
  5
FA6
330
17
100
AcDbEntity
  8
INSERT_POINTS
 62
     1
100
AcDbCircle
 10
74.208672770761
 20
49.184665112929
 30
0.0
 40
0.1
  0
CIRCLE
  5
FA7
330
17
100
AcDbEntity
  8
INSERT_POINTS
 62
     2
100
AcDbCircle
 10
74.208672770761
 20
49.184665112929
 30
0.0
 40
0.075
  0
CIRCLE
  5
FA8
330
17
100
AcDbEntity
  8
INSERT_POINTS
 62
     1
100
AcDbCircle
 10
79.208672770761
 20
49.184665112929
 30
0.0
 40
0.1
  0
CIRCLE
  5
FA9
330
17
100
AcDbEntity
  8
INSERT_POINTS
 62
     2
100
AcDbCircle
 10
79.208672770761
 20
49.184665112929
 30
0.0
 40
0.075
  0
CIRCLE
  5
FAA
330
17
100
AcDbEntity
  8
INSERT_POINTS
 62
     1
100
AcDbCircle
 10
84.208672770761
 20
49.184665112929
 30
0.0
 40
0.1
  0
CIRCLE
  5
FAB
330
17
100
AcDbEntity
  8
INSERT_POINTS
 62
     2
100
AcDbCircle
 10
84.208672770761
 20
49.184665112929
 30
0.0
 40
0.075
  0
CIRCLE
  5
FAC
330
17
100
AcDbEntity
  8
INSERT_POINTS
 62
     1
100
AcDbCircle
 10
74.208672770761
 20
52.00972533249
 30
0.0
 40
0.1
  0
CIRCLE
  5
FAD
330
17
100
AcDbEntity
  8
INSERT_POINTS
 62
     2
100
AcDbCircle
 10
74.208672770761
 20
52.00972533249
 30
0.0
 40
0.075
  0
CIRCLE
  5
FAE
330
17
100
AcDbEntity
  8
INSERT_POINTS
 62
     1
100
AcDbCircle
 10
79.208672770761
 20
52.00972533249
 30
0.0
 40
0.1
  0
CIRCLE
  5
FAF
330
17
100
AcDbEntity
  8
INSERT_POINTS
 62
     2
100
AcDbCircle
 10
79.208672770761
 20
52.00972533249
 30
0.0
 40
0.075
  0
CIRCLE
  5
FB0
330
17
100
AcDbEntity
  8
INSERT_POINTS
 62
     1
100
AcDbCircle
 10
84.208672770761
 20
52.00972533249
 30
0.0
 40
0.1
  0
CIRCLE
  5
FB1
330
17
100
AcDbEntity
  8
INSERT_POINTS
 62
     2
100
AcDbCircle
 10
84.208672770761
 20
52.00972533249
 30
0.0
 40
0.075
  0
CIRCLE
  5
FB2
330
17
100
AcDbEntity
  8
INSERT_POINTS
 62
     1
100
AcDbCircle
 10
74.208672770761
 20
55.241057824952
 30
0.0
 40
0.1
  0
CIRCLE
  5
FB3
330
17
100
AcDbEntity
  8
INSERT_POINTS
 62
     2
100
AcDbCircle
 10
74.208672770761
 20
55.241057824952
 30
0.0
 40
0.075
  0
CIRCLE
  5
FB4
330
17
100
AcDbEntity
  8
INSERT_POINTS
 62
     1
100
AcDbCircle
 10
79.208672770761
 20
55.241057824952
 30
0.0
 40
0.1
  0
CIRCLE
  5
FB5
330
17
100
AcDbEntity
  8
INSERT_POINTS
 62
     2
100
AcDbCircle
 10
79.208672770761
 20
55.241057824952
 30
0.0
 40
0.075
  0
CIRCLE
  5
FB6
330
17
100
AcDbEntity
  8
INSERT_POINTS
 62
     1
100
AcDbCircle
 10
84.208672770761
 20
55.241057824952
 30
0.0
 40
0.1
  0
CIRCLE
  5
FB7
330
17
100
AcDbEntity
  8
INSERT_POINTS
 62
     2
100
AcDbCircle
 10
84.208672770761
 20
55.241057824952
 30
0.0
 40
0.075
  0
CIRCLE
  5
FB8
330
17
100
AcDbEntity
  8
INSERT_POINTS
 62
     1
100
AcDbCircle
 10
74.208672770761
 20
58.472390317414
 30
0.0
 40
0.1
  0
CIRCLE
  5
FB9
330
17
100
AcDbEntity
  8
INSERT_POINTS
 62
     2
100
AcDbCircle
 10
74.208672770761
 20
58.472390317414
 30
0.0
 40
0.075
  0
CIRCLE
  5
FBA
330
17
100
AcDbEntity
  8
INSERT_POINTS
 62
     1
100
AcDbCircle
 10
79.208672770761
 20
58.472390317414
 30
0.0
 40
0.1
  0
CIRCLE
  5
FBB
330
17
100
AcDbEntity
  8
INSERT_POINTS
 62
     2
100
AcDbCircle
 10
79.208672770761
 20
58.472390317414
 30
0.0
 40
0.075
  0
CIRCLE
  5
FBC
330
17
100
AcDbEntity
  8
INSERT_POINTS
 62
     1
100
AcDbCircle
 10
84.208672770761
 20
58.472390317414
 30
0.0
 40
0.1
  0
CIRCLE
  5
FBD
330
17
100
AcDbEntity
  8
INSERT_POINTS
 62
     2
100
AcDbCircle
 10
84.208672770761
 20
58.472390317414
 30
0.0
 40
0.075
  0
LINE
  5
FBE
330
17
100
AcDbEntity
  8
0
 62
     5
100
AcDbLine
 10
82.214525762401
 20
43.958448868075
 30
0.0
 11
82.214525762401
 21
45.981936153217
 31
0.0
  0
LINE
  5
FBF
330
17
100
AcDbEntity
  8
0
 62
     5
100
AcDbLine
 10
80.800557125073
 20
44.970192510646
 30
0.0
 11
83.62849439973
 21
44.970192510646
 31
0.0
  0
TEXT
  5
FC0
330
17
100
AcDbEntity
  8
0
 62
     3
100
AcDbText
 10
82.214525762401
 20
45.040892510646
 30
0.0
 40
0.2
  1
Middle alignment
  7
Stacked
 71
     4
 72
     4
 11
82.214525762401
 21
44.970192510646
 31
0.0
100
AcDbText
  0
CIRCLE
  5
FC1
330
17
100
AcDbEntity
  8
INSERT_POINTS
 62
     1
100
AcDbCircle
 10
82.214525762401
 20
44.970192510646
 30
0.0
 40
0.1
  0
CIRCLE
  5
FC2
330
17
100
AcDbEntity
  8
INSERT_POINTS
 62
     2
100
AcDbCircle
 10
82.214525762401
 20
44.970192510646
 30
0.0
 40
0.075
  0
LINE
  5
FC3
330
17
100
AcDbEntity
  8
0
 62
     5
100
AcDbLine
 10
74.208672770761
 20
47.707476144289
 30
0.0
 11
84.208672770761
 21
47.707476144289
 31
0.0
  0
TEXT
  5
FC4
330
17
100
AcDbEntity
  8
0
 62
     3
100
AcDbText
 10
74.208672770761
 20
60.936925482203
 30
0.0
 40
0.5
  1
MIRROR-Y (UPSIDE DOWN)
 41
0.75
100
AcDbText
  0
TEXT
  5
FC6
330
17
100
AcDbEntity
  8
0
 62
     2
100
AcDbText
 10
74.208672770761
 20
58.472390317414
 30
0.0
 40
0.2
  1
Top-Left
  7
Stacked
 71
     6
 11
74.208672770761
 21
58.472390317414
 31
0.0
100
AcDbText
 73
     3
  0
TEXT
  5
FC7
330
17
100
AcDbEntity
  8
0
 62
     2
100
AcDbText
 10
79.208672770761
 20
58.546390317414
 30
0.0
 40
0.2
  1
Top-Center...
  7
Stacked
 71
     6
 72
     1
 11
79.208672770761
 21
58.472390317414
 31
0.0
100
AcDbText
 73
     3
  0
TEXT
  5
FC8
330
17
100
AcDbEntity
  8
0
 62
     2
100
AcDbText
 10
84.208672770761
 20
58.613790317414
 30
0.0
 40
0.2
  1
Top-Right
  7
Stacked
 71
     6
 72
     2
 11
84.208672770761
 21
58.472390317414
 31
0.0
100
AcDbText
 73
     3
  0
TEXT
  5
FC9
330
17
100
AcDbEntity
  8
0
 62
     2
100
AcDbText
 10
74.208672770761
 20
55.241057824952
 30
0.0
 40
0.2
  1
Middle-Left
  7
Stacked
 71
     6
 11
74.208672770761
 21
55.241057824952
 31
0.0
100
AcDbText
 73
     2
  0
TEXT
  5
FCA
330
17
100
AcDbEntity
  8
0
 62
     2
100
AcDbText
 10
79.208672770761
 20
55.341057824952
 30
0.0
 40
0.2
  1
Middle-Center...
  7
Stacked
 71
     6
 72
     1
 11
79.208672770761
 21
55.241057824952
 31
0.0
100
AcDbText
 73
     2
  0
TEXT
  5
FCB
330
17
100
AcDbEntity
  8
0
 62
     2
100
AcDbText
 10
84.208672770761
 20
55.382457824952
 30
0.0
 40
0.2
  1
Middle-Right
  7
Stacked
 71
     6
 72
     2
 11
84.208672770761
 21
55.241057824952
 31
0.0
100
AcDbText
 73
     2
  0
TEXT
  5
FCC
330
17
100
AcDbEntity
  8
0
 62
     2
100
AcDbText
 10
74.208672770761
 20
52.00972533249
 30
0.0
 40
0.2
  1
Bottom-Left...
  7
Stacked
 71
     6
 11
74.208672770761
 21
52.00972533249
 31
0.0
100
AcDbText
 73
     1
  0
TEXT
  5
FCD
330
17
100
AcDbEntity
  8
0
 62
     2
100
AcDbText
 10
79.208672770761
 20
52.10972533249
 30
0.0
 40
0.2
  1
Bottom-Center...
  7
Stacked
 71
     6
 72
     1
 11
79.208672770761
 21
52.00972533249
 31
0.0
100
AcDbText
 73
     1
  0
TEXT
  5
FCE
330
17
100
AcDbEntity
  8
0
 62
     2
100
AcDbText
 10
84.208672770761
 20
52.15112533249
 30
0.0
 40
0.2
  1
Bottom-Right...
  7
Stacked
 71
     6
 72
     2
 11
84.208672770761
 21
52.00972533249
 31
0.0
100
AcDbText
 73
     1
  0
TEXT
  5
FD2
330
17
100
AcDbEntity
  8
0
 62
     3
100
AcDbText
 10
15.236104048206
 20
43.40279602162
 30
0.0
 40
3.985987650442
  1
Aligned alignment
 50
104.036243467926
  7
Stacked
 72
     3
 11
20.236104048206
 21
44.65279602162
 31
0.0
100
AcDbText
  0
LINE
  5
FD3
330
17
100
AcDbEntity
  8
0
 62
     5
100
AcDbLine
 10
15.236104048206
 20
43.40279602162
 30
0.0
 11
20.236104048206
 21
44.65279602162
 31
0.0
  0
TEXT
  5
FD4
330
17
100
AcDbEntity
  8
0
 62
     3
100
AcDbText
 10
20.236104048206
 20
44.65279602162
 30
0.0
 40
0.625
  1
Fit alignment
  7
Stacked
 72
     5
 11
20.236104048206
 21
44.65279602162
 31
0.0
100
AcDbText
  0
LINE
  5
FD5
330
17
100
AcDbEntity
  8
0
 62
     5
100
AcDbLine
 10
15.236104048206
 20
45.90279602162
 30
0.0
 11
20.236104048206
 21
44.65279602162
 31
0.0
  0
LINE
  5
FD6
330
17
100
AcDbEntity
  8
0
 62
     5
100
AcDbLine
 10
15.117254360147
 20
52.00972533249
 30
0.0
 11
15.117254360147
 21
58.472390317414
 31
0.0
  0
LINE
  5
FD7
330
17
100
AcDbEntity
  8
0
 62
     5
100
AcDbLine
 10
20.117254360147
 20
52.00972533249
 30
0.0
 11
20.117254360147
 21
58.472390317414
 31
0.0
  0
LINE
  5
FD8
330
17
100
AcDbEntity
  8
0
 62
     5
100
AcDbLine
 10
25.117254360147
 20
52.00972533249
 30
0.0
 11
25.117254360147
 21
58.472390317414
 31
0.0
  0
LINE
  5
FD9
330
17
100
AcDbEntity
  8
0
 62
     5
100
AcDbLine
 10
15.117254360147
 20
49.184665112929
 30
0.0
 11
25.117254360147
 21
49.184665112929
 31
0.0
  0
TEXT
  5
FDA
330
17
100
AcDbEntity
  8
0
 62
     3
100
AcDbText
 10
15.117254360147
 20
47.707476144289
 30
0.0
 40
0.2
  1
Baseline...
 41
2.0
  7
Stacked
100
AcDbText
  0
TEXT
  5
FDB
330
17
100
AcDbEntity
  8
0
 62
     3
100
AcDbText
 10
15.117254360147
 20
49.184665112929
 30
0.0
 40
0.2
  1
Left...
 41
2.0
  7
Stacked
100
AcDbText
  0
TEXT
  5
FDC
330
17
100
AcDbEntity
  8
0
 62
     3
100
AcDbText
 10
20.117254360147
 20
49.084665112929
 30
0.0
 40
0.2
  1
Center...
 41
2.0
  7
Stacked
 72
     1
 11
20.117254360147
 21
49.184665112929
 31
0.0
100
AcDbText
  0
TEXT
  5
FDD
330
17
100
AcDbEntity
  8
0
 62
     3
100
AcDbText
 10
25.117254360147
 20
49.043265112929
 30
0.0
 40
0.2
  1
Right...
 41
2.0
  7
Stacked
 72
     2
 11
25.117254360147
 21
49.184665112929
 31
0.0
100
AcDbText
  0
LINE
  5
FDE
330
17
100
AcDbEntity
  8
0
 62
     5
100
AcDbLine
 10
15.117254360147
 20
52.00972533249
 30
0.0
 11
25.117254360147
 21
52.00972533249
 31
0.0
  0
LINE
  5
FDF
330
17
100
AcDbEntity
  8
0
 62
     5
100
AcDbLine
 10
15.117254360147
 20
55.241057824952
 30
0.0
 11
25.117254360147
 21
55.241057824952
 31
0.0
  0
LINE
  5
FE0
330
17
100
AcDbEntity
  8
0
 62
     5
100
AcDbLine
 10
15.117254360147
 20
58.472390317414
 30
0.0
 11
25.117254360147
 21
58.472390317414
 31
0.0
  0
CIRCLE
  5
FE1
330
17
100
AcDbEntity
  8
INSERT_POINTS
 62
     1
100
AcDbCircle
 10
15.236104048206
 20
43.40279602162
 30
0.0
 40
0.025
  0
CIRCLE
  5
FE2
330
17
100
AcDbEntity
  8
INSERT_POINTS
 62
     2
100
AcDbCircle
 10
20.236104048206
 20
44.65279602162
 30
0.0
 40
0.01875
  0
CIRCLE
  5
FE3
330
17
100
AcDbEntity
  8
INSERT_POINTS
 62
     1
100
AcDbCircle
 10
15.236104048206
 20
45.90279602162
 30
0.0
 40
0.025
  0
CIRCLE
  5
FE4
330
17
100
AcDbEntity
  8
INSERT_POINTS
 62
     2
100
AcDbCircle
 10
20.236104048206
 20
44.65279602162
 30
0.0
 40
0.01875
  0
CIRCLE
  5
FE5
330
17
100
AcDbEntity
  8
INSERT_POINTS
 62
     1
100
AcDbCircle
 10
15.117254360147
 20
47.707476144289
 30
0.0
 40
0.1
  0
CIRCLE
  5
FE6
330
17
100
AcDbEntity
  8
INSERT_POINTS
 62
     2
100
AcDbCircle
 10
15.117254360147
 20
47.707476144289
 30
0.0
 40
0.075
  0
CIRCLE
  5
FE7
330
17
100
AcDbEntity
  8
INSERT_POINTS
 62
     1
100
AcDbCircle
 10
15.117254360147
 20
49.184665112929
 30
0.0
 40
0.1
  0
CIRCLE
  5
FE8
330
17
100
AcDbEntity
  8
INSERT_POINTS
 62
     2
100
AcDbCircle
 10
15.117254360147
 20
49.184665112929
 30
0.0
 40
0.075
  0
CIRCLE
  5
FE9
330
17
100
AcDbEntity
  8
INSERT_POINTS
 62
     1
100
AcDbCircle
 10
20.117254360147
 20
49.184665112929
 30
0.0
 40
0.1
  0
CIRCLE
  5
FEA
330
17
100
AcDbEntity
  8
INSERT_POINTS
 62
     2
100
AcDbCircle
 10
20.117254360147
 20
49.184665112929
 30
0.0
 40
0.075
  0
CIRCLE
  5
FEB
330
17
100
AcDbEntity
  8
INSERT_POINTS
 62
     1
100
AcDbCircle
 10
25.117254360147
 20
49.184665112929
 30
0.0
 40
0.1
  0
CIRCLE
  5
FEC
330
17
100
AcDbEntity
  8
INSERT_POINTS
 62
     2
100
AcDbCircle
 10
25.117254360147
 20
49.184665112929
 30
0.0
 40
0.075
  0
CIRCLE
  5
FED
330
17
100
AcDbEntity
  8
INSERT_POINTS
 62
     1
100
AcDbCircle
 10
15.117254360147
 20
52.00972533249
 30
0.0
 40
0.1
  0
CIRCLE
  5
FEE
330
17
100
AcDbEntity
  8
INSERT_POINTS
 62
     2
100
AcDbCircle
 10
15.117254360147
 20
52.00972533249
 30
0.0
 40
0.075
  0
CIRCLE
  5
FEF
330
17
100
AcDbEntity
  8
INSERT_POINTS
 62
     1
100
AcDbCircle
 10
20.117254360147
 20
52.00972533249
 30
0.0
 40
0.1
  0
CIRCLE
  5
FF0
330
17
100
AcDbEntity
  8
INSERT_POINTS
 62
     2
100
AcDbCircle
 10
20.117254360147
 20
52.00972533249
 30
0.0
 40
0.075
  0
CIRCLE
  5
FF1
330
17
100
AcDbEntity
  8
INSERT_POINTS
 62
     1
100
AcDbCircle
 10
25.117254360147
 20
52.00972533249
 30
0.0
 40
0.1
  0
CIRCLE
  5
FF2
330
17
100
AcDbEntity
  8
INSERT_POINTS
 62
     2
100
AcDbCircle
 10
25.117254360147
 20
52.00972533249
 30
0.0
 40
0.075
  0
CIRCLE
  5
FF3
330
17
100
AcDbEntity
  8
INSERT_POINTS
 62
     1
100
AcDbCircle
 10
15.117254360147
 20
55.241057824952
 30
0.0
 40
0.1
  0
CIRCLE
  5
FF4
330
17
100
AcDbEntity
  8
INSERT_POINTS
 62
     2
100
AcDbCircle
 10
15.117254360147
 20
55.241057824952
 30
0.0
 40
0.075
  0
CIRCLE
  5
FF5
330
17
100
AcDbEntity
  8
INSERT_POINTS
 62
     1
100
AcDbCircle
 10
20.117254360147
 20
55.241057824952
 30
0.0
 40
0.1
  0
CIRCLE
  5
FF6
330
17
100
AcDbEntity
  8
INSERT_POINTS
 62
     2
100
AcDbCircle
 10
20.117254360147
 20
55.241057824952
 30
0.0
 40
0.075
  0
CIRCLE
  5
FF7
330
17
100
AcDbEntity
  8
INSERT_POINTS
 62
     1
100
AcDbCircle
 10
25.117254360147
 20
55.241057824952
 30
0.0
 40
0.1
  0
CIRCLE
  5
FF8
330
17
100
AcDbEntity
  8
INSERT_POINTS
 62
     2
100
AcDbCircle
 10
25.117254360147
 20
55.241057824952
 30
0.0
 40
0.075
  0
CIRCLE
  5
FF9
330
17
100
AcDbEntity
  8
INSERT_POINTS
 62
     1
100
AcDbCircle
 10
15.117254360147
 20
58.472390317414
 30
0.0
 40
0.1
  0
CIRCLE
  5
FFA
330
17
100
AcDbEntity
  8
INSERT_POINTS
 62
     2
100
AcDbCircle
 10
15.117254360147
 20
58.472390317414
 30
0.0
 40
0.075
  0
CIRCLE
  5
FFB
330
17
100
AcDbEntity
  8
INSERT_POINTS
 62
     1
100
AcDbCircle
 10
20.117254360147
 20
58.472390317414
 30
0.0
 40
0.1
  0
CIRCLE
  5
FFC
330
17
100
AcDbEntity
  8
INSERT_POINTS
 62
     2
100
AcDbCircle
 10
20.117254360147
 20
58.472390317414
 30
0.0
 40
0.075
  0
CIRCLE
  5
FFD
330
17
100
AcDbEntity
  8
INSERT_POINTS
 62
     1
100
AcDbCircle
 10
25.117254360147
 20
58.472390317414
 30
0.0
 40
0.1
  0
CIRCLE
  5
FFE
330
17
100
AcDbEntity
  8
INSERT_POINTS
 62
     2
100
AcDbCircle
 10
25.117254360147
 20
58.472390317414
 30
0.0
 40
0.075
  0
LINE
  5
FFF
330
17
100
AcDbEntity
  8
0
 62
     5
100
AcDbLine
 10
23.123107351787
 20
43.958448868075
 30
0.0
 11
23.123107351787
 21
45.981936153217
 31
0.0
  0
LINE
  5
1000
330
17
100
AcDbEntity
  8
0
 62
     5
100
AcDbLine
 10
21.709138714459
 20
44.970192510646
 30
0.0
 11
24.537075989116
 21
44.970192510646
 31
0.0
  0
TEXT
  5
1001
330
17
100
AcDbEntity
  8
0
 62
     3
100
AcDbText
 10
23.123107351787
 20
44.899492510646
 30
0.0
 40
0.2
  1
Middle alignment
 41
2.0
  7
Stacked
 72
     4
 11
23.123107351787
 21
44.970192510646
 31
0.0
100
AcDbText
  0
CIRCLE
  5
1002
330
17
100
AcDbEntity
  8
INSERT_POINTS
 62
     1
100
AcDbCircle
 10
23.123107351787
 20
44.970192510646
 30
0.0
 40
0.1
  0
CIRCLE
  5
1003
330
17
100
AcDbEntity
  8
INSERT_POINTS
 62
     2
100
AcDbCircle
 10
23.123107351787
 20
44.970192510646
 30
0.0
 40
0.075
  0
LINE
  5
1004
330
17
100
AcDbEntity
  8
0
 62
     5
100
AcDbLine
 10
15.117254360147
 20
47.707476144289
 30
0.0
 11
25.117254360147
 21
47.707476144289
 31
0.0
  0
TEXT
  5
1005
330
17
100
AcDbEntity
  8
0
 62
     3
100
AcDbText
 10
15.117254360147
 20
60.936925482203
 30
0.0
 40
0.5
  1
WIDTH FACTOR 2
 41
0.75
100
AcDbText
  0
TEXT
  5
1006
330
17
100
AcDbEntity
  8
0
 62
     2
100
AcDbText
 10
15.117254360147
 20
58.472390317414
 30
0.0
 40
0.2
  1
Top-Left
 41
2.0
  7
Stacked
 71
     6
 11
15.117254360147
 21
58.472390317414
 31
0.0
100
AcDbText
 73
     3
  0
TEXT
  5
1007
330
17
100
AcDbEntity
  8
0
 62
     2
100
AcDbText
 10
20.117254360147
 20
58.546390317414
 30
0.0
 40
0.2
  1
Top-Center...
 41
2.0
  7
Stacked
 71
     6
 72
     1
 11
20.117254360147
 21
58.472390317414
 31
0.0
100
AcDbText
 73
     3
  0
TEXT
  5
1008
330
17
100
AcDbEntity
  8
0
 62
     2
100
AcDbText
 10
25.117254360147
 20
58.613790317414
 30
0.0
 40
0.2
  1
Top-Right
 41
2.0
  7
Stacked
 71
     6
 72
     2
 11
25.117254360147
 21
58.472390317414
 31
0.0
100
AcDbText
 73
     3
  0
TEXT
  5
1009
330
17
100
AcDbEntity
  8
0
 62
     2
100
AcDbText
 10
15.117254360147
 20
55.241057824952
 30
0.0
 40
0.2
  1
Middle-Left
 41
2.0
  7
Stacked
 71
     6
 11
15.117254360147
 21
55.241057824952
 31
0.0
100
AcDbText
 73
     2
  0
TEXT
  5
100A
330
17
100
AcDbEntity
  8
0
 62
     2
100
AcDbText
 10
20.117254360147
 20
55.341057824952
 30
0.0
 40
0.2
  1
Middle-Center...
 41
2.0
  7
Stacked
 71
     6
 72
     1
 11
20.117254360147
 21
55.241057824952
 31
0.0
100
AcDbText
 73
     2
  0
TEXT
  5
100B
330
17
100
AcDbEntity
  8
0
 62
     2
100
AcDbText
 10
25.117254360147
 20
55.382457824952
 30
0.0
 40
0.2
  1
Middle-Right
 41
2.0
  7
Stacked
 71
     6
 72
     2
 11
25.117254360147
 21
55.241057824952
 31
0.0
100
AcDbText
 73
     2
  0
TEXT
  5
100C
330
17
100
AcDbEntity
  8
0
 62
     2
100
AcDbText
 10
15.117254360147
 20
52.00972533249
 30
0.0
 40
0.2
  1
Bottom-Left...
 41
2.0
  7
Stacked
 71
     6
 11
15.117254360147
 21
52.00972533249
 31
0.0
100
AcDbText
 73
     1
  0
TEXT
  5
100D
330
17
100
AcDbEntity
  8
0
 62
     2
100
AcDbText
 10
20.117254360147
 20
52.10972533249
 30
0.0
 40
0.2
  1
Bottom-Center...
 41
2.0
  7
Stacked
 71
     6
 72
     1
 11
20.117254360147
 21
52.00972533249
 31
0.0
100
AcDbText
 73
     1
  0
TEXT
  5
100E
330
17
100
AcDbEntity
  8
0
 62
     2
100
AcDbText
 10
25.117254360147
 20
52.15112533249
 30
0.0
 40
0.2
  1
Bottom-Right...
 41
2.0
  7
Stacked
 71
     6
 72
     2
 11
25.117254360147
 21
52.00972533249
 31
0.0
100
AcDbText
 73
     1
  0
TEXT
  5
100F
330
17
100
AcDbEntity
  8
0
 62
     3
100
AcDbText
 10
14.763359972102
 20
35.266872232825
 30
0.0
 40
0.5
  1
Width factor not applicable
 41
0.75
100
AcDbText
  0
TEXT
  5
1010
330
17
100
AcDbEntity
  8
0
 62
     3
100
AcDbText
 10
14.763359972102
 20
34.192067442008
 30
0.0
 40
0.5
  1
to FIT and ALIGNED
 41
0.75
100
AcDbText
  0
TEXT
  5
1014
330
17
100
AcDbEntity
  8
0
 62
     3
100
AcDbText
 10
90.200639536974
 20
43.40279602162
 30
0.0
 40
3.985987650442
  1
Aligned alignment
 50
284.036243467927
  7
Stacked
 71
     6
 72
     3
 11
95.200639536974
 21
44.65279602162
 31
0.0
100
AcDbText
  0
LINE
  5
1015
330
17
100
AcDbEntity
  8
0
 62
     5
100
AcDbLine
 10
90.200639536974
 20
43.40279602162
 30
0.0
 11
95.200639536974
 21
44.65279602162
 31
0.0
  0
TEXT
  5
1016
330
17
100
AcDbEntity
  8
0
 62
     3
100
AcDbText
 10
95.200639536974
 20
44.65279602162
 30
0.0
 40
0.625
  1
Fit alignment
  7
Stacked
 71
     6
 72
     5
 11
95.200639536974
 21
44.65279602162
 31
0.0
100
AcDbText
  0
LINE
  5
1017
330
17
100
AcDbEntity
  8
0
 62
     5
100
AcDbLine
 10
90.200639536974
 20
45.90279602162
 30
0.0
 11
95.200639536974
 21
44.65279602162
 31
0.0
  0
LINE
  5
1018
330
17
100
AcDbEntity
  8
0
 62
     5
100
AcDbLine
 10
90.081789848915
 20
52.00972533249
 30
0.0
 11
90.081789848915
 21
58.472390317414
 31
0.0
  0
LINE
  5
1019
330
17
100
AcDbEntity
  8
0
 62
     5
100
AcDbLine
 10
95.081789848915
 20
52.00972533249
 30
0.0
 11
95.081789848915
 21
58.472390317414
 31
0.0
  0
LINE
  5
101A
330
17
100
AcDbEntity
  8
0
 62
     5
100
AcDbLine
 10
100.081789848915
 20
52.00972533249
 30
0.0
 11
100.081789848915
 21
58.472390317414
 31
0.0
  0
LINE
  5
101B
330
17
100
AcDbEntity
  8
0
 62
     5
100
AcDbLine
 10
90.081789848915
 20
49.184665112929
 30
0.0
 11
100.081789848915
 21
49.184665112929
 31
0.0
  0
TEXT
  5
101C
330
17
100
AcDbEntity
  8
0
 62
     3
100
AcDbText
 10
90.081789848915
 20
47.707476144289
 30
0.0
 40
0.2
  1
Baseline...
  7
Stacked
 71
     6
100
AcDbText
  0
TEXT
  5
101D
330
17
100
AcDbEntity
  8
0
 62
     3
100
AcDbText
 10
90.081789848915
 20
49.184665112929
 30
0.0
 40
0.2
  1
Left...
  7
Stacked
 71
     6
100
AcDbText
  0
TEXT
  5
101E
330
17
100
AcDbEntity
  8
0
 62
     3
100
AcDbText
 10
95.081789848915
 20
49.284665112929
 30
0.0
 40
0.2
  1
Center...
  7
Stacked
 71
     6
 72
     1
 11
95.081789848915
 21
49.184665112929
 31
0.0
100
AcDbText
  0
TEXT
  5
101F
330
17
100
AcDbEntity
  8
0
 62
     3
100
AcDbText
 10
100.081789848915
 20
49.326065112929
 30
0.0
 40
0.2
  1
Right...
  7
Stacked
 71
     6
 72
     2
 11
100.081789848915
 21
49.184665112929
 31
0.0
100
AcDbText
  0
LINE
  5
1020
330
17
100
AcDbEntity
  8
0
 62
     5
100
AcDbLine
 10
90.081789848915
 20
52.00972533249
 30
0.0
 11
100.081789848915
 21
52.00972533249
 31
0.0
  0
LINE
  5
1021
330
17
100
AcDbEntity
  8
0
 62
     5
100
AcDbLine
 10
90.081789848915
 20
55.241057824952
 30
0.0
 11
100.081789848915
 21
55.241057824952
 31
0.0
  0
LINE
  5
1022
330
17
100
AcDbEntity
  8
0
 62
     5
100
AcDbLine
 10
90.081789848915
 20
58.472390317414
 30
0.0
 11
100.081789848915
 21
58.472390317414
 31
0.0
  0
CIRCLE
  5
1023
330
17
100
AcDbEntity
  8
INSERT_POINTS
 62
     1
100
AcDbCircle
 10
90.200639536974
 20
43.40279602162
 30
0.0
 40
0.025
  0
CIRCLE
  5
1024
330
17
100
AcDbEntity
  8
INSERT_POINTS
 62
     2
100
AcDbCircle
 10
95.200639536974
 20
44.65279602162
 30
0.0
 40
0.01875
  0
CIRCLE
  5
1025
330
17
100
AcDbEntity
  8
INSERT_POINTS
 62
     1
100
AcDbCircle
 10
90.200639536974
 20
45.90279602162
 30
0.0
 40
0.025
  0
CIRCLE
  5
1026
330
17
100
AcDbEntity
  8
INSERT_POINTS
 62
     2
100
AcDbCircle
 10
95.200639536974
 20
44.65279602162
 30
0.0
 40
0.01875
  0
CIRCLE
  5
1027
330
17
100
AcDbEntity
  8
INSERT_POINTS
 62
     1
100
AcDbCircle
 10
90.081789848915
 20
47.707476144289
 30
0.0
 40
0.1
  0
CIRCLE
  5
1028
330
17
100
AcDbEntity
  8
INSERT_POINTS
 62
     2
100
AcDbCircle
 10
90.081789848915
 20
47.707476144289
 30
0.0
 40
0.075
  0
CIRCLE
  5
1029
330
17
100
AcDbEntity
  8
INSERT_POINTS
 62
     1
100
AcDbCircle
 10
90.081789848915
 20
49.184665112929
 30
0.0
 40
0.1
  0
CIRCLE
  5
102A
330
17
100
AcDbEntity
  8
INSERT_POINTS
 62
     2
100
AcDbCircle
 10
90.081789848915
 20
49.184665112929
 30
0.0
 40
0.075
  0
CIRCLE
  5
102B
330
17
100
AcDbEntity
  8
INSERT_POINTS
 62
     1
100
AcDbCircle
 10
95.081789848915
 20
49.184665112929
 30
0.0
 40
0.1
  0
CIRCLE
  5
102C
330
17
100
AcDbEntity
  8
INSERT_POINTS
 62
     2
100
AcDbCircle
 10
95.081789848915
 20
49.184665112929
 30
0.0
 40
0.075
  0
CIRCLE
  5
102D
330
17
100
AcDbEntity
  8
INSERT_POINTS
 62
     1
100
AcDbCircle
 10
100.081789848915
 20
49.184665112929
 30
0.0
 40
0.1
  0
CIRCLE
  5
102E
330
17
100
AcDbEntity
  8
INSERT_POINTS
 62
     2
100
AcDbCircle
 10
100.081789848915
 20
49.184665112929
 30
0.0
 40
0.075
  0
CIRCLE
  5
102F
330
17
100
AcDbEntity
  8
INSERT_POINTS
 62
     1
100
AcDbCircle
 10
90.081789848915
 20
52.00972533249
 30
0.0
 40
0.1
  0
CIRCLE
  5
1030
330
17
100
AcDbEntity
  8
INSERT_POINTS
 62
     2
100
AcDbCircle
 10
90.081789848915
 20
52.00972533249
 30
0.0
 40
0.075
  0
CIRCLE
  5
1031
330
17
100
AcDbEntity
  8
INSERT_POINTS
 62
     1
100
AcDbCircle
 10
95.081789848915
 20
52.00972533249
 30
0.0
 40
0.1
  0
CIRCLE
  5
1032
330
17
100
AcDbEntity
  8
INSERT_POINTS
 62
     2
100
AcDbCircle
 10
95.081789848915
 20
52.00972533249
 30
0.0
 40
0.075
  0
CIRCLE
  5
1033
330
17
100
AcDbEntity
  8
INSERT_POINTS
 62
     1
100
AcDbCircle
 10
100.081789848915
 20
52.00972533249
 30
0.0
 40
0.1
  0
CIRCLE
  5
1034
330
17
100
AcDbEntity
  8
INSERT_POINTS
 62
     2
100
AcDbCircle
 10
100.081789848915
 20
52.00972533249
 30
0.0
 40
0.075
  0
CIRCLE
  5
1035
330
17
100
AcDbEntity
  8
INSERT_POINTS
 62
     1
100
AcDbCircle
 10
90.081789848915
 20
55.241057824952
 30
0.0
 40
0.1
  0
CIRCLE
  5
1036
330
17
100
AcDbEntity
  8
INSERT_POINTS
 62
     2
100
AcDbCircle
 10
90.081789848915
 20
55.241057824952
 30
0.0
 40
0.075
  0
CIRCLE
  5
1037
330
17
100
AcDbEntity
  8
INSERT_POINTS
 62
     1
100
AcDbCircle
 10
95.081789848915
 20
55.241057824952
 30
0.0
 40
0.1
  0
CIRCLE
  5
1038
330
17
100
AcDbEntity
  8
INSERT_POINTS
 62
     2
100
AcDbCircle
 10
95.081789848915
 20
55.241057824952
 30
0.0
 40
0.075
  0
CIRCLE
  5
1039
330
17
100
AcDbEntity
  8
INSERT_POINTS
 62
     1
100
AcDbCircle
 10
100.081789848915
 20
55.241057824952
 30
0.0
 40
0.1
  0
CIRCLE
  5
103A
330
17
100
AcDbEntity
  8
INSERT_POINTS
 62
     2
100
AcDbCircle
 10
100.081789848915
 20
55.241057824952
 30
0.0
 40
0.075
  0
CIRCLE
  5
103B
330
17
100
AcDbEntity
  8
INSERT_POINTS
 62
     1
100
AcDbCircle
 10
90.081789848915
 20
58.472390317414
 30
0.0
 40
0.1
  0
CIRCLE
  5
103C
330
17
100
AcDbEntity
  8
INSERT_POINTS
 62
     2
100
AcDbCircle
 10
90.081789848915
 20
58.472390317414
 30
0.0
 40
0.075
  0
CIRCLE
  5
103D
330
17
100
AcDbEntity
  8
INSERT_POINTS
 62
     1
100
AcDbCircle
 10
95.081789848915
 20
58.472390317414
 30
0.0
 40
0.1
  0
CIRCLE
  5
103E
330
17
100
AcDbEntity
  8
INSERT_POINTS
 62
     2
100
AcDbCircle
 10
95.081789848915
 20
58.472390317414
 30
0.0
 40
0.075
  0
CIRCLE
  5
103F
330
17
100
AcDbEntity
  8
INSERT_POINTS
 62
     1
100
AcDbCircle
 10
100.081789848915
 20
58.472390317414
 30
0.0
 40
0.1
  0
CIRCLE
  5
1040
330
17
100
AcDbEntity
  8
INSERT_POINTS
 62
     2
100
AcDbCircle
 10
100.081789848915
 20
58.472390317414
 30
0.0
 40
0.075
  0
LINE
  5
1041
330
17
100
AcDbEntity
  8
0
 62
     5
100
AcDbLine
 10
98.087642840555
 20
43.958448868075
 30
0.0
 11
98.087642840555
 21
45.981936153217
 31
0.0
  0
LINE
  5
1042
330
17
100
AcDbEntity
  8
0
 62
     5
100
AcDbLine
 10
96.673674203227
 20
44.970192510646
 30
0.0
 11
99.501611477884
 21
44.970192510646
 31
0.0
  0
TEXT
  5
1043
330
17
100
AcDbEntity
  8
0
 62
     3
100
AcDbText
 10
98.087642840555
 20
45.040892510646
 30
0.0
 40
0.2
  1
Middle alignment
  7
Stacked
 71
     6
 72
     4
 11
98.087642840555
 21
44.970192510646
 31
0.0
100
AcDbText
  0
CIRCLE
  5
1044
330
17
100
AcDbEntity
  8
INSERT_POINTS
 62
     1
100
AcDbCircle
 10
98.087642840555
 20
44.970192510646
 30
0.0
 40
0.1
  0
CIRCLE
  5
1045
330
17
100
AcDbEntity
  8
INSERT_POINTS
 62
     2
100
AcDbCircle
 10
98.087642840555
 20
44.970192510646
 30
0.0
 40
0.075
  0
LINE
  5
1046
330
17
100
AcDbEntity
  8
0
 62
     5
100
AcDbLine
 10
90.081789848915
 20
47.707476144289
 30
0.0
 11
100.081789848915
 21
47.707476144289
 31
0.0
  0
TEXT
  5
1047
330
17
100
AcDbEntity
  8
0
 62
     3
100
AcDbText
 10
90.081789848915
 20
60.936925482203
 30
0.0
 40
0.5
  1
MIRROR-XY
 41
0.75
100
AcDbText
  0
TEXT
  5
1048
330
17
100
AcDbEntity
  8
0
 62
     2
100
AcDbText
 10
90.081789848915
 20
58.472390317414
 30
0.0
 40
0.2
  1
Top-Left
  7
Stacked
 71
     6
 11
90.081789848915
 21
58.472390317414
 31
0.0
100
AcDbText
 73
     3
  0
TEXT
  5
1049
330
17
100
AcDbEntity
  8
0
 62
     2
100
AcDbText
 10
95.081789848915
 20
58.546390317414
 30
0.0
 40
0.2
  1
Top-Center...
  7
Stacked
 71
     6
 72
     1
 11
95.081789848915
 21
58.472390317414
 31
0.0
100
AcDbText
 73
     3
  0
TEXT
  5
104A
330
17
100
AcDbEntity
  8
0
 62
     2
100
AcDbText
 10
100.081789848915
 20
58.613790317414
 30
0.0
 40
0.2
  1
Top-Right
  7
Stacked
 71
     6
 72
     2
 11
100.081789848915
 21
58.472390317414
 31
0.0
100
AcDbText
 73
     3
  0
TEXT
  5
104B
330
17
100
AcDbEntity
  8
0
 62
     2
100
AcDbText
 10
90.081789848915
 20
55.241057824952
 30
0.0
 40
0.2
  1
Middle-Left
  7
Stacked
 71
     6
 11
90.081789848915
 21
55.241057824952
 31
0.0
100
AcDbText
 73
     2
  0
TEXT
  5
104C
330
17
100
AcDbEntity
  8
0
 62
     2
100
AcDbText
 10
95.081789848915
 20
55.341057824952
 30
0.0
 40
0.2
  1
Middle-Center...
  7
Stacked
 71
     6
 72
     1
 11
95.081789848915
 21
55.241057824952
 31
0.0
100
AcDbText
 73
     2
  0
TEXT
  5
104D
330
17
100
AcDbEntity
  8
0
 62
     2
100
AcDbText
 10
100.081789848915
 20
55.382457824952
 30
0.0
 40
0.2
  1
Middle-Right
  7
Stacked
 71
     6
 72
     2
 11
100.081789848915
 21
55.241057824952
 31
0.0
100
AcDbText
 73
     2
  0
TEXT
  5
104E
330
17
100
AcDbEntity
  8
0
 62
     2
100
AcDbText
 10
90.081789848915
 20
52.00972533249
 30
0.0
 40
0.2
  1
Bottom-Left...
  7
Stacked
 71
     6
 11
90.081789848915
 21
52.00972533249
 31
0.0
100
AcDbText
 73
     1
  0
TEXT
  5
104F
330
17
100
AcDbEntity
  8
0
 62
     2
100
AcDbText
 10
95.081789848915
 20
52.10972533249
 30
0.0
 40
0.2
  1
Bottom-Center...
  7
Stacked
 71
     6
 72
     1
 11
95.081789848915
 21
52.00972533249
 31
0.0
100
AcDbText
 73
     1
  0
TEXT
  5
1050
330
17
100
AcDbEntity
  8
0
 62
     2
100
AcDbText
 10
100.081789848915
 20
52.15112533249
 30
0.0
 40
0.2
  1
Bottom-Right...
  7
Stacked
 71
     6
 72
     2
 11
100.081789848915
 21
52.00972533249
 31
0.0
100
AcDbText
 73
     1
  0
ENDSEC
  0
SECTION
  2
OBJECTS
  0
DICTIONARY
  5
A
330
0
100
AcDbDictionary
281
     1
  3
ACAD_COLOR
350
B
  3
ACAD_DETAILVIEWSTYLE
350
106
  3
ACAD_GROUP
350
C
  3
ACAD_LAYOUT
350
D
  3
ACAD_MATERIAL
350
E
  3
ACAD_MLEADERSTYLE
350
F
  3
ACAD_MLINESTYLE
350
10
  3
ACAD_PLOTSETTINGS
350
11
  3
ACAD_PLOTSTYLENAME
350
12
  3
ACAD_SCALELIST
350
D0
  3
ACAD_SECTIONVIEWSTYLE
350
107
  3
ACAD_TABLESTYLE
350
15
  3
ACAD_VISUALSTYLE
350
16
  3
ACDB_RECOMPOSE_DATA
350
1056
  3
AcDbVariableDictionary
350
FD
  0
SUN
  5
FC
330
CE
100
AcDbSun
 90
        1
290
     0
 63
     7
421
 16777215
 40
1.0
291
     1
 91
  2455826
 92
 54000000
292
     0
 70
     2
 71
   256
280
     1
  0
DICTIONARY
  5
B
330
A
100
AcDbDictionary
281
     1
  0
DICTIONARY
  5
106
102
{ACAD_REACTORS
330
A
102
}
330
A
100
AcDbDictionary
281
     1
  0
DICTIONARY
  5
C
330
A
100
AcDbDictionary
281
     1
  0
DICTIONARY
  5
D
330
A
100
AcDbDictionary
281
     1
  3
Layout1
350
1E
  3
Model
350
1A
  0
DICTIONARY
  5
E
330
A
100
AcDbDictionary
281
     1
  3
ByBlock
350
1F
  3
ByLayer
350
20
  3
Global
350
21
  0
DICTIONARY
  5
F
330
A
100
AcDbDictionary
281
     1
  3
Standard
350
2C
  0
DICTIONARY
  5
10
330
A
100
AcDbDictionary
281
     1
  3
Standard
350
22
  0
DICTIONARY
  5
11
330
A
100
AcDbDictionary
281
     1
  0
ACDBDICTIONARYWDFLT
  5
12
330
A
100
AcDbDictionary
281
     1
  3
Normal
350
13
100
AcDbDictionaryWithDefault
340
13
  0
DICTIONARY
  5
D0
102
{ACAD_REACTORS
330
A
102
}
330
A
100
AcDbDictionary
281
     1
  3
A0
350
D1
  3
A1
350
D2
  3
A2
350
D3
  3
A3
350
D4
  3
A4
350
D5
  3
A5
350
D6
  3
A6
350
D7
  3
A7
350
D8
  3
A8
350
D9
  3
A9
350
DA
  3
B0
350
DB
  3
B1
350
DC
  3
B2
350
DD
  3
B3
350
DE
  3
B4
350
DF
  3
B5
350
E0
  3
B6
350
E1
  0
DICTIONARY
  5
107
102
{ACAD_REACTORS
330
A
102
}
330
A
100
AcDbDictionary
281
     1
  0
DICTIONARY
  5
15
330
A
100
AcDbDictionary
281
     1
  3
Standard
350
FA
  0
DICTIONARY
  5
16
330
A
100
AcDbDictionary
281
     1
  3
2dWireframe
350
E6
  3
Basic
350
E9
  3
Brighten
350
ED
  3
ColorChange
350
F1
  3
Conceptual
350
EB
  3
Dim
350
EC
  3
EdgeColorOff
350
F4
  3
Facepattern
350
F0
  3
Flat
350
E2
  3
FlatWithEdges
350
E3
  3
Gouraud
350
E4
  3
GouraudWithEdges
350
E5
  3
Hidden
350
E8
  3
JitterOff
350
F2
  3
Linepattern
350
EF
  3
Modeling
350
FB
  3
OverhangOff
350
F3
  3
Realistic
350
EA
  3
Shaded
350
F9
  3
Shaded with edges
350
F8
  3
Shades of Gray
350
F5
  3
Sketchy
350
F6
  3
Thicken
350
EE
  3
Wireframe
350
E7
  3
X-Ray
350
F7
  0
XRECORD
  5
1056
102
{ACAD_REACTORS
330
A
102
}
330
A
100
AcDbXrecord
280
     1
 90
        1
330
FA
  0
DICTIONARY
  5
FD
102
{ACAD_REACTORS
330
A
102
}
330
A
100
AcDbDictionary
281
     1
  3
CANNOSCALE
350
FE
  3
CMLEADERSTYLE
350
103
  3
CTABLESTYLE
350
102
  3
MSLTSCALE
350
104
  3
XCLIPFRAME
350
105
  0
LAYOUT
  5
1E
330
D
100
AcDbPlotSettings
  1

  2
Adobe PDF
  4
A4
  6

 40
3.175
 41
3.175
 42
3.175
 43
3.175
 44
209.91
 45
297.03
 46
0.0
 47
0.0
 48
0.0
 49
0.0
140
0.0
141
0.0
142
1.0
143
1.0
 70
     0
 72
     0
 73
     1
 74
     5
  7

 75
    16
 76
     0
 77
     2
 78
   300
147
1.0
148
0.0
149
0.0
100
AcDbLayout
  1
Layout1
 70
     1
 71
     1
 10
-3.175
 20
-3.175
 11
293.857
 21
206.735
 12
0.0
 22
0.0
 32
0.0
 14
29.068
 24
20.356
 34
0.0
 15
261.614
 25
183.204
 35
0.0
146
0.0
 13
0.0
 23
0.0
 33
0.0
 16
1.0
 26
0.0
 36
0.0
 17
0.0
 27
1.0
 37
0.0
 76
     1
330
1B
  0
LAYOUT
  5
1A
330
D
100
AcDbPlotSettings
  1

  2
Adobe PDF
  4
A4
  6

 40
3.175
 41
3.175
 42
3.175
 43
3.175
 44
209.91
 45
297.03
 46
0.0
 47
0.0
 48
0.0
 49
0.0
140
0.0
141
0.0
142
1.0
143
1.0
 70
  1024
 72
     0
 73
     1
 74
     5
  7

 75
    16
 76
     0
 77
     2
 78
   300
147
1.0
148
0.0
149
0.0
100
AcDbLayout
  1
Model
 70
     1
 71
     0
 10
-3.175
 20
-3.175
 11
293.857
 21
206.735
 12
0.0
 22
0.0
 32
0.0
 14
-15.494417555139
 24
29.167718249205
 34
0.0
 15
100.181789848915
 25
87.525080349821
 35
0.0
146
0.0
 13
0.0
 23
0.0
 33
0.0
 16
1.0
 26
0.0
 36
0.0
 17
0.0
 27
1.0
 37
0.0
 76
     1
330
17
331
CE
  0
MATERIAL
  5
1F
102
{ACAD_REACTORS
330
E
102
}
330
E
100
AcDbMaterial
  1
ByBlock
 71
     1
 91
-1023410177
 72
     1
273
     1
 94
       63
  0
MATERIAL
  5
20
102
{ACAD_REACTORS
330
E
102
}
330
E
100
AcDbMaterial
  1
ByLayer
 71
     1
 91
-1023410177
 72
     1
273
     1
 94
       63
  0
MATERIAL
  5
21
102
{ACAD_REACTORS
330
E
102
}
330
E
100
AcDbMaterial
  1
Global
 71
     1
 91
-1023410177
 72
     1
273
     1
 94
       63
  0
MLEADERSTYLE
  5
2C
102
{ACAD_REACTORS
330
F
102
}
330
F
100
AcDbMLeaderStyle
179
     2
170
     2
171
     1
172
     0
 90
        2
 40
0.0
 41
0.0
173
     1
 91
-1056964608
340
0
 92
       -2
290
     1
 42
2.0
291
     1
 43
8.0
  3
Standard
341
0
 44
4.0
300

342
29
174
     1
178
     1
175
     1
176
     0
 93
-1056964608
 45
4.0
292
     0
297
     0
 46
4.0
343
0
 94
-1056964608
 47
1.0
 49
1.0
140
1.0
293
     1
141
0.0
294
     1
177
     0
142
1.0
295
     0
296
     0
143
3.75
271
     0
272
     9
273
     9
298
     0
  0
MLINESTYLE
  5
22
102
{ACAD_REACTORS
330
10
102
}
330
10
100
AcDbMlineStyle
  2
Standard
 70
     0
  3

 62
   256
 51
90.0
 52
90.0
 71
     2
 49
0.5
 62
   256
  6
BYLAYER
 49
-0.5
 62
   256
  6
BYLAYER
  0
ACDBPLACEHOLDER
  5
13
330
12
  0
SCALE
  5
D1
102
{ACAD_REACTORS
330
D0
102
}
330
D0
100
AcDbScale
 70
     0
300
1:1
140
1.0
141
1.0
290
     1
  0
SCALE
  5
D2
102
{ACAD_REACTORS
330
D0
102
}
330
D0
100
AcDbScale
 70
     0
300
1:2
140
1.0
141
2.0
290
     0
  0
SCALE
  5
D3
102
{ACAD_REACTORS
330
D0
102
}
330
D0
100
AcDbScale
 70
     0
300
1:4
140
1.0
141
4.0
290
     0
  0
SCALE
  5
D4
102
{ACAD_REACTORS
330
D0
102
}
330
D0
100
AcDbScale
 70
     0
300
1:5
140
1.0
141
5.0
290
     0
  0
SCALE
  5
D5
102
{ACAD_REACTORS
330
D0
102
}
330
D0
100
AcDbScale
 70
     0
300
1:8
140
1.0
141
8.0
290
     0
  0
SCALE
  5
D6
102
{ACAD_REACTORS
330
D0
102
}
330
D0
100
AcDbScale
 70
     0
300
1:10
140
1.0
141
10.0
290
     0
  0
SCALE
  5
D7
102
{ACAD_REACTORS
330
D0
102
}
330
D0
100
AcDbScale
 70
     0
300
1:16
140
1.0
141
16.0
290
     0
  0
SCALE
  5
D8
102
{ACAD_REACTORS
330
D0
102
}
330
D0
100
AcDbScale
 70
     0
300
1:20
140
1.0
141
20.0
290
     0
  0
SCALE
  5
D9
102
{ACAD_REACTORS
330
D0
102
}
330
D0
100
AcDbScale
 70
     0
300
1:30
140
1.0
141
30.0
290
     0
  0
SCALE
  5
DA
102
{ACAD_REACTORS
330
D0
102
}
330
D0
100
AcDbScale
 70
     0
300
1:40
140
1.0
141
40.0
290
     0
  0
SCALE
  5
DB
102
{ACAD_REACTORS
330
D0
102
}
330
D0
100
AcDbScale
 70
     0
300
1:50
140
1.0
141
50.0
290
     0
  0
SCALE
  5
DC
102
{ACAD_REACTORS
330
D0
102
}
330
D0
100
AcDbScale
 70
     0
300
1:100
140
1.0
141
100.0
290
     0
  0
SCALE
  5
DD
102
{ACAD_REACTORS
330
D0
102
}
330
D0
100
AcDbScale
 70
     0
300
2:1
140
2.0
141
1.0
290
     0
  0
SCALE
  5
DE
102
{ACAD_REACTORS
330
D0
102
}
330
D0
100
AcDbScale
 70
     0
300
4:1
140
4.0
141
1.0
290
     0
  0
SCALE
  5
DF
102
{ACAD_REACTORS
330
D0
102
}
330
D0
100
AcDbScale
 70
     0
300
8:1
140
8.0
141
1.0
290
     0
  0
SCALE
  5
E0
102
{ACAD_REACTORS
330
D0
102
}
330
D0
100
AcDbScale
 70
     0
300
10:1
140
10.0
141
1.0
290
     0
  0
SCALE
  5
E1
102
{ACAD_REACTORS
330
D0
102
}
330
D0
100
AcDbScale
 70
     0
300
100:1
140
100.0
141
1.0
290
     0
  0
TABLESTYLE
  5
FA
102
{ACAD_REACTORS
330
15
102
}
102
{ACAD_XDICTIONARY
360
1054
102
}
330
15
100
AcDbTableStyle
  3
Standard
 70
     0
 71
     0
 40
0.06
 41
0.06
280
     0
281
     0
  7
Standard
140
4.5
170
     2
 62
     0
 63
   257
283
     0
 90
        4
 91
        0
  1

274
    -2
284
     1
 64
     0
275
    -2
285
     1
 65
     0
276
    -2
286
     1
 66
     0
277
    -2
287
     1
 67
     0
278
    -2
288
     1
 68
     0
279
    -2
289
     1
 69
     0
  7
Standard
140
6.0
170
     5
 62
     0
 63
   257
283
     0
 90
        4
 91
        0
  1

274
    -2
284
     1
 64
     0
275
    -2
285
     1
 65
     0
276
    -2
286
     1
 66
     0
277
    -2
287
     1
 67
     0
278
    -2
288
     1
 68
     0
279
    -2
289
     1
 69
     0
  7
Standard
140
4.5
170
     5
 62
     0
 63
   257
283
     0
 90
        4
 91
        0
  1

274
    -2
284
     1
 64
     0
275
    -2
285
     1
 65
     0
276
    -2
286
     1
 66
     0
277
    -2
287
     1
 67
     0
278
    -2
288
     1
 68
     0
279
    -2
289
     1
 69
     0
  0
VISUALSTYLE
  5
E6
102
{ACAD_REACTORS
330
16
102
}
330
16
100
AcDbVisualStyle
  2
2dWireframe
 70
     4
177
     3
291
     0
 70
    58
 90
        0
176
     1
 90
        2
176
     1
 90
        0
176
     1
 90
        0
176
     1
 40
0.6
176
     1
 40
30.0
176
     1
 62
     7
420
 16777215
176
     1
 90
        1
176
     1
 90
        4
176
     1
 62
     7
176
     1
 62
   257
176
     1
 90
        1
176
     1
 90
        1
176
     1
 40
1.0
176
     1
 90
        0
176
     1
 62
   257
176
     1
 40
1.0
176
     1
 90
        1
176
     1
 90
        6
176
     1
 90
        2
176
     1
 62
     7
176
     1
 90
        5
176
     1
 90
        0
176
     1
 90
        0
176
     1
290
     0
176
     1
 90
        1
176
     1
 40
0.0
176
     1
 90
        0
176
     1
290
     1
176
     1
290
     1
176
     1
290
     0
176
     1
290
     0
176
     1
290
     0
176
     1
290
     0
176
     1
290
     0
176
     1
290
     0
176
     1
290
     0
176
     1
 90
       50
176
     1
 40
0.0
176
     1
 40
1.0
176
     1
 90
        0
176
     1
 62
    18
420
        0
176
     1
 90
       50
176
     1
 90
        3
176
     1
 62
     5
420
      255
176
     1
290
     0
176
     1
 90
       50
176
     1
 90
       50
176
     1
 90
       50
176
     1
290
     0
176
     1
 90
       50
176
     1
 62
   256
176
     0
 40
1.0
176
     0
 90
        2
176
     1
  1
strokes_ogs.tif
176
     1
290
     0
176
     1
 40
1.0
176
     1
 40
1.0
176
     1
  0
VISUALSTYLE
  5
E9
102
{ACAD_REACTORS
330
16
102
}
330
16
100
AcDbVisualStyle
  2
Basic
 70
     7
177
     3
291
     1
 70
    58
 90
        1
176
     1
 90
        0
176
     1
 90
        1
176
     1
 90
        0
176
     1
 40
0.6
176
     1
 40
30.0
176
     1
 62
     7
420
 16777215
176
     1
 90
        0
176
     1
 90
        4
176
     1
 62
     7
176
     1
 62
   257
176
     1
 90
        1
176
     1
 90
        1
176
     1
 40
1.0
176
     1
 90
        8
176
     1
 62
     7
176
     1
 40
1.0
176
     1
 90
        1
176
     1
 90
        6
176
     1
 90
        2
176
     1
 62
     7
176
     1
 90
        5
176
     1
 90
        0
176
     1
 90
        0
176
     1
290
     0
176
     1
 90
        1
176
     1
 40
0.0
176
     1
 90
        0
176
     1
290
     0
176
     1
290
     1
176
     1
290
     1
176
     1
290
     0
176
     1
290
     0
176
     1
290
     0
176
     1
290
     0
176
     1
290
     0
176
     1
290
     0
176
     1
 90
       50
176
     1
 40
0.0
176
     1
 40
1.0
176
     1
 90
        0
176
     1
 62
    18
420
        0
176
     1
 90
       50
176
     1
 90
        3
176
     1
 62
     5
420
      255
176
     1
290
     0
176
     1
 90
       50
176
     1
 90
       50
176
     1
 90
       50
176
     1
290
     0
176
     1
 90
       50
176
     1
 62
   256
176
     0
 40
1.0
176
     0
 90
        2
176
     1
  1
strokes_ogs.tif
176
     1
290
     0
176
     1
 40
1.0
176
     1
 40
1.0
176
     1
  0
VISUALSTYLE
  5
ED
102
{ACAD_REACTORS
330
16
102
}
330
16
100
AcDbVisualStyle
  2
Brighten
 70
    12
177
     3
291
     1
 70
    58
 90
        2
176
     1
 90
        2
176
     1
 90
        0
176
     1
 90
        0
176
     1
 40
0.6
176
     1
 40
30.0
176
     1
 62
     7
420
 16777215
176
     1
 90
        1
176
     1
 90
        4
176
     1
 62
     7
176
     1
 62
   257
176
     1
 90
        1
176
     1
 90
        1
176
     1
 40
1.0
176
     1
 90
        8
176
     1
 62
     7
176
     1
 40
1.0
176
     1
 90
        1
176
     1
 90
        6
176
     1
 90
        2
176
     1
 62
     7
176
     1
 90
        5
176
     1
 90
        0
176
     1
 90
        0
176
     1
290
     0
176
     1
 90
        1
176
     1
 40
50.0
176
     1
 90
        0
176
     1
290
     0
176
     1
290
     1
176
     1
290
     1
176
     1
290
     0
176
     1
290
     0
176
     1
290
     0
176
     1
290
     0
176
     1
290
     0
176
     1
290
     0
176
     1
 90
       50
176
     1
 40
0.0
176
     1
 40
1.0
176
     1
 90
        0
176
     1
 62
    18
420
        0
176
     1
 90
       50
176
     1
 90
        3
176
     1
 62
     5
420
      255
176
     1
290
     0
176
     1
 90
       50
176
     1
 90
       50
176
     1
 90
       50
176
     1
290
     0
176
     1
 90
       50
176
     1
 62
   256
176
     0
 40
1.0
176
     0
 90
        2
176
     1
  1
strokes_ogs.tif
176
     1
290
     0
176
     1
 40
1.0
176
     1
 40
1.0
176
     1
  0
VISUALSTYLE
  5
F1
102
{ACAD_REACTORS
330
16
102
}
330
16
100
AcDbVisualStyle
  2
ColorChange
 70
    16
177
     3
291
     1
 70
    58
 90
        2
176
     1
 90
        2
176
     1
 90
        3
176
     1
 90
        0
176
     1
 40
0.6
176
     1
 40
30.0
176
     1
 62
     8
420
  8421504
176
     1
 90
        1
176
     1
 90
        4
176
     1
 62
     7
176
     1
 62
   257
176
     1
 90
        1
176
     1
 90
        1
176
     1
 40
1.0
176
     1
 90
        8
176
     1
 62
     8
420
  8421504
176
     1
 40
1.0
176
     1
 90
        1
176
     1
 90
        6
176
     1
 90
        2
176
     1
 62
     7
176
     1
 90
        5
176
     1
 90
        0
176
     1
 90
        0
176
     1
290
     0
176
     1
 90
        1
176
     1
 40
0.0
176
     1
 90
        0
176
     1
290
     0
176
     1
290
     1
176
     1
290
     1
176
     1
290
     0
176
     1
290
     0
176
     1
290
     0
176
     1
290
     0
176
     1
290
     0
176
     1
290
     0
176
     1
 90
       50
176
     1
 40
0.0
176
     1
 40
1.0
176
     1
 90
        0
176
     1
 62
    18
420
        0
176
     1
 90
       50
176
     1
 90
        3
176
     1
 62
     5
420
      255
176
     1
290
     0
176
     1
 90
       50
176
     1
 90
       50
176
     1
 90
       50
176
     1
290
     0
176
     1
 90
       50
176
     1
 62
   256
176
     0
 40
1.0
176
     0
 90
        2
176
     1
  1
strokes_ogs.tif
176
     1
290
     0
176
     1
 40
1.0
176
     1
 40
1.0
176
     1
  0
VISUALSTYLE
  5
EB
102
{ACAD_REACTORS
330
16
102
}
330
16
100
AcDbVisualStyle
  2
Conceptual
 70
     9
177
     3
291
     0
 70
    58
 90
        3
176
     1
 90
        2
176
     1
 90
        0
176
     1
 90
        0
176
     1
 40
0.6
176
     1
 40
30.0
176
     1
 62
     7
420
 16777215
176
     1
 90
        2
176
     1
 90
        2
176
     1
 62
     7
176
     1
 62
   257
176
     1
 90
        1
176
     1
 90
        1
176
     1
 40
179.0
176
     1
 90
        8
176
     1
 62
     7
176
     1
 40
1.0
176
     1
 90
        1
176
     1
 90
        6
176
     1
 90
        2
176
     1
 62
     7
176
     1
 90
        3
176
     1
 90
        0
176
     1
 90
        0
176
     1
290
     0
176
     1
 90
        1
176
     1
 40
0.0
176
     1
 90
        0
176
     1
290
     0
176
     1
290
     1
176
     1
290
     1
176
     1
290
     0
176
     1
290
     0
176
     1
290
     0
176
     1
290
     0
176
     1
290
     0
176
     1
290
     0
176
     1
 90
       50
176
     1
 40
0.0
176
     1
 40
1.0
176
     1
 90
        0
176
     1
 62
    18
420
        0
176
     1
 90
       50
176
     1
 90
        3
176
     1
 62
     5
420
      255
176
     1
290
     0
176
     1
 90
       50
176
     1
 90
       50
176
     1
 90
       50
176
     1
290
     0
176
     1
 90
       50
176
     1
 62
   256
176
     0
 40
1.0
176
     0
 90
        2
176
     1
  1
strokes_ogs.tif
176
     1
290
     0
176
     1
 40
1.0
176
     1
 40
1.0
176
     1
  0
VISUALSTYLE
  5
EC
102
{ACAD_REACTORS
330
16
102
}
330
16
100
AcDbVisualStyle
  2
Dim
 70
    11
177
     3
291
     1
 70
    58
 90
        2
176
     1
 90
        2
176
     1
 90
        0
176
     1
 90
        0
176
     1
 40
0.6
176
     1
 40
30.0
176
     1
 62
     7
420
 16777215
176
     1
 90
        1
176
     1
 90
        4
176
     1
 62
     7
176
     1
 62
   257
176
     1
 90
        1
176
     1
 90
        1
176
     1
 40
1.0
176
     1
 90
        8
176
     1
 62
     7
176
     1
 40
1.0
176
     1
 90
        1
176
     1
 90
        6
176
     1
 90
        2
176
     1
 62
     7
176
     1
 90
        5
176
     1
 90
        0
176
     1
 90
        0
176
     1
290
     0
176
     1
 90
        1
176
     1
 40
-50.0
176
     1
 90
        0
176
     1
290
     0
176
     1
290
     1
176
     1
290
     1
176
     1
290
     0
176
     1
290
     0
176
     1
290
     0
176
     1
290
     0
176
     1
290
     0
176
     1
290
     0
176
     1
 90
       50
176
     1
 40
0.0
176
     1
 40
1.0
176
     1
 90
        0
176
     1
 62
    18
420
        0
176
     1
 90
       50
176
     1
 90
        3
176
     1
 62
     5
420
      255
176
     1
290
     0
176
     1
 90
       50
176
     1
 90
       50
176
     1
 90
       50
176
     1
290
     0
176
     1
 90
       50
176
     1
 62
   256
176
     0
 40
1.0
176
     0
 90
        2
176
     1
  1
strokes_ogs.tif
176
     1
290
     0
176
     1
 40
1.0
176
     1
 40
1.0
176
     1
  0
VISUALSTYLE
  5
F4
102
{ACAD_REACTORS
330
16
102
}
330
16
100
AcDbVisualStyle
  2
EdgeColorOff
 70
    22
177
     3
291
     1
 70
    58
 90
        2
176
     0
 90
        2
176
     0
 90
        0
176
     0
 90
        0
176
     0
 40
0.6
176
     0
 40
30.0
176
     0
 62
     7
420
 16777215
176
     0
 90
        1
176
     0
 90
        4
176
     0
 62
     7
176
     0
 62
   257
176
     0
 90
        1
176
     0
 90
        1
176
     0
 40
1.0
176
     0
 90
        8
176
     2
 62
     7
176
     0
 40
1.0
176
     0
 90
        1
176
     0
 90
        6
176
     0
 90
        2
176
     0
 62
     7
176
     0
 90
        5
176
     0
 90
        0
176
     0
 90
        0
176
     0
290
     0
176
     0
 90
        1
176
     0
 40
0.0
176
     0
 90
        0
176
     0
290
     0
176
     0
290
     1
176
     0
290
     1
176
     0
290
     0
176
     0
290
     0
176
     0
290
     0
176
     0
290
     0
176
     0
290
     0
176
     0
290
     0
176
     0
 90
       50
176
     0
 40
0.0
176
     0
 40
1.0
176
     0
 90
        0
176
     0
 62
    18
420
        0
176
     0
 90
       50
176
     0
 90
        3
176
     0
 62
     5
420
      255
176
     0
290
     0
176
     0
 90
       50
176
     0
 90
       50
176
     0
 90
       50
176
     0
290
     0
176
     0
 90
       50
176
     0
 62
   256
176
     0
 40
1.0
176
     0
 90
        2
176
     0
  1
strokes_ogs.tif
176
     0
290
     0
176
     0
 40
1.0
176
     0
 40
1.0
176
     0
  0
VISUALSTYLE
  5
F0
102
{ACAD_REACTORS
330
16
102
}
330
16
100
AcDbVisualStyle
  2
Facepattern
 70
    15
177
     3
291
     1
 70
    58
 90
        2
176
     1
 90
        2
176
     1
 90
        0
176
     1
 90
        0
176
     1
 40
0.6
176
     1
 40
30.0
176
     1
 62
     7
420
 16777215
176
     1
 90
        1
176
     1
 90
        4
176
     1
 62
     7
176
     1
 62
   257
176
     1
 90
        1
176
     1
 90
        1
176
     1
 40
1.0
176
     1
 90
        8
176
     1
 62
     7
176
     1
 40
1.0
176
     1
 90
        1
176
     1
 90
        6
176
     1
 90
        2
176
     1
 62
     7
176
     1
 90
        5
176
     1
 90
        0
176
     1
 90
        0
176
     1
290
     0
176
     1
 90
        1
176
     1
 40
0.0
176
     1
 90
        0
176
     1
290
     0
176
     1
290
     1
176
     1
290
     1
176
     1
290
     0
176
     1
290
     0
176
     1
290
     0
176
     1
290
     0
176
     1
290
     0
176
     1
290
     0
176
     1
 90
       50
176
     1
 40
0.0
176
     1
 40
1.0
176
     1
 90
        0
176
     1
 62
    18
420
        0
176
     1
 90
       50
176
     1
 90
        3
176
     1
 62
     5
420
      255
176
     1
290
     0
176
     1
 90
       50
176
     1
 90
       50
176
     1
 90
       50
176
     1
290
     0
176
     1
 90
       50
176
     1
 62
   256
176
     0
 40
1.0
176
     0
 90
        2
176
     1
  1
strokes_ogs.tif
176
     1
290
     0
176
     1
 40
1.0
176
     1
 40
1.0
176
     1
  0
VISUALSTYLE
  5
E2
102
{ACAD_REACTORS
330
16
102
}
330
16
100
AcDbVisualStyle
  2
Flat
 70
     0
177
     3
291
     1
 70
    58
 90
        2
176
     1
 90
        1
176
     1
 90
        1
176
     1
 90
        2
176
     1
 40
0.6
176
     1
 40
30.0
176
     1
 62
     7
420
 16777215
176
     1
 90
        0
176
     1
 90
        0
176
     1
 62
     7
176
     1
 62
   257
176
     1
 90
        1
176
     1
 90
        1
176
     1
 40
1.0
176
     1
 90
        8
176
     1
 62
     7
176
     1
 40
1.0
176
     1
 90
        1
176
     1
 90
        6
176
     1
 90
        2
176
     1
 62
     7
176
     1
 90
        5
176
     1
 90
        0
176
     1
 90
        0
176
     1
290
     0
176
     1
 90
       13
176
     1
 40
0.0
176
     1
 90
        0
176
     1
290
     0
176
     1
290
     1
176
     1
290
     1
176
     1
290
     0
176
     1
290
     0
176
     1
290
     0
176
     1
290
     0
176
     1
290
     0
176
     1
290
     0
176
     1
 90
       50
176
     1
 40
0.0
176
     1
 40
1.0
176
     1
 90
        0
176
     1
 62
    18
420
        0
176
     1
 90
       50
176
     1
 90
        3
176
     1
 62
     5
420
      255
176
     1
290
     0
176
     1
 90
       50
176
     1
 90
       50
176
     1
 90
       50
176
     1
290
     0
176
     1
 90
       50
176
     1
 62
   256
176
     0
 40
1.0
176
     0
 90
        2
176
     1
  1
strokes_ogs.tif
176
     1
290
     0
176
     1
 40
1.0
176
     1
 40
1.0
176
     1
  0
VISUALSTYLE
  5
E3
102
{ACAD_REACTORS
330
16
102
}
330
16
100
AcDbVisualStyle
  2
FlatWithEdges
 70
     1
177
     3
291
     1
 70
    58
 90
        2
176
     1
 90
        1
176
     1
 90
        1
176
     1
 90
        2
176
     1
 40
0.6
176
     1
 40
30.0
176
     1
 62
     7
420
 16777215
176
     1
 90
        1
176
     1
 90
        0
176
     1
 62
     7
176
     1
 62
   257
176
     1
 90
        1
176
     1
 90
        1
176
     1
 40
1.0
176
     1
 90
        0
176
     1
 62
   257
176
     1
 40
1.0
176
     1
 90
        1
176
     1
 90
        6
176
     1
 90
        2
176
     1
 62
     7
176
     1
 90
        5
176
     1
 90
        0
176
     1
 90
        0
176
     1
290
     0
176
     1
 90
       13
176
     1
 40
0.0
176
     1
 90
        0
176
     1
290
     0
176
     1
290
     1
176
     1
290
     1
176
     1
290
     0
176
     1
290
     0
176
     1
290
     0
176
     1
290
     0
176
     1
290
     0
176
     1
290
     0
176
     1
 90
       50
176
     1
 40
0.0
176
     1
 40
1.0
176
     1
 90
        0
176
     1
 62
    18
420
        0
176
     1
 90
       50
176
     1
 90
        3
176
     1
 62
     5
420
      255
176
     1
290
     0
176
     1
 90
       50
176
     1
 90
       50
176
     1
 90
       50
176
     1
290
     0
176
     1
 90
       50
176
     1
 62
   256
176
     0
 40
1.0
176
     0
 90
        2
176
     1
  1
strokes_ogs.tif
176
     1
290
     0
176
     1
 40
1.0
176
     1
 40
1.0
176
     1
  0
VISUALSTYLE
  5
E4
102
{ACAD_REACTORS
330
16
102
}
330
16
100
AcDbVisualStyle
  2
Gouraud
 70
     2
177
     3
291
     1
 70
    58
 90
        2
176
     1
 90
        2
176
     1
 90
        1
176
     1
 90
        2
176
     1
 40
0.6
176
     1
 40
30.0
176
     1
 62
     7
420
 16777215
176
     1
 90
        0
176
     1
 90
        0
176
     1
 62
     7
176
     1
 62
   257
176
     1
 90
        1
176
     1
 90
        1
176
     1
 40
1.0
176
     1
 90
        0
176
     1
 62
     7
176
     1
 40
1.0
176
     1
 90
        1
176
     1
 90
        6
176
     1
 90
        2
176
     1
 62
     7
176
     1
 90
        5
176
     1
 90
        0
176
     1
 90
        0
176
     1
290
     0
176
     1
 90
       13
176
     1
 40
0.0
176
     1
 90
        0
176
     1
290
     0
176
     1
290
     1
176
     1
290
     1
176
     1
290
     0
176
     1
290
     0
176
     1
290
     0
176
     1
290
     0
176
     1
290
     0
176
     1
290
     0
176
     1
 90
       50
176
     1
 40
0.0
176
     1
 40
1.0
176
     1
 90
        0
176
     1
 62
    18
420
        0
176
     1
 90
       50
176
     1
 90
        3
176
     1
 62
     5
420
      255
176
     1
290
     0
176
     1
 90
       50
176
     1
 90
       50
176
     1
 90
       50
176
     1
290
     0
176
     1
 90
       50
176
     1
 62
   256
176
     0
 40
1.0
176
     0
 90
        2
176
     1
  1
strokes_ogs.tif
176
     1
290
     0
176
     1
 40
1.0
176
     1
 40
1.0
176
     1
  0
VISUALSTYLE
  5
E5
102
{ACAD_REACTORS
330
16
102
}
330
16
100
AcDbVisualStyle
  2
GouraudWithEdges
 70
     3
177
     3
291
     1
 70
    58
 90
        2
176
     1
 90
        2
176
     1
 90
        1
176
     1
 90
        2
176
     1
 40
0.6
176
     1
 40
30.0
176
     1
 62
     7
420
 16777215
176
     1
 90
        1
176
     1
 90
        0
176
     1
 62
     7
176
     1
 62
   257
176
     1
 90
        1
176
     1
 90
        1
176
     1
 40
1.0
176
     1
 90
        0
176
     1
 62
   257
176
     1
 40
1.0
176
     1
 90
        1
176
     1
 90
        6
176
     1
 90
        2
176
     1
 62
     7
176
     1
 90
        5
176
     1
 90
        0
176
     1
 90
        0
176
     1
290
     0
176
     1
 90
       13
176
     1
 40
0.0
176
     1
 90
        0
176
     1
290
     0
176
     1
290
     1
176
     1
290
     1
176
     1
290
     0
176
     1
290
     0
176
     1
290
     0
176
     1
290
     0
176
     1
290
     0
176
     1
290
     0
176
     1
 90
       50
176
     1
 40
0.0
176
     1
 40
1.0
176
     1
 90
        0
176
     1
 62
    18
420
        0
176
     1
 90
       50
176
     1
 90
        3
176
     1
 62
     5
420
      255
176
     1
290
     0
176
     1
 90
       50
176
     1
 90
       50
176
     1
 90
       50
176
     1
290
     0
176
     1
 90
       50
176
     1
 62
   256
176
     0
 40
1.0
176
     0
 90
        2
176
     1
  1
strokes_ogs.tif
176
     1
290
     0
176
     1
 40
1.0
176
     1
 40
1.0
176
     1
  0
VISUALSTYLE
  5
E8
102
{ACAD_REACTORS
330
16
102
}
330
16
100
AcDbVisualStyle
  2
Hidden
 70
     6
177
     3
291
     0
 70
    58
 90
        1
176
     1
 90
        2
176
     1
 90
        2
176
     1
 90
        0
176
     1
 40
0.6
176
     1
 40
30.0
176
     1
 62
     7
420
 16777215
176
     1
 90
        2
176
     1
 90
        2
176
     1
 62
     7
176
     1
 62
   257
176
     1
 90
        2
176
     1
 90
        1
176
     1
 40
40.0
176
     1
 90
        0
176
     1
 62
   257
176
     1
 40
1.0
176
     1
 90
        1
176
     1
 90
        6
176
     1
 90
        2
176
     1
 62
     7
176
     1
 90
        3
176
     1
 90
        0
176
     1
 90
        0
176
     1
290
     0
176
     1
 90
        1
176
     1
 40
0.0
176
     1
 90
        0
176
     1
290
     0
176
     1
290
     1
176
     1
290
     1
176
     1
290
     0
176
     1
290
     0
176
     1
290
     0
176
     1
290
     0
176
     1
290
     0
176
     1
290
     0
176
     1
 90
       50
176
     1
 40
0.0
176
     1
 40
1.0
176
     1
 90
        0
176
     1
 62
    18
420
        0
176
     1
 90
       50
176
     1
 90
        3
176
     1
 62
     5
420
      255
176
     1
290
     0
176
     1
 90
       50
176
     1
 90
       50
176
     1
 90
       50
176
     1
290
     0
176
     1
 90
       50
176
     1
 62
   256
176
     0
 40
1.0
176
     0
 90
        2
176
     1
  1
strokes_ogs.tif
176
     1
290
     0
176
     1
 40
1.0
176
     1
 40
1.0
176
     1
  0
VISUALSTYLE
  5
F2
102
{ACAD_REACTORS
330
16
102
}
330
16
100
AcDbVisualStyle
  2
JitterOff
 70
    20
177
     3
291
     1
 70
    58
 90
        2
176
     0
 90
        2
176
     0
 90
        0
176
     0
 90
        0
176
     0
 40
0.6
176
     0
 40
30.0
176
     0
 62
     7
420
 16777215
176
     0
 90
        1
176
     0
 90
        4
176
     0
 62
     7
176
     0
 62
   257
176
     0
 90
        1
176
     0
 90
        1
176
     0
 40
1.0
176
     0
 90
       10
176
     2
 62
     7
176
     0
 40
1.0
176
     0
 90
        1
176
     0
 90
        6
176
     0
 90
        2
176
     0
 62
     7
176
     0
 90
        5
176
     0
 90
        0
176
     0
 90
        0
176
     0
290
     0
176
     0
 90
        1
176
     0
 40
0.0
176
     0
 90
        0
176
     0
290
     0
176
     0
290
     1
176
     0
290
     1
176
     0
290
     0
176
     0
290
     0
176
     0
290
     0
176
     0
290
     0
176
     0
290
     0
176
     0
290
     0
176
     0
 90
       50
176
     0
 40
0.0
176
     0
 40
1.0
176
     0
 90
        0
176
     0
 62
    18
420
        0
176
     0
 90
       50
176
     0
 90
        3
176
     0
 62
     5
420
      255
176
     0
290
     0
176
     0
 90
       50
176
     0
 90
       50
176
     0
 90
       50
176
     0
290
     0
176
     0
 90
       50
176
     0
 62
   256
176
     0
 40
1.0
176
     0
 90
        2
176
     0
  1
strokes_ogs.tif
176
     0
290
     0
176
     0
 40
1.0
176
     0
 40
1.0
176
     0
  0
VISUALSTYLE
  5
EF
102
{ACAD_REACTORS
330
16
102
}
330
16
100
AcDbVisualStyle
  2
Linepattern
 70
    14
177
     3
291
     1
 70
    58
 90
        2
176
     1
 90
        2
176
     1
 90
        0
176
     1
 90
        0
176
     1
 40
0.6
176
     1
 40
30.0
176
     1
 62
     7
420
 16777215
176
     1
 90
        1
176
     1
 90
        4
176
     1
 62
     7
176
     1
 62
   257
176
     1
 90
        7
176
     1
 90
        7
176
     1
 40
1.0
176
     1
 90
        8
176
     1
 62
     7
176
     1
 40
1.0
176
     1
 90
        1
176
     1
 90
        6
176
     1
 90
        2
176
     1
 62
     7
176
     1
 90
        5
176
     1
 90
        0
176
     1
 90
        0
176
     1
290
     0
176
     1
 90
        1
176
     1
 40
0.0
176
     1
 90
        0
176
     1
290
     0
176
     1
290
     1
176
     1
290
     1
176
     1
290
     0
176
     1
290
     0
176
     1
290
     0
176
     1
290
     0
176
     1
290
     0
176
     1
290
     0
176
     1
 90
       50
176
     1
 40
0.0
176
     1
 40
1.0
176
     1
 90
        0
176
     1
 62
    18
420
        0
176
     1
 90
       50
176
     1
 90
        3
176
     1
 62
     5
420
      255
176
     1
290
     0
176
     1
 90
       50
176
     1
 90
       50
176
     1
 90
       50
176
     1
290
     0
176
     1
 90
       50
176
     1
 62
   256
176
     0
 40
1.0
176
     0
 90
        2
176
     1
  1
strokes_ogs.tif
176
     1
290
     0
176
     1
 40
1.0
176
     1
 40
1.0
176
     1
  0
VISUALSTYLE
  5
FB
102
{ACAD_REACTORS
330
16
102
}
330
16
100
AcDbVisualStyle
  2
Modeling
 70
    10
177
     3
291
     0
 70
    58
 90
        2
176
     1
 90
        3
176
     1
 90
        0
176
     1
 90
        2
176
     1
 40
0.6
176
     1
 40
30.0
176
     1
 62
     7
420
 16777215
176
     1
 90
        2
176
     1
 90
        0
176
     1
 62
     7
176
     1
 62
   257
176
     1
 90
        1
176
     1
 90
        1
176
     1
 40
180.0
176
     1
 90
        8
176
     1
 62
     8
420
  7895160
176
     1
 40
1.0
176
     1
 90
        1
176
     1
 90
        6
176
     1
 90
        2
176
     1
 62
     7
176
     1
 90
        5
176
     1
 90
        0
176
     1
 90
        0
176
     1
290
     0
176
     1
 90
       13
176
     1
 40
0.0
176
     1
 90
        0
176
     1
290
     0
176
     1
290
     1
176
     1
290
     1
176
     1
290
     0
176
     1
290
     0
176
     1
290
     0
176
     1
290
     0
176
     1
290
     0
176
     1
290
     0
176
     1
 90
       50
176
     1
 40
0.0
176
     1
 40
1.0
176
     1
 90
        0
176
     1
 62
    18
420
        0
176
     1
 90
       50
176
     1
 90
        3
176
     1
 62
     5
420
      255
176
     1
290
     0
176
     1
 90
       50
176
     1
 90
       50
176
     1
 90
       50
176
     1
290
     0
176
     1
 90
       50
176
     1
 62
   256
176
     0
 40
1.0
176
     0
 90
        2
176
     1
  1
strokes_ogs.tif
176
     1
290
     0
176
     1
 40
1.0
176
     1
 40
1.0
176
     1
  0
VISUALSTYLE
  5
F3
102
{ACAD_REACTORS
330
16
102
}
330
16
100
AcDbVisualStyle
  2
OverhangOff
 70
    21
177
     3
291
     1
 70
    58
 90
        2
176
     0
 90
        2
176
     0
 90
        0
176
     0
 90
        0
176
     0
 40
0.6
176
     0
 40
30.0
176
     0
 62
     7
420
 16777215
176
     0
 90
        1
176
     0
 90
        4
176
     0
 62
     7
176
     0
 62
   257
176
     0
 90
        1
176
     0
 90
        1
176
     0
 40
1.0
176
     0
 90
        9
176
     2
 62
     7
176
     0
 40
1.0
176
     0
 90
        1
176
     0
 90
        6
176
     0
 90
        2
176
     0
 62
     7
176
     0
 90
        5
176
     0
 90
        0
176
     0
 90
        0
176
     0
290
     0
176
     0
 90
        1
176
     0
 40
0.0
176
     0
 90
        0
176
     0
290
     0
176
     0
290
     1
176
     0
290
     1
176
     0
290
     0
176
     0
290
     0
176
     0
290
     0
176
     0
290
     0
176
     0
290
     0
176
     0
290
     0
176
     0
 90
       50
176
     0
 40
0.0
176
     0
 40
1.0
176
     0
 90
        0
176
     0
 62
    18
420
        0
176
     0
 90
       50
176
     0
 90
        3
176
     0
 62
     5
420
      255
176
     0
290
     0
176
     0
 90
       50
176
     0
 90
       50
176
     0
 90
       50
176
     0
290
     0
176
     0
 90
       50
176
     0
 62
   256
176
     0
 40
1.0
176
     0
 90
        2
176
     0
  1
strokes_ogs.tif
176
     0
290
     0
176
     0
 40
1.0
176
     0
 40
1.0
176
     0
  0
VISUALSTYLE
  5
EA
102
{ACAD_REACTORS
330
16
102
}
330
16
100
AcDbVisualStyle
  2
Realistic
 70
     8
177
     3
291
     0
 70
    58
 90
        2
176
     1
 90
        3
176
     1
 90
        0
176
     1
 90
        2
176
     1
 40
0.6
176
     1
 40
30.0
176
     1
 62
     7
420
 16777215
176
     1
 90
        0
176
     1
 90
        0
176
     1
 62
     7
176
     1
 62
   257
176
     1
 90
        1
176
     1
 90
        1
176
     1
 40
1.0
176
     1
 90
        8
176
     1
 62
   257
176
     1
 40
1.0
176
     1
 90
        1
176
     1
 90
        6
176
     1
 90
        2
176
     1
 62
     7
176
     1
 90
        3
176
     1
 90
        0
176
     1
 90
        0
176
     1
290
     0
176
     1
 90
       13
176
     1
 40
0.0
176
     1
 90
        0
176
     1
290
     0
176
     1
290
     1
176
     1
290
     1
176
     1
290
     0
176
     1
290
     0
176
     1
290
     0
176
     1
290
     0
176
     1
290
     0
176
     1
290
     0
176
     1
 90
       50
176
     1
 40
0.0
176
     1
 40
1.0
176
     1
 90
        0
176
     1
 62
    18
420
        0
176
     1
 90
       50
176
     1
 90
        3
176
     1
 62
     5
420
      255
176
     1
290
     0
176
     1
 90
       50
176
     1
 90
       50
176
     1
 90
       50
176
     1
290
     0
176
     1
 90
       50
176
     1
 62
   256
176
     0
 40
1.0
176
     0
 90
        2
176
     1
  1
strokes_ogs.tif
176
     1
290
     0
176
     1
 40
1.0
176
     1
 40
1.0
176
     1
  0
VISUALSTYLE
  5
F9
102
{ACAD_REACTORS
330
16
102
}
330
16
100
AcDbVisualStyle
  2
Shaded
 70
    27
177
     3
291
     0
 70
    58
 90
        2
176
     1
 90
        2
176
     1
 90
        1
176
     1
 90
        2
176
     1
 40
0.6
176
     1
 40
30.0
176
     1
 62
     7
420
 16777215
176
     1
 90
        0
176
     1
 90
        4
176
     1
 62
     7
176
     1
 62
   257
176
     1
 90
        1
176
     1
 90
        1
176
     1
 40
1.0
176
     1
 90
        8
176
     1
 62
   257
176
     1
 40
1.0
176
     1
 90
        1
176
     1
 90
        6
176
     1
 90
        2
176
     1
 62
     8
420
  7895160
176
     1
 90
        3
176
     1
 90
        0
176
     1
 90
        0
176
     1
290
     0
176
     1
 90
        5
176
     1
 40
0.0
176
     1
 90
        0
176
     1
290
     0
176
     1
290
     1
176
     1
290
     1
176
     1
290
     0
176
     1
290
     0
176
     1
290
     0
176
     1
290
     0
176
     1
290
     0
176
     1
290
     0
176
     1
 90
       50
176
     1
 40
0.0
176
     1
 40
1.0
176
     1
 90
        0
176
     1
 62
    18
420
        0
176
     1
 90
       50
176
     1
 90
        3
176
     1
 62
     5
420
      255
176
     1
290
     0
176
     1
 90
       50
176
     1
 90
       50
176
     1
 90
       50
176
     1
290
     0
176
     1
 90
       50
176
     1
 62
   256
176
     0
 40
1.0
176
     0
 90
        2
176
     1
  1
strokes_ogs.tif
176
     1
290
     0
176
     1
 40
1.0
176
     1
 40
1.0
176
     1
  0
VISUALSTYLE
  5
F8
102
{ACAD_REACTORS
330
16
102
}
330
16
100
AcDbVisualStyle
  2
Shaded with edges
 70
    26
177
     3
291
     0
 70
    58
 90
        2
176
     1
 90
        2
176
     1
 90
        1
176
     1
 90
        2
176
     1
 40
0.6
176
     1
 40
30.0
176
     1
 62
     7
420
 16777215
176
     1
 90
        1
176
     1
 90
       10
176
     1
 62
     7
176
     1
 62
   257
176
     1
 90
        2
176
     1
 90
        1
176
     1
 40
1.0
176
     1
 90
        8
176
     1
 62
   257
176
     1
 40
1.0
176
     1
 90
        1
176
     1
 90
        6
176
     1
 90
        2
176
     1
 62
     7
176
     1
 90
        3
176
     1
 90
        0
176
     1
 90
        0
176
     1
290
     0
176
     1
 90
        5
176
     1
 40
0.0
176
     1
 90
        0
176
     1
290
     0
176
     1
290
     1
176
     1
290
     1
176
     1
290
     0
176
     1
290
     0
176
     1
290
     0
176
     1
290
     0
176
     1
290
     0
176
     1
290
     0
176
     1
 90
       50
176
     1
 40
0.0
176
     1
 40
1.0
176
     1
 90
        0
176
     1
 62
    18
420
        0
176
     1
 90
       50
176
     1
 90
        3
176
     1
 62
     5
420
      255
176
     1
290
     0
176
     1
 90
       50
176
     1
 90
       50
176
     1
 90
       50
176
     1
290
     0
176
     1
 90
       50
176
     1
 62
   256
176
     0
 40
1.0
176
     0
 90
        2
176
     1
  1
strokes_ogs.tif
176
     1
290
     0
176
     1
 40
1.0
176
     1
 40
1.0
176
     1
  0
VISUALSTYLE
  5
F5
102
{ACAD_REACTORS
330
16
102
}
330
16
100
AcDbVisualStyle
  2
Shades of Gray
 70
    23
177
     3
291
     0
 70
    58
 90
        2
176
     1
 90
        2
176
     1
 90
        3
176
     1
 90
        0
176
     1
 40
0.6
176
     1
 40
30.0
176
     1
 62
     7
420
 16777215
176
     1
 90
        2
176
     1
 90
        2
176
     1
 62
     7
176
     1
 62
     7
176
     1
 90
        1
176
     1
 90
        1
176
     1
 40
40.0
176
     1
 90
        8
176
     1
 62
     7
176
     1
 40
1.0
176
     1
 90
        1
176
     1
 90
        6
176
     1
 90
        2
176
     1
 62
     7
176
     1
 90
        3
176
     1
 90
        0
176
     1
 90
        0
176
     1
290
     0
176
     1
 90
        1
176
     1
 40
0.0
176
     1
 90
        0
176
     1
290
     0
176
     1
290
     1
176
     1
290
     1
176
     1
290
     0
176
     1
290
     0
176
     1
290
     0
176
     1
290
     0
176
     1
290
     0
176
     1
290
     0
176
     1
 90
       50
176
     1
 40
0.0
176
     1
 40
1.0
176
     1
 90
        0
176
     1
 62
    18
420
        0
176
     1
 90
       50
176
     1
 90
        3
176
     1
 62
     5
420
      255
176
     1
290
     0
176
     1
 90
       50
176
     1
 90
       50
176
     1
 90
       50
176
     1
290
     0
176
     1
 90
       50
176
     1
 62
   256
176
     0
 40
1.0
176
     0
 90
        2
176
     1
  1
strokes_ogs.tif
176
     1
290
     0
176
     1
 40
1.0
176
     1
 40
1.0
176
     1
  0
VISUALSTYLE
  5
F6
102
{ACAD_REACTORS
330
16
102
}
330
16
100
AcDbVisualStyle
  2
Sketchy
 70
    24
177
     3
291
     0
 70
    58
 90
        1
176
     1
 90
        2
176
     1
 90
        2
176
     1
 90
        0
176
     1
 40
0.6
176
     1
 40
30.0
176
     1
 62
     7
420
 16777215
176
     1
 90
        2
176
     1
 90
        2
176
     1
 62
     7
176
     1
 62
     7
176
     1
 90
        1
176
     1
 90
        1
176
     1
 40
40.0
176
     1
 90
       11
176
     1
 62
     7
176
     1
 40
1.0
176
     1
 90
        1
176
     1
 90
        6
176
     1
 90
        2
176
     1
 62
     7
176
     1
 90
        6
176
     1
 90
        0
176
     1
 90
        0
176
     1
290
     0
176
     1
 90
        1
176
     1
 40
0.0
176
     1
 90
        0
176
     1
290
     0
176
     1
290
     1
176
     1
290
     1
176
     1
290
     0
176
     1
290
     0
176
     1
290
     0
176
     1
290
     0
176
     1
290
     0
176
     1
290
     0
176
     1
 90
       50
176
     1
 40
0.0
176
     1
 40
1.0
176
     1
 90
        0
176
     1
 62
    18
420
        0
176
     1
 90
       50
176
     1
 90
        3
176
     1
 62
     5
420
      255
176
     1
290
     0
176
     1
 90
       50
176
     1
 90
       50
176
     1
 90
       50
176
     1
290
     0
176
     1
 90
       50
176
     1
 62
   256
176
     0
 40
1.0
176
     0
 90
        2
176
     1
  1
strokes_ogs.tif
176
     1
290
     0
176
     1
 40
1.0
176
     1
 40
1.0
176
     1
  0
VISUALSTYLE
  5
EE
102
{ACAD_REACTORS
330
16
102
}
330
16
100
AcDbVisualStyle
  2
Thicken
 70
    13
177
     3
291
     1
 70
    58
 90
        2
176
     1
 90
        2
176
     1
 90
        0
176
     1
 90
        0
176
     1
 40
0.6
176
     1
 40
30.0
176
     1
 62
     7
420
 16777215
176
     1
 90
        1
176
     1
 90
        4
176
     1
 62
     7
176
     1
 62
   257
176
     1
 90
        1
176
     1
 90
        1
176
     1
 40
1.0
176
     1
 90
       12
176
     1
 62
     7
176
     1
 40
1.0
176
     1
 90
        1
176
     1
 90
        6
176
     1
 90
        2
176
     1
 62
     7
176
     1
 90
        5
176
     1
 90
        0
176
     1
 90
        0
176
     1
290
     0
176
     1
 90
        1
176
     1
 40
0.0
176
     1
 90
        0
176
     1
290
     0
176
     1
290
     1
176
     1
290
     1
176
     1
290
     0
176
     1
290
     0
176
     1
290
     0
176
     1
290
     0
176
     1
290
     0
176
     1
290
     0
176
     1
 90
       50
176
     1
 40
0.0
176
     1
 40
1.0
176
     1
 90
        0
176
     1
 62
    18
420
        0
176
     1
 90
       50
176
     1
 90
        3
176
     1
 62
     5
420
      255
176
     1
290
     0
176
     1
 90
       50
176
     1
 90
       50
176
     1
 90
       50
176
     1
290
     0
176
     1
 90
       50
176
     1
 62
   256
176
     0
 40
1.0
176
     0
 90
        2
176
     1
  1
strokes_ogs.tif
176
     1
290
     0
176
     1
 40
1.0
176
     1
 40
1.0
176
     1
  0
VISUALSTYLE
  5
E7
102
{ACAD_REACTORS
330
16
102
}
330
16
100
AcDbVisualStyle
  2
Wireframe
 70
     5
177
     3
291
     0
 70
    58
 90
        0
176
     1
 90
        2
176
     1
 90
        0
176
     1
 90
        0
176
     1
 40
0.6
176
     1
 40
30.0
176
     1
 62
     7
420
 16777215
176
     1
 90
        1
176
     1
 90
        4
176
     1
 62
     7
176
     1
 62
   257
176
     1
 90
        1
176
     1
 90
        1
176
     1
 40
1.0
176
     1
 90
        0
176
     1
 62
   257
176
     1
 40
1.0
176
     1
 90
        1
176
     1
 90
        6
176
     1
 90
        2
176
     1
 62
     7
176
     1
 90
        3
176
     1
 90
        0
176
     1
 90
        0
176
     1
290
     0
176
     1
 90
        1
176
     1
 40
0.0
176
     1
 90
        0
176
     1
290
     0
176
     1
290
     1
176
     1
290
     1
176
     1
290
     0
176
     1
290
     0
176
     1
290
     0
176
     1
290
     0
176
     1
290
     0
176
     1
290
     0
176
     1
 90
       50
176
     1
 40
0.0
176
     1
 40
1.0
176
     1
 90
        0
176
     1
 62
    18
420
        0
176
     1
 90
       50
176
     1
 90
        3
176
     1
 62
     5
420
      255
176
     1
290
     0
176
     1
 90
       50
176
     1
 90
       50
176
     1
 90
       50
176
     1
290
     0
176
     1
 90
       50
176
     1
 62
   256
176
     0
 40
1.0
176
     0
 90
        2
176
     1
  1
strokes_ogs.tif
176
     1
290
     0
176
     1
 40
1.0
176
     1
 40
1.0
176
     1
  0
VISUALSTYLE
  5
F7
102
{ACAD_REACTORS
330
16
102
}
330
16
100
AcDbVisualStyle
  2
X-Ray
 70
    25
177
     3
291
     0
 70
    58
 90
        2
176
     1
 90
        2
176
     1
 90
        1
176
     1
 90
        1
176
     1
 40
0.5
176
     1
 40
30.0
176
     1
 62
     7
420
 16777215
176
     1
 90
        1
176
     1
 90
        0
176
     1
 62
     7
176
     1
 62
   257
176
     1
 90
        1
176
     1
 90
        1
176
     1
 40
1.0
176
     1
 90
        8
176
     1
 62
     7
176
     1
 40
1.0
176
     1
 90
        1
176
     1
 90
        6
176
     1
 90
        2
176
     1
 62
     7
176
     1
 90
        3
176
     1
 90
        0
176
     1
 90
        0
176
     1
290
     0
176
     1
 90
       13
176
     1
 40
0.0
176
     1
 90
        0
176
     1
290
     0
176
     1
290
     1
176
     1
290
     1
176
     1
290
     0
176
     1
290
     0
176
     1
290
     0
176
     1
290
     0
176
     1
290
     0
176
     1
290
     0
176
     1
 90
       50
176
     1
 40
0.0
176
     1
 40
1.0
176
     1
 90
        0
176
     1
 62
    18
420
        0
176
     1
 90
       50
176
     1
 90
        3
176
     1
 62
     5
420
      255
176
     1
290
     0
176
     1
 90
       50
176
     1
 90
       50
176
     1
 90
       50
176
     1
290
     0
176
     1
 90
       50
176
     1
 62
   256
176
     0
 40
1.0
176
     0
 90
        2
176
     1
  1
strokes_ogs.tif
176
     1
290
     0
176
     1
 40
1.0
176
     1
 40
1.0
176
     1
  0
DICTIONARYVAR
  5
FE
102
{ACAD_REACTORS
330
FD
102
}
330
FD
100
DictionaryVariables
280
     0
  1
1:1
  0
DICTIONARYVAR
  5
103
102
{ACAD_REACTORS
330
FD
102
}
330
FD
100
DictionaryVariables
280
     0
  1
Standard
  0
DICTIONARYVAR
  5
102
102
{ACAD_REACTORS
330
FD
102
}
330
FD
100
DictionaryVariables
280
     0
  1
Standard
  0
DICTIONARYVAR
  5
104
102
{ACAD_REACTORS
330
FD
102
}
330
FD
100
DictionaryVariables
280
     0
  1
0
  0
DICTIONARYVAR
  5
105
102
{ACAD_REACTORS
330
FD
102
}
330
FD
100
DictionaryVariables
280
     0
  1
1
  0
DICTIONARY
  5
1054
330
FA
100
AcDbDictionary
280
     1
281
     1
  3
ACAD_ROUNDTRIP_2008_TABLESTYLE_CELLSTYLEMAP
360
1055
  0
CELLSTYLEMAP
  5
1055
102
{ACAD_REACTORS
330
1054
102
}
330
1054
100
AcDbCellStyleMap
 90
        3
300
CELLSTYLE
  1
TABLEFORMAT_BEGIN
 90
        5
170
     1
 91
        0
 92
    32768
 62
   257
 93
        1
300
CONTENTFORMAT
  1
CONTENTFORMAT_BEGIN
 90
        0
 91
        0
 92
        4
 93
        0
300

 40
0.0
140
1.0
 94
        5
 62
     0
340
29
144
6.0
309
CONTENTFORMAT_END
171
     1
301
MARGIN
  1
CELLMARGIN_BEGIN
 40
1.5
 40
1.5
 40
1.5
 40
1.5
 40
1.5
 40
1.5
309
CELLMARGIN_END
 94
        6
 95
        1
302
GRIDFORMAT
  1
GRIDFORMAT_BEGIN
 90
        0
 91
        1
 62
     0
 92
       -2
340
24
 93
        0
 40
0.045
309
GRIDFORMAT_END
 95
        2
302
GRIDFORMAT
  1
GRIDFORMAT_BEGIN
 90
        0
 91
        1
 62
     0
 92
       -2
340
24
 93
        0
 40
0.045
309
GRIDFORMAT_END
 95
        4
302
GRIDFORMAT
  1
GRIDFORMAT_BEGIN
 90
        0
 91
        1
 62
     0
 92
       -2
340
24
 93
        0
 40
0.045
309
GRIDFORMAT_END
 95
        8
302
GRIDFORMAT
  1
GRIDFORMAT_BEGIN
 90
        0
 91
        1
 62
     0
 92
       -2
340
24
 93
        0
 40
0.045
309
GRIDFORMAT_END
 95
       16
302
GRIDFORMAT
  1
GRIDFORMAT_BEGIN
 90
        0
 91
        1
 62
     0
 92
       -2
340
24
 93
        0
 40
0.045
309
GRIDFORMAT_END
 95
       32
302
GRIDFORMAT
  1
GRIDFORMAT_BEGIN
 90
        0
 91
        1
 62
     0
 92
       -2
340
24
 93
        0
 40
0.045
309
GRIDFORMAT_END
309
TABLEFORMAT_END
  1
CELLSTYLE_BEGIN
 90
        1
 91
        1
300
_TITLE
309
CELLSTYLE_END
300
CELLSTYLE
  1
TABLEFORMAT_BEGIN
 90
        5
170
     1
 91
        0
 92
        0
 62
   257
 93
        1
300
CONTENTFORMAT
  1
CONTENTFORMAT_BEGIN
 90
        0
 91
        0
 92
        4
 93
        0
300

 40
0.0
140
1.0
 94
        5
 62
     0
340
29
144
4.5
309
CONTENTFORMAT_END
171
     1
301
MARGIN
  1
CELLMARGIN_BEGIN
 40
1.5
 40
1.5
 40
1.5
 40
1.5
 40
1.5
 40
1.5
309
CELLMARGIN_END
 94
        6
 95
        1
302
GRIDFORMAT
  1
GRIDFORMAT_BEGIN
 90
        0
 91
        1
 62
     0
 92
       -2
340
24
 93
        0
 40
0.045
309
GRIDFORMAT_END
 95
        2
302
GRIDFORMAT
  1
GRIDFORMAT_BEGIN
 90
        0
 91
        1
 62
     0
 92
       -2
340
24
 93
        0
 40
0.045
309
GRIDFORMAT_END
 95
        4
302
GRIDFORMAT
  1
GRIDFORMAT_BEGIN
 90
        0
 91
        1
 62
     0
 92
       -2
340
24
 93
        0
 40
0.045
309
GRIDFORMAT_END
 95
        8
302
GRIDFORMAT
  1
GRIDFORMAT_BEGIN
 90
        0
 91
        1
 62
     0
 92
       -2
340
24
 93
        0
 40
0.045
309
GRIDFORMAT_END
 95
       16
302
GRIDFORMAT
  1
GRIDFORMAT_BEGIN
 90
        0
 91
        1
 62
     0
 92
       -2
340
24
 93
        0
 40
0.045
309
GRIDFORMAT_END
 95
       32
302
GRIDFORMAT
  1
GRIDFORMAT_BEGIN
 90
        0
 91
        1
 62
     0
 92
       -2
340
24
 93
        0
 40
0.045
309
GRIDFORMAT_END
309
TABLEFORMAT_END
  1
CELLSTYLE_BEGIN
 90
        2
 91
        1
300
_HEADER
309
CELLSTYLE_END
300
CELLSTYLE
  1
TABLEFORMAT_BEGIN
 90
        5
170
     1
 91
        0
 92
        0
 62
   257
 93
        1
300
CONTENTFORMAT
  1
CONTENTFORMAT_BEGIN
 90
        0
 91
        0
 92
        4
 93
        0
300

 40
0.0
140
1.0
 94
        2
 62
     0
340
29
144
4.5
309
CONTENTFORMAT_END
171
     1
301
MARGIN
  1
CELLMARGIN_BEGIN
 40
1.5
 40
1.5
 40
1.5
 40
1.5
 40
1.5
 40
1.5
309
CELLMARGIN_END
 94
        6
 95
        1
302
GRIDFORMAT
  1
GRIDFORMAT_BEGIN
 90
        0
 91
        1
 62
     0
 92
       -2
340
24
 93
        0
 40
0.045
309
GRIDFORMAT_END
 95
        2
302
GRIDFORMAT
  1
GRIDFORMAT_BEGIN
 90
        0
 91
        1
 62
     0
 92
       -2
340
24
 93
        0
 40
0.045
309
GRIDFORMAT_END
 95
        4
302
GRIDFORMAT
  1
GRIDFORMAT_BEGIN
 90
        0
 91
        1
 62
     0
 92
       -2
340
24
 93
        0
 40
0.045
309
GRIDFORMAT_END
 95
        8
302
GRIDFORMAT
  1
GRIDFORMAT_BEGIN
 90
        0
 91
        1
 62
     0
 92
       -2
340
24
 93
        0
 40
0.045
309
GRIDFORMAT_END
 95
       16
302
GRIDFORMAT
  1
GRIDFORMAT_BEGIN
 90
        0
 91
        1
 62
     0
 92
       -2
340
24
 93
        0
 40
0.045
309
GRIDFORMAT_END
 95
       32
302
GRIDFORMAT
  1
GRIDFORMAT_BEGIN
 90
        0
 91
        1
 62
     0
 92
       -2
340
24
 93
        0
 40
0.045
309
GRIDFORMAT_END
309
TABLEFORMAT_END
  1
CELLSTYLE_BEGIN
 90
        3
 91
        2
300
_DATA
309
CELLSTYLE_END
  0
ENDSEC
  0
SECTION
  2
THUMBNAILIMAGE
 90
     6376
310
28000000400000002100000001001800000000000000000000000000000000000000000000000000000000000000000000000000000000000000000000000000000000000000000000000000000000000000000000000000000000000000000000000000000000000000000000000000000000000000000000000000000000
310
00000000000000000000000000000000000000000000000000000000000000000000000000000000000000000000000000000000000000000000000000000000000000000000000000000000000000000000000000000000000000000000000000000000000000000000000000000000000000000000000000000000000000
310
00000000000000000000000000000000000000000000000000000000000000000000000000000000000000000000000000000000000000000000000000000000000000000000000000000000000000000000000000000000000000000000000000000000000000000000000000000000000000000000000000000000000000
310
00000000000000000000000000000000000000000000000000000000000000000000000000000000000000000000000000000000000000000000000000000000000000000000000000000000000000000000000000000000000000000000000000000000000000000000000000000000000000000000000000000000000000
310
00000000000000000000000000000000000000000000000000000000000000000000000000000000000000000000000000000000000000000000000000000000000000000000000000000000000000000000000000000000000000000000000000000000000000000000000000000000000000000000000000000000000000
310
00000000000000000000000000000000000000000000000000000000000000000000000000000000000000000000000000000000000000000000000000000000000000000000000000000000000000000000000000000000000000000000000000000000000000000000000000000000000000000000000000000000000000
310
00000000000000000000000000000000000000000000000000000000000000000000000000000000000000000000000000000000000000000000000000000000000000000000000000000000000000000000000000000000000000000000000000000000000000000000000000000000000000000000000000000000000000
310
00000000000000000000000000000000000000000000000000000000000000000000000000000000000000000000000000000000000000000000000000000000000000000000000000000000000000000000000000000000000000000000000000000000000000000000000000000000000000000000000000000000000000
310
00000000000000000000000000000000000000000000000000000000000000000000000000000000000000000000000000000000000000000000000000000000000000000000000000000000000000000000000000000000000000000000000000000000000000000000000000000000000000000000000000000000000000
310
00000000000000000000000000000000000000000000000000000000000000000000000000000000000000000000000000000000000000000000000000000000000000000000000000000000000000000000000000000000000000000000000000000000000000000000000000000000000000000000000000000000000000
310
00000000000000000000000000000000000000000000000000000000000000000000000000000000000000000000000000000000000000000000000000000000000000000000000000000000000000000000000000000000000000000000000000000000000000000000000000000000000000000000000000000000000000
310
00000000000000000000000000000000000000000000000000000000000000000000000000000000000000000000000000000000000000000000000000000000000000000000000000000000000000000000000000000000000000000000000000000000000000000000000000000000000000000000000000000000000000
310
00000000000000000000000000000000000000000000000000000000000000000000000000000000000000000000000000000000000000000000000000000000000000000000000000000000000000000000000000000000000000000000000000000000000000000000000000000000000000000000000000000000000000
310
00000000000000000000000000000000000000000000000000000000000000000000000000000000000000000000000000000000000000000000000000000000000000000000000000000000000000000000000000000000000000000000000000000000000000000000000000000000000000000000000000000000000000
310
00000000000000000000000000000000000000000000000000000000000000000000000000000000000000000000000000000000000000000000000000000000000000000000000000000000000000000000000000000000000000000000000000000000000000000000000000000000000000000000000000000000000000
310
00000000000000000000000000000000000000000000000000000000000000000000000000000000000000000000000000000000000000000000000000000000000000000000000000000000000000000000000000000000000000000000000000000000000000000000000000000000000000000000000000000000000000
310
00000000000000000000000000000000000000000000000000000000000000000000000000000000000000000000000000000000000000000000000000000000000000000000000000000000000000000000000000000000000000000000000000000000000000000000000000000000000000000000000000000000000000
310
00000000000000000000000000000000000000000000000000000000000000000000000000000000000000000000000000000000000000000000000000000000000000000000000000000000000000000000000000000000000000000000000000000000000000000000000000000000000000000000000000000000000000
310
00000000000000000000000000000000000000000000000000000000000000000000000000000000000000000000000000000000000000000000000000000000000000000000000000000000000000000000000000000000000000000000000000000000000000000000000000000000000000000000000000000000000000
310
00000000000000000000000000000000000000000000000000000000000000000000000000000000000000000000000000000000000000000000000000000000000000000000000000000000000000000000000000000000000000000000000000000000000000000000000000000000000000000000000000000000000000
310
00000000000000000000000000000000000000000000000000000000000000000000000000000000000000000000000000000000000000000000000000000000000000000000000000000000000000000000000000000000000000000000000000000000000000000000000000000000000000000000000000000000000000
310
00000000000000000000000000000000000000000000000000000000000000000000000000000000000000000000000000000000000000000000000000000000000000000000000000000000000000000000000000000000000000000000000000000000000000000000000000000000000000000000000000000000000000
310
00000000000000000000000000000000000000000000000000000000000000000000000000000000000000000000000000000000000000000000000000000000000000000000000000000000000000000000000000000000000000000000000000000000000000000000000000000000000000000000000000000000000000
310
00000000000000000000000000000000000000000000000000000000000000000000000000000000000000000000000000000000000000000000000000000000000000000000000000000000000000000000000000000000000000000000000000000000000000000000000000000000000000000000000000000000000000
310
0000000000000000000000000000000000000000000000000000000000000000000000000000000000000000000000000000000000000000000000000000000000000000000000000000000000000000000000000000000000000000000000000000000000000000000000000000000000000000000000760000F30000D700
310
00080000000000000000000000000000000000000000000000000000000000000000000000000000000000000000000000000000000000000000000000000000000000000000000000000000000000000000000000000000000000000000000000000000000000000000000000000000000000000000000000000000000000
310
00000000000000000000000000000000000000000000000000000000000000000000000000000000000000000000000000000000000000000068970001FE0002FD00E11600EC0000F10000100000A00000F5000071000000A60000EF0000D20000000000000000000000000000000000000000000000000000000000000000
310
000000000000000000000000000000000000000000000000000000000000000000000000000000000000000000000000000000000000000000000000000000000000000000000000000000000000000000000000000000000000000000000000000000000000000000000000000000000000000000000000000000FE0000FF
310
0000FF005A6600FF0000FF0000FF0000FF0000FF0000FF000000FF0000FF0000FF0000FF00000000000000000000000000000000000000000000000000000000000000000000000000000000000000000000000000000000000000000000000000000000000000000000000000000000000000000000000000000000000000
310
0000000000000000000000000000000000000000000000000000000000000000000000000000000000000000000000000000000000000000003000085500100F00000800006800182400000000005000184100000000002800103C000808000000F40000FF0000FF000000000000101E00080800000000006800182B000000
310
0000000000000000000000000000000000000000000000000000000000000000000000000000000000000000000000000000000000000000000000000000000000000000000000000000000000000000000000000000000000000000000000000000000000000000000000000000000000000000000000000000CF000800F7
310
F40A002CD38309F3002800D740BFBF30CFCF1708E040BFBF03FC081000EF40BFBF1D55E20309F00D00F240BFBF2800001000EF40BFBF30CF8F00F9002800D740BF0030CFCF00000000000000000000000000000000000000000000000000000000000000000000000000000000000000000000000000000000000000000000
310
000000000000000000000000000000000000000000000000000000000000000000000000000000000000000000000000000000000000000000080000F70048B7B7CF30004FB01A08F700A75858BF4040B74848807F7F9B64340BF404609F9FBF4040F303002ED114BF4040BF4040887747609F9FBF4040649B0009F603A758
310
58BF4040B7484810000000000000000000000000000000000000000000000000000000000000000000000000000000000000000000000000000000000000000000000000000000000000000000000000000000000000000000000000000000000000000000000000000000000000000000000000000000000000400000EF00
310
00FFFF00FFFF00FF2100FFFF00FFFF00FFFF00FFFF18E7E700FF8F00FF0700FFFF00FFFF00FFEF00FFFF00FFFF00FFFF00FF8F00FFFF00FFFF00FF3018E70000FFFF00FFFF00FFFF18000000000000000000000000000000000000000000000000000000000000000000000000000000000000000000000000000000000000
310
000000000000000000000000000000000000000000000000000000000000000000000000000000000000000000000000000000000000000000000000840000FB0000FFFF00FFEF00FF0718E70B00FFFF00FFFF00FFFF18E7E700FF4100FF0000FFFF00FFFF00FFAF46B90B00FFFF00FFFF00FF4100FFFF00FFF700FF0818E7
310
0600FFFF00FFFF00FFFF18000000000000000000000000000000000000000000000000000000000000000000000000000000000000000000000000000000000000000000000000000000000000000000000000000000000000000000000000000000000000000000000000000000000000000000000000000000000000CF00
310
00FF0010B20000FF0004F00002F30000FF0000FF003DBD0001FE0000FF0000FF002D800000FF001D960000FF0000FF0000FF0001F90000FF0000FF0000FF0002F00000FF004C00003D000000000000000000000000000000000000000000000000000000000000000000000000000000000000000000000000000000000000
310
000000000000000000000000000000000000000000000000000000000000000000000000000000000000000000000000000000000000000000000000080000F70000F80000700000960000FF0000EB0000300000F00000F00000570000F00000F00000500000000000DE0000FF0000AB0000300000F00000EF0000A30000FB
310
0000F600000000000000000000000000000000000000000000000000000000000000000000000000000000000000000000000000000000000000000000000000000000000000000000000000000000000000000000000000000000000000000000000000000000000000000000000000000000000000000000000000004000
310
00EF0000F00000300000DE0000FF0000AB0000700000F90000F60000700000F80000F80000100000100000F80000F30000600000700000F80000F70000D10000FF0000BE0000000000000000000000000000000000000000000000000000000000000000000000000000000000000000000000000000000000000000000000
310
000000000000000000000000000000000000000000000000000000000000000000000000000000000000000000000000000000000000000000000000000000840000FB0000F60000100000F80000F30000600000BE0000FF0000BE0000BE0000FF0000DE0000000000500000F00000F30000200000BE0000FF0000D10000F7
310
0000F800007000000000000000000000000000000000000000000000000000000000000000000000000000000000000000000000000000000000000000000000000000000000000000000000000000000000000000000000000000000000000000000000000000000000000000000000000000000000000000000000000000
310
00CF0000FF0000BE0000500000F00000F30000200000F60000F90000700000F60000FF0000960000000000960000FF0000EB0000000000F60000FB0000A30000EF0000F00000300000000000000000000000000000000000000000000000000000000000000000000000000000000000000000000000000000000000000000
310
000000000000000000000000000000000000000000000000000000000000000000000000000000000000000000000000000000000000000000000000000000000000FA0000FB00007000008B0000FA0000EB0000280000F80000F50000570000FA0000F60000500000000000DE0000FF0000AB0000300000F50000F100009A
310
0000F80000F600000000000000000000000000000000000000000000000000000000000000000000000000000000000000000000000000000000000000000000000000000000000000000000000000000000000000000000000000000000000000000000000000000000000000000000000000000000000000000000000000
310
00000000380000800000100000100000680000500000000000500000700000000000700000780000080000000000600000C70000400000100000960000BC0000170000680000500000000000000000000000000000000000000000000000000000000000000000000000000000000000000000000000000000000000000000
310
00000000000000000000000000000000000000000000000000000000000000000000000000000000000000000000000000000000000000000000000000000000000000000000000000000000000000000000000000000000000000000000000000000000000000000000000000000000000000000000000000000000000000
310
00000000000000000000000000000000000000000000000000000000000000000000000000000000000000000000000000000000000000000000000000000000000000000000000000000000000000000000000000000000000000000000000000000000000000000000000000000000000000000000000000000000000000
310
00000000000000000000000000000000000000000000000000000000000000000000000000000000000000000000000000000000000000000000000000000000000000000000000000000000000000000000000000000000000000000000000000000000000000000000000000000000000000000000000000000000000000
310
0000000000000000000000000000000000000000000000000000
  0
ENDSEC
  0
EOF
