  0
SECTION
  2
HEADER
  9
$ACADVER
  1
AC1027
  9
$ACADMAINTVER
 70
   105
  9
$DWGCODEPAGE
  3
ANSI_1252
  9
$LASTSAVEDBY
  1
manfred
  9
$REQUIREDVERSIONS
160
                 0
  9
$INSBASE
 10
0.0
 20
0.0
 30
0.0
  9
$EXTMIN
 10
-0.1
 20
-21.452786522369
 30
0.0
  9
$EXTMAX
 10
77.616938767567
 20
4.119650511208
 30
0.0
  9
$LIMMIN
 10
0.0
 20
0.0
  9
$LIMMAX
 10
420.0
 20
297.0
  9
$ORTHOMODE
 70
     0
  9
$REGENMODE
 70
     1
  9
$FILLMODE
 70
     1
  9
$QTEXTMODE
 70
     0
  9
$MIRRTEXT
 70
     1
  9
$LTSCALE
 40
1.0
  9
$ATTMODE
 70
     1
  9
$TEXTSIZE
 40
2.5
  9
$TRACEWID
 40
1.0
  9
$TEXTSTYLE
  7
Standard
  9
$CLAYER
  8
0
  9
$CELTYPE
  6
ByLayer
  9
$CECOLOR
 62
   256
  9
$CELTSCALE
 40
1.0
  9
$DISPSILH
 70
     0
  9
$DIMSCALE
 40
1.0
  9
$DIMASZ
 40
2.5
  9
$DIMEXO
 40
0.625
  9
$DIMDLI
 40
3.75
  9
$DIMRND
 40
0.0
  9
$DIMDLE
 40
0.0
  9
$DIMEXE
 40
1.25
  9
$DIMTP
 40
0.0
  9
$DIMTM
 40
0.0
  9
$DIMTXT
 40
2.5
  9
$DIMCEN
 40
2.5
  9
$DIMTSZ
 40
0.0
  9
$DIMTOL
 70
     0
  9
$DIMLIM
 70
     0
  9
$DIMTIH
 70
     0
  9
$DIMTOH
 70
     0
  9
$DIMSE1
 70
     0
  9
$DIMSE2
 70
     0
  9
$DIMTAD
 70
     1
  9
$DIMZIN
 70
     8
  9
$DIMBLK
  1

  9
$DIMASO
 70
     1
  9
$DIMSHO
 70
     1
  9
$DIMPOST
  1

  9
$DIMAPOST
  1

  9
$DIMALT
 70
     0
  9
$DIMALTD
 70
     3
  9
$DIMALTF
 40
0.03937007874
  9
$DIMLFAC
 40
1.0
  9
$DIMTOFL
 70
     1
  9
$DIMTVP
 40
0.0
  9
$DIMTIX
 70
     0
  9
$DIMSOXD
 70
     0
  9
$DIMSAH
 70
     0
  9
$DIMBLK1
  1

  9
$DIMBLK2
  1

  9
$DIMSTYLE
  2
Standard
  9
$DIMCLRD
 70
     0
  9
$DIMCLRE
 70
     0
  9
$DIMCLRT
 70
     0
  9
$DIMTFAC
 40
1.0
  9
$DIMGAP
 40
0.625
  9
$DIMJUST
 70
     0
  9
$DIMSD1
 70
     0
  9
$DIMSD2
 70
     0
  9
$DIMTOLJ
 70
     0
  9
$DIMTZIN
 70
     8
  9
$DIMALTZ
 70
     0
  9
$DIMALTTZ
 70
     0
  9
$DIMUPT
 70
     0
  9
$DIMDEC
 70
     2
  9
$DIMTDEC
 70
     2
  9
$DIMALTU
 70
     2
  9
$DIMALTTD
 70
     3
  9
$DIMTXSTY
  7
Standard
  9
$DIMAUNIT
 70
     0
  9
$DIMADEC
 70
     0
  9
$DIMALTRND
 40
0.0
  9
$DIMAZIN
 70
     0
  9
$DIMDSEP
 70
    44
  9
$DIMATFIT
 70
     3
  9
$DIMFRAC
 70
     0
  9
$DIMLDRBLK
  1

  9
$DIMLUNIT
 70
     2
  9
$DIMLWD
 70
    -2
  9
$DIMLWE
 70
    -2
  9
$DIMTMOVE
 70
     0
  9
$DIMFXL
 40
1.0
  9
$DIMFXLON
 70
     0
  9
$DIMJOGANG
 40
0.785398163397
  9
$DIMTFILL
 70
     0
  9
$DIMTFILLCLR
 70
     0
  9
$DIMARCSYM
 70
     0
  9
$DIMLTYPE
  6

  9
$DIMLTEX1
  6

  9
$DIMLTEX2
  6

  9
$DIMTXTDIRECTION
 70
     0
  9
$LUNITS
 70
     2
  9
$LUPREC
 70
     4
  9
$SKETCHINC
 40
1.0
  9
$FILLETRAD
 40
10.0
  9
$AUNITS
 70
     0
  9
$AUPREC
 70
     2
  9
$MENU
  1
.
  9
$ELEVATION
 40
0.0
  9
$PELEVATION
 40
0.0
  9
$THICKNESS
 40
0.0
  9
$LIMCHECK
 70
     0
  9
$CHAMFERA
 40
0.0
  9
$CHAMFERB
 40
0.0
  9
$CHAMFERC
 40
0.0
  9
$CHAMFERD
 40
0.0
  9
$SKPOLY
 70
     0
  9
$TDCREATE
 40
2458532.195663553
  9
$TDUCREATE
 40
2458532.153996887
  9
$TDUPDATE
 40
2459264.225494259
  9
$TDUUPDATE
 40
2459264.183827593
  9
$TDINDWG
 40
0.0
  9
$TDUSRTIMER
 40
0.0
  9
$USRTIMER
 70
     1
  9
$ANGBASE
 50
0.0
  9
$ANGDIR
 70
     0
  9
$PDMODE
 70
     0
  9
$PDSIZE
 40
0.0
  9
$PLINEWID
 40
0.0
  9
$SPLFRAME
 70
     0
  9
$SPLINETYPE
 70
     6
  9
$SPLINESEGS
 70
     8
  9
$HANDSEED
  5
ECE
  9
$SURFTAB1
 70
     6
  9
$SURFTAB2
 70
     6
  9
$SURFTYPE
 70
     6
  9
$SURFU
 70
     6
  9
$SURFV
 70
     6
  9
$UCSBASE
  2

  9
$UCSNAME
  2

  9
$UCSORG
 10
0.0
 20
0.0
 30
0.0
  9
$UCSXDIR
 10
1.0
 20
0.0
 30
0.0
  9
$UCSYDIR
 10
0.0
 20
1.0
 30
0.0
  9
$UCSORTHOREF
  2

  9
$UCSORTHOVIEW
 70
     0
  9
$UCSORGTOP
 10
0.0
 20
0.0
 30
0.0
  9
$UCSORGBOTTOM
 10
0.0
 20
0.0
 30
0.0
  9
$UCSORGLEFT
 10
0.0
 20
0.0
 30
0.0
  9
$UCSORGRIGHT
 10
0.0
 20
0.0
 30
0.0
  9
$UCSORGFRONT
 10
0.0
 20
0.0
 30
0.0
  9
$UCSORGBACK
 10
0.0
 20
0.0
 30
0.0
  9
$PUCSBASE
  2

  9
$PUCSNAME
  2

  9
$PUCSORG
 10
0.0
 20
0.0
 30
0.0
  9
$PUCSXDIR
 10
1.0
 20
0.0
 30
0.0
  9
$PUCSYDIR
 10
0.0
 20
1.0
 30
0.0
  9
$PUCSORTHOREF
  2

  9
$PUCSORTHOVIEW
 70
     0
  9
$PUCSORGTOP
 10
0.0
 20
0.0
 30
0.0
  9
$PUCSORGBOTTOM
 10
0.0
 20
0.0
 30
0.0
  9
$PUCSORGLEFT
 10
0.0
 20
0.0
 30
0.0
  9
$PUCSORGRIGHT
 10
0.0
 20
0.0
 30
0.0
  9
$PUCSORGFRONT
 10
0.0
 20
0.0
 30
0.0
  9
$PUCSORGBACK
 10
0.0
 20
0.0
 30
0.0
  9
$USERI1
 70
     0
  9
$USERI2
 70
     0
  9
$USERI3
 70
     0
  9
$USERI4
 70
     0
  9
$USERI5
 70
     0
  9
$USERR1
 40
0.0
  9
$USERR2
 40
0.0
  9
$USERR3
 40
0.0
  9
$USERR4
 40
0.0
  9
$USERR5
 40
0.0
  9
$WORLDVIEW
 70
     1
  9
$SHADEDGE
 70
     3
  9
$SHADEDIF
 70
    70
  9
$TILEMODE
 70
     1
  9
$MAXACTVP
 70
    64
  9
$PINSBASE
 10
0.0
 20
0.0
 30
0.0
  9
$PLIMCHECK
 70
     0
  9
$PEXTMIN
 10
1.000000000000E+20
 20
1.000000000000E+20
 30
1.000000000000E+20
  9
$PEXTMAX
 10
-1.000000000000E+20
 20
-1.000000000000E+20
 30
-1.000000000000E+20
  9
$PLIMMIN
 10
0.0
 20
0.0
  9
$PLIMMAX
 10
420.0
 20
297.0
  9
$UNITMODE
 70
     0
  9
$VISRETAIN
 70
     1
  9
$PLINEGEN
 70
     0
  9
$PSLTSCALE
 70
     1
  9
$TREEDEPTH
 70
  3020
  9
$CMLSTYLE
  2
Standard
  9
$CMLJUST
 70
     0
  9
$CMLSCALE
 40
20.0
  9
$PROXYGRAPHICS
 70
     1
  9
$MEASUREMENT
 70
     1
  9
$CELWEIGHT
370
    -1
  9
$ENDCAPS
280
     0
  9
$JOINSTYLE
280
     0
  9
$LWDISPLAY
290
     0
  9
$INSUNITS
 70
     6
  9
$HYPERLINKBASE
  1

  9
$STYLESHEET
  1

  9
$XEDIT
290
     1
  9
$CEPSNTYPE
380
     0
  9
$PSTYLEMODE
290
     1
  9
$FINGERPRINTGUID
  2
1EDDA5D9-6206-11EB-A960-1803733EFA49
  9
$VERSIONGUID
  2
1F3ED8E5-6206-11EB-AD03-1803733EFA49
  9
$EXTNAMES
290
     1
  9
$PSVPSCALE
 40
0.0
  9
$OLESTARTUP
290
     0
  9
$SORTENTS
280
   127
  9
$INDEXCTL
280
     0
  9
$HIDETEXT
280
     1
  9
$XCLIPFRAME
280
     1
  9
$HALOGAP
280
     0
  9
$OBSCOLOR
 70
   257
  9
$OBSLTYPE
280
     0
  9
$INTERSECTIONDISPLAY
280
     0
  9
$INTERSECTIONCOLOR
 70
   257
  9
$DIMASSOC
280
     2
  9
$PROJECTNAME
  1

  9
$CAMERADISPLAY
290
     0
  9
$LENSLENGTH
 40
50.0
  9
$CAMERAHEIGHT
 40
0.0
  9
$STEPSPERSEC
 40
24.0
  9
$STEPSIZE
 40
2.0
  9
$3DDWFPREC
 40
2.0
  9
$PSOLWIDTH
 40
0.25
  9
$PSOLHEIGHT
 40
4.0
  9
$LOFTANG1
 40
1.570796326795
  9
$LOFTANG2
 40
1.570796326795
  9
$LOFTMAG1
 40
0.0
  9
$LOFTMAG2
 40
0.0
  9
$LOFTPARAM
 70
     7
  9
$LOFTNORMALS
280
     1
  9
$LATITUDE
 40
37.795
  9
$LONGITUDE
 40
-122.394
  9
$NORTHDIRECTION
 40
0.0
  9
$TIMEZONE
 70
 -8000
  9
$LIGHTGLYPHDISPLAY
280
     1
  9
$TILEMODELIGHTSYNCH
280
     1
  9
$CMATERIAL
347
20
  9
$SOLIDHIST
280
     0
  9
$SHOWHIST
280
     1
  9
$DWFFRAME
280
     2
  9
$DGNFRAME
280
     2
  9
$REALWORLDSCALE
290
     1
  9
$INTERFERECOLOR
 62
   256
  9
$CSHADOW
280
     0
  9
$SHADOWPLANELOCATION
 40
0.0
  0
ENDSEC
  0
SECTION
  2
CLASSES
  0
CLASS
  1
ACDBDICTIONARYWDFLT
  2
AcDbDictionaryWithDefault
  3
ObjectDBX Classes
 90
        0
 91
        3
280
     0
281
     0
  0
CLASS
  1
SUN
  2
AcDbSun
  3
SCENEOE
 90
     1153
 91
        3
280
     0
281
     0
  0
CLASS
  1
VISUALSTYLE
  2
AcDbVisualStyle
  3
ObjectDBX Classes
 90
     4095
 91
        3
280
     0
281
     0
  0
CLASS
  1
MATERIAL
  2
AcDbMaterial
  3
ObjectDBX Classes
 90
     1153
 91
        3
280
     0
281
     0
  0
CLASS
  1
SCALE
  2
AcDbScale
  3
ObjectDBX Classes
 90
     1153
 91
        3
280
     0
281
     0
  0
CLASS
  1
TABLESTYLE
  2
AcDbTableStyle
  3
ObjectDBX Classes
 90
     4095
 91
        3
280
     0
281
     0
  0
CLASS
  1
MLEADERSTYLE
  2
AcDbMLeaderStyle
  3
ACDB_MLEADERSTYLE_CLASS
 90
     4095
 91
        3
280
     0
281
     0
  0
CLASS
  1
DICTIONARYVAR
  2
AcDbDictionaryVar
  3
ObjectDBX Classes
 90
        0
 91
        3
280
     0
281
     0
  0
CLASS
  1
CELLSTYLEMAP
  2
AcDbCellStyleMap
  3
ObjectDBX Classes
 90
     1152
 91
        3
280
     0
281
     0
  0
CLASS
  1
MENTALRAYRENDERSETTINGS
  2
AcDbMentalRayRenderSettings
  3
SCENEOE
 90
     1024
 91
        3
280
     0
281
     0
  0
CLASS
  1
ACDBDETAILVIEWSTYLE
  2
AcDbDetailViewStyle
  3
ObjectDBX Classes
 90
     1025
 91
        3
280
     0
281
     0
  0
CLASS
  1
ACDBSECTIONVIEWSTYLE
  2
AcDbSectionViewStyle
  3
ObjectDBX Classes
 90
     1025
 91
        3
280
     0
281
     0
  0
CLASS
  1
RASTERVARIABLES
  2
AcDbRasterVariables
  3
ISM
 90
        0
 91
        3
280
     0
281
     0
  0
CLASS
  1
LAYOUT
  2
AcDbLayout
  3
ObjectDBX Classes
 90
        0
 91
        1
280
     0
281
     0
  0
CLASS
  1
ACDBPLACEHOLDER
  2
AcDbPlaceHolder
  3
ObjectDBX Classes
 90
        0
 91
        1
280
     0
281
     0
  0
ENDSEC
  0
SECTION
  2
TABLES
  0
TABLE
  2
VPORT
  5
8
330
0
100
AcDbSymbolTable
 70
     1
  0
VPORT
  5
CE
330
8
100
AcDbSymbolTableRecord
100
AcDbViewportTableRecord
  2
*Active
 70
     0
 10
0.0
 20
0.0
 11
1.0
 21
1.0
 12
38.758469383783
 22
-8.66656800558
 13
0.0
 23
0.0
 14
0.5
 24
0.5
 15
0.5
 25
0.5
 16
0.0
 26
0.0
 36
1.0
 17
0.0
 27
0.0
 37
6.810003585138
 40
41.025795759365
 41
1.932230102443
 42
50.0
 43
0.0
 44
0.0
 50
0.0
 51
0.0
 71
     0
 72
  1000
 73
     1
 74
     3
 75
     0
 76
     0
 77
     0
 78
     0
281
     0
 65
     0
110
0.0
120
0.0
130
0.0
111
1.0
121
0.0
131
0.0
112
0.0
122
1.0
132
0.0
 79
     0
146
0.0
348
E6
 60
     3
 61
     5
292
     0
282
     1
141
0.0
142
0.0
 63
   250
421
  3355443
361
FC
  0
ENDTAB
  0
TABLE
  2
LTYPE
  5
2
330
0
100
AcDbSymbolTable
 70
     1
  0
LTYPE
  5
24
330
2
100
AcDbSymbolTableRecord
100
AcDbLinetypeTableRecord
  2
ByBlock
 70
     0
  3

 72
    65
 73
     0
 40
0.0
  0
LTYPE
  5
25
330
2
100
AcDbSymbolTableRecord
100
AcDbLinetypeTableRecord
  2
ByLayer
 70
     0
  3

 72
    65
 73
     0
 40
0.0
  0
LTYPE
  5
26
330
2
100
AcDbSymbolTableRecord
100
AcDbLinetypeTableRecord
  2
Continuous
 70
     0
  3

 72
    65
 73
     0
 40
0.0
  0
ENDTAB
  0
TABLE
  2
LAYER
  5
1
330
0
100
AcDbSymbolTable
 70
     2
  0
LAYER
  5
27
330
1
100
AcDbSymbolTableRecord
100
AcDbLayerTableRecord
  2
0
 70
     0
 62
     7
  6
Continuous
370
    -3
390
13
347
21
348
0
  0
LAYER
  5
45
330
1
100
AcDbSymbolTableRecord
100
AcDbLayerTableRecord
  2
INSERT_POINTS
 70
     0
 62
     7
  6
Continuous
370
    -3
390
13
347
21
348
0
  0
ENDTAB
  0
TABLE
  2
STYLE
  5
5
330
0
100
AcDbSymbolTable
 70
     1
  0
STYLE
  5
29
330
5
100
AcDbSymbolTableRecord
100
AcDbTextStyleTableRecord
  2
Standard
 70
     0
 40
0.0
 41
1.0
 50
0.0
 71
     0
 42
2.5
  3
arial.ttf
  4

1001
ACAD
1000
Arial
1071
       34
  0
ENDTAB
  0
TABLE
  2
VIEW
  5
7
330
0
100
AcDbSymbolTable
 70
     0
  0
ENDTAB
  0
TABLE
  2
UCS
  5
6
330
0
100
AcDbSymbolTable
 70
     0
  0
ENDTAB
  0
TABLE
  2
APPID
  5
3
330
0
100
AcDbSymbolTable
 70
     3
  0
APPID
  5
2A
330
3
100
AcDbSymbolTableRecord
100
AcDbRegAppTableRecord
  2
ACAD
 70
     0
  0
APPID
  5
CF
330
3
100
AcDbSymbolTableRecord
100
AcDbRegAppTableRecord
  2
HATCHBACKGROUNDCOLOR
 70
     0
  0
APPID
  5
2AD
330
3
100
AcDbSymbolTableRecord
100
AcDbRegAppTableRecord
  2
AcadAnnotative
 70
     0
  0
ENDTAB
  0
TABLE
  2
DIMSTYLE
  5
4
330
0
100
AcDbSymbolTable
 70
     1
100
AcDbDimStyleTable
  0
DIMSTYLE
105
2B
330
4
100
AcDbSymbolTableRecord
100
AcDbDimStyleTableRecord
  2
Standard
 70
     0
 41
2.5
 42
0.625
 43
3.75
 44
1.25
 73
     0
 74
     0
 77
     1
 78
     8
140
2.5
141
2.5
143
0.03937007874
147
0.625
171
     3
172
     1
178
     0
271
     0
272
     2
274
     3
278
    44
283
     0
284
     8
340
29
  0
ENDTAB
  0
TABLE
  2
BLOCK_RECORD
  5
9
330
0
100
AcDbSymbolTable
 70
     0
  0
BLOCK_RECORD
  5
17
330
9
100
AcDbSymbolTableRecord
100
AcDbBlockTableRecord
  2
*Model_Space
340
1A
 70
     0
280
     1
281
     0
  0
BLOCK_RECORD
  5
1B
330
9
100
AcDbSymbolTableRecord
100
AcDbBlockTableRecord
  2
*Paper_Space
340
1E
 70
     0
280
     1
281
     0
  0
ENDTAB
  0
ENDSEC
  0
SECTION
  2
BLOCKS
  0
BLOCK
  5
18
330
17
100
AcDbEntity
  8
0
100
AcDbBlockBegin
  2
*Model_Space
 70
     0
 10
0.0
 20
0.0
 30
0.0
  3
*Model_Space
  1

  0
ENDBLK
  5
19
330
17
100
AcDbEntity
  8
0
100
AcDbBlockEnd
  0
BLOCK
  5
1C
330
1B
100
AcDbEntity
 67
     1
  8
0
100
AcDbBlockBegin
  2
*Paper_Space
 70
     0
 10
0.0
 20
0.0
 30
0.0
  3
*Paper_Space
  1

  0
ENDBLK
  5
1D
330
1B
100
AcDbEntity
 67
     1
  8
0
100
AcDbBlockEnd
  0
ENDSEC
  0
SECTION
  2
ENTITIES
  0
TEXT
  5
2D
330
17
100
AcDbEntity
  8
0
 62
     3
100
AcDbText
 10
0.118849688059
 20
-5.231006269827
 30
0.0
 40
0.112431981501
  1
ALIGNED-TEXT-ALIGNED-TEXT-gjpqy-ALIGNED-TEXT-ALIGNED-TEXT
 50
14.036243467926
 72
     3
 11
5.118849688059
 21
-3.981006269827
 31
0.0
100
AcDbText
  0
LINE
  5
2E
330
17
100
AcDbEntity
  8
0
 62
     5
100
AcDbLine
 10
0.118849688059
 20
-5.231006269827
 30
0.0
 11
5.118849688059
 21
-3.981006269827
 31
0.0
  0
TEXT
  5
2F
330
17
100
AcDbEntity
  8
0
 62
     3
100
AcDbText
 10
0.118849688059
 20
-2.731006269827
 30
0.0
 40
0.625
  1
FITTED-TEXT-FITTED-TEXT-gjpqy-FITTED-TEXT-FITTED-TEXT
 50
345.963756532073
 41
0.201756979136
 72
     5
 11
5.118849688059
 21
-3.981006269827
 31
0.0
100
AcDbText
  0
LINE
  5
30
330
17
100
AcDbEntity
  8
0
 62
     5
100
AcDbLine
 10
0.118849688059
 20
-2.731006269827
 30
0.0
 11
5.118849688059
 21
-3.981006269827
 31
0.0
  0
LINE
  5
31
330
17
100
AcDbEntity
  8
0
 62
     5
100
AcDbLine
 10
0.0
 20
0.0
 30
0.0
 11
0.0
 21
2.023487285143
 31
0.0
  0
LINE
  5
32
330
17
100
AcDbEntity
  8
0
 62
     5
100
AcDbLine
 10
5.0
 20
0.0
 30
0.0
 11
5.0
 21
2.023487285143
 31
0.0
  0
LINE
  5
33
330
17
100
AcDbEntity
  8
0
 62
     5
100
AcDbLine
 10
10.0
 20
0.0
 30
0.0
 11
10.0
 21
2.023487285143
 31
0.0
  0
LINE
  5
34
330
17
100
AcDbEntity
  8
0
 62
     5
100
AcDbLine
 10
0.0
 20
-1.0
 30
0.0
 11
10.0
 21
-1.0
 31
0.0
  0
TEXT
  5
35
330
17
100
AcDbEntity
  8
0
 62
     3
100
AcDbText
 10
0.0
 20
-1.5
 30
0.0
 40
0.2
  1
BASELINE ADJUSTMENTS (gjpqy)
100
AcDbText
  0
TEXT
  5
36
330
17
100
AcDbEntity
  8
0
 62
     3
100
AcDbText
 10
0.0
 20
-1.0
 30
0.0
 40
0.2
  1
LEFT
100
AcDbText
  0
TEXT
  5
37
330
17
100
AcDbEntity
  8
0
 62
     3
100
AcDbText
 10
4.4261
 20
-1.0
 30
0.0
 40
0.2
  1
CENTER
 72
     1
 11
5.0
 21
-1.0
 31
0.0
100
AcDbText
  0
TEXT
  5
38
330
17
100
AcDbEntity
  8
0
 62
     3
100
AcDbText
 10
9.1314
 20
-1.0
 30
0.0
 40
0.2
  1
RIGHT
 72
     2
 11
10.0
 21
-1.0
 31
0.0
100
AcDbText
  0
LINE
  5
39
330
17
100
AcDbEntity
  8
0
 62
     5
100
AcDbLine
 10
0.0
 20
0.0
 30
0.0
 11
10.0
 21
0.0
 31
0.0
  0
TEXT
  5
3A
330
17
100
AcDbEntity
  8
0
 62
     2
100
AcDbText
 10
0.0
 20
0.059181818182
 30
0.0
 40
0.2
  1
BOTTOM_LEFT
 11
0.0
 21
0.0
 31
0.0
100
AcDbText
 73
     1
  0
TEXT
  5
3B
330
17
100
AcDbEntity
  8
0
 62
     2
100
AcDbText
 10
3.3401
 20
0.059181818182
 30
0.0
 40
0.2
  1
BOTTOM_CENTER_gjpqy
 72
     1
 11
5.0
 21
0.0
 31
0.0
100
AcDbText
 73
     1
  0
TEXT
  5
3C
330
17
100
AcDbEntity
  8
0
 62
     2
100
AcDbText
 10
7.7818
 20
0.059181818182
 30
0.0
 40
0.2
  1
BOTTOM_RIGHT
 72
     2
 11
10.0
 21
0.0
 31
0.0
100
AcDbText
 73
     1
  0
LINE
  5
3D
330
17
100
AcDbEntity
  8
0
 62
     5
100
AcDbLine
 10
0.0
 20
1.011743642571
 30
0.0
 11
10.0
 21
1.011743642571
 31
0.0
  0
TEXT
  5
3E
330
17
100
AcDbEntity
  8
0
 62
     2
100
AcDbText
 10
0.0
 20
0.911743642571
 30
0.0
 40
0.2
  1
MIDDLE_LEFT
 11
0.0
 21
1.011743642571
 31
0.0
100
AcDbText
 73
     2
  0
TEXT
  5
3F
330
17
100
AcDbEntity
  8
0
 62
     2
100
AcDbText
 10
3.4099
 20
0.911743642571
 30
0.0
 40
0.2
  1
MIDDLE_CENTER_gjpqy
 72
     1
 11
5.0
 21
1.011743642571
 31
0.0
100
AcDbText
 73
     2
  0
TEXT
  5
40
330
17
100
AcDbEntity
  8
0
 62
     2
100
AcDbText
 10
7.9214
 20
0.911743642571
 30
0.0
 40
0.2
  1
MIDDLE_RIGHT
 72
     2
 11
10.0
 21
1.011743642571
 31
0.0
100
AcDbText
 73
     2
  0
LINE
  5
41
330
17
100
AcDbEntity
  8
0
 62
     5
100
AcDbLine
 10
0.0
 20
2.023487285143
 30
0.0
 11
10.0
 21
2.023487285143
 31
0.0
  0
TEXT
  5
42
330
17
100
AcDbEntity
  8
0
 62
     2
100
AcDbText
 10
0.0
 20
1.823487285143
 30
0.0
 40
0.2
  1
TOP_LEFT
 11
0.0
 21
2.023487285143
 31
0.0
100
AcDbText
 73
     3
  0
TEXT
  5
43
330
17
100
AcDbEntity
  8
0
 62
     2
100
AcDbText
 10
3.6503
 20
1.823487285143
 30
0.0
 40
0.2
  1
TOP_CENTER_gjpqy
 72
     1
 11
5.0
 21
2.023487285143
 31
0.0
100
AcDbText
 73
     3
  0
TEXT
  5
44
330
17
100
AcDbEntity
  8
0
 62
     2
100
AcDbText
 10
8.4022
 20
1.823487285143
 30
0.0
 40
0.2
  1
TOP_RIGHT
 72
     2
 11
10.0
 21
2.023487285143
 31
0.0
100
AcDbText
 73
     3
  0
CIRCLE
  5
46
330
17
100
AcDbEntity
  8
INSERT_POINTS
 62
     1
100
AcDbCircle
 10
0.118849688059
 20
-5.231006269827
 30
0.0
 40
0.025
  0
CIRCLE
  5
47
330
17
100
AcDbEntity
  8
INSERT_POINTS
 62
     2
100
AcDbCircle
 10
5.118849688059
 20
-3.981006269827
 30
0.0
 40
0.01875
  0
CIRCLE
  5
48
330
17
100
AcDbEntity
  8
INSERT_POINTS
 62
     1
100
AcDbCircle
 10
0.118849688059
 20
-2.731006269827
 30
0.0
 40
0.025
  0
CIRCLE
  5
49
330
17
100
AcDbEntity
  8
INSERT_POINTS
 62
     2
100
AcDbCircle
 10
5.118849688059
 20
-3.981006269827
 30
0.0
 40
0.01875
  0
CIRCLE
  5
4A
330
17
100
AcDbEntity
  8
INSERT_POINTS
 62
     1
100
AcDbCircle
 10
0.0
 20
-1.5
 30
0.0
 40
0.1
  0
CIRCLE
  5
4B
330
17
100
AcDbEntity
  8
INSERT_POINTS
 62
     2
100
AcDbCircle
 10
0.0
 20
-1.5
 30
0.0
 40
0.075
  0
CIRCLE
  5
4C
330
17
100
AcDbEntity
  8
INSERT_POINTS
 62
     1
100
AcDbCircle
 10
0.0
 20
-1.0
 30
0.0
 40
0.1
  0
CIRCLE
  5
4D
330
17
100
AcDbEntity
  8
INSERT_POINTS
 62
     2
100
AcDbCircle
 10
0.0
 20
-1.0
 30
0.0
 40
0.075
  0
CIRCLE
  5
4E
330
17
100
AcDbEntity
  8
INSERT_POINTS
 62
     1
100
AcDbCircle
 10
5.0
 20
-1.0
 30
0.0
 40
0.1
  0
CIRCLE
  5
4F
330
17
100
AcDbEntity
  8
INSERT_POINTS
 62
     2
100
AcDbCircle
 10
5.0
 20
-1.0
 30
0.0
 40
0.075
  0
CIRCLE
  5
50
330
17
100
AcDbEntity
  8
INSERT_POINTS
 62
     1
100
AcDbCircle
 10
10.0
 20
-1.0
 30
0.0
 40
0.1
  0
CIRCLE
  5
51
330
17
100
AcDbEntity
  8
INSERT_POINTS
 62
     2
100
AcDbCircle
 10
10.0
 20
-1.0
 30
0.0
 40
0.075
  0
CIRCLE
  5
52
330
17
100
AcDbEntity
  8
INSERT_POINTS
 62
     1
100
AcDbCircle
 10
0.0
 20
0.0
 30
0.0
 40
0.1
  0
CIRCLE
  5
53
330
17
100
AcDbEntity
  8
INSERT_POINTS
 62
     2
100
AcDbCircle
 10
0.0
 20
0.0
 30
0.0
 40
0.075
  0
CIRCLE
  5
54
330
17
100
AcDbEntity
  8
INSERT_POINTS
 62
     1
100
AcDbCircle
 10
5.0
 20
0.0
 30
0.0
 40
0.1
  0
CIRCLE
  5
55
330
17
100
AcDbEntity
  8
INSERT_POINTS
 62
     2
100
AcDbCircle
 10
5.0
 20
0.0
 30
0.0
 40
0.075
  0
CIRCLE
  5
56
330
17
100
AcDbEntity
  8
INSERT_POINTS
 62
     1
100
AcDbCircle
 10
10.0
 20
0.0
 30
0.0
 40
0.1
  0
CIRCLE
  5
57
330
17
100
AcDbEntity
  8
INSERT_POINTS
 62
     2
100
AcDbCircle
 10
10.0
 20
0.0
 30
0.0
 40
0.075
  0
CIRCLE
  5
58
330
17
100
AcDbEntity
  8
INSERT_POINTS
 62
     1
100
AcDbCircle
 10
0.0
 20
1.011743642571
 30
0.0
 40
0.1
  0
CIRCLE
  5
59
330
17
100
AcDbEntity
  8
INSERT_POINTS
 62
     2
100
AcDbCircle
 10
0.0
 20
1.011743642571
 30
0.0
 40
0.075
  0
CIRCLE
  5
5A
330
17
100
AcDbEntity
  8
INSERT_POINTS
 62
     1
100
AcDbCircle
 10
5.0
 20
1.011743642571
 30
0.0
 40
0.1
  0
CIRCLE
  5
5B
330
17
100
AcDbEntity
  8
INSERT_POINTS
 62
     2
100
AcDbCircle
 10
5.0
 20
1.011743642571
 30
0.0
 40
0.075
  0
CIRCLE
  5
5C
330
17
100
AcDbEntity
  8
INSERT_POINTS
 62
     1
100
AcDbCircle
 10
10.0
 20
1.011743642571
 30
0.0
 40
0.1
  0
CIRCLE
  5
5D
330
17
100
AcDbEntity
  8
INSERT_POINTS
 62
     2
100
AcDbCircle
 10
10.0
 20
1.011743642571
 30
0.0
 40
0.075
  0
CIRCLE
  5
5E
330
17
100
AcDbEntity
  8
INSERT_POINTS
 62
     1
100
AcDbCircle
 10
0.0
 20
2.023487285143
 30
0.0
 40
0.1
  0
CIRCLE
  5
5F
330
17
100
AcDbEntity
  8
INSERT_POINTS
 62
     2
100
AcDbCircle
 10
0.0
 20
2.023487285143
 30
0.0
 40
0.075
  0
CIRCLE
  5
60
330
17
100
AcDbEntity
  8
INSERT_POINTS
 62
     1
100
AcDbCircle
 10
5.0
 20
2.023487285143
 30
0.0
 40
0.1
  0
CIRCLE
  5
61
330
17
100
AcDbEntity
  8
INSERT_POINTS
 62
     2
100
AcDbCircle
 10
5.0
 20
2.023487285143
 30
0.0
 40
0.075
  0
CIRCLE
  5
62
330
17
100
AcDbEntity
  8
INSERT_POINTS
 62
     1
100
AcDbCircle
 10
10.0
 20
2.023487285143
 30
0.0
 40
0.1
  0
CIRCLE
  5
63
330
17
100
AcDbEntity
  8
INSERT_POINTS
 62
     2
100
AcDbCircle
 10
10.0
 20
2.023487285143
 30
0.0
 40
0.075
  0
LINE
  5
108
330
17
100
AcDbEntity
  8
0
 62
     5
100
AcDbLine
 10
8.00585299164
 20
-4.675353423372
 30
0.0
 11
8.00585299164
 21
-2.65186613823
 31
0.0
  0
LINE
  5
109
330
17
100
AcDbEntity
  8
0
 62
     5
100
AcDbLine
 10
6.591884354312
 20
-3.663609780801
 30
0.0
 11
9.419821628969
 21
-3.663609780801
 31
0.0
  0
TEXT
  5
10A
330
17
100
AcDbEntity
  8
0
 62
     3
100
AcDbText
 10
7.06725299164
 20
-3.734309780801
 30
0.0
 40
0.2
  1
MIDDLE_gjpqy
 72
     4
 11
8.00585299164
 21
-3.663609780801
 31
0.0
100
AcDbText
  0
CIRCLE
  5
10B
330
17
100
AcDbEntity
  8
INSERT_POINTS
 62
     1
100
AcDbCircle
 10
8.00585299164
 20
-3.663609780801
 30
0.0
 40
0.1
  0
CIRCLE
  5
10C
330
17
100
AcDbEntity
  8
INSERT_POINTS
 62
     2
100
AcDbCircle
 10
8.00585299164
 20
-3.663609780801
 30
0.0
 40
0.075
  0
LINE
  5
10E
330
17
100
AcDbEntity
  8
0
 62
     5
100
AcDbLine
 10
0.0
 20
-1.5
 30
0.0
 11
10.0
 21
-1.5
 31
0.0
  0
TEXT
  5
10F
330
17
100
AcDbEntity
  8
0
 62
     3
100
AcDbText
 10
0.0
 20
3.487605056663
 30
0.0
 40
0.5
  1
Font: TXT
100
AcDbText
  0
TEXT
  5
148
330
17
100
AcDbEntity
  8
0
 62
     3
100
AcDbText
 10
0.0
 20
2.3343638996
 30
0.0
 40
0.2
  1
Width Factor: 1.0
100
AcDbText
  0
LINE
  5
190
330
17
100
AcDbEntity
  8
0
 62
     5
100
AcDbLine
 10
0.0
 20
-8.871668073206
 30
0.0
 11
0.0
 21
-6.848180788063
 31
0.0
  0
LINE
  5
191
330
17
100
AcDbEntity
  8
0
 62
     5
100
AcDbLine
 10
6.287257472433
 20
-8.871668073206
 30
0.0
 11
6.287257472433
 21
-6.848180788063
 31
0.0
  0
LINE
  5
192
330
17
100
AcDbEntity
  8
0
 62
     5
100
AcDbLine
 10
12.574514944865
 20
-8.871668073206
 30
0.0
 11
12.574514944865
 21
-6.848180788063
 31
0.0
  0
LINE
  5
193
330
17
100
AcDbEntity
  8
0
 62
     5
100
AcDbLine
 10
0.0
 20
-9.871668073206
 30
0.0
 11
10.0
 21
-9.871668073206
 31
0.0
  0
TEXT
  5
194
330
17
100
AcDbEntity
  8
0
 62
     3
100
AcDbText
 10
0.0
 20
-10.371668073206
 30
0.0
 40
0.2
  1
BASELINE ADJUSTMENTS (gjpqy)
 41
1.2
100
AcDbText
  0
TEXT
  5
195
330
17
100
AcDbEntity
  8
0
 62
     3
100
AcDbText
 10
0.0
 20
-9.871668073206
 30
0.0
 40
0.2
  1
LEFT
 41
1.2
100
AcDbText
  0
TEXT
  5
196
330
17
100
AcDbEntity
  8
0
 62
     3
100
AcDbText
 10
4.31132
 20
-9.871668073206
 30
0.0
 40
0.2
  1
CENTER
 41
1.2
 72
     1
 11
5.0
 21
-9.871668073206
 31
0.0
100
AcDbText
  0
TEXT
  5
197
330
17
100
AcDbEntity
  8
0
 62
     3
100
AcDbText
 10
8.95768
 20
-9.871668073206
 30
0.0
 40
0.2
  1
RIGHT
 41
1.2
 72
     2
 11
10.0
 21
-9.871668073206
 31
0.0
100
AcDbText
  0
LINE
  5
198
330
17
100
AcDbEntity
  8
0
 62
     5
100
AcDbLine
 10
0.0
 20
-8.871668073206
 30
0.0
 11
12.574514944865
 21
-8.871668073206
 31
0.0
  0
TEXT
  5
199
330
17
100
AcDbEntity
  8
0
 62
     2
100
AcDbText
 10
0.0
 20
-8.812486255024
 30
0.0
 40
0.2
  1
BOTTOM_LEFT
 41
1.2
 11
0.0
 21
-8.871668073206
 31
0.0
100
AcDbText
 73
     1
  0
TEXT
  5
19A
330
17
100
AcDbEntity
  8
0
 62
     2
100
AcDbText
 10
4.295377472433
 20
-8.812486255024
 30
0.0
 40
0.2
  1
BOTTOM_CENTER_gjpqy
 41
1.2
 72
     1
 11
6.287257472433
 21
-8.871668073206
 31
0.0
100
AcDbText
 73
     1
  0
TEXT
  5
19B
330
17
100
AcDbEntity
  8
0
 62
     2
100
AcDbText
 10
9.912674944865
 20
-8.812486255024
 30
0.0
 40
0.2
  1
BOTTOM_RIGHT
 41
1.2
 72
     2
 11
12.574514944865
 21
-8.871668073206
 31
0.0
100
AcDbText
 73
     1
  0
LINE
  5
19C
330
17
100
AcDbEntity
  8
0
 62
     5
100
AcDbLine
 10
0.0
 20
-7.859924430634
 30
0.0
 11
12.574514944865
 21
-7.859924430634
 31
0.0
  0
TEXT
  5
19D
330
17
100
AcDbEntity
  8
0
 62
     2
100
AcDbText
 10
0.0
 20
-7.959924430634
 30
0.0
 40
0.2
  1
MIDDLE_LEFT
 41
1.2
 11
0.0
 21
-7.859924430634
 31
0.0
100
AcDbText
 73
     2
  0
TEXT
  5
19E
330
17
100
AcDbEntity
  8
0
 62
     2
100
AcDbText
 10
4.379137472433
 20
-7.959924430634
 30
0.0
 40
0.2
  1
MIDDLE_CENTER_gjpqy
 41
1.2
 72
     1
 11
6.287257472433
 21
-7.859924430634
 31
0.0
100
AcDbText
 73
     2
  0
TEXT
  5
19F
330
17
100
AcDbEntity
  8
0
 62
     2
100
AcDbText
 10
10.080194944865
 20
-7.959924430634
 30
0.0
 40
0.2
  1
MIDDLE_RIGHT
 41
1.2
 72
     2
 11
12.574514944865
 21
-7.859924430634
 31
0.0
100
AcDbText
 73
     2
  0
LINE
  5
1A0
330
17
100
AcDbEntity
  8
0
 62
     5
100
AcDbLine
 10
0.0
 20
-6.848180788063
 30
0.0
 11
12.574514944865
 21
-6.848180788063
 31
0.0
  0
TEXT
  5
1A1
330
17
100
AcDbEntity
  8
0
 62
     2
100
AcDbText
 10
0.0
 20
-7.048180788063
 30
0.0
 40
0.2
  1
TOP_LEFT
 41
1.2
 11
0.0
 21
-6.848180788063
 31
0.0
100
AcDbText
 73
     3
  0
TEXT
  5
1A2
330
17
100
AcDbEntity
  8
0
 62
     2
100
AcDbText
 10
4.667617472433
 20
-7.048180788063
 30
0.0
 40
0.2
  1
TOP_CENTER_gjpqy
 41
1.2
 72
     1
 11
6.287257472433
 21
-6.848180788063
 31
0.0
100
AcDbText
 73
     3
  0
TEXT
  5
1A3
330
17
100
AcDbEntity
  8
0
 62
     2
100
AcDbText
 10
10.657154944865
 20
-7.048180788063
 30
0.0
 40
0.2
  1
TOP_RIGHT
 41
1.2
 72
     2
 11
12.574514944865
 21
-6.848180788063
 31
0.0
100
AcDbText
 73
     3
  0
CIRCLE
  5
1A8
330
17
100
AcDbEntity
  8
INSERT_POINTS
 62
     1
100
AcDbCircle
 10
0.0
 20
-10.371668073206
 30
0.0
 40
0.1
  0
CIRCLE
  5
1A9
330
17
100
AcDbEntity
  8
INSERT_POINTS
 62
     2
100
AcDbCircle
 10
0.0
 20
-10.371668073206
 30
0.0
 40
0.075
  0
CIRCLE
  5
1AA
330
17
100
AcDbEntity
  8
INSERT_POINTS
 62
     1
100
AcDbCircle
 10
0.0
 20
-9.871668073206
 30
0.0
 40
0.1
  0
CIRCLE
  5
1AB
330
17
100
AcDbEntity
  8
INSERT_POINTS
 62
     2
100
AcDbCircle
 10
0.0
 20
-9.871668073206
 30
0.0
 40
0.075
  0
CIRCLE
  5
1AC
330
17
100
AcDbEntity
  8
INSERT_POINTS
 62
     1
100
AcDbCircle
 10
5.0
 20
-9.871668073206
 30
0.0
 40
0.1
  0
CIRCLE
  5
1AD
330
17
100
AcDbEntity
  8
INSERT_POINTS
 62
     2
100
AcDbCircle
 10
5.0
 20
-9.871668073206
 30
0.0
 40
0.075
  0
CIRCLE
  5
1AE
330
17
100
AcDbEntity
  8
INSERT_POINTS
 62
     1
100
AcDbCircle
 10
10.0
 20
-9.871668073206
 30
0.0
 40
0.1
  0
CIRCLE
  5
1AF
330
17
100
AcDbEntity
  8
INSERT_POINTS
 62
     2
100
AcDbCircle
 10
10.0
 20
-9.871668073206
 30
0.0
 40
0.075
  0
CIRCLE
  5
1B0
330
17
100
AcDbEntity
  8
INSERT_POINTS
 62
     1
100
AcDbCircle
 10
0.0
 20
-8.871668073206
 30
0.0
 40
0.1
  0
CIRCLE
  5
1B1
330
17
100
AcDbEntity
  8
INSERT_POINTS
 62
     2
100
AcDbCircle
 10
0.0
 20
-8.871668073206
 30
0.0
 40
0.075
  0
CIRCLE
  5
1B2
330
17
100
AcDbEntity
  8
INSERT_POINTS
 62
     1
100
AcDbCircle
 10
6.287257472433
 20
-8.871668073206
 30
0.0
 40
0.1
  0
CIRCLE
  5
1B3
330
17
100
AcDbEntity
  8
INSERT_POINTS
 62
     2
100
AcDbCircle
 10
6.287257472433
 20
-8.871668073206
 30
0.0
 40
0.075
  0
CIRCLE
  5
1B4
330
17
100
AcDbEntity
  8
INSERT_POINTS
 62
     1
100
AcDbCircle
 10
12.574514944865
 20
-8.871668073206
 30
0.0
 40
0.1
  0
CIRCLE
  5
1B5
330
17
100
AcDbEntity
  8
INSERT_POINTS
 62
     2
100
AcDbCircle
 10
12.574514944865
 20
-8.871668073206
 30
0.0
 40
0.075
  0
CIRCLE
  5
1B6
330
17
100
AcDbEntity
  8
INSERT_POINTS
 62
     1
100
AcDbCircle
 10
0.0
 20
-7.859924430634
 30
0.0
 40
0.1
  0
CIRCLE
  5
1B7
330
17
100
AcDbEntity
  8
INSERT_POINTS
 62
     2
100
AcDbCircle
 10
0.0
 20
-7.859924430634
 30
0.0
 40
0.075
  0
CIRCLE
  5
1B8
330
17
100
AcDbEntity
  8
INSERT_POINTS
 62
     1
100
AcDbCircle
 10
6.287257472433
 20
-7.859924430634
 30
0.0
 40
0.1
  0
CIRCLE
  5
1B9
330
17
100
AcDbEntity
  8
INSERT_POINTS
 62
     2
100
AcDbCircle
 10
6.287257472433
 20
-7.859924430634
 30
0.0
 40
0.075
  0
CIRCLE
  5
1BA
330
17
100
AcDbEntity
  8
INSERT_POINTS
 62
     1
100
AcDbCircle
 10
12.574514944865
 20
-7.859924430634
 30
0.0
 40
0.1
  0
CIRCLE
  5
1BB
330
17
100
AcDbEntity
  8
INSERT_POINTS
 62
     2
100
AcDbCircle
 10
12.574514944865
 20
-7.859924430634
 30
0.0
 40
0.075
  0
CIRCLE
  5
1BC
330
17
100
AcDbEntity
  8
INSERT_POINTS
 62
     1
100
AcDbCircle
 10
0.0
 20
-6.848180788063
 30
0.0
 40
0.1
  0
CIRCLE
  5
1BD
330
17
100
AcDbEntity
  8
INSERT_POINTS
 62
     2
100
AcDbCircle
 10
0.0
 20
-6.848180788063
 30
0.0
 40
0.075
  0
CIRCLE
  5
1BE
330
17
100
AcDbEntity
  8
INSERT_POINTS
 62
     1
100
AcDbCircle
 10
6.287257472433
 20
-6.848180788063
 30
0.0
 40
0.1
  0
CIRCLE
  5
1BF
330
17
100
AcDbEntity
  8
INSERT_POINTS
 62
     2
100
AcDbCircle
 10
6.287257472433
 20
-6.848180788063
 30
0.0
 40
0.075
  0
CIRCLE
  5
1C0
330
17
100
AcDbEntity
  8
INSERT_POINTS
 62
     1
100
AcDbCircle
 10
12.574514944865
 20
-6.848180788063
 30
0.0
 40
0.1
  0
CIRCLE
  5
1C1
330
17
100
AcDbEntity
  8
INSERT_POINTS
 62
     2
100
AcDbCircle
 10
12.574514944865
 20
-6.848180788063
 30
0.0
 40
0.075
  0
LINE
  5
1C2
330
17
100
AcDbEntity
  8
0
 62
     5
100
AcDbLine
 10
8.00585299164
 20
-13.547021496578
 30
0.0
 11
8.00585299164
 21
-11.523534211435
 31
0.0
  0
LINE
  5
1C3
330
17
100
AcDbEntity
  8
0
 62
     5
100
AcDbLine
 10
6.591884354312
 20
-12.535277854007
 30
0.0
 11
9.419821628969
 21
-12.535277854007
 31
0.0
  0
TEXT
  5
1C4
330
17
100
AcDbEntity
  8
0
 62
     3
100
AcDbText
 10
6.87953299164
 20
-12.605977854007
 30
0.0
 40
0.2
  1
MIDDLE_gjpqy
 41
1.2
 72
     4
 11
8.00585299164
 21
-12.535277854007
 31
0.0
100
AcDbText
  0
CIRCLE
  5
1C5
330
17
100
AcDbEntity
  8
INSERT_POINTS
 62
     1
100
AcDbCircle
 10
8.00585299164
 20
-12.535277854007
 30
0.0
 40
0.1
  0
CIRCLE
  5
1C6
330
17
100
AcDbEntity
  8
INSERT_POINTS
 62
     2
100
AcDbCircle
 10
8.00585299164
 20
-12.535277854007
 30
0.0
 40
0.075
  0
LINE
  5
1C7
330
17
100
AcDbEntity
  8
0
 62
     5
100
AcDbLine
 10
0.0
 20
-10.371668073206
 30
0.0
 11
10.0
 21
-10.371668073206
 31
0.0
  0
TEXT
  5
1C8
330
17
100
AcDbEntity
  8
0
 62
     3
100
AcDbText
 10
0.0
 20
-6.537304173606
 30
0.0
 40
0.2
  1
Width Factor: 1.2
 41
1.2
100
AcDbText
  0
LINE
  5
1C9
330
17
100
AcDbEntity
  8
0
 62
     5
100
AcDbLine
 10
0.0
 20
-16.777433098996
 30
0.0
 11
0.0
 21
-14.753945813853
 31
0.0
  0
LINE
  5
1CA
330
17
100
AcDbEntity
  8
0
 62
     5
100
AcDbLine
 10
6.287257472433
 20
-16.777433098996
 30
0.0
 11
6.287257472433
 21
-14.753945813853
 31
0.0
  0
LINE
  5
1CB
330
17
100
AcDbEntity
  8
0
 62
     5
100
AcDbLine
 10
12.574514944865
 20
-16.777433098996
 30
0.0
 11
12.574514944865
 21
-14.753945813853
 31
0.0
  0
LINE
  5
1CC
330
17
100
AcDbEntity
  8
0
 62
     5
100
AcDbLine
 10
0.0
 20
-17.777433098996
 30
0.0
 11
10.0
 21
-17.777433098996
 31
0.0
  0
TEXT
  5
1CD
330
17
100
AcDbEntity
  8
0
 62
     3
100
AcDbText
 10
0.0
 20
-18.277433098996
 30
0.0
 40
0.2
  1
BASELINE ADJUSTMENTS (gjpqy)
 41
0.5
100
AcDbText
  0
TEXT
  5
1CE
330
17
100
AcDbEntity
  8
0
 62
     3
100
AcDbText
 10
0.0
 20
-17.777433098996
 30
0.0
 40
0.2
  1
LEFT
 41
0.5
100
AcDbText
  0
TEXT
  5
1CF
330
17
100
AcDbEntity
  8
0
 62
     3
100
AcDbText
 10
4.71305
 20
-17.777433098996
 30
0.0
 40
0.2
  1
CENTER
 41
0.5
 72
     1
 11
5.0
 21
-17.777433098996
 31
0.0
100
AcDbText
  0
TEXT
  5
1D0
330
17
100
AcDbEntity
  8
0
 62
     3
100
AcDbText
 10
9.5657
 20
-17.777433098996
 30
0.0
 40
0.2
  1
RIGHT
 41
0.5
 72
     2
 11
10.0
 21
-17.777433098996
 31
0.0
100
AcDbText
  0
LINE
  5
1D1
330
17
100
AcDbEntity
  8
0
 62
     5
100
AcDbLine
 10
0.0
 20
-16.777433098996
 30
0.0
 11
12.574514944865
 21
-16.777433098996
 31
0.0
  0
TEXT
  5
1D2
330
17
100
AcDbEntity
  8
0
 62
     2
100
AcDbText
 10
0.0
 20
-16.718251280814
 30
0.0
 40
0.2
  1
BOTTOM_LEFT
 41
0.5
 11
0.0
 21
-16.777433098996
 31
0.0
100
AcDbText
 73
     1
  0
TEXT
  5
1D3
330
17
100
AcDbEntity
  8
0
 62
     2
100
AcDbText
 10
5.457307472433
 20
-16.718251280814
 30
0.0
 40
0.2
  1
BOTTOM_CENTER_gjpqy
 41
0.5
 72
     1
 11
6.287257472433
 21
-16.777433098996
 31
0.0
100
AcDbText
 73
     1
  0
TEXT
  5
1D4
330
17
100
AcDbEntity
  8
0
 62
     2
100
AcDbText
 10
11.465414944865
 20
-16.718251280814
 30
0.0
 40
0.2
  1
BOTTOM_RIGHT
 41
0.5
 72
     2
 11
12.574514944865
 21
-16.777433098996
 31
0.0
100
AcDbText
 73
     1
  0
LINE
  5
1D5
330
17
100
AcDbEntity
  8
0
 62
     5
100
AcDbLine
 10
0.0
 20
-15.765689456425
 30
0.0
 11
12.574514944865
 21
-15.765689456425
 31
0.0
  0
TEXT
  5
1D6
330
17
100
AcDbEntity
  8
0
 62
     2
100
AcDbText
 10
0.0
 20
-15.865689456425
 30
0.0
 40
0.2
  1
MIDDLE_LEFT
 41
0.5
 11
0.0
 21
-15.765689456425
 31
0.0
100
AcDbText
 73
     2
  0
TEXT
  5
1D7
330
17
100
AcDbEntity
  8
0
 62
     2
100
AcDbText
 10
5.492207472433
 20
-15.865689456425
 30
0.0
 40
0.2
  1
MIDDLE_CENTER_gjpqy
 41
0.5
 72
     1
 11
6.287257472433
 21
-15.765689456425
 31
0.0
100
AcDbText
 73
     2
  0
TEXT
  5
1D8
330
17
100
AcDbEntity
  8
0
 62
     2
100
AcDbText
 10
11.535214944865
 20
-15.865689456425
 30
0.0
 40
0.2
  1
MIDDLE_RIGHT
 41
0.5
 72
     2
 11
12.574514944865
 21
-15.765689456425
 31
0.0
100
AcDbText
 73
     2
  0
LINE
  5
1D9
330
17
100
AcDbEntity
  8
0
 62
     5
100
AcDbLine
 10
0.0
 20
-14.753945813853
 30
0.0
 11
12.574514944865
 21
-14.753945813853
 31
0.0
  0
TEXT
  5
1DA
330
17
100
AcDbEntity
  8
0
 62
     2
100
AcDbText
 10
0.0
 20
-14.953945813853
 30
0.0
 40
0.2
  1
TOP_LEFT
 41
0.5
 11
0.0
 21
-14.753945813853
 31
0.0
100
AcDbText
 73
     3
  0
TEXT
  5
1DB
330
17
100
AcDbEntity
  8
0
 62
     2
100
AcDbText
 10
5.612407472433
 20
-14.953945813853
 30
0.0
 40
0.2
  1
TOP_CENTER_gjpqy
 41
0.5
 72
     1
 11
6.287257472433
 21
-14.753945813853
 31
0.0
100
AcDbText
 73
     3
  0
TEXT
  5
1DC
330
17
100
AcDbEntity
  8
0
 62
     2
100
AcDbText
 10
11.775614944865
 20
-14.953945813853
 30
0.0
 40
0.2
  1
TOP_RIGHT
 41
0.5
 72
     2
 11
12.574514944865
 21
-14.753945813853
 31
0.0
100
AcDbText
 73
     3
  0
CIRCLE
  5
1DD
330
17
100
AcDbEntity
  8
INSERT_POINTS
 62
     1
100
AcDbCircle
 10
0.0
 20
-18.277433098996
 30
0.0
 40
0.1
  0
CIRCLE
  5
1DE
330
17
100
AcDbEntity
  8
INSERT_POINTS
 62
     2
100
AcDbCircle
 10
0.0
 20
-18.277433098996
 30
0.0
 40
0.075
  0
CIRCLE
  5
1DF
330
17
100
AcDbEntity
  8
INSERT_POINTS
 62
     1
100
AcDbCircle
 10
0.0
 20
-17.777433098996
 30
0.0
 40
0.1
  0
CIRCLE
  5
1E0
330
17
100
AcDbEntity
  8
INSERT_POINTS
 62
     2
100
AcDbCircle
 10
0.0
 20
-17.777433098996
 30
0.0
 40
0.075
  0
CIRCLE
  5
1E1
330
17
100
AcDbEntity
  8
INSERT_POINTS
 62
     1
100
AcDbCircle
 10
5.0
 20
-17.777433098996
 30
0.0
 40
0.1
  0
CIRCLE
  5
1E2
330
17
100
AcDbEntity
  8
INSERT_POINTS
 62
     2
100
AcDbCircle
 10
5.0
 20
-17.777433098996
 30
0.0
 40
0.075
  0
CIRCLE
  5
1E3
330
17
100
AcDbEntity
  8
INSERT_POINTS
 62
     1
100
AcDbCircle
 10
10.0
 20
-17.777433098996
 30
0.0
 40
0.1
  0
CIRCLE
  5
1E4
330
17
100
AcDbEntity
  8
INSERT_POINTS
 62
     2
100
AcDbCircle
 10
10.0
 20
-17.777433098996
 30
0.0
 40
0.075
  0
CIRCLE
  5
1E5
330
17
100
AcDbEntity
  8
INSERT_POINTS
 62
     1
100
AcDbCircle
 10
0.0
 20
-16.777433098996
 30
0.0
 40
0.1
  0
CIRCLE
  5
1E6
330
17
100
AcDbEntity
  8
INSERT_POINTS
 62
     2
100
AcDbCircle
 10
0.0
 20
-16.777433098996
 30
0.0
 40
0.075
  0
CIRCLE
  5
1E7
330
17
100
AcDbEntity
  8
INSERT_POINTS
 62
     1
100
AcDbCircle
 10
6.287257472433
 20
-16.777433098996
 30
0.0
 40
0.1
  0
CIRCLE
  5
1E8
330
17
100
AcDbEntity
  8
INSERT_POINTS
 62
     2
100
AcDbCircle
 10
6.287257472433
 20
-16.777433098996
 30
0.0
 40
0.075
  0
CIRCLE
  5
1E9
330
17
100
AcDbEntity
  8
INSERT_POINTS
 62
     1
100
AcDbCircle
 10
12.574514944865
 20
-16.777433098996
 30
0.0
 40
0.1
  0
CIRCLE
  5
1EA
330
17
100
AcDbEntity
  8
INSERT_POINTS
 62
     2
100
AcDbCircle
 10
12.574514944865
 20
-16.777433098996
 30
0.0
 40
0.075
  0
CIRCLE
  5
1EB
330
17
100
AcDbEntity
  8
INSERT_POINTS
 62
     1
100
AcDbCircle
 10
0.0
 20
-15.765689456425
 30
0.0
 40
0.1
  0
CIRCLE
  5
1EC
330
17
100
AcDbEntity
  8
INSERT_POINTS
 62
     2
100
AcDbCircle
 10
0.0
 20
-15.765689456425
 30
0.0
 40
0.075
  0
CIRCLE
  5
1ED
330
17
100
AcDbEntity
  8
INSERT_POINTS
 62
     1
100
AcDbCircle
 10
6.287257472433
 20
-15.765689456425
 30
0.0
 40
0.1
  0
CIRCLE
  5
1EE
330
17
100
AcDbEntity
  8
INSERT_POINTS
 62
     2
100
AcDbCircle
 10
6.287257472433
 20
-15.765689456425
 30
0.0
 40
0.075
  0
CIRCLE
  5
1EF
330
17
100
AcDbEntity
  8
INSERT_POINTS
 62
     1
100
AcDbCircle
 10
12.574514944865
 20
-15.765689456425
 30
0.0
 40
0.1
  0
CIRCLE
  5
1F0
330
17
100
AcDbEntity
  8
INSERT_POINTS
 62
     2
100
AcDbCircle
 10
12.574514944865
 20
-15.765689456425
 30
0.0
 40
0.075
  0
CIRCLE
  5
1F1
330
17
100
AcDbEntity
  8
INSERT_POINTS
 62
     1
100
AcDbCircle
 10
0.0
 20
-14.753945813853
 30
0.0
 40
0.1
  0
CIRCLE
  5
1F2
330
17
100
AcDbEntity
  8
INSERT_POINTS
 62
     2
100
AcDbCircle
 10
0.0
 20
-14.753945813853
 30
0.0
 40
0.075
  0
CIRCLE
  5
1F3
330
17
100
AcDbEntity
  8
INSERT_POINTS
 62
     1
100
AcDbCircle
 10
6.287257472433
 20
-14.753945813853
 30
0.0
 40
0.1
  0
CIRCLE
  5
1F4
330
17
100
AcDbEntity
  8
INSERT_POINTS
 62
     2
100
AcDbCircle
 10
6.287257472433
 20
-14.753945813853
 30
0.0
 40
0.075
  0
CIRCLE
  5
1F5
330
17
100
AcDbEntity
  8
INSERT_POINTS
 62
     1
100
AcDbCircle
 10
12.574514944865
 20
-14.753945813853
 30
0.0
 40
0.1
  0
CIRCLE
  5
1F6
330
17
100
AcDbEntity
  8
INSERT_POINTS
 62
     2
100
AcDbCircle
 10
12.574514944865
 20
-14.753945813853
 30
0.0
 40
0.075
  0
LINE
  5
1F7
330
17
100
AcDbEntity
  8
0
 62
     5
100
AcDbLine
 10
8.00585299164
 20
-21.452786522369
 30
0.0
 11
8.00585299164
 21
-19.429299237226
 31
0.0
  0
LINE
  5
1F8
330
17
100
AcDbEntity
  8
0
 62
     5
100
AcDbLine
 10
6.591884354312
 20
-20.441042879797
 30
0.0
 11
9.419821628969
 21
-20.441042879797
 31
0.0
  0
TEXT
  5
1F9
330
17
100
AcDbEntity
  8
0
 62
     3
100
AcDbText
 10
7.53655299164
 20
-20.511742879797
 30
0.0
 40
0.2
  1
MIDDLE_gjpqy
 41
0.5
 72
     4
 11
8.00585299164
 21
-20.441042879797
 31
0.0
100
AcDbText
  0
CIRCLE
  5
1FA
330
17
100
AcDbEntity
  8
INSERT_POINTS
 62
     1
100
AcDbCircle
 10
8.00585299164
 20
-20.441042879797
 30
0.0
 40
0.1
  0
CIRCLE
  5
1FB
330
17
100
AcDbEntity
  8
INSERT_POINTS
 62
     2
100
AcDbCircle
 10
8.00585299164
 20
-20.441042879797
 30
0.0
 40
0.075
  0
LINE
  5
1FC
330
17
100
AcDbEntity
  8
0
 62
     5
100
AcDbLine
 10
0.0
 20
-18.277433098996
 30
0.0
 11
10.0
 21
-18.277433098996
 31
0.0
  0
TEXT
  5
1FD
330
17
100
AcDbEntity
  8
0
 62
     3
100
AcDbText
 10
0.0
 20
-14.443069199396
 30
0.0
 40
0.2
  1
Width Factor: 0.5
 41
0.5
100
AcDbText
  0
TEXT
  5
6BF
330
17
100
AcDbEntity
  8
0
 62
     3
100
AcDbText
 10
20.885570336212
 20
-5.231006269827
 30
0.0
 40
0.112431981501
  1
ALIGNED-TEXT-ALIGNED-TEXT-gjpqy-ALIGNED-TEXT-ALIGNED-TEXT
 50
194.036243467926
 71
     2
 72
     3
 11
25.885570336212
 21
-3.981006269827
 31
0.0
100
AcDbText
  0
LINE
  5
6C0
330
17
100
AcDbEntity
  8
0
 62
     5
100
AcDbLine
 10
20.885570336212
 20
-5.231006269827
 30
0.0
 11
25.885570336212
 21
-3.981006269827
 31
0.0
  0
TEXT
  5
6C1
330
17
100
AcDbEntity
  8
0
 62
     3
100
AcDbText
 10
20.885570336212
 20
-2.731006269827
 30
0.0
 40
0.625
  1
FITTED-TEXT-FITTED-TEXT-gjpqy-FITTED-TEXT-FITTED-TEXT
 50
165.963756532073
 41
0.201756979136
 71
     2
 72
     5
 11
25.885570336212
 21
-3.981006269827
 31
0.0
100
AcDbText
  0
LINE
  5
6C2
330
17
100
AcDbEntity
  8
0
 62
     5
100
AcDbLine
 10
20.885570336212
 20
-2.731006269827
 30
0.0
 11
25.885570336212
 21
-3.981006269827
 31
0.0
  0
LINE
  5
6C3
330
17
100
AcDbEntity
  8
0
 62
     5
100
AcDbLine
 10
20.766720648153
 20
0.0
 30
0.0
 11
20.766720648153
 21
2.023487285143
 31
0.0
  0
LINE
  5
6C4
330
17
100
AcDbEntity
  8
0
 62
     5
100
AcDbLine
 10
25.766720648153
 20
0.0
 30
0.0
 11
25.766720648153
 21
2.023487285143
 31
0.0
  0
LINE
  5
6C5
330
17
100
AcDbEntity
  8
0
 62
     5
100
AcDbLine
 10
30.766720648153
 20
0.0
 30
0.0
 11
30.766720648153
 21
2.023487285143
 31
0.0
  0
LINE
  5
6C6
330
17
100
AcDbEntity
  8
0
 62
     5
100
AcDbLine
 10
20.766720648153
 20
-1.0
 30
0.0
 11
30.766720648153
 21
-1.0
 31
0.0
  0
TEXT
  5
6C7
330
17
100
AcDbEntity
  8
0
 62
     3
100
AcDbText
 10
20.766720648153
 20
-1.5
 30
0.0
 40
0.2
  1
BASELINE ADJUSTMENTS (gjpqy)
 71
     2
100
AcDbText
  0
TEXT
  5
6C8
330
17
100
AcDbEntity
  8
0
 62
     3
100
AcDbText
 10
20.766720648153
 20
-1.0
 30
0.0
 40
0.2
  1
LEFT
 71
     2
100
AcDbText
  0
TEXT
  5
6C9
330
17
100
AcDbEntity
  8
0
 62
     3
100
AcDbText
 10
26.340620648153
 20
-1.0
 30
0.0
 40
0.2
  1
CENTER
 71
     2
 72
     1
 11
25.766720648153
 21
-1.0
 31
0.0
100
AcDbText
  0
TEXT
  5
6CA
330
17
100
AcDbEntity
  8
0
 62
     3
100
AcDbText
 10
31.635320648153
 20
-1.0
 30
0.0
 40
0.2
  1
RIGHT
 71
     2
 72
     2
 11
30.766720648153
 21
-1.0
 31
0.0
100
AcDbText
  0
LINE
  5
6CB
330
17
100
AcDbEntity
  8
0
 62
     5
100
AcDbLine
 10
20.766720648153
 20
0.0
 30
0.0
 11
30.766720648153
 21
0.0
 31
0.0
  0
TEXT
  5
6CC
330
17
100
AcDbEntity
  8
0
 62
     2
100
AcDbText
 10
20.766720648153
 20
0.059181818182
 30
0.0
 40
0.2
  1
BOTTOM_LEFT
 71
     2
 11
20.766720648153
 21
0.0
 31
0.0
100
AcDbText
 73
     1
  0
TEXT
  5
6CD
330
17
100
AcDbEntity
  8
0
 62
     2
100
AcDbText
 10
27.426620648153
 20
0.059181818182
 30
0.0
 40
0.2
  1
BOTTOM_CENTER_gjpqy
 71
     2
 72
     1
 11
25.766720648153
 21
0.0
 31
0.0
100
AcDbText
 73
     1
  0
TEXT
  5
6CE
330
17
100
AcDbEntity
  8
0
 62
     2
100
AcDbText
 10
32.984920648153
 20
0.059181818182
 30
0.0
 40
0.2
  1
BOTTOM_RIGHT
 71
     2
 72
     2
 11
30.766720648153
 21
0.0
 31
0.0
100
AcDbText
 73
     1
  0
LINE
  5
6CF
330
17
100
AcDbEntity
  8
0
 62
     5
100
AcDbLine
 10
20.766720648153
 20
1.011743642571
 30
0.0
 11
30.766720648153
 21
1.011743642571
 31
0.0
  0
TEXT
  5
6D0
330
17
100
AcDbEntity
  8
0
 62
     2
100
AcDbText
 10
20.766720648153
 20
0.911743642571
 30
0.0
 40
0.2
  1
MIDDLE_LEFT
 71
     2
 11
20.766720648153
 21
1.011743642571
 31
0.0
100
AcDbText
 73
     2
  0
TEXT
  5
6D1
330
17
100
AcDbEntity
  8
0
 62
     2
100
AcDbText
 10
27.356820648153
 20
0.911743642571
 30
0.0
 40
0.2
  1
MIDDLE_CENTER_gjpqy
 71
     2
 72
     1
 11
25.766720648153
 21
1.011743642571
 31
0.0
100
AcDbText
 73
     2
  0
TEXT
  5
6D2
330
17
100
AcDbEntity
  8
0
 62
     2
100
AcDbText
 10
32.845320648153
 20
0.911743642571
 30
0.0
 40
0.2
  1
MIDDLE_RIGHT
 71
     2
 72
     2
 11
30.766720648153
 21
1.011743642571
 31
0.0
100
AcDbText
 73
     2
  0
LINE
  5
6D3
330
17
100
AcDbEntity
  8
0
 62
     5
100
AcDbLine
 10
20.766720648153
 20
2.023487285143
 30
0.0
 11
30.766720648153
 21
2.023487285143
 31
0.0
  0
TEXT
  5
6D4
330
17
100
AcDbEntity
  8
0
 62
     2
100
AcDbText
 10
20.766720648153
 20
1.823487285143
 30
0.0
 40
0.2
  1
TOP_LEFT
 71
     2
 11
20.766720648153
 21
2.023487285143
 31
0.0
100
AcDbText
 73
     3
  0
TEXT
  5
6D5
330
17
100
AcDbEntity
  8
0
 62
     2
100
AcDbText
 10
27.116420648153
 20
1.823487285143
 30
0.0
 40
0.2
  1
TOP_CENTER_gjpqy
 71
     2
 72
     1
 11
25.766720648153
 21
2.023487285143
 31
0.0
100
AcDbText
 73
     3
  0
TEXT
  5
6D6
330
17
100
AcDbEntity
  8
0
 62
     2
100
AcDbText
 10
32.364520648153
 20
1.823487285143
 30
0.0
 40
0.2
  1
TOP_RIGHT
 71
     2
 72
     2
 11
30.766720648153
 21
2.023487285143
 31
0.0
100
AcDbText
 73
     3
  0
CIRCLE
  5
6D7
330
17
100
AcDbEntity
  8
INSERT_POINTS
 62
     1
100
AcDbCircle
 10
20.885570336212
 20
-5.231006269827
 30
0.0
 40
0.025
  0
CIRCLE
  5
6D8
330
17
100
AcDbEntity
  8
INSERT_POINTS
 62
     2
100
AcDbCircle
 10
25.885570336212
 20
-3.981006269827
 30
0.0
 40
0.01875
  0
CIRCLE
  5
6D9
330
17
100
AcDbEntity
  8
INSERT_POINTS
 62
     1
100
AcDbCircle
 10
20.885570336212
 20
-2.731006269827
 30
0.0
 40
0.025
  0
CIRCLE
  5
6DA
330
17
100
AcDbEntity
  8
INSERT_POINTS
 62
     2
100
AcDbCircle
 10
25.885570336212
 20
-3.981006269827
 30
0.0
 40
0.01875
  0
CIRCLE
  5
6DB
330
17
100
AcDbEntity
  8
INSERT_POINTS
 62
     1
100
AcDbCircle
 10
20.766720648153
 20
-1.5
 30
0.0
 40
0.1
  0
CIRCLE
  5
6DC
330
17
100
AcDbEntity
  8
INSERT_POINTS
 62
     2
100
AcDbCircle
 10
20.766720648153
 20
-1.5
 30
0.0
 40
0.075
  0
CIRCLE
  5
6DD
330
17
100
AcDbEntity
  8
INSERT_POINTS
 62
     1
100
AcDbCircle
 10
20.766720648153
 20
-1.0
 30
0.0
 40
0.1
  0
CIRCLE
  5
6DE
330
17
100
AcDbEntity
  8
INSERT_POINTS
 62
     2
100
AcDbCircle
 10
20.766720648153
 20
-1.0
 30
0.0
 40
0.075
  0
CIRCLE
  5
6DF
330
17
100
AcDbEntity
  8
INSERT_POINTS
 62
     1
100
AcDbCircle
 10
25.766720648153
 20
-1.0
 30
0.0
 40
0.1
  0
CIRCLE
  5
6E0
330
17
100
AcDbEntity
  8
INSERT_POINTS
 62
     2
100
AcDbCircle
 10
25.766720648153
 20
-1.0
 30
0.0
 40
0.075
  0
CIRCLE
  5
6E1
330
17
100
AcDbEntity
  8
INSERT_POINTS
 62
     1
100
AcDbCircle
 10
30.766720648153
 20
-1.0
 30
0.0
 40
0.1
  0
CIRCLE
  5
6E2
330
17
100
AcDbEntity
  8
INSERT_POINTS
 62
     2
100
AcDbCircle
 10
30.766720648153
 20
-1.0
 30
0.0
 40
0.075
  0
CIRCLE
  5
6E3
330
17
100
AcDbEntity
  8
INSERT_POINTS
 62
     1
100
AcDbCircle
 10
20.766720648153
 20
0.0
 30
0.0
 40
0.1
  0
CIRCLE
  5
6E4
330
17
100
AcDbEntity
  8
INSERT_POINTS
 62
     2
100
AcDbCircle
 10
20.766720648153
 20
0.0
 30
0.0
 40
0.075
  0
CIRCLE
  5
6E5
330
17
100
AcDbEntity
  8
INSERT_POINTS
 62
     1
100
AcDbCircle
 10
25.766720648153
 20
0.0
 30
0.0
 40
0.1
  0
CIRCLE
  5
6E6
330
17
100
AcDbEntity
  8
INSERT_POINTS
 62
     2
100
AcDbCircle
 10
25.766720648153
 20
0.0
 30
0.0
 40
0.075
  0
CIRCLE
  5
6E7
330
17
100
AcDbEntity
  8
INSERT_POINTS
 62
     1
100
AcDbCircle
 10
30.766720648153
 20
0.0
 30
0.0
 40
0.1
  0
CIRCLE
  5
6E8
330
17
100
AcDbEntity
  8
INSERT_POINTS
 62
     2
100
AcDbCircle
 10
30.766720648153
 20
0.0
 30
0.0
 40
0.075
  0
CIRCLE
  5
6E9
330
17
100
AcDbEntity
  8
INSERT_POINTS
 62
     1
100
AcDbCircle
 10
20.766720648153
 20
1.011743642571
 30
0.0
 40
0.1
  0
CIRCLE
  5
6EA
330
17
100
AcDbEntity
  8
INSERT_POINTS
 62
     2
100
AcDbCircle
 10
20.766720648153
 20
1.011743642571
 30
0.0
 40
0.075
  0
CIRCLE
  5
6EB
330
17
100
AcDbEntity
  8
INSERT_POINTS
 62
     1
100
AcDbCircle
 10
25.766720648153
 20
1.011743642571
 30
0.0
 40
0.1
  0
CIRCLE
  5
6EC
330
17
100
AcDbEntity
  8
INSERT_POINTS
 62
     2
100
AcDbCircle
 10
25.766720648153
 20
1.011743642571
 30
0.0
 40
0.075
  0
CIRCLE
  5
6ED
330
17
100
AcDbEntity
  8
INSERT_POINTS
 62
     1
100
AcDbCircle
 10
30.766720648153
 20
1.011743642571
 30
0.0
 40
0.1
  0
CIRCLE
  5
6EE
330
17
100
AcDbEntity
  8
INSERT_POINTS
 62
     2
100
AcDbCircle
 10
30.766720648153
 20
1.011743642571
 30
0.0
 40
0.075
  0
CIRCLE
  5
6EF
330
17
100
AcDbEntity
  8
INSERT_POINTS
 62
     1
100
AcDbCircle
 10
20.766720648153
 20
2.023487285143
 30
0.0
 40
0.1
  0
CIRCLE
  5
6F0
330
17
100
AcDbEntity
  8
INSERT_POINTS
 62
     2
100
AcDbCircle
 10
20.766720648153
 20
2.023487285143
 30
0.0
 40
0.075
  0
CIRCLE
  5
6F1
330
17
100
AcDbEntity
  8
INSERT_POINTS
 62
     1
100
AcDbCircle
 10
25.766720648153
 20
2.023487285143
 30
0.0
 40
0.1
  0
CIRCLE
  5
6F2
330
17
100
AcDbEntity
  8
INSERT_POINTS
 62
     2
100
AcDbCircle
 10
25.766720648153
 20
2.023487285143
 30
0.0
 40
0.075
  0
CIRCLE
  5
6F3
330
17
100
AcDbEntity
  8
INSERT_POINTS
 62
     1
100
AcDbCircle
 10
30.766720648153
 20
2.023487285143
 30
0.0
 40
0.1
  0
CIRCLE
  5
6F4
330
17
100
AcDbEntity
  8
INSERT_POINTS
 62
     2
100
AcDbCircle
 10
30.766720648153
 20
2.023487285143
 30
0.0
 40
0.075
  0
LINE
  5
6F5
330
17
100
AcDbEntity
  8
0
 62
     5
100
AcDbLine
 10
28.772573639793
 20
-4.675353423372
 30
0.0
 11
28.772573639793
 21
-2.65186613823
 31
0.0
  0
LINE
  5
6F6
330
17
100
AcDbEntity
  8
0
 62
     5
100
AcDbLine
 10
27.358605002465
 20
-3.663609780801
 30
0.0
 11
30.186542277122
 21
-3.663609780801
 31
0.0
  0
TEXT
  5
6F7
330
17
100
AcDbEntity
  8
0
 62
     3
100
AcDbText
 10
29.711173639793
 20
-3.734309780801
 30
0.0
 40
0.2
  1
MIDDLE_gjpqy
 71
     2
 72
     4
 11
28.772573639793
 21
-3.663609780801
 31
0.0
100
AcDbText
  0
CIRCLE
  5
6F8
330
17
100
AcDbEntity
  8
INSERT_POINTS
 62
     1
100
AcDbCircle
 10
28.772573639793
 20
-3.663609780801
 30
0.0
 40
0.1
  0
CIRCLE
  5
6F9
330
17
100
AcDbEntity
  8
INSERT_POINTS
 62
     2
100
AcDbCircle
 10
28.772573639793
 20
-3.663609780801
 30
0.0
 40
0.075
  0
LINE
  5
6FA
330
17
100
AcDbEntity
  8
0
 62
     5
100
AcDbLine
 10
20.766720648153
 20
-1.5
 30
0.0
 11
30.766720648153
 21
-1.5
 31
0.0
  0
TEXT
  5
6FB
330
17
100
AcDbEntity
  8
0
 62
     3
100
AcDbText
 10
20.766720648153
 20
3.487605056663
 30
0.0
 40
0.5
  1
MIRROR-X (BACKWARD)
100
AcDbText
  0
TEXT
  5
6FC
330
17
100
AcDbEntity
  8
0
 62
     3
100
AcDbText
 10
20.766720648153
 20
2.3343638996
 30
0.0
 40
0.2
  1
Width Factor: 1.0
100
AcDbText
  0
LINE
  5
6FD
330
17
100
AcDbEntity
  8
0
 62
     5
100
AcDbLine
 10
20.766720648153
 20
-8.871668073206
 30
0.0
 11
20.766720648153
 21
-6.848180788063
 31
0.0
  0
LINE
  5
6FE
330
17
100
AcDbEntity
  8
0
 62
     5
100
AcDbLine
 10
27.053978120586
 20
-8.871668073206
 30
0.0
 11
27.053978120586
 21
-6.848180788063
 31
0.0
  0
LINE
  5
6FF
330
17
100
AcDbEntity
  8
0
 62
     5
100
AcDbLine
 10
33.341235593018
 20
-8.871668073206
 30
0.0
 11
33.341235593018
 21
-6.848180788063
 31
0.0
  0
LINE
  5
700
330
17
100
AcDbEntity
  8
0
 62
     5
100
AcDbLine
 10
20.766720648153
 20
-9.871668073206
 30
0.0
 11
30.766720648153
 21
-9.871668073206
 31
0.0
  0
TEXT
  5
701
330
17
100
AcDbEntity
  8
0
 62
     3
100
AcDbText
 10
20.766720648153
 20
-10.371668073206
 30
0.0
 40
0.2
  1
BASELINE ADJUSTMENTS (gjpqy)
 41
1.2
 71
     2
100
AcDbText
  0
TEXT
  5
702
330
17
100
AcDbEntity
  8
0
 62
     3
100
AcDbText
 10
20.766720648153
 20
-9.871668073206
 30
0.0
 40
0.2
  1
LEFT
 41
1.2
 71
     2
100
AcDbText
  0
TEXT
  5
703
330
17
100
AcDbEntity
  8
0
 62
     3
100
AcDbText
 10
26.455400648153
 20
-9.871668073206
 30
0.0
 40
0.2
  1
CENTER
 41
1.2
 71
     2
 72
     1
 11
25.766720648153
 21
-9.871668073206
 31
0.0
100
AcDbText
  0
TEXT
  5
704
330
17
100
AcDbEntity
  8
0
 62
     3
100
AcDbText
 10
31.809040648153
 20
-9.871668073206
 30
0.0
 40
0.2
  1
RIGHT
 41
1.2
 71
     2
 72
     2
 11
30.766720648153
 21
-9.871668073206
 31
0.0
100
AcDbText
  0
LINE
  5
705
330
17
100
AcDbEntity
  8
0
 62
     5
100
AcDbLine
 10
20.766720648153
 20
-8.871668073206
 30
0.0
 11
33.341235593018
 21
-8.871668073206
 31
0.0
  0
TEXT
  5
706
330
17
100
AcDbEntity
  8
0
 62
     2
100
AcDbText
 10
20.766720648153
 20
-8.812486255024
 30
0.0
 40
0.2
  1
BOTTOM_LEFT
 41
1.2
 71
     2
 11
20.766720648153
 21
-8.871668073206
 31
0.0
100
AcDbText
 73
     1
  0
TEXT
  5
707
330
17
100
AcDbEntity
  8
0
 62
     2
100
AcDbText
 10
29.045858120586
 20
-8.812486255024
 30
0.0
 40
0.2
  1
BOTTOM_CENTER_gjpqy
 41
1.2
 71
     2
 72
     1
 11
27.053978120586
 21
-8.871668073206
 31
0.0
100
AcDbText
 73
     1
  0
TEXT
  5
708
330
17
100
AcDbEntity
  8
0
 62
     2
100
AcDbText
 10
36.003075593018
 20
-8.812486255024
 30
0.0
 40
0.2
  1
BOTTOM_RIGHT
 41
1.2
 71
     2
 72
     2
 11
33.341235593018
 21
-8.871668073206
 31
0.0
100
AcDbText
 73
     1
  0
LINE
  5
709
330
17
100
AcDbEntity
  8
0
 62
     5
100
AcDbLine
 10
20.766720648153
 20
-7.859924430634
 30
0.0
 11
33.341235593018
 21
-7.859924430634
 31
0.0
  0
TEXT
  5
70A
330
17
100
AcDbEntity
  8
0
 62
     2
100
AcDbText
 10
20.766720648153
 20
-7.959924430634
 30
0.0
 40
0.2
  1
MIDDLE_LEFT
 41
1.2
 71
     2
 11
20.766720648153
 21
-7.859924430634
 31
0.0
100
AcDbText
 73
     2
  0
TEXT
  5
70B
330
17
100
AcDbEntity
  8
0
 62
     2
100
AcDbText
 10
28.962098120586
 20
-7.959924430634
 30
0.0
 40
0.2
  1
MIDDLE_CENTER_gjpqy
 41
1.2
 71
     2
 72
     1
 11
27.053978120586
 21
-7.859924430634
 31
0.0
100
AcDbText
 73
     2
  0
TEXT
  5
70C
330
17
100
AcDbEntity
  8
0
 62
     2
100
AcDbText
 10
35.835555593018
 20
-7.959924430634
 30
0.0
 40
0.2
  1
MIDDLE_RIGHT
 41
1.2
 71
     2
 72
     2
 11
33.341235593018
 21
-7.859924430634
 31
0.0
100
AcDbText
 73
     2
  0
LINE
  5
70D
330
17
100
AcDbEntity
  8
0
 62
     5
100
AcDbLine
 10
20.766720648153
 20
-6.848180788063
 30
0.0
 11
33.341235593018
 21
-6.848180788063
 31
0.0
  0
TEXT
  5
70E
330
17
100
AcDbEntity
  8
0
 62
     2
100
AcDbText
 10
20.766720648153
 20
-7.048180788063
 30
0.0
 40
0.2
  1
TOP_LEFT
 41
1.2
 71
     2
 11
20.766720648153
 21
-6.848180788063
 31
0.0
100
AcDbText
 73
     3
  0
TEXT
  5
70F
330
17
100
AcDbEntity
  8
0
 62
     2
100
AcDbText
 10
28.673618120586
 20
-7.048180788063
 30
0.0
 40
0.2
  1
TOP_CENTER_gjpqy
 41
1.2
 71
     2
 72
     1
 11
27.053978120586
 21
-6.848180788063
 31
0.0
100
AcDbText
 73
     3
  0
TEXT
  5
710
330
17
100
AcDbEntity
  8
0
 62
     2
100
AcDbText
 10
35.258595593018
 20
-7.048180788063
 30
0.0
 40
0.2
  1
TOP_RIGHT
 41
1.2
 71
     2
 72
     2
 11
33.341235593018
 21
-6.848180788063
 31
0.0
100
AcDbText
 73
     3
  0
CIRCLE
  5
711
330
17
100
AcDbEntity
  8
INSERT_POINTS
 62
     1
100
AcDbCircle
 10
20.766720648153
 20
-10.371668073206
 30
0.0
 40
0.1
  0
CIRCLE
  5
712
330
17
100
AcDbEntity
  8
INSERT_POINTS
 62
     2
100
AcDbCircle
 10
20.766720648153
 20
-10.371668073206
 30
0.0
 40
0.075
  0
CIRCLE
  5
713
330
17
100
AcDbEntity
  8
INSERT_POINTS
 62
     1
100
AcDbCircle
 10
20.766720648153
 20
-9.871668073206
 30
0.0
 40
0.1
  0
CIRCLE
  5
714
330
17
100
AcDbEntity
  8
INSERT_POINTS
 62
     2
100
AcDbCircle
 10
20.766720648153
 20
-9.871668073206
 30
0.0
 40
0.075
  0
CIRCLE
  5
715
330
17
100
AcDbEntity
  8
INSERT_POINTS
 62
     1
100
AcDbCircle
 10
25.766720648153
 20
-9.871668073206
 30
0.0
 40
0.1
  0
CIRCLE
  5
716
330
17
100
AcDbEntity
  8
INSERT_POINTS
 62
     2
100
AcDbCircle
 10
25.766720648153
 20
-9.871668073206
 30
0.0
 40
0.075
  0
CIRCLE
  5
717
330
17
100
AcDbEntity
  8
INSERT_POINTS
 62
     1
100
AcDbCircle
 10
30.766720648153
 20
-9.871668073206
 30
0.0
 40
0.1
  0
CIRCLE
  5
718
330
17
100
AcDbEntity
  8
INSERT_POINTS
 62
     2
100
AcDbCircle
 10
30.766720648153
 20
-9.871668073206
 30
0.0
 40
0.075
  0
CIRCLE
  5
719
330
17
100
AcDbEntity
  8
INSERT_POINTS
 62
     1
100
AcDbCircle
 10
20.766720648153
 20
-8.871668073206
 30
0.0
 40
0.1
  0
CIRCLE
  5
71A
330
17
100
AcDbEntity
  8
INSERT_POINTS
 62
     2
100
AcDbCircle
 10
20.766720648153
 20
-8.871668073206
 30
0.0
 40
0.075
  0
CIRCLE
  5
71B
330
17
100
AcDbEntity
  8
INSERT_POINTS
 62
     1
100
AcDbCircle
 10
27.053978120586
 20
-8.871668073206
 30
0.0
 40
0.1
  0
CIRCLE
  5
71C
330
17
100
AcDbEntity
  8
INSERT_POINTS
 62
     2
100
AcDbCircle
 10
27.053978120586
 20
-8.871668073206
 30
0.0
 40
0.075
  0
CIRCLE
  5
71D
330
17
100
AcDbEntity
  8
INSERT_POINTS
 62
     1
100
AcDbCircle
 10
33.341235593018
 20
-8.871668073206
 30
0.0
 40
0.1
  0
CIRCLE
  5
71E
330
17
100
AcDbEntity
  8
INSERT_POINTS
 62
     2
100
AcDbCircle
 10
33.341235593018
 20
-8.871668073206
 30
0.0
 40
0.075
  0
CIRCLE
  5
71F
330
17
100
AcDbEntity
  8
INSERT_POINTS
 62
     1
100
AcDbCircle
 10
20.766720648153
 20
-7.859924430634
 30
0.0
 40
0.1
  0
CIRCLE
  5
720
330
17
100
AcDbEntity
  8
INSERT_POINTS
 62
     2
100
AcDbCircle
 10
20.766720648153
 20
-7.859924430634
 30
0.0
 40
0.075
  0
CIRCLE
  5
721
330
17
100
AcDbEntity
  8
INSERT_POINTS
 62
     1
100
AcDbCircle
 10
27.053978120586
 20
-7.859924430634
 30
0.0
 40
0.1
  0
CIRCLE
  5
722
330
17
100
AcDbEntity
  8
INSERT_POINTS
 62
     2
100
AcDbCircle
 10
27.053978120586
 20
-7.859924430634
 30
0.0
 40
0.075
  0
CIRCLE
  5
723
330
17
100
AcDbEntity
  8
INSERT_POINTS
 62
     1
100
AcDbCircle
 10
33.341235593018
 20
-7.859924430634
 30
0.0
 40
0.1
  0
CIRCLE
  5
724
330
17
100
AcDbEntity
  8
INSERT_POINTS
 62
     2
100
AcDbCircle
 10
33.341235593018
 20
-7.859924430634
 30
0.0
 40
0.075
  0
CIRCLE
  5
725
330
17
100
AcDbEntity
  8
INSERT_POINTS
 62
     1
100
AcDbCircle
 10
20.766720648153
 20
-6.848180788063
 30
0.0
 40
0.1
  0
CIRCLE
  5
726
330
17
100
AcDbEntity
  8
INSERT_POINTS
 62
     2
100
AcDbCircle
 10
20.766720648153
 20
-6.848180788063
 30
0.0
 40
0.075
  0
CIRCLE
  5
727
330
17
100
AcDbEntity
  8
INSERT_POINTS
 62
     1
100
AcDbCircle
 10
27.053978120586
 20
-6.848180788063
 30
0.0
 40
0.1
  0
CIRCLE
  5
728
330
17
100
AcDbEntity
  8
INSERT_POINTS
 62
     2
100
AcDbCircle
 10
27.053978120586
 20
-6.848180788063
 30
0.0
 40
0.075
  0
CIRCLE
  5
729
330
17
100
AcDbEntity
  8
INSERT_POINTS
 62
     1
100
AcDbCircle
 10
33.341235593018
 20
-6.848180788063
 30
0.0
 40
0.1
  0
CIRCLE
  5
72A
330
17
100
AcDbEntity
  8
INSERT_POINTS
 62
     2
100
AcDbCircle
 10
33.341235593018
 20
-6.848180788063
 30
0.0
 40
0.075
  0
LINE
  5
72B
330
17
100
AcDbEntity
  8
0
 62
     5
100
AcDbLine
 10
28.772573639793
 20
-13.547021496578
 30
0.0
 11
28.772573639793
 21
-11.523534211435
 31
0.0
  0
LINE
  5
72C
330
17
100
AcDbEntity
  8
0
 62
     5
100
AcDbLine
 10
27.358605002465
 20
-12.535277854007
 30
0.0
 11
30.186542277122
 21
-12.535277854007
 31
0.0
  0
TEXT
  5
72D
330
17
100
AcDbEntity
  8
0
 62
     3
100
AcDbText
 10
29.898893639793
 20
-12.605977854007
 30
0.0
 40
0.2
  1
MIDDLE_gjpqy
 41
1.2
 71
     2
 72
     4
 11
28.772573639793
 21
-12.535277854007
 31
0.0
100
AcDbText
  0
CIRCLE
  5
72E
330
17
100
AcDbEntity
  8
INSERT_POINTS
 62
     1
100
AcDbCircle
 10
28.772573639793
 20
-12.535277854007
 30
0.0
 40
0.1
  0
CIRCLE
  5
72F
330
17
100
AcDbEntity
  8
INSERT_POINTS
 62
     2
100
AcDbCircle
 10
28.772573639793
 20
-12.535277854007
 30
0.0
 40
0.075
  0
LINE
  5
730
330
17
100
AcDbEntity
  8
0
 62
     5
100
AcDbLine
 10
20.766720648153
 20
-10.371668073206
 30
0.0
 11
30.766720648153
 21
-10.371668073206
 31
0.0
  0
TEXT
  5
731
330
17
100
AcDbEntity
  8
0
 62
     3
100
AcDbText
 10
20.766720648153
 20
-6.537304173606
 30
0.0
 40
0.2
  1
Width Factor: 1.2
 41
1.2
100
AcDbText
  0
LINE
  5
732
330
17
100
AcDbEntity
  8
0
 62
     5
100
AcDbLine
 10
20.766720648153
 20
-16.777433098996
 30
0.0
 11
20.766720648153
 21
-14.753945813853
 31
0.0
  0
LINE
  5
733
330
17
100
AcDbEntity
  8
0
 62
     5
100
AcDbLine
 10
27.053978120586
 20
-16.777433098996
 30
0.0
 11
27.053978120586
 21
-14.753945813853
 31
0.0
  0
LINE
  5
734
330
17
100
AcDbEntity
  8
0
 62
     5
100
AcDbLine
 10
33.341235593018
 20
-16.777433098996
 30
0.0
 11
33.341235593018
 21
-14.753945813853
 31
0.0
  0
LINE
  5
735
330
17
100
AcDbEntity
  8
0
 62
     5
100
AcDbLine
 10
20.766720648153
 20
-17.777433098996
 30
0.0
 11
30.766720648153
 21
-17.777433098996
 31
0.0
  0
TEXT
  5
736
330
17
100
AcDbEntity
  8
0
 62
     3
100
AcDbText
 10
20.766720648153
 20
-18.277433098996
 30
0.0
 40
0.2
  1
BASELINE ADJUSTMENTS (gjpqy)
 41
0.5
 71
     2
100
AcDbText
  0
TEXT
  5
737
330
17
100
AcDbEntity
  8
0
 62
     3
100
AcDbText
 10
20.766720648153
 20
-17.777433098996
 30
0.0
 40
0.2
  1
LEFT
 41
0.5
 71
     2
100
AcDbText
  0
TEXT
  5
738
330
17
100
AcDbEntity
  8
0
 62
     3
100
AcDbText
 10
26.053670648153
 20
-17.777433098996
 30
0.0
 40
0.2
  1
CENTER
 41
0.5
 71
     2
 72
     1
 11
25.766720648153
 21
-17.777433098996
 31
0.0
100
AcDbText
  0
TEXT
  5
739
330
17
100
AcDbEntity
  8
0
 62
     3
100
AcDbText
 10
31.201020648153
 20
-17.777433098996
 30
0.0
 40
0.2
  1
RIGHT
 41
0.5
 71
     2
 72
     2
 11
30.766720648153
 21
-17.777433098996
 31
0.0
100
AcDbText
  0
LINE
  5
73A
330
17
100
AcDbEntity
  8
0
 62
     5
100
AcDbLine
 10
20.766720648153
 20
-16.777433098996
 30
0.0
 11
33.341235593018
 21
-16.777433098996
 31
0.0
  0
TEXT
  5
73B
330
17
100
AcDbEntity
  8
0
 62
     2
100
AcDbText
 10
20.766720648153
 20
-16.718251280814
 30
0.0
 40
0.2
  1
BOTTOM_LEFT
 41
0.5
 71
     2
 11
20.766720648153
 21
-16.777433098996
 31
0.0
100
AcDbText
 73
     1
  0
TEXT
  5
73C
330
17
100
AcDbEntity
  8
0
 62
     2
100
AcDbText
 10
27.883928120586
 20
-16.718251280814
 30
0.0
 40
0.2
  1
BOTTOM_CENTER_gjpqy
 41
0.5
 71
     2
 72
     1
 11
27.053978120586
 21
-16.777433098996
 31
0.0
100
AcDbText
 73
     1
  0
TEXT
  5
73D
330
17
100
AcDbEntity
  8
0
 62
     2
100
AcDbText
 10
34.450335593018
 20
-16.718251280814
 30
0.0
 40
0.2
  1
BOTTOM_RIGHT
 41
0.5
 71
     2
 72
     2
 11
33.341235593018
 21
-16.777433098996
 31
0.0
100
AcDbText
 73
     1
  0
LINE
  5
73E
330
17
100
AcDbEntity
  8
0
 62
     5
100
AcDbLine
 10
20.766720648153
 20
-15.765689456425
 30
0.0
 11
33.341235593018
 21
-15.765689456425
 31
0.0
  0
TEXT
  5
73F
330
17
100
AcDbEntity
  8
0
 62
     2
100
AcDbText
 10
20.766720648153
 20
-15.865689456425
 30
0.0
 40
0.2
  1
MIDDLE_LEFT
 41
0.5
 71
     2
 11
20.766720648153
 21
-15.765689456425
 31
0.0
100
AcDbText
 73
     2
  0
TEXT
  5
740
330
17
100
AcDbEntity
  8
0
 62
     2
100
AcDbText
 10
27.849028120586
 20
-15.865689456425
 30
0.0
 40
0.2
  1
MIDDLE_CENTER_gjpqy
 41
0.5
 71
     2
 72
     1
 11
27.053978120586
 21
-15.765689456425
 31
0.0
100
AcDbText
 73
     2
  0
TEXT
  5
741
330
17
100
AcDbEntity
  8
0
 62
     2
100
AcDbText
 10
34.380535593018
 20
-15.865689456425
 30
0.0
 40
0.2
  1
MIDDLE_RIGHT
 41
0.5
 71
     2
 72
     2
 11
33.341235593018
 21
-15.765689456425
 31
0.0
100
AcDbText
 73
     2
  0
LINE
  5
742
330
17
100
AcDbEntity
  8
0
 62
     5
100
AcDbLine
 10
20.766720648153
 20
-14.753945813853
 30
0.0
 11
33.341235593018
 21
-14.753945813853
 31
0.0
  0
TEXT
  5
743
330
17
100
AcDbEntity
  8
0
 62
     2
100
AcDbText
 10
20.766720648153
 20
-14.953945813853
 30
0.0
 40
0.2
  1
TOP_LEFT
 41
0.5
 71
     2
 11
20.766720648153
 21
-14.753945813853
 31
0.0
100
AcDbText
 73
     3
  0
TEXT
  5
744
330
17
100
AcDbEntity
  8
0
 62
     2
100
AcDbText
 10
27.728828120586
 20
-14.953945813853
 30
0.0
 40
0.2
  1
TOP_CENTER_gjpqy
 41
0.5
 71
     2
 72
     1
 11
27.053978120586
 21
-14.753945813853
 31
0.0
100
AcDbText
 73
     3
  0
TEXT
  5
745
330
17
100
AcDbEntity
  8
0
 62
     2
100
AcDbText
 10
34.140135593018
 20
-14.953945813853
 30
0.0
 40
0.2
  1
TOP_RIGHT
 41
0.5
 71
     2
 72
     2
 11
33.341235593018
 21
-14.753945813853
 31
0.0
100
AcDbText
 73
     3
  0
CIRCLE
  5
746
330
17
100
AcDbEntity
  8
INSERT_POINTS
 62
     1
100
AcDbCircle
 10
20.766720648153
 20
-18.277433098996
 30
0.0
 40
0.1
  0
CIRCLE
  5
747
330
17
100
AcDbEntity
  8
INSERT_POINTS
 62
     2
100
AcDbCircle
 10
20.766720648153
 20
-18.277433098996
 30
0.0
 40
0.075
  0
CIRCLE
  5
748
330
17
100
AcDbEntity
  8
INSERT_POINTS
 62
     1
100
AcDbCircle
 10
20.766720648153
 20
-17.777433098996
 30
0.0
 40
0.1
  0
CIRCLE
  5
749
330
17
100
AcDbEntity
  8
INSERT_POINTS
 62
     2
100
AcDbCircle
 10
20.766720648153
 20
-17.777433098996
 30
0.0
 40
0.075
  0
CIRCLE
  5
74A
330
17
100
AcDbEntity
  8
INSERT_POINTS
 62
     1
100
AcDbCircle
 10
25.766720648153
 20
-17.777433098996
 30
0.0
 40
0.1
  0
CIRCLE
  5
74B
330
17
100
AcDbEntity
  8
INSERT_POINTS
 62
     2
100
AcDbCircle
 10
25.766720648153
 20
-17.777433098996
 30
0.0
 40
0.075
  0
CIRCLE
  5
74C
330
17
100
AcDbEntity
  8
INSERT_POINTS
 62
     1
100
AcDbCircle
 10
30.766720648153
 20
-17.777433098996
 30
0.0
 40
0.1
  0
CIRCLE
  5
74D
330
17
100
AcDbEntity
  8
INSERT_POINTS
 62
     2
100
AcDbCircle
 10
30.766720648153
 20
-17.777433098996
 30
0.0
 40
0.075
  0
CIRCLE
  5
74E
330
17
100
AcDbEntity
  8
INSERT_POINTS
 62
     1
100
AcDbCircle
 10
20.766720648153
 20
-16.777433098996
 30
0.0
 40
0.1
  0
CIRCLE
  5
74F
330
17
100
AcDbEntity
  8
INSERT_POINTS
 62
     2
100
AcDbCircle
 10
20.766720648153
 20
-16.777433098996
 30
0.0
 40
0.075
  0
CIRCLE
  5
750
330
17
100
AcDbEntity
  8
INSERT_POINTS
 62
     1
100
AcDbCircle
 10
27.053978120586
 20
-16.777433098996
 30
0.0
 40
0.1
  0
CIRCLE
  5
751
330
17
100
AcDbEntity
  8
INSERT_POINTS
 62
     2
100
AcDbCircle
 10
27.053978120586
 20
-16.777433098996
 30
0.0
 40
0.075
  0
CIRCLE
  5
752
330
17
100
AcDbEntity
  8
INSERT_POINTS
 62
     1
100
AcDbCircle
 10
33.341235593018
 20
-16.777433098996
 30
0.0
 40
0.1
  0
CIRCLE
  5
753
330
17
100
AcDbEntity
  8
INSERT_POINTS
 62
     2
100
AcDbCircle
 10
33.341235593018
 20
-16.777433098996
 30
0.0
 40
0.075
  0
CIRCLE
  5
754
330
17
100
AcDbEntity
  8
INSERT_POINTS
 62
     1
100
AcDbCircle
 10
20.766720648153
 20
-15.765689456425
 30
0.0
 40
0.1
  0
CIRCLE
  5
755
330
17
100
AcDbEntity
  8
INSERT_POINTS
 62
     2
100
AcDbCircle
 10
20.766720648153
 20
-15.765689456425
 30
0.0
 40
0.075
  0
CIRCLE
  5
756
330
17
100
AcDbEntity
  8
INSERT_POINTS
 62
     1
100
AcDbCircle
 10
27.053978120586
 20
-15.765689456425
 30
0.0
 40
0.1
  0
CIRCLE
  5
757
330
17
100
AcDbEntity
  8
INSERT_POINTS
 62
     2
100
AcDbCircle
 10
27.053978120586
 20
-15.765689456425
 30
0.0
 40
0.075
  0
CIRCLE
  5
758
330
17
100
AcDbEntity
  8
INSERT_POINTS
 62
     1
100
AcDbCircle
 10
33.341235593018
 20
-15.765689456425
 30
0.0
 40
0.1
  0
CIRCLE
  5
759
330
17
100
AcDbEntity
  8
INSERT_POINTS
 62
     2
100
AcDbCircle
 10
33.341235593018
 20
-15.765689456425
 30
0.0
 40
0.075
  0
CIRCLE
  5
75A
330
17
100
AcDbEntity
  8
INSERT_POINTS
 62
     1
100
AcDbCircle
 10
20.766720648153
 20
-14.753945813853
 30
0.0
 40
0.1
  0
CIRCLE
  5
75B
330
17
100
AcDbEntity
  8
INSERT_POINTS
 62
     2
100
AcDbCircle
 10
20.766720648153
 20
-14.753945813853
 30
0.0
 40
0.075
  0
CIRCLE
  5
75C
330
17
100
AcDbEntity
  8
INSERT_POINTS
 62
     1
100
AcDbCircle
 10
27.053978120586
 20
-14.753945813853
 30
0.0
 40
0.1
  0
CIRCLE
  5
75D
330
17
100
AcDbEntity
  8
INSERT_POINTS
 62
     2
100
AcDbCircle
 10
27.053978120586
 20
-14.753945813853
 30
0.0
 40
0.075
  0
CIRCLE
  5
75E
330
17
100
AcDbEntity
  8
INSERT_POINTS
 62
     1
100
AcDbCircle
 10
33.341235593018
 20
-14.753945813853
 30
0.0
 40
0.1
  0
CIRCLE
  5
75F
330
17
100
AcDbEntity
  8
INSERT_POINTS
 62
     2
100
AcDbCircle
 10
33.341235593018
 20
-14.753945813853
 30
0.0
 40
0.075
  0
LINE
  5
760
330
17
100
AcDbEntity
  8
0
 62
     5
100
AcDbLine
 10
28.772573639793
 20
-21.452786522369
 30
0.0
 11
28.772573639793
 21
-19.429299237226
 31
0.0
  0
LINE
  5
761
330
17
100
AcDbEntity
  8
0
 62
     5
100
AcDbLine
 10
27.358605002465
 20
-20.441042879797
 30
0.0
 11
30.186542277122
 21
-20.441042879797
 31
0.0
  0
TEXT
  5
762
330
17
100
AcDbEntity
  8
0
 62
     3
100
AcDbText
 10
29.241873639793
 20
-20.511742879797
 30
0.0
 40
0.2
  1
MIDDLE_gjpqy
 41
0.5
 71
     2
 72
     4
 11
28.772573639793
 21
-20.441042879797
 31
0.0
100
AcDbText
  0
CIRCLE
  5
763
330
17
100
AcDbEntity
  8
INSERT_POINTS
 62
     1
100
AcDbCircle
 10
28.772573639793
 20
-20.441042879797
 30
0.0
 40
0.1
  0
CIRCLE
  5
764
330
17
100
AcDbEntity
  8
INSERT_POINTS
 62
     2
100
AcDbCircle
 10
28.772573639793
 20
-20.441042879797
 30
0.0
 40
0.075
  0
LINE
  5
765
330
17
100
AcDbEntity
  8
0
 62
     5
100
AcDbLine
 10
20.766720648153
 20
-18.277433098996
 30
0.0
 11
30.766720648153
 21
-18.277433098996
 31
0.0
  0
TEXT
  5
766
330
17
100
AcDbEntity
  8
0
 62
     3
100
AcDbText
 10
20.766720648153
 20
-14.443069199396
 30
0.0
 40
0.2
  1
Width Factor: 0.5
 41
0.5
100
AcDbText
  0
TEXT
  5
767
330
17
100
AcDbEntity
  8
0
 62
     3
100
AcDbText
 10
40.452173951601
 20
-5.231006269827
 30
0.0
 40
0.112431981501
  1
ALIGNED-TEXT-ALIGNED-TEXT-gjpqy-ALIGNED-TEXT-ALIGNED-TEXT
 50
14.036243467926
 71
     4
 72
     3
 11
45.452173951601
 21
-3.981006269827
 31
0.0
100
AcDbText
  0
LINE
  5
768
330
17
100
AcDbEntity
  8
0
 62
     5
100
AcDbLine
 10
40.452173951601
 20
-5.231006269827
 30
0.0
 11
45.452173951601
 21
-3.981006269827
 31
0.0
  0
TEXT
  5
769
330
17
100
AcDbEntity
  8
0
 62
     3
100
AcDbText
 10
40.452173951601
 20
-2.731006269827
 30
0.0
 40
0.625
  1
FITTED-TEXT-FITTED-TEXT-gjpqy-FITTED-TEXT-FITTED-TEXT
 50
345.963756532073
 41
0.201756979136
 71
     4
 72
     5
 11
45.452173951601
 21
-3.981006269827
 31
0.0
100
AcDbText
  0
LINE
  5
76A
330
17
100
AcDbEntity
  8
0
 62
     5
100
AcDbLine
 10
40.452173951601
 20
-2.731006269827
 30
0.0
 11
45.452173951601
 21
-3.981006269827
 31
0.0
  0
LINE
  5
76B
330
17
100
AcDbEntity
  8
0
 62
     5
100
AcDbLine
 10
40.333324263542
 20
0.0
 30
0.0
 11
40.333324263542
 21
2.023487285143
 31
0.0
  0
LINE
  5
76C
330
17
100
AcDbEntity
  8
0
 62
     5
100
AcDbLine
 10
45.333324263542
 20
0.0
 30
0.0
 11
45.333324263542
 21
2.023487285143
 31
0.0
  0
LINE
  5
76D
330
17
100
AcDbEntity
  8
0
 62
     5
100
AcDbLine
 10
50.333324263542
 20
0.0
 30
0.0
 11
50.333324263542
 21
2.023487285143
 31
0.0
  0
LINE
  5
76E
330
17
100
AcDbEntity
  8
0
 62
     5
100
AcDbLine
 10
40.333324263542
 20
-1.0
 30
0.0
 11
50.333324263542
 21
-1.0
 31
0.0
  0
TEXT
  5
76F
330
17
100
AcDbEntity
  8
0
 62
     3
100
AcDbText
 10
40.333324263542
 20
-1.5
 30
0.0
 40
0.2
  1
BASELINE ADJUSTMENTS (gjpqy)
 71
     4
100
AcDbText
  0
TEXT
  5
770
330
17
100
AcDbEntity
  8
0
 62
     3
100
AcDbText
 10
40.333324263542
 20
-1.0
 30
0.0
 40
0.2
  1
LEFT
 71
     4
100
AcDbText
  0
TEXT
  5
771
330
17
100
AcDbEntity
  8
0
 62
     3
100
AcDbText
 10
44.759424263542
 20
-1.0
 30
0.0
 40
0.2
  1
CENTER
 71
     4
 72
     1
 11
45.333324263542
 21
-1.0
 31
0.0
100
AcDbText
  0
TEXT
  5
772
330
17
100
AcDbEntity
  8
0
 62
     3
100
AcDbText
 10
49.464724263542
 20
-1.0
 30
0.0
 40
0.2
  1
RIGHT
 71
     4
 72
     2
 11
50.333324263542
 21
-1.0
 31
0.0
100
AcDbText
  0
LINE
  5
773
330
17
100
AcDbEntity
  8
0
 62
     5
100
AcDbLine
 10
40.333324263542
 20
0.0
 30
0.0
 11
50.333324263542
 21
0.0
 31
0.0
  0
TEXT
  5
774
330
17
100
AcDbEntity
  8
0
 62
     2
100
AcDbText
 10
40.333324263542
 20
-0.059181818182
 30
0.0
 40
0.2
  1
BOTTOM_LEFT
 71
     4
 11
40.333324263542
 21
0.0
 31
0.0
100
AcDbText
 73
     1
  0
TEXT
  5
775
330
17
100
AcDbEntity
  8
0
 62
     2
100
AcDbText
 10
43.673424263542
 20
-0.059181818182
 30
0.0
 40
0.2
  1
BOTTOM_CENTER_gjpqy
 71
     4
 72
     1
 11
45.333324263542
 21
0.0
 31
0.0
100
AcDbText
 73
     1
  0
TEXT
  5
776
330
17
100
AcDbEntity
  8
0
 62
     2
100
AcDbText
 10
48.115124263542
 20
-0.059181818182
 30
0.0
 40
0.2
  1
BOTTOM_RIGHT
 71
     4
 72
     2
 11
50.333324263542
 21
0.0
 31
0.0
100
AcDbText
 73
     1
  0
LINE
  5
777
330
17
100
AcDbEntity
  8
0
 62
     5
100
AcDbLine
 10
40.333324263542
 20
1.011743642571
 30
0.0
 11
50.333324263542
 21
1.011743642571
 31
0.0
  0
TEXT
  5
778
330
17
100
AcDbEntity
  8
0
 62
     2
100
AcDbText
 10
40.333324263542
 20
1.111743642571
 30
0.0
 40
0.2
  1
MIDDLE_LEFT
 71
     4
 11
40.333324263542
 21
1.011743642571
 31
0.0
100
AcDbText
 73
     2
  0
TEXT
  5
779
330
17
100
AcDbEntity
  8
0
 62
     2
100
AcDbText
 10
43.743224263542
 20
1.111743642571
 30
0.0
 40
0.2
  1
MIDDLE_CENTER_gjpqy
 71
     4
 72
     1
 11
45.333324263542
 21
1.011743642571
 31
0.0
100
AcDbText
 73
     2
  0
TEXT
  5
77A
330
17
100
AcDbEntity
  8
0
 62
     2
100
AcDbText
 10
48.254724263542
 20
1.111743642571
 30
0.0
 40
0.2
  1
MIDDLE_RIGHT
 71
     4
 72
     2
 11
50.333324263542
 21
1.011743642571
 31
0.0
100
AcDbText
 73
     2
  0
LINE
  5
77B
330
17
100
AcDbEntity
  8
0
 62
     5
100
AcDbLine
 10
40.333324263542
 20
2.023487285143
 30
0.0
 11
50.333324263542
 21
2.023487285143
 31
0.0
  0
TEXT
  5
77C
330
17
100
AcDbEntity
  8
0
 62
     2
100
AcDbText
 10
40.333324263542
 20
2.223487285143
 30
0.0
 40
0.2
  1
TOP_LEFT
 71
     4
 11
40.333324263542
 21
2.023487285143
 31
0.0
100
AcDbText
 73
     3
  0
TEXT
  5
77D
330
17
100
AcDbEntity
  8
0
 62
     2
100
AcDbText
 10
43.983624263542
 20
2.223487285143
 30
0.0
 40
0.2
  1
TOP_CENTER_gjpqy
 71
     4
 72
     1
 11
45.333324263542
 21
2.023487285143
 31
0.0
100
AcDbText
 73
     3
  0
TEXT
  5
77E
330
17
100
AcDbEntity
  8
0
 62
     2
100
AcDbText
 10
48.735524263542
 20
2.223487285143
 30
0.0
 40
0.2
  1
TOP_RIGHT
 71
     4
 72
     2
 11
50.333324263542
 21
2.023487285143
 31
0.0
100
AcDbText
 73
     3
  0
CIRCLE
  5
77F
330
17
100
AcDbEntity
  8
INSERT_POINTS
 62
     1
100
AcDbCircle
 10
40.452173951601
 20
-5.231006269827
 30
0.0
 40
0.025
  0
CIRCLE
  5
780
330
17
100
AcDbEntity
  8
INSERT_POINTS
 62
     2
100
AcDbCircle
 10
45.452173951601
 20
-3.981006269827
 30
0.0
 40
0.01875
  0
CIRCLE
  5
781
330
17
100
AcDbEntity
  8
INSERT_POINTS
 62
     1
100
AcDbCircle
 10
40.452173951601
 20
-2.731006269827
 30
0.0
 40
0.025
  0
CIRCLE
  5
782
330
17
100
AcDbEntity
  8
INSERT_POINTS
 62
     2
100
AcDbCircle
 10
45.452173951601
 20
-3.981006269827
 30
0.0
 40
0.01875
  0
CIRCLE
  5
783
330
17
100
AcDbEntity
  8
INSERT_POINTS
 62
     1
100
AcDbCircle
 10
40.333324263542
 20
-1.5
 30
0.0
 40
0.1
  0
CIRCLE
  5
784
330
17
100
AcDbEntity
  8
INSERT_POINTS
 62
     2
100
AcDbCircle
 10
40.333324263542
 20
-1.5
 30
0.0
 40
0.075
  0
CIRCLE
  5
785
330
17
100
AcDbEntity
  8
INSERT_POINTS
 62
     1
100
AcDbCircle
 10
40.333324263542
 20
-1.0
 30
0.0
 40
0.1
  0
CIRCLE
  5
786
330
17
100
AcDbEntity
  8
INSERT_POINTS
 62
     2
100
AcDbCircle
 10
40.333324263542
 20
-1.0
 30
0.0
 40
0.075
  0
CIRCLE
  5
787
330
17
100
AcDbEntity
  8
INSERT_POINTS
 62
     1
100
AcDbCircle
 10
45.333324263542
 20
-1.0
 30
0.0
 40
0.1
  0
CIRCLE
  5
788
330
17
100
AcDbEntity
  8
INSERT_POINTS
 62
     2
100
AcDbCircle
 10
45.333324263542
 20
-1.0
 30
0.0
 40
0.075
  0
CIRCLE
  5
789
330
17
100
AcDbEntity
  8
INSERT_POINTS
 62
     1
100
AcDbCircle
 10
50.333324263542
 20
-1.0
 30
0.0
 40
0.1
  0
CIRCLE
  5
78A
330
17
100
AcDbEntity
  8
INSERT_POINTS
 62
     2
100
AcDbCircle
 10
50.333324263542
 20
-1.0
 30
0.0
 40
0.075
  0
CIRCLE
  5
78B
330
17
100
AcDbEntity
  8
INSERT_POINTS
 62
     1
100
AcDbCircle
 10
40.333324263542
 20
0.0
 30
0.0
 40
0.1
  0
CIRCLE
  5
78C
330
17
100
AcDbEntity
  8
INSERT_POINTS
 62
     2
100
AcDbCircle
 10
40.333324263542
 20
0.0
 30
0.0
 40
0.075
  0
CIRCLE
  5
78D
330
17
100
AcDbEntity
  8
INSERT_POINTS
 62
     1
100
AcDbCircle
 10
45.333324263542
 20
0.0
 30
0.0
 40
0.1
  0
CIRCLE
  5
78E
330
17
100
AcDbEntity
  8
INSERT_POINTS
 62
     2
100
AcDbCircle
 10
45.333324263542
 20
0.0
 30
0.0
 40
0.075
  0
CIRCLE
  5
78F
330
17
100
AcDbEntity
  8
INSERT_POINTS
 62
     1
100
AcDbCircle
 10
50.333324263542
 20
0.0
 30
0.0
 40
0.1
  0
CIRCLE
  5
790
330
17
100
AcDbEntity
  8
INSERT_POINTS
 62
     2
100
AcDbCircle
 10
50.333324263542
 20
0.0
 30
0.0
 40
0.075
  0
CIRCLE
  5
791
330
17
100
AcDbEntity
  8
INSERT_POINTS
 62
     1
100
AcDbCircle
 10
40.333324263542
 20
1.011743642571
 30
0.0
 40
0.1
  0
CIRCLE
  5
792
330
17
100
AcDbEntity
  8
INSERT_POINTS
 62
     2
100
AcDbCircle
 10
40.333324263542
 20
1.011743642571
 30
0.0
 40
0.075
  0
CIRCLE
  5
793
330
17
100
AcDbEntity
  8
INSERT_POINTS
 62
     1
100
AcDbCircle
 10
45.333324263542
 20
1.011743642571
 30
0.0
 40
0.1
  0
CIRCLE
  5
794
330
17
100
AcDbEntity
  8
INSERT_POINTS
 62
     2
100
AcDbCircle
 10
45.333324263542
 20
1.011743642571
 30
0.0
 40
0.075
  0
CIRCLE
  5
795
330
17
100
AcDbEntity
  8
INSERT_POINTS
 62
     1
100
AcDbCircle
 10
50.333324263542
 20
1.011743642571
 30
0.0
 40
0.1
  0
CIRCLE
  5
796
330
17
100
AcDbEntity
  8
INSERT_POINTS
 62
     2
100
AcDbCircle
 10
50.333324263542
 20
1.011743642571
 30
0.0
 40
0.075
  0
CIRCLE
  5
797
330
17
100
AcDbEntity
  8
INSERT_POINTS
 62
     1
100
AcDbCircle
 10
40.333324263542
 20
2.023487285143
 30
0.0
 40
0.1
  0
CIRCLE
  5
798
330
17
100
AcDbEntity
  8
INSERT_POINTS
 62
     2
100
AcDbCircle
 10
40.333324263542
 20
2.023487285143
 30
0.0
 40
0.075
  0
CIRCLE
  5
799
330
17
100
AcDbEntity
  8
INSERT_POINTS
 62
     1
100
AcDbCircle
 10
45.333324263542
 20
2.023487285143
 30
0.0
 40
0.1
  0
CIRCLE
  5
79A
330
17
100
AcDbEntity
  8
INSERT_POINTS
 62
     2
100
AcDbCircle
 10
45.333324263542
 20
2.023487285143
 30
0.0
 40
0.075
  0
CIRCLE
  5
79B
330
17
100
AcDbEntity
  8
INSERT_POINTS
 62
     1
100
AcDbCircle
 10
50.333324263542
 20
2.023487285143
 30
0.0
 40
0.1
  0
CIRCLE
  5
79C
330
17
100
AcDbEntity
  8
INSERT_POINTS
 62
     2
100
AcDbCircle
 10
50.333324263542
 20
2.023487285143
 30
0.0
 40
0.075
  0
LINE
  5
79D
330
17
100
AcDbEntity
  8
0
 62
     5
100
AcDbLine
 10
48.339177255182
 20
-4.675353423372
 30
0.0
 11
48.339177255182
 21
-2.65186613823
 31
0.0
  0
LINE
  5
79E
330
17
100
AcDbEntity
  8
0
 62
     5
100
AcDbLine
 10
46.925208617854
 20
-3.663609780801
 30
0.0
 11
49.753145892511
 21
-3.663609780801
 31
0.0
  0
TEXT
  5
79F
330
17
100
AcDbEntity
  8
0
 62
     3
100
AcDbText
 10
47.400577255182
 20
-3.592909780801
 30
0.0
 40
0.2
  1
MIDDLE_gjpqy
 71
     4
 72
     4
 11
48.339177255182
 21
-3.663609780801
 31
0.0
100
AcDbText
  0
CIRCLE
  5
7A0
330
17
100
AcDbEntity
  8
INSERT_POINTS
 62
     1
100
AcDbCircle
 10
48.339177255182
 20
-3.663609780801
 30
0.0
 40
0.1
  0
CIRCLE
  5
7A1
330
17
100
AcDbEntity
  8
INSERT_POINTS
 62
     2
100
AcDbCircle
 10
48.339177255182
 20
-3.663609780801
 30
0.0
 40
0.075
  0
LINE
  5
7A2
330
17
100
AcDbEntity
  8
0
 62
     5
100
AcDbLine
 10
40.333324263542
 20
-1.5
 30
0.0
 11
50.333324263542
 21
-1.5
 31
0.0
  0
TEXT
  5
7A3
330
17
100
AcDbEntity
  8
0
 62
     3
100
AcDbText
 10
40.333324263542
 20
3.487605056663
 30
0.0
 40
0.5
  1
MIRROR-Y (UPSIDE DOWN)
100
AcDbText
  0
TEXT
  5
7A4
330
17
100
AcDbEntity
  8
0
 62
     3
100
AcDbText
 10
40.333324263542
 20
2.3343638996
 30
0.0
 40
0.2
  1
Width Factor: 1.0
100
AcDbText
  0
LINE
  5
7A5
330
17
100
AcDbEntity
  8
0
 62
     5
100
AcDbLine
 10
40.333324263542
 20
-8.871668073206
 30
0.0
 11
40.333324263542
 21
-6.848180788063
 31
0.0
  0
LINE
  5
7A6
330
17
100
AcDbEntity
  8
0
 62
     5
100
AcDbLine
 10
46.620581735975
 20
-8.871668073206
 30
0.0
 11
46.620581735975
 21
-6.848180788063
 31
0.0
  0
LINE
  5
7A7
330
17
100
AcDbEntity
  8
0
 62
     5
100
AcDbLine
 10
52.907839208407
 20
-8.871668073206
 30
0.0
 11
52.907839208407
 21
-6.848180788063
 31
0.0
  0
LINE
  5
7A8
330
17
100
AcDbEntity
  8
0
 62
     5
100
AcDbLine
 10
40.333324263542
 20
-9.871668073206
 30
0.0
 11
50.333324263542
 21
-9.871668073206
 31
0.0
  0
TEXT
  5
7A9
330
17
100
AcDbEntity
  8
0
 62
     3
100
AcDbText
 10
40.333324263542
 20
-10.371668073206
 30
0.0
 40
0.2
  1
BASELINE ADJUSTMENTS (gjpqy)
 41
1.2
 71
     4
100
AcDbText
  0
TEXT
  5
7AA
330
17
100
AcDbEntity
  8
0
 62
     3
100
AcDbText
 10
40.333324263542
 20
-9.871668073206
 30
0.0
 40
0.2
  1
LEFT
 41
1.2
 71
     4
100
AcDbText
  0
TEXT
  5
7AB
330
17
100
AcDbEntity
  8
0
 62
     3
100
AcDbText
 10
44.644644263542
 20
-9.871668073206
 30
0.0
 40
0.2
  1
CENTER
 41
1.2
 71
     4
 72
     1
 11
45.333324263542
 21
-9.871668073206
 31
0.0
100
AcDbText
  0
TEXT
  5
7AC
330
17
100
AcDbEntity
  8
0
 62
     3
100
AcDbText
 10
49.291004263542
 20
-9.871668073206
 30
0.0
 40
0.2
  1
RIGHT
 41
1.2
 71
     4
 72
     2
 11
50.333324263542
 21
-9.871668073206
 31
0.0
100
AcDbText
  0
LINE
  5
7AD
330
17
100
AcDbEntity
  8
0
 62
     5
100
AcDbLine
 10
40.333324263542
 20
-8.871668073206
 30
0.0
 11
52.907839208407
 21
-8.871668073206
 31
0.0
  0
TEXT
  5
7AE
330
17
100
AcDbEntity
  8
0
 62
     2
100
AcDbText
 10
40.333324263542
 20
-8.930849891388
 30
0.0
 40
0.2
  1
BOTTOM_LEFT
 41
1.2
 71
     4
 11
40.333324263542
 21
-8.871668073206
 31
0.0
100
AcDbText
 73
     1
  0
TEXT
  5
7AF
330
17
100
AcDbEntity
  8
0
 62
     2
100
AcDbText
 10
44.628701735975
 20
-8.930849891388
 30
0.0
 40
0.2
  1
BOTTOM_CENTER_gjpqy
 41
1.2
 71
     4
 72
     1
 11
46.620581735975
 21
-8.871668073206
 31
0.0
100
AcDbText
 73
     1
  0
TEXT
  5
7B0
330
17
100
AcDbEntity
  8
0
 62
     2
100
AcDbText
 10
50.245999208407
 20
-8.930849891388
 30
0.0
 40
0.2
  1
BOTTOM_RIGHT
 41
1.2
 71
     4
 72
     2
 11
52.907839208407
 21
-8.871668073206
 31
0.0
100
AcDbText
 73
     1
  0
LINE
  5
7B1
330
17
100
AcDbEntity
  8
0
 62
     5
100
AcDbLine
 10
40.333324263542
 20
-7.859924430634
 30
0.0
 11
52.907839208407
 21
-7.859924430634
 31
0.0
  0
TEXT
  5
7B2
330
17
100
AcDbEntity
  8
0
 62
     2
100
AcDbText
 10
40.333324263542
 20
-7.759924430634
 30
0.0
 40
0.2
  1
MIDDLE_LEFT
 41
1.2
 71
     4
 11
40.333324263542
 21
-7.859924430634
 31
0.0
100
AcDbText
 73
     2
  0
TEXT
  5
7B3
330
17
100
AcDbEntity
  8
0
 62
     2
100
AcDbText
 10
44.712461735975
 20
-7.759924430634
 30
0.0
 40
0.2
  1
MIDDLE_CENTER_gjpqy
 41
1.2
 71
     4
 72
     1
 11
46.620581735975
 21
-7.859924430634
 31
0.0
100
AcDbText
 73
     2
  0
TEXT
  5
7B4
330
17
100
AcDbEntity
  8
0
 62
     2
100
AcDbText
 10
50.413519208407
 20
-7.759924430634
 30
0.0
 40
0.2
  1
MIDDLE_RIGHT
 41
1.2
 71
     4
 72
     2
 11
52.907839208407
 21
-7.859924430634
 31
0.0
100
AcDbText
 73
     2
  0
LINE
  5
7B5
330
17
100
AcDbEntity
  8
0
 62
     5
100
AcDbLine
 10
40.333324263542
 20
-6.848180788063
 30
0.0
 11
52.907839208407
 21
-6.848180788063
 31
0.0
  0
TEXT
  5
7B6
330
17
100
AcDbEntity
  8
0
 62
     2
100
AcDbText
 10
40.333324263542
 20
-6.648180788063
 30
0.0
 40
0.2
  1
TOP_LEFT
 41
1.2
 71
     4
 11
40.333324263542
 21
-6.848180788063
 31
0.0
100
AcDbText
 73
     3
  0
TEXT
  5
7B7
330
17
100
AcDbEntity
  8
0
 62
     2
100
AcDbText
 10
45.000941735975
 20
-6.648180788063
 30
0.0
 40
0.2
  1
TOP_CENTER_gjpqy
 41
1.2
 71
     4
 72
     1
 11
46.620581735975
 21
-6.848180788063
 31
0.0
100
AcDbText
 73
     3
  0
TEXT
  5
7B8
330
17
100
AcDbEntity
  8
0
 62
     2
100
AcDbText
 10
50.990479208407
 20
-6.648180788063
 30
0.0
 40
0.2
  1
TOP_RIGHT
 41
1.2
 71
     4
 72
     2
 11
52.907839208407
 21
-6.848180788063
 31
0.0
100
AcDbText
 73
     3
  0
CIRCLE
  5
7B9
330
17
100
AcDbEntity
  8
INSERT_POINTS
 62
     1
100
AcDbCircle
 10
40.333324263542
 20
-10.371668073206
 30
0.0
 40
0.1
  0
CIRCLE
  5
7BA
330
17
100
AcDbEntity
  8
INSERT_POINTS
 62
     2
100
AcDbCircle
 10
40.333324263542
 20
-10.371668073206
 30
0.0
 40
0.075
  0
CIRCLE
  5
7BB
330
17
100
AcDbEntity
  8
INSERT_POINTS
 62
     1
100
AcDbCircle
 10
40.333324263542
 20
-9.871668073206
 30
0.0
 40
0.1
  0
CIRCLE
  5
7BC
330
17
100
AcDbEntity
  8
INSERT_POINTS
 62
     2
100
AcDbCircle
 10
40.333324263542
 20
-9.871668073206
 30
0.0
 40
0.075
  0
CIRCLE
  5
7BD
330
17
100
AcDbEntity
  8
INSERT_POINTS
 62
     1
100
AcDbCircle
 10
45.333324263542
 20
-9.871668073206
 30
0.0
 40
0.1
  0
CIRCLE
  5
7BE
330
17
100
AcDbEntity
  8
INSERT_POINTS
 62
     2
100
AcDbCircle
 10
45.333324263542
 20
-9.871668073206
 30
0.0
 40
0.075
  0
CIRCLE
  5
7BF
330
17
100
AcDbEntity
  8
INSERT_POINTS
 62
     1
100
AcDbCircle
 10
50.333324263542
 20
-9.871668073206
 30
0.0
 40
0.1
  0
CIRCLE
  5
7C0
330
17
100
AcDbEntity
  8
INSERT_POINTS
 62
     2
100
AcDbCircle
 10
50.333324263542
 20
-9.871668073206
 30
0.0
 40
0.075
  0
CIRCLE
  5
7C1
330
17
100
AcDbEntity
  8
INSERT_POINTS
 62
     1
100
AcDbCircle
 10
40.333324263542
 20
-8.871668073206
 30
0.0
 40
0.1
  0
CIRCLE
  5
7C2
330
17
100
AcDbEntity
  8
INSERT_POINTS
 62
     2
100
AcDbCircle
 10
40.333324263542
 20
-8.871668073206
 30
0.0
 40
0.075
  0
CIRCLE
  5
7C3
330
17
100
AcDbEntity
  8
INSERT_POINTS
 62
     1
100
AcDbCircle
 10
46.620581735975
 20
-8.871668073206
 30
0.0
 40
0.1
  0
CIRCLE
  5
7C4
330
17
100
AcDbEntity
  8
INSERT_POINTS
 62
     2
100
AcDbCircle
 10
46.620581735975
 20
-8.871668073206
 30
0.0
 40
0.075
  0
CIRCLE
  5
7C5
330
17
100
AcDbEntity
  8
INSERT_POINTS
 62
     1
100
AcDbCircle
 10
52.907839208407
 20
-8.871668073206
 30
0.0
 40
0.1
  0
CIRCLE
  5
7C6
330
17
100
AcDbEntity
  8
INSERT_POINTS
 62
     2
100
AcDbCircle
 10
52.907839208407
 20
-8.871668073206
 30
0.0
 40
0.075
  0
CIRCLE
  5
7C7
330
17
100
AcDbEntity
  8
INSERT_POINTS
 62
     1
100
AcDbCircle
 10
40.333324263542
 20
-7.859924430634
 30
0.0
 40
0.1
  0
CIRCLE
  5
7C8
330
17
100
AcDbEntity
  8
INSERT_POINTS
 62
     2
100
AcDbCircle
 10
40.333324263542
 20
-7.859924430634
 30
0.0
 40
0.075
  0
CIRCLE
  5
7C9
330
17
100
AcDbEntity
  8
INSERT_POINTS
 62
     1
100
AcDbCircle
 10
46.620581735975
 20
-7.859924430634
 30
0.0
 40
0.1
  0
CIRCLE
  5
7CA
330
17
100
AcDbEntity
  8
INSERT_POINTS
 62
     2
100
AcDbCircle
 10
46.620581735975
 20
-7.859924430634
 30
0.0
 40
0.075
  0
CIRCLE
  5
7CB
330
17
100
AcDbEntity
  8
INSERT_POINTS
 62
     1
100
AcDbCircle
 10
52.907839208407
 20
-7.859924430634
 30
0.0
 40
0.1
  0
CIRCLE
  5
7CC
330
17
100
AcDbEntity
  8
INSERT_POINTS
 62
     2
100
AcDbCircle
 10
52.907839208407
 20
-7.859924430634
 30
0.0
 40
0.075
  0
CIRCLE
  5
7CD
330
17
100
AcDbEntity
  8
INSERT_POINTS
 62
     1
100
AcDbCircle
 10
40.333324263542
 20
-6.848180788063
 30
0.0
 40
0.1
  0
CIRCLE
  5
7CE
330
17
100
AcDbEntity
  8
INSERT_POINTS
 62
     2
100
AcDbCircle
 10
40.333324263542
 20
-6.848180788063
 30
0.0
 40
0.075
  0
CIRCLE
  5
7CF
330
17
100
AcDbEntity
  8
INSERT_POINTS
 62
     1
100
AcDbCircle
 10
46.620581735975
 20
-6.848180788063
 30
0.0
 40
0.1
  0
CIRCLE
  5
7D0
330
17
100
AcDbEntity
  8
INSERT_POINTS
 62
     2
100
AcDbCircle
 10
46.620581735975
 20
-6.848180788063
 30
0.0
 40
0.075
  0
CIRCLE
  5
7D1
330
17
100
AcDbEntity
  8
INSERT_POINTS
 62
     1
100
AcDbCircle
 10
52.907839208407
 20
-6.848180788063
 30
0.0
 40
0.1
  0
CIRCLE
  5
7D2
330
17
100
AcDbEntity
  8
INSERT_POINTS
 62
     2
100
AcDbCircle
 10
52.907839208407
 20
-6.848180788063
 30
0.0
 40
0.075
  0
LINE
  5
7D3
330
17
100
AcDbEntity
  8
0
 62
     5
100
AcDbLine
 10
48.339177255182
 20
-13.547021496578
 30
0.0
 11
48.339177255182
 21
-11.523534211435
 31
0.0
  0
LINE
  5
7D4
330
17
100
AcDbEntity
  8
0
 62
     5
100
AcDbLine
 10
46.925208617854
 20
-12.535277854007
 30
0.0
 11
49.753145892511
 21
-12.535277854007
 31
0.0
  0
TEXT
  5
7D5
330
17
100
AcDbEntity
  8
0
 62
     3
100
AcDbText
 10
47.212857255182
 20
-12.464577854007
 30
0.0
 40
0.2
  1
MIDDLE_gjpqy
 41
1.2
 71
     4
 72
     4
 11
48.339177255182
 21
-12.535277854007
 31
0.0
100
AcDbText
  0
CIRCLE
  5
7D6
330
17
100
AcDbEntity
  8
INSERT_POINTS
 62
     1
100
AcDbCircle
 10
48.339177255182
 20
-12.535277854007
 30
0.0
 40
0.1
  0
CIRCLE
  5
7D7
330
17
100
AcDbEntity
  8
INSERT_POINTS
 62
     2
100
AcDbCircle
 10
48.339177255182
 20
-12.535277854007
 30
0.0
 40
0.075
  0
LINE
  5
7D8
330
17
100
AcDbEntity
  8
0
 62
     5
100
AcDbLine
 10
40.333324263542
 20
-10.371668073206
 30
0.0
 11
50.333324263542
 21
-10.371668073206
 31
0.0
  0
TEXT
  5
7D9
330
17
100
AcDbEntity
  8
0
 62
     3
100
AcDbText
 10
40.333324263542
 20
-6.537304173606
 30
0.0
 40
0.2
  1
Width Factor: 1.2
 41
1.2
100
AcDbText
  0
LINE
  5
7DA
330
17
100
AcDbEntity
  8
0
 62
     5
100
AcDbLine
 10
40.333324263542
 20
-16.777433098996
 30
0.0
 11
40.333324263542
 21
-14.753945813853
 31
0.0
  0
LINE
  5
7DB
330
17
100
AcDbEntity
  8
0
 62
     5
100
AcDbLine
 10
46.620581735975
 20
-16.777433098996
 30
0.0
 11
46.620581735975
 21
-14.753945813853
 31
0.0
  0
LINE
  5
7DC
330
17
100
AcDbEntity
  8
0
 62
     5
100
AcDbLine
 10
52.907839208407
 20
-16.777433098996
 30
0.0
 11
52.907839208407
 21
-14.753945813853
 31
0.0
  0
LINE
  5
7DD
330
17
100
AcDbEntity
  8
0
 62
     5
100
AcDbLine
 10
40.333324263542
 20
-17.777433098996
 30
0.0
 11
50.333324263542
 21
-17.777433098996
 31
0.0
  0
TEXT
  5
7DE
330
17
100
AcDbEntity
  8
0
 62
     3
100
AcDbText
 10
40.333324263542
 20
-18.277433098996
 30
0.0
 40
0.2
  1
BASELINE ADJUSTMENTS (gjpqy)
 41
0.5
 71
     4
100
AcDbText
  0
TEXT
  5
7DF
330
17
100
AcDbEntity
  8
0
 62
     3
100
AcDbText
 10
40.333324263542
 20
-17.777433098996
 30
0.0
 40
0.2
  1
LEFT
 41
0.5
 71
     4
100
AcDbText
  0
TEXT
  5
7E0
330
17
100
AcDbEntity
  8
0
 62
     3
100
AcDbText
 10
45.046374263542
 20
-17.777433098996
 30
0.0
 40
0.2
  1
CENTER
 41
0.5
 71
     4
 72
     1
 11
45.333324263542
 21
-17.777433098996
 31
0.0
100
AcDbText
  0
TEXT
  5
7E1
330
17
100
AcDbEntity
  8
0
 62
     3
100
AcDbText
 10
49.899024263542
 20
-17.777433098996
 30
0.0
 40
0.2
  1
RIGHT
 41
0.5
 71
     4
 72
     2
 11
50.333324263542
 21
-17.777433098996
 31
0.0
100
AcDbText
  0
LINE
  5
7E2
330
17
100
AcDbEntity
  8
0
 62
     5
100
AcDbLine
 10
40.333324263542
 20
-16.777433098996
 30
0.0
 11
52.907839208407
 21
-16.777433098996
 31
0.0
  0
TEXT
  5
7E3
330
17
100
AcDbEntity
  8
0
 62
     2
100
AcDbText
 10
40.333324263542
 20
-16.836614917178
 30
0.0
 40
0.2
  1
BOTTOM_LEFT
 41
0.5
 71
     4
 11
40.333324263542
 21
-16.777433098996
 31
0.0
100
AcDbText
 73
     1
  0
TEXT
  5
7E4
330
17
100
AcDbEntity
  8
0
 62
     2
100
AcDbText
 10
45.790631735975
 20
-16.836614917178
 30
0.0
 40
0.2
  1
BOTTOM_CENTER_gjpqy
 41
0.5
 71
     4
 72
     1
 11
46.620581735975
 21
-16.777433098996
 31
0.0
100
AcDbText
 73
     1
  0
TEXT
  5
7E5
330
17
100
AcDbEntity
  8
0
 62
     2
100
AcDbText
 10
51.798739208407
 20
-16.836614917178
 30
0.0
 40
0.2
  1
BOTTOM_RIGHT
 41
0.5
 71
     4
 72
     2
 11
52.907839208407
 21
-16.777433098996
 31
0.0
100
AcDbText
 73
     1
  0
LINE
  5
7E6
330
17
100
AcDbEntity
  8
0
 62
     5
100
AcDbLine
 10
40.333324263542
 20
-15.765689456425
 30
0.0
 11
52.907839208407
 21
-15.765689456425
 31
0.0
  0
TEXT
  5
7E7
330
17
100
AcDbEntity
  8
0
 62
     2
100
AcDbText
 10
40.333324263542
 20
-15.665689456425
 30
0.0
 40
0.2
  1
MIDDLE_LEFT
 41
0.5
 71
     4
 11
40.333324263542
 21
-15.765689456425
 31
0.0
100
AcDbText
 73
     2
  0
TEXT
  5
7E8
330
17
100
AcDbEntity
  8
0
 62
     2
100
AcDbText
 10
45.825531735975
 20
-15.665689456425
 30
0.0
 40
0.2
  1
MIDDLE_CENTER_gjpqy
 41
0.5
 71
     4
 72
     1
 11
46.620581735975
 21
-15.765689456425
 31
0.0
100
AcDbText
 73
     2
  0
TEXT
  5
7E9
330
17
100
AcDbEntity
  8
0
 62
     2
100
AcDbText
 10
51.868539208407
 20
-15.665689456425
 30
0.0
 40
0.2
  1
MIDDLE_RIGHT
 41
0.5
 71
     4
 72
     2
 11
52.907839208407
 21
-15.765689456425
 31
0.0
100
AcDbText
 73
     2
  0
LINE
  5
7EA
330
17
100
AcDbEntity
  8
0
 62
     5
100
AcDbLine
 10
40.333324263542
 20
-14.753945813853
 30
0.0
 11
52.907839208407
 21
-14.753945813853
 31
0.0
  0
TEXT
  5
7EB
330
17
100
AcDbEntity
  8
0
 62
     2
100
AcDbText
 10
40.333324263542
 20
-14.553945813853
 30
0.0
 40
0.2
  1
TOP_LEFT
 41
0.5
 71
     4
 11
40.333324263542
 21
-14.753945813853
 31
0.0
100
AcDbText
 73
     3
  0
TEXT
  5
7EC
330
17
100
AcDbEntity
  8
0
 62
     2
100
AcDbText
 10
45.945731735975
 20
-14.553945813853
 30
0.0
 40
0.2
  1
TOP_CENTER_gjpqy
 41
0.5
 71
     4
 72
     1
 11
46.620581735975
 21
-14.753945813853
 31
0.0
100
AcDbText
 73
     3
  0
TEXT
  5
7ED
330
17
100
AcDbEntity
  8
0
 62
     2
100
AcDbText
 10
52.108939208407
 20
-14.553945813853
 30
0.0
 40
0.2
  1
TOP_RIGHT
 41
0.5
 71
     4
 72
     2
 11
52.907839208407
 21
-14.753945813853
 31
0.0
100
AcDbText
 73
     3
  0
CIRCLE
  5
7EE
330
17
100
AcDbEntity
  8
INSERT_POINTS
 62
     1
100
AcDbCircle
 10
40.333324263542
 20
-18.277433098996
 30
0.0
 40
0.1
  0
CIRCLE
  5
7EF
330
17
100
AcDbEntity
  8
INSERT_POINTS
 62
     2
100
AcDbCircle
 10
40.333324263542
 20
-18.277433098996
 30
0.0
 40
0.075
  0
CIRCLE
  5
7F0
330
17
100
AcDbEntity
  8
INSERT_POINTS
 62
     1
100
AcDbCircle
 10
40.333324263542
 20
-17.777433098996
 30
0.0
 40
0.1
  0
CIRCLE
  5
7F1
330
17
100
AcDbEntity
  8
INSERT_POINTS
 62
     2
100
AcDbCircle
 10
40.333324263542
 20
-17.777433098996
 30
0.0
 40
0.075
  0
CIRCLE
  5
7F2
330
17
100
AcDbEntity
  8
INSERT_POINTS
 62
     1
100
AcDbCircle
 10
45.333324263542
 20
-17.777433098996
 30
0.0
 40
0.1
  0
CIRCLE
  5
7F3
330
17
100
AcDbEntity
  8
INSERT_POINTS
 62
     2
100
AcDbCircle
 10
45.333324263542
 20
-17.777433098996
 30
0.0
 40
0.075
  0
CIRCLE
  5
7F4
330
17
100
AcDbEntity
  8
INSERT_POINTS
 62
     1
100
AcDbCircle
 10
50.333324263542
 20
-17.777433098996
 30
0.0
 40
0.1
  0
CIRCLE
  5
7F5
330
17
100
AcDbEntity
  8
INSERT_POINTS
 62
     2
100
AcDbCircle
 10
50.333324263542
 20
-17.777433098996
 30
0.0
 40
0.075
  0
CIRCLE
  5
7F6
330
17
100
AcDbEntity
  8
INSERT_POINTS
 62
     1
100
AcDbCircle
 10
40.333324263542
 20
-16.777433098996
 30
0.0
 40
0.1
  0
CIRCLE
  5
7F7
330
17
100
AcDbEntity
  8
INSERT_POINTS
 62
     2
100
AcDbCircle
 10
40.333324263542
 20
-16.777433098996
 30
0.0
 40
0.075
  0
CIRCLE
  5
7F8
330
17
100
AcDbEntity
  8
INSERT_POINTS
 62
     1
100
AcDbCircle
 10
46.620581735975
 20
-16.777433098996
 30
0.0
 40
0.1
  0
CIRCLE
  5
7F9
330
17
100
AcDbEntity
  8
INSERT_POINTS
 62
     2
100
AcDbCircle
 10
46.620581735975
 20
-16.777433098996
 30
0.0
 40
0.075
  0
CIRCLE
  5
7FA
330
17
100
AcDbEntity
  8
INSERT_POINTS
 62
     1
100
AcDbCircle
 10
52.907839208407
 20
-16.777433098996
 30
0.0
 40
0.1
  0
CIRCLE
  5
7FB
330
17
100
AcDbEntity
  8
INSERT_POINTS
 62
     2
100
AcDbCircle
 10
52.907839208407
 20
-16.777433098996
 30
0.0
 40
0.075
  0
CIRCLE
  5
7FC
330
17
100
AcDbEntity
  8
INSERT_POINTS
 62
     1
100
AcDbCircle
 10
40.333324263542
 20
-15.765689456425
 30
0.0
 40
0.1
  0
CIRCLE
  5
7FD
330
17
100
AcDbEntity
  8
INSERT_POINTS
 62
     2
100
AcDbCircle
 10
40.333324263542
 20
-15.765689456425
 30
0.0
 40
0.075
  0
CIRCLE
  5
7FE
330
17
100
AcDbEntity
  8
INSERT_POINTS
 62
     1
100
AcDbCircle
 10
46.620581735975
 20
-15.765689456425
 30
0.0
 40
0.1
  0
CIRCLE
  5
7FF
330
17
100
AcDbEntity
  8
INSERT_POINTS
 62
     2
100
AcDbCircle
 10
46.620581735975
 20
-15.765689456425
 30
0.0
 40
0.075
  0
CIRCLE
  5
800
330
17
100
AcDbEntity
  8
INSERT_POINTS
 62
     1
100
AcDbCircle
 10
52.907839208407
 20
-15.765689456425
 30
0.0
 40
0.1
  0
CIRCLE
  5
801
330
17
100
AcDbEntity
  8
INSERT_POINTS
 62
     2
100
AcDbCircle
 10
52.907839208407
 20
-15.765689456425
 30
0.0
 40
0.075
  0
CIRCLE
  5
802
330
17
100
AcDbEntity
  8
INSERT_POINTS
 62
     1
100
AcDbCircle
 10
40.333324263542
 20
-14.753945813853
 30
0.0
 40
0.1
  0
CIRCLE
  5
803
330
17
100
AcDbEntity
  8
INSERT_POINTS
 62
     2
100
AcDbCircle
 10
40.333324263542
 20
-14.753945813853
 30
0.0
 40
0.075
  0
CIRCLE
  5
804
330
17
100
AcDbEntity
  8
INSERT_POINTS
 62
     1
100
AcDbCircle
 10
46.620581735975
 20
-14.753945813853
 30
0.0
 40
0.1
  0
CIRCLE
  5
805
330
17
100
AcDbEntity
  8
INSERT_POINTS
 62
     2
100
AcDbCircle
 10
46.620581735975
 20
-14.753945813853
 30
0.0
 40
0.075
  0
CIRCLE
  5
806
330
17
100
AcDbEntity
  8
INSERT_POINTS
 62
     1
100
AcDbCircle
 10
52.907839208407
 20
-14.753945813853
 30
0.0
 40
0.1
  0
CIRCLE
  5
807
330
17
100
AcDbEntity
  8
INSERT_POINTS
 62
     2
100
AcDbCircle
 10
52.907839208407
 20
-14.753945813853
 30
0.0
 40
0.075
  0
LINE
  5
808
330
17
100
AcDbEntity
  8
0
 62
     5
100
AcDbLine
 10
48.339177255182
 20
-21.452786522369
 30
0.0
 11
48.339177255182
 21
-19.429299237226
 31
0.0
  0
LINE
  5
809
330
17
100
AcDbEntity
  8
0
 62
     5
100
AcDbLine
 10
46.925208617854
 20
-20.441042879797
 30
0.0
 11
49.753145892511
 21
-20.441042879797
 31
0.0
  0
TEXT
  5
80A
330
17
100
AcDbEntity
  8
0
 62
     3
100
AcDbText
 10
47.869877255182
 20
-20.370342879797
 30
0.0
 40
0.2
  1
MIDDLE_gjpqy
 41
0.5
 71
     4
 72
     4
 11
48.339177255182
 21
-20.441042879797
 31
0.0
100
AcDbText
  0
CIRCLE
  5
80B
330
17
100
AcDbEntity
  8
INSERT_POINTS
 62
     1
100
AcDbCircle
 10
48.339177255182
 20
-20.441042879797
 30
0.0
 40
0.1
  0
CIRCLE
  5
80C
330
17
100
AcDbEntity
  8
INSERT_POINTS
 62
     2
100
AcDbCircle
 10
48.339177255182
 20
-20.441042879797
 30
0.0
 40
0.075
  0
LINE
  5
80D
330
17
100
AcDbEntity
  8
0
 62
     5
100
AcDbLine
 10
40.333324263542
 20
-18.277433098996
 30
0.0
 11
50.333324263542
 21
-18.277433098996
 31
0.0
  0
TEXT
  5
80E
330
17
100
AcDbEntity
  8
0
 62
     3
100
AcDbText
 10
40.333324263542
 20
-14.443069199396
 30
0.0
 40
0.2
  1
Width Factor: 0.5
 41
0.5
100
AcDbText
  0
TEXT
  5
812
330
17
100
AcDbEntity
  8
0
 62
     3
100
AcDbText
 10
62.499433510761
 20
-5.231006269827
 30
0.0
 40
0.112431981501
  1
ALIGNED-TEXT-ALIGNED-TEXT-gjpqy-ALIGNED-TEXT-ALIGNED-TEXT
 50
194.036243467926
 71
     6
 72
     3
 11
67.499433510761
 21
-3.981006269827
 31
0.0
100
AcDbText
  0
LINE
  5
813
330
17
100
AcDbEntity
  8
0
 62
     5
100
AcDbLine
 10
62.499433510761
 20
-5.231006269827
 30
0.0
 11
67.499433510761
 21
-3.981006269827
 31
0.0
  0
TEXT
  5
814
330
17
100
AcDbEntity
  8
0
 62
     3
100
AcDbText
 10
62.499433510761
 20
-2.731006269827
 30
0.0
 40
0.625
  1
FITTED-TEXT-FITTED-TEXT-gjpqy-FITTED-TEXT-FITTED-TEXT
 50
165.963756532073
 41
0.201756979136
 71
     6
 72
     5
 11
67.499433510761
 21
-3.981006269827
 31
0.0
100
AcDbText
  0
LINE
  5
815
330
17
100
AcDbEntity
  8
0
 62
     5
100
AcDbLine
 10
62.499433510761
 20
-2.731006269827
 30
0.0
 11
67.499433510761
 21
-3.981006269827
 31
0.0
  0
LINE
  5
816
330
17
100
AcDbEntity
  8
0
 62
     5
100
AcDbLine
 10
62.380583822702
 20
0.0
 30
0.0
 11
62.380583822702
 21
2.023487285143
 31
0.0
  0
LINE
  5
817
330
17
100
AcDbEntity
  8
0
 62
     5
100
AcDbLine
 10
67.380583822702
 20
0.0
 30
0.0
 11
67.380583822702
 21
2.023487285143
 31
0.0
  0
LINE
  5
818
330
17
100
AcDbEntity
  8
0
 62
     5
100
AcDbLine
 10
72.380583822702
 20
0.0
 30
0.0
 11
72.380583822702
 21
2.023487285143
 31
0.0
  0
LINE
  5
819
330
17
100
AcDbEntity
  8
0
 62
     5
100
AcDbLine
 10
62.380583822702
 20
-1.0
 30
0.0
 11
72.380583822702
 21
-1.0
 31
0.0
  0
TEXT
  5
81A
330
17
100
AcDbEntity
  8
0
 62
     3
100
AcDbText
 10
62.380583822702
 20
-1.5
 30
0.0
 40
0.2
  1
BASELINE ADJUSTMENTS (gjpqy)
 71
     6
100
AcDbText
  0
TEXT
  5
81B
330
17
100
AcDbEntity
  8
0
 62
     3
100
AcDbText
 10
62.380583822702
 20
-1.0
 30
0.0
 40
0.2
  1
LEFT
 71
     6
100
AcDbText
  0
TEXT
  5
81C
330
17
100
AcDbEntity
  8
0
 62
     3
100
AcDbText
 10
67.954483822702
 20
-1.0
 30
0.0
 40
0.2
  1
CENTER
 71
     6
 72
     1
 11
67.380583822702
 21
-1.0
 31
0.0
100
AcDbText
  0
TEXT
  5
81D
330
17
100
AcDbEntity
  8
0
 62
     3
100
AcDbText
 10
73.249183822702
 20
-1.0
 30
0.0
 40
0.2
  1
RIGHT
 71
     6
 72
     2
 11
72.380583822702
 21
-1.0
 31
0.0
100
AcDbText
  0
LINE
  5
81E
330
17
100
AcDbEntity
  8
0
 62
     5
100
AcDbLine
 10
62.380583822702
 20
0.0
 30
0.0
 11
72.380583822702
 21
0.0
 31
0.0
  0
TEXT
  5
81F
330
17
100
AcDbEntity
  8
0
 62
     2
100
AcDbText
 10
62.380583822702
 20
-0.059181818182
 30
0.0
 40
0.2
  1
BOTTOM_LEFT
 71
     6
 11
62.380583822702
 21
0.0
 31
0.0
100
AcDbText
 73
     1
  0
TEXT
  5
820
330
17
100
AcDbEntity
  8
0
 62
     2
100
AcDbText
 10
69.040483822702
 20
-0.059181818182
 30
0.0
 40
0.2
  1
BOTTOM_CENTER_gjpqy
 71
     6
 72
     1
 11
67.380583822702
 21
0.0
 31
0.0
100
AcDbText
 73
     1
  0
TEXT
  5
821
330
17
100
AcDbEntity
  8
0
 62
     2
100
AcDbText
 10
74.598783822702
 20
-0.059181818182
 30
0.0
 40
0.2
  1
BOTTOM_RIGHT
 71
     6
 72
     2
 11
72.380583822702
 21
0.0
 31
0.0
100
AcDbText
 73
     1
  0
LINE
  5
822
330
17
100
AcDbEntity
  8
0
 62
     5
100
AcDbLine
 10
62.380583822702
 20
1.011743642571
 30
0.0
 11
72.380583822702
 21
1.011743642571
 31
0.0
  0
TEXT
  5
823
330
17
100
AcDbEntity
  8
0
 62
     2
100
AcDbText
 10
62.380583822702
 20
1.111743642571
 30
0.0
 40
0.2
  1
MIDDLE_LEFT
 71
     6
 11
62.380583822702
 21
1.011743642571
 31
0.0
100
AcDbText
 73
     2
  0
TEXT
  5
824
330
17
100
AcDbEntity
  8
0
 62
     2
100
AcDbText
 10
68.970683822702
 20
1.111743642571
 30
0.0
 40
0.2
  1
MIDDLE_CENTER_gjpqy
 71
     6
 72
     1
 11
67.380583822702
 21
1.011743642571
 31
0.0
100
AcDbText
 73
     2
  0
TEXT
  5
825
330
17
100
AcDbEntity
  8
0
 62
     2
100
AcDbText
 10
74.459183822702
 20
1.111743642571
 30
0.0
 40
0.2
  1
MIDDLE_RIGHT
 71
     6
 72
     2
 11
72.380583822702
 21
1.011743642571
 31
0.0
100
AcDbText
 73
     2
  0
LINE
  5
826
330
17
100
AcDbEntity
  8
0
 62
     5
100
AcDbLine
 10
62.380583822702
 20
2.023487285143
 30
0.0
 11
72.380583822702
 21
2.023487285143
 31
0.0
  0
TEXT
  5
827
330
17
100
AcDbEntity
  8
0
 62
     2
100
AcDbText
 10
62.380583822702
 20
2.223487285143
 30
0.0
 40
0.2
  1
TOP_LEFT
 71
     6
 11
62.380583822702
 21
2.023487285143
 31
0.0
100
AcDbText
 73
     3
  0
TEXT
  5
828
330
17
100
AcDbEntity
  8
0
 62
     2
100
AcDbText
 10
68.730283822702
 20
2.223487285143
 30
0.0
 40
0.2
  1
TOP_CENTER_gjpqy
 71
     6
 72
     1
 11
67.380583822702
 21
2.023487285143
 31
0.0
100
AcDbText
 73
     3
  0
TEXT
  5
829
330
17
100
AcDbEntity
  8
0
 62
     2
100
AcDbText
 10
73.978383822702
 20
2.223487285143
 30
0.0
 40
0.2
  1
TOP_RIGHT
 71
     6
 72
     2
 11
72.380583822702
 21
2.023487285143
 31
0.0
100
AcDbText
 73
     3
  0
CIRCLE
  5
82A
330
17
100
AcDbEntity
  8
INSERT_POINTS
 62
     1
100
AcDbCircle
 10
62.499433510761
 20
-5.231006269827
 30
0.0
 40
0.025
  0
CIRCLE
  5
82B
330
17
100
AcDbEntity
  8
INSERT_POINTS
 62
     2
100
AcDbCircle
 10
67.499433510761
 20
-3.981006269827
 30
0.0
 40
0.01875
  0
CIRCLE
  5
82C
330
17
100
AcDbEntity
  8
INSERT_POINTS
 62
     1
100
AcDbCircle
 10
62.499433510761
 20
-2.731006269827
 30
0.0
 40
0.025
  0
CIRCLE
  5
82D
330
17
100
AcDbEntity
  8
INSERT_POINTS
 62
     2
100
AcDbCircle
 10
67.499433510761
 20
-3.981006269827
 30
0.0
 40
0.01875
  0
CIRCLE
  5
82E
330
17
100
AcDbEntity
  8
INSERT_POINTS
 62
     1
100
AcDbCircle
 10
62.380583822702
 20
-1.5
 30
0.0
 40
0.1
  0
CIRCLE
  5
82F
330
17
100
AcDbEntity
  8
INSERT_POINTS
 62
     2
100
AcDbCircle
 10
62.380583822702
 20
-1.5
 30
0.0
 40
0.075
  0
CIRCLE
  5
830
330
17
100
AcDbEntity
  8
INSERT_POINTS
 62
     1
100
AcDbCircle
 10
62.380583822702
 20
-1.0
 30
0.0
 40
0.1
  0
CIRCLE
  5
831
330
17
100
AcDbEntity
  8
INSERT_POINTS
 62
     2
100
AcDbCircle
 10
62.380583822702
 20
-1.0
 30
0.0
 40
0.075
  0
CIRCLE
  5
832
330
17
100
AcDbEntity
  8
INSERT_POINTS
 62
     1
100
AcDbCircle
 10
67.380583822702
 20
-1.0
 30
0.0
 40
0.1
  0
CIRCLE
  5
833
330
17
100
AcDbEntity
  8
INSERT_POINTS
 62
     2
100
AcDbCircle
 10
67.380583822702
 20
-1.0
 30
0.0
 40
0.075
  0
CIRCLE
  5
834
330
17
100
AcDbEntity
  8
INSERT_POINTS
 62
     1
100
AcDbCircle
 10
72.380583822702
 20
-1.0
 30
0.0
 40
0.1
  0
CIRCLE
  5
835
330
17
100
AcDbEntity
  8
INSERT_POINTS
 62
     2
100
AcDbCircle
 10
72.380583822702
 20
-1.0
 30
0.0
 40
0.075
  0
CIRCLE
  5
836
330
17
100
AcDbEntity
  8
INSERT_POINTS
 62
     1
100
AcDbCircle
 10
62.380583822702
 20
0.0
 30
0.0
 40
0.1
  0
CIRCLE
  5
837
330
17
100
AcDbEntity
  8
INSERT_POINTS
 62
     2
100
AcDbCircle
 10
62.380583822702
 20
0.0
 30
0.0
 40
0.075
  0
CIRCLE
  5
838
330
17
100
AcDbEntity
  8
INSERT_POINTS
 62
     1
100
AcDbCircle
 10
67.380583822702
 20
0.0
 30
0.0
 40
0.1
  0
CIRCLE
  5
839
330
17
100
AcDbEntity
  8
INSERT_POINTS
 62
     2
100
AcDbCircle
 10
67.380583822702
 20
0.0
 30
0.0
 40
0.075
  0
CIRCLE
  5
83A
330
17
100
AcDbEntity
  8
INSERT_POINTS
 62
     1
100
AcDbCircle
 10
72.380583822702
 20
0.0
 30
0.0
 40
0.1
  0
CIRCLE
  5
83B
330
17
100
AcDbEntity
  8
INSERT_POINTS
 62
     2
100
AcDbCircle
 10
72.380583822702
 20
0.0
 30
0.0
 40
0.075
  0
CIRCLE
  5
83C
330
17
100
AcDbEntity
  8
INSERT_POINTS
 62
     1
100
AcDbCircle
 10
62.380583822702
 20
1.011743642571
 30
0.0
 40
0.1
  0
CIRCLE
  5
83D
330
17
100
AcDbEntity
  8
INSERT_POINTS
 62
     2
100
AcDbCircle
 10
62.380583822702
 20
1.011743642571
 30
0.0
 40
0.075
  0
CIRCLE
  5
83E
330
17
100
AcDbEntity
  8
INSERT_POINTS
 62
     1
100
AcDbCircle
 10
67.380583822702
 20
1.011743642571
 30
0.0
 40
0.1
  0
CIRCLE
  5
83F
330
17
100
AcDbEntity
  8
INSERT_POINTS
 62
     2
100
AcDbCircle
 10
67.380583822702
 20
1.011743642571
 30
0.0
 40
0.075
  0
CIRCLE
  5
840
330
17
100
AcDbEntity
  8
INSERT_POINTS
 62
     1
100
AcDbCircle
 10
72.380583822702
 20
1.011743642571
 30
0.0
 40
0.1
  0
CIRCLE
  5
841
330
17
100
AcDbEntity
  8
INSERT_POINTS
 62
     2
100
AcDbCircle
 10
72.380583822702
 20
1.011743642571
 30
0.0
 40
0.075
  0
CIRCLE
  5
842
330
17
100
AcDbEntity
  8
INSERT_POINTS
 62
     1
100
AcDbCircle
 10
62.380583822702
 20
2.023487285143
 30
0.0
 40
0.1
  0
CIRCLE
  5
843
330
17
100
AcDbEntity
  8
INSERT_POINTS
 62
     2
100
AcDbCircle
 10
62.380583822702
 20
2.023487285143
 30
0.0
 40
0.075
  0
CIRCLE
  5
844
330
17
100
AcDbEntity
  8
INSERT_POINTS
 62
     1
100
AcDbCircle
 10
67.380583822702
 20
2.023487285143
 30
0.0
 40
0.1
  0
CIRCLE
  5
845
330
17
100
AcDbEntity
  8
INSERT_POINTS
 62
     2
100
AcDbCircle
 10
67.380583822702
 20
2.023487285143
 30
0.0
 40
0.075
  0
CIRCLE
  5
846
330
17
100
AcDbEntity
  8
INSERT_POINTS
 62
     1
100
AcDbCircle
 10
72.380583822702
 20
2.023487285143
 30
0.0
 40
0.1
  0
CIRCLE
  5
847
330
17
100
AcDbEntity
  8
INSERT_POINTS
 62
     2
100
AcDbCircle
 10
72.380583822702
 20
2.023487285143
 30
0.0
 40
0.075
  0
LINE
  5
848
330
17
100
AcDbEntity
  8
0
 62
     5
100
AcDbLine
 10
70.386436814342
 20
-4.675353423372
 30
0.0
 11
70.386436814342
 21
-2.65186613823
 31
0.0
  0
LINE
  5
849
330
17
100
AcDbEntity
  8
0
 62
     5
100
AcDbLine
 10
68.972468177014
 20
-3.663609780801
 30
0.0
 11
71.800405451671
 21
-3.663609780801
 31
0.0
  0
TEXT
  5
84A
330
17
100
AcDbEntity
  8
0
 62
     3
100
AcDbText
 10
71.325036814342
 20
-3.592909780801
 30
0.0
 40
0.2
  1
MIDDLE_gjpqy
 71
     6
 72
     4
 11
70.386436814342
 21
-3.663609780801
 31
0.0
100
AcDbText
  0
CIRCLE
  5
84B
330
17
100
AcDbEntity
  8
INSERT_POINTS
 62
     1
100
AcDbCircle
 10
70.386436814342
 20
-3.663609780801
 30
0.0
 40
0.1
  0
CIRCLE
  5
84C
330
17
100
AcDbEntity
  8
INSERT_POINTS
 62
     2
100
AcDbCircle
 10
70.386436814342
 20
-3.663609780801
 30
0.0
 40
0.075
  0
LINE
  5
84D
330
17
100
AcDbEntity
  8
0
 62
     5
100
AcDbLine
 10
62.380583822702
 20
-1.5
 30
0.0
 11
72.380583822702
 21
-1.5
 31
0.0
  0
TEXT
  5
84E
330
17
100
AcDbEntity
  8
0
 62
     3
100
AcDbText
 10
62.380583822702
 20
3.487605056663
 30
0.0
 40
0.5
  1
MIRROR-XY
100
AcDbText
  0
TEXT
  5
84F
330
17
100
AcDbEntity
  8
0
 62
     3
100
AcDbText
 10
62.380583822702
 20
2.3343638996
 30
0.0
 40
0.2
  1
Width Factor: 1.0
100
AcDbText
  0
LINE
  5
850
330
17
100
AcDbEntity
  8
0
 62
     5
100
AcDbLine
 10
62.380583822702
 20
-8.871668073206
 30
0.0
 11
62.380583822702
 21
-6.848180788063
 31
0.0
  0
LINE
  5
851
330
17
100
AcDbEntity
  8
0
 62
     5
100
AcDbLine
 10
68.667841295135
 20
-8.871668073206
 30
0.0
 11
68.667841295135
 21
-6.848180788063
 31
0.0
  0
LINE
  5
852
330
17
100
AcDbEntity
  8
0
 62
     5
100
AcDbLine
 10
74.955098767567
 20
-8.871668073206
 30
0.0
 11
74.955098767567
 21
-6.848180788063
 31
0.0
  0
LINE
  5
853
330
17
100
AcDbEntity
  8
0
 62
     5
100
AcDbLine
 10
62.380583822702
 20
-9.871668073206
 30
0.0
 11
72.380583822702
 21
-9.871668073206
 31
0.0
  0
TEXT
  5
854
330
17
100
AcDbEntity
  8
0
 62
     3
100
AcDbText
 10
62.380583822702
 20
-10.371668073206
 30
0.0
 40
0.2
  1
BASELINE ADJUSTMENTS (gjpqy)
 41
1.2
 71
     6
100
AcDbText
  0
TEXT
  5
855
330
17
100
AcDbEntity
  8
0
 62
     3
100
AcDbText
 10
62.380583822702
 20
-9.871668073206
 30
0.0
 40
0.2
  1
LEFT
 41
1.2
 71
     6
100
AcDbText
  0
TEXT
  5
856
330
17
100
AcDbEntity
  8
0
 62
     3
100
AcDbText
 10
68.069263822702
 20
-9.871668073206
 30
0.0
 40
0.2
  1
CENTER
 41
1.2
 71
     6
 72
     1
 11
67.380583822702
 21
-9.871668073206
 31
0.0
100
AcDbText
  0
TEXT
  5
857
330
17
100
AcDbEntity
  8
0
 62
     3
100
AcDbText
 10
73.422903822702
 20
-9.871668073206
 30
0.0
 40
0.2
  1
RIGHT
 41
1.2
 71
     6
 72
     2
 11
72.380583822702
 21
-9.871668073206
 31
0.0
100
AcDbText
  0
LINE
  5
858
330
17
100
AcDbEntity
  8
0
 62
     5
100
AcDbLine
 10
62.380583822702
 20
-8.871668073206
 30
0.0
 11
74.955098767567
 21
-8.871668073206
 31
0.0
  0
TEXT
  5
859
330
17
100
AcDbEntity
  8
0
 62
     2
100
AcDbText
 10
62.380583822702
 20
-8.930849891388
 30
0.0
 40
0.2
  1
BOTTOM_LEFT
 41
1.2
 71
     6
 11
62.380583822702
 21
-8.871668073206
 31
0.0
100
AcDbText
 73
     1
  0
TEXT
  5
85A
330
17
100
AcDbEntity
  8
0
 62
     2
100
AcDbText
 10
70.659721295135
 20
-8.930849891388
 30
0.0
 40
0.2
  1
BOTTOM_CENTER_gjpqy
 41
1.2
 71
     6
 72
     1
 11
68.667841295135
 21
-8.871668073206
 31
0.0
100
AcDbText
 73
     1
  0
TEXT
  5
85B
330
17
100
AcDbEntity
  8
0
 62
     2
100
AcDbText
 10
77.616938767567
 20
-8.930849891388
 30
0.0
 40
0.2
  1
BOTTOM_RIGHT
 41
1.2
 71
     6
 72
     2
 11
74.955098767567
 21
-8.871668073206
 31
0.0
100
AcDbText
 73
     1
  0
LINE
  5
85C
330
17
100
AcDbEntity
  8
0
 62
     5
100
AcDbLine
 10
62.380583822702
 20
-7.859924430634
 30
0.0
 11
74.955098767567
 21
-7.859924430634
 31
0.0
  0
TEXT
  5
85D
330
17
100
AcDbEntity
  8
0
 62
     2
100
AcDbText
 10
62.380583822702
 20
-7.759924430634
 30
0.0
 40
0.2
  1
MIDDLE_LEFT
 41
1.2
 71
     6
 11
62.380583822702
 21
-7.859924430634
 31
0.0
100
AcDbText
 73
     2
  0
TEXT
  5
85E
330
17
100
AcDbEntity
  8
0
 62
     2
100
AcDbText
 10
70.575961295135
 20
-7.759924430634
 30
0.0
 40
0.2
  1
MIDDLE_CENTER_gjpqy
 41
1.2
 71
     6
 72
     1
 11
68.667841295135
 21
-7.859924430634
 31
0.0
100
AcDbText
 73
     2
  0
TEXT
  5
85F
330
17
100
AcDbEntity
  8
0
 62
     2
100
AcDbText
 10
77.449418767567
 20
-7.759924430634
 30
0.0
 40
0.2
  1
MIDDLE_RIGHT
 41
1.2
 71
     6
 72
     2
 11
74.955098767567
 21
-7.859924430634
 31
0.0
100
AcDbText
 73
     2
  0
LINE
  5
860
330
17
100
AcDbEntity
  8
0
 62
     5
100
AcDbLine
 10
62.380583822702
 20
-6.848180788063
 30
0.0
 11
74.955098767567
 21
-6.848180788063
 31
0.0
  0
TEXT
  5
861
330
17
100
AcDbEntity
  8
0
 62
     2
100
AcDbText
 10
62.380583822702
 20
-6.648180788063
 30
0.0
 40
0.2
  1
TOP_LEFT
 41
1.2
 71
     6
 11
62.380583822702
 21
-6.848180788063
 31
0.0
100
AcDbText
 73
     3
  0
TEXT
  5
862
330
17
100
AcDbEntity
  8
0
 62
     2
100
AcDbText
 10
70.287481295135
 20
-6.648180788063
 30
0.0
 40
0.2
  1
TOP_CENTER_gjpqy
 41
1.2
 71
     6
 72
     1
 11
68.667841295135
 21
-6.848180788063
 31
0.0
100
AcDbText
 73
     3
  0
TEXT
  5
863
330
17
100
AcDbEntity
  8
0
 62
     2
100
AcDbText
 10
76.872458767567
 20
-6.648180788063
 30
0.0
 40
0.2
  1
TOP_RIGHT
 41
1.2
 71
     6
 72
     2
 11
74.955098767567
 21
-6.848180788063
 31
0.0
100
AcDbText
 73
     3
  0
CIRCLE
  5
864
330
17
100
AcDbEntity
  8
INSERT_POINTS
 62
     1
100
AcDbCircle
 10
62.380583822702
 20
-10.371668073206
 30
0.0
 40
0.1
  0
CIRCLE
  5
865
330
17
100
AcDbEntity
  8
INSERT_POINTS
 62
     2
100
AcDbCircle
 10
62.380583822702
 20
-10.371668073206
 30
0.0
 40
0.075
  0
CIRCLE
  5
866
330
17
100
AcDbEntity
  8
INSERT_POINTS
 62
     1
100
AcDbCircle
 10
62.380583822702
 20
-9.871668073206
 30
0.0
 40
0.1
  0
CIRCLE
  5
867
330
17
100
AcDbEntity
  8
INSERT_POINTS
 62
     2
100
AcDbCircle
 10
62.380583822702
 20
-9.871668073206
 30
0.0
 40
0.075
  0
CIRCLE
  5
868
330
17
100
AcDbEntity
  8
INSERT_POINTS
 62
     1
100
AcDbCircle
 10
67.380583822702
 20
-9.871668073206
 30
0.0
 40
0.1
  0
CIRCLE
  5
869
330
17
100
AcDbEntity
  8
INSERT_POINTS
 62
     2
100
AcDbCircle
 10
67.380583822702
 20
-9.871668073206
 30
0.0
 40
0.075
  0
CIRCLE
  5
86A
330
17
100
AcDbEntity
  8
INSERT_POINTS
 62
     1
100
AcDbCircle
 10
72.380583822702
 20
-9.871668073206
 30
0.0
 40
0.1
  0
CIRCLE
  5
86B
330
17
100
AcDbEntity
  8
INSERT_POINTS
 62
     2
100
AcDbCircle
 10
72.380583822702
 20
-9.871668073206
 30
0.0
 40
0.075
  0
CIRCLE
  5
86C
330
17
100
AcDbEntity
  8
INSERT_POINTS
 62
     1
100
AcDbCircle
 10
62.380583822702
 20
-8.871668073206
 30
0.0
 40
0.1
  0
CIRCLE
  5
86D
330
17
100
AcDbEntity
  8
INSERT_POINTS
 62
     2
100
AcDbCircle
 10
62.380583822702
 20
-8.871668073206
 30
0.0
 40
0.075
  0
CIRCLE
  5
86E
330
17
100
AcDbEntity
  8
INSERT_POINTS
 62
     1
100
AcDbCircle
 10
68.667841295135
 20
-8.871668073206
 30
0.0
 40
0.1
  0
CIRCLE
  5
86F
330
17
100
AcDbEntity
  8
INSERT_POINTS
 62
     2
100
AcDbCircle
 10
68.667841295135
 20
-8.871668073206
 30
0.0
 40
0.075
  0
CIRCLE
  5
870
330
17
100
AcDbEntity
  8
INSERT_POINTS
 62
     1
100
AcDbCircle
 10
74.955098767567
 20
-8.871668073206
 30
0.0
 40
0.1
  0
CIRCLE
  5
871
330
17
100
AcDbEntity
  8
INSERT_POINTS
 62
     2
100
AcDbCircle
 10
74.955098767567
 20
-8.871668073206
 30
0.0
 40
0.075
  0
CIRCLE
  5
872
330
17
100
AcDbEntity
  8
INSERT_POINTS
 62
     1
100
AcDbCircle
 10
62.380583822702
 20
-7.859924430634
 30
0.0
 40
0.1
  0
CIRCLE
  5
873
330
17
100
AcDbEntity
  8
INSERT_POINTS
 62
     2
100
AcDbCircle
 10
62.380583822702
 20
-7.859924430634
 30
0.0
 40
0.075
  0
CIRCLE
  5
874
330
17
100
AcDbEntity
  8
INSERT_POINTS
 62
     1
100
AcDbCircle
 10
68.667841295135
 20
-7.859924430634
 30
0.0
 40
0.1
  0
CIRCLE
  5
875
330
17
100
AcDbEntity
  8
INSERT_POINTS
 62
     2
100
AcDbCircle
 10
68.667841295135
 20
-7.859924430634
 30
0.0
 40
0.075
  0
CIRCLE
  5
876
330
17
100
AcDbEntity
  8
INSERT_POINTS
 62
     1
100
AcDbCircle
 10
74.955098767567
 20
-7.859924430634
 30
0.0
 40
0.1
  0
CIRCLE
  5
877
330
17
100
AcDbEntity
  8
INSERT_POINTS
 62
     2
100
AcDbCircle
 10
74.955098767567
 20
-7.859924430634
 30
0.0
 40
0.075
  0
CIRCLE
  5
878
330
17
100
AcDbEntity
  8
INSERT_POINTS
 62
     1
100
AcDbCircle
 10
62.380583822702
 20
-6.848180788063
 30
0.0
 40
0.1
  0
CIRCLE
  5
879
330
17
100
AcDbEntity
  8
INSERT_POINTS
 62
     2
100
AcDbCircle
 10
62.380583822702
 20
-6.848180788063
 30
0.0
 40
0.075
  0
CIRCLE
  5
87A
330
17
100
AcDbEntity
  8
INSERT_POINTS
 62
     1
100
AcDbCircle
 10
68.667841295135
 20
-6.848180788063
 30
0.0
 40
0.1
  0
CIRCLE
  5
87B
330
17
100
AcDbEntity
  8
INSERT_POINTS
 62
     2
100
AcDbCircle
 10
68.667841295135
 20
-6.848180788063
 30
0.0
 40
0.075
  0
CIRCLE
  5
87C
330
17
100
AcDbEntity
  8
INSERT_POINTS
 62
     1
100
AcDbCircle
 10
74.955098767567
 20
-6.848180788063
 30
0.0
 40
0.1
  0
CIRCLE
  5
87D
330
17
100
AcDbEntity
  8
INSERT_POINTS
 62
     2
100
AcDbCircle
 10
74.955098767567
 20
-6.848180788063
 30
0.0
 40
0.075
  0
LINE
  5
87E
330
17
100
AcDbEntity
  8
0
 62
     5
100
AcDbLine
 10
70.386436814342
 20
-13.547021496578
 30
0.0
 11
70.386436814342
 21
-11.523534211435
 31
0.0
  0
LINE
  5
87F
330
17
100
AcDbEntity
  8
0
 62
     5
100
AcDbLine
 10
68.972468177014
 20
-12.535277854007
 30
0.0
 11
71.800405451671
 21
-12.535277854007
 31
0.0
  0
TEXT
  5
880
330
17
100
AcDbEntity
  8
0
 62
     3
100
AcDbText
 10
71.512756814342
 20
-12.464577854007
 30
0.0
 40
0.2
  1
MIDDLE_gjpqy
 41
1.2
 71
     6
 72
     4
 11
70.386436814342
 21
-12.535277854007
 31
0.0
100
AcDbText
  0
CIRCLE
  5
881
330
17
100
AcDbEntity
  8
INSERT_POINTS
 62
     1
100
AcDbCircle
 10
70.386436814342
 20
-12.535277854007
 30
0.0
 40
0.1
  0
CIRCLE
  5
882
330
17
100
AcDbEntity
  8
INSERT_POINTS
 62
     2
100
AcDbCircle
 10
70.386436814342
 20
-12.535277854007
 30
0.0
 40
0.075
  0
LINE
  5
883
330
17
100
AcDbEntity
  8
0
 62
     5
100
AcDbLine
 10
62.380583822702
 20
-10.371668073206
 30
0.0
 11
72.380583822702
 21
-10.371668073206
 31
0.0
  0
TEXT
  5
884
330
17
100
AcDbEntity
  8
0
 62
     3
100
AcDbText
 10
62.380583822702
 20
-6.537304173606
 30
0.0
 40
0.2
  1
Width Factor: 1.2
 41
1.2
100
AcDbText
  0
LINE
  5
885
330
17
100
AcDbEntity
  8
0
 62
     5
100
AcDbLine
 10
62.380583822702
 20
-16.777433098996
 30
0.0
 11
62.380583822702
 21
-14.753945813853
 31
0.0
  0
LINE
  5
886
330
17
100
AcDbEntity
  8
0
 62
     5
100
AcDbLine
 10
68.667841295135
 20
-16.777433098996
 30
0.0
 11
68.667841295135
 21
-14.753945813853
 31
0.0
  0
LINE
  5
887
330
17
100
AcDbEntity
  8
0
 62
     5
100
AcDbLine
 10
74.955098767567
 20
-16.777433098996
 30
0.0
 11
74.955098767567
 21
-14.753945813853
 31
0.0
  0
LINE
  5
888
330
17
100
AcDbEntity
  8
0
 62
     5
100
AcDbLine
 10
62.380583822702
 20
-17.777433098996
 30
0.0
 11
72.380583822702
 21
-17.777433098996
 31
0.0
  0
TEXT
  5
889
330
17
100
AcDbEntity
  8
0
 62
     3
100
AcDbText
 10
62.380583822702
 20
-18.277433098996
 30
0.0
 40
0.2
  1
BASELINE ADJUSTMENTS (gjpqy)
 41
0.5
 71
     6
100
AcDbText
  0
TEXT
  5
88A
330
17
100
AcDbEntity
  8
0
 62
     3
100
AcDbText
 10
62.380583822702
 20
-17.777433098996
 30
0.0
 40
0.2
  1
LEFT
 41
0.5
 71
     6
100
AcDbText
  0
TEXT
  5
88B
330
17
100
AcDbEntity
  8
0
 62
     3
100
AcDbText
 10
67.667533822702
 20
-17.777433098996
 30
0.0
 40
0.2
  1
CENTER
 41
0.5
 71
     6
 72
     1
 11
67.380583822702
 21
-17.777433098996
 31
0.0
100
AcDbText
  0
TEXT
  5
88C
330
17
100
AcDbEntity
  8
0
 62
     3
100
AcDbText
 10
72.814883822702
 20
-17.777433098996
 30
0.0
 40
0.2
  1
RIGHT
 41
0.5
 71
     6
 72
     2
 11
72.380583822702
 21
-17.777433098996
 31
0.0
100
AcDbText
  0
LINE
  5
88D
330
17
100
AcDbEntity
  8
0
 62
     5
100
AcDbLine
 10
62.380583822702
 20
-16.777433098996
 30
0.0
 11
74.955098767567
 21
-16.777433098996
 31
0.0
  0
TEXT
  5
88E
330
17
100
AcDbEntity
  8
0
 62
     2
100
AcDbText
 10
62.380583822702
 20
-16.836614917178
 30
0.0
 40
0.2
  1
BOTTOM_LEFT
 41
0.5
 71
     6
 11
62.380583822702
 21
-16.777433098996
 31
0.0
100
AcDbText
 73
     1
  0
TEXT
  5
88F
330
17
100
AcDbEntity
  8
0
 62
     2
100
AcDbText
 10
69.497791295135
 20
-16.836614917178
 30
0.0
 40
0.2
  1
BOTTOM_CENTER_gjpqy
 41
0.5
 71
     6
 72
     1
 11
68.667841295135
 21
-16.777433098996
 31
0.0
100
AcDbText
 73
     1
  0
TEXT
  5
890
330
17
100
AcDbEntity
  8
0
 62
     2
100
AcDbText
 10
76.064198767567
 20
-16.836614917178
 30
0.0
 40
0.2
  1
BOTTOM_RIGHT
 41
0.5
 71
     6
 72
     2
 11
74.955098767567
 21
-16.777433098996
 31
0.0
100
AcDbText
 73
     1
  0
LINE
  5
891
330
17
100
AcDbEntity
  8
0
 62
     5
100
AcDbLine
 10
62.380583822702
 20
-15.765689456425
 30
0.0
 11
74.955098767567
 21
-15.765689456425
 31
0.0
  0
TEXT
  5
892
330
17
100
AcDbEntity
  8
0
 62
     2
100
AcDbText
 10
62.380583822702
 20
-15.665689456425
 30
0.0
 40
0.2
  1
MIDDLE_LEFT
 41
0.5
 71
     6
 11
62.380583822702
 21
-15.765689456425
 31
0.0
100
AcDbText
 73
     2
  0
TEXT
  5
893
330
17
100
AcDbEntity
  8
0
 62
     2
100
AcDbText
 10
69.462891295135
 20
-15.665689456425
 30
0.0
 40
0.2
  1
MIDDLE_CENTER_gjpqy
 41
0.5
 71
     6
 72
     1
 11
68.667841295135
 21
-15.765689456425
 31
0.0
100
AcDbText
 73
     2
  0
TEXT
  5
894
330
17
100
AcDbEntity
  8
0
 62
     2
100
AcDbText
 10
75.994398767567
 20
-15.665689456425
 30
0.0
 40
0.2
  1
MIDDLE_RIGHT
 41
0.5
 71
     6
 72
     2
 11
74.955098767567
 21
-15.765689456425
 31
0.0
100
AcDbText
 73
     2
  0
LINE
  5
895
330
17
100
AcDbEntity
  8
0
 62
     5
100
AcDbLine
 10
62.380583822702
 20
-14.753945813853
 30
0.0
 11
74.955098767567
 21
-14.753945813853
 31
0.0
  0
TEXT
  5
896
330
17
100
AcDbEntity
  8
0
 62
     2
100
AcDbText
 10
62.380583822702
 20
-14.553945813853
 30
0.0
 40
0.2
  1
TOP_LEFT
 41
0.5
 71
     6
 11
62.380583822702
 21
-14.753945813853
 31
0.0
100
AcDbText
 73
     3
  0
TEXT
  5
897
330
17
100
AcDbEntity
  8
0
 62
     2
100
AcDbText
 10
69.342691295135
 20
-14.553945813853
 30
0.0
 40
0.2
  1
TOP_CENTER_gjpqy
 41
0.5
 71
     6
 72
     1
 11
68.667841295135
 21
-14.753945813853
 31
0.0
100
AcDbText
 73
     3
  0
TEXT
  5
898
330
17
100
AcDbEntity
  8
0
 62
     2
100
AcDbText
 10
75.753998767567
 20
-14.553945813853
 30
0.0
 40
0.2
  1
TOP_RIGHT
 41
0.5
 71
     6
 72
     2
 11
74.955098767567
 21
-14.753945813853
 31
0.0
100
AcDbText
 73
     3
  0
CIRCLE
  5
899
330
17
100
AcDbEntity
  8
INSERT_POINTS
 62
     1
100
AcDbCircle
 10
62.380583822702
 20
-18.277433098996
 30
0.0
 40
0.1
  0
CIRCLE
  5
89A
330
17
100
AcDbEntity
  8
INSERT_POINTS
 62
     2
100
AcDbCircle
 10
62.380583822702
 20
-18.277433098996
 30
0.0
 40
0.075
  0
CIRCLE
  5
89B
330
17
100
AcDbEntity
  8
INSERT_POINTS
 62
     1
100
AcDbCircle
 10
62.380583822702
 20
-17.777433098996
 30
0.0
 40
0.1
  0
CIRCLE
  5
89C
330
17
100
AcDbEntity
  8
INSERT_POINTS
 62
     2
100
AcDbCircle
 10
62.380583822702
 20
-17.777433098996
 30
0.0
 40
0.075
  0
CIRCLE
  5
89D
330
17
100
AcDbEntity
  8
INSERT_POINTS
 62
     1
100
AcDbCircle
 10
67.380583822702
 20
-17.777433098996
 30
0.0
 40
0.1
  0
CIRCLE
  5
89E
330
17
100
AcDbEntity
  8
INSERT_POINTS
 62
     2
100
AcDbCircle
 10
67.380583822702
 20
-17.777433098996
 30
0.0
 40
0.075
  0
CIRCLE
  5
89F
330
17
100
AcDbEntity
  8
INSERT_POINTS
 62
     1
100
AcDbCircle
 10
72.380583822702
 20
-17.777433098996
 30
0.0
 40
0.1
  0
CIRCLE
  5
8A0
330
17
100
AcDbEntity
  8
INSERT_POINTS
 62
     2
100
AcDbCircle
 10
72.380583822702
 20
-17.777433098996
 30
0.0
 40
0.075
  0
CIRCLE
  5
8A1
330
17
100
AcDbEntity
  8
INSERT_POINTS
 62
     1
100
AcDbCircle
 10
62.380583822702
 20
-16.777433098996
 30
0.0
 40
0.1
  0
CIRCLE
  5
8A2
330
17
100
AcDbEntity
  8
INSERT_POINTS
 62
     2
100
AcDbCircle
 10
62.380583822702
 20
-16.777433098996
 30
0.0
 40
0.075
  0
CIRCLE
  5
8A3
330
17
100
AcDbEntity
  8
INSERT_POINTS
 62
     1
100
AcDbCircle
 10
68.667841295135
 20
-16.777433098996
 30
0.0
 40
0.1
  0
CIRCLE
  5
8A4
330
17
100
AcDbEntity
  8
INSERT_POINTS
 62
     2
100
AcDbCircle
 10
68.667841295135
 20
-16.777433098996
 30
0.0
 40
0.075
  0
CIRCLE
  5
8A5
330
17
100
AcDbEntity
  8
INSERT_POINTS
 62
     1
100
AcDbCircle
 10
74.955098767567
 20
-16.777433098996
 30
0.0
 40
0.1
  0
CIRCLE
  5
8A6
330
17
100
AcDbEntity
  8
INSERT_POINTS
 62
     2
100
AcDbCircle
 10
74.955098767567
 20
-16.777433098996
 30
0.0
 40
0.075
  0
CIRCLE
  5
8A7
330
17
100
AcDbEntity
  8
INSERT_POINTS
 62
     1
100
AcDbCircle
 10
62.380583822702
 20
-15.765689456425
 30
0.0
 40
0.1
  0
CIRCLE
  5
8A8
330
17
100
AcDbEntity
  8
INSERT_POINTS
 62
     2
100
AcDbCircle
 10
62.380583822702
 20
-15.765689456425
 30
0.0
 40
0.075
  0
CIRCLE
  5
8A9
330
17
100
AcDbEntity
  8
INSERT_POINTS
 62
     1
100
AcDbCircle
 10
68.667841295135
 20
-15.765689456425
 30
0.0
 40
0.1
  0
CIRCLE
  5
8AA
330
17
100
AcDbEntity
  8
INSERT_POINTS
 62
     2
100
AcDbCircle
 10
68.667841295135
 20
-15.765689456425
 30
0.0
 40
0.075
  0
CIRCLE
  5
8AB
330
17
100
AcDbEntity
  8
INSERT_POINTS
 62
     1
100
AcDbCircle
 10
74.955098767567
 20
-15.765689456425
 30
0.0
 40
0.1
  0
CIRCLE
  5
8AC
330
17
100
AcDbEntity
  8
INSERT_POINTS
 62
     2
100
AcDbCircle
 10
74.955098767567
 20
-15.765689456425
 30
0.0
 40
0.075
  0
CIRCLE
  5
8AD
330
17
100
AcDbEntity
  8
INSERT_POINTS
 62
     1
100
AcDbCircle
 10
62.380583822702
 20
-14.753945813853
 30
0.0
 40
0.1
  0
CIRCLE
  5
8AE
330
17
100
AcDbEntity
  8
INSERT_POINTS
 62
     2
100
AcDbCircle
 10
62.380583822702
 20
-14.753945813853
 30
0.0
 40
0.075
  0
CIRCLE
  5
8AF
330
17
100
AcDbEntity
  8
INSERT_POINTS
 62
     1
100
AcDbCircle
 10
68.667841295135
 20
-14.753945813853
 30
0.0
 40
0.1
  0
CIRCLE
  5
8B0
330
17
100
AcDbEntity
  8
INSERT_POINTS
 62
     2
100
AcDbCircle
 10
68.667841295135
 20
-14.753945813853
 30
0.0
 40
0.075
  0
CIRCLE
  5
8B1
330
17
100
AcDbEntity
  8
INSERT_POINTS
 62
     1
100
AcDbCircle
 10
74.955098767567
 20
-14.753945813853
 30
0.0
 40
0.1
  0
CIRCLE
  5
8B2
330
17
100
AcDbEntity
  8
INSERT_POINTS
 62
     2
100
AcDbCircle
 10
74.955098767567
 20
-14.753945813853
 30
0.0
 40
0.075
  0
LINE
  5
8B3
330
17
100
AcDbEntity
  8
0
 62
     5
100
AcDbLine
 10
70.386436814342
 20
-21.452786522369
 30
0.0
 11
70.386436814342
 21
-19.429299237226
 31
0.0
  0
LINE
  5
8B4
330
17
100
AcDbEntity
  8
0
 62
     5
100
AcDbLine
 10
68.972468177014
 20
-20.441042879797
 30
0.0
 11
71.800405451671
 21
-20.441042879797
 31
0.0
  0
TEXT
  5
8B5
330
17
100
AcDbEntity
  8
0
 62
     3
100
AcDbText
 10
70.855736814342
 20
-20.370342879797
 30
0.0
 40
0.2
  1
MIDDLE_gjpqy
 41
0.5
 71
     6
 72
     4
 11
70.386436814342
 21
-20.441042879797
 31
0.0
100
AcDbText
  0
CIRCLE
  5
8B6
330
17
100
AcDbEntity
  8
INSERT_POINTS
 62
     1
100
AcDbCircle
 10
70.386436814342
 20
-20.441042879797
 30
0.0
 40
0.1
  0
CIRCLE
  5
8B7
330
17
100
AcDbEntity
  8
INSERT_POINTS
 62
     2
100
AcDbCircle
 10
70.386436814342
 20
-20.441042879797
 30
0.0
 40
0.075
  0
LINE
  5
8B8
330
17
100
AcDbEntity
  8
0
 62
     5
100
AcDbLine
 10
62.380583822702
 20
-18.277433098996
 30
0.0
 11
72.380583822702
 21
-18.277433098996
 31
0.0
  0
TEXT
  5
8B9
330
17
100
AcDbEntity
  8
0
 62
     3
100
AcDbText
 10
62.380583822702
 20
-14.443069199396
 30
0.0
 40
0.2
  1
Width Factor: 0.5
 41
0.5
100
AcDbText
  0
ENDSEC
  0
SECTION
  2
OBJECTS
  0
DICTIONARY
  5
A
330
0
100
AcDbDictionary
281
     1
  3
ACAD_COLOR
350
B
  3
ACAD_DETAILVIEWSTYLE
350
106
  3
ACAD_GROUP
350
C
  3
ACAD_LAYOUT
350
D
  3
ACAD_MATERIAL
350
E
  3
ACAD_MLEADERSTYLE
350
F
  3
ACAD_MLINESTYLE
350
10
  3
ACAD_PLOTSETTINGS
350
11
  3
ACAD_PLOTSTYLENAME
350
12
  3
ACAD_SCALELIST
350
D0
  3
ACAD_SECTIONVIEWSTYLE
350
107
  3
ACAD_TABLESTYLE
350
15
  3
ACAD_VISUALSTYLE
350
16
  3
ACDB_RECOMPOSE_DATA
350
ECD
  3
AcDbVariableDictionary
350
FD
  0
SUN
  5
FC
330
CE
100
AcDbSun
 90
        1
290
     0
 63
     7
421
 16777215
 40
1.0
291
     1
 91
  2455826
 92
 54000000
292
     0
 70
     2
 71
   256
280
     1
  0
DICTIONARY
  5
B
330
A
100
AcDbDictionary
281
     1
  0
DICTIONARY
  5
106
102
{ACAD_REACTORS
330
A
102
}
330
A
100
AcDbDictionary
281
     1
  0
DICTIONARY
  5
C
330
A
100
AcDbDictionary
281
     1
  0
DICTIONARY
  5
D
330
A
100
AcDbDictionary
281
     1
  3
Layout1
350
1E
  3
Model
350
1A
  0
DICTIONARY
  5
E
330
A
100
AcDbDictionary
281
     1
  3
ByBlock
350
1F
  3
ByLayer
350
20
  3
Global
350
21
  0
DICTIONARY
  5
F
330
A
100
AcDbDictionary
281
     1
  3
Standard
350
2C
  0
DICTIONARY
  5
10
330
A
100
AcDbDictionary
281
     1
  3
Standard
350
22
  0
DICTIONARY
  5
11
330
A
100
AcDbDictionary
281
     1
  0
ACDBDICTIONARYWDFLT
  5
12
330
A
100
AcDbDictionary
281
     1
  3
Normal
350
13
100
AcDbDictionaryWithDefault
340
13
  0
DICTIONARY
  5
D0
102
{ACAD_REACTORS
330
A
102
}
330
A
100
AcDbDictionary
281
     1
  3
A0
350
D1
  3
A1
350
D2
  3
A2
350
D3
  3
A3
350
D4
  3
A4
350
D5
  3
A5
350
D6
  3
A6
350
D7
  3
A7
350
D8
  3
A8
350
D9
  3
A9
350
DA
  3
B0
350
DB
  3
B1
350
DC
  3
B2
350
DD
  3
B3
350
DE
  3
B4
350
DF
  3
B5
350
E0
  3
B6
350
E1
  0
DICTIONARY
  5
107
102
{ACAD_REACTORS
330
A
102
}
330
A
100
AcDbDictionary
281
     1
  0
DICTIONARY
  5
15
330
A
100
AcDbDictionary
281
     1
  3
Standard
350
FA
  0
DICTIONARY
  5
16
330
A
100
AcDbDictionary
281
     1
  3
2dWireframe
350
E6
  3
Basic
350
E9
  3
Brighten
350
ED
  3
ColorChange
350
F1
  3
Conceptual
350
EB
  3
Dim
350
EC
  3
EdgeColorOff
350
F4
  3
Facepattern
350
F0
  3
Flat
350
E2
  3
FlatWithEdges
350
E3
  3
Gouraud
350
E4
  3
GouraudWithEdges
350
E5
  3
Hidden
350
E8
  3
JitterOff
350
F2
  3
Linepattern
350
EF
  3
Modeling
350
FB
  3
OverhangOff
350
F3
  3
Realistic
350
EA
  3
Shaded
350
F9
  3
Shaded with edges
350
F8
  3
Shades of Gray
350
F5
  3
Sketchy
350
F6
  3
Thicken
350
EE
  3
Wireframe
350
E7
  3
X-Ray
350
F7
  0
XRECORD
  5
ECD
102
{ACAD_REACTORS
330
A
102
}
330
A
100
AcDbXrecord
280
     1
 90
        1
330
FA
  0
DICTIONARY
  5
FD
102
{ACAD_REACTORS
330
A
102
}
330
A
100
AcDbDictionary
281
     1
  3
CANNOSCALE
350
FE
  3
CMLEADERSTYLE
350
103
  3
CTABLESTYLE
350
102
  3
MSLTSCALE
350
104
  3
XCLIPFRAME
350
105
  0
LAYOUT
  5
1E
330
D
100
AcDbPlotSettings
  1

  2
Adobe PDF
  4
A4
  6

 40
3.175
 41
3.175
 42
3.175
 43
3.175
 44
209.91
 45
297.03
 46
0.0
 47
0.0
 48
0.0
 49
0.0
140
0.0
141
0.0
142
1.0
143
1.0
 70
     0
 72
     0
 73
     1
 74
     5
  7

 75
    16
 76
     0
 77
     2
 78
   300
147
1.0
148
0.0
149
0.0
100
AcDbLayout
  1
Layout1
 70
     1
 71
     1
 10
-3.175
 20
-3.175
 11
293.857
 21
206.735
 12
0.0
 22
0.0
 32
0.0
 14
29.068
 24
20.356
 34
0.0
 15
261.614
 25
183.204
 35
0.0
146
0.0
 13
0.0
 23
0.0
 33
0.0
 16
1.0
 26
0.0
 36
0.0
 17
0.0
 27
1.0
 37
0.0
 76
     1
330
1B
  0
LAYOUT
  5
1A
330
D
100
AcDbPlotSettings
  1

  2
Adobe PDF
  4
A4
  6

 40
3.175
 41
3.175
 42
3.175
 43
3.175
 44
209.91
 45
297.03
 46
0.0
 47
0.0
 48
0.0
 49
0.0
140
0.0
141
0.0
142
1.0
143
1.0
 70
  1024
 72
     0
 73
     1
 74
     5
  7

 75
    16
 76
     0
 77
     2
 78
   300
147
1.0
148
0.0
149
0.0
100
AcDbLayout
  1
Model
 70
     1
 71
     0
 10
-3.175
 20
-3.175
 11
293.857
 21
206.735
 12
0.0
 22
0.0
 32
0.0
 14
-0.1
 24
-21.452786522369
 34
0.0
 15
77.616938767567
 25
4.119650511208
 35
0.0
146
0.0
 13
0.0
 23
0.0
 33
0.0
 16
1.0
 26
0.0
 36
0.0
 17
0.0
 27
1.0
 37
0.0
 76
     1
330
17
331
CE
  0
MATERIAL
  5
1F
102
{ACAD_REACTORS
330
E
102
}
330
E
100
AcDbMaterial
  1
ByBlock
 71
     1
 91
-1023410177
 72
     1
273
     1
 94
       63
  0
MATERIAL
  5
20
102
{ACAD_REACTORS
330
E
102
}
330
E
100
AcDbMaterial
  1
ByLayer
 71
     1
 91
-1023410177
 72
     1
273
     1
 94
       63
  0
MATERIAL
  5
21
102
{ACAD_REACTORS
330
E
102
}
330
E
100
AcDbMaterial
  1
Global
 71
     1
 91
-1023410177
 72
     1
273
     1
 94
       63
  0
MLEADERSTYLE
  5
2C
102
{ACAD_REACTORS
330
F
102
}
330
F
100
AcDbMLeaderStyle
179
     2
170
     2
171
     1
172
     0
 90
        2
 40
0.0
 41
0.0
173
     1
 91
-1056964608
340
0
 92
       -2
290
     1
 42
2.0
291
     1
 43
8.0
  3
Standard
341
0
 44
4.0
300

342
29
174
     1
178
     1
175
     1
176
     0
 93
-1056964608
 45
4.0
292
     0
297
     0
 46
4.0
343
0
 94
-1056964608
 47
1.0
 49
1.0
140
1.0
293
     1
141
0.0
294
     1
177
     0
142
1.0
295
     0
296
     0
143
3.75
271
     0
272
     9
273
     9
298
     0
  0
MLINESTYLE
  5
22
102
{ACAD_REACTORS
330
10
102
}
330
10
100
AcDbMlineStyle
  2
Standard
 70
     0
  3

 62
   256
 51
90.0
 52
90.0
 71
     2
 49
0.5
 62
   256
  6
BYLAYER
 49
-0.5
 62
   256
  6
BYLAYER
  0
ACDBPLACEHOLDER
  5
13
330
12
  0
SCALE
  5
D1
102
{ACAD_REACTORS
330
D0
102
}
330
D0
100
AcDbScale
 70
     0
300
1:1
140
1.0
141
1.0
290
     1
  0
SCALE
  5
D2
102
{ACAD_REACTORS
330
D0
102
}
330
D0
100
AcDbScale
 70
     0
300
1:2
140
1.0
141
2.0
290
     0
  0
SCALE
  5
D3
102
{ACAD_REACTORS
330
D0
102
}
330
D0
100
AcDbScale
 70
     0
300
1:4
140
1.0
141
4.0
290
     0
  0
SCALE
  5
D4
102
{ACAD_REACTORS
330
D0
102
}
330
D0
100
AcDbScale
 70
     0
300
1:5
140
1.0
141
5.0
290
     0
  0
SCALE
  5
D5
102
{ACAD_REACTORS
330
D0
102
}
330
D0
100
AcDbScale
 70
     0
300
1:8
140
1.0
141
8.0
290
     0
  0
SCALE
  5
D6
102
{ACAD_REACTORS
330
D0
102
}
330
D0
100
AcDbScale
 70
     0
300
1:10
140
1.0
141
10.0
290
     0
  0
SCALE
  5
D7
102
{ACAD_REACTORS
330
D0
102
}
330
D0
100
AcDbScale
 70
     0
300
1:16
140
1.0
141
16.0
290
     0
  0
SCALE
  5
D8
102
{ACAD_REACTORS
330
D0
102
}
330
D0
100
AcDbScale
 70
     0
300
1:20
140
1.0
141
20.0
290
     0
  0
SCALE
  5
D9
102
{ACAD_REACTORS
330
D0
102
}
330
D0
100
AcDbScale
 70
     0
300
1:30
140
1.0
141
30.0
290
     0
  0
SCALE
  5
DA
102
{ACAD_REACTORS
330
D0
102
}
330
D0
100
AcDbScale
 70
     0
300
1:40
140
1.0
141
40.0
290
     0
  0
SCALE
  5
DB
102
{ACAD_REACTORS
330
D0
102
}
330
D0
100
AcDbScale
 70
     0
300
1:50
140
1.0
141
50.0
290
     0
  0
SCALE
  5
DC
102
{ACAD_REACTORS
330
D0
102
}
330
D0
100
AcDbScale
 70
     0
300
1:100
140
1.0
141
100.0
290
     0
  0
SCALE
  5
DD
102
{ACAD_REACTORS
330
D0
102
}
330
D0
100
AcDbScale
 70
     0
300
2:1
140
2.0
141
1.0
290
     0
  0
SCALE
  5
DE
102
{ACAD_REACTORS
330
D0
102
}
330
D0
100
AcDbScale
 70
     0
300
4:1
140
4.0
141
1.0
290
     0
  0
SCALE
  5
DF
102
{ACAD_REACTORS
330
D0
102
}
330
D0
100
AcDbScale
 70
     0
300
8:1
140
8.0
141
1.0
290
     0
  0
SCALE
  5
E0
102
{ACAD_REACTORS
330
D0
102
}
330
D0
100
AcDbScale
 70
     0
300
10:1
140
10.0
141
1.0
290
     0
  0
SCALE
  5
E1
102
{ACAD_REACTORS
330
D0
102
}
330
D0
100
AcDbScale
 70
     0
300
100:1
140
100.0
141
1.0
290
     0
  0
TABLESTYLE
  5
FA
102
{ACAD_REACTORS
330
15
102
}
102
{ACAD_XDICTIONARY
360
ECB
102
}
330
15
100
AcDbTableStyle
  3
Standard
 70
     0
 71
     0
 40
0.06
 41
0.06
280
     0
281
     0
  7
Standard
140
4.5
170
     2
 62
     0
 63
   257
283
     0
 90
        4
 91
        0
  1

274
    -2
284
     1
 64
     0
275
    -2
285
     1
 65
     0
276
    -2
286
     1
 66
     0
277
    -2
287
     1
 67
     0
278
    -2
288
     1
 68
     0
279
    -2
289
     1
 69
     0
  7
Standard
140
6.0
170
     5
 62
     0
 63
   257
283
     0
 90
        4
 91
        0
  1

274
    -2
284
     1
 64
     0
275
    -2
285
     1
 65
     0
276
    -2
286
     1
 66
     0
277
    -2
287
     1
 67
     0
278
    -2
288
     1
 68
     0
279
    -2
289
     1
 69
     0
  7
Standard
140
4.5
170
     5
 62
     0
 63
   257
283
     0
 90
        4
 91
        0
  1

274
    -2
284
     1
 64
     0
275
    -2
285
     1
 65
     0
276
    -2
286
     1
 66
     0
277
    -2
287
     1
 67
     0
278
    -2
288
     1
 68
     0
279
    -2
289
     1
 69
     0
  0
VISUALSTYLE
  5
E6
102
{ACAD_REACTORS
330
16
102
}
330
16
100
AcDbVisualStyle
  2
2dWireframe
 70
     4
177
     3
291
     0
 70
    58
 90
        0
176
     1
 90
        2
176
     1
 90
        0
176
     1
 90
        0
176
     1
 40
0.6
176
     1
 40
30.0
176
     1
 62
     7
420
 16777215
176
     1
 90
        1
176
     1
 90
        4
176
     1
 62
     7
176
     1
 62
   257
176
     1
 90
        1
176
     1
 90
        1
176
     1
 40
1.0
176
     1
 90
        0
176
     1
 62
   257
176
     1
 40
1.0
176
     1
 90
        1
176
     1
 90
        6
176
     1
 90
        2
176
     1
 62
     7
176
     1
 90
        5
176
     1
 90
        0
176
     1
 90
        0
176
     1
290
     0
176
     1
 90
        1
176
     1
 40
0.0
176
     1
 90
        0
176
     1
290
     1
176
     1
290
     1
176
     1
290
     0
176
     1
290
     0
176
     1
290
     0
176
     1
290
     0
176
     1
290
     0
176
     1
290
     0
176
     1
290
     0
176
     1
 90
       50
176
     1
 40
0.0
176
     1
 40
1.0
176
     1
 90
        0
176
     1
 62
    18
420
        0
176
     1
 90
       50
176
     1
 90
        3
176
     1
 62
     5
420
      255
176
     1
290
     0
176
     1
 90
       50
176
     1
 90
       50
176
     1
 90
       50
176
     1
290
     0
176
     1
 90
       50
176
     1
 62
   256
176
     0
 40
1.0
176
     0
 90
        2
176
     1
  1
strokes_ogs.tif
176
     1
290
     0
176
     1
 40
1.0
176
     1
 40
1.0
176
     1
  0
VISUALSTYLE
  5
E9
102
{ACAD_REACTORS
330
16
102
}
330
16
100
AcDbVisualStyle
  2
Basic
 70
     7
177
     3
291
     1
 70
    58
 90
        1
176
     1
 90
        0
176
     1
 90
        1
176
     1
 90
        0
176
     1
 40
0.6
176
     1
 40
30.0
176
     1
 62
     7
420
 16777215
176
     1
 90
        0
176
     1
 90
        4
176
     1
 62
     7
176
     1
 62
   257
176
     1
 90
        1
176
     1
 90
        1
176
     1
 40
1.0
176
     1
 90
        8
176
     1
 62
     7
176
     1
 40
1.0
176
     1
 90
        1
176
     1
 90
        6
176
     1
 90
        2
176
     1
 62
     7
176
     1
 90
        5
176
     1
 90
        0
176
     1
 90
        0
176
     1
290
     0
176
     1
 90
        1
176
     1
 40
0.0
176
     1
 90
        0
176
     1
290
     0
176
     1
290
     1
176
     1
290
     1
176
     1
290
     0
176
     1
290
     0
176
     1
290
     0
176
     1
290
     0
176
     1
290
     0
176
     1
290
     0
176
     1
 90
       50
176
     1
 40
0.0
176
     1
 40
1.0
176
     1
 90
        0
176
     1
 62
    18
420
        0
176
     1
 90
       50
176
     1
 90
        3
176
     1
 62
     5
420
      255
176
     1
290
     0
176
     1
 90
       50
176
     1
 90
       50
176
     1
 90
       50
176
     1
290
     0
176
     1
 90
       50
176
     1
 62
   256
176
     0
 40
1.0
176
     0
 90
        2
176
     1
  1
strokes_ogs.tif
176
     1
290
     0
176
     1
 40
1.0
176
     1
 40
1.0
176
     1
  0
VISUALSTYLE
  5
ED
102
{ACAD_REACTORS
330
16
102
}
330
16
100
AcDbVisualStyle
  2
Brighten
 70
    12
177
     3
291
     1
 70
    58
 90
        2
176
     1
 90
        2
176
     1
 90
        0
176
     1
 90
        0
176
     1
 40
0.6
176
     1
 40
30.0
176
     1
 62
     7
420
 16777215
176
     1
 90
        1
176
     1
 90
        4
176
     1
 62
     7
176
     1
 62
   257
176
     1
 90
        1
176
     1
 90
        1
176
     1
 40
1.0
176
     1
 90
        8
176
     1
 62
     7
176
     1
 40
1.0
176
     1
 90
        1
176
     1
 90
        6
176
     1
 90
        2
176
     1
 62
     7
176
     1
 90
        5
176
     1
 90
        0
176
     1
 90
        0
176
     1
290
     0
176
     1
 90
        1
176
     1
 40
50.0
176
     1
 90
        0
176
     1
290
     0
176
     1
290
     1
176
     1
290
     1
176
     1
290
     0
176
     1
290
     0
176
     1
290
     0
176
     1
290
     0
176
     1
290
     0
176
     1
290
     0
176
     1
 90
       50
176
     1
 40
0.0
176
     1
 40
1.0
176
     1
 90
        0
176
     1
 62
    18
420
        0
176
     1
 90
       50
176
     1
 90
        3
176
     1
 62
     5
420
      255
176
     1
290
     0
176
     1
 90
       50
176
     1
 90
       50
176
     1
 90
       50
176
     1
290
     0
176
     1
 90
       50
176
     1
 62
   256
176
     0
 40
1.0
176
     0
 90
        2
176
     1
  1
strokes_ogs.tif
176
     1
290
     0
176
     1
 40
1.0
176
     1
 40
1.0
176
     1
  0
VISUALSTYLE
  5
F1
102
{ACAD_REACTORS
330
16
102
}
330
16
100
AcDbVisualStyle
  2
ColorChange
 70
    16
177
     3
291
     1
 70
    58
 90
        2
176
     1
 90
        2
176
     1
 90
        3
176
     1
 90
        0
176
     1
 40
0.6
176
     1
 40
30.0
176
     1
 62
     8
420
  8421504
176
     1
 90
        1
176
     1
 90
        4
176
     1
 62
     7
176
     1
 62
   257
176
     1
 90
        1
176
     1
 90
        1
176
     1
 40
1.0
176
     1
 90
        8
176
     1
 62
     8
420
  8421504
176
     1
 40
1.0
176
     1
 90
        1
176
     1
 90
        6
176
     1
 90
        2
176
     1
 62
     7
176
     1
 90
        5
176
     1
 90
        0
176
     1
 90
        0
176
     1
290
     0
176
     1
 90
        1
176
     1
 40
0.0
176
     1
 90
        0
176
     1
290
     0
176
     1
290
     1
176
     1
290
     1
176
     1
290
     0
176
     1
290
     0
176
     1
290
     0
176
     1
290
     0
176
     1
290
     0
176
     1
290
     0
176
     1
 90
       50
176
     1
 40
0.0
176
     1
 40
1.0
176
     1
 90
        0
176
     1
 62
    18
420
        0
176
     1
 90
       50
176
     1
 90
        3
176
     1
 62
     5
420
      255
176
     1
290
     0
176
     1
 90
       50
176
     1
 90
       50
176
     1
 90
       50
176
     1
290
     0
176
     1
 90
       50
176
     1
 62
   256
176
     0
 40
1.0
176
     0
 90
        2
176
     1
  1
strokes_ogs.tif
176
     1
290
     0
176
     1
 40
1.0
176
     1
 40
1.0
176
     1
  0
VISUALSTYLE
  5
EB
102
{ACAD_REACTORS
330
16
102
}
330
16
100
AcDbVisualStyle
  2
Conceptual
 70
     9
177
     3
291
     0
 70
    58
 90
        3
176
     1
 90
        2
176
     1
 90
        0
176
     1
 90
        0
176
     1
 40
0.6
176
     1
 40
30.0
176
     1
 62
     7
420
 16777215
176
     1
 90
        2
176
     1
 90
        2
176
     1
 62
     7
176
     1
 62
   257
176
     1
 90
        1
176
     1
 90
        1
176
     1
 40
179.0
176
     1
 90
        8
176
     1
 62
     7
176
     1
 40
1.0
176
     1
 90
        1
176
     1
 90
        6
176
     1
 90
        2
176
     1
 62
     7
176
     1
 90
        3
176
     1
 90
        0
176
     1
 90
        0
176
     1
290
     0
176
     1
 90
        1
176
     1
 40
0.0
176
     1
 90
        0
176
     1
290
     0
176
     1
290
     1
176
     1
290
     1
176
     1
290
     0
176
     1
290
     0
176
     1
290
     0
176
     1
290
     0
176
     1
290
     0
176
     1
290
     0
176
     1
 90
       50
176
     1
 40
0.0
176
     1
 40
1.0
176
     1
 90
        0
176
     1
 62
    18
420
        0
176
     1
 90
       50
176
     1
 90
        3
176
     1
 62
     5
420
      255
176
     1
290
     0
176
     1
 90
       50
176
     1
 90
       50
176
     1
 90
       50
176
     1
290
     0
176
     1
 90
       50
176
     1
 62
   256
176
     0
 40
1.0
176
     0
 90
        2
176
     1
  1
strokes_ogs.tif
176
     1
290
     0
176
     1
 40
1.0
176
     1
 40
1.0
176
     1
  0
VISUALSTYLE
  5
EC
102
{ACAD_REACTORS
330
16
102
}
330
16
100
AcDbVisualStyle
  2
Dim
 70
    11
177
     3
291
     1
 70
    58
 90
        2
176
     1
 90
        2
176
     1
 90
        0
176
     1
 90
        0
176
     1
 40
0.6
176
     1
 40
30.0
176
     1
 62
     7
420
 16777215
176
     1
 90
        1
176
     1
 90
        4
176
     1
 62
     7
176
     1
 62
   257
176
     1
 90
        1
176
     1
 90
        1
176
     1
 40
1.0
176
     1
 90
        8
176
     1
 62
     7
176
     1
 40
1.0
176
     1
 90
        1
176
     1
 90
        6
176
     1
 90
        2
176
     1
 62
     7
176
     1
 90
        5
176
     1
 90
        0
176
     1
 90
        0
176
     1
290
     0
176
     1
 90
        1
176
     1
 40
-50.0
176
     1
 90
        0
176
     1
290
     0
176
     1
290
     1
176
     1
290
     1
176
     1
290
     0
176
     1
290
     0
176
     1
290
     0
176
     1
290
     0
176
     1
290
     0
176
     1
290
     0
176
     1
 90
       50
176
     1
 40
0.0
176
     1
 40
1.0
176
     1
 90
        0
176
     1
 62
    18
420
        0
176
     1
 90
       50
176
     1
 90
        3
176
     1
 62
     5
420
      255
176
     1
290
     0
176
     1
 90
       50
176
     1
 90
       50
176
     1
 90
       50
176
     1
290
     0
176
     1
 90
       50
176
     1
 62
   256
176
     0
 40
1.0
176
     0
 90
        2
176
     1
  1
strokes_ogs.tif
176
     1
290
     0
176
     1
 40
1.0
176
     1
 40
1.0
176
     1
  0
VISUALSTYLE
  5
F4
102
{ACAD_REACTORS
330
16
102
}
330
16
100
AcDbVisualStyle
  2
EdgeColorOff
 70
    22
177
     3
291
     1
 70
    58
 90
        2
176
     0
 90
        2
176
     0
 90
        0
176
     0
 90
        0
176
     0
 40
0.6
176
     0
 40
30.0
176
     0
 62
     7
420
 16777215
176
     0
 90
        1
176
     0
 90
        4
176
     0
 62
     7
176
     0
 62
   257
176
     0
 90
        1
176
     0
 90
        1
176
     0
 40
1.0
176
     0
 90
        8
176
     2
 62
     7
176
     0
 40
1.0
176
     0
 90
        1
176
     0
 90
        6
176
     0
 90
        2
176
     0
 62
     7
176
     0
 90
        5
176
     0
 90
        0
176
     0
 90
        0
176
     0
290
     0
176
     0
 90
        1
176
     0
 40
0.0
176
     0
 90
        0
176
     0
290
     0
176
     0
290
     1
176
     0
290
     1
176
     0
290
     0
176
     0
290
     0
176
     0
290
     0
176
     0
290
     0
176
     0
290
     0
176
     0
290
     0
176
     0
 90
       50
176
     0
 40
0.0
176
     0
 40
1.0
176
     0
 90
        0
176
     0
 62
    18
420
        0
176
     0
 90
       50
176
     0
 90
        3
176
     0
 62
     5
420
      255
176
     0
290
     0
176
     0
 90
       50
176
     0
 90
       50
176
     0
 90
       50
176
     0
290
     0
176
     0
 90
       50
176
     0
 62
   256
176
     0
 40
1.0
176
     0
 90
        2
176
     0
  1
strokes_ogs.tif
176
     0
290
     0
176
     0
 40
1.0
176
     0
 40
1.0
176
     0
  0
VISUALSTYLE
  5
F0
102
{ACAD_REACTORS
330
16
102
}
330
16
100
AcDbVisualStyle
  2
Facepattern
 70
    15
177
     3
291
     1
 70
    58
 90
        2
176
     1
 90
        2
176
     1
 90
        0
176
     1
 90
        0
176
     1
 40
0.6
176
     1
 40
30.0
176
     1
 62
     7
420
 16777215
176
     1
 90
        1
176
     1
 90
        4
176
     1
 62
     7
176
     1
 62
   257
176
     1
 90
        1
176
     1
 90
        1
176
     1
 40
1.0
176
     1
 90
        8
176
     1
 62
     7
176
     1
 40
1.0
176
     1
 90
        1
176
     1
 90
        6
176
     1
 90
        2
176
     1
 62
     7
176
     1
 90
        5
176
     1
 90
        0
176
     1
 90
        0
176
     1
290
     0
176
     1
 90
        1
176
     1
 40
0.0
176
     1
 90
        0
176
     1
290
     0
176
     1
290
     1
176
     1
290
     1
176
     1
290
     0
176
     1
290
     0
176
     1
290
     0
176
     1
290
     0
176
     1
290
     0
176
     1
290
     0
176
     1
 90
       50
176
     1
 40
0.0
176
     1
 40
1.0
176
     1
 90
        0
176
     1
 62
    18
420
        0
176
     1
 90
       50
176
     1
 90
        3
176
     1
 62
     5
420
      255
176
     1
290
     0
176
     1
 90
       50
176
     1
 90
       50
176
     1
 90
       50
176
     1
290
     0
176
     1
 90
       50
176
     1
 62
   256
176
     0
 40
1.0
176
     0
 90
        2
176
     1
  1
strokes_ogs.tif
176
     1
290
     0
176
     1
 40
1.0
176
     1
 40
1.0
176
     1
  0
VISUALSTYLE
  5
E2
102
{ACAD_REACTORS
330
16
102
}
330
16
100
AcDbVisualStyle
  2
Flat
 70
     0
177
     3
291
     1
 70
    58
 90
        2
176
     1
 90
        1
176
     1
 90
        1
176
     1
 90
        2
176
     1
 40
0.6
176
     1
 40
30.0
176
     1
 62
     7
420
 16777215
176
     1
 90
        0
176
     1
 90
        0
176
     1
 62
     7
176
     1
 62
   257
176
     1
 90
        1
176
     1
 90
        1
176
     1
 40
1.0
176
     1
 90
        8
176
     1
 62
     7
176
     1
 40
1.0
176
     1
 90
        1
176
     1
 90
        6
176
     1
 90
        2
176
     1
 62
     7
176
     1
 90
        5
176
     1
 90
        0
176
     1
 90
        0
176
     1
290
     0
176
     1
 90
       13
176
     1
 40
0.0
176
     1
 90
        0
176
     1
290
     0
176
     1
290
     1
176
     1
290
     1
176
     1
290
     0
176
     1
290
     0
176
     1
290
     0
176
     1
290
     0
176
     1
290
     0
176
     1
290
     0
176
     1
 90
       50
176
     1
 40
0.0
176
     1
 40
1.0
176
     1
 90
        0
176
     1
 62
    18
420
        0
176
     1
 90
       50
176
     1
 90
        3
176
     1
 62
     5
420
      255
176
     1
290
     0
176
     1
 90
       50
176
     1
 90
       50
176
     1
 90
       50
176
     1
290
     0
176
     1
 90
       50
176
     1
 62
   256
176
     0
 40
1.0
176
     0
 90
        2
176
     1
  1
strokes_ogs.tif
176
     1
290
     0
176
     1
 40
1.0
176
     1
 40
1.0
176
     1
  0
VISUALSTYLE
  5
E3
102
{ACAD_REACTORS
330
16
102
}
330
16
100
AcDbVisualStyle
  2
FlatWithEdges
 70
     1
177
     3
291
     1
 70
    58
 90
        2
176
     1
 90
        1
176
     1
 90
        1
176
     1
 90
        2
176
     1
 40
0.6
176
     1
 40
30.0
176
     1
 62
     7
420
 16777215
176
     1
 90
        1
176
     1
 90
        0
176
     1
 62
     7
176
     1
 62
   257
176
     1
 90
        1
176
     1
 90
        1
176
     1
 40
1.0
176
     1
 90
        0
176
     1
 62
   257
176
     1
 40
1.0
176
     1
 90
        1
176
     1
 90
        6
176
     1
 90
        2
176
     1
 62
     7
176
     1
 90
        5
176
     1
 90
        0
176
     1
 90
        0
176
     1
290
     0
176
     1
 90
       13
176
     1
 40
0.0
176
     1
 90
        0
176
     1
290
     0
176
     1
290
     1
176
     1
290
     1
176
     1
290
     0
176
     1
290
     0
176
     1
290
     0
176
     1
290
     0
176
     1
290
     0
176
     1
290
     0
176
     1
 90
       50
176
     1
 40
0.0
176
     1
 40
1.0
176
     1
 90
        0
176
     1
 62
    18
420
        0
176
     1
 90
       50
176
     1
 90
        3
176
     1
 62
     5
420
      255
176
     1
290
     0
176
     1
 90
       50
176
     1
 90
       50
176
     1
 90
       50
176
     1
290
     0
176
     1
 90
       50
176
     1
 62
   256
176
     0
 40
1.0
176
     0
 90
        2
176
     1
  1
strokes_ogs.tif
176
     1
290
     0
176
     1
 40
1.0
176
     1
 40
1.0
176
     1
  0
VISUALSTYLE
  5
E4
102
{ACAD_REACTORS
330
16
102
}
330
16
100
AcDbVisualStyle
  2
Gouraud
 70
     2
177
     3
291
     1
 70
    58
 90
        2
176
     1
 90
        2
176
     1
 90
        1
176
     1
 90
        2
176
     1
 40
0.6
176
     1
 40
30.0
176
     1
 62
     7
420
 16777215
176
     1
 90
        0
176
     1
 90
        0
176
     1
 62
     7
176
     1
 62
   257
176
     1
 90
        1
176
     1
 90
        1
176
     1
 40
1.0
176
     1
 90
        0
176
     1
 62
     7
176
     1
 40
1.0
176
     1
 90
        1
176
     1
 90
        6
176
     1
 90
        2
176
     1
 62
     7
176
     1
 90
        5
176
     1
 90
        0
176
     1
 90
        0
176
     1
290
     0
176
     1
 90
       13
176
     1
 40
0.0
176
     1
 90
        0
176
     1
290
     0
176
     1
290
     1
176
     1
290
     1
176
     1
290
     0
176
     1
290
     0
176
     1
290
     0
176
     1
290
     0
176
     1
290
     0
176
     1
290
     0
176
     1
 90
       50
176
     1
 40
0.0
176
     1
 40
1.0
176
     1
 90
        0
176
     1
 62
    18
420
        0
176
     1
 90
       50
176
     1
 90
        3
176
     1
 62
     5
420
      255
176
     1
290
     0
176
     1
 90
       50
176
     1
 90
       50
176
     1
 90
       50
176
     1
290
     0
176
     1
 90
       50
176
     1
 62
   256
176
     0
 40
1.0
176
     0
 90
        2
176
     1
  1
strokes_ogs.tif
176
     1
290
     0
176
     1
 40
1.0
176
     1
 40
1.0
176
     1
  0
VISUALSTYLE
  5
E5
102
{ACAD_REACTORS
330
16
102
}
330
16
100
AcDbVisualStyle
  2
GouraudWithEdges
 70
     3
177
     3
291
     1
 70
    58
 90
        2
176
     1
 90
        2
176
     1
 90
        1
176
     1
 90
        2
176
     1
 40
0.6
176
     1
 40
30.0
176
     1
 62
     7
420
 16777215
176
     1
 90
        1
176
     1
 90
        0
176
     1
 62
     7
176
     1
 62
   257
176
     1
 90
        1
176
     1
 90
        1
176
     1
 40
1.0
176
     1
 90
        0
176
     1
 62
   257
176
     1
 40
1.0
176
     1
 90
        1
176
     1
 90
        6
176
     1
 90
        2
176
     1
 62
     7
176
     1
 90
        5
176
     1
 90
        0
176
     1
 90
        0
176
     1
290
     0
176
     1
 90
       13
176
     1
 40
0.0
176
     1
 90
        0
176
     1
290
     0
176
     1
290
     1
176
     1
290
     1
176
     1
290
     0
176
     1
290
     0
176
     1
290
     0
176
     1
290
     0
176
     1
290
     0
176
     1
290
     0
176
     1
 90
       50
176
     1
 40
0.0
176
     1
 40
1.0
176
     1
 90
        0
176
     1
 62
    18
420
        0
176
     1
 90
       50
176
     1
 90
        3
176
     1
 62
     5
420
      255
176
     1
290
     0
176
     1
 90
       50
176
     1
 90
       50
176
     1
 90
       50
176
     1
290
     0
176
     1
 90
       50
176
     1
 62
   256
176
     0
 40
1.0
176
     0
 90
        2
176
     1
  1
strokes_ogs.tif
176
     1
290
     0
176
     1
 40
1.0
176
     1
 40
1.0
176
     1
  0
VISUALSTYLE
  5
E8
102
{ACAD_REACTORS
330
16
102
}
330
16
100
AcDbVisualStyle
  2
Hidden
 70
     6
177
     3
291
     0
 70
    58
 90
        1
176
     1
 90
        2
176
     1
 90
        2
176
     1
 90
        0
176
     1
 40
0.6
176
     1
 40
30.0
176
     1
 62
     7
420
 16777215
176
     1
 90
        2
176
     1
 90
        2
176
     1
 62
     7
176
     1
 62
   257
176
     1
 90
        2
176
     1
 90
        1
176
     1
 40
40.0
176
     1
 90
        0
176
     1
 62
   257
176
     1
 40
1.0
176
     1
 90
        1
176
     1
 90
        6
176
     1
 90
        2
176
     1
 62
     7
176
     1
 90
        3
176
     1
 90
        0
176
     1
 90
        0
176
     1
290
     0
176
     1
 90
        1
176
     1
 40
0.0
176
     1
 90
        0
176
     1
290
     0
176
     1
290
     1
176
     1
290
     1
176
     1
290
     0
176
     1
290
     0
176
     1
290
     0
176
     1
290
     0
176
     1
290
     0
176
     1
290
     0
176
     1
 90
       50
176
     1
 40
0.0
176
     1
 40
1.0
176
     1
 90
        0
176
     1
 62
    18
420
        0
176
     1
 90
       50
176
     1
 90
        3
176
     1
 62
     5
420
      255
176
     1
290
     0
176
     1
 90
       50
176
     1
 90
       50
176
     1
 90
       50
176
     1
290
     0
176
     1
 90
       50
176
     1
 62
   256
176
     0
 40
1.0
176
     0
 90
        2
176
     1
  1
strokes_ogs.tif
176
     1
290
     0
176
     1
 40
1.0
176
     1
 40
1.0
176
     1
  0
VISUALSTYLE
  5
F2
102
{ACAD_REACTORS
330
16
102
}
330
16
100
AcDbVisualStyle
  2
JitterOff
 70
    20
177
     3
291
     1
 70
    58
 90
        2
176
     0
 90
        2
176
     0
 90
        0
176
     0
 90
        0
176
     0
 40
0.6
176
     0
 40
30.0
176
     0
 62
     7
420
 16777215
176
     0
 90
        1
176
     0
 90
        4
176
     0
 62
     7
176
     0
 62
   257
176
     0
 90
        1
176
     0
 90
        1
176
     0
 40
1.0
176
     0
 90
       10
176
     2
 62
     7
176
     0
 40
1.0
176
     0
 90
        1
176
     0
 90
        6
176
     0
 90
        2
176
     0
 62
     7
176
     0
 90
        5
176
     0
 90
        0
176
     0
 90
        0
176
     0
290
     0
176
     0
 90
        1
176
     0
 40
0.0
176
     0
 90
        0
176
     0
290
     0
176
     0
290
     1
176
     0
290
     1
176
     0
290
     0
176
     0
290
     0
176
     0
290
     0
176
     0
290
     0
176
     0
290
     0
176
     0
290
     0
176
     0
 90
       50
176
     0
 40
0.0
176
     0
 40
1.0
176
     0
 90
        0
176
     0
 62
    18
420
        0
176
     0
 90
       50
176
     0
 90
        3
176
     0
 62
     5
420
      255
176
     0
290
     0
176
     0
 90
       50
176
     0
 90
       50
176
     0
 90
       50
176
     0
290
     0
176
     0
 90
       50
176
     0
 62
   256
176
     0
 40
1.0
176
     0
 90
        2
176
     0
  1
strokes_ogs.tif
176
     0
290
     0
176
     0
 40
1.0
176
     0
 40
1.0
176
     0
  0
VISUALSTYLE
  5
EF
102
{ACAD_REACTORS
330
16
102
}
330
16
100
AcDbVisualStyle
  2
Linepattern
 70
    14
177
     3
291
     1
 70
    58
 90
        2
176
     1
 90
        2
176
     1
 90
        0
176
     1
 90
        0
176
     1
 40
0.6
176
     1
 40
30.0
176
     1
 62
     7
420
 16777215
176
     1
 90
        1
176
     1
 90
        4
176
     1
 62
     7
176
     1
 62
   257
176
     1
 90
        7
176
     1
 90
        7
176
     1
 40
1.0
176
     1
 90
        8
176
     1
 62
     7
176
     1
 40
1.0
176
     1
 90
        1
176
     1
 90
        6
176
     1
 90
        2
176
     1
 62
     7
176
     1
 90
        5
176
     1
 90
        0
176
     1
 90
        0
176
     1
290
     0
176
     1
 90
        1
176
     1
 40
0.0
176
     1
 90
        0
176
     1
290
     0
176
     1
290
     1
176
     1
290
     1
176
     1
290
     0
176
     1
290
     0
176
     1
290
     0
176
     1
290
     0
176
     1
290
     0
176
     1
290
     0
176
     1
 90
       50
176
     1
 40
0.0
176
     1
 40
1.0
176
     1
 90
        0
176
     1
 62
    18
420
        0
176
     1
 90
       50
176
     1
 90
        3
176
     1
 62
     5
420
      255
176
     1
290
     0
176
     1
 90
       50
176
     1
 90
       50
176
     1
 90
       50
176
     1
290
     0
176
     1
 90
       50
176
     1
 62
   256
176
     0
 40
1.0
176
     0
 90
        2
176
     1
  1
strokes_ogs.tif
176
     1
290
     0
176
     1
 40
1.0
176
     1
 40
1.0
176
     1
  0
VISUALSTYLE
  5
FB
102
{ACAD_REACTORS
330
16
102
}
330
16
100
AcDbVisualStyle
  2
Modeling
 70
    10
177
     3
291
     0
 70
    58
 90
        2
176
     1
 90
        3
176
     1
 90
        0
176
     1
 90
        2
176
     1
 40
0.6
176
     1
 40
30.0
176
     1
 62
     7
420
 16777215
176
     1
 90
        2
176
     1
 90
        0
176
     1
 62
     7
176
     1
 62
   257
176
     1
 90
        1
176
     1
 90
        1
176
     1
 40
180.0
176
     1
 90
        8
176
     1
 62
     8
420
  7895160
176
     1
 40
1.0
176
     1
 90
        1
176
     1
 90
        6
176
     1
 90
        2
176
     1
 62
     7
176
     1
 90
        5
176
     1
 90
        0
176
     1
 90
        0
176
     1
290
     0
176
     1
 90
       13
176
     1
 40
0.0
176
     1
 90
        0
176
     1
290
     0
176
     1
290
     1
176
     1
290
     1
176
     1
290
     0
176
     1
290
     0
176
     1
290
     0
176
     1
290
     0
176
     1
290
     0
176
     1
290
     0
176
     1
 90
       50
176
     1
 40
0.0
176
     1
 40
1.0
176
     1
 90
        0
176
     1
 62
    18
420
        0
176
     1
 90
       50
176
     1
 90
        3
176
     1
 62
     5
420
      255
176
     1
290
     0
176
     1
 90
       50
176
     1
 90
       50
176
     1
 90
       50
176
     1
290
     0
176
     1
 90
       50
176
     1
 62
   256
176
     0
 40
1.0
176
     0
 90
        2
176
     1
  1
strokes_ogs.tif
176
     1
290
     0
176
     1
 40
1.0
176
     1
 40
1.0
176
     1
  0
VISUALSTYLE
  5
F3
102
{ACAD_REACTORS
330
16
102
}
330
16
100
AcDbVisualStyle
  2
OverhangOff
 70
    21
177
     3
291
     1
 70
    58
 90
        2
176
     0
 90
        2
176
     0
 90
        0
176
     0
 90
        0
176
     0
 40
0.6
176
     0
 40
30.0
176
     0
 62
     7
420
 16777215
176
     0
 90
        1
176
     0
 90
        4
176
     0
 62
     7
176
     0
 62
   257
176
     0
 90
        1
176
     0
 90
        1
176
     0
 40
1.0
176
     0
 90
        9
176
     2
 62
     7
176
     0
 40
1.0
176
     0
 90
        1
176
     0
 90
        6
176
     0
 90
        2
176
     0
 62
     7
176
     0
 90
        5
176
     0
 90
        0
176
     0
 90
        0
176
     0
290
     0
176
     0
 90
        1
176
     0
 40
0.0
176
     0
 90
        0
176
     0
290
     0
176
     0
290
     1
176
     0
290
     1
176
     0
290
     0
176
     0
290
     0
176
     0
290
     0
176
     0
290
     0
176
     0
290
     0
176
     0
290
     0
176
     0
 90
       50
176
     0
 40
0.0
176
     0
 40
1.0
176
     0
 90
        0
176
     0
 62
    18
420
        0
176
     0
 90
       50
176
     0
 90
        3
176
     0
 62
     5
420
      255
176
     0
290
     0
176
     0
 90
       50
176
     0
 90
       50
176
     0
 90
       50
176
     0
290
     0
176
     0
 90
       50
176
     0
 62
   256
176
     0
 40
1.0
176
     0
 90
        2
176
     0
  1
strokes_ogs.tif
176
     0
290
     0
176
     0
 40
1.0
176
     0
 40
1.0
176
     0
  0
VISUALSTYLE
  5
EA
102
{ACAD_REACTORS
330
16
102
}
330
16
100
AcDbVisualStyle
  2
Realistic
 70
     8
177
     3
291
     0
 70
    58
 90
        2
176
     1
 90
        3
176
     1
 90
        0
176
     1
 90
        2
176
     1
 40
0.6
176
     1
 40
30.0
176
     1
 62
     7
420
 16777215
176
     1
 90
        0
176
     1
 90
        0
176
     1
 62
     7
176
     1
 62
   257
176
     1
 90
        1
176
     1
 90
        1
176
     1
 40
1.0
176
     1
 90
        8
176
     1
 62
   257
176
     1
 40
1.0
176
     1
 90
        1
176
     1
 90
        6
176
     1
 90
        2
176
     1
 62
     7
176
     1
 90
        3
176
     1
 90
        0
176
     1
 90
        0
176
     1
290
     0
176
     1
 90
       13
176
     1
 40
0.0
176
     1
 90
        0
176
     1
290
     0
176
     1
290
     1
176
     1
290
     1
176
     1
290
     0
176
     1
290
     0
176
     1
290
     0
176
     1
290
     0
176
     1
290
     0
176
     1
290
     0
176
     1
 90
       50
176
     1
 40
0.0
176
     1
 40
1.0
176
     1
 90
        0
176
     1
 62
    18
420
        0
176
     1
 90
       50
176
     1
 90
        3
176
     1
 62
     5
420
      255
176
     1
290
     0
176
     1
 90
       50
176
     1
 90
       50
176
     1
 90
       50
176
     1
290
     0
176
     1
 90
       50
176
     1
 62
   256
176
     0
 40
1.0
176
     0
 90
        2
176
     1
  1
strokes_ogs.tif
176
     1
290
     0
176
     1
 40
1.0
176
     1
 40
1.0
176
     1
  0
VISUALSTYLE
  5
F9
102
{ACAD_REACTORS
330
16
102
}
330
16
100
AcDbVisualStyle
  2
Shaded
 70
    27
177
     3
291
     0
 70
    58
 90
        2
176
     1
 90
        2
176
     1
 90
        1
176
     1
 90
        2
176
     1
 40
0.6
176
     1
 40
30.0
176
     1
 62
     7
420
 16777215
176
     1
 90
        0
176
     1
 90
        4
176
     1
 62
     7
176
     1
 62
   257
176
     1
 90
        1
176
     1
 90
        1
176
     1
 40
1.0
176
     1
 90
        8
176
     1
 62
   257
176
     1
 40
1.0
176
     1
 90
        1
176
     1
 90
        6
176
     1
 90
        2
176
     1
 62
     8
420
  7895160
176
     1
 90
        3
176
     1
 90
        0
176
     1
 90
        0
176
     1
290
     0
176
     1
 90
        5
176
     1
 40
0.0
176
     1
 90
        0
176
     1
290
     0
176
     1
290
     1
176
     1
290
     1
176
     1
290
     0
176
     1
290
     0
176
     1
290
     0
176
     1
290
     0
176
     1
290
     0
176
     1
290
     0
176
     1
 90
       50
176
     1
 40
0.0
176
     1
 40
1.0
176
     1
 90
        0
176
     1
 62
    18
420
        0
176
     1
 90
       50
176
     1
 90
        3
176
     1
 62
     5
420
      255
176
     1
290
     0
176
     1
 90
       50
176
     1
 90
       50
176
     1
 90
       50
176
     1
290
     0
176
     1
 90
       50
176
     1
 62
   256
176
     0
 40
1.0
176
     0
 90
        2
176
     1
  1
strokes_ogs.tif
176
     1
290
     0
176
     1
 40
1.0
176
     1
 40
1.0
176
     1
  0
VISUALSTYLE
  5
F8
102
{ACAD_REACTORS
330
16
102
}
330
16
100
AcDbVisualStyle
  2
Shaded with edges
 70
    26
177
     3
291
     0
 70
    58
 90
        2
176
     1
 90
        2
176
     1
 90
        1
176
     1
 90
        2
176
     1
 40
0.6
176
     1
 40
30.0
176
     1
 62
     7
420
 16777215
176
     1
 90
        1
176
     1
 90
       10
176
     1
 62
     7
176
     1
 62
   257
176
     1
 90
        2
176
     1
 90
        1
176
     1
 40
1.0
176
     1
 90
        8
176
     1
 62
   257
176
     1
 40
1.0
176
     1
 90
        1
176
     1
 90
        6
176
     1
 90
        2
176
     1
 62
     7
176
     1
 90
        3
176
     1
 90
        0
176
     1
 90
        0
176
     1
290
     0
176
     1
 90
        5
176
     1
 40
0.0
176
     1
 90
        0
176
     1
290
     0
176
     1
290
     1
176
     1
290
     1
176
     1
290
     0
176
     1
290
     0
176
     1
290
     0
176
     1
290
     0
176
     1
290
     0
176
     1
290
     0
176
     1
 90
       50
176
     1
 40
0.0
176
     1
 40
1.0
176
     1
 90
        0
176
     1
 62
    18
420
        0
176
     1
 90
       50
176
     1
 90
        3
176
     1
 62
     5
420
      255
176
     1
290
     0
176
     1
 90
       50
176
     1
 90
       50
176
     1
 90
       50
176
     1
290
     0
176
     1
 90
       50
176
     1
 62
   256
176
     0
 40
1.0
176
     0
 90
        2
176
     1
  1
strokes_ogs.tif
176
     1
290
     0
176
     1
 40
1.0
176
     1
 40
1.0
176
     1
  0
VISUALSTYLE
  5
F5
102
{ACAD_REACTORS
330
16
102
}
330
16
100
AcDbVisualStyle
  2
Shades of Gray
 70
    23
177
     3
291
     0
 70
    58
 90
        2
176
     1
 90
        2
176
     1
 90
        3
176
     1
 90
        0
176
     1
 40
0.6
176
     1
 40
30.0
176
     1
 62
     7
420
 16777215
176
     1
 90
        2
176
     1
 90
        2
176
     1
 62
     7
176
     1
 62
     7
176
     1
 90
        1
176
     1
 90
        1
176
     1
 40
40.0
176
     1
 90
        8
176
     1
 62
     7
176
     1
 40
1.0
176
     1
 90
        1
176
     1
 90
        6
176
     1
 90
        2
176
     1
 62
     7
176
     1
 90
        3
176
     1
 90
        0
176
     1
 90
        0
176
     1
290
     0
176
     1
 90
        1
176
     1
 40
0.0
176
     1
 90
        0
176
     1
290
     0
176
     1
290
     1
176
     1
290
     1
176
     1
290
     0
176
     1
290
     0
176
     1
290
     0
176
     1
290
     0
176
     1
290
     0
176
     1
290
     0
176
     1
 90
       50
176
     1
 40
0.0
176
     1
 40
1.0
176
     1
 90
        0
176
     1
 62
    18
420
        0
176
     1
 90
       50
176
     1
 90
        3
176
     1
 62
     5
420
      255
176
     1
290
     0
176
     1
 90
       50
176
     1
 90
       50
176
     1
 90
       50
176
     1
290
     0
176
     1
 90
       50
176
     1
 62
   256
176
     0
 40
1.0
176
     0
 90
        2
176
     1
  1
strokes_ogs.tif
176
     1
290
     0
176
     1
 40
1.0
176
     1
 40
1.0
176
     1
  0
VISUALSTYLE
  5
F6
102
{ACAD_REACTORS
330
16
102
}
330
16
100
AcDbVisualStyle
  2
Sketchy
 70
    24
177
     3
291
     0
 70
    58
 90
        1
176
     1
 90
        2
176
     1
 90
        2
176
     1
 90
        0
176
     1
 40
0.6
176
     1
 40
30.0
176
     1
 62
     7
420
 16777215
176
     1
 90
        2
176
     1
 90
        2
176
     1
 62
     7
176
     1
 62
     7
176
     1
 90
        1
176
     1
 90
        1
176
     1
 40
40.0
176
     1
 90
       11
176
     1
 62
     7
176
     1
 40
1.0
176
     1
 90
        1
176
     1
 90
        6
176
     1
 90
        2
176
     1
 62
     7
176
     1
 90
        6
176
     1
 90
        0
176
     1
 90
        0
176
     1
290
     0
176
     1
 90
        1
176
     1
 40
0.0
176
     1
 90
        0
176
     1
290
     0
176
     1
290
     1
176
     1
290
     1
176
     1
290
     0
176
     1
290
     0
176
     1
290
     0
176
     1
290
     0
176
     1
290
     0
176
     1
290
     0
176
     1
 90
       50
176
     1
 40
0.0
176
     1
 40
1.0
176
     1
 90
        0
176
     1
 62
    18
420
        0
176
     1
 90
       50
176
     1
 90
        3
176
     1
 62
     5
420
      255
176
     1
290
     0
176
     1
 90
       50
176
     1
 90
       50
176
     1
 90
       50
176
     1
290
     0
176
     1
 90
       50
176
     1
 62
   256
176
     0
 40
1.0
176
     0
 90
        2
176
     1
  1
strokes_ogs.tif
176
     1
290
     0
176
     1
 40
1.0
176
     1
 40
1.0
176
     1
  0
VISUALSTYLE
  5
EE
102
{ACAD_REACTORS
330
16
102
}
330
16
100
AcDbVisualStyle
  2
Thicken
 70
    13
177
     3
291
     1
 70
    58
 90
        2
176
     1
 90
        2
176
     1
 90
        0
176
     1
 90
        0
176
     1
 40
0.6
176
     1
 40
30.0
176
     1
 62
     7
420
 16777215
176
     1
 90
        1
176
     1
 90
        4
176
     1
 62
     7
176
     1
 62
   257
176
     1
 90
        1
176
     1
 90
        1
176
     1
 40
1.0
176
     1
 90
       12
176
     1
 62
     7
176
     1
 40
1.0
176
     1
 90
        1
176
     1
 90
        6
176
     1
 90
        2
176
     1
 62
     7
176
     1
 90
        5
176
     1
 90
        0
176
     1
 90
        0
176
     1
290
     0
176
     1
 90
        1
176
     1
 40
0.0
176
     1
 90
        0
176
     1
290
     0
176
     1
290
     1
176
     1
290
     1
176
     1
290
     0
176
     1
290
     0
176
     1
290
     0
176
     1
290
     0
176
     1
290
     0
176
     1
290
     0
176
     1
 90
       50
176
     1
 40
0.0
176
     1
 40
1.0
176
     1
 90
        0
176
     1
 62
    18
420
        0
176
     1
 90
       50
176
     1
 90
        3
176
     1
 62
     5
420
      255
176
     1
290
     0
176
     1
 90
       50
176
     1
 90
       50
176
     1
 90
       50
176
     1
290
     0
176
     1
 90
       50
176
     1
 62
   256
176
     0
 40
1.0
176
     0
 90
        2
176
     1
  1
strokes_ogs.tif
176
     1
290
     0
176
     1
 40
1.0
176
     1
 40
1.0
176
     1
  0
VISUALSTYLE
  5
E7
102
{ACAD_REACTORS
330
16
102
}
330
16
100
AcDbVisualStyle
  2
Wireframe
 70
     5
177
     3
291
     0
 70
    58
 90
        0
176
     1
 90
        2
176
     1
 90
        0
176
     1
 90
        0
176
     1
 40
0.6
176
     1
 40
30.0
176
     1
 62
     7
420
 16777215
176
     1
 90
        1
176
     1
 90
        4
176
     1
 62
     7
176
     1
 62
   257
176
     1
 90
        1
176
     1
 90
        1
176
     1
 40
1.0
176
     1
 90
        0
176
     1
 62
   257
176
     1
 40
1.0
176
     1
 90
        1
176
     1
 90
        6
176
     1
 90
        2
176
     1
 62
     7
176
     1
 90
        3
176
     1
 90
        0
176
     1
 90
        0
176
     1
290
     0
176
     1
 90
        1
176
     1
 40
0.0
176
     1
 90
        0
176
     1
290
     0
176
     1
290
     1
176
     1
290
     1
176
     1
290
     0
176
     1
290
     0
176
     1
290
     0
176
     1
290
     0
176
     1
290
     0
176
     1
290
     0
176
     1
 90
       50
176
     1
 40
0.0
176
     1
 40
1.0
176
     1
 90
        0
176
     1
 62
    18
420
        0
176
     1
 90
       50
176
     1
 90
        3
176
     1
 62
     5
420
      255
176
     1
290
     0
176
     1
 90
       50
176
     1
 90
       50
176
     1
 90
       50
176
     1
290
     0
176
     1
 90
       50
176
     1
 62
   256
176
     0
 40
1.0
176
     0
 90
        2
176
     1
  1
strokes_ogs.tif
176
     1
290
     0
176
     1
 40
1.0
176
     1
 40
1.0
176
     1
  0
VISUALSTYLE
  5
F7
102
{ACAD_REACTORS
330
16
102
}
330
16
100
AcDbVisualStyle
  2
X-Ray
 70
    25
177
     3
291
     0
 70
    58
 90
        2
176
     1
 90
        2
176
     1
 90
        1
176
     1
 90
        1
176
     1
 40
0.5
176
     1
 40
30.0
176
     1
 62
     7
420
 16777215
176
     1
 90
        1
176
     1
 90
        0
176
     1
 62
     7
176
     1
 62
   257
176
     1
 90
        1
176
     1
 90
        1
176
     1
 40
1.0
176
     1
 90
        8
176
     1
 62
     7
176
     1
 40
1.0
176
     1
 90
        1
176
     1
 90
        6
176
     1
 90
        2
176
     1
 62
     7
176
     1
 90
        3
176
     1
 90
        0
176
     1
 90
        0
176
     1
290
     0
176
     1
 90
       13
176
     1
 40
0.0
176
     1
 90
        0
176
     1
290
     0
176
     1
290
     1
176
     1
290
     1
176
     1
290
     0
176
     1
290
     0
176
     1
290
     0
176
     1
290
     0
176
     1
290
     0
176
     1
290
     0
176
     1
 90
       50
176
     1
 40
0.0
176
     1
 40
1.0
176
     1
 90
        0
176
     1
 62
    18
420
        0
176
     1
 90
       50
176
     1
 90
        3
176
     1
 62
     5
420
      255
176
     1
290
     0
176
     1
 90
       50
176
     1
 90
       50
176
     1
 90
       50
176
     1
290
     0
176
     1
 90
       50
176
     1
 62
   256
176
     0
 40
1.0
176
     0
 90
        2
176
     1
  1
strokes_ogs.tif
176
     1
290
     0
176
     1
 40
1.0
176
     1
 40
1.0
176
     1
  0
DICTIONARYVAR
  5
FE
102
{ACAD_REACTORS
330
FD
102
}
330
FD
100
DictionaryVariables
280
     0
  1
1:1
  0
DICTIONARYVAR
  5
103
102
{ACAD_REACTORS
330
FD
102
}
330
FD
100
DictionaryVariables
280
     0
  1
Standard
  0
DICTIONARYVAR
  5
102
102
{ACAD_REACTORS
330
FD
102
}
330
FD
100
DictionaryVariables
280
     0
  1
Standard
  0
DICTIONARYVAR
  5
104
102
{ACAD_REACTORS
330
FD
102
}
330
FD
100
DictionaryVariables
280
     0
  1
0
  0
DICTIONARYVAR
  5
105
102
{ACAD_REACTORS
330
FD
102
}
330
FD
100
DictionaryVariables
280
     0
  1
1
  0
DICTIONARY
  5
ECB
330
FA
100
AcDbDictionary
280
     1
281
     1
  3
ACAD_ROUNDTRIP_2008_TABLESTYLE_CELLSTYLEMAP
360
ECC
  0
CELLSTYLEMAP
  5
ECC
102
{ACAD_REACTORS
330
ECB
102
}
330
ECB
100
AcDbCellStyleMap
 90
        3
300
CELLSTYLE
  1
TABLEFORMAT_BEGIN
 90
        5
170
     1
 91
        0
 92
    32768
 62
   257
 93
        1
300
CONTENTFORMAT
  1
CONTENTFORMAT_BEGIN
 90
        0
 91
        0
 92
        4
 93
        0
300

 40
0.0
140
1.0
 94
        5
 62
     0
340
29
144
6.0
309
CONTENTFORMAT_END
171
     1
301
MARGIN
  1
CELLMARGIN_BEGIN
 40
1.5
 40
1.5
 40
1.5
 40
1.5
 40
1.5
 40
1.5
309
CELLMARGIN_END
 94
        6
 95
        1
302
GRIDFORMAT
  1
GRIDFORMAT_BEGIN
 90
        0
 91
        1
 62
     0
 92
       -2
340
24
 93
        0
 40
0.045
309
GRIDFORMAT_END
 95
        2
302
GRIDFORMAT
  1
GRIDFORMAT_BEGIN
 90
        0
 91
        1
 62
     0
 92
       -2
340
24
 93
        0
 40
0.045
309
GRIDFORMAT_END
 95
        4
302
GRIDFORMAT
  1
GRIDFORMAT_BEGIN
 90
        0
 91
        1
 62
     0
 92
       -2
340
24
 93
        0
 40
0.045
309
GRIDFORMAT_END
 95
        8
302
GRIDFORMAT
  1
GRIDFORMAT_BEGIN
 90
        0
 91
        1
 62
     0
 92
       -2
340
24
 93
        0
 40
0.045
309
GRIDFORMAT_END
 95
       16
302
GRIDFORMAT
  1
GRIDFORMAT_BEGIN
 90
        0
 91
        1
 62
     0
 92
       -2
340
24
 93
        0
 40
0.045
309
GRIDFORMAT_END
 95
       32
302
GRIDFORMAT
  1
GRIDFORMAT_BEGIN
 90
        0
 91
        1
 62
     0
 92
       -2
340
24
 93
        0
 40
0.045
309
GRIDFORMAT_END
309
TABLEFORMAT_END
  1
CELLSTYLE_BEGIN
 90
        1
 91
        1
300
_TITLE
309
CELLSTYLE_END
300
CELLSTYLE
  1
TABLEFORMAT_BEGIN
 90
        5
170
     1
 91
        0
 92
        0
 62
   257
 93
        1
300
CONTENTFORMAT
  1
CONTENTFORMAT_BEGIN
 90
        0
 91
        0
 92
        4
 93
        0
300

 40
0.0
140
1.0
 94
        5
 62
     0
340
29
144
4.5
309
CONTENTFORMAT_END
171
     1
301
MARGIN
  1
CELLMARGIN_BEGIN
 40
1.5
 40
1.5
 40
1.5
 40
1.5
 40
1.5
 40
1.5
309
CELLMARGIN_END
 94
        6
 95
        1
302
GRIDFORMAT
  1
GRIDFORMAT_BEGIN
 90
        0
 91
        1
 62
     0
 92
       -2
340
24
 93
        0
 40
0.045
309
GRIDFORMAT_END
 95
        2
302
GRIDFORMAT
  1
GRIDFORMAT_BEGIN
 90
        0
 91
        1
 62
     0
 92
       -2
340
24
 93
        0
 40
0.045
309
GRIDFORMAT_END
 95
        4
302
GRIDFORMAT
  1
GRIDFORMAT_BEGIN
 90
        0
 91
        1
 62
     0
 92
       -2
340
24
 93
        0
 40
0.045
309
GRIDFORMAT_END
 95
        8
302
GRIDFORMAT
  1
GRIDFORMAT_BEGIN
 90
        0
 91
        1
 62
     0
 92
       -2
340
24
 93
        0
 40
0.045
309
GRIDFORMAT_END
 95
       16
302
GRIDFORMAT
  1
GRIDFORMAT_BEGIN
 90
        0
 91
        1
 62
     0
 92
       -2
340
24
 93
        0
 40
0.045
309
GRIDFORMAT_END
 95
       32
302
GRIDFORMAT
  1
GRIDFORMAT_BEGIN
 90
        0
 91
        1
 62
     0
 92
       -2
340
24
 93
        0
 40
0.045
309
GRIDFORMAT_END
309
TABLEFORMAT_END
  1
CELLSTYLE_BEGIN
 90
        2
 91
        1
300
_HEADER
309
CELLSTYLE_END
300
CELLSTYLE
  1
TABLEFORMAT_BEGIN
 90
        5
170
     1
 91
        0
 92
        0
 62
   257
 93
        1
300
CONTENTFORMAT
  1
CONTENTFORMAT_BEGIN
 90
        0
 91
        0
 92
        4
 93
        0
300

 40
0.0
140
1.0
 94
        2
 62
     0
340
29
144
4.5
309
CONTENTFORMAT_END
171
     1
301
MARGIN
  1
CELLMARGIN_BEGIN
 40
1.5
 40
1.5
 40
1.5
 40
1.5
 40
1.5
 40
1.5
309
CELLMARGIN_END
 94
        6
 95
        1
302
GRIDFORMAT
  1
GRIDFORMAT_BEGIN
 90
        0
 91
        1
 62
     0
 92
       -2
340
24
 93
        0
 40
0.045
309
GRIDFORMAT_END
 95
        2
302
GRIDFORMAT
  1
GRIDFORMAT_BEGIN
 90
        0
 91
        1
 62
     0
 92
       -2
340
24
 93
        0
 40
0.045
309
GRIDFORMAT_END
 95
        4
302
GRIDFORMAT
  1
GRIDFORMAT_BEGIN
 90
        0
 91
        1
 62
     0
 92
       -2
340
24
 93
        0
 40
0.045
309
GRIDFORMAT_END
 95
        8
302
GRIDFORMAT
  1
GRIDFORMAT_BEGIN
 90
        0
 91
        1
 62
     0
 92
       -2
340
24
 93
        0
 40
0.045
309
GRIDFORMAT_END
 95
       16
302
GRIDFORMAT
  1
GRIDFORMAT_BEGIN
 90
        0
 91
        1
 62
     0
 92
       -2
340
24
 93
        0
 40
0.045
309
GRIDFORMAT_END
 95
       32
302
GRIDFORMAT
  1
GRIDFORMAT_BEGIN
 90
        0
 91
        1
 62
     0
 92
       -2
340
24
 93
        0
 40
0.045
309
GRIDFORMAT_END
309
TABLEFORMAT_END
  1
CELLSTYLE_BEGIN
 90
        3
 91
        2
300
_DATA
309
CELLSTYLE_END
  0
ENDSEC
  0
SECTION
  2
THUMBNAILIMAGE
 90
     6376
310
28000000400000002100000001001800000000000000000000000000000000000000000000000000000000000000000000000000000000000000000000000000000000000000000000000000000000000000000000000000000000000000000000000000000000000000000000000000000000000000000000000000000000
310
00000000000000000000000000000000000000000000000000000000000000000000000000000000000000000000000000000000000000000000000000000000000000000000000000000000000000000000000000000000000000000000000000000000000000000000000000000000000000000000000000000000000000
310
00000000000000000000000000000000000000000000000000000000000000000000000000000000000000000000000000000000000000000000000000000000000000000000000000000000000000000000000000000000000000000000000000000000000000000000000000000000000000000000000000000000000000
310
00000000000000000000000000000000000000000000000000000000000000000000000000000000000000000000000000000000000000000000000000000000000000000000000000000000000000000000000000000000000000000000000000000000000000000000000000000000000000000000000000000000000000
310
00000000000000000000000000000000000000000000000000000000000000000000000000000000000000000000000000000000000000000000000000000000000000000000000000000000000000000000000000000000000000000000000000000000000000000000000000000000000000000000000000000000000000
310
00000000000000000000000000000000000000000000000000000000000000000000000000000000000000000000000000000000000000000000000000000000000000000000000000000000000000000000000000000000000000000000000000000000000000000000000000000000000000000000000000000000000000
310
00000000000000000000000000000000000000000000000000000000000000000000000000000000000000000000000000000000000000000000000000000000000000000000000000000000000000000000000000000000000000000000000000000000000000000000000000000000000000000000000000000000000000
310
00000000000000000000000000000000000000000000000000000000000000000000000000000000000000000000000000000000000000000000000000000000000000000000000000000000000000000000000000000000000000000000000000000000000000000000000000000000000000000000000000000000000000
310
0000000000780000380000000000000000000000000000000000000000000000000000000000000000000000000000000000000000000000AF00000000000000000000000000000000000000000000000000000000000000000000000000000000000000002000008F00000000000000000000000000000000000000000000
310
000000000000000000000000000000000000000000000000000000005000006000000000000000000000000000000000000000000000000000000000000000000000009F000000FFFFFF0000400000000000000000000000000000000000000000000000000000000000000000000000000000080000D7000000FFFFD70000
310
080000000000000000000000000000000000000000000000000000000000000000000000280000F9000000FFFF9F000000000000000000000000000000000000000000000000000000000000000000000000000000000000000060000000FFFFFF0000600000000000000000000000000000000000384B0040600040240040
310
00004000004000007C0000580000280000000000000000000000000000000000000000007000087C00401800400000400000400000400000400000940000400000180000000000000000000000000000000000000000183A004060004054004000004000004000004C00008800004000000800000000000000000000000000
310
00000000000000004000008000305B004000004000004000004000004000006400007000003800000000000000000000000000000808009F6060D82700EA1500FF0000BF4040EF1010FD0202FF000078878740000027000000000000000000000000180000C50020DF00B74848FF0000FF0000FF0000BF4040F10E0EFF0000
310
FF000048B7B740000017000000000000000000000000000048B7B7D82700DE2100FD0200BF4040E11E1EE71818FF0000B748486D0000460000000000000000000000000000000000006A0000CF008F7070FF0000FF0000FF0000BF4040DF2020EF1010FF00009F606046000036000000000000000018000000FFFFCF0000CF
310
0000CF00005C949400FFFF737777CF0000CF000040BFBF00FFFF00000000000000000000000000000008F7F700FFFFCF0000CF0000CF000030CDCD00FFFFAE2B2BCF0000CF0000DA000000FFFF00000000000000000000000000FFFF40BFBFCF0000CF0000B71F1F00FFFF43B7B7CF0000CF0000CF000000FFFF9200000000
310
0000000000000000000000000000000000FFFFCF0000CF0000CF00008E545400FFFF648C8CCF0000CF0000CF000000FFFF00FFFF00000027000000FFFFDF0000DF0000DF000071838300FFFF8D6262DF0000DF0000DF000000FFFF00000000000000000000000000000020DFDF00FFFFDF0000DF0000DF000046B7B700FFFF
310
C22323DF0000DF0000E7000000FFFF00000000000000000000000000FFFF807F7FDF0000DF0000CF141400FFFF669595DF0000DF0000DF000000FFFFA5000000000000000000000000000000000000000000FFFFDF0000DF0000DF0000AE3C3C00FFFF876D6DDF0000DF0000DF000000FFFF08F7F700000000000000FF0080
310
000080000080000068303000FFFF8C202088000080000080000000FFFF00000000000000000000000000000000FFFF00FF008000008000008000005B505000FFFFA3080880000080000084000000FFFF00000000000000000000000000FFFF00FF008000008000007C080800FFFF3B9292A4000080000080000000FFFF1F00
310
0000000000000000000000000000000000000000FF008000008000008000006C282800FFFF5B5D5D98000080000080000000FFFF000000000000000000000000000000000000000000000000496D0000FFFF2CCB00312000000000000000000000000000000000000000000000000000000000000000000000000000000000
310
41A10000FFFF41A1000000000000000000000000000000000000000000000000000000000000000000000000001E10000BF20000FFFF3E84000000000000000000000000000000000000000000000000000000000000000000000000000000000000003C400000FFFF00FF003C400000000000000000000000000000000000
310
00000000000000000000000000001C20005580003F70000800000000000000000000000000000000000000000000000000000000000000000000000000000000002440006D80002440000000000000000000000000000000000000000000000010000040000040000040000040000010004938008E40001D18000000000000
310
000000000000000000000038000040000040000040000028000000000000000000000000000F08006640006F40000F0800000000000000000000000000080800DF2020FF0000FF0000FF0000FF0000FF0000FF0000FF0000C3000000000000000000000000960000FF0000FF0000FF0020DF00FF0000FF0000FF0000FF0000
310
FF0000FF0000FF0000FF0000880000000000000000000000000000000000000000609F9FFF0000FF0000FF0000FF0000FF0000FF0000FF0000FF00003C000000000000000000000000200000F90000FF0000FF0000FF00BF4040FF0000FF0000FF0000FF0000FF0000FF0000FF0000DF200008000000000000000000000008
310
080800FFFF28D2CF5C9992787D6D00FFFF00FFFF2ACFCF7B845B00FFFF24CFCF00FFFF000000001000004000005E2800DACD09F6CF00FFFFDF0000DF000046B3AB00FFFF00FFFF33C5C5CA181800FFFFAE202000FFFF00CFCF00929200000000000000FFFF00FFFF00FFFFAA3C3C00FFFF00FFFF00FFFF25D5D500FFFF00FF
310
FF00FFFF45505000000000000000000000000000CCCC00FFFF00FFFFDF0000DF000098535000FFFF00FFFF00FFFF5C969600FFFFBF000000FFFF00FFFF00FFFF1E101000FFFF30CFCF837C7C97686830CFCF00FFFF30CFCFB7484850AFAF30CFCF00FFFF00000000000000000000272700FFFF00FFFF00FFFFFF0000FF0000
310
619E9E30CFCF00FFFF3CC3C3F30C0CFF0000E7181800FFFF00FFFF00BCBC00000000000000FFFF30CFCF43BCBCE8171741BEBE00FFFF30CFCF649B9B9C636334CBCB00FFFF61656500000000000000000000000000B0B000FFFF00FFFFFF0000FF0000CF303034CBCB00FFFF30CFCF9C6363FF0000FF000000FFFF00FFFF00
310
F5F507170F00FF0D00FF002BC709953A3A05F9F900FFFF0AF3F3A7202083555500FFFF00FFFF00000000000000000000000000AAAA00FFC700FF0000FF00627C0068787800FFFF00FFFF1FD7D7BF0000BF0000AE202000FFFF00F5F5002E2E00000000000000FF8300FF0000FF0095380031C0C000FFFF00FFFF627F7FB90A
310
0A0AF2F200FFFF415858000000000000000000000000002E2E00FAFA00FF2300FF000AF200B310080AF2F200FFFF00FFFF953A3ABF0000BF000000FFFF00FFFF00ADAD0000000030CF777600545D00202A000000000000002800000800000000000000000000000000000000000000000000000000002822000040BF6B7D00
310
426D000A7C000020000000003000000000000000000000000000000000000000000000000000000010EF8F6B00608000346A00007B000008000000003000000000000000000000000000000000000000000000000000000000000000000028D77D7300546A00282F0000000000000010000020000000000000000000000000
310
00000000000000002023005F6C00916800AF500000FFFF512C0029CD002EBC002E080000000000000000000000000000000000000000000000200012B90037C300708F00AF500008F7F73F790030CF003F790008000000000000000000000000000000000000000006460010CA0044BA00807F0000FFFF705C0035AB002ACF
310
00484000000000000000000000000000000000000000000000000000000000181D00576B008C6A00AA540000FFFF4431002CC5002CC5003A18000000000000000000000000000000000000FFDF20009F6000609F0020B4003C160000FFFF5E7000100000000000000000000000000000000000000000000000283D000000FF
310
CF2E008F5300504D0010160048400000FFFF4840000000000000000000000000000000000000000000000000FFFF0000BF3B008055004048000808005A600000FFFF3820000000000000000000000000000000000000000000000000000000000000FFE71800A7580068970028C4001F2A0000FFFF6478001F080000000000
310
0000000000000000080800AF5050BF4000BF4000BF4000D61200DF0000E00000DF0000AD000000000000000000000000000000CE0000FF0000FF0028D700BF4040DF0000DF0000DF0000DF0000DF0000E00000DF000077000000000000000000000000000000000000000058A7A7BF4000BF4000BF4000C53300DF0000DF00
310
00E00000DF000035000000000000000000000000000000680000FF0000FF0000FF009F6060DF1400DF0B00DF0300DF0000DF0000DF0000E00000D2000008000000000000000000000008080828D7D75E9D9BA64E465F9C9A40BFBF6B8E8E8B69695F9B9B18E7E700000000000000000000000000280000400000C0AB08F7CF
310
38C7C7E70000A14F4F609B9B40BFBF807676E70000D5181808F7F700CDCD00282800000000000000000000000008F7F740BFBF5F9D9A5F9D9A40BFBF40BFBF7D7A7A40BFBF38C7C736303000000000000000000000000000080000400000916D00FFFF20DFDFE70000CD1E1E44BBBB40BFBF40BFBFBD3030E7000028D7D700
310
FFFF00C5C500000000000026080800FFFF00FFFF7B6F6F00FFFF00FFFF09F5F54BA8A800FFFF00FFFF00000000000000000000000000000000000000DBDB00FFFF00FFFFCF000065888800FFFF00FFFF2ECACACF0000AE3B3B00FFFF00FCFC003C3C00000000000000000000000000FFFF00FFFF35C0C035C0C000FFFF00FF
310
FF5C909005F9F900FFFF5E383800000000000000000000000000000000000000626200FFFF00FFFFCF0000B5202005F9F900FFFF00FFFFA23A3ACF000000FFFF00FFFF00ADAD0000000000000E170700FF3D07F8298E71050DF2F200FFFF23DCDCC7383800FFFF00FFFF000000000000000000000000000000000000006D6D
310
00FFC700FF3234CB00926D4D00FFFF00FFFF619E9EFF0000C7383800FFFF00CCCC00000000000000000000000000000000FF9200FF302CD31A5AA5A500FFFF00FFFFBF40403AC5C500FFFF38404000000000000000000000000000000000000000171700F5F500FF4630CF007788001CE3E300FFFF0DF2F2EF1010FF000000
310
FFFF00FFFF00525200000000000000100000F80000FF0000FF0000400000000000000000000000000000000000000000000000000000000000000000000000000000460000FF0000FF0000FF0000FF0000FF0000FF0000FA00002800000000000000000000000000000000000000000000009A0300FF0000FF0000FF0000FF
310
0000FF0000FF0000FF0000BD1200000000000000000000000000000000000000000000000000282800F10200FF0000FF0000FB01005E3600282800000000000000181800383800000000000000000000080000AE0000CF0000C700002000000000000000000000000000000000000000000000000000000000000000000000
310
00000000200000C70000CF0000CF0000CF0000CF0000CF0000BE00001000000000000000000000000000000000000000000000004E0000CF0000CF0000CF0000CF0000CF0000CF0000CF00006A00000000000000000000000000000000000000000000000000000000009D0000CF0000CF0000BE0000100000000000000000
310
00000000000000000000000000000000000000000000000000000000000000000000000000000000000000000000000000000000000000000000000000000000000000000000000000000000000000000000000000000000000000000000000000000000000000000000000000000000000000000000000000000000000000
310
00000000000000000000000000000000000000000000000000000000000000000000000000000000000000000000000000000000000000000000000000000000000000000000000000000000000000000000000000000000000000000000000000000000000000000000000000000000000000000000000000000000000000
310
00000000000000000000000000000000000000000000000000000000000000000000000000000000000000000000000000000000000000000000000000000000000000000000000000000000000000000000000000000000000000000000000000000000000000000000000000000000000000000000000000000000000000
310
00000000000000000000000000000000000000000000000000000000000000000000000000000000000000000000000000000000000000000000000000000000000000000000000000000000000000000000000000000000000000000000000000000000000000000000000000000000000000000000000000000000000000
310
00000000000000000000000000000000000000000000000000000000000000000000000000000000000000000000000000000000000000000000000000000000000000000000000000000000000000000000000000000000000000000000000000000000000000000000000000000000000000000000000000000000000000
310
00000000000000000000000000000000000000000000000000000000000000000000000000000000000000000000000000000000000000000000000000000000000000000000000000000000000000000000000000000000000000000000000000000000000000000000000000000000000000000000000000000000000000
310
00000000000000000000000000000000000000000000000000000000000000000000000000000000000000000000000000000000000000000000000000000000000000000000000000000000000000000000000000000000000000000000000000000000000000000000000000000000000000000000000000000000000000
310
00000000000000000000000000000000000000000000000000000000000000000000000000000000000000000000000000000000000000000000000000000000000000000000000000000000000000000000000000000000000000000000000000000000000000000000000000000000000000000000000000000000000000
310
00000000000000000000000000000000000000000000000000000000000000000000000000000000000000000000000000000000000000000000000000000000000000000000000000000000000000000000000000000000000000000000000000000000000000000000000000000000000000000000000000000000000000
310
0000000000000000000000000000000000000000000000000000
  0
ENDSEC
  0
EOF
