  0
SECTION
  2
HEADER
  9
$ACADVER
  1
AC1009
  9
$INSBASE
 10
0.0
 20
0.0
 30
0.0
  9
$EXTMIN
 10
0.0
 20
0.0
 30
0.0
  9
$EXTMAX
 10
959.0
 20
925.0
 30
0.0
  9
$LIMMIN
 10
0.0
 20
0.0
  9
$LIMMAX
 10
959.0
 20
925.0
  9
$LTSCALE
 40
1.0
  9
$LUNITS
 70
2
  9
$LUPREC
 70
3
  9
$LIMCHECK
 70
0
  9
$UCSNAME
  2

  9
$UCSORG
 10
0.0
 20
0.0
 30
0.0
  9
$UCSXDIR
 10
1.0
 20
0.0
 30
0.0
  9
$UCSYDIR
 10
0.0
 20
1.0
 30
0.0
  9
$WORLDVIEW
 70
1
  9
$UNITMODE
 70
0
  9
$HANDLING
 70
1
  9
$TDUPDATE
 40
2457356.3034722223
  9
$HANDSEED
  5
26E
  9
$DWGCODEPAGE
  3
ANSI_1252
  0
ENDSEC
  0
SECTION
  2
TABLES
  0
TABLE
  2
VPORT
  5
1
 70
1
  0
VPORT
  5
2
  2
*ACTIVE
 70
0
 10
0.0
 20
0.0
 11
1.0
 21
1.0
 12
479.5
 22
462.5
 13
0.0
 23
0.0
 14
1.0
 24
1.0
 15
0.0
 25
0.0
 16
0.0
 26
0.0
 36
1.0
 17
0.0
 27
0.0
 37
0.0
 40
500.0
 41
0.965
 42
50.0
 43
0.0
 44
0.0
 50
0.0
 51
0.0
 71
0
 72
100
 73
1
 74
1
 75
0
 76
0
 77
0
 78
0
  0
ENDTAB
  0
TABLE
  2
LTYPE
  5
3
 70
1
  0
LTYPE
  5
4
  2
CONTINUOUS
 70
64
  3
Solid line
 72
65
 73
0
 40
0.0
  0
ENDTAB
  0
TABLE
  2
LAYER
  5
5
 70
1
  0
LAYER
  5
6
  2
0
 70
64
 62
7
  6
CONTINUOUS
  0
ENDTAB
  0
TABLE
  2
STYLE
  5
7
 70
0
  0
ENDTAB
  0
TABLE
  2
DIMSTYLE
  5
8
 70
0
  0
ENDTAB
  0
ENDSEC
  0
SECTION
  2
BLOCKS
  0
ENDSEC
  0
SECTION
  2
ENTITIES
  0
POLYLINE
  5
A
  8
0
  6
CONTINUOUS
 66
1
 62
7
 10
0.0
 20
0.0
 30
0.0
  0
VERTEX
  5
B
  8
0
 10
469.0
 20
836.0
  0
VERTEX
  5
C
  8
0
 10
470.1
 20
836.8
  0
VERTEX
  5
D
  8
0
 10
475.0
 20
839.0
  0
VERTEX
  5
E
  8
0
 10
480.0
 20
844.0
  0
VERTEX
  5
F
  8
0
 10
481.0
 20
853.0
  0
VERTEX
  5
10
  8
0
 10
477.24
 20
860.18
  0
VERTEX
  5
11
  8
0
 10
474.0
 20
864.0
  0
VERTEX
  5
12
  8
0
 10
472.0
 20
865.0
  0
VERTEX
  5
13
  8
0
 10
461.0
 20
865.0
  0
VERTEX
  5
14
  8
0
 10
455.0
 20
860.0
  0
VERTEX
  5
15
  8
0
 10
453.4
 20
856.8
  0
VERTEX
  5
16
  8
0
 10
452.0
 20
854.0
  0
VERTEX
  5
17
  8
0
 10
453.0
 20
844.0
  0
VERTEX
  5
18
  8
0
 10
458.0
 20
839.0
  0
VERTEX
  5
19
  8
0
 10
464.067568
 20
836.405405
  0
VERTEX
  5
1A
  8
0
 10
469.0
 20
836.0
  0
SEQEND
  5
1B
  0
POLYLINE
  5
1C
  8
0
  6
CONTINUOUS
 66
1
 62
7
 10
0.0
 20
0.0
 30
0.0
  0
VERTEX
  5
1E
  8
0
 10
402.0
 20
624.0
  0
VERTEX
  5
1F
  8
0
 10
410.9
 20
627.3
  0
VERTEX
  5
20
  8
0
 10
439.076923
 20
634.615385
  0
VERTEX
  5
21
  8
0
 10
450.75
 20
637.25
  0
VERTEX
  5
22
  8
0
 10
450.0
 20
752.0
  0
VERTEX
  5
23
  8
0
 10
450.25
 20
752.75
  0
VERTEX
  5
24
  8
0
 10
527.0
 20
753.0
  0
VERTEX
  5
25
  8
0
 10
528.0
 20
754.0
  0
VERTEX
  5
26
  8
0
 10
527.75
 20
806.75
  0
VERTEX
  5
27
  8
0
 10
473.0
 20
813.0
  0
VERTEX
  5
28
  8
0
 10
461.0
 20
813.0
  0
VERTEX
  5
29
  8
0
 10
423.035294
 20
809.541176
  0
VERTEX
  5
2A
  8
0
 10
409.076923
 20
807.615385
  0
VERTEX
  5
2B
  8
0
 10
407.911765
 20
807.352941
  0
VERTEX
  5
2C
  8
0
 10
388.0
 20
803.0
  0
VERTEX
  5
2D
  8
0
 10
387.0
 20
802.0
  0
VERTEX
  5
2E
  8
0
 10
410.230769
 20
761.153846
  0
VERTEX
  5
2F
  8
0
 10
419.2
 20
746.1
  0
VERTEX
  5
30
  8
0
 10
424.0
 20
738.0
  0
VERTEX
  5
31
  8
0
 10
424.0
 20
735.0
  0
VERTEX
  5
32
  8
0
 10
359.0
 20
698.0
  0
VERTEX
  5
33
  8
0
 10
359.0
 20
696.0
  0
VERTEX
  5
34
  8
0
 10
361.2
 20
692.1
  0
VERTEX
  5
35
  8
0
 10
401.0
 20
624.0
  0
VERTEX
  5
36
  8
0
 10
402.0
 20
624.0
  0
SEQEND
  5
37
  0
POLYLINE
  5
39
  8
0
  6
CONTINUOUS
 66
1
 62
7
 10
0.0
 20
0.0
 30
0.0
  0
VERTEX
  5
3A
  8
0
 10
533.0
 20
623.0
  0
VERTEX
  5
3B
  8
0
 10
568.8
 20
687.1
  0
VERTEX
  5
3C
  8
0
 10
588.0
 20
720.0
  0
VERTEX
  5
3D
  8
0
 10
591.0
 20
723.0
  0
VERTEX
  5
3E
  8
0
 10
593.0
 20
723.0
  0
VERTEX
  5
3F
  8
0
 10
655.9
 20
686.8
  0
VERTEX
  5
40
  8
0
 10
657.0
 20
686.0
  0
VERTEX
  5
41
  8
0
 10
661.0
 20
690.0
  0
VERTEX
  5
42
  8
0
 10
679.769231
 20
724.153846
  0
VERTEX
  5
43
  8
0
 10
684.0
 20
732.0
  0
VERTEX
  5
44
  8
0
 10
664.195122
 20
747.243902
  0
VERTEX
  5
45
  8
0
 10
648.82
 20
758.76
  0
VERTEX
  5
46
  8
0
 10
636.9
 20
765.8
  0
VERTEX
  5
47
  8
0
 10
612.1
 20
778.2
  0
VERTEX
  5
48
  8
0
 10
589.9
 20
788.7
  0
VERTEX
  5
49
  8
0
 10
577.1
 20
793.2
  0
VERTEX
  5
4A
  8
0
 10
561.0
 20
799.0
  0
VERTEX
  5
4B
  8
0
 10
560.0
 20
798.0
  0
VERTEX
  5
4C
  8
0
 10
559.75
 20
723.25
  0
VERTEX
  5
4D
  8
0
 10
484.0
 20
722.0
  0
VERTEX
  5
4E
  8
0
 10
483.25
 20
721.75
  0
VERTEX
  5
4F
  8
0
 10
483.0
 20
638.0
  0
VERTEX
  5
50
  8
0
 10
484.0
 20
637.0
  0
VERTEX
  5
51
  8
0
 10
493.088235
 20
635.352941
  0
VERTEX
  5
52
  8
0
 10
529.1
 20
624.3
  0
VERTEX
  5
53
  8
0
 10
533.0
 20
623.0
  0
SEQEND
  5
54
  0
POLYLINE
  5
55
  8
0
  6
CONTINUOUS
 66
1
 62
7
 10
0.0
 20
0.0
 30
0.0
  0
VERTEX
  5
57
  8
0
 10
337.0
 20
571.0
  0
VERTEX
  5
58
  8
0
 10
348.751724
 20
585.22069
  0
VERTEX
  5
59
  8
0
 10
359.795082
 20
596.245902
  0
VERTEX
  5
5A
  8
0
 10
374.0
 20
608.0
  0
VERTEX
  5
5B
  8
0
 10
323.8
 20
693.9
  0
VERTEX
  5
5C
  8
0
 10
316.0
 20
707.0
  0
VERTEX
  5
5D
  8
0
 10
316.0
 20
709.0
  0
VERTEX
  5
5E
  8
0
 10
334.9
 20
720.2
  0
VERTEX
  5
5F
  8
0
 10
381.0
 20
747.0
  0
VERTEX
  5
60
  8
0
 10
381.0
 20
750.0
  0
VERTEX
  5
61
  8
0
 10
370.8
 20
767.9
  0
VERTEX
  5
62
  8
0
 10
358.8
 20
788.9
  0
VERTEX
  5
63
  8
0
 10
357.0
 20
792.0
  0
VERTEX
  5
64
  8
0
 10
353.0
 20
792.0
  0
VERTEX
  5
65
  8
0
 10
330.1
 20
782.7
  0
VERTEX
  5
66
  8
0
 10
303.1
 20
768.8
  0
VERTEX
  5
67
  8
0
 10
290.846154
 20
761.230769
  0
VERTEX
  5
68
  8
0
 10
262.18
 20
741.76
  0
VERTEX
  5
69
  8
0
 10
253.804878
 20
735.243902
  0
VERTEX
  5
6A
  8
0
 10
241.0
 20
724.0
  0
VERTEX
  5
6B
  8
0
 10
236.0
 20
718.0
  0
VERTEX
  5
6C
  8
0
 10
256.9
 20
705.8
  0
VERTEX
  5
6D
  8
0
 10
301.0
 20
680.0
  0
VERTEX
  5
6E
  8
0
 10
282.8
 20
649.1
  0
VERTEX
  5
6F
  8
0
 10
281.769231
 20
647.153846
  0
VERTEX
  5
70
  8
0
 10
264.0
 20
616.0
  0
VERTEX
  5
71
  8
0
 10
264.0
 20
614.0
  0
VERTEX
  5
72
  8
0
 10
265.0
 20
613.0
  0
VERTEX
  5
73
  8
0
 10
303.153846
 20
590.230769
  0
VERTEX
  5
74
  8
0
 10
337.0
 20
571.0
  0
SEQEND
  5
75
  0
POLYLINE
  5
76
  8
0
  6
CONTINUOUS
 66
1
 62
7
 10
0.0
 20
0.0
 30
0.0
  0
VERTEX
  5
78
  8
0
 10
739.0
 20
564.0
  0
VERTEX
  5
79
  8
0
 10
740.9
 20
565.2
  0
VERTEX
  5
7A
  8
0
 10
780.0
 20
588.0
  0
VERTEX
  5
7B
  8
0
 10
781.0
 20
590.0
  0
VERTEX
  5
7C
  8
0
 10
768.3
 20
621.1
  0
VERTEX
  5
7D
  8
0
 10
764.2
 20
630.1
  0
VERTEX
  5
7E
  8
0
 10
749.230769
 20
655.153846
  0
VERTEX
  5
7F
  8
0
 10
740.230769
 20
668.153846
  0
VERTEX
  5
80
  8
0
 10
720.0
 20
696.0
  0
VERTEX
  5
81
  8
0
 10
707.0
 20
709.0
  0
VERTEX
  5
82
  8
0
 10
681.769231
 20
664.153846
  0
VERTEX
  5
83
  8
0
 10
669.0
 20
643.0
  0
VERTEX
  5
84
  8
0
 10
618.1
 20
673.2
  0
VERTEX
  5
85
  8
0
 10
605.0
 20
681.0
  0
VERTEX
  5
86
  8
0
 10
601.0
 20
681.0
  0
VERTEX
  5
87
  8
0
 10
593.8
 20
668.1
  0
VERTEX
  5
88
  8
0
 10
560.0
 20
608.0
  0
VERTEX
  5
89
  8
0
 10
572.0
 20
598.0
  0
VERTEX
  5
8A
  8
0
 10
597.0
 20
571.0
  0
VERTEX
  5
8B
  8
0
 10
600.9
 20
573.2
  0
VERTEX
  5
8C
  8
0
 10
670.153846
 20
613.769231
  0
VERTEX
  5
8D
  8
0
 10
670.846154
 20
614.230769
  0
VERTEX
  5
8E
  8
0
 10
695.0
 20
629.0
  0
VERTEX
  5
8F
  8
0
 10
698.0
 20
629.0
  0
VERTEX
  5
90
  8
0
 10
722.230769
 20
586.153846
  0
VERTEX
  5
91
  8
0
 10
735.0
 20
564.0
  0
VERTEX
  5
92
  8
0
 10
739.0
 20
564.0
  0
SEQEND
  5
93
  0
POLYLINE
  5
94
  8
0
  6
CONTINUOUS
 66
1
 62
7
 10
0.0
 20
0.0
 30
0.0
  0
VERTEX
  5
96
  8
0
 10
447.0
 20
549.0
  0
VERTEX
  5
97
  8
0
 10
450.0
 20
550.0
  0
VERTEX
  5
98
  8
0
 10
452.0
 20
552.0
  0
VERTEX
  5
99
  8
0
 10
451.75
 20
596.75
  0
VERTEX
  5
9A
  8
0
 10
430.9
 20
591.3
  0
VERTEX
  5
9B
  8
0
 10
424.0
 20
589.0
  0
VERTEX
  5
9C
  8
0
 10
422.0
 20
587.0
  0
VERTEX
  5
9D
  8
0
 10
429.2
 20
574.1
  0
VERTEX
  5
9E
  8
0
 10
443.0
 20
549.0
  0
VERTEX
  5
9F
  8
0
 10
447.0
 20
549.0
  0
SEQEND
  5
A0
  0
POLYLINE
  5
A1
  8
0
  6
CONTINUOUS
 66
1
 62
7
 10
0.0
 20
0.0
 30
0.0
  0
VERTEX
  5
A3
  8
0
 10
490.0
 20
549.0
  0
VERTEX
  5
A4
  8
0
 10
504.2
 20
574.9
  0
VERTEX
  5
A5
  8
0
 10
511.0
 20
587.0
  0
VERTEX
  5
A6
  8
0
 10
509.0
 20
589.0
  0
VERTEX
  5
A7
  8
0
 10
504.9
 20
590.7
  0
VERTEX
  5
A8
  8
0
 10
503.1
 20
591.3
  0
VERTEX
  5
A9
  8
0
 10
482.25
 20
596.75
  0
VERTEX
  5
AA
  8
0
 10
482.0
 20
552.0
  0
VERTEX
  5
AB
  8
0
 10
484.0
 20
550.0
  0
VERTEX
  5
AC
  8
0
 10
490.0
 20
549.0
  0
SEQEND
  5
AD
  0
POLYLINE
  5
AE
  8
0
  6
CONTINUOUS
 66
1
 62
7
 10
0.0
 20
0.0
 30
0.0
  0
VERTEX
  5
B0
  8
0
 10
412.0
 20
528.0
  0
VERTEX
  5
B1
  8
0
 10
415.756098
 20
532.195122
  0
VERTEX
  5
B2
  8
0
 10
416.5
 20
534.0
  0
VERTEX
  5
B3
  8
0
 10
395.2
 20
571.1
  0
VERTEX
  5
B4
  8
0
 10
395.0
 20
572.0
  0
VERTEX
  5
B5
  8
0
 10
394.0
 20
573.0
  0
VERTEX
  5
B6
  8
0
 10
391.846154
 20
571.230769
  0
VERTEX
  5
B7
  8
0
 10
374.0
 20
554.0
  0
VERTEX
  5
B8
  8
0
 10
372.0
 20
551.0
  0
VERTEX
  5
B9
  8
0
 10
409.9
 20
528.8
  0
VERTEX
  5
BA
  8
0
 10
412.0
 20
528.0
  0
SEQEND
  5
BB
  0
POLYLINE
  5
BD
  8
0
  6
CONTINUOUS
 66
1
 62
7
 10
0.0
 20
0.0
 30
0.0
  0
VERTEX
  5
BE
  8
0
 10
522.0
 20
528.0
  0
VERTEX
  5
BF
  8
0
 10
562.0
 20
551.0
  0
VERTEX
  5
C0
  8
0
 10
540.0
 20
573.0
  0
VERTEX
  5
C1
  8
0
 10
538.8
 20
571.1
  0
VERTEX
  5
C2
  8
0
 10
517.5
 20
534.0
  0
VERTEX
  5
C3
  8
0
 10
517.8
 20
532.9
  0
VERTEX
  5
C4
  8
0
 10
522.0
 20
528.0
  0
SEQEND
  5
C5
  0
POLYLINE
  5
C6
  8
0
  6
CONTINUOUS
 66
1
 62
7
 10
0.0
 20
0.0
 30
0.0
  0
VERTEX
  5
C8
  8
0
 10
306.0
 20
493.0
  0
VERTEX
  5
C9
  8
0
 10
307.6
 20
495.2
  0
VERTEX
  5
CA
  8
0
 10
309.594595
 20
504.067568
  0
VERTEX
  5
CB
  8
0
 10
310.405405
 20
508.932432
  0
VERTEX
  5
CC
  8
0
 10
319.3
 20
538.9
  0
VERTEX
  5
CD
  8
0
 10
319.7
 20
540.1
  0
VERTEX
  5
CE
  8
0
 10
321.0
 20
544.0
  0
VERTEX
  5
CF
  8
0
 10
320.0
 20
545.0
  0
VERTEX
  5
D0
  8
0
 10
224.9
 20
598.8
  0
VERTEX
  5
D1
  8
0
 10
224.1
 20
599.2
  0
VERTEX
  5
D2
  8
0
 10
221.0
 20
601.0
  0
VERTEX
  5
D3
  8
0
 10
221.0
 20
604.0
  0
VERTEX
  5
D4
  8
0
 10
234.2
 20
626.9
  0
VERTEX
  5
D5
  8
0
 10
236.230769
 20
630.846154
  0
VERTEX
  5
D6
  8
0
 10
258.0
 20
669.0
  0
VERTEX
  5
D7
  8
0
 10
253.0
 20
674.0
  0
VERTEX
  5
D8
  8
0
 10
232.9
 20
684.8
  0
VERTEX
  5
D9
  8
0
 10
232.1
 20
685.2
  0
VERTEX
  5
DA
  8
0
 10
213.0
 20
696.0
  0
VERTEX
  5
DB
  8
0
 10
186.230769
 20
658.846154
  0
VERTEX
  5
DC
  8
0
 10
169.2
 20
629.9
  0
VERTEX
  5
DD
  8
0
 10
157.8
 20
605.1
  0
VERTEX
  5
DE
  8
0
 10
151.647059
 20
588.088235
  0
VERTEX
  5
DF
  8
0
 10
151.3
 20
586.9
  0
VERTEX
  5
E0
  8
0
 10
147.0
 20
572.0
  0
VERTEX
  5
E1
  8
0
 10
147.25
 20
571.25
  0
VERTEX
  5
E2
  8
0
 10
183.986861
 20
570.513869
  0
VERTEX
  5
E3
  8
0
 10
221.75
 20
569.75
  0
VERTEX
  5
E4
  8
0
 10
222.25
 20
494.25
  0
VERTEX
  5
E5
  8
0
 10
306.0
 20
493.0
  0
SEQEND
  5
E6
  0
POLYLINE
  5
E7
  8
0
  6
CONTINUOUS
 66
1
 62
7
 10
0.0
 20
0.0
 30
0.0
  0
VERTEX
  5
E9
  8
0
 10
394.0
 20
493.0
  0
VERTEX
  5
EA
  8
0
 10
396.0
 20
501.0
  0
VERTEX
  5
EB
  8
0
 10
385.153846
 20
507.230769
  0
VERTEX
  5
EC
  8
0
 10
378.153846
 20
511.230769
  0
VERTEX
  5
ED
  8
0
 10
358.911765
 20
522.647059
  0
VERTEX
  5
EE
  8
0
 10
355.25
 20
522.75
  0
VERTEX
  5
EF
  8
0
 10
354.8
 20
521.1
  0
VERTEX
  5
F0
  8
0
 10
354.384615
 20
519.923077
  0
VERTEX
  5
F1
  8
0
 10
349.0
 20
495.0
  0
VERTEX
  5
F2
  8
0
 10
349.25
 20
494.25
  0
VERTEX
  5
F3
  8
0
 10
393.0
 20
493.0
  0
VERTEX
  5
F4
  8
0
 10
394.0
 20
493.0
  0
SEQEND
  5
F5
  0
POLYLINE
  5
F7
  8
0
  6
CONTINUOUS
 66
1
 62
7
 10
0.0
 20
0.0
 30
0.0
  0
VERTEX
  5
F8
  8
0
 10
583.0
 20
493.0
  0
VERTEX
  5
F9
  8
0
 10
585.0
 20
495.0
  0
VERTEX
  5
FA
  8
0
 10
585.0
 20
498.0
  0
VERTEX
  5
FB
  8
0
 10
579.0
 20
521.0
  0
VERTEX
  5
FC
  8
0
 10
577.0
 20
523.0
  0
VERTEX
  5
FD
  8
0
 10
575.0
 20
523.0
  0
VERTEX
  5
FE
  8
0
 10
554.153846
 20
510.769231
  0
VERTEX
  5
FF
  8
0
 10
551.1
 20
508.8
  0
VERTEX
  5
100
  8
0
 10
538.0
 20
501.0
  0
VERTEX
  5
101
  8
0
 10
538.0
 20
495.0
  0
VERTEX
  5
102
  8
0
 10
540.0
 20
493.0
  0
VERTEX
  5
103
  8
0
 10
583.0
 20
493.0
  0
SEQEND
  5
104
  0
POLYLINE
  5
105
  8
0
  6
CONTINUOUS
 66
1
 62
7
 10
0.0
 20
0.0
 30
0.0
  0
VERTEX
  5
107
  8
0
 10
358.0
 20
433.0
  0
VERTEX
  5
108
  8
0
 10
389.9
 20
451.2
  0
VERTEX
  5
109
  8
0
 10
396.0
 20
455.0
  0
VERTEX
  5
10A
  8
0
 10
394.647059
 20
459.911765
  0
VERTEX
  5
10B
  8
0
 10
393.75
 20
462.75
  0
VERTEX
  5
10C
  8
0
 10
348.25
 20
462.75
  0
VERTEX
  5
10D
  8
0
 10
353.352941
 20
440.088235
  0
VERTEX
  5
10E
  8
0
 10
357.0
 20
433.0
  0
VERTEX
  5
10F
  8
0
 10
358.0
 20
433.0
  0
SEQEND
  5
110
  0
POLYLINE
  5
111
  8
0
  6
CONTINUOUS
 66
1
 62
7
 10
0.0
 20
0.0
 30
0.0
  0
VERTEX
  5
113
  8
0
 10
576.0
 20
433.0
  0
VERTEX
  5
114
  8
0
 10
579.7
 20
440.1
  0
VERTEX
  5
115
  8
0
 10
586.0
 20
462.0
  0
VERTEX
  5
116
  8
0
 10
585.0
 20
463.0
  0
VERTEX
  5
117
  8
0
 10
540.0
 20
463.0
  0
VERTEX
  5
118
  8
0
 10
538.0
 20
461.0
  0
VERTEX
  5
119
  8
0
 10
538.0
 20
455.0
  0
VERTEX
  5
11A
  8
0
 10
548.846154
 20
448.769231
  0
VERTEX
  5
11B
  8
0
 10
576.0
 20
433.0
  0
SEQEND
  5
11C
  0
POLYLINE
  5
11D
  8
0
  6
CONTINUOUS
 66
1
 62
7
 10
0.0
 20
0.0
 30
0.0
  0
VERTEX
  5
11F
  8
0
 10
795.0
 20
417.0
  0
VERTEX
  5
120
  8
0
 10
802.0
 20
473.0
  0
VERTEX
  5
121
  8
0
 10
802.0
 20
482.0
  0
VERTEX
  5
122
  8
0
 10
797.554455
 20
521.955446
  0
VERTEX
  5
123
  8
0
 10
795.58
 20
536.94
  0
VERTEX
  5
124
  8
0
 10
791.647059
 20
553.911765
  0
VERTEX
  5
125
  8
0
 10
791.2
 20
555.1
  0
VERTEX
  5
126
  8
0
 10
789.0
 20
558.0
  0
VERTEX
  5
127
  8
0
 10
761.153846
 20
541.769231
  0
VERTEX
  5
128
  8
0
 10
751.1
 20
535.8
  0
VERTEX
  5
129
  8
0
 10
726.0
 20
521.0
  0
VERTEX
  5
12A
  8
0
 10
724.0
 20
521.0
  0
VERTEX
  5
12B
  8
0
 10
718.8
 20
529.9
  0
VERTEX
  5
12C
  8
0
 10
687.0
 20
586.0
  0
VERTEX
  5
12D
  8
0
 10
684.0
 20
586.0
  0
VERTEX
  5
12E
  8
0
 10
639.1
 20
559.8
  0
VERTEX
  5
12F
  8
0
 10
612.0
 20
544.0
  0
VERTEX
  5
130
  8
0
 10
615.7
 20
533.9
  0
VERTEX
  5
131
  8
0
 10
627.0
 20
494.0
  0
VERTEX
  5
132
  8
0
 10
741.75
 20
493.75
  0
VERTEX
  5
133
  8
0
 10
742.25
 20
417.25
  0
VERTEX
  5
134
  8
0
 10
795.0
 20
417.0
  0
SEQEND
  5
135
  0
POLYLINE
  5
137
  8
0
  6
CONTINUOUS
 66
1
 62
7
 10
0.0
 20
0.0
 30
0.0
  0
VERTEX
  5
138
  8
0
 10
394.0
 20
383.0
  0
VERTEX
  5
139
  8
0
 10
417.0
 20
423.0
  0
VERTEX
  5
13A
  8
0
 10
415.195122
 20
424.243902
  0
VERTEX
  5
13B
  8
0
 10
410.647059
 20
427.411765
  0
VERTEX
  5
13C
  8
0
 10
409.1
 20
426.8
  0
VERTEX
  5
13D
  8
0
 10
407.9
 20
426.2
  0
VERTEX
  5
13E
  8
0
 10
376.0
 20
408.0
  0
VERTEX
  5
13F
  8
0
 10
372.0
 20
404.0
  0
VERTEX
  5
140
  8
0
 10
382.771698
 20
393.750943
  0
VERTEX
  5
141
  8
0
 10
394.0
 20
383.0
  0
SEQEND
  5
142
  0
POLYLINE
  5
144
  8
0
  6
CONTINUOUS
 66
1
 62
7
 10
0.0
 20
0.0
 30
0.0
  0
VERTEX
  5
145
  8
0
 10
540.0
 20
383.0
  0
VERTEX
  5
146
  8
0
 10
562.0
 20
405.0
  0
VERTEX
  5
147
  8
0
 10
522.0
 20
428.0
  0
VERTEX
  5
148
  8
0
 10
517.0
 20
423.0
  0
VERTEX
  5
149
  8
0
 10
540.0
 20
383.0
  0
SEQEND
  5
14A
  0
POLYLINE
  5
14C
  8
0
  6
CONTINUOUS
 66
1
 62
7
 10
0.0
 20
0.0
 30
0.0
  0
VERTEX
  5
14D
  8
0
 10
250.0
 20
370.0
  0
VERTEX
  5
14E
  8
0
 10
251.1
 20
370.8
  0
VERTEX
  5
14F
  8
0
 10
318.0
 20
410.0
  0
VERTEX
  5
150
  8
0
 10
321.0
 20
413.0
  0
VERTEX
  5
151
  8
0
 10
318.3
 20
419.1
  0
VERTEX
  5
152
  8
0
 10
313.647059
 20
434.911765
  0
VERTEX
  5
153
  8
0
 10
309.405405
 20
453.067568
  0
VERTEX
  5
154
  8
0
 10
308.0
 20
462.0
  0
VERTEX
  5
155
  8
0
 10
306.0
 20
464.0
  0
VERTEX
  5
156
  8
0
 10
277.99153
 20
463.491233
  0
VERTEX
  5
157
  8
0
 10
193.0
 20
462.0
  0
VERTEX
  5
158
  8
0
 10
192.0
 20
463.0
  0
VERTEX
  5
159
  8
0
 10
192.0
 20
538.0
  0
VERTEX
  5
15A
  8
0
 10
191.0
 20
539.0
  0
VERTEX
  5
15B
  8
0
 10
139.0
 20
539.0
  0
VERTEX
  5
15C
  8
0
 10
138.0
 20
538.0
  0
VERTEX
  5
15D
  8
0
 10
136.569231
 20
528.053846
  0
VERTEX
  5
15E
  8
0
 10
132.0
 20
485.0
  0
VERTEX
  5
15F
  8
0
 10
132.0
 20
474.0
  0
VERTEX
  5
160
  8
0
 10
136.439024
 20
427.04878
  0
VERTEX
  5
161
  8
0
 10
141.352941
 20
406.088235
  0
VERTEX
  5
162
  8
0
 10
143.25
 20
399.25
  0
VERTEX
  5
163
  8
0
 10
144.0
 20
399.0
  0
VERTEX
  5
164
  8
0
 10
198.1
 20
429.8
  0
VERTEX
  5
165
  8
0
 10
205.1
 20
433.8
  0
VERTEX
  5
166
  8
0
 10
209.0
 20
435.0
  0
VERTEX
  5
167
  8
0
 10
246.0
 20
370.0
  0
VERTEX
  5
168
  8
0
 10
250.0
 20
370.0
  0
SEQEND
  5
169
  0
POLYLINE
  5
16B
  8
0
  6
CONTINUOUS
 66
1
 62
7
 10
0.0
 20
0.0
 30
0.0
  0
VERTEX
  5
16C
  8
0
 10
489.0
 20
360.0
  0
VERTEX
  5
16D
  8
0
 10
490.088235
 20
360.647059
  0
VERTEX
  5
16E
  8
0
 10
509.0
 20
366.0
  0
VERTEX
  5
16F
  8
0
 10
511.0
 20
368.0
  0
VERTEX
  5
170
  8
0
 10
511.0
 20
370.0
  0
VERTEX
  5
171
  8
0
 10
494.769231
 20
397.846154
  0
VERTEX
  5
172
  8
0
 10
491.0
 20
405.0
  0
VERTEX
  5
173
  8
0
 10
489.0
 20
407.0
  0
VERTEX
  5
174
  8
0
 10
484.0
 20
406.0
  0
VERTEX
  5
175
  8
0
 10
482.0
 20
404.0
  0
VERTEX
  5
176
  8
0
 10
482.0
 20
361.0
  0
VERTEX
  5
177
  8
0
 10
483.0
 20
360.0
  0
VERTEX
  5
178
  8
0
 10
489.0
 20
360.0
  0
SEQEND
  5
179
  0
POLYLINE
  5
17B
  8
0
  6
CONTINUOUS
 66
1
 62
7
 10
0.0
 20
0.0
 30
0.0
  0
VERTEX
  5
17C
  8
0
 10
450.0
 20
359.0
  0
VERTEX
  5
17D
  8
0
 10
452.0
 20
361.0
  0
VERTEX
  5
17E
  8
0
 10
452.0
 20
404.0
  0
VERTEX
  5
17F
  8
0
 10
450.0
 20
406.0
  0
VERTEX
  5
180
  8
0
 10
444.0
 20
407.0
  0
VERTEX
  5
181
  8
0
 10
441.8
 20
403.1
  0
VERTEX
  5
182
  8
0
 10
437.769231
 20
396.153846
  0
VERTEX
  5
183
  8
0
 10
422.0
 20
370.0
  0
VERTEX
  5
184
  8
0
 10
422.0
 20
368.0
  0
VERTEX
  5
185
  8
0
 10
424.0
 20
366.0
  0
VERTEX
  5
186
  8
0
 10
449.1
 20
359.2
  0
VERTEX
  5
187
  8
0
 10
450.0
 20
359.0
  0
SEQEND
  5
188
  0
POLYLINE
  5
189
  8
0
  6
CONTINUOUS
 66
1
 62
7
 10
0.0
 20
0.0
 30
0.0
  0
VERTEX
  5
18B
  8
0
 10
721.0
 20
260.0
  0
VERTEX
  5
18C
  8
0
 10
743.769231
 20
293.153846
  0
VERTEX
  5
18D
  8
0
 10
756.2
 20
312.9
  0
VERTEX
  5
18E
  8
0
 10
767.2
 20
334.9
  0
VERTEX
  5
18F
  8
0
 10
777.7
 20
357.1
  0
VERTEX
  5
190
  8
0
 10
783.3
 20
372.9
  0
VERTEX
  5
191
  8
0
 10
785.75
 20
384.75
  0
VERTEX
  5
192
  8
0
 10
712.25
 20
385.25
  0
VERTEX
  5
193
  8
0
 10
710.75
 20
461.75
  0
VERTEX
  5
194
  8
0
 10
626.25
 20
461.75
  0
VERTEX
  5
195
  8
0
 10
625.8
 20
460.1
  0
VERTEX
  5
196
  8
0
 10
621.647059
 20
443.088235
  0
VERTEX
  5
197
  8
0
 10
616.2
 20
423.9
  0
VERTEX
  5
198
  8
0
 10
612.0
 20
412.0
  0
VERTEX
  5
199
  8
0
 10
661.846154
 20
383.769231
  0
VERTEX
  5
19A
  8
0
 10
712.0
 20
354.0
  0
VERTEX
  5
19B
  8
0
 10
712.0
 20
352.0
  0
VERTEX
  5
19C
  8
0
 10
675.8
 20
289.1
  0
VERTEX
  5
19D
  8
0
 10
675.0
 20
287.0
  0
VERTEX
  5
19E
  8
0
 10
679.846154
 20
283.769231
  0
VERTEX
  5
19F
  8
0
 10
682.153846
 20
282.230769
  0
VERTEX
  5
1A0
  8
0
 10
715.1
 20
263.2
  0
VERTEX
  5
1A1
  8
0
 10
721.0
 20
260.0
  0
SEQEND
  5
1A2
  0
POLYLINE
  5
1A4
  8
0
  6
CONTINUOUS
 66
1
 62
7
 10
0.0
 20
0.0
 30
0.0
  0
VERTEX
  5
1A5
  8
0
 10
226.0
 20
247.0
  0
VERTEX
  5
1A6
  8
0
 10
241.2
 20
271.9
  0
VERTEX
  5
1A7
  8
0
 10
264.0
 20
313.0
  0
VERTEX
  5
1A8
  8
0
 10
287.9
 20
298.8
  0
VERTEX
  5
1A9
  8
0
 10
329.0
 20
275.0
  0
VERTEX
  5
1AA
  8
0
 10
332.0
 20
275.0
  0
VERTEX
  5
1AB
  8
0
 10
339.230769
 20
287.846154
  0
VERTEX
  5
1AC
  8
0
 10
374.0
 20
348.0
  0
VERTEX
  5
1AD
  8
0
 10
356.788235
 20
362.752941
  0
VERTEX
  5
1AE
  8
0
 10
349.754098
 20
369.795082
  0
VERTEX
  5
1AF
  8
0
 10
337.0
 20
385.0
  0
VERTEX
  5
1B0
  8
0
 10
252.153846
 20
335.769231
  0
VERTEX
  5
1B1
  8
0
 10
238.0
 20
327.0
  0
VERTEX
  5
1B2
  8
0
 10
235.0
 20
327.0
  0
VERTEX
  5
1B3
  8
0
 10
198.0
 20
392.0
  0
VERTEX
  5
1B4
  8
0
 10
195.0
 20
392.0
  0
VERTEX
  5
1B5
  8
0
 10
182.153846
 20
384.769231
  0
VERTEX
  5
1B6
  8
0
 10
153.0
 20
368.0
  0
VERTEX
  5
1B7
  8
0
 10
153.0
 20
365.0
  0
VERTEX
  5
1B8
  8
0
 10
165.8
 20
334.9
  0
VERTEX
  5
1B9
  8
0
 10
166.8
 20
332.9
  0
VERTEX
  5
1BA
  8
0
 10
182.230769
 20
305.153846
  0
VERTEX
  5
1BB
  8
0
 10
188.769231
 20
294.846154
  0
VERTEX
  5
1BC
  8
0
 10
203.243902
 20
273.195122
  0
VERTEX
  5
1BD
  8
0
 10
226.0
 20
247.0
  0
SEQEND
  5
1BE
  0
POLYLINE
  5
1C0
  8
0
  6
CONTINUOUS
 66
1
 62
7
 10
0.0
 20
0.0
 30
0.0
  0
VERTEX
  5
1C1
  8
0
 10
580.0
 20
164.0
  0
VERTEX
  5
1C2
  8
0
 10
587.9
 20
167.3
  0
VERTEX
  5
1C3
  8
0
 10
610.9
 20
177.2
  0
VERTEX
  5
1C4
  8
0
 10
616.1
 20
179.8
  0
VERTEX
  5
1C5
  8
0
 10
635.846154
 20
190.230769
  0
VERTEX
  5
1C6
  8
0
 10
651.153846
 20
200.769231
  0
VERTEX
  5
1C7
  8
0
 10
673.804878
 20
217.243902
  0
VERTEX
  5
1C8
  8
0
 10
698.0
 20
237.0
  0
VERTEX
  5
1C9
  8
0
 10
661.1
 20
259.2
  0
VERTEX
  5
1CA
  8
0
 10
632.0
 20
276.0
  0
VERTEX
  5
1CB
  8
0
 10
634.76
 20
279.18
  0
VERTEX
  5
1CC
  8
0
 10
653.8
 20
313.1
  0
VERTEX
  5
1CD
  8
0
 10
654.2
 20
313.9
  0
VERTEX
  5
1CE
  8
0
 10
669.0
 20
340.0
  0
VERTEX
  5
1CF
  8
0
 10
669.0
 20
343.0
  0
VERTEX
  5
1D0
  8
0
 10
597.1
 20
384.2
  0
VERTEX
  5
1D1
  8
0
 10
596.0
 20
385.0
  0
VERTEX
  5
1D2
  8
0
 10
591.752212
 20
379.216814
  0
VERTEX
  5
1D3
  8
0
 10
576.0
 20
362.0
  0
VERTEX
  5
1D4
  8
0
 10
559.0
 20
348.0
  0
VERTEX
  5
1D5
  8
0
 10
605.2
 20
269.1
  0
VERTEX
  5
1D6
  8
0
 10
615.2
 20
252.1
  0
VERTEX
  5
1D7
  8
0
 10
617.0
 20
249.0
  0
VERTEX
  5
1D8
  8
0
 10
617.0
 20
247.0
  0
VERTEX
  5
1D9
  8
0
 10
572.1
 20
220.8
  0
VERTEX
  5
1DA
  8
0
 10
552.0
 20
209.0
  0
VERTEX
  5
1DB
  8
0
 10
552.0
 20
207.0
  0
VERTEX
  5
1DC
  8
0
 10
577.0
 20
164.0
  0
VERTEX
  5
1DD
  8
0
 10
580.0
 20
164.0
  0
SEQEND
  5
1DE
  0
POLYLINE
  5
1E0
  8
0
  6
CONTINUOUS
 66
1
 62
7
 10
0.0
 20
0.0
 30
0.0
  0
VERTEX
  5
1E1
  8
0
 10
374.0
 20
158.0
  0
VERTEX
  5
1E2
  8
0
 10
375.25
 20
233.75
  0
VERTEX
  5
1E3
  8
0
 10
451.75
 20
235.25
  0
VERTEX
  5
1E4
  8
0
 10
450.75
 20
318.75
  0
VERTEX
  5
1E5
  8
0
 10
421.088235
 20
326.352941
  0
VERTEX
  5
1E6
  8
0
 10
417.088235
 20
327.352941
  0
VERTEX
  5
1E7
  8
0
 10
403.1
 20
332.2
  0
VERTEX
  5
1E8
  8
0
 10
401.0
 20
333.0
  0
VERTEX
  5
1E9
  8
0
 10
371.8
 20
283.1
  0
VERTEX
  5
1EA
  8
0
 10
343.0
 20
233.0
  0
VERTEX
  5
1EB
  8
0
 10
341.0
 20
233.0
  0
VERTEX
  5
1EC
  8
0
 10
279.1
 20
268.2
  0
VERTEX
  5
1ED
  8
0
 10
276.0
 20
270.0
  0
VERTEX
  5
1EE
  8
0
 10
272.8
 20
265.1
  0
VERTEX
  5
1EF
  8
0
 10
271.769231
 20
263.153846
  0
VERTEX
  5
1F0
  8
0
 10
249.0
 20
225.0
  0
VERTEX
  5
1F1
  8
0
 10
271.195122
 20
207.243902
  0
VERTEX
  5
1F2
  8
0
 10
314.1
 20
181.2
  0
VERTEX
  5
1F3
  8
0
 10
324.9
 20
175.8
  0
VERTEX
  5
1F4
  8
0
 10
357.9
 20
162.7
  0
VERTEX
  5
1F5
  8
0
 10
374.0
 20
158.0
  0
SEQEND
  5
1F6
  0
POLYLINE
  5
1F7
  8
0
  6
CONTINUOUS
 66
1
 62
7
 10
0.0
 20
0.0
 30
0.0
  0
VERTEX
  5
1F9
  8
0
 10
477.0
 20
144.0
  0
VERTEX
  5
1FA
  8
0
 10
504.962069
 20
146.455172
  0
VERTEX
  5
1FB
  8
0
 10
535.923077
 20
151.384615
  0
VERTEX
  5
1FC
  8
0
 10
542.1
 20
152.7
  0
VERTEX
  5
1FD
  8
0
 10
544.0
 20
153.0
  0
VERTEX
  5
1FE
  8
0
 10
546.0
 20
155.0
  0
VERTEX
  5
1FF
  8
0
 10
535.8
 20
172.9
  0
VERTEX
  5
200
  8
0
 10
509.0
 20
220.0
  0
VERTEX
  5
201
  8
0
 10
550.846154
 20
244.230769
  0
VERTEX
  5
202
  8
0
 10
574.0
 20
258.0
  0
VERTEX
  5
203
  8
0
 10
575.0
 20
260.0
  0
VERTEX
  5
204
  8
0
 10
543.769231
 20
313.846154
  0
VERTEX
  5
205
  8
0
 10
541.2
 20
318.1
  0
VERTEX
  5
206
  8
0
 10
532.0
 20
333.0
  0
VERTEX
  5
207
  8
0
 10
528.1
 20
330.8
  0
VERTEX
  5
208
  8
0
 10
512.923077
 20
325.384615
  0
VERTEX
  5
209
  8
0
 10
500.088235
 20
322.647059
  0
VERTEX
  5
20A
  8
0
 10
483.25
 20
318.75
  0
VERTEX
  5
20B
  8
0
 10
482.75
 20
203.25
  0
VERTEX
  5
20C
  8
0
 10
405.25
 20
202.75
  0
VERTEX
  5
20D
  8
0
 10
405.25
 20
149.25
  0
VERTEX
  5
20E
  8
0
 10
417.95122
 20
147.560976
  0
VERTEX
  5
20F
  8
0
 10
457.022624
 20
144.475113
  0
VERTEX
  5
210
  8
0
 10
477.0
 20
144.0
  0
SEQEND
  5
211
  0
POLYLINE
  5
213
  8
0
  6
CONTINUOUS
 66
1
 62
7
 10
0.0
 20
0.0
 30
0.0
  0
VERTEX
  5
214
  8
0
 10
475.0
 20
105.0
  0
VERTEX
  5
215
  8
0
 10
517.959016
 20
108.45082
  0
VERTEX
  5
216
  8
0
 10
544.923077
 20
114.384615
  0
VERTEX
  5
217
  8
0
 10
558.923077
 20
117.384615
  0
VERTEX
  5
218
  8
0
 10
574.9
 20
122.3
  0
VERTEX
  5
219
  8
0
 10
608.9
 20
134.3
  0
VERTEX
  5
21A
  8
0
 10
629.9
 20
144.2
  0
VERTEX
  5
21B
  8
0
 10
651.1
 20
154.8
  0
VERTEX
  5
21C
  8
0
 10
666.82
 20
163.24
  0
VERTEX
  5
21D
  8
0
 10
709.0
 20
194.0
  0
VERTEX
  5
21E
  8
0
 10
750.24
 20
236.82
  0
VERTEX
  5
21F
  8
0
 10
780.76
 20
278.18
  0
VERTEX
  5
220
  8
0
 10
791.8
 20
298.1
  0
VERTEX
  5
221
  8
0
 10
804.2
 20
320.9
  0
VERTEX
  5
222
  8
0
 10
812.3
 20
339.9
  0
VERTEX
  5
223
  8
0
 10
824.3
 20
373.9
  0
VERTEX
  5
224
  8
0
 10
830.384615
 20
400.923077
  0
VERTEX
  5
225
  8
0
 10
835.384615
 20
425.923077
  0
VERTEX
  5
226
  8
0
 10
837.466926
 20
452.970817
  0
VERTEX
  5
227
  8
0
 10
839.0
 20
470.0
  0
VERTEX
  5
228
  8
0
 10
837.468966
 20
504.027586
  0
VERTEX
  5
229
  8
0
 10
835.54918
 20
530.959016
  0
VERTEX
  5
22A
  8
0
 10
831.615385
 20
549.923077
  0
VERTEX
  5
22B
  8
0
 10
825.615385
 20
577.923077
  0
VERTEX
  5
22C
  8
0
 10
812.7
 20
613.9
  0
VERTEX
  5
22D
  8
0
 10
806.7
 20
629.9
  0
VERTEX
  5
22E
  8
0
 10
792.8
 20
655.9
  0
VERTEX
  5
22F
  8
0
 10
781.2
 20
677.1
  0
VERTEX
  5
230
  8
0
 10
765.24
 20
699.18
  0
VERTEX
  5
231
  8
0
 10
758.24
 20
708.18
  0
VERTEX
  5
232
  8
0
 10
746.0
 20
725.0
  0
VERTEX
  5
233
  8
0
 10
701.771698
 20
766.750943
  0
VERTEX
  5
234
  8
0
 10
654.1
 20
800.2
  0
VERTEX
  5
235
  8
0
 10
610.1
 20
822.2
  0
VERTEX
  5
236
  8
0
 10
554.932432
 20
839.594595
  0
VERTEX
  5
237
  8
0
 10
550.067568
 20
840.405405
  0
VERTEX
  5
238
  8
0
 10
508.25
 20
848.25
  0
VERTEX
  5
239
  8
0
 10
507.554455
 20
857.955446
  0
VERTEX
  5
23A
  8
0
 10
504.8
 20
867.9
  0
VERTEX
  5
23B
  8
0
 10
504.2
 20
869.1
  0
VERTEX
  5
23C
  8
0
 10
500.0
 20
876.0
  0
VERTEX
  5
23D
  8
0
 10
492.0
 20
884.0
  0
VERTEX
  5
23E
  8
0
 10
483.9
 20
888.7
  0
VERTEX
  5
23F
  8
0
 10
475.0
 20
892.0
  0
VERTEX
  5
240
  8
0
 10
458.0
 20
892.0
  0
VERTEX
  5
241
  8
0
 10
447.9
 20
888.2
  0
VERTEX
  5
242
  8
0
 10
441.0
 20
884.0
  0
VERTEX
  5
243
  8
0
 10
433.0
 20
876.0
  0
VERTEX
  5
244
  8
0
 10
428.2
 20
867.9
  0
VERTEX
  5
245
  8
0
 10
427.8
 20
867.1
  0
VERTEX
  5
246
  8
0
 10
425.45082
 20
858.959016
  0
VERTEX
  5
247
  8
0
 10
424.75
 20
848.25
  0
VERTEX
  5
248
  8
0
 10
384.076923
 20
840.615385
  0
VERTEX
  5
249
  8
0
 10
378.067568
 20
839.594595
  0
VERTEX
  5
24A
  8
0
 10
324.1
 20
822.7
  0
VERTEX
  5
24B
  8
0
 10
278.9
 20
800.2
  0
VERTEX
  5
24C
  8
0
 10
231.228302
 20
766.750943
  0
VERTEX
  5
24D
  8
0
 10
187.0
 20
725.0
  0
VERTEX
  5
24E
  8
0
 10
171.243902
 20
703.804878
  0
VERTEX
  5
24F
  8
0
 10
165.24
 20
695.82
  0
VERTEX
  5
250
  8
0
 10
151.8
 20
677.1
  0
VERTEX
  5
251
  8
0
 10
139.8
 20
655.1
  0
VERTEX
  5
252
  8
0
 10
126.3
 20
629.9
  0
VERTEX
  5
253
  8
0
 10
119.2
 20
610.9
  0
VERTEX
  5
254
  8
0
 10
107.647059
 20
579.088235
  0
VERTEX
  5
255
  8
0
 10
100.615385
 20
546.076923
  0
VERTEX
  5
256
  8
0
 10
97.45082
 20
530.959016
  0
VERTEX
  5
257
  8
0
 10
94.531034
 20
487.027586
  0
VERTEX
  5
258
  8
0
 10
94.0
 20
470.0
  0
VERTEX
  5
259
  8
0
 10
96.466926
 20
438.029183
  0
VERTEX
  5
25A
  8
0
 10
98.384615
 20
422.076923
  0
VERTEX
  5
25B
  8
0
 10
103.384615
 20
397.076923
  0
VERTEX
  5
25C
  8
0
 10
108.7
 20
373.9
  0
VERTEX
  5
25D
  8
0
 10
121.3
 20
338.1
  0
VERTEX
  5
25E
  8
0
 10
129.2
 20
320.1
  0
VERTEX
  5
25F
  8
0
 10
141.8
 20
296.9
  0
VERTEX
  5
260
  8
0
 10
152.24
 20
278.18
  0
VERTEX
  5
261
  8
0
 10
183.249703
 20
236.237812
  0
VERTEX
  5
262
  8
0
 10
224.0
 20
194.0
  0
VERTEX
  5
263
  8
0
 10
266.18
 20
163.24
  0
VERTEX
  5
264
  8
0
 10
283.1
 20
154.2
  0
VERTEX
  5
265
  8
0
 10
303.9
 20
143.8
  0
VERTEX
  5
266
  8
0
 10
324.1
 20
134.3
  0
VERTEX
  5
267
  8
0
 10
359.9
 20
121.7
  0
VERTEX
  5
268
  8
0
 10
374.076923
 20
117.384615
  0
VERTEX
  5
269
  8
0
 10
391.923077
 20
113.615385
  0
VERTEX
  5
26A
  8
0
 10
415.040984
 20
108.45082
  0
VERTEX
  5
26B
  8
0
 10
424.959016
 20
107.54918
  0
VERTEX
  5
26C
  8
0
 10
475.0
 20
105.0
  0
SEQEND
  5
26D
  0
ENDSEC
  0
EOF
