0
SECTION
2
HEADER
9
$ACADVER
1
AC1003
9
$INSBASE
10
0.0
20
0.0
30
0.0
9
$EXTMIN
10
0.000
20
0.000
30
0.0
9
$EXTMAX
10
959.000
20
925.000
30
0.0
9
$LIMMIN
10
0.000
20
0.000
9
$LIMMAX
10
959.000
20
925.000
9
$LTSCALE
40
1.0
9
$LUNITS
70
2
9
$LUPREC
70
3
9
$LIMCHECK
70
0
9
$UCSNAME
2

9
$UCSORG
10
0.0
20
0.0
30
0.0
9
$UCSXDIR
10
1.0
20
0.0
30
0.0
9
$UCSYDIR
10
0.0
20
1.0
30
0.0
9
$WORLDVIEW
70
1
9
$UNITMODE
70
0
0
ENDSEC
0
SECTION
2
TABLES
0
TABLE
2
VPORT
70
1
0
VPORT
2
*ACTIVE
70
0
10
0.0
20
0.0
11
1.0
21
1.0
12
479.500
22
462.500
13
0.0
23
0.0
14
1.0
24
1.0
15
0.0
25
0.0
16
0.0
26
0.0
36
1.0
17
0.0
27
0.0
37
0.0
40
500.0
41
0.965
42
50.0
43
0.0
44
0.0
50
0.0
51
0.0
71
0
72
100
73
1
74
1
75
0
76
0
77
0
78
0
0
ENDTAB
0
TABLE
2
LTYPE
70
1
0
LTYPE
2
CONTINUOUS
70
64
3
Solid line
72
65
73
0
40
0.000
0
ENDTAB
0
TABLE
2
LAYER
70
1
0
LAYER
2
0
70
64
62
7
6
CONTINUOUS
0
ENDTAB
0
ENDSEC
0
SECTION
2
BLOCKS
0
ENDSEC
0
SECTION
2
ENTITIES
0
POLYLINE
8
0
6
CONTINUOUS
66
1
62
7
10
0.0
20
0.0
30
0.000000
0
VERTEX
8
0
10
469.000000
20
836.000000
0
VERTEX
8
0
10
470.100000
20
836.800000
0
VERTEX
8
0
10
475.000000
20
839.000000
0
VERTEX
8
0
10
480.000000
20
844.000000
0
VERTEX
8
0
10
481.000000
20
853.000000
0
VERTEX
8
0
10
477.240000
20
860.180000
0
VERTEX
8
0
10
474.000000
20
864.000000
0
VERTEX
8
0
10
472.000000
20
865.000000
0
VERTEX
8
0
10
461.000000
20
865.000000
0
VERTEX
8
0
10
455.000000
20
860.000000
0
VERTEX
8
0
10
453.400000
20
856.800000
0
VERTEX
8
0
10
452.000000
20
854.000000
0
VERTEX
8
0
10
453.000000
20
844.000000
0
VERTEX
8
0
10
458.000000
20
839.000000
0
VERTEX
8
0
10
464.067568
20
836.405405
0
VERTEX
8
0
10
469.000000
20
836.000000
0
SEQEND
0
POLYLINE
8
0
6
CONTINUOUS
66
1
62
7
10
0.0
20
0.0
30
0.000000
0
VERTEX
8
0
10
402.000000
20
624.000000
0
VERTEX
8
0
10
410.900000
20
627.300000
0
VERTEX
8
0
10
439.076923
20
634.615385
0
VERTEX
8
0
10
450.750000
20
637.250000
0
VERTEX
8
0
10
450.000000
20
752.000000
0
VERTEX
8
0
10
450.250000
20
752.750000
0
VERTEX
8
0
10
527.000000
20
753.000000
0
VERTEX
8
0
10
528.000000
20
754.000000
0
VERTEX
8
0
10
527.750000
20
806.750000
0
VERTEX
8
0
10
473.000000
20
813.000000
0
VERTEX
8
0
10
461.000000
20
813.000000
0
VERTEX
8
0
10
423.035294
20
809.541176
0
VERTEX
8
0
10
409.076923
20
807.615385
0
VERTEX
8
0
10
407.911765
20
807.352941
0
VERTEX
8
0
10
388.000000
20
803.000000
0
VERTEX
8
0
10
387.000000
20
802.000000
0
VERTEX
8
0
10
410.230769
20
761.153846
0
VERTEX
8
0
10
419.200000
20
746.100000
0
VERTEX
8
0
10
424.000000
20
738.000000
0
VERTEX
8
0
10
424.000000
20
735.000000
0
VERTEX
8
0
10
359.000000
20
698.000000
0
VERTEX
8
0
10
359.000000
20
696.000000
0
VERTEX
8
0
10
361.200000
20
692.100000
0
VERTEX
8
0
10
401.000000
20
624.000000
0
VERTEX
8
0
10
402.000000
20
624.000000
0
SEQEND
0
POLYLINE
8
0
6
CONTINUOUS
66
1
62
7
10
0.0
20
0.0
30
0.000000
0
VERTEX
8
0
10
533.000000
20
623.000000
0
VERTEX
8
0
10
568.800000
20
687.100000
0
VERTEX
8
0
10
588.000000
20
720.000000
0
VERTEX
8
0
10
591.000000
20
723.000000
0
VERTEX
8
0
10
593.000000
20
723.000000
0
VERTEX
8
0
10
655.900000
20
686.800000
0
VERTEX
8
0
10
657.000000
20
686.000000
0
VERTEX
8
0
10
661.000000
20
690.000000
0
VERTEX
8
0
10
679.769231
20
724.153846
0
VERTEX
8
0
10
684.000000
20
732.000000
0
VERTEX
8
0
10
664.195122
20
747.243902
0
VERTEX
8
0
10
648.820000
20
758.760000
0
VERTEX
8
0
10
636.900000
20
765.800000
0
VERTEX
8
0
10
612.100000
20
778.200000
0
VERTEX
8
0
10
589.900000
20
788.700000
0
VERTEX
8
0
10
577.100000
20
793.200000
0
VERTEX
8
0
10
561.000000
20
799.000000
0
VERTEX
8
0
10
560.000000
20
798.000000
0
VERTEX
8
0
10
559.750000
20
723.250000
0
VERTEX
8
0
10
484.000000
20
722.000000
0
VERTEX
8
0
10
483.250000
20
721.750000
0
VERTEX
8
0
10
483.000000
20
638.000000
0
VERTEX
8
0
10
484.000000
20
637.000000
0
VERTEX
8
0
10
493.088235
20
635.352941
0
VERTEX
8
0
10
529.100000
20
624.300000
0
VERTEX
8
0
10
533.000000
20
623.000000
0
SEQEND
0
POLYLINE
8
0
6
CONTINUOUS
66
1
62
7
10
0.0
20
0.0
30
0.000000
0
VERTEX
8
0
10
337.000000
20
571.000000
0
VERTEX
8
0
10
348.751724
20
585.220690
0
VERTEX
8
0
10
359.795082
20
596.245902
0
VERTEX
8
0
10
374.000000
20
608.000000
0
VERTEX
8
0
10
323.800000
20
693.900000
0
VERTEX
8
0
10
316.000000
20
707.000000
0
VERTEX
8
0
10
316.000000
20
709.000000
0
VERTEX
8
0
10
334.900000
20
720.200000
0
VERTEX
8
0
10
381.000000
20
747.000000
0
VERTEX
8
0
10
381.000000
20
750.000000
0
VERTEX
8
0
10
370.800000
20
767.900000
0
VERTEX
8
0
10
358.800000
20
788.900000
0
VERTEX
8
0
10
357.000000
20
792.000000
0
VERTEX
8
0
10
353.000000
20
792.000000
0
VERTEX
8
0
10
330.100000
20
782.700000
0
VERTEX
8
0
10
303.100000
20
768.800000
0
VERTEX
8
0
10
290.846154
20
761.230769
0
VERTEX
8
0
10
262.180000
20
741.760000
0
VERTEX
8
0
10
253.804878
20
735.243902
0
VERTEX
8
0
10
241.000000
20
724.000000
0
VERTEX
8
0
10
236.000000
20
718.000000
0
VERTEX
8
0
10
256.900000
20
705.800000
0
VERTEX
8
0
10
301.000000
20
680.000000
0
VERTEX
8
0
10
282.800000
20
649.100000
0
VERTEX
8
0
10
281.769231
20
647.153846
0
VERTEX
8
0
10
264.000000
20
616.000000
0
VERTEX
8
0
10
264.000000
20
614.000000
0
VERTEX
8
0
10
265.000000
20
613.000000
0
VERTEX
8
0
10
303.153846
20
590.230769
0
VERTEX
8
0
10
337.000000
20
571.000000
0
SEQEND
0
POLYLINE
8
0
6
CONTINUOUS
66
1
62
7
10
0.0
20
0.0
30
0.000000
0
VERTEX
8
0
10
739.000000
20
564.000000
0
VERTEX
8
0
10
740.900000
20
565.200000
0
VERTEX
8
0
10
780.000000
20
588.000000
0
VERTEX
8
0
10
781.000000
20
590.000000
0
VERTEX
8
0
10
768.300000
20
621.100000
0
VERTEX
8
0
10
764.200000
20
630.100000
0
VERTEX
8
0
10
749.230769
20
655.153846
0
VERTEX
8
0
10
740.230769
20
668.153846
0
VERTEX
8
0
10
720.000000
20
696.000000
0
VERTEX
8
0
10
707.000000
20
709.000000
0
VERTEX
8
0
10
681.769231
20
664.153846
0
VERTEX
8
0
10
669.000000
20
643.000000
0
VERTEX
8
0
10
618.100000
20
673.200000
0
VERTEX
8
0
10
605.000000
20
681.000000
0
VERTEX
8
0
10
601.000000
20
681.000000
0
VERTEX
8
0
10
593.800000
20
668.100000
0
VERTEX
8
0
10
560.000000
20
608.000000
0
VERTEX
8
0
10
572.000000
20
598.000000
0
VERTEX
8
0
10
597.000000
20
571.000000
0
VERTEX
8
0
10
600.900000
20
573.200000
0
VERTEX
8
0
10
670.153846
20
613.769231
0
VERTEX
8
0
10
670.846154
20
614.230769
0
VERTEX
8
0
10
695.000000
20
629.000000
0
VERTEX
8
0
10
698.000000
20
629.000000
0
VERTEX
8
0
10
722.230769
20
586.153846
0
VERTEX
8
0
10
735.000000
20
564.000000
0
VERTEX
8
0
10
739.000000
20
564.000000
0
SEQEND
0
POLYLINE
8
0
6
CONTINUOUS
66
1
62
7
10
0.0
20
0.0
30
0.000000
0
VERTEX
8
0
10
447.000000
20
549.000000
0
VERTEX
8
0
10
450.000000
20
550.000000
0
VERTEX
8
0
10
452.000000
20
552.000000
0
VERTEX
8
0
10
451.750000
20
596.750000
0
VERTEX
8
0
10
430.900000
20
591.300000
0
VERTEX
8
0
10
424.000000
20
589.000000
0
VERTEX
8
0
10
422.000000
20
587.000000
0
VERTEX
8
0
10
429.200000
20
574.100000
0
VERTEX
8
0
10
443.000000
20
549.000000
0
VERTEX
8
0
10
447.000000
20
549.000000
0
SEQEND
0
POLYLINE
8
0
6
CONTINUOUS
66
1
62
7
10
0.0
20
0.0
30
0.000000
0
VERTEX
8
0
10
490.000000
20
549.000000
0
VERTEX
8
0
10
504.200000
20
574.900000
0
VERTEX
8
0
10
511.000000
20
587.000000
0
VERTEX
8
0
10
509.000000
20
589.000000
0
VERTEX
8
0
10
504.900000
20
590.700000
0
VERTEX
8
0
10
503.100000
20
591.300000
0
VERTEX
8
0
10
482.250000
20
596.750000
0
VERTEX
8
0
10
482.000000
20
552.000000
0
VERTEX
8
0
10
484.000000
20
550.000000
0
VERTEX
8
0
10
490.000000
20
549.000000
0
SEQEND
0
POLYLINE
8
0
6
CONTINUOUS
66
1
62
7
10
0.0
20
0.0
30
0.000000
0
VERTEX
8
0
10
412.000000
20
528.000000
0
VERTEX
8
0
10
415.756098
20
532.195122
0
VERTEX
8
0
10
416.500000
20
534.000000
0
VERTEX
8
0
10
395.200000
20
571.100000
0
VERTEX
8
0
10
395.000000
20
572.000000
0
VERTEX
8
0
10
394.000000
20
573.000000
0
VERTEX
8
0
10
391.846154
20
571.230769
0
VERTEX
8
0
10
374.000000
20
554.000000
0
VERTEX
8
0
10
372.000000
20
551.000000
0
VERTEX
8
0
10
409.900000
20
528.800000
0
VERTEX
8
0
10
412.000000
20
528.000000
0
SEQEND
0
POLYLINE
8
0
6
CONTINUOUS
66
1
62
7
10
0.0
20
0.0
30
0.000000
0
VERTEX
8
0
10
522.000000
20
528.000000
0
VERTEX
8
0
10
562.000000
20
551.000000
0
VERTEX
8
0
10
540.000000
20
573.000000
0
VERTEX
8
0
10
538.800000
20
571.100000
0
VERTEX
8
0
10
517.500000
20
534.000000
0
VERTEX
8
0
10
517.800000
20
532.900000
0
VERTEX
8
0
10
522.000000
20
528.000000
0
SEQEND
0
POLYLINE
8
0
6
CONTINUOUS
66
1
62
7
10
0.0
20
0.0
30
0.000000
0
VERTEX
8
0
10
306.000000
20
493.000000
0
VERTEX
8
0
10
307.600000
20
495.200000
0
VERTEX
8
0
10
309.594595
20
504.067568
0
VERTEX
8
0
10
310.405405
20
508.932432
0
VERTEX
8
0
10
319.300000
20
538.900000
0
VERTEX
8
0
10
319.700000
20
540.100000
0
VERTEX
8
0
10
321.000000
20
544.000000
0
VERTEX
8
0
10
320.000000
20
545.000000
0
VERTEX
8
0
10
224.900000
20
598.800000
0
VERTEX
8
0
10
224.100000
20
599.200000
0
VERTEX
8
0
10
221.000000
20
601.000000
0
VERTEX
8
0
10
221.000000
20
604.000000
0
VERTEX
8
0
10
234.200000
20
626.900000
0
VERTEX
8
0
10
236.230769
20
630.846154
0
VERTEX
8
0
10
258.000000
20
669.000000
0
VERTEX
8
0
10
253.000000
20
674.000000
0
VERTEX
8
0
10
232.900000
20
684.800000
0
VERTEX
8
0
10
232.100000
20
685.200000
0
VERTEX
8
0
10
213.000000
20
696.000000
0
VERTEX
8
0
10
186.230769
20
658.846154
0
VERTEX
8
0
10
169.200000
20
629.900000
0
VERTEX
8
0
10
157.800000
20
605.100000
0
VERTEX
8
0
10
151.647059
20
588.088235
0
VERTEX
8
0
10
151.300000
20
586.900000
0
VERTEX
8
0
10
147.000000
20
572.000000
0
VERTEX
8
0
10
147.250000
20
571.250000
0
VERTEX
8
0
10
183.986861
20
570.513869
0
VERTEX
8
0
10
221.750000
20
569.750000
0
VERTEX
8
0
10
222.250000
20
494.250000
0
VERTEX
8
0
10
306.000000
20
493.000000
0
SEQEND
0
POLYLINE
8
0
6
CONTINUOUS
66
1
62
7
10
0.0
20
0.0
30
0.000000
0
VERTEX
8
0
10
394.000000
20
493.000000
0
VERTEX
8
0
10
396.000000
20
501.000000
0
VERTEX
8
0
10
385.153846
20
507.230769
0
VERTEX
8
0
10
378.153846
20
511.230769
0
VERTEX
8
0
10
358.911765
20
522.647059
0
VERTEX
8
0
10
355.250000
20
522.750000
0
VERTEX
8
0
10
354.800000
20
521.100000
0
VERTEX
8
0
10
354.384615
20
519.923077
0
VERTEX
8
0
10
349.000000
20
495.000000
0
VERTEX
8
0
10
349.250000
20
494.250000
0
VERTEX
8
0
10
393.000000
20
493.000000
0
VERTEX
8
0
10
394.000000
20
493.000000
0
SEQEND
0
POLYLINE
8
0
6
CONTINUOUS
66
1
62
7
10
0.0
20
0.0
30
0.000000
0
VERTEX
8
0
10
583.000000
20
493.000000
0
VERTEX
8
0
10
585.000000
20
495.000000
0
VERTEX
8
0
10
585.000000
20
498.000000
0
VERTEX
8
0
10
579.000000
20
521.000000
0
VERTEX
8
0
10
577.000000
20
523.000000
0
VERTEX
8
0
10
575.000000
20
523.000000
0
VERTEX
8
0
10
554.153846
20
510.769231
0
VERTEX
8
0
10
551.100000
20
508.800000
0
VERTEX
8
0
10
538.000000
20
501.000000
0
VERTEX
8
0
10
538.000000
20
495.000000
0
VERTEX
8
0
10
540.000000
20
493.000000
0
VERTEX
8
0
10
583.000000
20
493.000000
0
SEQEND
0
POLYLINE
8
0
6
CONTINUOUS
66
1
62
7
10
0.0
20
0.0
30
0.000000
0
VERTEX
8
0
10
358.000000
20
433.000000
0
VERTEX
8
0
10
389.900000
20
451.200000
0
VERTEX
8
0
10
396.000000
20
455.000000
0
VERTEX
8
0
10
394.647059
20
459.911765
0
VERTEX
8
0
10
393.750000
20
462.750000
0
VERTEX
8
0
10
348.250000
20
462.750000
0
VERTEX
8
0
10
353.352941
20
440.088235
0
VERTEX
8
0
10
357.000000
20
433.000000
0
VERTEX
8
0
10
358.000000
20
433.000000
0
SEQEND
0
POLYLINE
8
0
6
CONTINUOUS
66
1
62
7
10
0.0
20
0.0
30
0.000000
0
VERTEX
8
0
10
576.000000
20
433.000000
0
VERTEX
8
0
10
579.700000
20
440.100000
0
VERTEX
8
0
10
586.000000
20
462.000000
0
VERTEX
8
0
10
585.000000
20
463.000000
0
VERTEX
8
0
10
540.000000
20
463.000000
0
VERTEX
8
0
10
538.000000
20
461.000000
0
VERTEX
8
0
10
538.000000
20
455.000000
0
VERTEX
8
0
10
548.846154
20
448.769231
0
VERTEX
8
0
10
576.000000
20
433.000000
0
SEQEND
0
POLYLINE
8
0
6
CONTINUOUS
66
1
62
7
10
0.0
20
0.0
30
0.000000
0
VERTEX
8
0
10
795.000000
20
417.000000
0
VERTEX
8
0
10
802.000000
20
473.000000
0
VERTEX
8
0
10
802.000000
20
482.000000
0
VERTEX
8
0
10
797.554455
20
521.955446
0
VERTEX
8
0
10
795.580000
20
536.940000
0
VERTEX
8
0
10
791.647059
20
553.911765
0
VERTEX
8
0
10
791.200000
20
555.100000
0
VERTEX
8
0
10
789.000000
20
558.000000
0
VERTEX
8
0
10
761.153846
20
541.769231
0
VERTEX
8
0
10
751.100000
20
535.800000
0
VERTEX
8
0
10
726.000000
20
521.000000
0
VERTEX
8
0
10
724.000000
20
521.000000
0
VERTEX
8
0
10
718.800000
20
529.900000
0
VERTEX
8
0
10
687.000000
20
586.000000
0
VERTEX
8
0
10
684.000000
20
586.000000
0
VERTEX
8
0
10
639.100000
20
559.800000
0
VERTEX
8
0
10
612.000000
20
544.000000
0
VERTEX
8
0
10
615.700000
20
533.900000
0
VERTEX
8
0
10
627.000000
20
494.000000
0
VERTEX
8
0
10
741.750000
20
493.750000
0
VERTEX
8
0
10
742.250000
20
417.250000
0
VERTEX
8
0
10
795.000000
20
417.000000
0
SEQEND
0
POLYLINE
8
0
6
CONTINUOUS
66
1
62
7
10
0.0
20
0.0
30
0.000000
0
VERTEX
8
0
10
394.000000
20
383.000000
0
VERTEX
8
0
10
417.000000
20
423.000000
0
VERTEX
8
0
10
415.195122
20
424.243902
0
VERTEX
8
0
10
410.647059
20
427.411765
0
VERTEX
8
0
10
409.100000
20
426.800000
0
VERTEX
8
0
10
407.900000
20
426.200000
0
VERTEX
8
0
10
376.000000
20
408.000000
0
VERTEX
8
0
10
372.000000
20
404.000000
0
VERTEX
8
0
10
382.771698
20
393.750943
0
VERTEX
8
0
10
394.000000
20
383.000000
0
SEQEND
0
POLYLINE
8
0
6
CONTINUOUS
66
1
62
7
10
0.0
20
0.0
30
0.000000
0
VERTEX
8
0
10
540.000000
20
383.000000
0
VERTEX
8
0
10
562.000000
20
405.000000
0
VERTEX
8
0
10
522.000000
20
428.000000
0
VERTEX
8
0
10
517.000000
20
423.000000
0
VERTEX
8
0
10
540.000000
20
383.000000
0
SEQEND
0
POLYLINE
8
0
6
CONTINUOUS
66
1
62
7
10
0.0
20
0.0
30
0.000000
0
VERTEX
8
0
10
250.000000
20
370.000000
0
VERTEX
8
0
10
251.100000
20
370.800000
0
VERTEX
8
0
10
318.000000
20
410.000000
0
VERTEX
8
0
10
321.000000
20
413.000000
0
VERTEX
8
0
10
318.300000
20
419.100000
0
VERTEX
8
0
10
313.647059
20
434.911765
0
VERTEX
8
0
10
309.405405
20
453.067568
0
VERTEX
8
0
10
308.000000
20
462.000000
0
VERTEX
8
0
10
306.000000
20
464.000000
0
VERTEX
8
0
10
277.991530
20
463.491233
0
VERTEX
8
0
10
193.000000
20
462.000000
0
VERTEX
8
0
10
192.000000
20
463.000000
0
VERTEX
8
0
10
192.000000
20
538.000000
0
VERTEX
8
0
10
191.000000
20
539.000000
0
VERTEX
8
0
10
139.000000
20
539.000000
0
VERTEX
8
0
10
138.000000
20
538.000000
0
VERTEX
8
0
10
136.569231
20
528.053846
0
VERTEX
8
0
10
132.000000
20
485.000000
0
VERTEX
8
0
10
132.000000
20
474.000000
0
VERTEX
8
0
10
136.439024
20
427.048780
0
VERTEX
8
0
10
141.352941
20
406.088235
0
VERTEX
8
0
10
143.250000
20
399.250000
0
VERTEX
8
0
10
144.000000
20
399.000000
0
VERTEX
8
0
10
198.100000
20
429.800000
0
VERTEX
8
0
10
205.100000
20
433.800000
0
VERTEX
8
0
10
209.000000
20
435.000000
0
VERTEX
8
0
10
246.000000
20
370.000000
0
VERTEX
8
0
10
250.000000
20
370.000000
0
SEQEND
0
POLYLINE
8
0
6
CONTINUOUS
66
1
62
7
10
0.0
20
0.0
30
0.000000
0
VERTEX
8
0
10
489.000000
20
360.000000
0
VERTEX
8
0
10
490.088235
20
360.647059
0
VERTEX
8
0
10
509.000000
20
366.000000
0
VERTEX
8
0
10
511.000000
20
368.000000
0
VERTEX
8
0
10
511.000000
20
370.000000
0
VERTEX
8
0
10
494.769231
20
397.846154
0
VERTEX
8
0
10
491.000000
20
405.000000
0
VERTEX
8
0
10
489.000000
20
407.000000
0
VERTEX
8
0
10
484.000000
20
406.000000
0
VERTEX
8
0
10
482.000000
20
404.000000
0
VERTEX
8
0
10
482.000000
20
361.000000
0
VERTEX
8
0
10
483.000000
20
360.000000
0
VERTEX
8
0
10
489.000000
20
360.000000
0
SEQEND
0
POLYLINE
8
0
6
CONTINUOUS
66
1
62
7
10
0.0
20
0.0
30
0.000000
0
VERTEX
8
0
10
450.000000
20
359.000000
0
VERTEX
8
0
10
452.000000
20
361.000000
0
VERTEX
8
0
10
452.000000
20
404.000000
0
VERTEX
8
0
10
450.000000
20
406.000000
0
VERTEX
8
0
10
444.000000
20
407.000000
0
VERTEX
8
0
10
441.800000
20
403.100000
0
VERTEX
8
0
10
437.769231
20
396.153846
0
VERTEX
8
0
10
422.000000
20
370.000000
0
VERTEX
8
0
10
422.000000
20
368.000000
0
VERTEX
8
0
10
424.000000
20
366.000000
0
VERTEX
8
0
10
449.100000
20
359.200000
0
VERTEX
8
0
10
450.000000
20
359.000000
0
SEQEND
0
POLYLINE
8
0
6
CONTINUOUS
66
1
62
7
10
0.0
20
0.0
30
0.000000
0
VERTEX
8
0
10
721.000000
20
260.000000
0
VERTEX
8
0
10
743.769231
20
293.153846
0
VERTEX
8
0
10
756.200000
20
312.900000
0
VERTEX
8
0
10
767.200000
20
334.900000
0
VERTEX
8
0
10
777.700000
20
357.100000
0
VERTEX
8
0
10
783.300000
20
372.900000
0
VERTEX
8
0
10
785.750000
20
384.750000
0
VERTEX
8
0
10
712.250000
20
385.250000
0
VERTEX
8
0
10
710.750000
20
461.750000
0
VERTEX
8
0
10
626.250000
20
461.750000
0
VERTEX
8
0
10
625.800000
20
460.100000
0
VERTEX
8
0
10
621.647059
20
443.088235
0
VERTEX
8
0
10
616.200000
20
423.900000
0
VERTEX
8
0
10
612.000000
20
412.000000
0
VERTEX
8
0
10
661.846154
20
383.769231
0
VERTEX
8
0
10
712.000000
20
354.000000
0
VERTEX
8
0
10
712.000000
20
352.000000
0
VERTEX
8
0
10
675.800000
20
289.100000
0
VERTEX
8
0
10
675.000000
20
287.000000
0
VERTEX
8
0
10
679.846154
20
283.769231
0
VERTEX
8
0
10
682.153846
20
282.230769
0
VERTEX
8
0
10
715.100000
20
263.200000
0
VERTEX
8
0
10
721.000000
20
260.000000
0
SEQEND
0
POLYLINE
8
0
6
CONTINUOUS
66
1
62
7
10
0.0
20
0.0
30
0.000000
0
VERTEX
8
0
10
226.000000
20
247.000000
0
VERTEX
8
0
10
241.200000
20
271.900000
0
VERTEX
8
0
10
264.000000
20
313.000000
0
VERTEX
8
0
10
287.900000
20
298.800000
0
VERTEX
8
0
10
329.000000
20
275.000000
0
VERTEX
8
0
10
332.000000
20
275.000000
0
VERTEX
8
0
10
339.230769
20
287.846154
0
VERTEX
8
0
10
374.000000
20
348.000000
0
VERTEX
8
0
10
356.788235
20
362.752941
0
VERTEX
8
0
10
349.754098
20
369.795082
0
VERTEX
8
0
10
337.000000
20
385.000000
0
VERTEX
8
0
10
252.153846
20
335.769231
0
VERTEX
8
0
10
238.000000
20
327.000000
0
VERTEX
8
0
10
235.000000
20
327.000000
0
VERTEX
8
0
10
198.000000
20
392.000000
0
VERTEX
8
0
10
195.000000
20
392.000000
0
VERTEX
8
0
10
182.153846
20
384.769231
0
VERTEX
8
0
10
153.000000
20
368.000000
0
VERTEX
8
0
10
153.000000
20
365.000000
0
VERTEX
8
0
10
165.800000
20
334.900000
0
VERTEX
8
0
10
166.800000
20
332.900000
0
VERTEX
8
0
10
182.230769
20
305.153846
0
VERTEX
8
0
10
188.769231
20
294.846154
0
VERTEX
8
0
10
203.243902
20
273.195122
0
VERTEX
8
0
10
226.000000
20
247.000000
0
SEQEND
0
POLYLINE
8
0
6
CONTINUOUS
66
1
62
7
10
0.0
20
0.0
30
0.000000
0
VERTEX
8
0
10
580.000000
20
164.000000
0
VERTEX
8
0
10
587.900000
20
167.300000
0
VERTEX
8
0
10
610.900000
20
177.200000
0
VERTEX
8
0
10
616.100000
20
179.800000
0
VERTEX
8
0
10
635.846154
20
190.230769
0
VERTEX
8
0
10
651.153846
20
200.769231
0
VERTEX
8
0
10
673.804878
20
217.243902
0
VERTEX
8
0
10
698.000000
20
237.000000
0
VERTEX
8
0
10
661.100000
20
259.200000
0
VERTEX
8
0
10
632.000000
20
276.000000
0
VERTEX
8
0
10
634.760000
20
279.180000
0
VERTEX
8
0
10
653.800000
20
313.100000
0
VERTEX
8
0
10
654.200000
20
313.900000
0
VERTEX
8
0
10
669.000000
20
340.000000
0
VERTEX
8
0
10
669.000000
20
343.000000
0
VERTEX
8
0
10
597.100000
20
384.200000
0
VERTEX
8
0
10
596.000000
20
385.000000
0
VERTEX
8
0
10
591.752212
20
379.216814
0
VERTEX
8
0
10
576.000000
20
362.000000
0
VERTEX
8
0
10
559.000000
20
348.000000
0
VERTEX
8
0
10
605.200000
20
269.100000
0
VERTEX
8
0
10
615.200000
20
252.100000
0
VERTEX
8
0
10
617.000000
20
249.000000
0
VERTEX
8
0
10
617.000000
20
247.000000
0
VERTEX
8
0
10
572.100000
20
220.800000
0
VERTEX
8
0
10
552.000000
20
209.000000
0
VERTEX
8
0
10
552.000000
20
207.000000
0
VERTEX
8
0
10
577.000000
20
164.000000
0
VERTEX
8
0
10
580.000000
20
164.000000
0
SEQEND
0
POLYLINE
8
0
6
CONTINUOUS
66
1
62
7
10
0.0
20
0.0
30
0.000000
0
VERTEX
8
0
10
374.000000
20
158.000000
0
VERTEX
8
0
10
375.250000
20
233.750000
0
VERTEX
8
0
10
451.750000
20
235.250000
0
VERTEX
8
0
10
450.750000
20
318.750000
0
VERTEX
8
0
10
421.088235
20
326.352941
0
VERTEX
8
0
10
417.088235
20
327.352941
0
VERTEX
8
0
10
403.100000
20
332.200000
0
VERTEX
8
0
10
401.000000
20
333.000000
0
VERTEX
8
0
10
371.800000
20
283.100000
0
VERTEX
8
0
10
343.000000
20
233.000000
0
VERTEX
8
0
10
341.000000
20
233.000000
0
VERTEX
8
0
10
279.100000
20
268.200000
0
VERTEX
8
0
10
276.000000
20
270.000000
0
VERTEX
8
0
10
272.800000
20
265.100000
0
VERTEX
8
0
10
271.769231
20
263.153846
0
VERTEX
8
0
10
249.000000
20
225.000000
0
VERTEX
8
0
10
271.195122
20
207.243902
0
VERTEX
8
0
10
314.100000
20
181.200000
0
VERTEX
8
0
10
324.900000
20
175.800000
0
VERTEX
8
0
10
357.900000
20
162.700000
0
VERTEX
8
0
10
374.000000
20
158.000000
0
SEQEND
0
POLYLINE
8
0
6
CONTINUOUS
66
1
62
7
10
0.0
20
0.0
30
0.000000
0
VERTEX
8
0
10
477.000000
20
144.000000
0
VERTEX
8
0
10
504.962069
20
146.455172
0
VERTEX
8
0
10
535.923077
20
151.384615
0
VERTEX
8
0
10
542.100000
20
152.700000
0
VERTEX
8
0
10
544.000000
20
153.000000
0
VERTEX
8
0
10
546.000000
20
155.000000
0
VERTEX
8
0
10
535.800000
20
172.900000
0
VERTEX
8
0
10
509.000000
20
220.000000
0
VERTEX
8
0
10
550.846154
20
244.230769
0
VERTEX
8
0
10
574.000000
20
258.000000
0
VERTEX
8
0
10
575.000000
20
260.000000
0
VERTEX
8
0
10
543.769231
20
313.846154
0
VERTEX
8
0
10
541.200000
20
318.100000
0
VERTEX
8
0
10
532.000000
20
333.000000
0
VERTEX
8
0
10
528.100000
20
330.800000
0
VERTEX
8
0
10
512.923077
20
325.384615
0
VERTEX
8
0
10
500.088235
20
322.647059
0
VERTEX
8
0
10
483.250000
20
318.750000
0
VERTEX
8
0
10
482.750000
20
203.250000
0
VERTEX
8
0
10
405.250000
20
202.750000
0
VERTEX
8
0
10
405.250000
20
149.250000
0
VERTEX
8
0
10
417.951220
20
147.560976
0
VERTEX
8
0
10
457.022624
20
144.475113
0
VERTEX
8
0
10
477.000000
20
144.000000
0
SEQEND
0
POLYLINE
8
0
6
CONTINUOUS
66
1
62
7
10
0.0
20
0.0
30
0.000000
0
VERTEX
8
0
10
475.000000
20
105.000000
0
VERTEX
8
0
10
517.959016
20
108.450820
0
VERTEX
8
0
10
544.923077
20
114.384615
0
VERTEX
8
0
10
558.923077
20
117.384615
0
VERTEX
8
0
10
574.900000
20
122.300000
0
VERTEX
8
0
10
608.900000
20
134.300000
0
VERTEX
8
0
10
629.900000
20
144.200000
0
VERTEX
8
0
10
651.100000
20
154.800000
0
VERTEX
8
0
10
666.820000
20
163.240000
0
VERTEX
8
0
10
709.000000
20
194.000000
0
VERTEX
8
0
10
750.240000
20
236.820000
0
VERTEX
8
0
10
780.760000
20
278.180000
0
VERTEX
8
0
10
791.800000
20
298.100000
0
VERTEX
8
0
10
804.200000
20
320.900000
0
VERTEX
8
0
10
812.300000
20
339.900000
0
VERTEX
8
0
10
824.300000
20
373.900000
0
VERTEX
8
0
10
830.384615
20
400.923077
0
VERTEX
8
0
10
835.384615
20
425.923077
0
VERTEX
8
0
10
837.466926
20
452.970817
0
VERTEX
8
0
10
839.000000
20
470.000000
0
VERTEX
8
0
10
837.468966
20
504.027586
0
VERTEX
8
0
10
835.549180
20
530.959016
0
VERTEX
8
0
10
831.615385
20
549.923077
0
VERTEX
8
0
10
825.615385
20
577.923077
0
VERTEX
8
0
10
812.700000
20
613.900000
0
VERTEX
8
0
10
806.700000
20
629.900000
0
VERTEX
8
0
10
792.800000
20
655.900000
0
VERTEX
8
0
10
781.200000
20
677.100000
0
VERTEX
8
0
10
765.240000
20
699.180000
0
VERTEX
8
0
10
758.240000
20
708.180000
0
VERTEX
8
0
10
746.000000
20
725.000000
0
VERTEX
8
0
10
701.771698
20
766.750943
0
VERTEX
8
0
10
654.100000
20
800.200000
0
VERTEX
8
0
10
610.100000
20
822.200000
0
VERTEX
8
0
10
554.932432
20
839.594595
0
VERTEX
8
0
10
550.067568
20
840.405405
0
VERTEX
8
0
10
508.250000
20
848.250000
0
VERTEX
8
0
10
507.554455
20
857.955446
0
VERTEX
8
0
10
504.800000
20
867.900000
0
VERTEX
8
0
10
504.200000
20
869.100000
0
VERTEX
8
0
10
500.000000
20
876.000000
0
VERTEX
8
0
10
492.000000
20
884.000000
0
VERTEX
8
0
10
483.900000
20
888.700000
0
VERTEX
8
0
10
475.000000
20
892.000000
0
VERTEX
8
0
10
458.000000
20
892.000000
0
VERTEX
8
0
10
447.900000
20
888.200000
0
VERTEX
8
0
10
441.000000
20
884.000000
0
VERTEX
8
0
10
433.000000
20
876.000000
0
VERTEX
8
0
10
428.200000
20
867.900000
0
VERTEX
8
0
10
427.800000
20
867.100000
0
VERTEX
8
0
10
425.450820
20
858.959016
0
VERTEX
8
0
10
424.750000
20
848.250000
0
VERTEX
8
0
10
384.076923
20
840.615385
0
VERTEX
8
0
10
378.067568
20
839.594595
0
VERTEX
8
0
10
324.100000
20
822.700000
0
VERTEX
8
0
10
278.900000
20
800.200000
0
VERTEX
8
0
10
231.228302
20
766.750943
0
VERTEX
8
0
10
187.000000
20
725.000000
0
VERTEX
8
0
10
171.243902
20
703.804878
0
VERTEX
8
0
10
165.240000
20
695.820000
0
VERTEX
8
0
10
151.800000
20
677.100000
0
VERTEX
8
0
10
139.800000
20
655.100000
0
VERTEX
8
0
10
126.300000
20
629.900000
0
VERTEX
8
0
10
119.200000
20
610.900000
0
VERTEX
8
0
10
107.647059
20
579.088235
0
VERTEX
8
0
10
100.615385
20
546.076923
0
VERTEX
8
0
10
97.450820
20
530.959016
0
VERTEX
8
0
10
94.531034
20
487.027586
0
VERTEX
8
0
10
94.000000
20
470.000000
0
VERTEX
8
0
10
96.466926
20
438.029183
0
VERTEX
8
0
10
98.384615
20
422.076923
0
VERTEX
8
0
10
103.384615
20
397.076923
0
VERTEX
8
0
10
108.700000
20
373.900000
0
VERTEX
8
0
10
121.300000
20
338.100000
0
VERTEX
8
0
10
129.200000
20
320.100000
0
VERTEX
8
0
10
141.800000
20
296.900000
0
VERTEX
8
0
10
152.240000
20
278.180000
0
VERTEX
8
0
10
183.249703
20
236.237812
0
VERTEX
8
0
10
224.000000
20
194.000000
0
VERTEX
8
0
10
266.180000
20
163.240000
0
VERTEX
8
0
10
283.100000
20
154.200000
0
VERTEX
8
0
10
303.900000
20
143.800000
0
VERTEX
8
0
10
324.100000
20
134.300000
0
VERTEX
8
0
10
359.900000
20
121.700000
0
VERTEX
8
0
10
374.076923
20
117.384615
0
VERTEX
8
0
10
391.923077
20
113.615385
0
VERTEX
8
0
10
415.040984
20
108.450820
0
VERTEX
8
0
10
424.959016
20
107.549180
0
VERTEX
8
0
10
475.000000
20
105.000000
0
SEQEND
0
ENDSEC
0
EOF
