  0
SECTION
  2
HEADER
  9
$ACADVER
  1
AC1012
  9
$DWGCODEPAGE
  3
dos932
  9
$INSBASE
 10
0.0
 20
0.0
 30
0.0
  9
$EXTMIN
 10
-0.1749972
 20
-0.0108330000000001
 30
0.0
  9
$EXTMAX
 10
1.424999599999999
 20
2.589161799999999
 30
0.0
  9
$LIMMIN
 10
0.0
 20
0.0
  9
$LIMMAX
 10
12.0
 20
9.0
  9
$ORTHOMODE
 70
     0
  9
$REGENMODE
 70
     1
  9
$FILLMODE
 70
     1
  9
$QTEXTMODE
 70
     0
  9
$MIRRTEXT
 70
     1
  9
$DRAGMODE
 70
     2
  9
$LTSCALE
 40
1.0
  9
$OSMODE
 70
    39
  9
$ATTMODE
 70
     1
  9
$TEXTSIZE
 40
0.2
  9
$TRACEWID
 40
0.05
  9
$TEXTSTYLE
  7
STANDARD
  9
$CLAYER
  8
3USMM_PKG
  9
$CELTYPE
  6
BYLAYER
  9
$CECOLOR
 62
   256
  9
$CELTSCALE
 40
1.0
  9
$DELOBJ
 70
     1
  9
$DISPSILH
 70
     0
  9
$DIMSCALE
 40
1.0
  9
$DIMASZ
 40
0.18
  9
$DIMEXO
 40
0.0625
  9
$DIMDLI
 40
0.38
  9
$DIMRND
 40
0.0
  9
$DIMDLE
 40
0.0
  9
$DIMEXE
 40
0.18
  9
$DIMTP
 40
0.0
  9
$DIMTM
 40
0.0
  9
$DIMTXT
 40
0.18
  9
$DIMCEN
 40
0.09
  9
$DIMTSZ
 40
0.0
  9
$DIMTOL
 70
     0
  9
$DIMLIM
 70
     0
  9
$DIMTIH
 70
     1
  9
$DIMTOH
 70
     1
  9
$DIMSE1
 70
     0
  9
$DIMSE2
 70
     0
  9
$DIMTAD
 70
     0
  9
$DIMZIN
 70
     0
  9
$DIMBLK
  1

  9
$DIMASO
 70
     1
  9
$DIMSHO
 70
     1
  9
$DIMPOST
  1

  9
$DIMAPOST
  1

  9
$DIMALT
 70
     0
  9
$DIMALTD
 70
     2
  9
$DIMALTF
 40
25.4
  9
$DIMLFAC
 40
1.0
  9
$DIMTOFL
 70
     0
  9
$DIMTVP
 40
0.0
  9
$DIMTIX
 70
     0
  9
$DIMSOXD
 70
     0
  9
$DIMSAH
 70
     0
  9
$DIMBLK1
  1

  9
$DIMBLK2
  1

  9
$DIMSTYLE
  2
STANDARD
  9
$DIMCLRD
 70
     0
  9
$DIMCLRE
 70
     0
  9
$DIMCLRT
 70
     0
  9
$DIMTFAC
 40
1.0
  9
$DIMGAP
 40
0.09
  9
$DIMJUST
 70
     0
  9
$DIMSD1
 70
     0
  9
$DIMSD2
 70
     0
  9
$DIMTOLJ
 70
     1
  9
$DIMTZIN
 70
     0
  9
$DIMALTZ
 70
     0
  9
$DIMALTTZ
 70
     0
  9
$DIMFIT
 70
     3
  9
$DIMUPT
 70
     0
  9
$DIMUNIT
 70
     2
  9
$DIMDEC
 70
     4
  9
$DIMTDEC
 70
     4
  9
$DIMALTU
 70
     2
  9
$DIMALTTD
 70
     2
  9
$DIMTXSTY
  7
STANDARD
  9
$DIMAUNIT
 70
     0
  9
$LUNITS
 70
     2
  9
$LUPREC
 70
     4
  9
$SKETCHINC
 40
0.1
  9
$FILLETRAD
 40
0.0
  9
$AUNITS
 70
     0
  9
$AUPREC
 70
     0
  9
$MENU
  1
.
  9
$ELEVATION
 40
0.0
  9
$PELEVATION
 40
0.0
  9
$THICKNESS
 40
0.0
  9
$LIMCHECK
 70
     0
  9
$BLIPMODE
 70
     0
  9
$CHAMFERA
 40
0.0
  9
$CHAMFERB
 40
0.0
  9
$CHAMFERC
 40
0.0
  9
$CHAMFERD
 40
0.0
  9
$SKPOLY
 70
     0
  9
$TDCREATE
 40
2453069.494971979
  9
$TDUPDATE
 40
2453069.495673218
  9
$TDINDWG
 40
0.0007091204
  9
$TDUSRTIMER
 40
0.0007091204
  9
$USRTIMER
 70
     1
  9
$ANGBASE
 50
0.0
  9
$ANGDIR
 70
     0
  9
$PDMODE
 70
     0
  9
$PDSIZE
 40
0.0
  9
$PLINEWID
 40
0.0
  9
$COORDS
 70
     1
  9
$SPLFRAME
 70
     0
  9
$SPLINETYPE
 70
     6
  9
$SPLINESEGS
 70
     8
  9
$ATTDIA
 70
     0
  9
$ATTREQ
 70
     1
  9
$HANDLING
 70
 10241
  9
$HANDSEED
  5
B3
  9
$SURFTAB1
 70
     6
  9
$SURFTAB2
 70
     6
  9
$SURFTYPE
 70
     6
  9
$SURFU
 70
     6
  9
$SURFV
 70
     6
  9
$UCSNAME
  2

  9
$UCSORG
 10
0.0
 20
0.0
 30
0.0
  9
$UCSXDIR
 10
1.0
 20
0.0
 30
0.0
  9
$UCSYDIR
 10
0.0
 20
1.0
 30
0.0
  9
$PUCSNAME
  2

  9
$PUCSORG
 10
0.0
 20
0.0
 30
0.0
  9
$PUCSXDIR
 10
1.0
 20
0.0
 30
0.0
  9
$PUCSYDIR
 10
0.0
 20
1.0
 30
0.0
  9
$USERI1
 70
     0
  9
$USERI2
 70
     0
  9
$USERI3
 70
     0
  9
$USERI4
 70
     0
  9
$USERI5
 70
     0
  9
$USERR1
 40
0.0
  9
$USERR2
 40
0.0
  9
$USERR3
 40
0.0
  9
$USERR4
 40
0.0
  9
$USERR5
 40
0.0
  9
$WORLDVIEW
 70
     1
  9
$SHADEDGE
 70
     3
  9
$SHADEDIF
 70
    70
  9
$TILEMODE
 70
     1
  9
$MAXACTVP
 70
    64
  9
$PINSBASE
 10
0.0
 20
0.0
 30
0.0
  9
$PLIMCHECK
 70
     0
  9
$PEXTMIN
 10
1.000000000000000E+20
 20
1.000000000000000E+20
 30
1.000000000000000E+20
  9
$PEXTMAX
 10
-1.000000000000000E+20
 20
-1.000000000000000E+20
 30
-1.000000000000000E+20
  9
$PLIMMIN
 10
0.0
 20
0.0
  9
$PLIMMAX
 10
12.0
 20
9.0
  9
$UNITMODE
 70
     0
  9
$VISRETAIN
 70
     1
  9
$PLINEGEN
 70
     0
  9
$PSLTSCALE
 70
     1
  9
$TREEDEPTH
 70
  3020
  9
$PICKSTYLE
 70
     1
  9
$CMLSTYLE
  2
STANDARD
  9
$CMLJUST
 70
     0
  9
$CMLSCALE
 40
1.0
  9
$SAVEIMAGES
 70
     1
  0
ENDSEC
  0
SECTION
  2
CLASSES
  0
CLASS
  1
ACDBDICTIONARYWDFLT
  2
AcDbDictionaryWithDefault
  3
AutoCAD 2000
 90
    32768
280
     0
281
     0
  0
CLASS
  1
ACDBPLACEHOLDER
  2
AcDbPlaceHolder
  3
AutoCAD 2000
 90
    32768
280
     0
281
     0
  0
CLASS
  1
LAYOUT
  2
AcDbLayout
  3
AutoCAD 2000
 90
    32768
280
     0
281
     0
  0
CLASS
  1
LONG_TRANSACTION
  2
AcDbLongTransaction
  3
AutoCAD 2000
 90
    32768
280
     0
281
     0
  0
CLASS
  1
LWPOLYLINE
  2
AcDbPolyline
  3
AutoCAD 2000
 90
    32768
280
     0
281
     1
  0
CLASS
  1
HATCH
  2
AcDbHatch
  3
AutoCAD 2000
 90
    32768
280
     0
281
     1
  0
CLASS
  1
XRECORD
  2
AcDbXrecord
  3
AutoCAD 2000
 90
    32768
280
     0
281
     0
  0
ENDSEC
  0
SECTION
  2
TABLES
  0
TABLE
  2
VPORT
  5
8
330
0
100
AcDbSymbolTable
 70
     2
  0
VPORT
  5
73
330
8
100
AcDbSymbolTableRecord
100
AcDbViewportTableRecord
  2
*ACTIVE
 70
     0
 10
0.0
 20
0.0
 11
1.0
 21
1.0
 12
1.054428034584017
 22
-0.116236155495284
 13
0.0
 23
0.0
 14
1.0
 24
1.0
 15
0.0
 25
0.0
 16
0.0
 26
0.0
 36
1.0
 17
0.0
 27
0.0
 37
0.0
 40
8.999999995809082
 41
1.750922509225092
 42
50.0
 43
0.0
 44
0.0
 50
0.0
 51
0.0
 71
     0
 72
   100
 73
     1
 74
     3
 75
     0
 76
     0
 77
     0
 78
     0
  0
ENDTAB
  0
TABLE
  2
LTYPE
  5
5
330
0
100
AcDbSymbolTable
 70
     1
  0
LTYPE
  5
13
330
5
100
AcDbSymbolTableRecord
100
AcDbLinetypeTableRecord
  2
BYBLOCK
 70
     0
  3

 72
    65
 73
     0
 40
0.0
  0
LTYPE
  5
14
330
5
100
AcDbSymbolTableRecord
100
AcDbLinetypeTableRecord
  2
BYLAYER
 70
     0
  3

 72
    65
 73
     0
 40
0.0
  0
LTYPE
  5
15
330
5
100
AcDbSymbolTableRecord
100
AcDbLinetypeTableRecord
  2
CONTINUOUS
 70
     0
  3
Solid line
 72
    65
 73
     0
 40
0.0
  0
ENDTAB
  0
TABLE
  2
LAYER
  5
2
330
0
100
AcDbSymbolTable
 70
     3
  0
LAYER
  5
10
330
2
100
AcDbSymbolTableRecord
100
AcDbLayerTableRecord
  2
0
 70
     0
 62
     7
  6
CONTINUOUS
  0
LAYER
  5
22
330
2
100
AcDbSymbolTableRecord
100
AcDbLayerTableRecord
  2
3USMM_PKG
 70
     0
 62
     7
  6
CONTINUOUS
  0
LAYER
  5
57
330
2
100
AcDbSymbolTableRecord
100
AcDbLayerTableRecord
  2
FOOT_PRINT
 70
     0
 62
     7
  6
CONTINUOUS
  0
ENDTAB
  0
TABLE
  2
STYLE
  5
3
330
0
100
AcDbSymbolTable
 70
     1
  0
STYLE
  5
11
330
3
100
AcDbSymbolTableRecord
100
AcDbTextStyleTableRecord
  2
STANDARD
 70
     0
 40
0.0
 41
1.0
 50
0.0
 71
     0
 42
0.2
  3
txt
  4

  0
ENDTAB
  0
TABLE
  2
VIEW
  5
6
330
0
100
AcDbSymbolTable
 70
     0
  0
ENDTAB
  0
TABLE
  2
UCS
  5
7
330
0
100
AcDbSymbolTable
 70
     0
  0
ENDTAB
  0
TABLE
  2
APPID
  5
9
330
0
100
AcDbSymbolTable
 70
     1
  0
APPID
  5
12
330
9
100
AcDbSymbolTableRecord
100
AcDbRegAppTableRecord
  2
ACAD
 70
     0
  0
ENDTAB
  0
TABLE
  2
DIMSTYLE
  5
A
330
0
100
AcDbSymbolTable
 70
     1
  0
DIMSTYLE
105
6F
330
A
100
AcDbSymbolTableRecord
100
AcDbDimStyleTableRecord
  2
STANDARD
 70
     0
  3

  4

  5

  6

  7

 40
1.0
 41
0.18
 42
0.0625
 43
0.38
 44
0.18
 45
0.0
 46
0.0
 47
0.0
 48
0.0
140
0.18
141
0.09
142
0.0
143
25.4
144
1.0
145
0.0
146
1.0
147
0.09
 71
     0
 72
     0
 73
     1
 74
     1
 75
     0
 76
     0
 77
     0
 78
     0
170
     0
171
     2
172
     0
173
     0
174
     0
175
     0
176
     0
177
     0
178
     0
270
     2
271
     4
272
     4
273
     2
274
     2
340
11
275
     0
280
     0
281
     0
282
     0
283
     1
284
     0
285
     0
286
     0
287
     3
288
     0
  0
ENDTAB
  0
TABLE
  2
BLOCK_RECORD
  5
1
330
0
100
AcDbSymbolTable
 70
     0
  0
BLOCK_RECORD
  5
1E
102
{ACAD_XDICTIONARY
360
76
102
}
330
1
100
AcDbSymbolTableRecord
100
AcDbBlockTableRecord
  2
*MODEL_SPACE
  0
BLOCK_RECORD
  5
1A
102
{ACAD_XDICTIONARY
360
74
102
}
330
1
100
AcDbSymbolTableRecord
100
AcDbBlockTableRecord
  2
*PAPER_SPACE
  0
ENDTAB
  0
ENDSEC
  0
SECTION
  2
BLOCKS
  0
BLOCK
  5
1F
330
1E
100
AcDbEntity
  8
0
100
AcDbBlockBegin
  2
*MODEL_SPACE
 70
     0
 10
0.0
 20
0.0
 30
0.0
  3
*MODEL_SPACE
  1

  0
ENDBLK
  5
20
330
1E
100
AcDbEntity
  8
0
100
AcDbBlockEnd
  0
BLOCK
  5
1B
330
1A
100
AcDbEntity
 67
     1
  8
0
100
AcDbBlockBegin
  2
*PAPER_SPACE
 70
     0
 10
0.0
 20
0.0
 30
0.0
  3
*PAPER_SPACE
  1

  0
ENDBLK
  5
1C
330
1A
100
AcDbEntity
 67
     1
  8
0
100
AcDbBlockEnd
  0
ENDSEC
  0
SECTION
  2
ENTITIES
  0
POLYLINE
  5
23
330
1E
100
AcDbEntity
  8
3USMM_PKG
100
AcDb2dPolyline
 66
     1
 10
0.0
 20
0.0
 30
0.0
  0
VERTEX
  5
78
330
23
100
AcDbEntity
  8
3USMM_PKG
100
AcDbVertex
100
AcDb2dVertex
 10
-0.1749972
 20
0.8891651999999998
 30
0.0
  0
VERTEX
  5
79
330
23
100
AcDbEntity
  8
3USMM_PKG
100
AcDbVertex
100
AcDb2dVertex
 10
1.424999599999999
 20
0.8891651999999998
 30
0.0
  0
SEQEND
  5
7A
330
23
100
AcDbEntity
  8
3USMM_PKG
  0
POLYLINE
  5
27
330
1E
100
AcDbEntity
  8
3USMM_PKG
100
AcDb2dPolyline
 66
     1
 10
0.0
 20
0.0
 30
0.0
  0
VERTEX
  5
7B
330
27
100
AcDbEntity
  8
3USMM_PKG
100
AcDbVertex
100
AcDb2dVertex
 10
1.424999599999999
 20
0.8891651999999998
 30
0.0
  0
VERTEX
  5
7C
330
27
100
AcDbEntity
  8
3USMM_PKG
100
AcDbVertex
100
AcDb2dVertex
 10
1.424999599999999
 20
1.6891636
 30
0.0
  0
SEQEND
  5
7D
330
27
100
AcDbEntity
  8
3USMM_PKG
  0
POLYLINE
  5
2B
330
1E
100
AcDbEntity
  8
3USMM_PKG
100
AcDb2dPolyline
 66
     1
 10
0.0
 20
0.0
 30
0.0
  0
VERTEX
  5
7E
330
2B
100
AcDbEntity
  8
3USMM_PKG
100
AcDbVertex
100
AcDb2dVertex
 10
1.424999599999999
 20
1.6891636
 30
0.0
  0
VERTEX
  5
7F
330
2B
100
AcDbEntity
  8
3USMM_PKG
100
AcDbVertex
100
AcDb2dVertex
 10
-0.1749972
 20
1.6891636
 30
0.0
  0
SEQEND
  5
80
330
2B
100
AcDbEntity
  8
3USMM_PKG
  0
POLYLINE
  5
2F
330
1E
100
AcDbEntity
  8
3USMM_PKG
100
AcDb2dPolyline
 66
     1
 10
0.0
 20
0.0
 30
0.0
  0
VERTEX
  5
81
330
2F
100
AcDbEntity
  8
3USMM_PKG
100
AcDbVertex
100
AcDb2dVertex
 10
-0.1749972
 20
1.6891636
 30
0.0
  0
VERTEX
  5
82
330
2F
100
AcDbEntity
  8
3USMM_PKG
100
AcDbVertex
100
AcDb2dVertex
 10
-0.1749972
 20
0.8891651999999998
 30
0.0
  0
SEQEND
  5
83
330
2F
100
AcDbEntity
  8
3USMM_PKG
  0
POLYLINE
  5
33
330
1E
100
AcDbEntity
  8
3USMM_PKG
100
AcDb2dPolyline
 66
     1
 10
0.0
 20
0.0
 30
0.0
  0
VERTEX
  5
84
330
33
100
AcDbEntity
  8
3USMM_PKG
100
AcDbVertex
100
AcDb2dVertex
 10
0.4750142000000002
 20
1.6891636
 30
0.0
  0
VERTEX
  5
85
330
33
100
AcDbEntity
  8
3USMM_PKG
100
AcDbVertex
100
AcDb2dVertex
 10
0.4750142000000002
 20
2.089162799999999
 30
0.0
  0
SEQEND
  5
86
330
33
100
AcDbEntity
  8
3USMM_PKG
  0
POLYLINE
  5
37
330
1E
100
AcDbEntity
  8
3USMM_PKG
100
AcDb2dPolyline
 66
     1
 10
0.0
 20
0.0
 30
0.0
  0
VERTEX
  5
87
330
37
100
AcDbEntity
  8
3USMM_PKG
100
AcDbVertex
100
AcDb2dVertex
 10
0.4750142000000002
 20
2.089162799999999
 30
0.0
  0
VERTEX
  5
88
330
37
100
AcDbEntity
  8
3USMM_PKG
100
AcDbVertex
100
AcDb2dVertex
 10
0.7750135999999999
 20
2.089162799999999
 30
0.0
  0
SEQEND
  5
89
330
37
100
AcDbEntity
  8
3USMM_PKG
  0
POLYLINE
  5
3B
330
1E
100
AcDbEntity
  8
3USMM_PKG
100
AcDb2dPolyline
 66
     1
 10
0.0
 20
0.0
 30
0.0
  0
VERTEX
  5
8A
330
3B
100
AcDbEntity
  8
3USMM_PKG
100
AcDbVertex
100
AcDb2dVertex
 10
0.7750135999999999
 20
2.089162799999999
 30
0.0
  0
VERTEX
  5
8B
330
3B
100
AcDbEntity
  8
3USMM_PKG
100
AcDbVertex
100
AcDb2dVertex
 10
0.7750135999999999
 20
1.6891636
 30
0.0
  0
SEQEND
  5
8C
330
3B
100
AcDbEntity
  8
3USMM_PKG
  0
POLYLINE
  5
3F
330
1E
100
AcDbEntity
  8
3USMM_PKG
100
AcDb2dPolyline
 66
     1
 10
0.0
 20
0.0
 30
0.0
  0
VERTEX
  5
8D
330
3F
100
AcDbEntity
  8
3USMM_PKG
100
AcDbVertex
100
AcDb2dVertex
 10
0.0282028
 20
0.8891651999999998
 30
0.0
  0
VERTEX
  5
8E
330
3F
100
AcDbEntity
  8
3USMM_PKG
100
AcDbVertex
100
AcDb2dVertex
 10
0.0282028
 20
0.4891659999999999
 30
0.0
  0
SEQEND
  5
8F
330
3F
100
AcDbEntity
  8
3USMM_PKG
  0
POLYLINE
  5
43
330
1E
100
AcDbEntity
  8
3USMM_PKG
100
AcDb2dPolyline
 66
     1
 10
0.0
 20
0.0
 30
0.0
  0
VERTEX
  5
90
330
43
100
AcDbEntity
  8
3USMM_PKG
100
AcDbVertex
100
AcDb2dVertex
 10
0.0282028
 20
0.4891659999999999
 30
0.0
  0
VERTEX
  5
91
330
43
100
AcDbEntity
  8
3USMM_PKG
100
AcDbVertex
100
AcDb2dVertex
 10
0.2314028
 20
0.4891659999999999
 30
0.0
  0
SEQEND
  5
92
330
43
100
AcDbEntity
  8
3USMM_PKG
  0
POLYLINE
  5
47
330
1E
100
AcDbEntity
  8
3USMM_PKG
100
AcDb2dPolyline
 66
     1
 10
0.0
 20
0.0
 30
0.0
  0
VERTEX
  5
93
330
47
100
AcDbEntity
  8
3USMM_PKG
100
AcDbVertex
100
AcDb2dVertex
 10
0.2314028
 20
0.4891659999999999
 30
0.0
  0
VERTEX
  5
94
330
47
100
AcDbEntity
  8
3USMM_PKG
100
AcDbVertex
100
AcDb2dVertex
 10
0.2314028
 20
0.8891651999999998
 30
0.0
  0
SEQEND
  5
95
330
47
100
AcDbEntity
  8
3USMM_PKG
  0
POLYLINE
  5
4B
330
1E
100
AcDbEntity
  8
3USMM_PKG
100
AcDb2dPolyline
 66
     1
 10
0.0
 20
0.0
 30
0.0
  0
VERTEX
  5
96
330
4B
100
AcDbEntity
  8
3USMM_PKG
100
AcDbVertex
100
AcDb2dVertex
 10
1.0188028
 20
0.8891651999999998
 30
0.0
  0
VERTEX
  5
97
330
4B
100
AcDbEntity
  8
3USMM_PKG
100
AcDbVertex
100
AcDb2dVertex
 10
1.0188028
 20
0.4891659999999999
 30
0.0
  0
SEQEND
  5
98
330
4B
100
AcDbEntity
  8
3USMM_PKG
  0
POLYLINE
  5
4F
330
1E
100
AcDbEntity
  8
3USMM_PKG
100
AcDb2dPolyline
 66
     1
 10
0.0
 20
0.0
 30
0.0
  0
VERTEX
  5
99
330
4F
100
AcDbEntity
  8
3USMM_PKG
100
AcDbVertex
100
AcDb2dVertex
 10
1.0188028
 20
0.4891659999999999
 30
0.0
  0
VERTEX
  5
9A
330
4F
100
AcDbEntity
  8
3USMM_PKG
100
AcDbVertex
100
AcDb2dVertex
 10
1.222002799999999
 20
0.4891659999999999
 30
0.0
  0
SEQEND
  5
9B
330
4F
100
AcDbEntity
  8
3USMM_PKG
  0
POLYLINE
  5
53
330
1E
100
AcDbEntity
  8
3USMM_PKG
100
AcDb2dPolyline
 66
     1
 10
0.0
 20
0.0
 30
0.0
  0
VERTEX
  5
9C
330
53
100
AcDbEntity
  8
3USMM_PKG
100
AcDbVertex
100
AcDb2dVertex
 10
1.222002799999999
 20
0.4891659999999999
 30
0.0
  0
VERTEX
  5
9D
330
53
100
AcDbEntity
  8
3USMM_PKG
100
AcDbVertex
100
AcDb2dVertex
 10
1.222002799999999
 20
0.8891651999999998
 30
0.0
  0
SEQEND
  5
9E
330
53
100
AcDbEntity
  8
3USMM_PKG
  0
POLYLINE
  5
58
330
1E
100
AcDbEntity
  8
FOOT_PRINT
100
AcDb2dPolyline
 66
     1
 10
0.0
 20
0.0
 30
0.0
 70
     1
  0
VERTEX
  5
9F
330
58
100
AcDbEntity
  8
FOOT_PRINT
100
AcDbVertex
100
AcDb2dVertex
 10
0.008213
 20
0.9091549999999999
 30
0.0
  0
VERTEX
  5
A0
330
58
100
AcDbEntity
  8
FOOT_PRINT
100
AcDbVertex
100
AcDb2dVertex
 10
0.2513926
 20
0.9091549999999999
 30
0.0
  0
VERTEX
  5
A1
330
58
100
AcDbEntity
  8
FOOT_PRINT
100
AcDbVertex
100
AcDb2dVertex
 10
0.2513926
 20
-0.0108330000000001
 30
0.0
  0
VERTEX
  5
A2
330
58
100
AcDbEntity
  8
FOOT_PRINT
100
AcDbVertex
100
AcDb2dVertex
 10
0.008213
 20
-0.0108330000000001
 30
0.0
  0
VERTEX
  5
A3
330
58
100
AcDbEntity
  8
FOOT_PRINT
100
AcDbVertex
100
AcDb2dVertex
 10
0.008213
 20
0.9091549999999999
 30
0.0
  0
VERTEX
  5
A4
330
58
100
AcDbEntity
  8
FOOT_PRINT
100
AcDbVertex
100
AcDb2dVertex
 10
0.008213
 20
0.9091549999999999
 30
0.0
  0
SEQEND
  5
A5
330
58
100
AcDbEntity
  8
FOOT_PRINT
  0
POLYLINE
  5
60
330
1E
100
AcDbEntity
  8
FOOT_PRINT
100
AcDb2dPolyline
 66
     1
 10
0.0
 20
0.0
 30
0.0
 70
     1
  0
VERTEX
  5
A6
330
60
100
AcDbEntity
  8
FOOT_PRINT
100
AcDbVertex
100
AcDb2dVertex
 10
0.9988129999999998
 20
0.9091549999999999
 30
0.0
  0
VERTEX
  5
A7
330
60
100
AcDbEntity
  8
FOOT_PRINT
100
AcDbVertex
100
AcDb2dVertex
 10
1.241992599999999
 20
0.9091549999999999
 30
0.0
  0
VERTEX
  5
A8
330
60
100
AcDbEntity
  8
FOOT_PRINT
100
AcDbVertex
100
AcDb2dVertex
 10
1.241992599999999
 20
-0.0108330000000001
 30
0.0
  0
VERTEX
  5
A9
330
60
100
AcDbEntity
  8
FOOT_PRINT
100
AcDbVertex
100
AcDb2dVertex
 10
0.9988129999999998
 20
-0.0108330000000001
 30
0.0
  0
VERTEX
  5
AA
330
60
100
AcDbEntity
  8
FOOT_PRINT
100
AcDbVertex
100
AcDb2dVertex
 10
0.9988129999999998
 20
0.9091549999999999
 30
0.0
  0
VERTEX
  5
AB
330
60
100
AcDbEntity
  8
FOOT_PRINT
100
AcDbVertex
100
AcDb2dVertex
 10
0.9988129999999998
 20
0.9091549999999999
 30
0.0
  0
SEQEND
  5
AC
330
60
100
AcDbEntity
  8
FOOT_PRINT
  0
POLYLINE
  5
68
330
1E
100
AcDbEntity
  8
FOOT_PRINT
100
AcDb2dPolyline
 66
     1
 10
0.0
 20
0.0
 30
0.0
 70
     1
  0
VERTEX
  5
AD
330
68
100
AcDbEntity
  8
FOOT_PRINT
100
AcDbVertex
100
AcDb2dVertex
 10
0.4549989999999999
 20
1.6691738
 30
0.0
  0
VERTEX
  5
AE
330
68
100
AcDbEntity
  8
FOOT_PRINT
100
AcDbVertex
100
AcDb2dVertex
 10
0.7950033999999999
 20
1.6691738
 30
0.0
  0
VERTEX
  5
AF
330
68
100
AcDbEntity
  8
FOOT_PRINT
100
AcDbVertex
100
AcDb2dVertex
 10
0.7950033999999999
 20
2.589161799999999
 30
0.0
  0
VERTEX
  5
B0
330
68
100
AcDbEntity
  8
FOOT_PRINT
100
AcDbVertex
100
AcDb2dVertex
 10
0.4549989999999999
 20
2.589161799999999
 30
0.0
  0
VERTEX
  5
B1
330
68
100
AcDbEntity
  8
FOOT_PRINT
100
AcDbVertex
100
AcDb2dVertex
 10
0.4549989999999999
 20
1.6691738
 30
0.0
  0
SEQEND
  5
B2
330
68
100
AcDbEntity
  8
FOOT_PRINT
  0
ENDSEC
  0
SECTION
  2
OBJECTS
  0
DICTIONARY
  5
C
330
0
100
AcDbDictionary
  3
ACAD_GROUP
350
D
  3
ACAD_MLINESTYLE
350
16
  3
ACAD_PLOTSETTINGS
350
18
  3
ACAD_LAYOUT
350
19
1001
ACAD
1000
TREAT_AS_HARD
1070
     0
  0
DICTIONARY
  5
76
330
1E
100
AcDbDictionary
  3
ACAD_LAYOUTSELFREF
350
77
  0
DICTIONARY
  5
74
330
1A
100
AcDbDictionary
  3
ACAD_LAYOUTSELFREF
350
75
  0
DICTIONARY
  5
D
102
{ACAD_REACTORS
330
C
102
}
330
C
100
AcDbDictionary
1001
ACAD
1000
TREAT_AS_HARD
1070
     0
  0
DICTIONARY
  5
16
102
{ACAD_REACTORS
330
C
102
}
330
C
100
AcDbDictionary
  3
STANDARD
350
17
1001
ACAD
1000
TREAT_AS_HARD
1070
     0
  0
DICTIONARY
  5
18
102
{ACAD_REACTORS
330
C
102
}
330
C
100
AcDbDictionary
1001
ACAD
1000
TREAT_AS_HARD
1070
     0
  0
DICTIONARY
  5
19
102
{ACAD_REACTORS
330
C
102
}
330
C
100
AcDbDictionary
1001
ACAD
1000
TREAT_AS_HARD
1070
     0
  0
XRECORD
  5
77
102
{ACAD_REACTORS
330
76
102
}
330
76
100
AcDbXrecord
340
1E
  0
XRECORD
  5
75
102
{ACAD_REACTORS
330
74
102
}
330
74
100
AcDbXrecord
340
1A
  0
MLINESTYLE
  5
17
102
{ACAD_REACTORS
330
16
102
}
330
16
100
AcDbMlineStyle
  2
STANDARD
 70
     0
  3

 62
   256
 51
90.0
 52
90.0
 71
     2
 49
0.5
 62
   256
  6
BYLAYER
 49
-0.5
 62
   256
  6
BYLAYER
  0
ENDSEC
  0
EOF
