  0
SECTION
  2
HEADER
  9
$ACADVER
  1
AC1009
  9
$INSBASE
 10
0.0
 20
0.0
 30
0.0
  9
$EXTMIN
 10
-6.0
 20
-11.0
 30
0.0
  9
$EXTMAX
 10
18.0
 20
13.0
 30
6.0093164793974321
  9
$LIMMIN
 10
340.77271443962059
 20
496.1073385151812
  9
$LIMMAX
 10
5645.4454449400646
 20
4714.1931012738696
  9
$ORTHOMODE
 70
     0
  9
$REGENMODE
 70
     1
  9
$FILLMODE
 70
     0
  9
$QTEXTMODE
 70
     0
  9
$MIRRTEXT
 70
     1
  9
$DRAGMODE
 70
     2
  9
$LTSCALE
 40
45.0
  9
$OSMODE
 70
   163
  9
$ATTMODE
 70
     1
  9
$TEXTSIZE
 40
20.0
  9
$TRACEWID
 40
5.0
  9
$TEXTSTYLE
  7
ROMANS
  9
$CLAYER
  8
0
  9
$CELTYPE
  6
BYLAYER
  9
$CECOLOR
 62
   256
  9
$DIMSCALE
 40
1.0
  9
$DIMASZ
 40
1.0
  9
$DIMEXO
 40
1.0
  9
$DIMDLI
 40
0.38
  9
$DIMRND
 40
0.0
  9
$DIMDLE
 40
0.0
  9
$DIMEXE
 40
2.0
  9
$DIMTP
 40
0.0
  9
$DIMTM
 40
0.0
  9
$DIMTXT
 40
20.0
  9
$DIMCEN
 40
0.09
  9
$DIMTSZ
 40
0.0
  9
$DIMTOL
 70
     0
  9
$DIMLIM
 70
     0
  9
$DIMTIH
 70
     0
  9
$DIMTOH
 70
     0
  9
$DIMSE1
 70
     1
  9
$DIMSE2
 70
     1
  9
$DIMTAD
 70
     1
  9
$DIMZIN
 70
     0
  9
$DIMBLK
  1

  9
$DIMASO
 70
     0
  9
$DIMSHO
 70
     0
  9
$DIMPOST
  1

  9
$DIMAPOST
  1

  9
$DIMALT
 70
     0
  9
$DIMALTD
 70
     2
  9
$DIMALTF
 40
25.399999999999999
  9
$DIMLFAC
 40
1.0
  9
$DIMTOFL
 70
     1
  9
$DIMTVP
 40
0.0
  9
$DIMTIX
 70
     1
  9
$DIMSOXD
 70
     0
  9
$DIMSAH
 70
     0
  9
$DIMBLK1
  1

  9
$DIMBLK2
  1

  9
$DIMSTYLE
  2
STANDARD
  9
$DIMCLRD
 70
     0
  9
$DIMCLRE
 70
     0
  9
$DIMCLRT
 70
     0
  9
$DIMTFAC
 40
1.0
  9
$DIMGAP
 40
0.09
  9
$LUNITS
 70
     2
  9
$LUPREC
 70
     3
  9
$SKETCHINC
 40
0.0111322096881365
  9
$FILLETRAD
 40
0.0
  9
$AUNITS
 70
     0
  9
$AUPREC
 70
     1
  9
$MENU
  1
ACAD
  9
$ELEVATION
 40
0.0
  9
$PELEVATION
 40
0.0
  9
$THICKNESS
 40
0.0
  9
$LIMCHECK
 70
     0
  9
$BLIPMODE
 70
     0
  9
$CHAMFERA
 40
0.19
  9
$CHAMFERB
 40
0.19
  9
$SKPOLY
 70
     0
  9
$TDCREATE
 40
2449140.0831040512
  9
$TDUPDATE
 40
2454315.9103996642
  9
$TDINDWG
 40
5.6098131134000004
  9
$TDUSRTIMER
 40
5.6098131134000004
  9
$USRTIMER
 70
     1
  9
$ANGBASE
 50
0.0
  9
$ANGDIR
 70
     0
  9
$PDMODE
 70
     3
  9
$PDSIZE
 40
0.0
  9
$PLINEWID
 40
0.1
  9
$COORDS
 70
     1
  9
$SPLFRAME
 70
     1
  9
$SPLINETYPE
 70
     6
  9
$SPLINESEGS
 70
  1000
  9
$ATTDIA
 70
     0
  9
$ATTREQ
 70
     1
  9
$HANDLING
 70
 22529
  9
$HANDSEED
  5
D1
  9
$SURFTAB1
 70
     6
  9
$SURFTAB2
 70
     6
  9
$SURFTYPE
 70
     6
  9
$SURFU
 70
     6
  9
$SURFV
 70
     6
  9
$UCSNAME
  2

  9
$UCSORG
 10
0.0
 20
0.0
 30
0.0
  9
$UCSXDIR
 10
1.0
 20
0.0
 30
0.0
  9
$UCSYDIR
 10
0.0
 20
1.0
 30
0.0
  9
$PUCSNAME
  2

  9
$PUCSORG
 10
0.0
 20
0.0
 30
0.0
  9
$PUCSXDIR
 10
1.0
 20
0.0
 30
0.0
  9
$PUCSYDIR
 10
0.0
 20
1.0
 30
0.0
  9
$USERI1
 70
     0
  9
$USERI2
 70
     0
  9
$USERI3
 70
     0
  9
$USERI4
 70
     0
  9
$USERI5
 70
     0
  9
$USERR1
 40
0.0
  9
$USERR2
 40
0.0
  9
$USERR3
 40
0.0
  9
$USERR4
 40
0.0
  9
$USERR5
 40
0.0
  9
$WORLDVIEW
 70
     1
  9
$SHADEDGE
 70
     3
  9
$SHADEDIF
 70
    70
  9
$TILEMODE
 70
     1
  9
$MAXACTVP
 70
    16
  9
$PLIMCHECK
 70
     0
  9
$PEXTMIN
 10
1.131416632434515
 20
0.7937500251559762
 30
0.0
  9
$PEXTMAX
 10
10.18274969191063
 20
7.1437502264037844
 30
0.0
  9
$PLIMMIN
 10
-0.1479165385088583
 20
-0.1645833300793265
  9
$PLIMMAX
 10
11.54374971164493
 20
8.1020831123111758
  9
$UNITMODE
 70
     0
  9
$VISRETAIN
 70
     0
  9
$PLINEGEN
 70
     0
  9
$PSLTSCALE
 70
     0
  0
ENDSEC
  0
SECTION
  2
TABLES
  0
TABLE
  2
VPORT
 70
     1
  0
VPORT
  2
*ACTIVE
 70
     0
 10
0.0
 20
0.0
 11
1.0
 21
1.0
 12
0.0
 22
0.0
 13
0.0
 23
0.0
 14
1.0
 24
1.0
 15
0.0
 25
0.0
 16
15.45755281439294
 26
19.715211335327151
 36
37.76419284020799
 17
10.133445612103159
 27
7.1388923773743311
 37
10.161420533440911
 40
24.724288343976362
 41
1.1707317073170731
 42
50.0
 43
68.242436368020819
 44
68.242436368020819
 50
0.0
 51
356.76371095213938
 71
     0
 72
  1000
 73
     1
 74
     2
 75
     0
 76
     0
 77
     0
 78
     2
  0
ENDTAB
  0
TABLE
  2
LTYPE
 70
     1
  0
LTYPE
  2
CONTINUOUS
 70
     0
  3
Solid line
 72
    65
 73
     0
 40
0.0
  0
ENDTAB
  0
TABLE
  2
LAYER
 70
     2
  0
LAYER
  2
0
 70
     0
 62
     3
  6
CONTINUOUS
  0
LAYER
  2
T-2DPLINE-ALL
 70
     0
 62
     2
  6
CONTINUOUS
  0
ENDTAB
  0
TABLE
  2
STYLE
 70
     2
  0
STYLE
  2
STANDARD
 70
     0
 40
0.0
 41
1.0
 50
0.0
 71
     0
 42
20.0
  3
txt
  4

  0
STYLE
  2
ROMANS
 70
     0
 40
0.0
 41
1.0
 50
0.0
 71
     0
 42
20.0
  3
romans
  4

  0
ENDTAB
  0
TABLE
  2
VIEW
 70
     0
  0
ENDTAB
  0
TABLE
  2
UCS
 70
     0
  0
ENDTAB
  0
TABLE
  2
APPID
 70
     1
  0
APPID
  2
ACAD
 70
     0
  0
ENDTAB
  0
TABLE
  2
DIMSTYLE
 70
     1
  0
DIMSTYLE
  2
STANDARD
 70
     0
  3

  4

  5

  6

  7

 40
1.0
 41
0.18
 42
0.0625
 43
0.38
 44
0.18
 45
0.0
 46
0.0
 47
0.0
 48
0.0
140
0.18
141
0.09
142
0.0
143
25.399999999999999
144
1.0
145
0.0
146
1.0
147
0.09
 71
     0
 72
     0
 73
     1
 74
     1
 75
     0
 76
     0
 77
     0
 78
     0
170
     0
171
     2
172
     0
173
     0
174
     0
175
     0
176
     0
177
     0
178
     0
  0
ENDTAB
  0
ENDSEC
  0
SECTION
  2
BLOCKS
  0
BLOCK
  8
0
  2
$MODEL_SPACE
 70
     0
 10
0.0
 20
0.0
 30
0.0
  3
$MODEL_SPACE
  1

  0
ENDBLK
  5
B
  8
0
  0
BLOCK
 67
     1
  8
0
  2
$PAPER_SPACE
 70
     0
 10
0.0
 20
0.0
 30
0.0
  3
$PAPER_SPACE
  1

  0
ENDBLK
  5
12
 67
     1
  8
0
  0
ENDSEC
  0
SECTION
  2
ENTITIES
  0
POLYLINE
  5
29
  8
T-2DPLINE-ALL
 62
    20
 66
     1
 10
0.0
 20
0.0
 30
3.5664234640548771
 39
1.563582672129282
 40
3.0658483767240838
 41
1.226339350689633
210
0.0207461631753607
220
0.3239633267477399
230
0.9458421430852181
  0
VERTEX
  5
4E
  8
T-2DPLINE-ALL
 62
    20
 10
-6.255607057780904
 20
-5.5557016588601824
 30
3.5664234640548771
  0
VERTEX
  5
4F
  8
T-2DPLINE-ALL
 62
    20
 10
-6.8894483644561921
 20
-5.5727095362190537
 30
3.5664234640548771
 40
1.226339350689633
  0
VERTEX
  5
50
  8
T-2DPLINE-ALL
 62
    20
 10
-17.294130929849551
 20
-5.2748053052915234
 30
3.5664234640548771
 40
1.2166064987000329
 41
1.2166064987000329
  0
VERTEX
  5
51
  8
T-2DPLINE-ALL
 62
    20
 10
-10.09001146795408
 20
-8.8326813158362327
 30
3.5664234640548771
 40
0.4866425994800134
 41
0.4866425994800134
  0
VERTEX
  5
52
  8
T-2DPLINE-ALL
 62
    20
 10
-10.29003406845268
 20
-1.1084667157673469
 30
3.5664234640548771
 40
1.226339350689633
  0
SEQEND
  5
53
  8
T-2DPLINE-ALL
 62
    20
  0
POLYLINE
  5
2B
  8
T-2DPLINE-ALL
 62
    20
 66
     1
 10
0.0
 20
0.0
 30
3.5664234640548811
 39
1.563582672129282
 40
0.2433212997400067
 41
1.4599277984400401
210
0.0207461631753607
220
0.3239633267477399
230
0.9458421430852181
  0
VERTEX
  5
54
  8
T-2DPLINE-ALL
 62
    20
 10
-8.8881452710359277
 20
-4.005877808276006
 30
3.5664234640548811
 42
3.047963323761917
  0
VERTEX
  5
55
  8
T-2DPLINE-ALL
 62
    20
 10
-12.841366111564399
 20
-2.3945318217275271
 30
3.5664234640548811
 40
0.9197545130172251
 41
0.9197545130172251
  0
VERTEX
  5
56
  8
T-2DPLINE-ALL
 62
    20
 10
-16.550179563999681
 20
-2.73948820758471
 30
3.5664234640548811
 40
1.4599277984400401
 41
0.2433212997400067
  0
VERTEX
  5
57
  8
T-2DPLINE-ALL
 62
    20
 10
-16.896541056440171
 20
1.836552846669335
 30
3.5664234640548811
  0
SEQEND
  5
58
  8
T-2DPLINE-ALL
 62
    20
  0
POLYLINE
  5
2C
  8
T-2DPLINE-ALL
 62
    20
 66
     1
 10
0.0
 20
0.0
 30
5.0000000000000009
 39
0.4866425994800134
210
0.0207461631753608
220
0.3239633267477397
230
0.9458421430852183
  0
VERTEX
  5
59
  8
T-2DPLINE-ALL
 62
    20
 10
-4.7169536038787969
 20
-10.77706998027773
 30
5.0000000000000009
 42
1.025737835365788
  0
VERTEX
  5
5A
  8
T-2DPLINE-ALL
 62
    20
 10
-5.4701073584498143
 20
-10.827367367829959
 30
5.0000000000000009
 42
0.0750356582327105
  0
SEQEND
  5
5B
  8
T-2DPLINE-ALL
 62
    20
  0
POLYLINE
  5
2D
  8
T-2DPLINE-ALL
 62
    20
 66
     1
 10
0.0
 20
0.0
 30
5.0000000000000009
 39
0.4866425994800134
 40
0.2433212997400067
 41
0.2433212997400067
210
0.0207461631753608
220
0.3239633267477397
230
0.9458421430852183
  0
VERTEX
  5
5C
  8
T-2DPLINE-ALL
 62
    20
 10
-4.7416579234961507
 20
-9.0680741070863391
 30
5.0000000000000009
 42
1.025737835365788
  0
VERTEX
  5
5D
  8
T-2DPLINE-ALL
 62
    20
 10
-5.4948116780671636
 20
-9.1183714946385575
 30
5.0000000000000009
 42
0.0750356582327105
  0
SEQEND
  5
5E
  8
T-2DPLINE-ALL
 62
    20
  0
POLYLINE
  5
2E
  8
T-2DPLINE-ALL
 62
    20
 66
     1
 10
0.0
 20
0.0
 30
5.0000000000000009
 39
0.4866425994800134
 70
     1
210
0.0207461631753608
220
0.3239633267477397
230
0.9458421430852183
  0
VERTEX
  5
5F
  8
T-2DPLINE-ALL
 62
    20
 10
-3.856821588081369
 20
-9.7579240538723369
 30
5.0000000000000009
 42
1.025737835365788
  0
VERTEX
  5
60
  8
T-2DPLINE-ALL
 62
    20
 10
-4.6099753426523842
 20
-9.8082214414245463
 30
5.0000000000000009
 42
0.9749079789412171
  0
SEQEND
  5
61
  8
T-2DPLINE-ALL
 62
    20
  0
POLYLINE
  5
2F
  8
T-2DPLINE-ALL
 62
    20
 66
     1
 10
0.0
 20
0.0
 30
5.0
 39
0.4866425994800134
 70
     1
 40
0.2433212997400067
 41
0.2433212997400067
210
0.0207461631753608
220
0.3239633267477397
230
0.9458421430852183
  0
VERTEX
  5
62
  8
T-2DPLINE-ALL
 62
    20
 10
-4.0734850014716253
 20
-7.8086212102752626
 30
5.0
 42
1.025737835365788
  0
VERTEX
  5
63
  8
T-2DPLINE-ALL
 62
    20
 10
-4.82663875604264
 20
-7.8589185978274791
 30
5.0
 42
0.9749079789412171
  0
SEQEND
  5
64
  8
T-2DPLINE-ALL
 62
    20
  0
POLYLINE
  5
30
  8
T-2DPLINE-ALL
 62
    20
 66
     1
 10
0.0
 20
0.0
 30
5.0
 39
0.4866425994800134
210
0.0207461631753608
220
0.3239633267477397
230
0.9458421430852183
  0
VERTEX
  5
65
  8
T-2DPLINE-ALL
 62
    20
 10
-3.0746262413298839
 20
-10.705911228657611
 30
5.0
 42
0.3719891258755283
  0
VERTEX
  5
66
  8
T-2DPLINE-ALL
 62
    20
 10
-3.5052692605503482
 20
-10.286225904111671
 30
5.0
 42
0.4430785955857117
  0
VERTEX
  5
67
  8
T-2DPLINE-ALL
 62
    20
 10
-3.9593135433642881
 20
-10.72995660000384
 30
5.0
 42
0.0019965498473014
  0
SEQEND
  5
68
  8
T-2DPLINE-ALL
 62
    20
  0
POLYLINE
  5
31
  8
T-2DPLINE-ALL
 62
    20
 66
     1
 10
0.0
 20
0.0
 30
5.0
 39
0.4866425994800134
 40
0.2433212997400067
 41
0.2433212997400067
210
0.0207461631753608
220
0.3239633267477397
230
0.9458421430852183
  0
VERTEX
  5
69
  8
T-2DPLINE-ALL
 62
    20
 10
-3.0993305609472359
 20
-8.9969153554662036
 30
5.0
 42
0.3719891258755283
  0
VERTEX
  5
6A
  8
T-2DPLINE-ALL
 62
    20
 10
-3.5299735801677121
 20
-8.5772300309202532
 30
5.0
 42
0.4430785955857117
  0
VERTEX
  5
6B
  8
T-2DPLINE-ALL
 62
    20
 10
-3.984017862981641
 20
-9.0209607268124241
 30
5.0
 42
0.0019965498473014
  0
SEQEND
  5
6C
  8
T-2DPLINE-ALL
 62
    20
  0
POLYLINE
  5
32
  8
T-2DPLINE-ALL
 62
    20
 66
     1
 10
0.0
 20
0.0
 30
5.0000000000000018
 39
0.4866425994800134
 70
     1
210
0.0207461631753608
220
0.3239633267477397
230
0.9458421430852183
  0
VERTEX
  5
6D
  8
T-2DPLINE-ALL
 62
    20
 10
-2.2144942255324578
 20
-9.6867653022522031
 30
5.0000000000000018
 42
0.3719891258755283
  0
VERTEX
  5
6E
  8
T-2DPLINE-ALL
 62
    20
 10
-2.6451372447529251
 20
-9.2670799777062527
 30
5.0000000000000018
 42
0.4430785955857117
  0
VERTEX
  5
6F
  8
T-2DPLINE-ALL
 62
    20
 10
-3.099181527566861
 20
-9.7108106735984219
 30
5.0000000000000018
 42
0.9899427734385502
  0
SEQEND
  5
70
  8
T-2DPLINE-ALL
 62
    20
  0
POLYLINE
  5
33
  8
T-2DPLINE-ALL
 62
    20
 66
     1
 10
0.0
 20
0.0
 30
5.0
 39
0.4866425994800134
 70
     1
 40
0.2433212997400067
 41
0.2433212997400067
210
0.0207461631753608
220
0.3239633267477397
230
0.9458421430852183
  0
VERTEX
  5
71
  8
T-2DPLINE-ALL
 62
    20
 10
-2.431157638922719
 20
-7.7374624586551244
 30
5.0
 42
0.3719891258755283
  0
VERTEX
  5
72
  8
T-2DPLINE-ALL
 62
    20
 10
-2.861800658143181
 20
-7.3177771341091811
 30
5.0
 42
0.4430785955857117
  0
VERTEX
  5
73
  8
T-2DPLINE-ALL
 62
    20
 10
-3.3158449409571209
 20
-7.7615078300013582
 30
5.0
 42
0.9899427734385502
  0
SEQEND
  5
74
  8
T-2DPLINE-ALL
 62
    20
  0
POLYLINE
  5
34
  8
T-2DPLINE-ALL
 62
    20
 66
     1
 10
0.0
 20
0.0
 30
5.0000000000000009
 39
0.4866425994800134
210
0.0207461631753608
220
0.3239633267477397
230
0.9458421430852183
  0
VERTEX
  5
75
  8
T-2DPLINE-ALL
 62
    20
 10
-1.57088212449049
 20
-10.72892507319796
 30
5.0000000000000009
 42
0.2697811995738802
  0
VERTEX
  5
76
  8
T-2DPLINE-ALL
 62
    20
 10
-1.794319254685292
 20
-10.37248308923758
 30
5.0000000000000009
 42
0.2399196094174208
  0
VERTEX
  5
77
  8
T-2DPLINE-ALL
 62
    20
 10
-2.2339587452768259
 20
-10.36680654383429
 30
5.0000000000000009
 42
0.2659598248970993
  0
VERTEX
  5
78
  8
T-2DPLINE-ALL
 62
    20
 10
-2.4267459903953261
 20
-10.652950662159039
 30
5.0000000000000009
 42
0.6061516997840024
  0
SEQEND
  5
79
  8
T-2DPLINE-ALL
 62
    20
  0
POLYLINE
  5
35
  8
T-2DPLINE-ALL
 62
    20
 66
     1
 10
0.0
 20
0.0
 30
5.0
 39
0.4866425994800134
 40
0.2433212997400067
 41
0.2433212997400067
210
0.0207461631753608
220
0.3239633267477397
230
0.9458421430852183
  0
VERTEX
  5
7A
  8
T-2DPLINE-ALL
 62
    20
 10
-1.5955864441078489
 20
-9.0199292000065565
 30
5.0
 42
0.2697811995738802
  0
VERTEX
  5
7B
  8
T-2DPLINE-ALL
 62
    20
 10
-1.819023574302651
 20
-8.6634872160461853
 30
5.0
 42
0.2399196094174208
  0
VERTEX
  5
7C
  8
T-2DPLINE-ALL
 62
    20
 10
-2.258663064894177
 20
-8.6578106706428741
 30
5.0
 42
0.2659598248970993
  0
VERTEX
  5
7D
  8
T-2DPLINE-ALL
 62
    20
 10
-2.4514503100126821
 20
-8.9439547889676323
 30
5.0
 42
0.6061516997840024
  0
SEQEND
  5
7E
  8
T-2DPLINE-ALL
 62
    20
  0
POLYLINE
  5
36
  8
T-2DPLINE-ALL
 62
    20
 66
     1
 10
0.0
 20
0.0
 30
5.0
 39
0.4866425994800134
 70
     1
210
0.0207461631753608
220
0.3239633267477397
230
0.9458421430852183
  0
VERTEX
  5
7F
  8
T-2DPLINE-ALL
 62
    20
 10
-0.7107501086930701
 20
-9.7097791467925596
 30
5.0
 42
0.2697811995738802
  0
VERTEX
  5
80
  8
T-2DPLINE-ALL
 62
    20
 10
-0.9341872388878726
 20
-9.3533371628321742
 30
5.0
 42
0.2399196094174208
  0
VERTEX
  5
81
  8
T-2DPLINE-ALL
 62
    20
 10
-1.373826729479392
 20
-9.3476606174288808
 30
5.0
 42
0.2659598248970993
  0
VERTEX
  5
82
  8
T-2DPLINE-ALL
 62
    20
 10
-1.5666139745978951
 20
-9.6338047357536336
 30
5.0
 42
0.9845823125645821
  0
SEQEND
  5
83
  8
T-2DPLINE-ALL
 62
    20
  0
POLYLINE
  5
37
  8
T-2DPLINE-ALL
 62
    20
 66
     1
 10
0.0
 20
0.0
 30
5.0
 39
0.4866425994800134
 70
     1
 40
0.2433212997400067
 41
0.2433212997400067
210
0.0207461631753608
220
0.3239633267477397
230
0.9458421430852183
  0
VERTEX
  5
84
  8
T-2DPLINE-ALL
 62
    20
 10
-0.9274135220833358
 20
-7.76047630319548
 30
5.0
 42
0.2697811995738802
  0
VERTEX
  5
85
  8
T-2DPLINE-ALL
 62
    20
 10
-1.1508506522781341
 20
-7.4040343192351017
 30
5.0
 42
0.2399196094174208
  0
VERTEX
  5
86
  8
T-2DPLINE-ALL
 62
    20
 10
-1.5904901428696621
 20
-7.3983577738318056
 30
5.0
 42
0.2659598248970993
  0
VERTEX
  5
87
  8
T-2DPLINE-ALL
 62
    20
 10
-1.783277387988156
 20
-7.6845018921565584
 30
5.0
 42
0.9845823125645821
  0
SEQEND
  5
88
  8
T-2DPLINE-ALL
 62
    20
  0
POLYLINE
  5
38
  8
T-2DPLINE-ALL
 62
    20
 66
     1
 10
0.0
 20
0.0
 30
5.0000000000000009
 39
0.4866425994800134
210
0.0207461631753608
220
0.3239633267477397
230
0.9458421430852183
  0
VERTEX
  5
89
  8
T-2DPLINE-ALL
 62
    20
 10
-5.1361243317301906
 20
-6.0722875702405759
 30
5.0000000000000009
  0
VERTEX
  5
8A
  8
T-2DPLINE-ALL
 62
    20
 10
-4.4594807944323911
 20
-6.7683649593983324
 30
5.0000000000000009
  0
SEQEND
  5
8B
  8
T-2DPLINE-ALL
 62
    20
  0
POLYLINE
  5
39
  8
T-2DPLINE-ALL
 62
    20
 66
     1
 10
0.0
 20
0.0
 30
5.0
 39
0.4866425994800134
 70
     1
210
0.0207461631753608
220
0.3239633267477397
230
0.9458421430852183
  0
VERTEX
  5
8C
  8
T-2DPLINE-ALL
 62
    20
 10
-5.2166724937048299
 20
-4.0588989275688183
 30
5.0
  0
VERTEX
  5
8D
  8
T-2DPLINE-ALL
 62
    20
 10
-4.5400289564070277
 20
-4.7549763167265864
 30
5.0
  0
SEQEND
  5
8E
  8
T-2DPLINE-ALL
 62
    20
  0
POLYLINE
  5
3A
  8
T-2DPLINE-ALL
 62
    20
 66
     1
 10
0.0
 20
0.0
 30
5.0000000000000018
 39
0.4866425994800134
 40
0.25
 41
0.25
210
0.0207461631753608
220
0.3239633267477397
230
0.9458421430852183
  0
VERTEX
  5
8F
  8
T-2DPLINE-ALL
 62
    20
 10
-5.376301234191204
 20
-2.0025944977223289
 30
5.0000000000000018
  0
VERTEX
  5
90
  8
T-2DPLINE-ALL
 62
    20
 10
-4.6996576968934054
 20
-2.698671886880085
 30
5.0000000000000018
  0
SEQEND
  5
91
  8
T-2DPLINE-ALL
 62
    20
  0
POLYLINE
  5
3B
  8
T-2DPLINE-ALL
 62
    20
 66
     1
 10
0.0
 20
0.0
 30
5.0000000000000018
 39
0.4866425994800134
 70
     1
 40
0.25
 41
0.25
210
0.0207461631753608
220
0.3239633267477397
230
0.9458421430852183
  0
VERTEX
  5
92
  8
T-2DPLINE-ALL
 62
    20
 10
-5.4568493961658451
 20
0.0107941449494298
 30
5.0000000000000018
  0
VERTEX
  5
93
  8
T-2DPLINE-ALL
 62
    20
 10
-4.7802058588680421
 20
-0.685283244208339
 30
5.0000000000000018
  0
SEQEND
  5
94
  8
T-2DPLINE-ALL
 62
    20
  0
POLYLINE
  5
3C
  8
T-2DPLINE-ALL
 62
    20
 66
     1
 10
0.0
 20
0.0
 30
5.0
 39
0.4866425994800134
210
0.0207461631753608
220
0.3239633267477397
230
0.9458421430852183
  0
VERTEX
  5
95
  8
T-2DPLINE-ALL
 62
    20
 10
-4.9240201216071426
 20
-5.7294211806849926
 30
5.0
  0
VERTEX
  5
96
  8
T-2DPLINE-ALL
 62
    20
 10
-4.0465426358794749
 20
-5.663816163883963
 30
5.0
  0
VERTEX
  5
97
  8
T-2DPLINE-ALL
 62
    20
 10
-3.967226520817742
 20
-6.7866298447457716
 30
5.0
  0
SEQEND
  5
98
  8
T-2DPLINE-ALL
 62
    20
  0
POLYLINE
  5
3D
  8
T-2DPLINE-ALL
 62
    20
 66
     1
 10
0.0
 20
0.0
 30
5.0
 39
0.4866425994800134
 70
     1
210
0.0207461631753608
220
0.3239633267477397
230
0.9458421430852183
  0
VERTEX
  5
99
  8
T-2DPLINE-ALL
 62
    20
 10
-5.0159488508944801
 20
-3.5363279172447659
 30
5.0
  0
VERTEX
  5
9A
  8
T-2DPLINE-ALL
 62
    20
 10
-4.1384713651668017
 20
-3.4707229004437452
 30
5.0
  0
VERTEX
  5
9B
  8
T-2DPLINE-ALL
 62
    20
 10
-4.0591552501050687
 20
-4.593536581305556
 30
5.0
  0
SEQEND
  5
9C
  8
T-2DPLINE-ALL
 62
    20
  0
POLYLINE
  5
3E
  8
T-2DPLINE-ALL
 62
    20
 66
     1
 10
0.0
 20
0.0
 30
5.0
 39
0.4866425994800134
 40
0.25
 41
0.25
210
0.0207461631753608
220
0.3239633267477397
230
0.9458421430852183
  0
VERTEX
  5
9D
  8
T-2DPLINE-ALL
 62
    20
 10
-5.1641970240681561
 20
-1.6597281081667461
 30
5.0
  0
VERTEX
  5
9E
  8
T-2DPLINE-ALL
 62
    20
 10
-4.2867195383404892
 20
-1.594123091365715
 30
5.0
  0
VERTEX
  5
9F
  8
T-2DPLINE-ALL
 62
    20
 10
-4.2074034232787563
 20
-2.7169367722275251
 30
5.0
  0
SEQEND
  5
A0
  8
T-2DPLINE-ALL
 62
    20
  0
POLYLINE
  5
3F
  8
T-2DPLINE-ALL
 62
    20
 66
     1
 10
0.0
 20
0.0
 30
5.0
 39
0.4866425994800134
 70
     1
 40
0.25
 41
0.25
210
0.0207461631753608
220
0.3239633267477397
230
0.9458421430852183
  0
VERTEX
  5
A1
  8
T-2DPLINE-ALL
 62
    20
 10
-5.2561257533554917
 20
0.5333651552734806
 30
5.0
  0
VERTEX
  5
A2
  8
T-2DPLINE-ALL
 62
    20
 10
-4.3786482676278151
 20
0.5989701720745017
 30
5.0
  0
VERTEX
  5
A3
  8
T-2DPLINE-ALL
 62
    20
 10
-4.2993321525660813
 20
-0.5238435087873105
 30
5.0
  0
SEQEND
  5
A4
  8
T-2DPLINE-ALL
 62
    20
  0
POLYLINE
  5
40
  8
T-2DPLINE-ALL
 62
    20
 66
     1
 10
0.0
 20
0.0
 30
5.0
 39
0.4866425994800134
210
0.0207461631753608
220
0.3239633267477397
230
0.9458421430852183
  0
VERTEX
  5
A5
  8
T-2DPLINE-ALL
 62
    20
 10
-3.339895863086527
 20
-6.7710962346109689
 30
5.0
  0
VERTEX
  5
A6
  8
T-2DPLINE-ALL
 62
    20
 10
-3.4282188683678871
 20
-5.662895279494264
 30
5.0
  0
VERTEX
  5
A7
  8
T-2DPLINE-ALL
 62
    20
 10
-2.5507413826402141
 20
-5.597290262693237
 30
5.0
  0
VERTEX
  5
A8
  8
T-2DPLINE-ALL
 62
    20
 10
-2.455208561052121
 20
-6.7470508632647386
 30
5.0
  0
SEQEND
  5
A9
  8
T-2DPLINE-ALL
 62
    20
  0
POLYLINE
  5
41
  8
T-2DPLINE-ALL
 62
    20
 66
     1
 10
0.0
 20
0.0
 30
5.0
 39
0.4866425994800134
 70
     1
210
0.0207461631753608
220
0.3239633267477397
230
0.9458421430852183
  0
VERTEX
  5
AA
  8
T-2DPLINE-ALL
 62
    20
 10
-3.4616460469765711
 20
-4.529394733879629
 30
5.0
  0
VERTEX
  5
AB
  8
T-2DPLINE-ALL
 62
    20
 10
-3.5499690522579361
 20
-3.4211937787629219
 30
5.0
  0
VERTEX
  5
AC
  8
T-2DPLINE-ALL
 62
    20
 10
-2.67249156653026
 20
-3.3555887619618971
 30
5.0
  0
VERTEX
  5
AD
  8
T-2DPLINE-ALL
 62
    20
 10
-2.576958744942166
 20
-4.5053493625333987
 30
5.0
  0
SEQEND
  5
AE
  8
T-2DPLINE-ALL
 62
    20
  0
POLYLINE
  5
42
  8
T-2DPLINE-ALL
 62
    20
 66
     1
 10
0.0
 20
0.0
 30
5.0000000000000009
 39
0.4866425994800134
 40
0.25
 41
0.25
210
0.0207461631753608
220
0.3239633267477397
230
0.9458421430852183
  0
VERTEX
  5
AF
  8
T-2DPLINE-ALL
 62
    20
 10
-3.5800727655475391
 20
-2.7014031620927228
 30
5.0000000000000009
  0
VERTEX
  5
B0
  8
T-2DPLINE-ALL
 62
    20
 10
-3.6683957708289001
 20
-1.593202206976017
 30
5.0000000000000009
  0
VERTEX
  5
B1
  8
T-2DPLINE-ALL
 62
    20
 10
-2.7909182851012262
 20
-1.5275971901749901
 30
5.0000000000000009
  0
VERTEX
  5
B2
  8
T-2DPLINE-ALL
 62
    20
 10
-2.6953854635131331
 20
-2.6773577907464921
 30
5.0000000000000009
  0
SEQEND
  5
B3
  8
T-2DPLINE-ALL
 62
    20
  0
POLYLINE
  5
43
  8
T-2DPLINE-ALL
 62
    20
 66
     1
 10
0.0
 20
0.0
 30
5.0000000000000009
 39
0.4866425994800134
 70
     1
 40
0.25
 41
0.25
210
0.0207461631753608
220
0.3239633267477397
230
0.9458421430852183
  0
VERTEX
  5
B4
  8
T-2DPLINE-ALL
 62
    20
 10
-3.7018229494375818
 20
-0.4597016613613832
 30
5.0000000000000009
  0
VERTEX
  5
B5
  8
T-2DPLINE-ALL
 62
    20
 10
-3.7901459547189469
 20
0.6484992937553246
 30
5.0000000000000009
  0
VERTEX
  5
B6
  8
T-2DPLINE-ALL
 62
    20
 10
-2.9126684689912721
 20
0.7141043105563514
 30
5.0000000000000009
  0
VERTEX
  5
B7
  8
T-2DPLINE-ALL
 62
    20
 10
-2.817135647403179
 20
-0.4356562900151522
 30
5.0000000000000009
  0
SEQEND
  5
B8
  8
T-2DPLINE-ALL
 62
    20
  0
POLYLINE
  5
44
  8
T-2DPLINE-ALL
 62
    20
 66
     1
 10
0.0
 20
0.0
 30
5.0
 39
0.4866425994800134
210
0.0207461631753608
220
0.3239633267477397
230
0.9458421430852183
  0
VERTEX
  5
B9
  8
T-2DPLINE-ALL
 62
    20
 10
-1.993778168378872
 20
-6.6950357348033478
 30
5.0
  0
VERTEX
  5
BA
  8
T-2DPLINE-ALL
 62
    20
 10
-1.6290974647190879
 20
-5.8887609917710657
 30
5.0
  0
VERTEX
  5
BB
  8
T-2DPLINE-ALL
 62
    20
 10
-1.965158702393248
 20
-5.5590571565200353
 30
5.0
  0
VERTEX
  5
BC
  8
T-2DPLINE-ALL
 62
    20
 10
-1.217122864661941
 20
-5.4950719211985612
 30
5.0
  0
VERTEX
  5
BD
  8
T-2DPLINE-ALL
 62
    20
 10
-1.1209000941403009
 20
-6.6835683141060747
 30
5.0
  0
SEQEND
  5
BE
  8
T-2DPLINE-ALL
 62
    20
  0
POLYLINE
  5
45
  8
T-2DPLINE-ALL
 62
    20
 66
     1
 10
0.0
 20
0.0
 30
5.0
 39
0.4866425994800134
 70
     1
210
0.0207461631753608
220
0.3239633267477397
230
0.9458421430852183
  0
VERTEX
  5
BF
  8
T-2DPLINE-ALL
 62
    20
 10
-2.063851267516811
 20
-4.4336343999124201
 30
5.0
  0
VERTEX
  5
C0
  8
T-2DPLINE-ALL
 62
    20
 10
-1.699170563857026
 20
-3.6273596568801372
 30
5.0
  0
VERTEX
  5
C1
  8
T-2DPLINE-ALL
 62
    20
 10
-2.035231801531185
 20
-3.2976558216291059
 30
5.0
  0
VERTEX
  5
C2
  8
T-2DPLINE-ALL
 62
    20
 10
-1.2871959637998791
 20
-3.2336705863076332
 30
5.0
  0
VERTEX
  5
C3
  8
T-2DPLINE-ALL
 62
    20
 10
-1.1909731932782379
 20
-4.422166979215147
 30
5.0
  0
SEQEND
  5
C4
  8
T-2DPLINE-ALL
 62
    20
  0
POLYLINE
  5
46
  8
T-2DPLINE-ALL
 62
    20
 66
     1
 10
0.0
 20
0.0
 30
5.0000000000000009
 39
0.4866425994800134
 40
0.25
 41
0.25
210
0.0207461631753608
220
0.3239633267477397
230
0.9458421430852183
  0
VERTEX
  5
C5
  8
T-2DPLINE-ALL
 62
    20
 10
-2.2339550708398841
 20
-2.6253426622850999
 30
5.0000000000000009
  0
VERTEX
  5
C6
  8
T-2DPLINE-ALL
 62
    20
 10
-1.8692743671801
 20
-1.8190679192528181
 30
5.0000000000000009
  0
VERTEX
  5
C7
  8
T-2DPLINE-ALL
 62
    20
 10
-2.2053356048542589
 20
-1.489364084001787
 30
5.0000000000000009
  0
VERTEX
  5
C8
  8
T-2DPLINE-ALL
 62
    20
 10
-1.4572997671229531
 20
-1.4253788486803141
 30
5.0000000000000009
  0
VERTEX
  5
C9
  8
T-2DPLINE-ALL
 62
    20
 10
-1.3610769966013121
 20
-2.6138752415878281
 30
5.0000000000000009
  0
SEQEND
  5
CA
  8
T-2DPLINE-ALL
 62
    20
  0
POLYLINE
  5
47
  8
T-2DPLINE-ALL
 62
    20
 66
     1
 10
0.0
 20
0.0
 30
5.0
 39
0.4866425994800134
 70
     1
 40
0.25
 41
0.25
210
0.0207461631753608
220
0.3239633267477397
230
0.9458421430852183
  0
VERTEX
  5
CB
  8
T-2DPLINE-ALL
 62
    20
 10
-2.3040281699778218
 20
-0.3639413273941725
 30
5.0
  0
VERTEX
  5
CC
  8
T-2DPLINE-ALL
 62
    20
 10
-1.9393474663180379
 20
0.4423334156381098
 30
5.0
  0
VERTEX
  5
CD
  8
T-2DPLINE-ALL
 62
    20
 10
-2.2754087039921971
 20
0.7720372508891403
 30
5.0
  0
VERTEX
  5
CE
  8
T-2DPLINE-ALL
 62
    20
 10
-1.527372866260891
 20
0.8360224862106145
 30
5.0
  0
VERTEX
  5
CF
  8
T-2DPLINE-ALL
 62
    20
 10
-1.43115009573925
 20
-0.3524739066969
 30
5.0
  0
SEQEND
  5
D0
  8
T-2DPLINE-ALL
 62
    20
  0
3DFACE
  5
48
  8
0
 62
     7
 10
-6.0
 20
13.0
 30
0.0
 11
18.0
 21
13.0
 31
0.0
 12
18.0
 22
-11.0
 32
0.0
 13
-6.0
 23
-11.0
 33
0.0
  0
ENDSEC
  0
EOF
