<?xml version="1.0" encoding="UTF-8" standalone="no"?><!DOCTYPE svg PUBLIC "-//W3C//DTD SVG 1.1//EN" "http://www.w3.org/Graphics/SVG/1.1/DTD/svg11.dtd"><svg width="100%" height="100%" viewBox="0 0 200 65" version="1.1" xmlns="http://www.w3.org/2000/svg" xmlns:xlink="http://www.w3.org/1999/xlink" xml:space="preserve" xmlns:serif="http://www.serif.com/" style="fill-rule:evenodd;clip-rule:evenodd;stroke-linejoin:round;stroke-miterlimit:1.41421;"><rect id="ezdxf-logo-font" x="-200" y="0" width="200" height="65" style="fill:none;"/><rect id="ezdxf-logo-curves" x="0" y="0" width="200" height="65" style="fill:none;"/><g><path d="M41.522,28.168c-1.794,0 -3.326,0.635 -4.595,1.904c-1.268,1.268 -1.903,2.8 -1.903,4.594l0,2.166l12.995,0l0,-2.166c0,-1.794 -0.634,-3.326 -1.903,-4.594c-1.269,-1.269 -2.8,-1.904 -4.594,-1.904Zm-6.498,12.995l0,4.332c0,1.182 0.427,2.199 1.28,3.052c0.853,0.853 1.87,1.28 3.052,1.28l10.829,0c1.444,0 2.166,0.722 2.166,2.166c0,1.444 -0.722,2.166 -2.166,2.166l-10.829,0c-2.429,0 -4.48,-0.837 -6.153,-2.511c-1.674,-1.673 -2.511,-3.724 -2.511,-6.153l0,-10.829c0,-2.997 1.056,-5.552 3.167,-7.663c2.111,-2.111 4.665,-3.166 7.663,-3.166c3.041,0 5.606,1.044 7.695,3.133c2.089,2.09 3.134,4.655 3.134,7.696l0,6.497l-17.327,0Z" style="fill-rule:nonzero;"/><path d="M76.438,28.168l-13.258,0c-1.444,0 -2.166,-0.722 -2.166,-2.166c0,-1.443 0.722,-2.165 2.166,-2.165l17.327,0c1.444,0 2.166,0.732 2.166,2.198c0,0.416 -0.142,0.843 -0.427,1.28l-14.996,22.512l13.257,0c1.444,0 2.166,0.722 2.166,2.166c0,1.444 -0.722,2.166 -2.166,2.166l-17.327,0c-1.444,0 -2.166,-0.711 -2.166,-2.133c0,-0.46 0.143,-0.908 0.427,-1.346l14.997,-22.512Z" style="fill-rule:nonzero;"/><path d="M91.337,32.5c0,-1.575 0.382,-3.03 1.148,-4.365c1.641,-2.865 4.146,-4.298 7.515,-4.298l8.663,0l0,-10.83c0,-1.444 0.722,-2.166 2.166,-2.166c1.444,0 2.166,0.722 2.166,2.166l0,38.986c0,1.444 -0.722,2.166 -2.166,2.166l-10.829,0c-2.428,0 -4.479,-0.837 -6.153,-2.511c-1.674,-1.673 -2.51,-3.724 -2.51,-6.153l0,-12.995Zm8.663,-4.332c-1.203,0 -2.226,0.421 -3.068,1.264c-0.843,0.842 -1.264,1.865 -1.264,3.068l0,12.995c0,1.182 0.427,2.199 1.28,3.052c0.853,0.853 1.871,1.28 3.052,1.28l8.663,0l0,-21.659l-8.663,0Z" style="fill:#fcfcfc;fill-rule:nonzero;"/><path d="M135.113,38.998l7.843,11.781c0.241,0.371 0.361,0.776 0.361,1.214c0,1.444 -0.722,2.166 -2.166,2.166c-0.787,0 -1.389,-0.318 -1.804,-0.952l-6.859,-10.304l-6.859,10.304c-0.415,0.634 -1.017,0.952 -1.805,0.952c-0.59,0 -1.099,-0.214 -1.525,-0.64c-0.427,-0.427 -0.64,-0.936 -0.64,-1.526c0,-0.438 0.12,-0.843 0.361,-1.214l7.843,-11.781l-7.843,-11.781c-0.241,-0.372 -0.361,-0.777 -0.361,-1.215c0,-1.443 0.722,-2.165 2.165,-2.165c0.788,0 1.39,0.317 1.805,0.951l6.859,10.272l6.859,-10.272c0.415,-0.634 1.017,-0.951 1.804,-0.951c1.444,0 2.166,0.711 2.166,2.133c0,0.459 -0.12,0.875 -0.361,1.247l-7.843,11.781Z" style="fill:#fcfcfc;fill-rule:nonzero;"/><path d="M154.147,23.837l2.165,0l0,-4.332c0,-2.429 0.843,-4.48 2.527,-6.153c1.685,-1.674 3.73,-2.511 6.137,-2.511l2.166,0c1.444,0 2.166,0.722 2.166,2.166c0,1.444 -0.722,2.166 -2.166,2.166l-2.166,0c-1.203,0 -2.226,0.421 -3.068,1.264c-0.843,0.842 -1.264,1.865 -1.264,3.068l0,4.332l6.498,0c1.444,0 2.166,0.722 2.166,2.165c0,1.444 -0.722,2.166 -2.166,2.166l-6.498,0l0,23.825c0,1.444 -0.722,2.166 -2.166,2.166c-1.444,0 -2.166,-0.722 -2.166,-2.166l0,-23.825l-2.165,0c-1.444,0 -2.166,-0.722 -2.166,-2.166c0,-1.443 0.722,-2.165 2.166,-2.165Z" style="fill:#fcfcfc;fill-rule:nonzero;"/></g><rect id="ezdxf-logo-light-bg" x="200" y="0" width="200" height="65" style="fill:none;"/></svg>