999
DXF file: D:\\ptc\\Shared_Folder\\dxf\\\\x0292430_flat1.dxf
999
Pro/ENGINEER 2015030 by Parametric Technology Corporation
  0
SECTION
  2
HEADER
  9
$ACADVER
  1
AC1015
  9
$DWGCODEPAGE
  3
ANSI_1252
  9
$EXTMAX
 10
16.5354330709
 20
11.6929133858
 30
0.0
  9
$EXTMIN
 10
0.0
 20
0.0
 30
0.0
  9
$LIMMIN
 10
0.0
 20
0.0
  9
$LIMMAX
 10
16.5354330709
 20
11.6929133858
  9
$VIEWCTR
 10
8.2677165354
 20
5.8464566929
  9
$VIEWSIZE
 40
11.6929133858
  9
$CLAYER
  8
0
  9
$LTSCALE
 40
0.9094488189
  9
$CELTYPE
  6
BYLAYER
  9
$DIMSCALE
 40
1.0
  9
$DIMASZ
 40
3.5
  9
$DIMEXO
 40
1.0
  9
$DIMDLI
 40
0.6283464567
  9
$DIMEXE
 40
1.5
  9
$DIMCEN
 40
0.1488188976
  9
$DIMLFAC
 40
1.0
  9
$DIMBLK
  1
_FILLED
  9
$DIMALT
 70
0
  9
$DIMALTF
 40
25.4
  9
$DIMTXT
 40
3.5
  9
$DIMTOL
 70
1
  9
$DIMLIM
 70
0
  9
$DIMTFAC
 40
1.0
  9
$DIMTP
 40
0.01
  9
$DIMTM
 40
0.01
  9
$DIMGAP
 40
0.09
  9
$DIMDSEP
 70
44
  9
$AUNITS
 70
0
  9
$PDMODE
 70
0
  9
$PDSIZE
 40
1.0
  9
$HANDSEED
  5
233
  9
$TILEMODE
 70
1
  9
$MEASUREMENT
 70
0
  9
$INSUNITS
 70
1
  0
ENDSEC
  0
SECTION
  2
CLASSES
  0
CLASS
  1
ACDBDICTIONARYWDFLT
  2
AcDbDictionaryWithDefault
  3
AutoCAD 2000
 90
0
280
0
281
0
  0
CLASS
  1
ACDBPLACEHOLDER
  2
AcDbPlaceHolder
  3
AutoCAD 2000
 90
0
280
0
281
0
  0
CLASS
  1
LAYOUT
  2
AcDbLayout
  3
AutoCAD 2000
 90
0
280
0
281
0
  0
ENDSEC
  0
SECTION
  2
TABLES
  0
TABLE
  2
VPORT
  5
8
100
AcDbSymbolTable
 70
2
  0
VPORT
  5
1F4
100
AcDbSymbolTableRecord
100
AcDbViewportTableRecord
  2
*ACTIVE
 70
0
 10
0.0
 20
0.0
 11
1.0
 21
1.0
 12
8.2677165354
 22
5.8464566929
 13
0.0
 23
0.0
 14
1.0
 24
1.0
 15
0.0
 25
0.0
 16
0.0
 26
0.0
 36
1.0
 17
0.0
 27
0.0
 37
0.0
 40
11.6929133858
 41
1.4141414141
 42
50.0
 43
0.0
 44
0.0
 50
0.0
 51
0.0
 71
0
 72
100
 73
1
 74
1
 75
0
 76
0
 77
0
 78
0
  0
ENDTAB
  0
TABLE
  2
LTYPE
  5
5
100
AcDbSymbolTable
 70
6
  0
LTYPE
  5
14
100
AcDbSymbolTableRecord
100
AcDbLinetypeTableRecord
  2
BYBLOCK
 70
0
  3

 72
65
 73
0
 40
0.0
  0
LTYPE
  5
15
100
AcDbSymbolTableRecord
100
AcDbLinetypeTableRecord
  2
BYLAYER
 70
0
  3

 72
65
 73
0
 40
0.0
  0
LTYPE
  5
16
100
AcDbSymbolTableRecord
100
AcDbLinetypeTableRecord
  2
CONTINUOUS
 70
64
  3
Solid line
 72
65
 73
0
 40
0.0
  0
LTYPE
  5
1F5
100
AcDbSymbolTableRecord
100
AcDbLinetypeTableRecord
  2
CENTER
 70
64
  3
____ _ ____ _ ____ _ ____ _ ____ _ ____ _ ____
 72
65
 73
4
 40
0.6
 49
0.375
 74
0
 49
-0.075
 74
0
 49
0.075
 74
0
 49
-0.075
 74
0
  0
LTYPE
  5
1F6
100
AcDbSymbolTableRecord
100
AcDbLinetypeTableRecord
  2
HIDDEN
 70
64
  3
- - - - - - - - - - - - - - - - - - - -
 72
65
 73
2
 40
0.2
 49
0.1
 74
0
 49
-0.1
 74
0
  0
LTYPE
  5
1F7
100
AcDbSymbolTableRecord
100
AcDbLinetypeTableRecord
  2
PHANTOM
 70
64
  3
_____ _ _ _____ _ _ _____ _ _ _____
 72
65
 73
6
 40
0.8
 49
0.45
 74
0
 49
-0.05
 74
0
 49
0.1
 74
0
 49
-0.05
 74
0
 49
0.1
 74
0
 49
-0.05
 74
0
  0
LTYPE
  5
1F8
100
AcDbSymbolTableRecord
100
AcDbLinetypeTableRecord
  2
DOT
 70
64
  3
. . . . . . . . . . . . . . . . . . . .
 72
65
 73
2
 40
0.2
 49
0.1
 74
0
 49
-0.1
 74
0
  0
LTYPE
  5
1F9
100
AcDbSymbolTableRecord
100
AcDbLinetypeTableRecord
  2
DASHED
 70
64
  3
- - - - - - - - - - - - - - - - - - - -
 72
65
 73
2
 40
0.2
 49
0.1
 74
0
 49
-0.1
 74
0
  0
ENDTAB
  0
TABLE
  2
LAYER
  5
2
100
AcDbSymbolTable
 70
36
  0
LAYER
  5
10
100
AcDbSymbolTableRecord
100
AcDbLayerTableRecord
  2
0
 70
0
 62
7
  6
CONTINUOUS
370
-3
390
F
  0
LAYER
  5
1FA
100
AcDbSymbolTableRecord
100
AcDbLayerTableRecord
  2
DEFAULT_1
 70
0
 62
7
  6
CENTER
370
-3
390
F
  0
LAYER
  5
1FB
100
AcDbSymbolTableRecord
100
AcDbLayerTableRecord
  2
DEFAULT_2
 70
0
 62
8
  6
HIDDEN
370
-3
390
F
  0
LAYER
  5
1FC
100
AcDbSymbolTableRecord
100
AcDbLayerTableRecord
  2
DEFAULT_3
 70
0
 62
7
  6
PHANTOM
370
-3
390
F
  0
LAYER
  5
1FD
100
AcDbSymbolTableRecord
100
AcDbLayerTableRecord
  2
AXES
 70
0
 62
7
  6
CONTINUOUS
370
-3
390
F
  0
LAYER
  5
1FE
100
AcDbSymbolTableRecord
100
AcDbLayerTableRecord
  2
COORD_SYS
 70
0
 62
7
  6
CONTINUOUS
370
-3
390
F
  0
LAYER
  5
1FF
100
AcDbSymbolTableRecord
100
AcDbLayerTableRecord
  2
COPIE_EXTERNE
 70
0
 62
7
  6
CONTINUOUS
370
-3
390
F
  0
LAYER
  5
200
100
AcDbSymbolTableRecord
100
AcDbLayerTableRecord
  2
COURBES_DXF
 70
0
 62
7
  6
CONTINUOUS
370
-3
390
F
  0
LAYER
  5
201
100
AcDbSymbolTableRecord
100
AcDbLayerTableRecord
  2
GEO_TOL
 70
0
 62
7
  6
CONTINUOUS
370
-3
390
F
  0
LAYER
  5
202
100
AcDbSymbolTableRecord
100
AcDbLayerTableRecord
  2
NOTES
 70
0
 62
7
  6
CONTINUOUS
370
-3
390
F
  0
LAYER
  5
203
100
AcDbSymbolTableRecord
100
AcDbLayerTableRecord
  2
OVERALL_DIM
 70
0
 62
7
  6
CONTINUOUS
370
-3
390
F
  0
LAYER
  5
204
100
AcDbSymbolTableRecord
100
AcDbLayerTableRecord
  2
PLANS
 70
0
 62
7
  6
CONTINUOUS
370
-3
390
F
  0
LAYER
  5
205
100
AcDbSymbolTableRecord
100
AcDbLayerTableRecord
  2
REFERENCES_GEOM
 70
0
 62
7
  6
CONTINUOUS
370
-3
390
F
  0
LAYER
  5
206
100
AcDbSymbolTableRecord
100
AcDbLayerTableRecord
  2
SURFACES_COMP
 70
0
 62
7
  6
CONTINUOUS
370
-3
390
F
  0
ENDTAB
  0
TABLE
  2
STYLE
  5
3
100
AcDbSymbolTable
 70
1
  0
STYLE
  5
11
100
AcDbSymbolTableRecord
100
AcDbTextStyleTableRecord
  2
STANDARD
 70
0
 40
0.0
 41
0.85
 50
0.0
 71
0
 42
0.2
  3
txt
  4

  0
STYLE
  5
207
100
AcDbSymbolTableRecord
100
AcDbTextStyleTableRecord
  2
TEXTSTYLE_1
 70
0
 40
0.0
 41
0.8
 50
0.0
 71
0
 42
0.2
  3
gdt
  4

  0
ENDTAB
  0
TABLE
  2
VIEW
  5
6
100
AcDbSymbolTable
 70
0
  0
ENDTAB
  0
TABLE
  2
UCS
  5
7
100
AcDbSymbolTable
 70
0
  0
ENDTAB
  0
TABLE
  2
APPID
  5
9
100
AcDbSymbolTable
 70
1
  0
APPID
  5
208
100
AcDbSymbolTableRecord
100
AcDbRegAppTableRecord
  2
ACAD
 70
0
  0
ENDTAB
  0
TABLE
  2
BLOCK_RECORD
  5
1
100
AcDbSymbolTable
 70
0
  0
BLOCK_RECORD
  5
209
100
AcDbSymbolTableRecord
100
AcDbBlockTableRecord
  2
*Model_Space
  0
BLOCK_RECORD
  5
20A
100
AcDbSymbolTableRecord
100
AcDbBlockTableRecord
  2
*Paper_Space
  0
ENDTAB
  0
TABLE
  2
DIMSTYLE
  5
A
100
AcDbSymbolTable
 70
1
100
AcDbDimStyleTable
 71
0
  0
DIMSTYLE
105
20B
100
AcDbSymbolTableRecord
100
AcDbDimStyleTableRecord
  2
STANDARD
 70
0
  3

  4

 40
1.0
 41
3.5
 42
1.0
 43
0.38
 44
1.5
 45
0.0
 46
0.0
 47
0.01
 48
0.01
140
3.5
141
0.09
142
0.0
143
25.4
144
1.0
145
0.0
146
1.0
147
0.09
 71
1.0
 72
0.0
 73
0
 74
0
 75
0
 76
0
 77
1
 78
8
170
0
171
2
172
0
173
0
174
0
175
0
176
0
177
0
178
5
270
2
271
2
272
2
273
2
274
2
275
0
280
0
281
0
282
0
283
1
284
8
285
0
286
0
287
3
288
0
340
11
278
44
  0
ENDTAB
  0
ENDSEC
  0
SECTION
  2
BLOCKS
  0
BLOCK
  5
20
100
AcDbEntity
  8
0
100
AcDbBlockBegin
  2
*Model_Space
 70
0
 10
0.0
 20
0.0
 30
0.0
  3
*Model_Space
  1

  0
ENDBLK
  5
21
100
AcDbEntity
  8
0
100
AcDbBlockEnd
  0
BLOCK
  5
1C
100
AcDbEntity
  8
0
100
AcDbBlockBegin
  2
*Paper_Space
 70
0
 10
0.0
 20
0.0
 30
0.0
  3
*Paper_Space
  1

  0
ENDBLK
  5
1D
100
AcDbEntity
  8
0
100
AcDbBlockEnd
  0
ENDSEC
  0
SECTION
  2
ENTITIES
  0
MTEXT
  5
20C
100
AcDbEntity
  8
0
100
AcDbMText
 62
5
  6
CONTINUOUS
  7
STANDARD
 71
3
 72
1
 10
7.9525863647
 20
1.6766800295
 30
0.0
 11
1.0
 21
0.0
 31
0.0
 44
0.9
  1

 40
3.5
 41
26.775
  0
LINE
  5
20D
100
AcDbEntity
  8
0
100
AcDbLine
 62
3
  6
CONTINUOUS
 10
0.8392084487
 20
4.2553607165
 11
0.8392084487
 21
4.1053607165
  0
LINE
  5
20E
100
AcDbEntity
  8
0
100
AcDbLine
 62
3
  6
CONTINUOUS
 10
2.3392084487
 20
7.7953607165
 11
2.3392084487
 21
4.7553607165
  0
LINE
  5
20F
100
AcDbEntity
  8
0
100
AcDbLine
 62
3
  6
CONTINUOUS
 10
2.7774820223
 20
7.5783004944
 11
2.7756354792
 21
7.5887727609
  0
LINE
  5
210
100
AcDbEntity
  8
0
100
AcDbLine
 62
3
  6
CONTINUOUS
 10
14.8159642807
 20
3.8553607165
 11
14.6159642807
 21
3.8553607165
  0
LINE
  5
211
100
AcDbEntity
  8
0
100
AcDbLine
 62
3
  6
CONTINUOUS
 10
1.0892084487
 20
3.8553607165
 11
1.2892084487
 21
3.8553607165
  0
LINE
  5
212
100
AcDbEntity
  8
0
100
AcDbLine
 62
3
  6
CONTINUOUS
 10
3.8015353616
 20
4.0453607165
 11
12.1036373679
 21
4.0453607165
  0
LINE
  5
213
100
AcDbEntity
  8
0
100
AcDbLine
 62
3
  6
CONTINUOUS
 10
15.0659642807
 20
4.2553607165
 11
14.0659642807
 21
4.2553607165
  0
LINE
  5
214
100
AcDbEntity
  8
0
100
AcDbLine
 62
3
  6
CONTINUOUS
 10
0.8392084487
 20
4.2553607165
 11
1.8392084487
 21
4.2553607165
  0
LINE
  5
215
100
AcDbEntity
  8
0
100
AcDbLine
 62
3
  6
CONTINUOUS
 10
4.0084917136
 20
6.5453607165
 11
11.8966810159
 21
6.5453607165
  0
LINE
  5
216
100
AcDbEntity
  8
0
100
AcDbLine
 62
3
  6
CONTINUOUS
 10
13.5659642807
 20
7.7953607165
 11
13.3757391885
 21
7.7953607165
  0
LINE
  5
217
100
AcDbEntity
  8
0
100
AcDbLine
 62
3
  6
CONTINUOUS
 10
2.3392084487
 20
7.7953607165
 11
2.5294335409
 21
7.7953607165
  0
LINE
  5
218
100
AcDbEntity
  8
0
100
AcDbLine
 62
3
  6
CONTINUOUS
 10
13.1295372503
 20
7.5887727609
 11
13.1276907071
 21
7.5783004944
  0
LINE
  5
219
100
AcDbEntity
  8
0
100
AcDbLine
 62
3
  6
CONTINUOUS
 10
13.5659642807
 20
7.7953607165
 11
13.5659642807
 21
4.7553607165
  0
LINE
  5
21A
100
AcDbEntity
  8
0
100
AcDbLine
 62
3
  6
CONTINUOUS
 10
15.0659642807
 20
4.2553607165
 11
15.0659642807
 21
4.1053607165
  0
ARC
  5
21B
100
AcDbEntity
  8
0
100
AcDbCircle
 62
3
  6
CONTINUOUS
 10
3.8015353616
 20
2.5453607165
 40
1.5
100
AcDbArc
 50
90.0
 51
130.5358021113
  0
ARC
  5
21C
100
AcDbEntity
  8
0
100
AcDbCircle
 62
3
  6
CONTINUOUS
 10
12.1036373679
 20
2.5453607165
 40
1.5
100
AcDbArc
 50
49.4641978887
 51
90.0
  0
ARC
  5
21D
100
AcDbEntity
  8
0
100
AcDbCircle
 62
3
  6
CONTINUOUS
 10
11.8966810159
 20
7.7953607165
 40
1.25
100
AcDbArc
 50
270.0
 51
350.0
  0
ARC
  5
21E
100
AcDbEntity
  8
0
100
AcDbCircle
 62
3
  6
CONTINUOUS
 10
4.0084917136
 20
7.7953607165
 40
1.25
100
AcDbArc
 50
190.0
 51
270.0
  0
ARC
  5
21F
100
AcDbEntity
  8
0
100
AcDbCircle
 62
3
  6
CONTINUOUS
 10
1.2892084487
 20
2.8553607165
 40
1.0
100
AcDbArc
 50
53.1301023542
 51
90.0
  0
ARC
  5
220
100
AcDbEntity
  8
0
100
AcDbCircle
 62
3
  6
CONTINUOUS
 10
14.6159642807
 20
2.8553607165
 40
1.0
100
AcDbArc
 50
90.0
 51
126.8698976458
  0
ARC
  5
221
100
AcDbEntity
  8
0
100
AcDbCircle
 62
3
  6
CONTINUOUS
 10
13.5659642807
 20
4.2553607165
 40
0.75
100
AcDbArc
 50
229.4641978887
 51
306.8698976458
  0
ARC
  5
222
100
AcDbEntity
  8
0
100
AcDbCircle
 62
3
  6
CONTINUOUS
 10
2.3392084487
 20
4.2553607165
 40
0.75
100
AcDbArc
 50
233.1301023542
 51
310.5358021113
  0
ARC
  5
223
100
AcDbEntity
  8
0
100
AcDbCircle
 62
3
  6
CONTINUOUS
 10
14.0659642807
 20
4.7553607165
 40
0.5
100
AcDbArc
 50
180.0
 51
270.0
  0
ARC
  5
224
100
AcDbEntity
  8
0
100
AcDbCircle
 62
3
  6
CONTINUOUS
 10
1.8392084487
 20
4.7553607165
 40
0.5
100
AcDbArc
 50
270.0
 51
360.0
  0
ARC
  5
225
100
AcDbEntity
  8
0
100
AcDbCircle
 62
3
  6
CONTINUOUS
 10
14.8159642807
 20
4.1053607165
 40
0.25
100
AcDbArc
 50
270.0
 51
360.0
  0
ARC
  5
226
100
AcDbEntity
  8
0
100
AcDbCircle
 62
3
  6
CONTINUOUS
 10
13.3757391885
 20
7.5453607165
 40
0.25
100
AcDbArc
 50
90.0
 51
170.0
  0
ARC
  5
227
100
AcDbEntity
  8
0
100
AcDbCircle
 62
3
  6
CONTINUOUS
 10
2.5294335409
 20
7.5453607165
 40
0.25
100
AcDbArc
 50
10.0
 51
90.0
  0
ARC
  5
228
100
AcDbEntity
  8
0
100
AcDbCircle
 62
3
  6
CONTINUOUS
 10
1.0892084487
 20
4.1053607165
 40
0.25
100
AcDbArc
 50
180.0
 51
270.0
  0
SPLINE
  5
229
100
AcDbEntity
  8
0
100
AcDbSpline
 62
3
  6
CONTINUOUS
 70
0
 71
3
 72
14
 73
10
 74
0
 42
0.0000001
 43
0.0000001
 44
0.0000000001
 40
0.0
 40
0.0
 40
0.0
 40
0.0
 40
0.2498667213
 40
0.3748327374
 40
0.4998647533
 40
0.6248855041
 40
0.7499294684
 40
0.8750129467
 40
1.0
 40
1.0
 40
1.0
 40
1.0
 10
10.5150967147
 20
5.7693687806
 30
0.0
 10
10.5524547529
 20
5.781673076
 30
0.0
 10
10.60893307
 20
5.7989573995
 30
0.0
 10
10.6855864472
 20
5.8168672198
 30
0.0
 10
10.7437680233
 20
5.8270583861
 30
0.0
 10
10.8024908743
 20
5.8336195208
 30
0.0
 10
10.8615469295
 20
5.8360313704
 30
0.0
 10
10.9206127359
 20
5.8342028952
 30
0.0
 10
10.9598177545
 20
5.8302943852
 30
0.0
 10
10.9793188965
 20
5.8276881164
 30
0.0
  0
SPLINE
  5
22A
100
AcDbEntity
  8
0
100
AcDbSpline
 62
3
  6
CONTINUOUS
 70
0
 71
3
 72
13
 73
9
 74
0
 42
0.0000001
 43
0.0000001
 44
0.0000000001
 40
0.0
 40
0.0
 40
0.0
 40
0.0
 40
0.2520783924
 40
0.3779041492
 40
0.5030240851
 40
0.6272420154
 40
0.751133935
 40
1.0
 40
1.0
 40
1.0
 40
1.0
 10
10.9793188965
 20
4.7630333166
 30
0.0
 10
10.9399959639
 20
4.7577779252
 30
0.0
 10
10.8803749665
 20
4.7541548962
 30
0.0
 10
10.80123808
 20
4.7573863782
 30
0.0
 10
10.7424859481
 20
4.7637325737
 30
0.0
 10
10.6846028157
 20
4.7739463809
 30
0.0
 10
10.6084347775
 20
4.7918621921
 30
0.0
 10
10.5522978837
 20
4.8091000236
 30
0.0
 10
10.5150967147
 20
4.8213526524
 30
0.0
  0
SPLINE
  5
22B
100
AcDbEntity
  8
0
100
AcDbSpline
 62
3
  6
CONTINUOUS
 70
0
 71
3
 72
13
 73
9
 74
0
 42
0.0000001
 43
0.0000001
 44
0.0000000001
 40
0.0
 40
0.0
 40
0.0
 40
0.0
 40
0.1237451002
 40
0.2461520297
 40
0.3672346581
 40
0.488428228
 40
0.7370614314
 40
1.0
 40
1.0
 40
1.0
 40
1.0
 10
4.925853833
 20
5.8276881164
 30
0.0
 10
4.9451595164
 20
5.8302682628
 30
0.0
 10
4.9837474063
 20
5.8341096384
 30
0.0
 10
5.0415614008
 20
5.8359678056
 30
0.0
 10
5.0989708054
 20
5.833912802
 30
0.0
 10
5.1758775674
 20
5.8258678037
 30
0.0
 10
5.2736444465
 20
5.8056653608
 30
0.0
 10
5.3507670062
 20
5.7823156503
 30
0.0
 10
5.3900760147
 20
5.7693687806
 30
0.0
  0
SPLINE
  5
22C
100
AcDbEntity
  8
0
100
AcDbSpline
 62
3
  6
CONTINUOUS
 70
0
 71
3
 72
11
 73
7
 74
0
 42
0.0000001
 43
0.0000001
 44
0.0000000001
 40
0.0
 40
0.0
 40
0.0
 40
0.0
 40
0.2524399332
 40
0.5023742725
 40
0.7514072658
 40
1.0
 40
1.0
 40
1.0
 40
1.0
 10
5.3900760147
 20
4.8213526524
 30
0.0
 10
5.3523490812
 20
4.8089268571
 30
0.0
 10
5.276697306
 20
4.7858276954
 30
0.0
 10
5.1607334591
 20
4.7614391705
 30
0.0
 10
5.0430537692
 20
4.7528939199
 30
0.0
 10
4.9646243197
 20
4.7578517579
 30
0.0
 10
4.925853833
 20
4.7630333166
 30
0.0
  0
ELLIPSE
  5
22D
100
AcDbEntity
  8
0
100
AcDbEllipse
 62
3
  6
CONTINUOUS
 10
10.8860556017
 20
5.2953607165
 30
0.0
 11
0.5552256626
 21
-0.0
 31
0.0
 40
0.9725775236
 41
4.8811627565
 42
7.6852078579
  0
ELLIPSE
  5
22E
100
AcDbEntity
  8
0
100
AcDbEllipse
 62
3
  6
CONTINUOUS
 10
5.0191171277
 20
5.2953607165
 30
0.0
 11
-0.5552256626
 21
0.0
 31
0.0
 40
0.9725775236
 41
4.8811627565
 42
7.6852078579
  0
ELLIPSE
  5
22F
100
AcDbEntity
  8
0
100
AcDbEllipse
 62
3
  6
CONTINUOUS
 10
5.0444132205
 20
5.2953607165
 30
0.0
 11
0.721572972
 21
-0.0
 31
0.0
 40
0.7483650594
 41
5.2119504684
 42
7.354420146
  0
ELLIPSE
  5
230
100
AcDbEntity
  8
0
100
AcDbEllipse
 62
3
  6
CONTINUOUS
 10
10.860759509
 20
5.2953607165
 30
0.0
 11
0.721572972
 21
-0.0
 31
0.0
 40
0.7483650594
 41
8.353543122
 42
10.4960127995
  0
ENDSEC
  0
SECTION
  2
OBJECTS
  0
DICTIONARY
  5
C
100
AcDbDictionary
280
0
281
1
  3
ACAD_GROUP
350
D
  3
ACAD_MLINESTYLE
350
17
  3
ACAD_LAYOUT
350
1A
  3
ACAD_PLOTSETTINGS
350
19
  3
ACAD_PLOTSTYLENAME
350
E
  0
DICTIONARY
  5
D
102
{ACAD_REACTORS
330
C
102
}
100
AcDbDictionary
280
0
281
1
  0
ACDBDICTIONARYWDFLT
  5
E
102
{ACAD_REACTORS
330
C
102
}
100
AcDbDictionary
281
1
  3
Normal
350
F
100
AcDbDictionaryWithDefault
340
F
  0
DICTIONARY
  5
17
102
{ACAD_REACTORS
330
C
102
}
100
AcDbDictionary
280
0
281
1
  3
Standard
350
18
  0
DICTIONARY
  5
19
102
{ACAD_REACTORS
330
C
102
}
100
AcDbDictionary
281
1
  0
DICTIONARY
  5
1A
102
{ACAD_REACTORS
330
C
102
}
100
AcDbDictionary
281
1
  3
Model
350
231
  3
Layout1
350
232
  0
ACDBPLACEHOLDER
  5
F
102
{ACAD_REACTORS
330
E
102
}
  0
MLINESTYLE
  5
18
102
{ACAD_REACTORS
330
17
102
}
100
AcDbMlineStyle
  2
STANDARD
 70
0
  3

 62
256
 51
90.0
 52
90.0
 71
2
 49
0.5
 62
256
  6
BYLAYER
 49
-0.5
 62
256
  6
BYLAYER
  0
LAYOUT
  5
231
102
{ACAD_REACTORS
330
1A
102
}
100
AcDbPlotSettings
  1

  2
none_device
  4
ISO_A3_(420.00_x_297.00_MM)
  6

 40
0.0
 41
0.0
 42
0.0
 43
0.0
 44
420.0
 45
297.0
 46
0.0
 47
0.0
 48
0.0
 49
0.0
140
0.0
141
0.0
142
1.0
143
1.0
 70
1024
 72
0
 73
0
 74
0
  7

 75
0
147
1.0
148
0.0
149
0.0
100
AcDbLayout
  1
Model
 70
0
 71
0
 10
0.0
 20
0.0
 11
16.5354330709
 21
11.6929133858
 12
0.0
 22
0.0
 32
0.0
 14
0.0
 24
0.0
 34
0.0
 15
0.0
 25
0.0
 35
0.0
146
0.0
 13
0.0
 23
0.0
 33
0.0
 16
1.0
 26
0.0
 36
0.0
 17
0.0
 27
1.0
 37
0.0
 76
0
330
209
345
0
346
0
  0
LAYOUT
  5
232
102
{ACAD_REACTORS
330
1A
102
}
100
AcDbPlotSettings
  1

  2
none_device
  4
ISO_A3_(420.00_x_297.00_MM)
  6

 40
0.0
 41
0.0
 42
0.0
 43
0.0
 44
420.0
 45
297.0
 46
0.0
 47
0.0
 48
0.0
 49
0.0
140
0.0
141
0.0
142
1.0
143
1.0
 70
0
 72
0
 73
0
 74
0
  7

 75
0
147
1.0
148
0.0
149
0.0
100
AcDbLayout
  1
Layout1
 70
0
 71
1
 10
0.0
 20
0.0
 11
16.5354330709
 21
11.6929133858
 12
0.0
 22
0.0
 32
0.0
 14
0.0
 24
0.0
 34
0.0
 15
0.0
 25
0.0
 35
0.0
146
0.0
 13
0.0
 23
0.0
 33
0.0
 16
1.0
 26
0.0
 36
0.0
 17
0.0
 27
1.0
 37
0.0
 76
0
330
20A
345
0
346
0
  0
ENDSEC
  0
EOF
